G04 #@! TF.GenerationSoftware,KiCad,Pcbnew,(5.1.5-0-10_14)*
G04 #@! TF.CreationDate,2020-04-26T17:44:24+02:00*
G04 #@! TF.ProjectId,Main_Board_v1,4d61696e-5f42-46f6-9172-645f76312e6b,rev?*
G04 #@! TF.SameCoordinates,Original*
G04 #@! TF.FileFunction,Legend,Top*
G04 #@! TF.FilePolarity,Positive*
%FSLAX46Y46*%
G04 Gerber Fmt 4.6, Leading zero omitted, Abs format (unit mm)*
G04 Created by KiCad (PCBNEW (5.1.5-0-10_14)) date 2020-04-26 17:44:24*
%MOMM*%
%LPD*%
G04 APERTURE LIST*
%ADD10C,0.120000*%
%ADD11C,0.150000*%
G04 APERTURE END LIST*
D10*
X94249376Y-78530905D02*
G75*
G03X96087854Y-82969383I1838478J-1838478D01*
G01*
X97926332Y-78530905D02*
G75*
G02X96087854Y-82969383I-1838478J-1838478D01*
G01*
X97887854Y-78519383D02*
X94287854Y-78519383D01*
X64196332Y-36760905D02*
G75*
G03X59757854Y-38599383I-1838478J-1838478D01*
G01*
X64196332Y-40437861D02*
G75*
G02X59757854Y-38599383I-1838478J1838478D01*
G01*
X64207854Y-40399383D02*
X64207854Y-36799383D01*
X44807854Y-34969383D02*
X44207854Y-34969383D01*
X44507854Y-34969383D02*
X44807854Y-34969383D01*
X44507854Y-34669383D02*
X44507854Y-35269383D01*
X44357854Y-37319383D02*
G75*
G03X44357854Y-37319383I-3000000J0D01*
G01*
X40027854Y-35039383D02*
X41357854Y-35039383D01*
X40027854Y-36369383D02*
X40027854Y-35039383D01*
X51857854Y-107669383D02*
G75*
G03X51857854Y-107669383I-3900000J0D01*
G01*
X46157854Y-104669383D02*
X47487854Y-104669383D01*
X46157854Y-105999383D02*
X46157854Y-104669383D01*
X119187854Y-35039383D02*
X119187854Y-36369383D01*
X117857854Y-35039383D02*
X119187854Y-35039383D01*
X116587854Y-35039383D02*
X116587854Y-37699383D01*
X116587854Y-37699383D02*
X78427854Y-37699383D01*
X116587854Y-35039383D02*
X78427854Y-35039383D01*
X78427854Y-35039383D02*
X78427854Y-37699383D01*
X120187854Y-84039383D02*
X120187854Y-85369383D01*
X118857854Y-84039383D02*
X120187854Y-84039383D01*
X117587854Y-84039383D02*
X117587854Y-86699383D01*
X117587854Y-86699383D02*
X79427854Y-86699383D01*
X117587854Y-84039383D02*
X79427854Y-84039383D01*
X79427854Y-84039383D02*
X79427854Y-86699383D01*
X89977854Y-81369383D02*
X89207854Y-81369383D01*
X81897854Y-81369383D02*
X82667854Y-81369383D01*
X89207854Y-79999383D02*
X82667854Y-79999383D01*
X89207854Y-82739383D02*
X89207854Y-79999383D01*
X82667854Y-82739383D02*
X89207854Y-82739383D01*
X82667854Y-79999383D02*
X82667854Y-82739383D01*
X102237854Y-80869383D02*
X103007854Y-80869383D01*
X110317854Y-80869383D02*
X109547854Y-80869383D01*
X103007854Y-82239383D02*
X109547854Y-82239383D01*
X103007854Y-79499383D02*
X103007854Y-82239383D01*
X109547854Y-79499383D02*
X103007854Y-79499383D01*
X109547854Y-82239383D02*
X109547854Y-79499383D01*
X115237854Y-80869383D02*
X116007854Y-80869383D01*
X123317854Y-80869383D02*
X122547854Y-80869383D01*
X116007854Y-82239383D02*
X122547854Y-82239383D01*
X116007854Y-79499383D02*
X116007854Y-82239383D01*
X122547854Y-79499383D02*
X116007854Y-79499383D01*
X122547854Y-82239383D02*
X122547854Y-79499383D01*
X70737854Y-39869383D02*
X71507854Y-39869383D01*
X78817854Y-39869383D02*
X78047854Y-39869383D01*
X71507854Y-41239383D02*
X78047854Y-41239383D01*
X71507854Y-38499383D02*
X71507854Y-41239383D01*
X78047854Y-38499383D02*
X71507854Y-38499383D01*
X78047854Y-41239383D02*
X78047854Y-38499383D01*
X67237854Y-35869383D02*
X68007854Y-35869383D01*
X75317854Y-35869383D02*
X74547854Y-35869383D01*
X68007854Y-37239383D02*
X74547854Y-37239383D01*
X68007854Y-34499383D02*
X68007854Y-37239383D01*
X74547854Y-34499383D02*
X68007854Y-34499383D01*
X74547854Y-37239383D02*
X74547854Y-34499383D01*
X206281854Y-39940383D02*
X206295854Y-40947383D01*
X205279854Y-39931383D02*
X206281854Y-39940383D01*
X206295854Y-40947383D02*
X205279854Y-39931383D01*
X212976054Y-44579583D02*
X212976054Y-41531583D01*
X212976054Y-41531583D02*
X206626054Y-41531583D01*
X206626054Y-44579583D02*
X212976054Y-44579583D01*
X212950654Y-46941783D02*
X206600654Y-46941783D01*
X212950654Y-49989783D02*
X212950654Y-46941783D01*
X206600654Y-49989783D02*
X212950654Y-49989783D01*
X194498854Y-48313383D02*
X194498854Y-51733383D01*
X194498854Y-51733383D02*
X194788854Y-51733383D01*
X194498854Y-43360383D02*
X194498854Y-39940383D01*
X194498854Y-39940383D02*
X194788854Y-39940383D01*
X206281854Y-48313383D02*
X206281854Y-51733383D01*
X206281854Y-51733383D02*
X205991854Y-51733383D01*
X206281854Y-43360383D02*
X206281854Y-39940383D01*
X206281854Y-39940383D02*
X205991854Y-39940383D01*
X206281854Y-114940383D02*
X206295854Y-115947383D01*
X205279854Y-114931383D02*
X206281854Y-114940383D01*
X206295854Y-115947383D02*
X205279854Y-114931383D01*
X212976054Y-119579583D02*
X212976054Y-116531583D01*
X212976054Y-116531583D02*
X206626054Y-116531583D01*
X206626054Y-119579583D02*
X212976054Y-119579583D01*
X212950654Y-121941783D02*
X206600654Y-121941783D01*
X212950654Y-124989783D02*
X212950654Y-121941783D01*
X206600654Y-124989783D02*
X212950654Y-124989783D01*
X194498854Y-123313383D02*
X194498854Y-126733383D01*
X194498854Y-126733383D02*
X194788854Y-126733383D01*
X194498854Y-118360383D02*
X194498854Y-114940383D01*
X194498854Y-114940383D02*
X194788854Y-114940383D01*
X206281854Y-123313383D02*
X206281854Y-126733383D01*
X206281854Y-126733383D02*
X205991854Y-126733383D01*
X206281854Y-118360383D02*
X206281854Y-114940383D01*
X206281854Y-114940383D02*
X205991854Y-114940383D01*
X48477854Y-127369383D02*
X47707854Y-127369383D01*
X40397854Y-127369383D02*
X41167854Y-127369383D01*
X47707854Y-125999383D02*
X41167854Y-125999383D01*
X47707854Y-128739383D02*
X47707854Y-125999383D01*
X41167854Y-128739383D02*
X47707854Y-128739383D01*
X41167854Y-125999383D02*
X41167854Y-128739383D01*
X48857854Y-100489383D02*
X48857854Y-99719383D01*
X48857854Y-92409383D02*
X48857854Y-93179383D01*
X50227854Y-99719383D02*
X50227854Y-93179383D01*
X47487854Y-99719383D02*
X50227854Y-99719383D01*
X47487854Y-93179383D02*
X47487854Y-99719383D01*
X50227854Y-93179383D02*
X47487854Y-93179383D01*
X153307854Y-120049383D02*
X153307854Y-120819383D01*
X153307854Y-128129383D02*
X153307854Y-127359383D01*
X151937854Y-120819383D02*
X151937854Y-127359383D01*
X154677854Y-120819383D02*
X151937854Y-120819383D01*
X154677854Y-127359383D02*
X154677854Y-120819383D01*
X151937854Y-127359383D02*
X154677854Y-127359383D01*
X62977854Y-67869383D02*
X62207854Y-67869383D01*
X54897854Y-67869383D02*
X55667854Y-67869383D01*
X62207854Y-66499383D02*
X55667854Y-66499383D01*
X62207854Y-69239383D02*
X62207854Y-66499383D01*
X55667854Y-69239383D02*
X62207854Y-69239383D01*
X55667854Y-66499383D02*
X55667854Y-69239383D01*
X78137854Y-116239383D02*
X78137854Y-113499383D01*
X85577854Y-116239383D02*
X85577854Y-113499383D01*
X85577854Y-113499383D02*
X78137854Y-113499383D01*
X85577854Y-116239383D02*
X78137854Y-116239383D01*
X195287854Y-85889383D02*
X195287854Y-83149383D01*
X202727854Y-85889383D02*
X202727854Y-83149383D01*
X202727854Y-83149383D02*
X195287854Y-83149383D01*
X202727854Y-85889383D02*
X195287854Y-85889383D01*
X69637854Y-86239383D02*
X69637854Y-83499383D01*
X77077854Y-86239383D02*
X77077854Y-83499383D01*
X77077854Y-83499383D02*
X69637854Y-83499383D01*
X77077854Y-86239383D02*
X69637854Y-86239383D01*
X184237854Y-87916049D02*
X188477854Y-87916049D01*
X184237854Y-101156049D02*
X188477854Y-101156049D01*
X188477854Y-101156049D02*
X188477854Y-87916049D01*
X184237854Y-101156049D02*
X184237854Y-87916049D01*
X111977854Y-115489383D02*
X107737854Y-115489383D01*
X111977854Y-102249383D02*
X107737854Y-102249383D01*
X107737854Y-102249383D02*
X107737854Y-115489383D01*
X111977854Y-102249383D02*
X111977854Y-115489383D01*
X144187854Y-79899383D02*
X148427854Y-79899383D01*
X144187854Y-93139383D02*
X148427854Y-93139383D01*
X148427854Y-93139383D02*
X148427854Y-79899383D01*
X144187854Y-93139383D02*
X144187854Y-79899383D01*
X165162854Y-79899383D02*
X169402854Y-79899383D01*
X165162854Y-93139383D02*
X169402854Y-93139383D01*
X169402854Y-93139383D02*
X169402854Y-79899383D01*
X165162854Y-93139383D02*
X165162854Y-79899383D01*
X163777854Y-94349383D02*
X163777854Y-98589383D01*
X150537854Y-94349383D02*
X150537854Y-98589383D01*
X150537854Y-98589383D02*
X163777854Y-98589383D01*
X150537854Y-94349383D02*
X163777854Y-94349383D01*
X142477854Y-94249383D02*
X142477854Y-98489383D01*
X129237854Y-94249383D02*
X129237854Y-98489383D01*
X129237854Y-98489383D02*
X142477854Y-98489383D01*
X129237854Y-94249383D02*
X142477854Y-94249383D01*
X89077854Y-38499383D02*
X89077854Y-41239383D01*
X81637854Y-38499383D02*
X81637854Y-41239383D01*
X81637854Y-41239383D02*
X89077854Y-41239383D01*
X81637854Y-38499383D02*
X89077854Y-38499383D01*
X68237854Y-70489383D02*
X68237854Y-66249383D01*
X81477854Y-70489383D02*
X81477854Y-66249383D01*
X81477854Y-66249383D02*
X68237854Y-66249383D01*
X81477854Y-70489383D02*
X68237854Y-70489383D01*
X195637854Y-110239383D02*
X195637854Y-107499383D01*
X203077854Y-110239383D02*
X203077854Y-107499383D01*
X203077854Y-107499383D02*
X195637854Y-107499383D01*
X203077854Y-110239383D02*
X195637854Y-110239383D01*
X183237854Y-111749383D02*
X187477854Y-111749383D01*
X183237854Y-124989383D02*
X187477854Y-124989383D01*
X187477854Y-124989383D02*
X187477854Y-111749383D01*
X183237854Y-124989383D02*
X183237854Y-111749383D01*
X124487854Y-89649383D02*
X127227854Y-89649383D01*
X124487854Y-97089383D02*
X127227854Y-97089383D01*
X127227854Y-97089383D02*
X127227854Y-89649383D01*
X124487854Y-97089383D02*
X124487854Y-89649383D01*
X170137854Y-111739383D02*
X170137854Y-108999383D01*
X177577854Y-111739383D02*
X177577854Y-108999383D01*
X177577854Y-108999383D02*
X170137854Y-108999383D01*
X177577854Y-111739383D02*
X170137854Y-111739383D01*
X185082854Y-80814608D02*
X184582854Y-80814608D01*
X184832854Y-80564608D02*
X184832854Y-81064608D01*
X183641854Y-85970383D02*
X183073854Y-85970383D01*
X183875854Y-85930383D02*
X182839854Y-85930383D01*
X184034854Y-85890383D02*
X182680854Y-85890383D01*
X184162854Y-85850383D02*
X182552854Y-85850383D01*
X184272854Y-85810383D02*
X182442854Y-85810383D01*
X184368854Y-85770383D02*
X182346854Y-85770383D01*
X184455854Y-85730383D02*
X182259854Y-85730383D01*
X184535854Y-85690383D02*
X182179854Y-85690383D01*
X184608854Y-85650383D02*
X182106854Y-85650383D01*
X184676854Y-85610383D02*
X182038854Y-85610383D01*
X184740854Y-85570383D02*
X181974854Y-85570383D01*
X184800854Y-85530383D02*
X181914854Y-85530383D01*
X184857854Y-85490383D02*
X181857854Y-85490383D01*
X184911854Y-85450383D02*
X181803854Y-85450383D01*
X184962854Y-85410383D02*
X181752854Y-85410383D01*
X182317854Y-85370383D02*
X181704854Y-85370383D01*
X185010854Y-85370383D02*
X184397854Y-85370383D01*
X182317854Y-85330383D02*
X181658854Y-85330383D01*
X185056854Y-85330383D02*
X184397854Y-85330383D01*
X182317854Y-85290383D02*
X181614854Y-85290383D01*
X185100854Y-85290383D02*
X184397854Y-85290383D01*
X182317854Y-85250383D02*
X181572854Y-85250383D01*
X185142854Y-85250383D02*
X184397854Y-85250383D01*
X182317854Y-85210383D02*
X181531854Y-85210383D01*
X185183854Y-85210383D02*
X184397854Y-85210383D01*
X182317854Y-85170383D02*
X181493854Y-85170383D01*
X185221854Y-85170383D02*
X184397854Y-85170383D01*
X182317854Y-85130383D02*
X181456854Y-85130383D01*
X185258854Y-85130383D02*
X184397854Y-85130383D01*
X182317854Y-85090383D02*
X181420854Y-85090383D01*
X185294854Y-85090383D02*
X184397854Y-85090383D01*
X182317854Y-85050383D02*
X181386854Y-85050383D01*
X185328854Y-85050383D02*
X184397854Y-85050383D01*
X182317854Y-85010383D02*
X181353854Y-85010383D01*
X185361854Y-85010383D02*
X184397854Y-85010383D01*
X182317854Y-84970383D02*
X181322854Y-84970383D01*
X185392854Y-84970383D02*
X184397854Y-84970383D01*
X182317854Y-84930383D02*
X181292854Y-84930383D01*
X185422854Y-84930383D02*
X184397854Y-84930383D01*
X182317854Y-84890383D02*
X181262854Y-84890383D01*
X185452854Y-84890383D02*
X184397854Y-84890383D01*
X182317854Y-84850383D02*
X181235854Y-84850383D01*
X185479854Y-84850383D02*
X184397854Y-84850383D01*
X182317854Y-84810383D02*
X181208854Y-84810383D01*
X185506854Y-84810383D02*
X184397854Y-84810383D01*
X182317854Y-84770383D02*
X181182854Y-84770383D01*
X185532854Y-84770383D02*
X184397854Y-84770383D01*
X182317854Y-84730383D02*
X181157854Y-84730383D01*
X185557854Y-84730383D02*
X184397854Y-84730383D01*
X182317854Y-84690383D02*
X181133854Y-84690383D01*
X185581854Y-84690383D02*
X184397854Y-84690383D01*
X182317854Y-84650383D02*
X181110854Y-84650383D01*
X185604854Y-84650383D02*
X184397854Y-84650383D01*
X182317854Y-84610383D02*
X181089854Y-84610383D01*
X185625854Y-84610383D02*
X184397854Y-84610383D01*
X182317854Y-84570383D02*
X181067854Y-84570383D01*
X185647854Y-84570383D02*
X184397854Y-84570383D01*
X182317854Y-84530383D02*
X181047854Y-84530383D01*
X185667854Y-84530383D02*
X184397854Y-84530383D01*
X182317854Y-84490383D02*
X181028854Y-84490383D01*
X185686854Y-84490383D02*
X184397854Y-84490383D01*
X182317854Y-84450383D02*
X181009854Y-84450383D01*
X185705854Y-84450383D02*
X184397854Y-84450383D01*
X182317854Y-84410383D02*
X180992854Y-84410383D01*
X185722854Y-84410383D02*
X184397854Y-84410383D01*
X182317854Y-84370383D02*
X180975854Y-84370383D01*
X185739854Y-84370383D02*
X184397854Y-84370383D01*
X182317854Y-84330383D02*
X180959854Y-84330383D01*
X185755854Y-84330383D02*
X184397854Y-84330383D01*
X182317854Y-84290383D02*
X180943854Y-84290383D01*
X185771854Y-84290383D02*
X184397854Y-84290383D01*
X182317854Y-84250383D02*
X180929854Y-84250383D01*
X185785854Y-84250383D02*
X184397854Y-84250383D01*
X182317854Y-84210383D02*
X180915854Y-84210383D01*
X185799854Y-84210383D02*
X184397854Y-84210383D01*
X182317854Y-84170383D02*
X180902854Y-84170383D01*
X185812854Y-84170383D02*
X184397854Y-84170383D01*
X182317854Y-84130383D02*
X180889854Y-84130383D01*
X185825854Y-84130383D02*
X184397854Y-84130383D01*
X182317854Y-84090383D02*
X180877854Y-84090383D01*
X185837854Y-84090383D02*
X184397854Y-84090383D01*
X182317854Y-84049383D02*
X180866854Y-84049383D01*
X185848854Y-84049383D02*
X184397854Y-84049383D01*
X182317854Y-84009383D02*
X180856854Y-84009383D01*
X185858854Y-84009383D02*
X184397854Y-84009383D01*
X182317854Y-83969383D02*
X180846854Y-83969383D01*
X185868854Y-83969383D02*
X184397854Y-83969383D01*
X182317854Y-83929383D02*
X180837854Y-83929383D01*
X185877854Y-83929383D02*
X184397854Y-83929383D01*
X182317854Y-83889383D02*
X180829854Y-83889383D01*
X185885854Y-83889383D02*
X184397854Y-83889383D01*
X182317854Y-83849383D02*
X180821854Y-83849383D01*
X185893854Y-83849383D02*
X184397854Y-83849383D01*
X182317854Y-83809383D02*
X180814854Y-83809383D01*
X185900854Y-83809383D02*
X184397854Y-83809383D01*
X182317854Y-83769383D02*
X180807854Y-83769383D01*
X185907854Y-83769383D02*
X184397854Y-83769383D01*
X182317854Y-83729383D02*
X180801854Y-83729383D01*
X185913854Y-83729383D02*
X184397854Y-83729383D01*
X182317854Y-83689383D02*
X180796854Y-83689383D01*
X185918854Y-83689383D02*
X184397854Y-83689383D01*
X182317854Y-83649383D02*
X180792854Y-83649383D01*
X185922854Y-83649383D02*
X184397854Y-83649383D01*
X182317854Y-83609383D02*
X180788854Y-83609383D01*
X185926854Y-83609383D02*
X184397854Y-83609383D01*
X182317854Y-83569383D02*
X180784854Y-83569383D01*
X185930854Y-83569383D02*
X184397854Y-83569383D01*
X182317854Y-83529383D02*
X180781854Y-83529383D01*
X185933854Y-83529383D02*
X184397854Y-83529383D01*
X182317854Y-83489383D02*
X180779854Y-83489383D01*
X185935854Y-83489383D02*
X184397854Y-83489383D01*
X182317854Y-83449383D02*
X180778854Y-83449383D01*
X185936854Y-83449383D02*
X184397854Y-83449383D01*
X185937854Y-83409383D02*
X184397854Y-83409383D01*
X182317854Y-83409383D02*
X180777854Y-83409383D01*
X185937854Y-83369383D02*
X184397854Y-83369383D01*
X182317854Y-83369383D02*
X180777854Y-83369383D01*
X185977854Y-83369383D02*
G75*
G03X185977854Y-83369383I-2620000J0D01*
G01*
X178577854Y-94499383D02*
X178577854Y-97239383D01*
X171137854Y-94499383D02*
X171137854Y-97239383D01*
X171137854Y-97239383D02*
X178577854Y-97239383D01*
X171137854Y-94499383D02*
X178577854Y-94499383D01*
X119577854Y-38499383D02*
X119577854Y-41239383D01*
X112137854Y-38499383D02*
X112137854Y-41239383D01*
X112137854Y-41239383D02*
X119577854Y-41239383D01*
X112137854Y-38499383D02*
X119577854Y-38499383D01*
X195287854Y-36489383D02*
X195287854Y-33749383D01*
X202727854Y-36489383D02*
X202727854Y-33749383D01*
X202727854Y-33749383D02*
X195287854Y-33749383D01*
X202727854Y-36489383D02*
X195287854Y-36489383D01*
X96577854Y-66499383D02*
X96577854Y-69239383D01*
X89137854Y-66499383D02*
X89137854Y-69239383D01*
X89137854Y-69239383D02*
X96577854Y-69239383D01*
X89137854Y-66499383D02*
X96577854Y-66499383D01*
X183937854Y-40249383D02*
X188177854Y-40249383D01*
X183937854Y-53489383D02*
X188177854Y-53489383D01*
X188177854Y-53489383D02*
X188177854Y-40249383D01*
X183937854Y-53489383D02*
X183937854Y-40249383D01*
X195287854Y-60289383D02*
X195287854Y-57549383D01*
X202727854Y-60289383D02*
X202727854Y-57549383D01*
X202727854Y-57549383D02*
X195287854Y-57549383D01*
X202727854Y-60289383D02*
X195287854Y-60289383D01*
X175577854Y-47499383D02*
X175577854Y-50239383D01*
X168137854Y-47499383D02*
X168137854Y-50239383D01*
X168137854Y-50239383D02*
X175577854Y-50239383D01*
X168137854Y-47499383D02*
X175577854Y-47499383D01*
X181727854Y-61089383D02*
X178987854Y-61089383D01*
X181727854Y-53649383D02*
X178987854Y-53649383D01*
X178987854Y-53649383D02*
X178987854Y-61089383D01*
X181727854Y-53649383D02*
X181727854Y-61089383D01*
X161047854Y-33499383D02*
X165287854Y-33499383D01*
X161047854Y-46739383D02*
X165287854Y-46739383D01*
X165287854Y-46739383D02*
X165287854Y-33499383D01*
X161047854Y-46739383D02*
X161047854Y-33499383D01*
X182582854Y-34014608D02*
X182082854Y-34014608D01*
X182332854Y-33764608D02*
X182332854Y-34264608D01*
X181141854Y-39170383D02*
X180573854Y-39170383D01*
X181375854Y-39130383D02*
X180339854Y-39130383D01*
X181534854Y-39090383D02*
X180180854Y-39090383D01*
X181662854Y-39050383D02*
X180052854Y-39050383D01*
X181772854Y-39010383D02*
X179942854Y-39010383D01*
X181868854Y-38970383D02*
X179846854Y-38970383D01*
X181955854Y-38930383D02*
X179759854Y-38930383D01*
X182035854Y-38890383D02*
X179679854Y-38890383D01*
X182108854Y-38850383D02*
X179606854Y-38850383D01*
X182176854Y-38810383D02*
X179538854Y-38810383D01*
X182240854Y-38770383D02*
X179474854Y-38770383D01*
X182300854Y-38730383D02*
X179414854Y-38730383D01*
X182357854Y-38690383D02*
X179357854Y-38690383D01*
X182411854Y-38650383D02*
X179303854Y-38650383D01*
X182462854Y-38610383D02*
X179252854Y-38610383D01*
X179817854Y-38570383D02*
X179204854Y-38570383D01*
X182510854Y-38570383D02*
X181897854Y-38570383D01*
X179817854Y-38530383D02*
X179158854Y-38530383D01*
X182556854Y-38530383D02*
X181897854Y-38530383D01*
X179817854Y-38490383D02*
X179114854Y-38490383D01*
X182600854Y-38490383D02*
X181897854Y-38490383D01*
X179817854Y-38450383D02*
X179072854Y-38450383D01*
X182642854Y-38450383D02*
X181897854Y-38450383D01*
X179817854Y-38410383D02*
X179031854Y-38410383D01*
X182683854Y-38410383D02*
X181897854Y-38410383D01*
X179817854Y-38370383D02*
X178993854Y-38370383D01*
X182721854Y-38370383D02*
X181897854Y-38370383D01*
X179817854Y-38330383D02*
X178956854Y-38330383D01*
X182758854Y-38330383D02*
X181897854Y-38330383D01*
X179817854Y-38290383D02*
X178920854Y-38290383D01*
X182794854Y-38290383D02*
X181897854Y-38290383D01*
X179817854Y-38250383D02*
X178886854Y-38250383D01*
X182828854Y-38250383D02*
X181897854Y-38250383D01*
X179817854Y-38210383D02*
X178853854Y-38210383D01*
X182861854Y-38210383D02*
X181897854Y-38210383D01*
X179817854Y-38170383D02*
X178822854Y-38170383D01*
X182892854Y-38170383D02*
X181897854Y-38170383D01*
X179817854Y-38130383D02*
X178792854Y-38130383D01*
X182922854Y-38130383D02*
X181897854Y-38130383D01*
X179817854Y-38090383D02*
X178762854Y-38090383D01*
X182952854Y-38090383D02*
X181897854Y-38090383D01*
X179817854Y-38050383D02*
X178735854Y-38050383D01*
X182979854Y-38050383D02*
X181897854Y-38050383D01*
X179817854Y-38010383D02*
X178708854Y-38010383D01*
X183006854Y-38010383D02*
X181897854Y-38010383D01*
X179817854Y-37970383D02*
X178682854Y-37970383D01*
X183032854Y-37970383D02*
X181897854Y-37970383D01*
X179817854Y-37930383D02*
X178657854Y-37930383D01*
X183057854Y-37930383D02*
X181897854Y-37930383D01*
X179817854Y-37890383D02*
X178633854Y-37890383D01*
X183081854Y-37890383D02*
X181897854Y-37890383D01*
X179817854Y-37850383D02*
X178610854Y-37850383D01*
X183104854Y-37850383D02*
X181897854Y-37850383D01*
X179817854Y-37810383D02*
X178589854Y-37810383D01*
X183125854Y-37810383D02*
X181897854Y-37810383D01*
X179817854Y-37770383D02*
X178567854Y-37770383D01*
X183147854Y-37770383D02*
X181897854Y-37770383D01*
X179817854Y-37730383D02*
X178547854Y-37730383D01*
X183167854Y-37730383D02*
X181897854Y-37730383D01*
X179817854Y-37690383D02*
X178528854Y-37690383D01*
X183186854Y-37690383D02*
X181897854Y-37690383D01*
X179817854Y-37650383D02*
X178509854Y-37650383D01*
X183205854Y-37650383D02*
X181897854Y-37650383D01*
X179817854Y-37610383D02*
X178492854Y-37610383D01*
X183222854Y-37610383D02*
X181897854Y-37610383D01*
X179817854Y-37570383D02*
X178475854Y-37570383D01*
X183239854Y-37570383D02*
X181897854Y-37570383D01*
X179817854Y-37530383D02*
X178459854Y-37530383D01*
X183255854Y-37530383D02*
X181897854Y-37530383D01*
X179817854Y-37490383D02*
X178443854Y-37490383D01*
X183271854Y-37490383D02*
X181897854Y-37490383D01*
X179817854Y-37450383D02*
X178429854Y-37450383D01*
X183285854Y-37450383D02*
X181897854Y-37450383D01*
X179817854Y-37410383D02*
X178415854Y-37410383D01*
X183299854Y-37410383D02*
X181897854Y-37410383D01*
X179817854Y-37370383D02*
X178402854Y-37370383D01*
X183312854Y-37370383D02*
X181897854Y-37370383D01*
X179817854Y-37330383D02*
X178389854Y-37330383D01*
X183325854Y-37330383D02*
X181897854Y-37330383D01*
X179817854Y-37290383D02*
X178377854Y-37290383D01*
X183337854Y-37290383D02*
X181897854Y-37290383D01*
X179817854Y-37249383D02*
X178366854Y-37249383D01*
X183348854Y-37249383D02*
X181897854Y-37249383D01*
X179817854Y-37209383D02*
X178356854Y-37209383D01*
X183358854Y-37209383D02*
X181897854Y-37209383D01*
X179817854Y-37169383D02*
X178346854Y-37169383D01*
X183368854Y-37169383D02*
X181897854Y-37169383D01*
X179817854Y-37129383D02*
X178337854Y-37129383D01*
X183377854Y-37129383D02*
X181897854Y-37129383D01*
X179817854Y-37089383D02*
X178329854Y-37089383D01*
X183385854Y-37089383D02*
X181897854Y-37089383D01*
X179817854Y-37049383D02*
X178321854Y-37049383D01*
X183393854Y-37049383D02*
X181897854Y-37049383D01*
X179817854Y-37009383D02*
X178314854Y-37009383D01*
X183400854Y-37009383D02*
X181897854Y-37009383D01*
X179817854Y-36969383D02*
X178307854Y-36969383D01*
X183407854Y-36969383D02*
X181897854Y-36969383D01*
X179817854Y-36929383D02*
X178301854Y-36929383D01*
X183413854Y-36929383D02*
X181897854Y-36929383D01*
X179817854Y-36889383D02*
X178296854Y-36889383D01*
X183418854Y-36889383D02*
X181897854Y-36889383D01*
X179817854Y-36849383D02*
X178292854Y-36849383D01*
X183422854Y-36849383D02*
X181897854Y-36849383D01*
X179817854Y-36809383D02*
X178288854Y-36809383D01*
X183426854Y-36809383D02*
X181897854Y-36809383D01*
X179817854Y-36769383D02*
X178284854Y-36769383D01*
X183430854Y-36769383D02*
X181897854Y-36769383D01*
X179817854Y-36729383D02*
X178281854Y-36729383D01*
X183433854Y-36729383D02*
X181897854Y-36729383D01*
X179817854Y-36689383D02*
X178279854Y-36689383D01*
X183435854Y-36689383D02*
X181897854Y-36689383D01*
X179817854Y-36649383D02*
X178278854Y-36649383D01*
X183436854Y-36649383D02*
X181897854Y-36649383D01*
X183437854Y-36609383D02*
X181897854Y-36609383D01*
X179817854Y-36609383D02*
X178277854Y-36609383D01*
X183437854Y-36569383D02*
X181897854Y-36569383D01*
X179817854Y-36569383D02*
X178277854Y-36569383D01*
X183477854Y-36569383D02*
G75*
G03X183477854Y-36569383I-2620000J0D01*
G01*
X183937854Y-64082716D02*
X188177854Y-64082716D01*
X183937854Y-77322716D02*
X188177854Y-77322716D01*
X188177854Y-77322716D02*
X188177854Y-64082716D01*
X183937854Y-77322716D02*
X183937854Y-64082716D01*
X45737854Y-63989383D02*
X45737854Y-59749383D01*
X58977854Y-63989383D02*
X58977854Y-59749383D01*
X58977854Y-59749383D02*
X45737854Y-59749383D01*
X58977854Y-63989383D02*
X45737854Y-63989383D01*
X150277854Y-52769383D02*
X150277854Y-48529383D01*
X163517854Y-52769383D02*
X163517854Y-48529383D01*
X163517854Y-48529383D02*
X150277854Y-48529383D01*
X163517854Y-52769383D02*
X150277854Y-52769383D01*
X45137854Y-43239383D02*
X45137854Y-40499383D01*
X52577854Y-43239383D02*
X52577854Y-40499383D01*
X52577854Y-40499383D02*
X45137854Y-40499383D01*
X52577854Y-43239383D02*
X45137854Y-43239383D01*
X105187854Y-101489383D02*
G75*
G02X105187854Y-99489383I0J1000000D01*
G01*
X105187854Y-99489383D02*
X105187854Y-94429383D01*
X105187854Y-94429383D02*
X54267854Y-94429383D01*
X54267854Y-94429383D02*
X54267854Y-106549383D01*
X54267854Y-106549383D02*
X105187854Y-106549383D01*
X105187854Y-106549383D02*
X105187854Y-101489383D01*
X175398854Y-101139383D02*
X175398854Y-102649383D01*
X171697854Y-101139383D02*
X171697854Y-102649383D01*
X168427854Y-102649383D02*
X178667854Y-102649383D01*
X178667854Y-101139383D02*
X178667854Y-105780383D01*
X168427854Y-101139383D02*
X168427854Y-105780383D01*
X168427854Y-105780383D02*
X178667854Y-105780383D01*
X168427854Y-101139383D02*
X178667854Y-101139383D01*
X65527854Y-52249383D02*
G75*
G02X65527854Y-54249383I0J-1000000D01*
G01*
X65527854Y-54249383D02*
X65527854Y-59309383D01*
X65527854Y-59309383D02*
X116447854Y-59309383D01*
X116447854Y-59309383D02*
X116447854Y-47189383D01*
X116447854Y-47189383D02*
X65527854Y-47189383D01*
X65527854Y-47189383D02*
X65527854Y-52249383D01*
X173848854Y-54239383D02*
X173848854Y-55749383D01*
X170147854Y-54239383D02*
X170147854Y-55749383D01*
X166877854Y-55749383D02*
X177117854Y-55749383D01*
X177117854Y-54239383D02*
X177117854Y-58880383D01*
X166877854Y-54239383D02*
X166877854Y-58880383D01*
X166877854Y-58880383D02*
X177117854Y-58880383D01*
X166877854Y-54239383D02*
X177117854Y-54239383D01*
X51067854Y-44539383D02*
X49817854Y-44539383D01*
X51067854Y-54819383D02*
X51067854Y-44539383D01*
X46567854Y-54819383D02*
X51067854Y-54819383D01*
X46567854Y-44539383D02*
X46567854Y-54819383D01*
X47817854Y-44539383D02*
X46567854Y-44539383D01*
X49817854Y-44539383D02*
G75*
G02X47817854Y-44539383I-1000000J0D01*
G01*
X206281854Y-89940383D02*
X206295854Y-90947383D01*
X205279854Y-89931383D02*
X206281854Y-89940383D01*
X206295854Y-90947383D02*
X205279854Y-89931383D01*
X212976054Y-94579583D02*
X212976054Y-91531583D01*
X212976054Y-91531583D02*
X206626054Y-91531583D01*
X206626054Y-94579583D02*
X212976054Y-94579583D01*
X212950654Y-96941783D02*
X206600654Y-96941783D01*
X212950654Y-99989783D02*
X212950654Y-96941783D01*
X206600654Y-99989783D02*
X212950654Y-99989783D01*
X194498854Y-98313383D02*
X194498854Y-101733383D01*
X194498854Y-101733383D02*
X194788854Y-101733383D01*
X194498854Y-93360383D02*
X194498854Y-89940383D01*
X194498854Y-89940383D02*
X194788854Y-89940383D01*
X206281854Y-98313383D02*
X206281854Y-101733383D01*
X206281854Y-101733383D02*
X205991854Y-101733383D01*
X206281854Y-93360383D02*
X206281854Y-89940383D01*
X206281854Y-89940383D02*
X205991854Y-89940383D01*
X206281854Y-64940383D02*
X206295854Y-65947383D01*
X205279854Y-64931383D02*
X206281854Y-64940383D01*
X206295854Y-65947383D02*
X205279854Y-64931383D01*
X212976054Y-69579583D02*
X212976054Y-66531583D01*
X212976054Y-66531583D02*
X206626054Y-66531583D01*
X206626054Y-69579583D02*
X212976054Y-69579583D01*
X212950654Y-71941783D02*
X206600654Y-71941783D01*
X212950654Y-74989783D02*
X212950654Y-71941783D01*
X206600654Y-74989783D02*
X212950654Y-74989783D01*
X194498854Y-73313383D02*
X194498854Y-76733383D01*
X194498854Y-76733383D02*
X194788854Y-76733383D01*
X194498854Y-68360383D02*
X194498854Y-64940383D01*
X194498854Y-64940383D02*
X194788854Y-64940383D01*
X206281854Y-73313383D02*
X206281854Y-76733383D01*
X206281854Y-76733383D02*
X205991854Y-76733383D01*
X206281854Y-68360383D02*
X206281854Y-64940383D01*
X206281854Y-64940383D02*
X205991854Y-64940383D01*
X75641854Y-73763383D02*
X76411854Y-73763383D01*
X83721854Y-73763383D02*
X82951854Y-73763383D01*
X76411854Y-75133383D02*
X82951854Y-75133383D01*
X76411854Y-72393383D02*
X76411854Y-75133383D01*
X82951854Y-72393383D02*
X76411854Y-72393383D01*
X82951854Y-75133383D02*
X82951854Y-72393383D01*
X75641854Y-76811383D02*
X76411854Y-76811383D01*
X83721854Y-76811383D02*
X82951854Y-76811383D01*
X76411854Y-78181383D02*
X82951854Y-78181383D01*
X76411854Y-75441383D02*
X76411854Y-78181383D01*
X82951854Y-75441383D02*
X76411854Y-75441383D01*
X82951854Y-78181383D02*
X82951854Y-75441383D01*
X64357854Y-118749383D02*
X64357854Y-119519383D01*
X64357854Y-126829383D02*
X64357854Y-126059383D01*
X62987854Y-119519383D02*
X62987854Y-126059383D01*
X65727854Y-119519383D02*
X62987854Y-119519383D01*
X65727854Y-126059383D02*
X65727854Y-119519383D01*
X62987854Y-126059383D02*
X65727854Y-126059383D01*
X41357854Y-100249383D02*
X41357854Y-101019383D01*
X41357854Y-108329383D02*
X41357854Y-107559383D01*
X39987854Y-101019383D02*
X39987854Y-107559383D01*
X42727854Y-101019383D02*
X39987854Y-101019383D01*
X42727854Y-107559383D02*
X42727854Y-101019383D01*
X39987854Y-107559383D02*
X42727854Y-107559383D01*
X41357854Y-113749383D02*
X41357854Y-114519383D01*
X41357854Y-121829383D02*
X41357854Y-121059383D01*
X39987854Y-114519383D02*
X39987854Y-121059383D01*
X42727854Y-114519383D02*
X39987854Y-114519383D01*
X42727854Y-121059383D02*
X42727854Y-114519383D01*
X39987854Y-121059383D02*
X42727854Y-121059383D01*
X191707854Y-90649383D02*
X191707854Y-91419383D01*
X191707854Y-98729383D02*
X191707854Y-97959383D01*
X190337854Y-91419383D02*
X190337854Y-97959383D01*
X193077854Y-91419383D02*
X190337854Y-91419383D01*
X193077854Y-97959383D02*
X193077854Y-91419383D01*
X190337854Y-97959383D02*
X193077854Y-97959383D01*
X117857854Y-115989383D02*
X117857854Y-115219383D01*
X117857854Y-107909383D02*
X117857854Y-108679383D01*
X119227854Y-115219383D02*
X119227854Y-108679383D01*
X116487854Y-115219383D02*
X119227854Y-115219383D01*
X116487854Y-108679383D02*
X116487854Y-115219383D01*
X119227854Y-108679383D02*
X116487854Y-108679383D01*
X114357854Y-105249383D02*
X114357854Y-106019383D01*
X114357854Y-113329383D02*
X114357854Y-112559383D01*
X112987854Y-106019383D02*
X112987854Y-112559383D01*
X115727854Y-106019383D02*
X112987854Y-106019383D01*
X115727854Y-112559383D02*
X115727854Y-106019383D01*
X112987854Y-112559383D02*
X115727854Y-112559383D01*
X129737854Y-110869383D02*
X130507854Y-110869383D01*
X137817854Y-110869383D02*
X137047854Y-110869383D01*
X130507854Y-112239383D02*
X137047854Y-112239383D01*
X130507854Y-109499383D02*
X130507854Y-112239383D01*
X137047854Y-109499383D02*
X130507854Y-109499383D01*
X137047854Y-112239383D02*
X137047854Y-109499383D01*
X165557854Y-67039383D02*
X166327854Y-67039383D01*
X173637854Y-67039383D02*
X172867854Y-67039383D01*
X166327854Y-68409383D02*
X172867854Y-68409383D01*
X166327854Y-65669383D02*
X166327854Y-68409383D01*
X172867854Y-65669383D02*
X166327854Y-65669383D01*
X172867854Y-68409383D02*
X172867854Y-65669383D01*
X165707854Y-63239383D02*
X166477854Y-63239383D01*
X173787854Y-63239383D02*
X173017854Y-63239383D01*
X166477854Y-64609383D02*
X173017854Y-64609383D01*
X166477854Y-61869383D02*
X166477854Y-64609383D01*
X173017854Y-61869383D02*
X166477854Y-61869383D01*
X173017854Y-64609383D02*
X173017854Y-61869383D01*
X42237854Y-72869383D02*
X43007854Y-72869383D01*
X50317854Y-72869383D02*
X49547854Y-72869383D01*
X43007854Y-74239383D02*
X49547854Y-74239383D01*
X43007854Y-71499383D02*
X43007854Y-74239383D01*
X49547854Y-71499383D02*
X43007854Y-71499383D01*
X49547854Y-74239383D02*
X49547854Y-71499383D01*
X110857854Y-126989383D02*
X110857854Y-126219383D01*
X110857854Y-118909383D02*
X110857854Y-119679383D01*
X112227854Y-126219383D02*
X112227854Y-119679383D01*
X109487854Y-126219383D02*
X112227854Y-126219383D01*
X109487854Y-119679383D02*
X109487854Y-126219383D01*
X112227854Y-119679383D02*
X109487854Y-119679383D01*
X95357854Y-118749383D02*
X95357854Y-119519383D01*
X95357854Y-126829383D02*
X95357854Y-126059383D01*
X93987854Y-119519383D02*
X93987854Y-126059383D01*
X96727854Y-119519383D02*
X93987854Y-119519383D01*
X96727854Y-126059383D02*
X96727854Y-119519383D01*
X93987854Y-126059383D02*
X96727854Y-126059383D01*
X79857854Y-118749383D02*
X79857854Y-119519383D01*
X79857854Y-126829383D02*
X79857854Y-126059383D01*
X78487854Y-119519383D02*
X78487854Y-126059383D01*
X81227854Y-119519383D02*
X78487854Y-119519383D01*
X81227854Y-126059383D02*
X81227854Y-119519383D01*
X78487854Y-126059383D02*
X81227854Y-126059383D01*
X41357854Y-89989383D02*
X41357854Y-89219383D01*
X41357854Y-81909383D02*
X41357854Y-82679383D01*
X42727854Y-89219383D02*
X42727854Y-82679383D01*
X39987854Y-89219383D02*
X42727854Y-89219383D01*
X39987854Y-82679383D02*
X39987854Y-89219383D01*
X42727854Y-82679383D02*
X39987854Y-82679383D01*
X44857854Y-97489383D02*
X44857854Y-96719383D01*
X44857854Y-89409383D02*
X44857854Y-90179383D01*
X46227854Y-96719383D02*
X46227854Y-90179383D01*
X43487854Y-96719383D02*
X46227854Y-96719383D01*
X43487854Y-90179383D02*
X43487854Y-96719383D01*
X46227854Y-90179383D02*
X43487854Y-90179383D01*
X125857854Y-99749383D02*
X125857854Y-100519383D01*
X125857854Y-107829383D02*
X125857854Y-107059383D01*
X124487854Y-100519383D02*
X124487854Y-107059383D01*
X127227854Y-100519383D02*
X124487854Y-100519383D01*
X127227854Y-107059383D02*
X127227854Y-100519383D01*
X124487854Y-107059383D02*
X127227854Y-107059383D01*
X50477854Y-77369383D02*
X49707854Y-77369383D01*
X42397854Y-77369383D02*
X43167854Y-77369383D01*
X49707854Y-75999383D02*
X43167854Y-75999383D01*
X49707854Y-78739383D02*
X49707854Y-75999383D01*
X43167854Y-78739383D02*
X49707854Y-78739383D01*
X43167854Y-75999383D02*
X43167854Y-78739383D01*
X121857854Y-103749383D02*
X121857854Y-104519383D01*
X121857854Y-111829383D02*
X121857854Y-111059383D01*
X120487854Y-104519383D02*
X120487854Y-111059383D01*
X123227854Y-104519383D02*
X120487854Y-104519383D01*
X123227854Y-111059383D02*
X123227854Y-104519383D01*
X120487854Y-111059383D02*
X123227854Y-111059383D01*
X142737854Y-110869383D02*
X143507854Y-110869383D01*
X150817854Y-110869383D02*
X150047854Y-110869383D01*
X143507854Y-112239383D02*
X150047854Y-112239383D01*
X143507854Y-109499383D02*
X143507854Y-112239383D01*
X150047854Y-109499383D02*
X143507854Y-109499383D01*
X150047854Y-112239383D02*
X150047854Y-109499383D01*
X191707854Y-114349383D02*
X191707854Y-115119383D01*
X191707854Y-122429383D02*
X191707854Y-121659383D01*
X190337854Y-115119383D02*
X190337854Y-121659383D01*
X193077854Y-115119383D02*
X190337854Y-115119383D01*
X193077854Y-121659383D02*
X193077854Y-115119383D01*
X190337854Y-121659383D02*
X193077854Y-121659383D01*
X139037854Y-50319383D02*
X139807854Y-50319383D01*
X147117854Y-50319383D02*
X146347854Y-50319383D01*
X139807854Y-51689383D02*
X146347854Y-51689383D01*
X139807854Y-48949383D02*
X139807854Y-51689383D01*
X146347854Y-48949383D02*
X139807854Y-48949383D01*
X146347854Y-51689383D02*
X146347854Y-48949383D01*
X140927854Y-35519383D02*
X140157854Y-35519383D01*
X132847854Y-35519383D02*
X133617854Y-35519383D01*
X140157854Y-34149383D02*
X133617854Y-34149383D01*
X140157854Y-36889383D02*
X140157854Y-34149383D01*
X133617854Y-36889383D02*
X140157854Y-36889383D01*
X133617854Y-34149383D02*
X133617854Y-36889383D01*
X130357854Y-49989383D02*
X130357854Y-49219383D01*
X130357854Y-41909383D02*
X130357854Y-42679383D01*
X131727854Y-49219383D02*
X131727854Y-42679383D01*
X128987854Y-49219383D02*
X131727854Y-49219383D01*
X128987854Y-42679383D02*
X128987854Y-49219383D01*
X131727854Y-42679383D02*
X128987854Y-42679383D01*
X146977854Y-54369383D02*
X146207854Y-54369383D01*
X138897854Y-54369383D02*
X139667854Y-54369383D01*
X146207854Y-52999383D02*
X139667854Y-52999383D01*
X146207854Y-55739383D02*
X146207854Y-52999383D01*
X139667854Y-55739383D02*
X146207854Y-55739383D01*
X139667854Y-52999383D02*
X139667854Y-55739383D01*
X134357854Y-49989383D02*
X134357854Y-49219383D01*
X134357854Y-41909383D02*
X134357854Y-42679383D01*
X135727854Y-49219383D02*
X135727854Y-42679383D01*
X132987854Y-49219383D02*
X135727854Y-49219383D01*
X132987854Y-42679383D02*
X132987854Y-49219383D01*
X135727854Y-42679383D02*
X132987854Y-42679383D01*
X191707854Y-43249383D02*
X191707854Y-44019383D01*
X191707854Y-51329383D02*
X191707854Y-50559383D01*
X190337854Y-44019383D02*
X190337854Y-50559383D01*
X193077854Y-44019383D02*
X190337854Y-44019383D01*
X193077854Y-50559383D02*
X193077854Y-44019383D01*
X190337854Y-50559383D02*
X193077854Y-50559383D01*
X143887854Y-68429383D02*
X144657854Y-68429383D01*
X151967854Y-68429383D02*
X151197854Y-68429383D01*
X144657854Y-69799383D02*
X151197854Y-69799383D01*
X144657854Y-67059383D02*
X144657854Y-69799383D01*
X151197854Y-67059383D02*
X144657854Y-67059383D01*
X151197854Y-69799383D02*
X151197854Y-67059383D01*
X57357854Y-44489383D02*
X57357854Y-43719383D01*
X57357854Y-36409383D02*
X57357854Y-37179383D01*
X58727854Y-43719383D02*
X58727854Y-37179383D01*
X55987854Y-43719383D02*
X58727854Y-43719383D01*
X55987854Y-37179383D02*
X55987854Y-43719383D01*
X58727854Y-37179383D02*
X55987854Y-37179383D01*
X57357854Y-56989383D02*
X57357854Y-56219383D01*
X57357854Y-48909383D02*
X57357854Y-49679383D01*
X58727854Y-56219383D02*
X58727854Y-49679383D01*
X55987854Y-56219383D02*
X58727854Y-56219383D01*
X55987854Y-49679383D02*
X55987854Y-56219383D01*
X58727854Y-49679383D02*
X55987854Y-49679383D01*
X44637854Y-57869383D02*
X45407854Y-57869383D01*
X52717854Y-57869383D02*
X51947854Y-57869383D01*
X45407854Y-59239383D02*
X51947854Y-59239383D01*
X45407854Y-56499383D02*
X45407854Y-59239383D01*
X51947854Y-56499383D02*
X45407854Y-56499383D01*
X51947854Y-59239383D02*
X51947854Y-56499383D01*
X61647854Y-47879383D02*
X61647854Y-48649383D01*
X61647854Y-55959383D02*
X61647854Y-55189383D01*
X60277854Y-48649383D02*
X60277854Y-55189383D01*
X63017854Y-48649383D02*
X60277854Y-48649383D01*
X63017854Y-55189383D02*
X63017854Y-48649383D01*
X60277854Y-55189383D02*
X63017854Y-55189383D01*
X191707854Y-66949383D02*
X191707854Y-67719383D01*
X191707854Y-75029383D02*
X191707854Y-74259383D01*
X190337854Y-67719383D02*
X190337854Y-74259383D01*
X193077854Y-67719383D02*
X190337854Y-67719383D01*
X193077854Y-74259383D02*
X193077854Y-67719383D01*
X190337854Y-74259383D02*
X193077854Y-74259383D01*
X138398854Y-101139383D02*
X138398854Y-102649383D01*
X134697854Y-101139383D02*
X134697854Y-102649383D01*
X131427854Y-102649383D02*
X141667854Y-102649383D01*
X141667854Y-101139383D02*
X141667854Y-105780383D01*
X131427854Y-101139383D02*
X131427854Y-105780383D01*
X131427854Y-105780383D02*
X141667854Y-105780383D01*
X131427854Y-101139383D02*
X141667854Y-101139383D01*
X158398854Y-101139383D02*
X158398854Y-102649383D01*
X154697854Y-101139383D02*
X154697854Y-102649383D01*
X151427854Y-102649383D02*
X161667854Y-102649383D01*
X161667854Y-101139383D02*
X161667854Y-105780383D01*
X151427854Y-101139383D02*
X151427854Y-105780383D01*
X151427854Y-105780383D02*
X161667854Y-105780383D01*
X151427854Y-101139383D02*
X161667854Y-101139383D01*
X159398854Y-54139383D02*
X159398854Y-55649383D01*
X155697854Y-54139383D02*
X155697854Y-55649383D01*
X152427854Y-55649383D02*
X162667854Y-55649383D01*
X162667854Y-54139383D02*
X162667854Y-58780383D01*
X152427854Y-54139383D02*
X152427854Y-58780383D01*
X152427854Y-58780383D02*
X162667854Y-58780383D01*
X152427854Y-54139383D02*
X162667854Y-54139383D01*
X149477854Y-118549383D02*
X149477854Y-119819383D01*
X148207854Y-118549383D02*
X149477854Y-118549383D01*
X130047854Y-120862312D02*
X130047854Y-121259383D01*
X130807854Y-120862312D02*
X130807854Y-121259383D01*
X130047854Y-129919383D02*
X130047854Y-123919383D01*
X130807854Y-129919383D02*
X130047854Y-129919383D01*
X130807854Y-123919383D02*
X130807854Y-129919383D01*
X131697854Y-121259383D02*
X131697854Y-123919383D01*
X132587854Y-120862312D02*
X132587854Y-121259383D01*
X133347854Y-120862312D02*
X133347854Y-121259383D01*
X132587854Y-129919383D02*
X132587854Y-123919383D01*
X133347854Y-129919383D02*
X132587854Y-129919383D01*
X133347854Y-123919383D02*
X133347854Y-129919383D01*
X134237854Y-121259383D02*
X134237854Y-123919383D01*
X135127854Y-120862312D02*
X135127854Y-121259383D01*
X135887854Y-120862312D02*
X135887854Y-121259383D01*
X135127854Y-129919383D02*
X135127854Y-123919383D01*
X135887854Y-129919383D02*
X135127854Y-129919383D01*
X135887854Y-123919383D02*
X135887854Y-129919383D01*
X136777854Y-121259383D02*
X136777854Y-123919383D01*
X137667854Y-120862312D02*
X137667854Y-121259383D01*
X138427854Y-120862312D02*
X138427854Y-121259383D01*
X137667854Y-129919383D02*
X137667854Y-123919383D01*
X138427854Y-129919383D02*
X137667854Y-129919383D01*
X138427854Y-123919383D02*
X138427854Y-129919383D01*
X139317854Y-121259383D02*
X139317854Y-123919383D01*
X140207854Y-120862312D02*
X140207854Y-121259383D01*
X140967854Y-120862312D02*
X140967854Y-121259383D01*
X140207854Y-129919383D02*
X140207854Y-123919383D01*
X140967854Y-129919383D02*
X140207854Y-129919383D01*
X140967854Y-123919383D02*
X140967854Y-129919383D01*
X141857854Y-121259383D02*
X141857854Y-123919383D01*
X142747854Y-120862312D02*
X142747854Y-121259383D01*
X143507854Y-120862312D02*
X143507854Y-121259383D01*
X142747854Y-129919383D02*
X142747854Y-123919383D01*
X143507854Y-129919383D02*
X142747854Y-129919383D01*
X143507854Y-123919383D02*
X143507854Y-129919383D01*
X144397854Y-121259383D02*
X144397854Y-123919383D01*
X145287854Y-120862312D02*
X145287854Y-121259383D01*
X146047854Y-120862312D02*
X146047854Y-121259383D01*
X145287854Y-129919383D02*
X145287854Y-123919383D01*
X146047854Y-129919383D02*
X145287854Y-129919383D01*
X146047854Y-123919383D02*
X146047854Y-129919383D01*
X146937854Y-121259383D02*
X146937854Y-123919383D01*
X147827854Y-120929383D02*
X147827854Y-121259383D01*
X148587854Y-120929383D02*
X148587854Y-121259383D01*
X147927854Y-123919383D02*
X147927854Y-129919383D01*
X148047854Y-123919383D02*
X148047854Y-129919383D01*
X148167854Y-123919383D02*
X148167854Y-129919383D01*
X148287854Y-123919383D02*
X148287854Y-129919383D01*
X148407854Y-123919383D02*
X148407854Y-129919383D01*
X148527854Y-123919383D02*
X148527854Y-129919383D01*
X147827854Y-129919383D02*
X147827854Y-123919383D01*
X148587854Y-129919383D02*
X147827854Y-129919383D01*
X148587854Y-123919383D02*
X148587854Y-129919383D01*
X149537854Y-123919383D02*
X149537854Y-121259383D01*
X129097854Y-123919383D02*
X149537854Y-123919383D01*
X129097854Y-121259383D02*
X129097854Y-123919383D01*
X149537854Y-121259383D02*
X129097854Y-121259383D01*
X57027854Y-86199383D02*
X57027854Y-84869383D01*
X58357854Y-86199383D02*
X57027854Y-86199383D01*
X59627854Y-86199383D02*
X59627854Y-83539383D01*
X59627854Y-83539383D02*
X62227854Y-83539383D01*
X59627854Y-86199383D02*
X62227854Y-86199383D01*
X62227854Y-86199383D02*
X62227854Y-83539383D01*
X59527854Y-82199383D02*
X59527854Y-80869383D01*
X60857854Y-82199383D02*
X59527854Y-82199383D01*
X62127854Y-82199383D02*
X62127854Y-79539383D01*
X62127854Y-79539383D02*
X67267854Y-79539383D01*
X62127854Y-82199383D02*
X67267854Y-82199383D01*
X67267854Y-82199383D02*
X67267854Y-79539383D01*
X140262854Y-91999383D02*
X138932854Y-91999383D01*
X140262854Y-90669383D02*
X140262854Y-91999383D01*
X136732854Y-86769383D02*
X134532854Y-86769383D01*
X134532854Y-86769383D02*
X134532854Y-84599383D01*
X136732854Y-86769383D02*
X136732854Y-84599383D01*
X136732854Y-84599383D02*
X134532854Y-84599383D01*
X161237854Y-91999383D02*
X159907854Y-91999383D01*
X161237854Y-90669383D02*
X161237854Y-91999383D01*
X157707854Y-86769383D02*
X155507854Y-86769383D01*
X155507854Y-86769383D02*
X155507854Y-84599383D01*
X157707854Y-86769383D02*
X157707854Y-84599383D01*
X157707854Y-84599383D02*
X155507854Y-84599383D01*
X177487854Y-91999383D02*
X176157854Y-91999383D01*
X177487854Y-90669383D02*
X177487854Y-91999383D01*
X173957854Y-86769383D02*
X171757854Y-86769383D01*
X171757854Y-86769383D02*
X171757854Y-84599383D01*
X173957854Y-86769383D02*
X173957854Y-84599383D01*
X173957854Y-84599383D02*
X171757854Y-84599383D01*
X116157854Y-67069383D02*
X113557854Y-67069383D01*
X116157854Y-67369383D02*
X116157854Y-67069383D01*
X111057854Y-67369383D02*
X116157854Y-67369383D01*
X111057854Y-67269383D02*
X111057854Y-67369383D01*
X113657854Y-67069383D02*
X113957854Y-67169383D01*
X111057854Y-67069383D02*
X113657854Y-67069383D01*
X111057854Y-67169383D02*
X111057854Y-67069383D01*
X116157854Y-67169383D02*
X111057854Y-67169383D01*
X116157854Y-66969383D02*
X116157854Y-67169383D01*
X111057854Y-66969383D02*
X116157854Y-66969383D01*
X111057854Y-67269383D02*
X111057854Y-66969383D01*
X116157854Y-67269383D02*
X111057854Y-67269383D01*
X111027854Y-69699383D02*
X111027854Y-68369383D01*
X112357854Y-69699383D02*
X111027854Y-69699383D01*
X113627854Y-69699383D02*
X113627854Y-67039383D01*
X113627854Y-67039383D02*
X116227854Y-67039383D01*
X113627854Y-69699383D02*
X116227854Y-69699383D01*
X116227854Y-69699383D02*
X116227854Y-67039383D01*
X39127854Y-61139383D02*
X37857854Y-61139383D01*
X39127854Y-59869383D02*
X39127854Y-61139383D01*
X36814925Y-41709383D02*
X36417854Y-41709383D01*
X36814925Y-42469383D02*
X36417854Y-42469383D01*
X27757854Y-41709383D02*
X33757854Y-41709383D01*
X27757854Y-42469383D02*
X27757854Y-41709383D01*
X33757854Y-42469383D02*
X27757854Y-42469383D01*
X36417854Y-43359383D02*
X33757854Y-43359383D01*
X36814925Y-44249383D02*
X36417854Y-44249383D01*
X36814925Y-45009383D02*
X36417854Y-45009383D01*
X27757854Y-44249383D02*
X33757854Y-44249383D01*
X27757854Y-45009383D02*
X27757854Y-44249383D01*
X33757854Y-45009383D02*
X27757854Y-45009383D01*
X36417854Y-45899383D02*
X33757854Y-45899383D01*
X36814925Y-46789383D02*
X36417854Y-46789383D01*
X36814925Y-47549383D02*
X36417854Y-47549383D01*
X27757854Y-46789383D02*
X33757854Y-46789383D01*
X27757854Y-47549383D02*
X27757854Y-46789383D01*
X33757854Y-47549383D02*
X27757854Y-47549383D01*
X36417854Y-48439383D02*
X33757854Y-48439383D01*
X36814925Y-49329383D02*
X36417854Y-49329383D01*
X36814925Y-50089383D02*
X36417854Y-50089383D01*
X27757854Y-49329383D02*
X33757854Y-49329383D01*
X27757854Y-50089383D02*
X27757854Y-49329383D01*
X33757854Y-50089383D02*
X27757854Y-50089383D01*
X36417854Y-50979383D02*
X33757854Y-50979383D01*
X36814925Y-51869383D02*
X36417854Y-51869383D01*
X36814925Y-52629383D02*
X36417854Y-52629383D01*
X27757854Y-51869383D02*
X33757854Y-51869383D01*
X27757854Y-52629383D02*
X27757854Y-51869383D01*
X33757854Y-52629383D02*
X27757854Y-52629383D01*
X36417854Y-53519383D02*
X33757854Y-53519383D01*
X36814925Y-54409383D02*
X36417854Y-54409383D01*
X36814925Y-55169383D02*
X36417854Y-55169383D01*
X27757854Y-54409383D02*
X33757854Y-54409383D01*
X27757854Y-55169383D02*
X27757854Y-54409383D01*
X33757854Y-55169383D02*
X27757854Y-55169383D01*
X36417854Y-56059383D02*
X33757854Y-56059383D01*
X36814925Y-56949383D02*
X36417854Y-56949383D01*
X36814925Y-57709383D02*
X36417854Y-57709383D01*
X27757854Y-56949383D02*
X33757854Y-56949383D01*
X27757854Y-57709383D02*
X27757854Y-56949383D01*
X33757854Y-57709383D02*
X27757854Y-57709383D01*
X36417854Y-58599383D02*
X33757854Y-58599383D01*
X36747854Y-59489383D02*
X36417854Y-59489383D01*
X36747854Y-60249383D02*
X36417854Y-60249383D01*
X33757854Y-59589383D02*
X27757854Y-59589383D01*
X33757854Y-59709383D02*
X27757854Y-59709383D01*
X33757854Y-59829383D02*
X27757854Y-59829383D01*
X33757854Y-59949383D02*
X27757854Y-59949383D01*
X33757854Y-60069383D02*
X27757854Y-60069383D01*
X33757854Y-60189383D02*
X27757854Y-60189383D01*
X27757854Y-59489383D02*
X33757854Y-59489383D01*
X27757854Y-60249383D02*
X27757854Y-59489383D01*
X33757854Y-60249383D02*
X27757854Y-60249383D01*
X33757854Y-61199383D02*
X36417854Y-61199383D01*
X33757854Y-40759383D02*
X33757854Y-61199383D01*
X36417854Y-40759383D02*
X33757854Y-40759383D01*
X36417854Y-61199383D02*
X36417854Y-40759383D01*
X101027854Y-69199383D02*
X101027854Y-67869383D01*
X102357854Y-69199383D02*
X101027854Y-69199383D01*
X103627854Y-69199383D02*
X103627854Y-66539383D01*
X103627854Y-66539383D02*
X108767854Y-66539383D01*
X103627854Y-69199383D02*
X108767854Y-69199383D01*
X108767854Y-69199383D02*
X108767854Y-66539383D01*
X175437854Y-44549383D02*
X174107854Y-44549383D01*
X175437854Y-43219383D02*
X175437854Y-44549383D01*
X171907854Y-39319383D02*
X169707854Y-39319383D01*
X169707854Y-39319383D02*
X169707854Y-37149383D01*
X171907854Y-39319383D02*
X171907854Y-37149383D01*
X171907854Y-37149383D02*
X169707854Y-37149383D01*
X157387854Y-44549383D02*
X156057854Y-44549383D01*
X157387854Y-43219383D02*
X157387854Y-44549383D01*
X153857854Y-39319383D02*
X151657854Y-39319383D01*
X151657854Y-39319383D02*
X151657854Y-37149383D01*
X153857854Y-39319383D02*
X153857854Y-37149383D01*
X153857854Y-37149383D02*
X151657854Y-37149383D01*
X171337854Y-72859383D02*
X171337854Y-69919383D01*
X171097854Y-72859383D02*
X171097854Y-69919383D01*
X171217854Y-72859383D02*
X171217854Y-69919383D01*
X165657854Y-71389383D02*
X166677854Y-71389383D01*
X173137854Y-71389383D02*
X172117854Y-71389383D01*
X166677854Y-72859383D02*
X172117854Y-72859383D01*
X166677854Y-69919383D02*
X166677854Y-72859383D01*
X172117854Y-69919383D02*
X166677854Y-69919383D01*
X172117854Y-72859383D02*
X172117854Y-69919383D01*
X129237854Y-88779383D02*
X132177854Y-88779383D01*
X129237854Y-88539383D02*
X132177854Y-88539383D01*
X129237854Y-88659383D02*
X132177854Y-88659383D01*
X130707854Y-83099383D02*
X130707854Y-84119383D01*
X130707854Y-90579383D02*
X130707854Y-89559383D01*
X129237854Y-84119383D02*
X129237854Y-89559383D01*
X132177854Y-84119383D02*
X129237854Y-84119383D01*
X132177854Y-89559383D02*
X132177854Y-84119383D01*
X129237854Y-89559383D02*
X132177854Y-89559383D01*
X150212854Y-88779383D02*
X153152854Y-88779383D01*
X150212854Y-88539383D02*
X153152854Y-88539383D01*
X150212854Y-88659383D02*
X153152854Y-88659383D01*
X151682854Y-83099383D02*
X151682854Y-84119383D01*
X151682854Y-90579383D02*
X151682854Y-89559383D01*
X150212854Y-84119383D02*
X150212854Y-89559383D01*
X153152854Y-84119383D02*
X150212854Y-84119383D01*
X153152854Y-89559383D02*
X153152854Y-84119383D01*
X150212854Y-89559383D02*
X153152854Y-89559383D01*
X146457854Y-42429383D02*
X149397854Y-42429383D01*
X146457854Y-42189383D02*
X149397854Y-42189383D01*
X146457854Y-42309383D02*
X149397854Y-42309383D01*
X147927854Y-36749383D02*
X147927854Y-37769383D01*
X147927854Y-44229383D02*
X147927854Y-43209383D01*
X146457854Y-37769383D02*
X146457854Y-43209383D01*
X149397854Y-37769383D02*
X146457854Y-37769383D01*
X149397854Y-43209383D02*
X149397854Y-37769383D01*
X146457854Y-43209383D02*
X149397854Y-43209383D01*
D11*
X95992615Y-84477002D02*
X95897377Y-84429383D01*
X95802139Y-84334144D01*
X95659282Y-84191287D01*
X95564044Y-84143668D01*
X95468806Y-84143668D01*
X95516425Y-84381763D02*
X95421187Y-84334144D01*
X95325949Y-84238906D01*
X95278330Y-84048430D01*
X95278330Y-83715097D01*
X95325949Y-83524621D01*
X95421187Y-83429383D01*
X95516425Y-83381763D01*
X95706901Y-83381763D01*
X95802139Y-83429383D01*
X95897377Y-83524621D01*
X95944996Y-83715097D01*
X95944996Y-84048430D01*
X95897377Y-84238906D01*
X95802139Y-84334144D01*
X95706901Y-84381763D01*
X95516425Y-84381763D01*
X96849758Y-83381763D02*
X96373568Y-83381763D01*
X96325949Y-83857954D01*
X96373568Y-83810335D01*
X96468806Y-83762716D01*
X96706901Y-83762716D01*
X96802139Y-83810335D01*
X96849758Y-83857954D01*
X96897377Y-83953192D01*
X96897377Y-84191287D01*
X96849758Y-84286525D01*
X96802139Y-84334144D01*
X96706901Y-84381763D01*
X96468806Y-84381763D01*
X96373568Y-84334144D01*
X96325949Y-84286525D01*
X59345473Y-38694621D02*
X59297854Y-38789859D01*
X59202615Y-38885097D01*
X59059758Y-39027954D01*
X59012139Y-39123192D01*
X59012139Y-39218430D01*
X59250234Y-39170811D02*
X59202615Y-39266049D01*
X59107377Y-39361287D01*
X58916901Y-39408906D01*
X58583568Y-39408906D01*
X58393092Y-39361287D01*
X58297854Y-39266049D01*
X58250234Y-39170811D01*
X58250234Y-38980335D01*
X58297854Y-38885097D01*
X58393092Y-38789859D01*
X58583568Y-38742240D01*
X58916901Y-38742240D01*
X59107377Y-38789859D01*
X59202615Y-38885097D01*
X59250234Y-38980335D01*
X59250234Y-39170811D01*
X58583568Y-37885097D02*
X59250234Y-37885097D01*
X58202615Y-38123192D02*
X58916901Y-38361287D01*
X58916901Y-37742240D01*
X40398330Y-33671763D02*
X40398330Y-32671763D01*
X40731663Y-33386049D01*
X41064996Y-32671763D01*
X41064996Y-33671763D01*
X41541187Y-33671763D02*
X41541187Y-32671763D01*
X42112615Y-33671763D02*
X41684044Y-33100335D01*
X42112615Y-32671763D02*
X41541187Y-33243192D01*
X43064996Y-33671763D02*
X42493568Y-33671763D01*
X42779282Y-33671763D02*
X42779282Y-32671763D01*
X42684044Y-32814621D01*
X42588806Y-32909859D01*
X42493568Y-32957478D01*
X47848330Y-102021763D02*
X47848330Y-102736049D01*
X47800711Y-102878906D01*
X47705473Y-102974144D01*
X47562615Y-103021763D01*
X47467377Y-103021763D01*
X48276901Y-102117002D02*
X48324520Y-102069383D01*
X48419758Y-102021763D01*
X48657854Y-102021763D01*
X48753092Y-102069383D01*
X48800711Y-102117002D01*
X48848330Y-102212240D01*
X48848330Y-102307478D01*
X48800711Y-102450335D01*
X48229282Y-103021763D01*
X48848330Y-103021763D01*
X49753092Y-102021763D02*
X49276901Y-102021763D01*
X49229282Y-102497954D01*
X49276901Y-102450335D01*
X49372139Y-102402716D01*
X49610234Y-102402716D01*
X49705473Y-102450335D01*
X49753092Y-102497954D01*
X49800711Y-102593192D01*
X49800711Y-102831287D01*
X49753092Y-102926525D01*
X49705473Y-102974144D01*
X49610234Y-103021763D01*
X49372139Y-103021763D01*
X49276901Y-102974144D01*
X49229282Y-102926525D01*
X116333949Y-33281763D02*
X116333949Y-34091287D01*
X116381568Y-34186525D01*
X116429187Y-34234144D01*
X116524425Y-34281763D01*
X116714901Y-34281763D01*
X116810139Y-34234144D01*
X116857758Y-34186525D01*
X116905377Y-34091287D01*
X116905377Y-33281763D01*
X117286330Y-33281763D02*
X117952996Y-33281763D01*
X117524425Y-34281763D01*
X117333949Y-82281763D02*
X117333949Y-83091287D01*
X117381568Y-83186525D01*
X117429187Y-83234144D01*
X117524425Y-83281763D01*
X117714901Y-83281763D01*
X117810139Y-83234144D01*
X117857758Y-83186525D01*
X117905377Y-83091287D01*
X117905377Y-82281763D01*
X118810139Y-82281763D02*
X118619663Y-82281763D01*
X118524425Y-82329383D01*
X118476806Y-82377002D01*
X118381568Y-82519859D01*
X118333949Y-82710335D01*
X118333949Y-83091287D01*
X118381568Y-83186525D01*
X118429187Y-83234144D01*
X118524425Y-83281763D01*
X118714901Y-83281763D01*
X118810139Y-83234144D01*
X118857758Y-83186525D01*
X118905377Y-83091287D01*
X118905377Y-82853192D01*
X118857758Y-82757954D01*
X118810139Y-82710335D01*
X118714901Y-82662716D01*
X118524425Y-82662716D01*
X118429187Y-82710335D01*
X118381568Y-82757954D01*
X118333949Y-82853192D01*
X85294996Y-79451763D02*
X84961663Y-78975573D01*
X84723568Y-79451763D02*
X84723568Y-78451763D01*
X85104520Y-78451763D01*
X85199758Y-78499383D01*
X85247377Y-78547002D01*
X85294996Y-78642240D01*
X85294996Y-78785097D01*
X85247377Y-78880335D01*
X85199758Y-78927954D01*
X85104520Y-78975573D01*
X84723568Y-78975573D01*
X86152139Y-78785097D02*
X86152139Y-79451763D01*
X85914044Y-78404144D02*
X85675949Y-79118430D01*
X86294996Y-79118430D01*
X86580711Y-78451763D02*
X87199758Y-78451763D01*
X86866425Y-78832716D01*
X87009282Y-78832716D01*
X87104520Y-78880335D01*
X87152139Y-78927954D01*
X87199758Y-79023192D01*
X87199758Y-79261287D01*
X87152139Y-79356525D01*
X87104520Y-79404144D01*
X87009282Y-79451763D01*
X86723568Y-79451763D01*
X86628330Y-79404144D01*
X86580711Y-79356525D01*
X105634996Y-83691763D02*
X105301663Y-83215573D01*
X105063568Y-83691763D02*
X105063568Y-82691763D01*
X105444520Y-82691763D01*
X105539758Y-82739383D01*
X105587377Y-82787002D01*
X105634996Y-82882240D01*
X105634996Y-83025097D01*
X105587377Y-83120335D01*
X105539758Y-83167954D01*
X105444520Y-83215573D01*
X105063568Y-83215573D01*
X106492139Y-83025097D02*
X106492139Y-83691763D01*
X106254044Y-82644144D02*
X106015949Y-83358430D01*
X106634996Y-83358430D01*
X106968330Y-82787002D02*
X107015949Y-82739383D01*
X107111187Y-82691763D01*
X107349282Y-82691763D01*
X107444520Y-82739383D01*
X107492139Y-82787002D01*
X107539758Y-82882240D01*
X107539758Y-82977478D01*
X107492139Y-83120335D01*
X106920711Y-83691763D01*
X107539758Y-83691763D01*
X118634996Y-83691763D02*
X118301663Y-83215573D01*
X118063568Y-83691763D02*
X118063568Y-82691763D01*
X118444520Y-82691763D01*
X118539758Y-82739383D01*
X118587377Y-82787002D01*
X118634996Y-82882240D01*
X118634996Y-83025097D01*
X118587377Y-83120335D01*
X118539758Y-83167954D01*
X118444520Y-83215573D01*
X118063568Y-83215573D01*
X119492139Y-83025097D02*
X119492139Y-83691763D01*
X119254044Y-82644144D02*
X119015949Y-83358430D01*
X119634996Y-83358430D01*
X120539758Y-83691763D02*
X119968330Y-83691763D01*
X120254044Y-83691763D02*
X120254044Y-82691763D01*
X120158806Y-82834621D01*
X120063568Y-82929859D01*
X119968330Y-82977478D01*
X74134996Y-42691763D02*
X73801663Y-42215573D01*
X73563568Y-42691763D02*
X73563568Y-41691763D01*
X73944520Y-41691763D01*
X74039758Y-41739383D01*
X74087377Y-41787002D01*
X74134996Y-41882240D01*
X74134996Y-42025097D01*
X74087377Y-42120335D01*
X74039758Y-42167954D01*
X73944520Y-42215573D01*
X73563568Y-42215573D01*
X74992139Y-42025097D02*
X74992139Y-42691763D01*
X74754044Y-41644144D02*
X74515949Y-42358430D01*
X75134996Y-42358430D01*
X75706425Y-41691763D02*
X75801663Y-41691763D01*
X75896901Y-41739383D01*
X75944520Y-41787002D01*
X75992139Y-41882240D01*
X76039758Y-42072716D01*
X76039758Y-42310811D01*
X75992139Y-42501287D01*
X75944520Y-42596525D01*
X75896901Y-42644144D01*
X75801663Y-42691763D01*
X75706425Y-42691763D01*
X75611187Y-42644144D01*
X75563568Y-42596525D01*
X75515949Y-42501287D01*
X75468330Y-42310811D01*
X75468330Y-42072716D01*
X75515949Y-41882240D01*
X75563568Y-41787002D01*
X75611187Y-41739383D01*
X75706425Y-41691763D01*
X70634996Y-38691763D02*
X70301663Y-38215573D01*
X70063568Y-38691763D02*
X70063568Y-37691763D01*
X70444520Y-37691763D01*
X70539758Y-37739383D01*
X70587377Y-37787002D01*
X70634996Y-37882240D01*
X70634996Y-38025097D01*
X70587377Y-38120335D01*
X70539758Y-38167954D01*
X70444520Y-38215573D01*
X70063568Y-38215573D01*
X70968330Y-37691763D02*
X71587377Y-37691763D01*
X71254044Y-38072716D01*
X71396901Y-38072716D01*
X71492139Y-38120335D01*
X71539758Y-38167954D01*
X71587377Y-38263192D01*
X71587377Y-38501287D01*
X71539758Y-38596525D01*
X71492139Y-38644144D01*
X71396901Y-38691763D01*
X71111187Y-38691763D01*
X71015949Y-38644144D01*
X70968330Y-38596525D01*
X72063568Y-38691763D02*
X72254044Y-38691763D01*
X72349282Y-38644144D01*
X72396901Y-38596525D01*
X72492139Y-38453668D01*
X72539758Y-38263192D01*
X72539758Y-37882240D01*
X72492139Y-37787002D01*
X72444520Y-37739383D01*
X72349282Y-37691763D01*
X72158806Y-37691763D01*
X72063568Y-37739383D01*
X72015949Y-37787002D01*
X71968330Y-37882240D01*
X71968330Y-38120335D01*
X72015949Y-38215573D01*
X72063568Y-38263192D01*
X72158806Y-38310811D01*
X72349282Y-38310811D01*
X72444520Y-38263192D01*
X72492139Y-38215573D01*
X72539758Y-38120335D01*
X193746615Y-46281287D02*
X193794234Y-46138430D01*
X193794234Y-45900335D01*
X193746615Y-45805097D01*
X193698996Y-45757478D01*
X193603758Y-45709859D01*
X193508520Y-45709859D01*
X193413282Y-45757478D01*
X193365663Y-45805097D01*
X193318044Y-45900335D01*
X193270425Y-46090811D01*
X193222806Y-46186049D01*
X193175187Y-46233668D01*
X193079949Y-46281287D01*
X192984711Y-46281287D01*
X192889473Y-46233668D01*
X192841854Y-46186049D01*
X192794234Y-46090811D01*
X192794234Y-45852716D01*
X192841854Y-45709859D01*
X192889473Y-45328906D02*
X192841854Y-45281287D01*
X192794234Y-45186049D01*
X192794234Y-44947954D01*
X192841854Y-44852716D01*
X192889473Y-44805097D01*
X192984711Y-44757478D01*
X193079949Y-44757478D01*
X193222806Y-44805097D01*
X193794234Y-45376525D01*
X193794234Y-44757478D01*
X193746615Y-121281287D02*
X193794234Y-121138430D01*
X193794234Y-120900335D01*
X193746615Y-120805097D01*
X193698996Y-120757478D01*
X193603758Y-120709859D01*
X193508520Y-120709859D01*
X193413282Y-120757478D01*
X193365663Y-120805097D01*
X193318044Y-120900335D01*
X193270425Y-121090811D01*
X193222806Y-121186049D01*
X193175187Y-121233668D01*
X193079949Y-121281287D01*
X192984711Y-121281287D01*
X192889473Y-121233668D01*
X192841854Y-121186049D01*
X192794234Y-121090811D01*
X192794234Y-120852716D01*
X192841854Y-120709859D01*
X192794234Y-120376525D02*
X192794234Y-119757478D01*
X193175187Y-120090811D01*
X193175187Y-119947954D01*
X193222806Y-119852716D01*
X193270425Y-119805097D01*
X193365663Y-119757478D01*
X193603758Y-119757478D01*
X193698996Y-119805097D01*
X193746615Y-119852716D01*
X193794234Y-119947954D01*
X193794234Y-120233668D01*
X193746615Y-120328906D01*
X193698996Y-120376525D01*
X43794996Y-125451763D02*
X43461663Y-124975573D01*
X43223568Y-125451763D02*
X43223568Y-124451763D01*
X43604520Y-124451763D01*
X43699758Y-124499383D01*
X43747377Y-124547002D01*
X43794996Y-124642240D01*
X43794996Y-124785097D01*
X43747377Y-124880335D01*
X43699758Y-124927954D01*
X43604520Y-124975573D01*
X43223568Y-124975573D01*
X44128330Y-124451763D02*
X44747377Y-124451763D01*
X44414044Y-124832716D01*
X44556901Y-124832716D01*
X44652139Y-124880335D01*
X44699758Y-124927954D01*
X44747377Y-125023192D01*
X44747377Y-125261287D01*
X44699758Y-125356525D01*
X44652139Y-125404144D01*
X44556901Y-125451763D01*
X44271187Y-125451763D01*
X44175949Y-125404144D01*
X44128330Y-125356525D01*
X45318806Y-124880335D02*
X45223568Y-124832716D01*
X45175949Y-124785097D01*
X45128330Y-124689859D01*
X45128330Y-124642240D01*
X45175949Y-124547002D01*
X45223568Y-124499383D01*
X45318806Y-124451763D01*
X45509282Y-124451763D01*
X45604520Y-124499383D01*
X45652139Y-124547002D01*
X45699758Y-124642240D01*
X45699758Y-124689859D01*
X45652139Y-124785097D01*
X45604520Y-124832716D01*
X45509282Y-124880335D01*
X45318806Y-124880335D01*
X45223568Y-124927954D01*
X45175949Y-124975573D01*
X45128330Y-125070811D01*
X45128330Y-125261287D01*
X45175949Y-125356525D01*
X45223568Y-125404144D01*
X45318806Y-125451763D01*
X45509282Y-125451763D01*
X45604520Y-125404144D01*
X45652139Y-125356525D01*
X45699758Y-125261287D01*
X45699758Y-125070811D01*
X45652139Y-124975573D01*
X45604520Y-124927954D01*
X45509282Y-124880335D01*
X51680234Y-97092240D02*
X51204044Y-97425573D01*
X51680234Y-97663668D02*
X50680234Y-97663668D01*
X50680234Y-97282716D01*
X50727854Y-97187478D01*
X50775473Y-97139859D01*
X50870711Y-97092240D01*
X51013568Y-97092240D01*
X51108806Y-97139859D01*
X51156425Y-97187478D01*
X51204044Y-97282716D01*
X51204044Y-97663668D01*
X50680234Y-96758906D02*
X50680234Y-96139859D01*
X51061187Y-96473192D01*
X51061187Y-96330335D01*
X51108806Y-96235097D01*
X51156425Y-96187478D01*
X51251663Y-96139859D01*
X51489758Y-96139859D01*
X51584996Y-96187478D01*
X51632615Y-96235097D01*
X51680234Y-96330335D01*
X51680234Y-96616049D01*
X51632615Y-96711287D01*
X51584996Y-96758906D01*
X50680234Y-95806525D02*
X50680234Y-95139859D01*
X51680234Y-95568430D01*
X151390234Y-124732240D02*
X150914044Y-125065573D01*
X151390234Y-125303668D02*
X150390234Y-125303668D01*
X150390234Y-124922716D01*
X150437854Y-124827478D01*
X150485473Y-124779859D01*
X150580711Y-124732240D01*
X150723568Y-124732240D01*
X150818806Y-124779859D01*
X150866425Y-124827478D01*
X150914044Y-124922716D01*
X150914044Y-125303668D01*
X150390234Y-124398906D02*
X150390234Y-123779859D01*
X150771187Y-124113192D01*
X150771187Y-123970335D01*
X150818806Y-123875097D01*
X150866425Y-123827478D01*
X150961663Y-123779859D01*
X151199758Y-123779859D01*
X151294996Y-123827478D01*
X151342615Y-123875097D01*
X151390234Y-123970335D01*
X151390234Y-124256049D01*
X151342615Y-124351287D01*
X151294996Y-124398906D01*
X150390234Y-122922716D02*
X150390234Y-123113192D01*
X150437854Y-123208430D01*
X150485473Y-123256049D01*
X150628330Y-123351287D01*
X150818806Y-123398906D01*
X151199758Y-123398906D01*
X151294996Y-123351287D01*
X151342615Y-123303668D01*
X151390234Y-123208430D01*
X151390234Y-123017954D01*
X151342615Y-122922716D01*
X151294996Y-122875097D01*
X151199758Y-122827478D01*
X150961663Y-122827478D01*
X150866425Y-122875097D01*
X150818806Y-122922716D01*
X150771187Y-123017954D01*
X150771187Y-123208430D01*
X150818806Y-123303668D01*
X150866425Y-123351287D01*
X150961663Y-123398906D01*
X58294996Y-65951763D02*
X57961663Y-65475573D01*
X57723568Y-65951763D02*
X57723568Y-64951763D01*
X58104520Y-64951763D01*
X58199758Y-64999383D01*
X58247377Y-65047002D01*
X58294996Y-65142240D01*
X58294996Y-65285097D01*
X58247377Y-65380335D01*
X58199758Y-65427954D01*
X58104520Y-65475573D01*
X57723568Y-65475573D01*
X58628330Y-64951763D02*
X59247377Y-64951763D01*
X58914044Y-65332716D01*
X59056901Y-65332716D01*
X59152139Y-65380335D01*
X59199758Y-65427954D01*
X59247377Y-65523192D01*
X59247377Y-65761287D01*
X59199758Y-65856525D01*
X59152139Y-65904144D01*
X59056901Y-65951763D01*
X58771187Y-65951763D01*
X58675949Y-65904144D01*
X58628330Y-65856525D01*
X60152139Y-64951763D02*
X59675949Y-64951763D01*
X59628330Y-65427954D01*
X59675949Y-65380335D01*
X59771187Y-65332716D01*
X60009282Y-65332716D01*
X60104520Y-65380335D01*
X60152139Y-65427954D01*
X60199758Y-65523192D01*
X60199758Y-65761287D01*
X60152139Y-65856525D01*
X60104520Y-65904144D01*
X60009282Y-65951763D01*
X59771187Y-65951763D01*
X59675949Y-65904144D01*
X59628330Y-65856525D01*
X81214996Y-117726525D02*
X81167377Y-117774144D01*
X81024520Y-117821763D01*
X80929282Y-117821763D01*
X80786425Y-117774144D01*
X80691187Y-117678906D01*
X80643568Y-117583668D01*
X80595949Y-117393192D01*
X80595949Y-117250335D01*
X80643568Y-117059859D01*
X80691187Y-116964621D01*
X80786425Y-116869383D01*
X80929282Y-116821763D01*
X81024520Y-116821763D01*
X81167377Y-116869383D01*
X81214996Y-116917002D01*
X81548330Y-116821763D02*
X82167377Y-116821763D01*
X81834044Y-117202716D01*
X81976901Y-117202716D01*
X82072139Y-117250335D01*
X82119758Y-117297954D01*
X82167377Y-117393192D01*
X82167377Y-117631287D01*
X82119758Y-117726525D01*
X82072139Y-117774144D01*
X81976901Y-117821763D01*
X81691187Y-117821763D01*
X81595949Y-117774144D01*
X81548330Y-117726525D01*
X82786425Y-116821763D02*
X82881663Y-116821763D01*
X82976901Y-116869383D01*
X83024520Y-116917002D01*
X83072139Y-117012240D01*
X83119758Y-117202716D01*
X83119758Y-117440811D01*
X83072139Y-117631287D01*
X83024520Y-117726525D01*
X82976901Y-117774144D01*
X82881663Y-117821763D01*
X82786425Y-117821763D01*
X82691187Y-117774144D01*
X82643568Y-117726525D01*
X82595949Y-117631287D01*
X82548330Y-117440811D01*
X82548330Y-117202716D01*
X82595949Y-117012240D01*
X82643568Y-116917002D01*
X82691187Y-116869383D01*
X82786425Y-116821763D01*
X198364996Y-87376525D02*
X198317377Y-87424144D01*
X198174520Y-87471763D01*
X198079282Y-87471763D01*
X197936425Y-87424144D01*
X197841187Y-87328906D01*
X197793568Y-87233668D01*
X197745949Y-87043192D01*
X197745949Y-86900335D01*
X197793568Y-86709859D01*
X197841187Y-86614621D01*
X197936425Y-86519383D01*
X198079282Y-86471763D01*
X198174520Y-86471763D01*
X198317377Y-86519383D01*
X198364996Y-86567002D01*
X198745949Y-86567002D02*
X198793568Y-86519383D01*
X198888806Y-86471763D01*
X199126901Y-86471763D01*
X199222139Y-86519383D01*
X199269758Y-86567002D01*
X199317377Y-86662240D01*
X199317377Y-86757478D01*
X199269758Y-86900335D01*
X198698330Y-87471763D01*
X199317377Y-87471763D01*
X199793568Y-87471763D02*
X199984044Y-87471763D01*
X200079282Y-87424144D01*
X200126901Y-87376525D01*
X200222139Y-87233668D01*
X200269758Y-87043192D01*
X200269758Y-86662240D01*
X200222139Y-86567002D01*
X200174520Y-86519383D01*
X200079282Y-86471763D01*
X199888806Y-86471763D01*
X199793568Y-86519383D01*
X199745949Y-86567002D01*
X199698330Y-86662240D01*
X199698330Y-86900335D01*
X199745949Y-86995573D01*
X199793568Y-87043192D01*
X199888806Y-87090811D01*
X200079282Y-87090811D01*
X200174520Y-87043192D01*
X200222139Y-86995573D01*
X200269758Y-86900335D01*
X72714996Y-87726525D02*
X72667377Y-87774144D01*
X72524520Y-87821763D01*
X72429282Y-87821763D01*
X72286425Y-87774144D01*
X72191187Y-87678906D01*
X72143568Y-87583668D01*
X72095949Y-87393192D01*
X72095949Y-87250335D01*
X72143568Y-87059859D01*
X72191187Y-86964621D01*
X72286425Y-86869383D01*
X72429282Y-86821763D01*
X72524520Y-86821763D01*
X72667377Y-86869383D01*
X72714996Y-86917002D01*
X73095949Y-86917002D02*
X73143568Y-86869383D01*
X73238806Y-86821763D01*
X73476901Y-86821763D01*
X73572139Y-86869383D01*
X73619758Y-86917002D01*
X73667377Y-87012240D01*
X73667377Y-87107478D01*
X73619758Y-87250335D01*
X73048330Y-87821763D01*
X73667377Y-87821763D01*
X74238806Y-87250335D02*
X74143568Y-87202716D01*
X74095949Y-87155097D01*
X74048330Y-87059859D01*
X74048330Y-87012240D01*
X74095949Y-86917002D01*
X74143568Y-86869383D01*
X74238806Y-86821763D01*
X74429282Y-86821763D01*
X74524520Y-86869383D01*
X74572139Y-86917002D01*
X74619758Y-87012240D01*
X74619758Y-87059859D01*
X74572139Y-87155097D01*
X74524520Y-87202716D01*
X74429282Y-87250335D01*
X74238806Y-87250335D01*
X74143568Y-87297954D01*
X74095949Y-87345573D01*
X74048330Y-87440811D01*
X74048330Y-87631287D01*
X74095949Y-87726525D01*
X74143568Y-87774144D01*
X74238806Y-87821763D01*
X74429282Y-87821763D01*
X74524520Y-87774144D01*
X74572139Y-87726525D01*
X74619758Y-87631287D01*
X74619758Y-87440811D01*
X74572139Y-87345573D01*
X74524520Y-87297954D01*
X74429282Y-87250335D01*
X183464996Y-95178906D02*
X183512615Y-95226525D01*
X183560234Y-95369382D01*
X183560234Y-95464620D01*
X183512615Y-95607477D01*
X183417377Y-95702715D01*
X183322139Y-95750334D01*
X183131663Y-95797953D01*
X182988806Y-95797953D01*
X182798330Y-95750334D01*
X182703092Y-95702715D01*
X182607854Y-95607477D01*
X182560234Y-95464620D01*
X182560234Y-95369382D01*
X182607854Y-95226525D01*
X182655473Y-95178906D01*
X182655473Y-94797953D02*
X182607854Y-94750334D01*
X182560234Y-94655096D01*
X182560234Y-94417001D01*
X182607854Y-94321763D01*
X182655473Y-94274144D01*
X182750711Y-94226525D01*
X182845949Y-94226525D01*
X182988806Y-94274144D01*
X183560234Y-94845572D01*
X183560234Y-94226525D01*
X182560234Y-93893191D02*
X182560234Y-93226525D01*
X183560234Y-93655096D01*
X113464996Y-109512240D02*
X113512615Y-109559859D01*
X113560234Y-109702716D01*
X113560234Y-109797954D01*
X113512615Y-109940811D01*
X113417377Y-110036049D01*
X113322139Y-110083668D01*
X113131663Y-110131287D01*
X112988806Y-110131287D01*
X112798330Y-110083668D01*
X112703092Y-110036049D01*
X112607854Y-109940811D01*
X112560234Y-109797954D01*
X112560234Y-109702716D01*
X112607854Y-109559859D01*
X112655473Y-109512240D01*
X112655473Y-109131287D02*
X112607854Y-109083668D01*
X112560234Y-108988430D01*
X112560234Y-108750335D01*
X112607854Y-108655097D01*
X112655473Y-108607478D01*
X112750711Y-108559859D01*
X112845949Y-108559859D01*
X112988806Y-108607478D01*
X113560234Y-109178906D01*
X113560234Y-108559859D01*
X112560234Y-107702716D02*
X112560234Y-107893192D01*
X112607854Y-107988430D01*
X112655473Y-108036049D01*
X112798330Y-108131287D01*
X112988806Y-108178906D01*
X113369758Y-108178906D01*
X113464996Y-108131287D01*
X113512615Y-108083668D01*
X113560234Y-107988430D01*
X113560234Y-107797954D01*
X113512615Y-107702716D01*
X113464996Y-107655097D01*
X113369758Y-107607478D01*
X113131663Y-107607478D01*
X113036425Y-107655097D01*
X112988806Y-107702716D01*
X112941187Y-107797954D01*
X112941187Y-107988430D01*
X112988806Y-108083668D01*
X113036425Y-108131287D01*
X113131663Y-108178906D01*
X143414996Y-87162240D02*
X143462615Y-87209859D01*
X143510234Y-87352716D01*
X143510234Y-87447954D01*
X143462615Y-87590811D01*
X143367377Y-87686049D01*
X143272139Y-87733668D01*
X143081663Y-87781287D01*
X142938806Y-87781287D01*
X142748330Y-87733668D01*
X142653092Y-87686049D01*
X142557854Y-87590811D01*
X142510234Y-87447954D01*
X142510234Y-87352716D01*
X142557854Y-87209859D01*
X142605473Y-87162240D01*
X142605473Y-86781287D02*
X142557854Y-86733668D01*
X142510234Y-86638430D01*
X142510234Y-86400335D01*
X142557854Y-86305097D01*
X142605473Y-86257478D01*
X142700711Y-86209859D01*
X142795949Y-86209859D01*
X142938806Y-86257478D01*
X143510234Y-86828906D01*
X143510234Y-86209859D01*
X142510234Y-85305097D02*
X142510234Y-85781287D01*
X142986425Y-85828906D01*
X142938806Y-85781287D01*
X142891187Y-85686049D01*
X142891187Y-85447954D01*
X142938806Y-85352716D01*
X142986425Y-85305097D01*
X143081663Y-85257478D01*
X143319758Y-85257478D01*
X143414996Y-85305097D01*
X143462615Y-85352716D01*
X143510234Y-85447954D01*
X143510234Y-85686049D01*
X143462615Y-85781287D01*
X143414996Y-85828906D01*
X164389996Y-87162240D02*
X164437615Y-87209859D01*
X164485234Y-87352716D01*
X164485234Y-87447954D01*
X164437615Y-87590811D01*
X164342377Y-87686049D01*
X164247139Y-87733668D01*
X164056663Y-87781287D01*
X163913806Y-87781287D01*
X163723330Y-87733668D01*
X163628092Y-87686049D01*
X163532854Y-87590811D01*
X163485234Y-87447954D01*
X163485234Y-87352716D01*
X163532854Y-87209859D01*
X163580473Y-87162240D01*
X163580473Y-86781287D02*
X163532854Y-86733668D01*
X163485234Y-86638430D01*
X163485234Y-86400335D01*
X163532854Y-86305097D01*
X163580473Y-86257478D01*
X163675711Y-86209859D01*
X163770949Y-86209859D01*
X163913806Y-86257478D01*
X164485234Y-86828906D01*
X164485234Y-86209859D01*
X163818568Y-85352716D02*
X164485234Y-85352716D01*
X163437615Y-85590811D02*
X164151901Y-85828906D01*
X164151901Y-85209859D01*
X156514996Y-93576525D02*
X156467377Y-93624144D01*
X156324520Y-93671763D01*
X156229282Y-93671763D01*
X156086425Y-93624144D01*
X155991187Y-93528906D01*
X155943568Y-93433668D01*
X155895949Y-93243192D01*
X155895949Y-93100335D01*
X155943568Y-92909859D01*
X155991187Y-92814621D01*
X156086425Y-92719383D01*
X156229282Y-92671763D01*
X156324520Y-92671763D01*
X156467377Y-92719383D01*
X156514996Y-92767002D01*
X156895949Y-92767002D02*
X156943568Y-92719383D01*
X157038806Y-92671763D01*
X157276901Y-92671763D01*
X157372139Y-92719383D01*
X157419758Y-92767002D01*
X157467377Y-92862240D01*
X157467377Y-92957478D01*
X157419758Y-93100335D01*
X156848330Y-93671763D01*
X157467377Y-93671763D01*
X157800711Y-92671763D02*
X158419758Y-92671763D01*
X158086425Y-93052716D01*
X158229282Y-93052716D01*
X158324520Y-93100335D01*
X158372139Y-93147954D01*
X158419758Y-93243192D01*
X158419758Y-93481287D01*
X158372139Y-93576525D01*
X158324520Y-93624144D01*
X158229282Y-93671763D01*
X157943568Y-93671763D01*
X157848330Y-93624144D01*
X157800711Y-93576525D01*
X135214996Y-93476525D02*
X135167377Y-93524144D01*
X135024520Y-93571763D01*
X134929282Y-93571763D01*
X134786425Y-93524144D01*
X134691187Y-93428906D01*
X134643568Y-93333668D01*
X134595949Y-93143192D01*
X134595949Y-93000335D01*
X134643568Y-92809859D01*
X134691187Y-92714621D01*
X134786425Y-92619383D01*
X134929282Y-92571763D01*
X135024520Y-92571763D01*
X135167377Y-92619383D01*
X135214996Y-92667002D01*
X135595949Y-92667002D02*
X135643568Y-92619383D01*
X135738806Y-92571763D01*
X135976901Y-92571763D01*
X136072139Y-92619383D01*
X136119758Y-92667002D01*
X136167377Y-92762240D01*
X136167377Y-92857478D01*
X136119758Y-93000335D01*
X135548330Y-93571763D01*
X136167377Y-93571763D01*
X136548330Y-92667002D02*
X136595949Y-92619383D01*
X136691187Y-92571763D01*
X136929282Y-92571763D01*
X137024520Y-92619383D01*
X137072139Y-92667002D01*
X137119758Y-92762240D01*
X137119758Y-92857478D01*
X137072139Y-93000335D01*
X136500711Y-93571763D01*
X137119758Y-93571763D01*
X84714996Y-37726525D02*
X84667377Y-37774144D01*
X84524520Y-37821763D01*
X84429282Y-37821763D01*
X84286425Y-37774144D01*
X84191187Y-37678906D01*
X84143568Y-37583668D01*
X84095949Y-37393192D01*
X84095949Y-37250335D01*
X84143568Y-37059859D01*
X84191187Y-36964621D01*
X84286425Y-36869383D01*
X84429282Y-36821763D01*
X84524520Y-36821763D01*
X84667377Y-36869383D01*
X84714996Y-36917002D01*
X85095949Y-36917002D02*
X85143568Y-36869383D01*
X85238806Y-36821763D01*
X85476901Y-36821763D01*
X85572139Y-36869383D01*
X85619758Y-36917002D01*
X85667377Y-37012240D01*
X85667377Y-37107478D01*
X85619758Y-37250335D01*
X85048330Y-37821763D01*
X85667377Y-37821763D01*
X86619758Y-37821763D02*
X86048330Y-37821763D01*
X86334044Y-37821763D02*
X86334044Y-36821763D01*
X86238806Y-36964621D01*
X86143568Y-37059859D01*
X86048330Y-37107478D01*
X74214996Y-71976525D02*
X74167377Y-72024144D01*
X74024520Y-72071763D01*
X73929282Y-72071763D01*
X73786425Y-72024144D01*
X73691187Y-71928906D01*
X73643568Y-71833668D01*
X73595949Y-71643192D01*
X73595949Y-71500335D01*
X73643568Y-71309859D01*
X73691187Y-71214621D01*
X73786425Y-71119383D01*
X73929282Y-71071763D01*
X74024520Y-71071763D01*
X74167377Y-71119383D01*
X74214996Y-71167002D01*
X74595949Y-71167002D02*
X74643568Y-71119383D01*
X74738806Y-71071763D01*
X74976901Y-71071763D01*
X75072139Y-71119383D01*
X75119758Y-71167002D01*
X75167377Y-71262240D01*
X75167377Y-71357478D01*
X75119758Y-71500335D01*
X74548330Y-72071763D01*
X75167377Y-72071763D01*
X75786425Y-71071763D02*
X75881663Y-71071763D01*
X75976901Y-71119383D01*
X76024520Y-71167002D01*
X76072139Y-71262240D01*
X76119758Y-71452716D01*
X76119758Y-71690811D01*
X76072139Y-71881287D01*
X76024520Y-71976525D01*
X75976901Y-72024144D01*
X75881663Y-72071763D01*
X75786425Y-72071763D01*
X75691187Y-72024144D01*
X75643568Y-71976525D01*
X75595949Y-71881287D01*
X75548330Y-71690811D01*
X75548330Y-71452716D01*
X75595949Y-71262240D01*
X75643568Y-71167002D01*
X75691187Y-71119383D01*
X75786425Y-71071763D01*
X198714996Y-111726525D02*
X198667377Y-111774144D01*
X198524520Y-111821763D01*
X198429282Y-111821763D01*
X198286425Y-111774144D01*
X198191187Y-111678906D01*
X198143568Y-111583668D01*
X198095949Y-111393192D01*
X198095949Y-111250335D01*
X198143568Y-111059859D01*
X198191187Y-110964621D01*
X198286425Y-110869383D01*
X198429282Y-110821763D01*
X198524520Y-110821763D01*
X198667377Y-110869383D01*
X198714996Y-110917002D01*
X199667377Y-111821763D02*
X199095949Y-111821763D01*
X199381663Y-111821763D02*
X199381663Y-110821763D01*
X199286425Y-110964621D01*
X199191187Y-111059859D01*
X199095949Y-111107478D01*
X200143568Y-111821763D02*
X200334044Y-111821763D01*
X200429282Y-111774144D01*
X200476901Y-111726525D01*
X200572139Y-111583668D01*
X200619758Y-111393192D01*
X200619758Y-111012240D01*
X200572139Y-110917002D01*
X200524520Y-110869383D01*
X200429282Y-110821763D01*
X200238806Y-110821763D01*
X200143568Y-110869383D01*
X200095949Y-110917002D01*
X200048330Y-111012240D01*
X200048330Y-111250335D01*
X200095949Y-111345573D01*
X200143568Y-111393192D01*
X200238806Y-111440811D01*
X200429282Y-111440811D01*
X200524520Y-111393192D01*
X200572139Y-111345573D01*
X200619758Y-111250335D01*
X182464996Y-119012240D02*
X182512615Y-119059859D01*
X182560234Y-119202716D01*
X182560234Y-119297954D01*
X182512615Y-119440811D01*
X182417377Y-119536049D01*
X182322139Y-119583668D01*
X182131663Y-119631287D01*
X181988806Y-119631287D01*
X181798330Y-119583668D01*
X181703092Y-119536049D01*
X181607854Y-119440811D01*
X181560234Y-119297954D01*
X181560234Y-119202716D01*
X181607854Y-119059859D01*
X181655473Y-119012240D01*
X182560234Y-118059859D02*
X182560234Y-118631287D01*
X182560234Y-118345573D02*
X181560234Y-118345573D01*
X181703092Y-118440811D01*
X181798330Y-118536049D01*
X181845949Y-118631287D01*
X181988806Y-117488430D02*
X181941187Y-117583668D01*
X181893568Y-117631287D01*
X181798330Y-117678906D01*
X181750711Y-117678906D01*
X181655473Y-117631287D01*
X181607854Y-117583668D01*
X181560234Y-117488430D01*
X181560234Y-117297954D01*
X181607854Y-117202716D01*
X181655473Y-117155097D01*
X181750711Y-117107478D01*
X181798330Y-117107478D01*
X181893568Y-117155097D01*
X181941187Y-117202716D01*
X181988806Y-117297954D01*
X181988806Y-117488430D01*
X182036425Y-117583668D01*
X182084044Y-117631287D01*
X182179282Y-117678906D01*
X182369758Y-117678906D01*
X182464996Y-117631287D01*
X182512615Y-117583668D01*
X182560234Y-117488430D01*
X182560234Y-117297954D01*
X182512615Y-117202716D01*
X182464996Y-117155097D01*
X182369758Y-117107478D01*
X182179282Y-117107478D01*
X182084044Y-117155097D01*
X182036425Y-117202716D01*
X181988806Y-117297954D01*
X123714996Y-94012240D02*
X123762615Y-94059859D01*
X123810234Y-94202716D01*
X123810234Y-94297954D01*
X123762615Y-94440811D01*
X123667377Y-94536049D01*
X123572139Y-94583668D01*
X123381663Y-94631287D01*
X123238806Y-94631287D01*
X123048330Y-94583668D01*
X122953092Y-94536049D01*
X122857854Y-94440811D01*
X122810234Y-94297954D01*
X122810234Y-94202716D01*
X122857854Y-94059859D01*
X122905473Y-94012240D01*
X123810234Y-93059859D02*
X123810234Y-93631287D01*
X123810234Y-93345573D02*
X122810234Y-93345573D01*
X122953092Y-93440811D01*
X123048330Y-93536049D01*
X123095949Y-93631287D01*
X122810234Y-92726525D02*
X122810234Y-92059859D01*
X123810234Y-92488430D01*
X173214996Y-113226525D02*
X173167377Y-113274144D01*
X173024520Y-113321763D01*
X172929282Y-113321763D01*
X172786425Y-113274144D01*
X172691187Y-113178906D01*
X172643568Y-113083668D01*
X172595949Y-112893192D01*
X172595949Y-112750335D01*
X172643568Y-112559859D01*
X172691187Y-112464621D01*
X172786425Y-112369383D01*
X172929282Y-112321763D01*
X173024520Y-112321763D01*
X173167377Y-112369383D01*
X173214996Y-112417002D01*
X174167377Y-113321763D02*
X173595949Y-113321763D01*
X173881663Y-113321763D02*
X173881663Y-112321763D01*
X173786425Y-112464621D01*
X173691187Y-112559859D01*
X173595949Y-112607478D01*
X175024520Y-112321763D02*
X174834044Y-112321763D01*
X174738806Y-112369383D01*
X174691187Y-112417002D01*
X174595949Y-112559859D01*
X174548330Y-112750335D01*
X174548330Y-113131287D01*
X174595949Y-113226525D01*
X174643568Y-113274144D01*
X174738806Y-113321763D01*
X174929282Y-113321763D01*
X175024520Y-113274144D01*
X175072139Y-113226525D01*
X175119758Y-113131287D01*
X175119758Y-112893192D01*
X175072139Y-112797954D01*
X175024520Y-112750335D01*
X174929282Y-112702716D01*
X174738806Y-112702716D01*
X174643568Y-112750335D01*
X174595949Y-112797954D01*
X174548330Y-112893192D01*
X187464996Y-84012240D02*
X187512615Y-84059859D01*
X187560234Y-84202716D01*
X187560234Y-84297954D01*
X187512615Y-84440811D01*
X187417377Y-84536049D01*
X187322139Y-84583668D01*
X187131663Y-84631287D01*
X186988806Y-84631287D01*
X186798330Y-84583668D01*
X186703092Y-84536049D01*
X186607854Y-84440811D01*
X186560234Y-84297954D01*
X186560234Y-84202716D01*
X186607854Y-84059859D01*
X186655473Y-84012240D01*
X187560234Y-83059859D02*
X187560234Y-83631287D01*
X187560234Y-83345573D02*
X186560234Y-83345573D01*
X186703092Y-83440811D01*
X186798330Y-83536049D01*
X186845949Y-83631287D01*
X186560234Y-82155097D02*
X186560234Y-82631287D01*
X187036425Y-82678906D01*
X186988806Y-82631287D01*
X186941187Y-82536049D01*
X186941187Y-82297954D01*
X186988806Y-82202716D01*
X187036425Y-82155097D01*
X187131663Y-82107478D01*
X187369758Y-82107478D01*
X187464996Y-82155097D01*
X187512615Y-82202716D01*
X187560234Y-82297954D01*
X187560234Y-82536049D01*
X187512615Y-82631287D01*
X187464996Y-82678906D01*
X174214996Y-93726525D02*
X174167377Y-93774144D01*
X174024520Y-93821763D01*
X173929282Y-93821763D01*
X173786425Y-93774144D01*
X173691187Y-93678906D01*
X173643568Y-93583668D01*
X173595949Y-93393192D01*
X173595949Y-93250335D01*
X173643568Y-93059859D01*
X173691187Y-92964621D01*
X173786425Y-92869383D01*
X173929282Y-92821763D01*
X174024520Y-92821763D01*
X174167377Y-92869383D01*
X174214996Y-92917002D01*
X175167377Y-93821763D02*
X174595949Y-93821763D01*
X174881663Y-93821763D02*
X174881663Y-92821763D01*
X174786425Y-92964621D01*
X174691187Y-93059859D01*
X174595949Y-93107478D01*
X176024520Y-93155097D02*
X176024520Y-93821763D01*
X175786425Y-92774144D02*
X175548330Y-93488430D01*
X176167377Y-93488430D01*
X115214996Y-37726525D02*
X115167377Y-37774144D01*
X115024520Y-37821763D01*
X114929282Y-37821763D01*
X114786425Y-37774144D01*
X114691187Y-37678906D01*
X114643568Y-37583668D01*
X114595949Y-37393192D01*
X114595949Y-37250335D01*
X114643568Y-37059859D01*
X114691187Y-36964621D01*
X114786425Y-36869383D01*
X114929282Y-36821763D01*
X115024520Y-36821763D01*
X115167377Y-36869383D01*
X115214996Y-36917002D01*
X116167377Y-37821763D02*
X115595949Y-37821763D01*
X115881663Y-37821763D02*
X115881663Y-36821763D01*
X115786425Y-36964621D01*
X115691187Y-37059859D01*
X115595949Y-37107478D01*
X116500711Y-36821763D02*
X117119758Y-36821763D01*
X116786425Y-37202716D01*
X116929282Y-37202716D01*
X117024520Y-37250335D01*
X117072139Y-37297954D01*
X117119758Y-37393192D01*
X117119758Y-37631287D01*
X117072139Y-37726525D01*
X117024520Y-37774144D01*
X116929282Y-37821763D01*
X116643568Y-37821763D01*
X116548330Y-37774144D01*
X116500711Y-37726525D01*
X198364996Y-37976525D02*
X198317377Y-38024144D01*
X198174520Y-38071763D01*
X198079282Y-38071763D01*
X197936425Y-38024144D01*
X197841187Y-37928906D01*
X197793568Y-37833668D01*
X197745949Y-37643192D01*
X197745949Y-37500335D01*
X197793568Y-37309859D01*
X197841187Y-37214621D01*
X197936425Y-37119383D01*
X198079282Y-37071763D01*
X198174520Y-37071763D01*
X198317377Y-37119383D01*
X198364996Y-37167002D01*
X199317377Y-38071763D02*
X198745949Y-38071763D01*
X199031663Y-38071763D02*
X199031663Y-37071763D01*
X198936425Y-37214621D01*
X198841187Y-37309859D01*
X198745949Y-37357478D01*
X199698330Y-37167002D02*
X199745949Y-37119383D01*
X199841187Y-37071763D01*
X200079282Y-37071763D01*
X200174520Y-37119383D01*
X200222139Y-37167002D01*
X200269758Y-37262240D01*
X200269758Y-37357478D01*
X200222139Y-37500335D01*
X199650711Y-38071763D01*
X200269758Y-38071763D01*
X92214996Y-65726525D02*
X92167377Y-65774144D01*
X92024520Y-65821763D01*
X91929282Y-65821763D01*
X91786425Y-65774144D01*
X91691187Y-65678906D01*
X91643568Y-65583668D01*
X91595949Y-65393192D01*
X91595949Y-65250335D01*
X91643568Y-65059859D01*
X91691187Y-64964621D01*
X91786425Y-64869383D01*
X91929282Y-64821763D01*
X92024520Y-64821763D01*
X92167377Y-64869383D01*
X92214996Y-64917002D01*
X93167377Y-65821763D02*
X92595949Y-65821763D01*
X92881663Y-65821763D02*
X92881663Y-64821763D01*
X92786425Y-64964621D01*
X92691187Y-65059859D01*
X92595949Y-65107478D01*
X94119758Y-65821763D02*
X93548330Y-65821763D01*
X93834044Y-65821763D02*
X93834044Y-64821763D01*
X93738806Y-64964621D01*
X93643568Y-65059859D01*
X93548330Y-65107478D01*
X183164996Y-47512240D02*
X183212615Y-47559859D01*
X183260234Y-47702716D01*
X183260234Y-47797954D01*
X183212615Y-47940811D01*
X183117377Y-48036049D01*
X183022139Y-48083668D01*
X182831663Y-48131287D01*
X182688806Y-48131287D01*
X182498330Y-48083668D01*
X182403092Y-48036049D01*
X182307854Y-47940811D01*
X182260234Y-47797954D01*
X182260234Y-47702716D01*
X182307854Y-47559859D01*
X182355473Y-47512240D01*
X183260234Y-46559859D02*
X183260234Y-47131287D01*
X183260234Y-46845573D02*
X182260234Y-46845573D01*
X182403092Y-46940811D01*
X182498330Y-47036049D01*
X182545949Y-47131287D01*
X182260234Y-45940811D02*
X182260234Y-45845573D01*
X182307854Y-45750335D01*
X182355473Y-45702716D01*
X182450711Y-45655097D01*
X182641187Y-45607478D01*
X182879282Y-45607478D01*
X183069758Y-45655097D01*
X183164996Y-45702716D01*
X183212615Y-45750335D01*
X183260234Y-45845573D01*
X183260234Y-45940811D01*
X183212615Y-46036049D01*
X183164996Y-46083668D01*
X183069758Y-46131287D01*
X182879282Y-46178906D01*
X182641187Y-46178906D01*
X182450711Y-46131287D01*
X182355473Y-46083668D01*
X182307854Y-46036049D01*
X182260234Y-45940811D01*
X198841187Y-61776525D02*
X198793568Y-61824144D01*
X198650711Y-61871763D01*
X198555473Y-61871763D01*
X198412615Y-61824144D01*
X198317377Y-61728906D01*
X198269758Y-61633668D01*
X198222139Y-61443192D01*
X198222139Y-61300335D01*
X198269758Y-61109859D01*
X198317377Y-61014621D01*
X198412615Y-60919383D01*
X198555473Y-60871763D01*
X198650711Y-60871763D01*
X198793568Y-60919383D01*
X198841187Y-60967002D01*
X199317377Y-61871763D02*
X199507854Y-61871763D01*
X199603092Y-61824144D01*
X199650711Y-61776525D01*
X199745949Y-61633668D01*
X199793568Y-61443192D01*
X199793568Y-61062240D01*
X199745949Y-60967002D01*
X199698330Y-60919383D01*
X199603092Y-60871763D01*
X199412615Y-60871763D01*
X199317377Y-60919383D01*
X199269758Y-60967002D01*
X199222139Y-61062240D01*
X199222139Y-61300335D01*
X199269758Y-61395573D01*
X199317377Y-61443192D01*
X199412615Y-61490811D01*
X199603092Y-61490811D01*
X199698330Y-61443192D01*
X199745949Y-61395573D01*
X199793568Y-61300335D01*
X171691187Y-46726525D02*
X171643568Y-46774144D01*
X171500711Y-46821763D01*
X171405473Y-46821763D01*
X171262615Y-46774144D01*
X171167377Y-46678906D01*
X171119758Y-46583668D01*
X171072139Y-46393192D01*
X171072139Y-46250335D01*
X171119758Y-46059859D01*
X171167377Y-45964621D01*
X171262615Y-45869383D01*
X171405473Y-45821763D01*
X171500711Y-45821763D01*
X171643568Y-45869383D01*
X171691187Y-45917002D01*
X172262615Y-46250335D02*
X172167377Y-46202716D01*
X172119758Y-46155097D01*
X172072139Y-46059859D01*
X172072139Y-46012240D01*
X172119758Y-45917002D01*
X172167377Y-45869383D01*
X172262615Y-45821763D01*
X172453092Y-45821763D01*
X172548330Y-45869383D01*
X172595949Y-45917002D01*
X172643568Y-46012240D01*
X172643568Y-46059859D01*
X172595949Y-46155097D01*
X172548330Y-46202716D01*
X172453092Y-46250335D01*
X172262615Y-46250335D01*
X172167377Y-46297954D01*
X172119758Y-46345573D01*
X172072139Y-46440811D01*
X172072139Y-46631287D01*
X172119758Y-46726525D01*
X172167377Y-46774144D01*
X172262615Y-46821763D01*
X172453092Y-46821763D01*
X172548330Y-46774144D01*
X172595949Y-46726525D01*
X172643568Y-46631287D01*
X172643568Y-46440811D01*
X172595949Y-46345573D01*
X172548330Y-46297954D01*
X172453092Y-46250335D01*
X183214996Y-57536049D02*
X183262615Y-57583668D01*
X183310234Y-57726525D01*
X183310234Y-57821763D01*
X183262615Y-57964621D01*
X183167377Y-58059859D01*
X183072139Y-58107478D01*
X182881663Y-58155097D01*
X182738806Y-58155097D01*
X182548330Y-58107478D01*
X182453092Y-58059859D01*
X182357854Y-57964621D01*
X182310234Y-57821763D01*
X182310234Y-57726525D01*
X182357854Y-57583668D01*
X182405473Y-57536049D01*
X182310234Y-57202716D02*
X182310234Y-56536049D01*
X183310234Y-56964621D01*
X160274996Y-40286049D02*
X160322615Y-40333668D01*
X160370234Y-40476525D01*
X160370234Y-40571763D01*
X160322615Y-40714621D01*
X160227377Y-40809859D01*
X160132139Y-40857478D01*
X159941663Y-40905097D01*
X159798806Y-40905097D01*
X159608330Y-40857478D01*
X159513092Y-40809859D01*
X159417854Y-40714621D01*
X159370234Y-40571763D01*
X159370234Y-40476525D01*
X159417854Y-40333668D01*
X159465473Y-40286049D01*
X159370234Y-39428906D02*
X159370234Y-39619383D01*
X159417854Y-39714621D01*
X159465473Y-39762240D01*
X159608330Y-39857478D01*
X159798806Y-39905097D01*
X160179758Y-39905097D01*
X160274996Y-39857478D01*
X160322615Y-39809859D01*
X160370234Y-39714621D01*
X160370234Y-39524144D01*
X160322615Y-39428906D01*
X160274996Y-39381287D01*
X160179758Y-39333668D01*
X159941663Y-39333668D01*
X159846425Y-39381287D01*
X159798806Y-39428906D01*
X159751187Y-39524144D01*
X159751187Y-39714621D01*
X159798806Y-39809859D01*
X159846425Y-39857478D01*
X159941663Y-39905097D01*
X184964996Y-36736049D02*
X185012615Y-36783668D01*
X185060234Y-36926525D01*
X185060234Y-37021763D01*
X185012615Y-37164621D01*
X184917377Y-37259859D01*
X184822139Y-37307478D01*
X184631663Y-37355097D01*
X184488806Y-37355097D01*
X184298330Y-37307478D01*
X184203092Y-37259859D01*
X184107854Y-37164621D01*
X184060234Y-37021763D01*
X184060234Y-36926525D01*
X184107854Y-36783668D01*
X184155473Y-36736049D01*
X184060234Y-35831287D02*
X184060234Y-36307478D01*
X184536425Y-36355097D01*
X184488806Y-36307478D01*
X184441187Y-36212240D01*
X184441187Y-35974144D01*
X184488806Y-35878906D01*
X184536425Y-35831287D01*
X184631663Y-35783668D01*
X184869758Y-35783668D01*
X184964996Y-35831287D01*
X185012615Y-35878906D01*
X185060234Y-35974144D01*
X185060234Y-36212240D01*
X185012615Y-36307478D01*
X184964996Y-36355097D01*
X183164996Y-70869382D02*
X183212615Y-70917001D01*
X183260234Y-71059858D01*
X183260234Y-71155096D01*
X183212615Y-71297954D01*
X183117377Y-71393192D01*
X183022139Y-71440811D01*
X182831663Y-71488430D01*
X182688806Y-71488430D01*
X182498330Y-71440811D01*
X182403092Y-71393192D01*
X182307854Y-71297954D01*
X182260234Y-71155096D01*
X182260234Y-71059858D01*
X182307854Y-70917001D01*
X182355473Y-70869382D01*
X182593568Y-70012239D02*
X183260234Y-70012239D01*
X182212615Y-70250335D02*
X182926901Y-70488430D01*
X182926901Y-69869382D01*
X52191187Y-65476525D02*
X52143568Y-65524144D01*
X52000711Y-65571763D01*
X51905473Y-65571763D01*
X51762615Y-65524144D01*
X51667377Y-65428906D01*
X51619758Y-65333668D01*
X51572139Y-65143192D01*
X51572139Y-65000335D01*
X51619758Y-64809859D01*
X51667377Y-64714621D01*
X51762615Y-64619383D01*
X51905473Y-64571763D01*
X52000711Y-64571763D01*
X52143568Y-64619383D01*
X52191187Y-64667002D01*
X52524520Y-64571763D02*
X53143568Y-64571763D01*
X52810234Y-64952716D01*
X52953092Y-64952716D01*
X53048330Y-65000335D01*
X53095949Y-65047954D01*
X53143568Y-65143192D01*
X53143568Y-65381287D01*
X53095949Y-65476525D01*
X53048330Y-65524144D01*
X52953092Y-65571763D01*
X52667377Y-65571763D01*
X52572139Y-65524144D01*
X52524520Y-65476525D01*
X156731187Y-54256525D02*
X156683568Y-54304144D01*
X156540711Y-54351763D01*
X156445473Y-54351763D01*
X156302615Y-54304144D01*
X156207377Y-54208906D01*
X156159758Y-54113668D01*
X156112139Y-53923192D01*
X156112139Y-53780335D01*
X156159758Y-53589859D01*
X156207377Y-53494621D01*
X156302615Y-53399383D01*
X156445473Y-53351763D01*
X156540711Y-53351763D01*
X156683568Y-53399383D01*
X156731187Y-53447002D01*
X157112139Y-53447002D02*
X157159758Y-53399383D01*
X157254996Y-53351763D01*
X157493092Y-53351763D01*
X157588330Y-53399383D01*
X157635949Y-53447002D01*
X157683568Y-53542240D01*
X157683568Y-53637478D01*
X157635949Y-53780335D01*
X157064520Y-54351763D01*
X157683568Y-54351763D01*
X48691187Y-44726525D02*
X48643568Y-44774144D01*
X48500711Y-44821763D01*
X48405473Y-44821763D01*
X48262615Y-44774144D01*
X48167377Y-44678906D01*
X48119758Y-44583668D01*
X48072139Y-44393192D01*
X48072139Y-44250335D01*
X48119758Y-44059859D01*
X48167377Y-43964621D01*
X48262615Y-43869383D01*
X48405473Y-43821763D01*
X48500711Y-43821763D01*
X48643568Y-43869383D01*
X48691187Y-43917002D01*
X49643568Y-44821763D02*
X49072139Y-44821763D01*
X49357854Y-44821763D02*
X49357854Y-43821763D01*
X49262615Y-43964621D01*
X49167377Y-44059859D01*
X49072139Y-44107478D01*
X105640234Y-101251287D02*
X106449758Y-101251287D01*
X106544996Y-101203668D01*
X106592615Y-101156049D01*
X106640234Y-101060811D01*
X106640234Y-100870335D01*
X106592615Y-100775097D01*
X106544996Y-100727478D01*
X106449758Y-100679859D01*
X105640234Y-100679859D01*
X105640234Y-99727478D02*
X105640234Y-100203668D01*
X106116425Y-100251287D01*
X106068806Y-100203668D01*
X106021187Y-100108430D01*
X106021187Y-99870335D01*
X106068806Y-99775097D01*
X106116425Y-99727478D01*
X106211663Y-99679859D01*
X106449758Y-99679859D01*
X106544996Y-99727478D01*
X106592615Y-99775097D01*
X106640234Y-99870335D01*
X106640234Y-100108430D01*
X106592615Y-100203668D01*
X106544996Y-100251287D01*
X172785949Y-99591763D02*
X172785949Y-100401287D01*
X172833568Y-100496525D01*
X172881187Y-100544144D01*
X172976425Y-100591763D01*
X173166901Y-100591763D01*
X173262139Y-100544144D01*
X173309758Y-100496525D01*
X173357377Y-100401287D01*
X173357377Y-99591763D01*
X174262139Y-99925097D02*
X174262139Y-100591763D01*
X174024044Y-99544144D02*
X173785949Y-100258430D01*
X174404996Y-100258430D01*
X63980234Y-54011287D02*
X64789758Y-54011287D01*
X64884996Y-53963668D01*
X64932615Y-53916049D01*
X64980234Y-53820811D01*
X64980234Y-53630335D01*
X64932615Y-53535097D01*
X64884996Y-53487478D01*
X64789758Y-53439859D01*
X63980234Y-53439859D01*
X63980234Y-53058906D02*
X63980234Y-52439859D01*
X64361187Y-52773192D01*
X64361187Y-52630335D01*
X64408806Y-52535097D01*
X64456425Y-52487478D01*
X64551663Y-52439859D01*
X64789758Y-52439859D01*
X64884996Y-52487478D01*
X64932615Y-52535097D01*
X64980234Y-52630335D01*
X64980234Y-52916049D01*
X64932615Y-53011287D01*
X64884996Y-53058906D01*
X171235949Y-52691763D02*
X171235949Y-53501287D01*
X171283568Y-53596525D01*
X171331187Y-53644144D01*
X171426425Y-53691763D01*
X171616901Y-53691763D01*
X171712139Y-53644144D01*
X171759758Y-53596525D01*
X171807377Y-53501287D01*
X171807377Y-52691763D01*
X172235949Y-52787002D02*
X172283568Y-52739383D01*
X172378806Y-52691763D01*
X172616901Y-52691763D01*
X172712139Y-52739383D01*
X172759758Y-52787002D01*
X172807377Y-52882240D01*
X172807377Y-52977478D01*
X172759758Y-53120335D01*
X172188330Y-53691763D01*
X172807377Y-53691763D01*
X48055949Y-42991763D02*
X48055949Y-43801287D01*
X48103568Y-43896525D01*
X48151187Y-43944144D01*
X48246425Y-43991763D01*
X48436901Y-43991763D01*
X48532139Y-43944144D01*
X48579758Y-43896525D01*
X48627377Y-43801287D01*
X48627377Y-42991763D01*
X49627377Y-43991763D02*
X49055949Y-43991763D01*
X49341663Y-43991763D02*
X49341663Y-42991763D01*
X49246425Y-43134621D01*
X49151187Y-43229859D01*
X49055949Y-43277478D01*
X188795949Y-123321763D02*
X189367377Y-123321763D01*
X189081663Y-124321763D02*
X189081663Y-123321763D01*
X189700711Y-124321763D02*
X189700711Y-123321763D01*
X190081663Y-123321763D01*
X190176901Y-123369383D01*
X190224520Y-123417002D01*
X190272139Y-123512240D01*
X190272139Y-123655097D01*
X190224520Y-123750335D01*
X190176901Y-123797954D01*
X190081663Y-123845573D01*
X189700711Y-123845573D01*
X191129282Y-123655097D02*
X191129282Y-124321763D01*
X190891187Y-123274144D02*
X190653092Y-123988430D01*
X191272139Y-123988430D01*
X30295949Y-33321763D02*
X30867377Y-33321763D01*
X30581663Y-34321763D02*
X30581663Y-33321763D01*
X31200711Y-34321763D02*
X31200711Y-33321763D01*
X31581663Y-33321763D01*
X31676901Y-33369383D01*
X31724520Y-33417002D01*
X31772139Y-33512240D01*
X31772139Y-33655097D01*
X31724520Y-33750335D01*
X31676901Y-33797954D01*
X31581663Y-33845573D01*
X31200711Y-33845573D01*
X32105473Y-33321763D02*
X32724520Y-33321763D01*
X32391187Y-33702716D01*
X32534044Y-33702716D01*
X32629282Y-33750335D01*
X32676901Y-33797954D01*
X32724520Y-33893192D01*
X32724520Y-34131287D01*
X32676901Y-34226525D01*
X32629282Y-34274144D01*
X32534044Y-34321763D01*
X32248330Y-34321763D01*
X32153092Y-34274144D01*
X32105473Y-34226525D01*
X30295949Y-123321763D02*
X30867377Y-123321763D01*
X30581663Y-124321763D02*
X30581663Y-123321763D01*
X31200711Y-124321763D02*
X31200711Y-123321763D01*
X31581663Y-123321763D01*
X31676901Y-123369383D01*
X31724520Y-123417002D01*
X31772139Y-123512240D01*
X31772139Y-123655097D01*
X31724520Y-123750335D01*
X31676901Y-123797954D01*
X31581663Y-123845573D01*
X31200711Y-123845573D01*
X32153092Y-123417002D02*
X32200711Y-123369383D01*
X32295949Y-123321763D01*
X32534044Y-123321763D01*
X32629282Y-123369383D01*
X32676901Y-123417002D01*
X32724520Y-123512240D01*
X32724520Y-123607478D01*
X32676901Y-123750335D01*
X32105473Y-124321763D01*
X32724520Y-124321763D01*
X186310234Y-37931287D02*
X186310234Y-37359859D01*
X187310234Y-37645573D02*
X186310234Y-37645573D01*
X187310234Y-37026525D02*
X186310234Y-37026525D01*
X186310234Y-36645573D01*
X186357854Y-36550335D01*
X186405473Y-36502716D01*
X186500711Y-36455097D01*
X186643568Y-36455097D01*
X186738806Y-36502716D01*
X186786425Y-36550335D01*
X186834044Y-36645573D01*
X186834044Y-37026525D01*
X187310234Y-35502716D02*
X187310234Y-36074144D01*
X187310234Y-35788430D02*
X186310234Y-35788430D01*
X186453092Y-35883668D01*
X186548330Y-35978906D01*
X186595949Y-36074144D01*
X193746615Y-96281287D02*
X193794234Y-96138430D01*
X193794234Y-95900335D01*
X193746615Y-95805097D01*
X193698996Y-95757478D01*
X193603758Y-95709859D01*
X193508520Y-95709859D01*
X193413282Y-95757478D01*
X193365663Y-95805097D01*
X193318044Y-95900335D01*
X193270425Y-96090811D01*
X193222806Y-96186049D01*
X193175187Y-96233668D01*
X193079949Y-96281287D01*
X192984711Y-96281287D01*
X192889473Y-96233668D01*
X192841854Y-96186049D01*
X192794234Y-96090811D01*
X192794234Y-95852716D01*
X192841854Y-95709859D01*
X193127568Y-94852716D02*
X193794234Y-94852716D01*
X192746615Y-95090811D02*
X193460901Y-95328906D01*
X193460901Y-94709859D01*
X193746615Y-71281287D02*
X193794234Y-71138430D01*
X193794234Y-70900335D01*
X193746615Y-70805097D01*
X193698996Y-70757478D01*
X193603758Y-70709859D01*
X193508520Y-70709859D01*
X193413282Y-70757478D01*
X193365663Y-70805097D01*
X193318044Y-70900335D01*
X193270425Y-71090811D01*
X193222806Y-71186049D01*
X193175187Y-71233668D01*
X193079949Y-71281287D01*
X192984711Y-71281287D01*
X192889473Y-71233668D01*
X192841854Y-71186049D01*
X192794234Y-71090811D01*
X192794234Y-70852716D01*
X192841854Y-70709859D01*
X193794234Y-69757478D02*
X193794234Y-70328906D01*
X193794234Y-70043192D02*
X192794234Y-70043192D01*
X192937092Y-70138430D01*
X193032330Y-70233668D01*
X193079949Y-70328906D01*
X79038996Y-76585763D02*
X78705663Y-76109573D01*
X78467568Y-76585763D02*
X78467568Y-75585763D01*
X78848520Y-75585763D01*
X78943758Y-75633383D01*
X78991377Y-75681002D01*
X79038996Y-75776240D01*
X79038996Y-75919097D01*
X78991377Y-76014335D01*
X78943758Y-76061954D01*
X78848520Y-76109573D01*
X78467568Y-76109573D01*
X79372330Y-75585763D02*
X79991377Y-75585763D01*
X79658044Y-75966716D01*
X79800901Y-75966716D01*
X79896139Y-76014335D01*
X79943758Y-76061954D01*
X79991377Y-76157192D01*
X79991377Y-76395287D01*
X79943758Y-76490525D01*
X79896139Y-76538144D01*
X79800901Y-76585763D01*
X79515187Y-76585763D01*
X79419949Y-76538144D01*
X79372330Y-76490525D01*
X80848520Y-75919097D02*
X80848520Y-76585763D01*
X80610425Y-75538144D02*
X80372330Y-76252430D01*
X80991377Y-76252430D01*
X79038996Y-79633763D02*
X78705663Y-79157573D01*
X78467568Y-79633763D02*
X78467568Y-78633763D01*
X78848520Y-78633763D01*
X78943758Y-78681383D01*
X78991377Y-78729002D01*
X79038996Y-78824240D01*
X79038996Y-78967097D01*
X78991377Y-79062335D01*
X78943758Y-79109954D01*
X78848520Y-79157573D01*
X78467568Y-79157573D01*
X79372330Y-78633763D02*
X79991377Y-78633763D01*
X79658044Y-79014716D01*
X79800901Y-79014716D01*
X79896139Y-79062335D01*
X79943758Y-79109954D01*
X79991377Y-79205192D01*
X79991377Y-79443287D01*
X79943758Y-79538525D01*
X79896139Y-79586144D01*
X79800901Y-79633763D01*
X79515187Y-79633763D01*
X79419949Y-79586144D01*
X79372330Y-79538525D01*
X80324711Y-78633763D02*
X80943758Y-78633763D01*
X80610425Y-79014716D01*
X80753282Y-79014716D01*
X80848520Y-79062335D01*
X80896139Y-79109954D01*
X80943758Y-79205192D01*
X80943758Y-79443287D01*
X80896139Y-79538525D01*
X80848520Y-79586144D01*
X80753282Y-79633763D01*
X80467568Y-79633763D01*
X80372330Y-79586144D01*
X80324711Y-79538525D01*
X62440234Y-123432240D02*
X61964044Y-123765573D01*
X62440234Y-124003668D02*
X61440234Y-124003668D01*
X61440234Y-123622716D01*
X61487854Y-123527478D01*
X61535473Y-123479859D01*
X61630711Y-123432240D01*
X61773568Y-123432240D01*
X61868806Y-123479859D01*
X61916425Y-123527478D01*
X61964044Y-123622716D01*
X61964044Y-124003668D01*
X61440234Y-123098906D02*
X61440234Y-122479859D01*
X61821187Y-122813192D01*
X61821187Y-122670335D01*
X61868806Y-122575097D01*
X61916425Y-122527478D01*
X62011663Y-122479859D01*
X62249758Y-122479859D01*
X62344996Y-122527478D01*
X62392615Y-122575097D01*
X62440234Y-122670335D01*
X62440234Y-122956049D01*
X62392615Y-123051287D01*
X62344996Y-123098906D01*
X61535473Y-122098906D02*
X61487854Y-122051287D01*
X61440234Y-121956049D01*
X61440234Y-121717954D01*
X61487854Y-121622716D01*
X61535473Y-121575097D01*
X61630711Y-121527478D01*
X61725949Y-121527478D01*
X61868806Y-121575097D01*
X62440234Y-122146525D01*
X62440234Y-121527478D01*
X39440234Y-104932240D02*
X38964044Y-105265573D01*
X39440234Y-105503668D02*
X38440234Y-105503668D01*
X38440234Y-105122716D01*
X38487854Y-105027478D01*
X38535473Y-104979859D01*
X38630711Y-104932240D01*
X38773568Y-104932240D01*
X38868806Y-104979859D01*
X38916425Y-105027478D01*
X38964044Y-105122716D01*
X38964044Y-105503668D01*
X38440234Y-104598906D02*
X38440234Y-103979859D01*
X38821187Y-104313192D01*
X38821187Y-104170335D01*
X38868806Y-104075097D01*
X38916425Y-104027478D01*
X39011663Y-103979859D01*
X39249758Y-103979859D01*
X39344996Y-104027478D01*
X39392615Y-104075097D01*
X39440234Y-104170335D01*
X39440234Y-104456049D01*
X39392615Y-104551287D01*
X39344996Y-104598906D01*
X39440234Y-103027478D02*
X39440234Y-103598906D01*
X39440234Y-103313192D02*
X38440234Y-103313192D01*
X38583092Y-103408430D01*
X38678330Y-103503668D01*
X38725949Y-103598906D01*
X39440234Y-118432240D02*
X38964044Y-118765573D01*
X39440234Y-119003668D02*
X38440234Y-119003668D01*
X38440234Y-118622716D01*
X38487854Y-118527478D01*
X38535473Y-118479859D01*
X38630711Y-118432240D01*
X38773568Y-118432240D01*
X38868806Y-118479859D01*
X38916425Y-118527478D01*
X38964044Y-118622716D01*
X38964044Y-119003668D01*
X38440234Y-118098906D02*
X38440234Y-117479859D01*
X38821187Y-117813192D01*
X38821187Y-117670335D01*
X38868806Y-117575097D01*
X38916425Y-117527478D01*
X39011663Y-117479859D01*
X39249758Y-117479859D01*
X39344996Y-117527478D01*
X39392615Y-117575097D01*
X39440234Y-117670335D01*
X39440234Y-117956049D01*
X39392615Y-118051287D01*
X39344996Y-118098906D01*
X38440234Y-116860811D02*
X38440234Y-116765573D01*
X38487854Y-116670335D01*
X38535473Y-116622716D01*
X38630711Y-116575097D01*
X38821187Y-116527478D01*
X39059282Y-116527478D01*
X39249758Y-116575097D01*
X39344996Y-116622716D01*
X39392615Y-116670335D01*
X39440234Y-116765573D01*
X39440234Y-116860811D01*
X39392615Y-116956049D01*
X39344996Y-117003668D01*
X39249758Y-117051287D01*
X39059282Y-117098906D01*
X38821187Y-117098906D01*
X38630711Y-117051287D01*
X38535473Y-117003668D01*
X38487854Y-116956049D01*
X38440234Y-116860811D01*
X189790234Y-95332240D02*
X189314044Y-95665573D01*
X189790234Y-95903668D02*
X188790234Y-95903668D01*
X188790234Y-95522716D01*
X188837854Y-95427478D01*
X188885473Y-95379859D01*
X188980711Y-95332240D01*
X189123568Y-95332240D01*
X189218806Y-95379859D01*
X189266425Y-95427478D01*
X189314044Y-95522716D01*
X189314044Y-95903668D01*
X188885473Y-94951287D02*
X188837854Y-94903668D01*
X188790234Y-94808430D01*
X188790234Y-94570335D01*
X188837854Y-94475097D01*
X188885473Y-94427478D01*
X188980711Y-94379859D01*
X189075949Y-94379859D01*
X189218806Y-94427478D01*
X189790234Y-94998906D01*
X189790234Y-94379859D01*
X189790234Y-93903668D02*
X189790234Y-93713192D01*
X189742615Y-93617954D01*
X189694996Y-93570335D01*
X189552139Y-93475097D01*
X189361663Y-93427478D01*
X188980711Y-93427478D01*
X188885473Y-93475097D01*
X188837854Y-93522716D01*
X188790234Y-93617954D01*
X188790234Y-93808430D01*
X188837854Y-93903668D01*
X188885473Y-93951287D01*
X188980711Y-93998906D01*
X189218806Y-93998906D01*
X189314044Y-93951287D01*
X189361663Y-93903668D01*
X189409282Y-93808430D01*
X189409282Y-93617954D01*
X189361663Y-93522716D01*
X189314044Y-93475097D01*
X189218806Y-93427478D01*
X120680234Y-112592240D02*
X120204044Y-112925573D01*
X120680234Y-113163668D02*
X119680234Y-113163668D01*
X119680234Y-112782716D01*
X119727854Y-112687478D01*
X119775473Y-112639859D01*
X119870711Y-112592240D01*
X120013568Y-112592240D01*
X120108806Y-112639859D01*
X120156425Y-112687478D01*
X120204044Y-112782716D01*
X120204044Y-113163668D01*
X119775473Y-112211287D02*
X119727854Y-112163668D01*
X119680234Y-112068430D01*
X119680234Y-111830335D01*
X119727854Y-111735097D01*
X119775473Y-111687478D01*
X119870711Y-111639859D01*
X119965949Y-111639859D01*
X120108806Y-111687478D01*
X120680234Y-112258906D01*
X120680234Y-111639859D01*
X120108806Y-111068430D02*
X120061187Y-111163668D01*
X120013568Y-111211287D01*
X119918330Y-111258906D01*
X119870711Y-111258906D01*
X119775473Y-111211287D01*
X119727854Y-111163668D01*
X119680234Y-111068430D01*
X119680234Y-110877954D01*
X119727854Y-110782716D01*
X119775473Y-110735097D01*
X119870711Y-110687478D01*
X119918330Y-110687478D01*
X120013568Y-110735097D01*
X120061187Y-110782716D01*
X120108806Y-110877954D01*
X120108806Y-111068430D01*
X120156425Y-111163668D01*
X120204044Y-111211287D01*
X120299282Y-111258906D01*
X120489758Y-111258906D01*
X120584996Y-111211287D01*
X120632615Y-111163668D01*
X120680234Y-111068430D01*
X120680234Y-110877954D01*
X120632615Y-110782716D01*
X120584996Y-110735097D01*
X120489758Y-110687478D01*
X120299282Y-110687478D01*
X120204044Y-110735097D01*
X120156425Y-110782716D01*
X120108806Y-110877954D01*
X112440234Y-109932240D02*
X111964044Y-110265573D01*
X112440234Y-110503668D02*
X111440234Y-110503668D01*
X111440234Y-110122716D01*
X111487854Y-110027478D01*
X111535473Y-109979859D01*
X111630711Y-109932240D01*
X111773568Y-109932240D01*
X111868806Y-109979859D01*
X111916425Y-110027478D01*
X111964044Y-110122716D01*
X111964044Y-110503668D01*
X111535473Y-109551287D02*
X111487854Y-109503668D01*
X111440234Y-109408430D01*
X111440234Y-109170335D01*
X111487854Y-109075097D01*
X111535473Y-109027478D01*
X111630711Y-108979859D01*
X111725949Y-108979859D01*
X111868806Y-109027478D01*
X112440234Y-109598906D01*
X112440234Y-108979859D01*
X111440234Y-108646525D02*
X111440234Y-107979859D01*
X112440234Y-108408430D01*
X133134996Y-113691763D02*
X132801663Y-113215573D01*
X132563568Y-113691763D02*
X132563568Y-112691763D01*
X132944520Y-112691763D01*
X133039758Y-112739383D01*
X133087377Y-112787002D01*
X133134996Y-112882240D01*
X133134996Y-113025097D01*
X133087377Y-113120335D01*
X133039758Y-113167954D01*
X132944520Y-113215573D01*
X132563568Y-113215573D01*
X133515949Y-112787002D02*
X133563568Y-112739383D01*
X133658806Y-112691763D01*
X133896901Y-112691763D01*
X133992139Y-112739383D01*
X134039758Y-112787002D01*
X134087377Y-112882240D01*
X134087377Y-112977478D01*
X134039758Y-113120335D01*
X133468330Y-113691763D01*
X134087377Y-113691763D01*
X134944520Y-112691763D02*
X134754044Y-112691763D01*
X134658806Y-112739383D01*
X134611187Y-112787002D01*
X134515949Y-112929859D01*
X134468330Y-113120335D01*
X134468330Y-113501287D01*
X134515949Y-113596525D01*
X134563568Y-113644144D01*
X134658806Y-113691763D01*
X134849282Y-113691763D01*
X134944520Y-113644144D01*
X134992139Y-113596525D01*
X135039758Y-113501287D01*
X135039758Y-113263192D01*
X134992139Y-113167954D01*
X134944520Y-113120335D01*
X134849282Y-113072716D01*
X134658806Y-113072716D01*
X134563568Y-113120335D01*
X134515949Y-113167954D01*
X134468330Y-113263192D01*
X168954996Y-69861763D02*
X168621663Y-69385573D01*
X168383568Y-69861763D02*
X168383568Y-68861763D01*
X168764520Y-68861763D01*
X168859758Y-68909383D01*
X168907377Y-68957002D01*
X168954996Y-69052240D01*
X168954996Y-69195097D01*
X168907377Y-69290335D01*
X168859758Y-69337954D01*
X168764520Y-69385573D01*
X168383568Y-69385573D01*
X169335949Y-68957002D02*
X169383568Y-68909383D01*
X169478806Y-68861763D01*
X169716901Y-68861763D01*
X169812139Y-68909383D01*
X169859758Y-68957002D01*
X169907377Y-69052240D01*
X169907377Y-69147478D01*
X169859758Y-69290335D01*
X169288330Y-69861763D01*
X169907377Y-69861763D01*
X170812139Y-68861763D02*
X170335949Y-68861763D01*
X170288330Y-69337954D01*
X170335949Y-69290335D01*
X170431187Y-69242716D01*
X170669282Y-69242716D01*
X170764520Y-69290335D01*
X170812139Y-69337954D01*
X170859758Y-69433192D01*
X170859758Y-69671287D01*
X170812139Y-69766525D01*
X170764520Y-69814144D01*
X170669282Y-69861763D01*
X170431187Y-69861763D01*
X170335949Y-69814144D01*
X170288330Y-69766525D01*
X169104996Y-66061763D02*
X168771663Y-65585573D01*
X168533568Y-66061763D02*
X168533568Y-65061763D01*
X168914520Y-65061763D01*
X169009758Y-65109383D01*
X169057377Y-65157002D01*
X169104996Y-65252240D01*
X169104996Y-65395097D01*
X169057377Y-65490335D01*
X169009758Y-65537954D01*
X168914520Y-65585573D01*
X168533568Y-65585573D01*
X169485949Y-65157002D02*
X169533568Y-65109383D01*
X169628806Y-65061763D01*
X169866901Y-65061763D01*
X169962139Y-65109383D01*
X170009758Y-65157002D01*
X170057377Y-65252240D01*
X170057377Y-65347478D01*
X170009758Y-65490335D01*
X169438330Y-66061763D01*
X170057377Y-66061763D01*
X170914520Y-65395097D02*
X170914520Y-66061763D01*
X170676425Y-65014144D02*
X170438330Y-65728430D01*
X171057377Y-65728430D01*
X45634996Y-75691763D02*
X45301663Y-75215573D01*
X45063568Y-75691763D02*
X45063568Y-74691763D01*
X45444520Y-74691763D01*
X45539758Y-74739383D01*
X45587377Y-74787002D01*
X45634996Y-74882240D01*
X45634996Y-75025097D01*
X45587377Y-75120335D01*
X45539758Y-75167954D01*
X45444520Y-75215573D01*
X45063568Y-75215573D01*
X46015949Y-74787002D02*
X46063568Y-74739383D01*
X46158806Y-74691763D01*
X46396901Y-74691763D01*
X46492139Y-74739383D01*
X46539758Y-74787002D01*
X46587377Y-74882240D01*
X46587377Y-74977478D01*
X46539758Y-75120335D01*
X45968330Y-75691763D01*
X46587377Y-75691763D01*
X46920711Y-74691763D02*
X47539758Y-74691763D01*
X47206425Y-75072716D01*
X47349282Y-75072716D01*
X47444520Y-75120335D01*
X47492139Y-75167954D01*
X47539758Y-75263192D01*
X47539758Y-75501287D01*
X47492139Y-75596525D01*
X47444520Y-75644144D01*
X47349282Y-75691763D01*
X47063568Y-75691763D01*
X46968330Y-75644144D01*
X46920711Y-75596525D01*
X113680234Y-123592240D02*
X113204044Y-123925573D01*
X113680234Y-124163668D02*
X112680234Y-124163668D01*
X112680234Y-123782716D01*
X112727854Y-123687478D01*
X112775473Y-123639859D01*
X112870711Y-123592240D01*
X113013568Y-123592240D01*
X113108806Y-123639859D01*
X113156425Y-123687478D01*
X113204044Y-123782716D01*
X113204044Y-124163668D01*
X112775473Y-123211287D02*
X112727854Y-123163668D01*
X112680234Y-123068430D01*
X112680234Y-122830335D01*
X112727854Y-122735097D01*
X112775473Y-122687478D01*
X112870711Y-122639859D01*
X112965949Y-122639859D01*
X113108806Y-122687478D01*
X113680234Y-123258906D01*
X113680234Y-122639859D01*
X112775473Y-122258906D02*
X112727854Y-122211287D01*
X112680234Y-122116049D01*
X112680234Y-121877954D01*
X112727854Y-121782716D01*
X112775473Y-121735097D01*
X112870711Y-121687478D01*
X112965949Y-121687478D01*
X113108806Y-121735097D01*
X113680234Y-122306525D01*
X113680234Y-121687478D01*
X93440234Y-123432240D02*
X92964044Y-123765573D01*
X93440234Y-124003668D02*
X92440234Y-124003668D01*
X92440234Y-123622716D01*
X92487854Y-123527478D01*
X92535473Y-123479859D01*
X92630711Y-123432240D01*
X92773568Y-123432240D01*
X92868806Y-123479859D01*
X92916425Y-123527478D01*
X92964044Y-123622716D01*
X92964044Y-124003668D01*
X92535473Y-123051287D02*
X92487854Y-123003668D01*
X92440234Y-122908430D01*
X92440234Y-122670335D01*
X92487854Y-122575097D01*
X92535473Y-122527478D01*
X92630711Y-122479859D01*
X92725949Y-122479859D01*
X92868806Y-122527478D01*
X93440234Y-123098906D01*
X93440234Y-122479859D01*
X93440234Y-121527478D02*
X93440234Y-122098906D01*
X93440234Y-121813192D02*
X92440234Y-121813192D01*
X92583092Y-121908430D01*
X92678330Y-122003668D01*
X92725949Y-122098906D01*
X77940234Y-123432240D02*
X77464044Y-123765573D01*
X77940234Y-124003668D02*
X76940234Y-124003668D01*
X76940234Y-123622716D01*
X76987854Y-123527478D01*
X77035473Y-123479859D01*
X77130711Y-123432240D01*
X77273568Y-123432240D01*
X77368806Y-123479859D01*
X77416425Y-123527478D01*
X77464044Y-123622716D01*
X77464044Y-124003668D01*
X77035473Y-123051287D02*
X76987854Y-123003668D01*
X76940234Y-122908430D01*
X76940234Y-122670335D01*
X76987854Y-122575097D01*
X77035473Y-122527478D01*
X77130711Y-122479859D01*
X77225949Y-122479859D01*
X77368806Y-122527478D01*
X77940234Y-123098906D01*
X77940234Y-122479859D01*
X76940234Y-121860811D02*
X76940234Y-121765573D01*
X76987854Y-121670335D01*
X77035473Y-121622716D01*
X77130711Y-121575097D01*
X77321187Y-121527478D01*
X77559282Y-121527478D01*
X77749758Y-121575097D01*
X77844996Y-121622716D01*
X77892615Y-121670335D01*
X77940234Y-121765573D01*
X77940234Y-121860811D01*
X77892615Y-121956049D01*
X77844996Y-122003668D01*
X77749758Y-122051287D01*
X77559282Y-122098906D01*
X77321187Y-122098906D01*
X77130711Y-122051287D01*
X77035473Y-122003668D01*
X76987854Y-121956049D01*
X76940234Y-121860811D01*
X44180234Y-86592240D02*
X43704044Y-86925573D01*
X44180234Y-87163668D02*
X43180234Y-87163668D01*
X43180234Y-86782716D01*
X43227854Y-86687478D01*
X43275473Y-86639859D01*
X43370711Y-86592240D01*
X43513568Y-86592240D01*
X43608806Y-86639859D01*
X43656425Y-86687478D01*
X43704044Y-86782716D01*
X43704044Y-87163668D01*
X44180234Y-85639859D02*
X44180234Y-86211287D01*
X44180234Y-85925573D02*
X43180234Y-85925573D01*
X43323092Y-86020811D01*
X43418330Y-86116049D01*
X43465949Y-86211287D01*
X44180234Y-85163668D02*
X44180234Y-84973192D01*
X44132615Y-84877954D01*
X44084996Y-84830335D01*
X43942139Y-84735097D01*
X43751663Y-84687478D01*
X43370711Y-84687478D01*
X43275473Y-84735097D01*
X43227854Y-84782716D01*
X43180234Y-84877954D01*
X43180234Y-85068430D01*
X43227854Y-85163668D01*
X43275473Y-85211287D01*
X43370711Y-85258906D01*
X43608806Y-85258906D01*
X43704044Y-85211287D01*
X43751663Y-85163668D01*
X43799282Y-85068430D01*
X43799282Y-84877954D01*
X43751663Y-84782716D01*
X43704044Y-84735097D01*
X43608806Y-84687478D01*
X47680234Y-94092240D02*
X47204044Y-94425573D01*
X47680234Y-94663668D02*
X46680234Y-94663668D01*
X46680234Y-94282716D01*
X46727854Y-94187478D01*
X46775473Y-94139859D01*
X46870711Y-94092240D01*
X47013568Y-94092240D01*
X47108806Y-94139859D01*
X47156425Y-94187478D01*
X47204044Y-94282716D01*
X47204044Y-94663668D01*
X47680234Y-93139859D02*
X47680234Y-93711287D01*
X47680234Y-93425573D02*
X46680234Y-93425573D01*
X46823092Y-93520811D01*
X46918330Y-93616049D01*
X46965949Y-93711287D01*
X47108806Y-92568430D02*
X47061187Y-92663668D01*
X47013568Y-92711287D01*
X46918330Y-92758906D01*
X46870711Y-92758906D01*
X46775473Y-92711287D01*
X46727854Y-92663668D01*
X46680234Y-92568430D01*
X46680234Y-92377954D01*
X46727854Y-92282716D01*
X46775473Y-92235097D01*
X46870711Y-92187478D01*
X46918330Y-92187478D01*
X47013568Y-92235097D01*
X47061187Y-92282716D01*
X47108806Y-92377954D01*
X47108806Y-92568430D01*
X47156425Y-92663668D01*
X47204044Y-92711287D01*
X47299282Y-92758906D01*
X47489758Y-92758906D01*
X47584996Y-92711287D01*
X47632615Y-92663668D01*
X47680234Y-92568430D01*
X47680234Y-92377954D01*
X47632615Y-92282716D01*
X47584996Y-92235097D01*
X47489758Y-92187478D01*
X47299282Y-92187478D01*
X47204044Y-92235097D01*
X47156425Y-92282716D01*
X47108806Y-92377954D01*
X123940234Y-104432240D02*
X123464044Y-104765573D01*
X123940234Y-105003668D02*
X122940234Y-105003668D01*
X122940234Y-104622716D01*
X122987854Y-104527478D01*
X123035473Y-104479859D01*
X123130711Y-104432240D01*
X123273568Y-104432240D01*
X123368806Y-104479859D01*
X123416425Y-104527478D01*
X123464044Y-104622716D01*
X123464044Y-105003668D01*
X123940234Y-103479859D02*
X123940234Y-104051287D01*
X123940234Y-103765573D02*
X122940234Y-103765573D01*
X123083092Y-103860811D01*
X123178330Y-103956049D01*
X123225949Y-104051287D01*
X122940234Y-103146525D02*
X122940234Y-102479859D01*
X123940234Y-102908430D01*
X45794996Y-75451763D02*
X45461663Y-74975573D01*
X45223568Y-75451763D02*
X45223568Y-74451763D01*
X45604520Y-74451763D01*
X45699758Y-74499383D01*
X45747377Y-74547002D01*
X45794996Y-74642240D01*
X45794996Y-74785097D01*
X45747377Y-74880335D01*
X45699758Y-74927954D01*
X45604520Y-74975573D01*
X45223568Y-74975573D01*
X46747377Y-75451763D02*
X46175949Y-75451763D01*
X46461663Y-75451763D02*
X46461663Y-74451763D01*
X46366425Y-74594621D01*
X46271187Y-74689859D01*
X46175949Y-74737478D01*
X47604520Y-74451763D02*
X47414044Y-74451763D01*
X47318806Y-74499383D01*
X47271187Y-74547002D01*
X47175949Y-74689859D01*
X47128330Y-74880335D01*
X47128330Y-75261287D01*
X47175949Y-75356525D01*
X47223568Y-75404144D01*
X47318806Y-75451763D01*
X47509282Y-75451763D01*
X47604520Y-75404144D01*
X47652139Y-75356525D01*
X47699758Y-75261287D01*
X47699758Y-75023192D01*
X47652139Y-74927954D01*
X47604520Y-74880335D01*
X47509282Y-74832716D01*
X47318806Y-74832716D01*
X47223568Y-74880335D01*
X47175949Y-74927954D01*
X47128330Y-75023192D01*
X119940234Y-108432240D02*
X119464044Y-108765573D01*
X119940234Y-109003668D02*
X118940234Y-109003668D01*
X118940234Y-108622716D01*
X118987854Y-108527478D01*
X119035473Y-108479859D01*
X119130711Y-108432240D01*
X119273568Y-108432240D01*
X119368806Y-108479859D01*
X119416425Y-108527478D01*
X119464044Y-108622716D01*
X119464044Y-109003668D01*
X119940234Y-107479859D02*
X119940234Y-108051287D01*
X119940234Y-107765573D02*
X118940234Y-107765573D01*
X119083092Y-107860811D01*
X119178330Y-107956049D01*
X119225949Y-108051287D01*
X118940234Y-106575097D02*
X118940234Y-107051287D01*
X119416425Y-107098906D01*
X119368806Y-107051287D01*
X119321187Y-106956049D01*
X119321187Y-106717954D01*
X119368806Y-106622716D01*
X119416425Y-106575097D01*
X119511663Y-106527478D01*
X119749758Y-106527478D01*
X119844996Y-106575097D01*
X119892615Y-106622716D01*
X119940234Y-106717954D01*
X119940234Y-106956049D01*
X119892615Y-107051287D01*
X119844996Y-107098906D01*
X146134996Y-113691763D02*
X145801663Y-113215573D01*
X145563568Y-113691763D02*
X145563568Y-112691763D01*
X145944520Y-112691763D01*
X146039758Y-112739383D01*
X146087377Y-112787002D01*
X146134996Y-112882240D01*
X146134996Y-113025097D01*
X146087377Y-113120335D01*
X146039758Y-113167954D01*
X145944520Y-113215573D01*
X145563568Y-113215573D01*
X147087377Y-113691763D02*
X146515949Y-113691763D01*
X146801663Y-113691763D02*
X146801663Y-112691763D01*
X146706425Y-112834621D01*
X146611187Y-112929859D01*
X146515949Y-112977478D01*
X147944520Y-113025097D02*
X147944520Y-113691763D01*
X147706425Y-112644144D02*
X147468330Y-113358430D01*
X148087377Y-113358430D01*
X189790234Y-119032240D02*
X189314044Y-119365573D01*
X189790234Y-119603668D02*
X188790234Y-119603668D01*
X188790234Y-119222716D01*
X188837854Y-119127478D01*
X188885473Y-119079859D01*
X188980711Y-119032240D01*
X189123568Y-119032240D01*
X189218806Y-119079859D01*
X189266425Y-119127478D01*
X189314044Y-119222716D01*
X189314044Y-119603668D01*
X189790234Y-118079859D02*
X189790234Y-118651287D01*
X189790234Y-118365573D02*
X188790234Y-118365573D01*
X188933092Y-118460811D01*
X189028330Y-118556049D01*
X189075949Y-118651287D01*
X188790234Y-117746525D02*
X188790234Y-117127478D01*
X189171187Y-117460811D01*
X189171187Y-117317954D01*
X189218806Y-117222716D01*
X189266425Y-117175097D01*
X189361663Y-117127478D01*
X189599758Y-117127478D01*
X189694996Y-117175097D01*
X189742615Y-117222716D01*
X189790234Y-117317954D01*
X189790234Y-117603668D01*
X189742615Y-117698906D01*
X189694996Y-117746525D01*
X142434996Y-53141763D02*
X142101663Y-52665573D01*
X141863568Y-53141763D02*
X141863568Y-52141763D01*
X142244520Y-52141763D01*
X142339758Y-52189383D01*
X142387377Y-52237002D01*
X142434996Y-52332240D01*
X142434996Y-52475097D01*
X142387377Y-52570335D01*
X142339758Y-52617954D01*
X142244520Y-52665573D01*
X141863568Y-52665573D01*
X143387377Y-53141763D02*
X142815949Y-53141763D01*
X143101663Y-53141763D02*
X143101663Y-52141763D01*
X143006425Y-52284621D01*
X142911187Y-52379859D01*
X142815949Y-52427478D01*
X143768330Y-52237002D02*
X143815949Y-52189383D01*
X143911187Y-52141763D01*
X144149282Y-52141763D01*
X144244520Y-52189383D01*
X144292139Y-52237002D01*
X144339758Y-52332240D01*
X144339758Y-52427478D01*
X144292139Y-52570335D01*
X143720711Y-53141763D01*
X144339758Y-53141763D01*
X136244996Y-33601763D02*
X135911663Y-33125573D01*
X135673568Y-33601763D02*
X135673568Y-32601763D01*
X136054520Y-32601763D01*
X136149758Y-32649383D01*
X136197377Y-32697002D01*
X136244996Y-32792240D01*
X136244996Y-32935097D01*
X136197377Y-33030335D01*
X136149758Y-33077954D01*
X136054520Y-33125573D01*
X135673568Y-33125573D01*
X137197377Y-33601763D02*
X136625949Y-33601763D01*
X136911663Y-33601763D02*
X136911663Y-32601763D01*
X136816425Y-32744621D01*
X136721187Y-32839859D01*
X136625949Y-32887478D01*
X138149758Y-33601763D02*
X137578330Y-33601763D01*
X137864044Y-33601763D02*
X137864044Y-32601763D01*
X137768806Y-32744621D01*
X137673568Y-32839859D01*
X137578330Y-32887478D01*
X133180234Y-46592240D02*
X132704044Y-46925573D01*
X133180234Y-47163668D02*
X132180234Y-47163668D01*
X132180234Y-46782716D01*
X132227854Y-46687478D01*
X132275473Y-46639859D01*
X132370711Y-46592240D01*
X132513568Y-46592240D01*
X132608806Y-46639859D01*
X132656425Y-46687478D01*
X132704044Y-46782716D01*
X132704044Y-47163668D01*
X133180234Y-45639859D02*
X133180234Y-46211287D01*
X133180234Y-45925573D02*
X132180234Y-45925573D01*
X132323092Y-46020811D01*
X132418330Y-46116049D01*
X132465949Y-46211287D01*
X132180234Y-45020811D02*
X132180234Y-44925573D01*
X132227854Y-44830335D01*
X132275473Y-44782716D01*
X132370711Y-44735097D01*
X132561187Y-44687478D01*
X132799282Y-44687478D01*
X132989758Y-44735097D01*
X133084996Y-44782716D01*
X133132615Y-44830335D01*
X133180234Y-44925573D01*
X133180234Y-45020811D01*
X133132615Y-45116049D01*
X133084996Y-45163668D01*
X132989758Y-45211287D01*
X132799282Y-45258906D01*
X132561187Y-45258906D01*
X132370711Y-45211287D01*
X132275473Y-45163668D01*
X132227854Y-45116049D01*
X132180234Y-45020811D01*
X142771187Y-52451763D02*
X142437854Y-51975573D01*
X142199758Y-52451763D02*
X142199758Y-51451763D01*
X142580711Y-51451763D01*
X142675949Y-51499383D01*
X142723568Y-51547002D01*
X142771187Y-51642240D01*
X142771187Y-51785097D01*
X142723568Y-51880335D01*
X142675949Y-51927954D01*
X142580711Y-51975573D01*
X142199758Y-51975573D01*
X143247377Y-52451763D02*
X143437854Y-52451763D01*
X143533092Y-52404144D01*
X143580711Y-52356525D01*
X143675949Y-52213668D01*
X143723568Y-52023192D01*
X143723568Y-51642240D01*
X143675949Y-51547002D01*
X143628330Y-51499383D01*
X143533092Y-51451763D01*
X143342615Y-51451763D01*
X143247377Y-51499383D01*
X143199758Y-51547002D01*
X143152139Y-51642240D01*
X143152139Y-51880335D01*
X143199758Y-51975573D01*
X143247377Y-52023192D01*
X143342615Y-52070811D01*
X143533092Y-52070811D01*
X143628330Y-52023192D01*
X143675949Y-51975573D01*
X143723568Y-51880335D01*
X137180234Y-46116049D02*
X136704044Y-46449383D01*
X137180234Y-46687478D02*
X136180234Y-46687478D01*
X136180234Y-46306525D01*
X136227854Y-46211287D01*
X136275473Y-46163668D01*
X136370711Y-46116049D01*
X136513568Y-46116049D01*
X136608806Y-46163668D01*
X136656425Y-46211287D01*
X136704044Y-46306525D01*
X136704044Y-46687478D01*
X136608806Y-45544621D02*
X136561187Y-45639859D01*
X136513568Y-45687478D01*
X136418330Y-45735097D01*
X136370711Y-45735097D01*
X136275473Y-45687478D01*
X136227854Y-45639859D01*
X136180234Y-45544621D01*
X136180234Y-45354144D01*
X136227854Y-45258906D01*
X136275473Y-45211287D01*
X136370711Y-45163668D01*
X136418330Y-45163668D01*
X136513568Y-45211287D01*
X136561187Y-45258906D01*
X136608806Y-45354144D01*
X136608806Y-45544621D01*
X136656425Y-45639859D01*
X136704044Y-45687478D01*
X136799282Y-45735097D01*
X136989758Y-45735097D01*
X137084996Y-45687478D01*
X137132615Y-45639859D01*
X137180234Y-45544621D01*
X137180234Y-45354144D01*
X137132615Y-45258906D01*
X137084996Y-45211287D01*
X136989758Y-45163668D01*
X136799282Y-45163668D01*
X136704044Y-45211287D01*
X136656425Y-45258906D01*
X136608806Y-45354144D01*
X189790234Y-47456049D02*
X189314044Y-47789383D01*
X189790234Y-48027478D02*
X188790234Y-48027478D01*
X188790234Y-47646525D01*
X188837854Y-47551287D01*
X188885473Y-47503668D01*
X188980711Y-47456049D01*
X189123568Y-47456049D01*
X189218806Y-47503668D01*
X189266425Y-47551287D01*
X189314044Y-47646525D01*
X189314044Y-48027478D01*
X188790234Y-47122716D02*
X188790234Y-46456049D01*
X189790234Y-46884621D01*
X147761187Y-71251763D02*
X147427854Y-70775573D01*
X147189758Y-71251763D02*
X147189758Y-70251763D01*
X147570711Y-70251763D01*
X147665949Y-70299383D01*
X147713568Y-70347002D01*
X147761187Y-70442240D01*
X147761187Y-70585097D01*
X147713568Y-70680335D01*
X147665949Y-70727954D01*
X147570711Y-70775573D01*
X147189758Y-70775573D01*
X148618330Y-70251763D02*
X148427854Y-70251763D01*
X148332615Y-70299383D01*
X148284996Y-70347002D01*
X148189758Y-70489859D01*
X148142139Y-70680335D01*
X148142139Y-71061287D01*
X148189758Y-71156525D01*
X148237377Y-71204144D01*
X148332615Y-71251763D01*
X148523092Y-71251763D01*
X148618330Y-71204144D01*
X148665949Y-71156525D01*
X148713568Y-71061287D01*
X148713568Y-70823192D01*
X148665949Y-70727954D01*
X148618330Y-70680335D01*
X148523092Y-70632716D01*
X148332615Y-70632716D01*
X148237377Y-70680335D01*
X148189758Y-70727954D01*
X148142139Y-70823192D01*
X60180234Y-40616049D02*
X59704044Y-40949383D01*
X60180234Y-41187478D02*
X59180234Y-41187478D01*
X59180234Y-40806525D01*
X59227854Y-40711287D01*
X59275473Y-40663668D01*
X59370711Y-40616049D01*
X59513568Y-40616049D01*
X59608806Y-40663668D01*
X59656425Y-40711287D01*
X59704044Y-40806525D01*
X59704044Y-41187478D01*
X59180234Y-39711287D02*
X59180234Y-40187478D01*
X59656425Y-40235097D01*
X59608806Y-40187478D01*
X59561187Y-40092240D01*
X59561187Y-39854144D01*
X59608806Y-39758906D01*
X59656425Y-39711287D01*
X59751663Y-39663668D01*
X59989758Y-39663668D01*
X60084996Y-39711287D01*
X60132615Y-39758906D01*
X60180234Y-39854144D01*
X60180234Y-40092240D01*
X60132615Y-40187478D01*
X60084996Y-40235097D01*
X60180234Y-53116049D02*
X59704044Y-53449383D01*
X60180234Y-53687478D02*
X59180234Y-53687478D01*
X59180234Y-53306525D01*
X59227854Y-53211287D01*
X59275473Y-53163668D01*
X59370711Y-53116049D01*
X59513568Y-53116049D01*
X59608806Y-53163668D01*
X59656425Y-53211287D01*
X59704044Y-53306525D01*
X59704044Y-53687478D01*
X59513568Y-52258906D02*
X60180234Y-52258906D01*
X59132615Y-52497002D02*
X59846901Y-52735097D01*
X59846901Y-52116049D01*
X48511187Y-60691763D02*
X48177854Y-60215573D01*
X47939758Y-60691763D02*
X47939758Y-59691763D01*
X48320711Y-59691763D01*
X48415949Y-59739383D01*
X48463568Y-59787002D01*
X48511187Y-59882240D01*
X48511187Y-60025097D01*
X48463568Y-60120335D01*
X48415949Y-60167954D01*
X48320711Y-60215573D01*
X47939758Y-60215573D01*
X48844520Y-59691763D02*
X49463568Y-59691763D01*
X49130234Y-60072716D01*
X49273092Y-60072716D01*
X49368330Y-60120335D01*
X49415949Y-60167954D01*
X49463568Y-60263192D01*
X49463568Y-60501287D01*
X49415949Y-60596525D01*
X49368330Y-60644144D01*
X49273092Y-60691763D01*
X48987377Y-60691763D01*
X48892139Y-60644144D01*
X48844520Y-60596525D01*
X59730234Y-52086049D02*
X59254044Y-52419383D01*
X59730234Y-52657478D02*
X58730234Y-52657478D01*
X58730234Y-52276525D01*
X58777854Y-52181287D01*
X58825473Y-52133668D01*
X58920711Y-52086049D01*
X59063568Y-52086049D01*
X59158806Y-52133668D01*
X59206425Y-52181287D01*
X59254044Y-52276525D01*
X59254044Y-52657478D01*
X58825473Y-51705097D02*
X58777854Y-51657478D01*
X58730234Y-51562240D01*
X58730234Y-51324144D01*
X58777854Y-51228906D01*
X58825473Y-51181287D01*
X58920711Y-51133668D01*
X59015949Y-51133668D01*
X59158806Y-51181287D01*
X59730234Y-51752716D01*
X59730234Y-51133668D01*
X189810234Y-72536049D02*
X189334044Y-72869383D01*
X189810234Y-73107478D02*
X188810234Y-73107478D01*
X188810234Y-72726525D01*
X188857854Y-72631287D01*
X188905473Y-72583668D01*
X189000711Y-72536049D01*
X189143568Y-72536049D01*
X189238806Y-72583668D01*
X189286425Y-72631287D01*
X189334044Y-72726525D01*
X189334044Y-73107478D01*
X189810234Y-71583668D02*
X189810234Y-72155097D01*
X189810234Y-71869383D02*
X188810234Y-71869383D01*
X188953092Y-71964621D01*
X189048330Y-72059859D01*
X189095949Y-72155097D01*
X136452615Y-100687002D02*
X136357377Y-100639383D01*
X136262139Y-100544144D01*
X136119282Y-100401287D01*
X136024044Y-100353668D01*
X135928806Y-100353668D01*
X135976425Y-100591763D02*
X135881187Y-100544144D01*
X135785949Y-100448906D01*
X135738330Y-100258430D01*
X135738330Y-99925097D01*
X135785949Y-99734621D01*
X135881187Y-99639383D01*
X135976425Y-99591763D01*
X136166901Y-99591763D01*
X136262139Y-99639383D01*
X136357377Y-99734621D01*
X136404996Y-99925097D01*
X136404996Y-100258430D01*
X136357377Y-100448906D01*
X136262139Y-100544144D01*
X136166901Y-100591763D01*
X135976425Y-100591763D01*
X136738330Y-99591763D02*
X137357377Y-99591763D01*
X137024044Y-99972716D01*
X137166901Y-99972716D01*
X137262139Y-100020335D01*
X137309758Y-100067954D01*
X137357377Y-100163192D01*
X137357377Y-100401287D01*
X137309758Y-100496525D01*
X137262139Y-100544144D01*
X137166901Y-100591763D01*
X136881187Y-100591763D01*
X136785949Y-100544144D01*
X136738330Y-100496525D01*
X156452615Y-100687002D02*
X156357377Y-100639383D01*
X156262139Y-100544144D01*
X156119282Y-100401287D01*
X156024044Y-100353668D01*
X155928806Y-100353668D01*
X155976425Y-100591763D02*
X155881187Y-100544144D01*
X155785949Y-100448906D01*
X155738330Y-100258430D01*
X155738330Y-99925097D01*
X155785949Y-99734621D01*
X155881187Y-99639383D01*
X155976425Y-99591763D01*
X156166901Y-99591763D01*
X156262139Y-99639383D01*
X156357377Y-99734621D01*
X156404996Y-99925097D01*
X156404996Y-100258430D01*
X156357377Y-100448906D01*
X156262139Y-100544144D01*
X156166901Y-100591763D01*
X155976425Y-100591763D01*
X156785949Y-99687002D02*
X156833568Y-99639383D01*
X156928806Y-99591763D01*
X157166901Y-99591763D01*
X157262139Y-99639383D01*
X157309758Y-99687002D01*
X157357377Y-99782240D01*
X157357377Y-99877478D01*
X157309758Y-100020335D01*
X156738330Y-100591763D01*
X157357377Y-100591763D01*
X157452615Y-53687002D02*
X157357377Y-53639383D01*
X157262139Y-53544144D01*
X157119282Y-53401287D01*
X157024044Y-53353668D01*
X156928806Y-53353668D01*
X156976425Y-53591763D02*
X156881187Y-53544144D01*
X156785949Y-53448906D01*
X156738330Y-53258430D01*
X156738330Y-52925097D01*
X156785949Y-52734621D01*
X156881187Y-52639383D01*
X156976425Y-52591763D01*
X157166901Y-52591763D01*
X157262139Y-52639383D01*
X157357377Y-52734621D01*
X157404996Y-52925097D01*
X157404996Y-53258430D01*
X157357377Y-53448906D01*
X157262139Y-53544144D01*
X157166901Y-53591763D01*
X156976425Y-53591763D01*
X158357377Y-53591763D02*
X157785949Y-53591763D01*
X158071663Y-53591763D02*
X158071663Y-52591763D01*
X157976425Y-52734621D01*
X157881187Y-52829859D01*
X157785949Y-52877478D01*
X149930234Y-125013906D02*
X150644520Y-125013906D01*
X150787377Y-125061525D01*
X150882615Y-125156763D01*
X150930234Y-125299621D01*
X150930234Y-125394859D01*
X150025473Y-124585335D02*
X149977854Y-124537716D01*
X149930234Y-124442478D01*
X149930234Y-124204383D01*
X149977854Y-124109144D01*
X150025473Y-124061525D01*
X150120711Y-124013906D01*
X150215949Y-124013906D01*
X150358806Y-124061525D01*
X150930234Y-124632954D01*
X150930234Y-124013906D01*
X150263568Y-123156763D02*
X150930234Y-123156763D01*
X149882615Y-123394859D02*
X150596901Y-123632954D01*
X150596901Y-123013906D01*
X55480234Y-85678906D02*
X56194520Y-85678906D01*
X56337377Y-85726525D01*
X56432615Y-85821763D01*
X56480234Y-85964621D01*
X56480234Y-86059859D01*
X56480234Y-84678906D02*
X56480234Y-85250335D01*
X56480234Y-84964621D02*
X55480234Y-84964621D01*
X55623092Y-85059859D01*
X55718330Y-85155097D01*
X55765949Y-85250335D01*
X55480234Y-84345573D02*
X55480234Y-83726525D01*
X55861187Y-84059859D01*
X55861187Y-83917002D01*
X55908806Y-83821763D01*
X55956425Y-83774144D01*
X56051663Y-83726525D01*
X56289758Y-83726525D01*
X56384996Y-83774144D01*
X56432615Y-83821763D01*
X56480234Y-83917002D01*
X56480234Y-84202716D01*
X56432615Y-84297954D01*
X56384996Y-84345573D01*
X57980234Y-81678906D02*
X58694520Y-81678906D01*
X58837377Y-81726525D01*
X58932615Y-81821763D01*
X58980234Y-81964621D01*
X58980234Y-82059859D01*
X58980234Y-80678906D02*
X58980234Y-81250335D01*
X58980234Y-80964621D02*
X57980234Y-80964621D01*
X58123092Y-81059859D01*
X58218330Y-81155097D01*
X58265949Y-81250335D01*
X58980234Y-79726525D02*
X58980234Y-80297954D01*
X58980234Y-80012240D02*
X57980234Y-80012240D01*
X58123092Y-80107478D01*
X58218330Y-80202716D01*
X58265949Y-80297954D01*
X137199520Y-93621763D02*
X137199520Y-94336049D01*
X137151901Y-94478906D01*
X137056663Y-94574144D01*
X136913806Y-94621763D01*
X136818568Y-94621763D01*
X137723330Y-94621763D02*
X137913806Y-94621763D01*
X138009044Y-94574144D01*
X138056663Y-94526525D01*
X138151901Y-94383668D01*
X138199520Y-94193192D01*
X138199520Y-93812240D01*
X138151901Y-93717002D01*
X138104282Y-93669383D01*
X138009044Y-93621763D01*
X137818568Y-93621763D01*
X137723330Y-93669383D01*
X137675711Y-93717002D01*
X137628092Y-93812240D01*
X137628092Y-94050335D01*
X137675711Y-94145573D01*
X137723330Y-94193192D01*
X137818568Y-94240811D01*
X138009044Y-94240811D01*
X138104282Y-94193192D01*
X138151901Y-94145573D01*
X138199520Y-94050335D01*
X158174520Y-93621763D02*
X158174520Y-94336049D01*
X158126901Y-94478906D01*
X158031663Y-94574144D01*
X157888806Y-94621763D01*
X157793568Y-94621763D01*
X158793568Y-94050335D02*
X158698330Y-94002716D01*
X158650711Y-93955097D01*
X158603092Y-93859859D01*
X158603092Y-93812240D01*
X158650711Y-93717002D01*
X158698330Y-93669383D01*
X158793568Y-93621763D01*
X158984044Y-93621763D01*
X159079282Y-93669383D01*
X159126901Y-93717002D01*
X159174520Y-93812240D01*
X159174520Y-93859859D01*
X159126901Y-93955097D01*
X159079282Y-94002716D01*
X158984044Y-94050335D01*
X158793568Y-94050335D01*
X158698330Y-94097954D01*
X158650711Y-94145573D01*
X158603092Y-94240811D01*
X158603092Y-94431287D01*
X158650711Y-94526525D01*
X158698330Y-94574144D01*
X158793568Y-94621763D01*
X158984044Y-94621763D01*
X159079282Y-94574144D01*
X159126901Y-94526525D01*
X159174520Y-94431287D01*
X159174520Y-94240811D01*
X159126901Y-94145573D01*
X159079282Y-94097954D01*
X158984044Y-94050335D01*
X174424520Y-93621763D02*
X174424520Y-94336049D01*
X174376901Y-94478906D01*
X174281663Y-94574144D01*
X174138806Y-94621763D01*
X174043568Y-94621763D01*
X174805473Y-93621763D02*
X175472139Y-93621763D01*
X175043568Y-94621763D01*
X109480234Y-68702716D02*
X110194520Y-68702716D01*
X110337377Y-68750335D01*
X110432615Y-68845573D01*
X110480234Y-68988430D01*
X110480234Y-69083668D01*
X109480234Y-67750335D02*
X109480234Y-68226525D01*
X109956425Y-68274144D01*
X109908806Y-68226525D01*
X109861187Y-68131287D01*
X109861187Y-67893192D01*
X109908806Y-67797954D01*
X109956425Y-67750335D01*
X110051663Y-67702716D01*
X110289758Y-67702716D01*
X110384996Y-67750335D01*
X110432615Y-67797954D01*
X110480234Y-67893192D01*
X110480234Y-68131287D01*
X110432615Y-68226525D01*
X110384996Y-68274144D01*
X33139520Y-61591763D02*
X33139520Y-62306049D01*
X33091901Y-62448906D01*
X32996663Y-62544144D01*
X32853806Y-62591763D01*
X32758568Y-62591763D01*
X34044282Y-61925097D02*
X34044282Y-62591763D01*
X33806187Y-61544144D02*
X33568092Y-62258430D01*
X34187139Y-62258430D01*
X99480234Y-68202716D02*
X100194520Y-68202716D01*
X100337377Y-68250335D01*
X100432615Y-68345573D01*
X100480234Y-68488430D01*
X100480234Y-68583668D01*
X99480234Y-67821763D02*
X99480234Y-67202716D01*
X99861187Y-67536049D01*
X99861187Y-67393192D01*
X99908806Y-67297954D01*
X99956425Y-67250335D01*
X100051663Y-67202716D01*
X100289758Y-67202716D01*
X100384996Y-67250335D01*
X100432615Y-67297954D01*
X100480234Y-67393192D01*
X100480234Y-67678906D01*
X100432615Y-67774144D01*
X100384996Y-67821763D01*
X172374520Y-46171763D02*
X172374520Y-46886049D01*
X172326901Y-47028906D01*
X172231663Y-47124144D01*
X172088806Y-47171763D01*
X171993568Y-47171763D01*
X172803092Y-46267002D02*
X172850711Y-46219383D01*
X172945949Y-46171763D01*
X173184044Y-46171763D01*
X173279282Y-46219383D01*
X173326901Y-46267002D01*
X173374520Y-46362240D01*
X173374520Y-46457478D01*
X173326901Y-46600335D01*
X172755473Y-47171763D01*
X173374520Y-47171763D01*
X154324520Y-46171763D02*
X154324520Y-46886049D01*
X154276901Y-47028906D01*
X154181663Y-47124144D01*
X154038806Y-47171763D01*
X153943568Y-47171763D01*
X155324520Y-47171763D02*
X154753092Y-47171763D01*
X155038806Y-47171763D02*
X155038806Y-46171763D01*
X154943568Y-46314621D01*
X154848330Y-46409859D01*
X154753092Y-46457478D01*
X168659758Y-74311763D02*
X168659758Y-73311763D01*
X168897854Y-73311763D01*
X169040711Y-73359383D01*
X169135949Y-73454621D01*
X169183568Y-73549859D01*
X169231187Y-73740335D01*
X169231187Y-73883192D01*
X169183568Y-74073668D01*
X169135949Y-74168906D01*
X169040711Y-74264144D01*
X168897854Y-74311763D01*
X168659758Y-74311763D01*
X170088330Y-73645097D02*
X170088330Y-74311763D01*
X169850234Y-73264144D02*
X169612139Y-73978430D01*
X170231187Y-73978430D01*
X128690234Y-87577478D02*
X127690234Y-87577478D01*
X127690234Y-87339383D01*
X127737854Y-87196525D01*
X127833092Y-87101287D01*
X127928330Y-87053668D01*
X128118806Y-87006049D01*
X128261663Y-87006049D01*
X128452139Y-87053668D01*
X128547377Y-87101287D01*
X128642615Y-87196525D01*
X128690234Y-87339383D01*
X128690234Y-87577478D01*
X127690234Y-86672716D02*
X127690234Y-86053668D01*
X128071187Y-86387002D01*
X128071187Y-86244144D01*
X128118806Y-86148906D01*
X128166425Y-86101287D01*
X128261663Y-86053668D01*
X128499758Y-86053668D01*
X128594996Y-86101287D01*
X128642615Y-86148906D01*
X128690234Y-86244144D01*
X128690234Y-86529859D01*
X128642615Y-86625097D01*
X128594996Y-86672716D01*
X149665234Y-87577478D02*
X148665234Y-87577478D01*
X148665234Y-87339383D01*
X148712854Y-87196525D01*
X148808092Y-87101287D01*
X148903330Y-87053668D01*
X149093806Y-87006049D01*
X149236663Y-87006049D01*
X149427139Y-87053668D01*
X149522377Y-87101287D01*
X149617615Y-87196525D01*
X149665234Y-87339383D01*
X149665234Y-87577478D01*
X148760473Y-86625097D02*
X148712854Y-86577478D01*
X148665234Y-86482240D01*
X148665234Y-86244144D01*
X148712854Y-86148906D01*
X148760473Y-86101287D01*
X148855711Y-86053668D01*
X148950949Y-86053668D01*
X149093806Y-86101287D01*
X149665234Y-86672716D01*
X149665234Y-86053668D01*
X145910234Y-41227478D02*
X144910234Y-41227478D01*
X144910234Y-40989383D01*
X144957854Y-40846525D01*
X145053092Y-40751287D01*
X145148330Y-40703668D01*
X145338806Y-40656049D01*
X145481663Y-40656049D01*
X145672139Y-40703668D01*
X145767377Y-40751287D01*
X145862615Y-40846525D01*
X145910234Y-40989383D01*
X145910234Y-41227478D01*
X145910234Y-39703668D02*
X145910234Y-40275097D01*
X145910234Y-39989383D02*
X144910234Y-39989383D01*
X145053092Y-40084621D01*
X145148330Y-40179859D01*
X145195949Y-40275097D01*
M02*
