G04 #@! TF.GenerationSoftware,KiCad,Pcbnew,(5.1.5-0-10_14)*
G04 #@! TF.CreationDate,2020-04-27T06:18:58+02:00*
G04 #@! TF.ProjectId,Main_Board_v1,4d61696e-5f42-46f6-9172-645f76312e6b,rev?*
G04 #@! TF.SameCoordinates,Original*
G04 #@! TF.FileFunction,Copper,L1,Top*
G04 #@! TF.FilePolarity,Positive*
%FSLAX46Y46*%
G04 Gerber Fmt 4.6, Leading zero omitted, Abs format (unit mm)*
G04 Created by KiCad (PCBNEW (5.1.5-0-10_14)) date 2020-04-27 06:18:58*
%MOMM*%
%LPD*%
G04 APERTURE LIST*
%ADD10C,0.100000*%
%ADD11O,1.700000X1.700000*%
%ADD12R,1.700000X1.700000*%
%ADD13O,1.400000X2.600000*%
%ADD14O,2.600000X1.400000*%
%ADD15O,2.400000X1.600000*%
%ADD16R,1.000000X1.500000*%
%ADD17O,1.000000X1.500000*%
%ADD18R,1.500000X1.000000*%
%ADD19O,1.500000X1.000000*%
%ADD20O,1.600000X1.400000*%
%ADD21R,1.900000X1.400000*%
%ADD22C,4.000000*%
%ADD23C,1.900000*%
%ADD24O,1.600000X1.600000*%
%ADD25C,1.600000*%
%ADD26O,3.000000X1.700000*%
%ADD27C,2.000000*%
%ADD28R,1.600000X1.600000*%
%ADD29O,1.600000X2.400000*%
%ADD30R,1.600000X2.400000*%
%ADD31O,1.905000X2.000000*%
%ADD32R,1.905000X2.000000*%
%ADD33R,2.400000X1.600000*%
%ADD34O,2.200000X2.200000*%
%ADD35R,2.200000X2.200000*%
%ADD36C,0.900000*%
%ADD37C,1.000000*%
%ADD38C,0.350000*%
G04 APERTURE END LIST*
D10*
G36*
X103476854Y-110014383D02*
G01*
X103476854Y-108744383D01*
X104238854Y-108744383D01*
X104238854Y-110014383D01*
X103476854Y-110014383D01*
G37*
X103476854Y-110014383D02*
X103476854Y-108744383D01*
X104238854Y-108744383D01*
X104238854Y-110014383D01*
X103476854Y-110014383D01*
G36*
X100936854Y-110014383D02*
G01*
X100936854Y-108744383D01*
X101698854Y-108744383D01*
X101698854Y-110014383D01*
X100936854Y-110014383D01*
G37*
X100936854Y-110014383D02*
X100936854Y-108744383D01*
X101698854Y-108744383D01*
X101698854Y-110014383D01*
X100936854Y-110014383D01*
G36*
X98396854Y-110014383D02*
G01*
X98396854Y-108744383D01*
X99158854Y-108744383D01*
X99158854Y-110014383D01*
X98396854Y-110014383D01*
G37*
X98396854Y-110014383D02*
X98396854Y-108744383D01*
X99158854Y-108744383D01*
X99158854Y-110014383D01*
X98396854Y-110014383D01*
G36*
X95856854Y-110014383D02*
G01*
X95856854Y-108744383D01*
X96618854Y-108744383D01*
X96618854Y-110014383D01*
X95856854Y-110014383D01*
G37*
X95856854Y-110014383D02*
X95856854Y-108744383D01*
X96618854Y-108744383D01*
X96618854Y-110014383D01*
X95856854Y-110014383D01*
G36*
X85696854Y-110014383D02*
G01*
X85696854Y-108744383D01*
X86458854Y-108744383D01*
X86458854Y-110014383D01*
X85696854Y-110014383D01*
G37*
X85696854Y-110014383D02*
X85696854Y-108744383D01*
X86458854Y-108744383D01*
X86458854Y-110014383D01*
X85696854Y-110014383D01*
G36*
X88236854Y-110014383D02*
G01*
X88236854Y-108744383D01*
X88998854Y-108744383D01*
X88998854Y-110014383D01*
X88236854Y-110014383D01*
G37*
X88236854Y-110014383D02*
X88236854Y-108744383D01*
X88998854Y-108744383D01*
X88998854Y-110014383D01*
X88236854Y-110014383D01*
G36*
X90776854Y-110014383D02*
G01*
X90776854Y-108744383D01*
X91538854Y-108744383D01*
X91538854Y-110014383D01*
X90776854Y-110014383D01*
G37*
X90776854Y-110014383D02*
X90776854Y-108744383D01*
X91538854Y-108744383D01*
X91538854Y-110014383D01*
X90776854Y-110014383D01*
G36*
X93316854Y-110014383D02*
G01*
X93316854Y-108744383D01*
X94078854Y-108744383D01*
X94078854Y-110014383D01*
X93316854Y-110014383D01*
G37*
X93316854Y-110014383D02*
X93316854Y-108744383D01*
X94078854Y-108744383D01*
X94078854Y-110014383D01*
X93316854Y-110014383D01*
G36*
X72996854Y-110014383D02*
G01*
X72996854Y-108744383D01*
X73758854Y-108744383D01*
X73758854Y-110014383D01*
X72996854Y-110014383D01*
G37*
X72996854Y-110014383D02*
X72996854Y-108744383D01*
X73758854Y-108744383D01*
X73758854Y-110014383D01*
X72996854Y-110014383D01*
G36*
X75536854Y-110014383D02*
G01*
X75536854Y-108744383D01*
X76298854Y-108744383D01*
X76298854Y-110014383D01*
X75536854Y-110014383D01*
G37*
X75536854Y-110014383D02*
X75536854Y-108744383D01*
X76298854Y-108744383D01*
X76298854Y-110014383D01*
X75536854Y-110014383D01*
G36*
X83156854Y-110014383D02*
G01*
X83156854Y-108744383D01*
X83918854Y-108744383D01*
X83918854Y-110014383D01*
X83156854Y-110014383D01*
G37*
X83156854Y-110014383D02*
X83156854Y-108744383D01*
X83918854Y-108744383D01*
X83918854Y-110014383D01*
X83156854Y-110014383D01*
G36*
X80616854Y-110014383D02*
G01*
X80616854Y-108744383D01*
X81378854Y-108744383D01*
X81378854Y-110014383D01*
X80616854Y-110014383D01*
G37*
X80616854Y-110014383D02*
X80616854Y-108744383D01*
X81378854Y-108744383D01*
X81378854Y-110014383D01*
X80616854Y-110014383D01*
G36*
X78076854Y-110014383D02*
G01*
X78076854Y-108744383D01*
X78838854Y-108744383D01*
X78838854Y-110014383D01*
X78076854Y-110014383D01*
G37*
X78076854Y-110014383D02*
X78076854Y-108744383D01*
X78838854Y-108744383D01*
X78838854Y-110014383D01*
X78076854Y-110014383D01*
G36*
X65376854Y-110014383D02*
G01*
X65376854Y-108744383D01*
X66138854Y-108744383D01*
X66138854Y-110014383D01*
X65376854Y-110014383D01*
G37*
X65376854Y-110014383D02*
X65376854Y-108744383D01*
X66138854Y-108744383D01*
X66138854Y-110014383D01*
X65376854Y-110014383D01*
G36*
X67916854Y-110014383D02*
G01*
X67916854Y-108744383D01*
X68678854Y-108744383D01*
X68678854Y-110014383D01*
X67916854Y-110014383D01*
G37*
X67916854Y-110014383D02*
X67916854Y-108744383D01*
X68678854Y-108744383D01*
X68678854Y-110014383D01*
X67916854Y-110014383D01*
G36*
X70456854Y-110014383D02*
G01*
X70456854Y-108744383D01*
X71218854Y-108744383D01*
X71218854Y-110014383D01*
X70456854Y-110014383D01*
G37*
X70456854Y-110014383D02*
X70456854Y-108744383D01*
X71218854Y-108744383D01*
X71218854Y-110014383D01*
X70456854Y-110014383D01*
G36*
X62836854Y-110014383D02*
G01*
X62836854Y-108744383D01*
X63598854Y-108744383D01*
X63598854Y-110014383D01*
X62836854Y-110014383D01*
G37*
X62836854Y-110014383D02*
X62836854Y-108744383D01*
X63598854Y-108744383D01*
X63598854Y-110014383D01*
X62836854Y-110014383D01*
G36*
X60296854Y-110014383D02*
G01*
X60296854Y-108744383D01*
X61058854Y-108744383D01*
X61058854Y-110014383D01*
X60296854Y-110014383D01*
G37*
X60296854Y-110014383D02*
X60296854Y-108744383D01*
X61058854Y-108744383D01*
X61058854Y-110014383D01*
X60296854Y-110014383D01*
G36*
X57756854Y-110014383D02*
G01*
X57756854Y-108744383D01*
X58518854Y-108744383D01*
X58518854Y-110014383D01*
X57756854Y-110014383D01*
G37*
X57756854Y-110014383D02*
X57756854Y-108744383D01*
X58518854Y-108744383D01*
X58518854Y-110014383D01*
X57756854Y-110014383D01*
G36*
X55216854Y-110014383D02*
G01*
X55216854Y-108744383D01*
X55978854Y-108744383D01*
X55978854Y-110014383D01*
X55216854Y-110014383D01*
G37*
X55216854Y-110014383D02*
X55216854Y-108744383D01*
X55978854Y-108744383D01*
X55978854Y-110014383D01*
X55216854Y-110014383D01*
G36*
X55216854Y-92234383D02*
G01*
X55216854Y-90964383D01*
X55978854Y-90964383D01*
X55978854Y-92234383D01*
X55216854Y-92234383D01*
G37*
X55216854Y-92234383D02*
X55216854Y-90964383D01*
X55978854Y-90964383D01*
X55978854Y-92234383D01*
X55216854Y-92234383D01*
G36*
X57756854Y-92234383D02*
G01*
X57756854Y-90964383D01*
X58518854Y-90964383D01*
X58518854Y-92234383D01*
X57756854Y-92234383D01*
G37*
X57756854Y-92234383D02*
X57756854Y-90964383D01*
X58518854Y-90964383D01*
X58518854Y-92234383D01*
X57756854Y-92234383D01*
G36*
X60296854Y-92234383D02*
G01*
X60296854Y-90964383D01*
X61058854Y-90964383D01*
X61058854Y-92234383D01*
X60296854Y-92234383D01*
G37*
X60296854Y-92234383D02*
X60296854Y-90964383D01*
X61058854Y-90964383D01*
X61058854Y-92234383D01*
X60296854Y-92234383D01*
G36*
X62836854Y-92234383D02*
G01*
X62836854Y-90964383D01*
X63598854Y-90964383D01*
X63598854Y-92234383D01*
X62836854Y-92234383D01*
G37*
X62836854Y-92234383D02*
X62836854Y-90964383D01*
X63598854Y-90964383D01*
X63598854Y-92234383D01*
X62836854Y-92234383D01*
G36*
X70456854Y-92234383D02*
G01*
X70456854Y-90964383D01*
X71218854Y-90964383D01*
X71218854Y-92234383D01*
X70456854Y-92234383D01*
G37*
X70456854Y-92234383D02*
X70456854Y-90964383D01*
X71218854Y-90964383D01*
X71218854Y-92234383D01*
X70456854Y-92234383D01*
G36*
X67916854Y-92234383D02*
G01*
X67916854Y-90964383D01*
X68678854Y-90964383D01*
X68678854Y-92234383D01*
X67916854Y-92234383D01*
G37*
X67916854Y-92234383D02*
X67916854Y-90964383D01*
X68678854Y-90964383D01*
X68678854Y-92234383D01*
X67916854Y-92234383D01*
G36*
X65376854Y-92234383D02*
G01*
X65376854Y-90964383D01*
X66138854Y-90964383D01*
X66138854Y-92234383D01*
X65376854Y-92234383D01*
G37*
X65376854Y-92234383D02*
X65376854Y-90964383D01*
X66138854Y-90964383D01*
X66138854Y-92234383D01*
X65376854Y-92234383D01*
G36*
X72996854Y-92234383D02*
G01*
X72996854Y-90964383D01*
X73758854Y-90964383D01*
X73758854Y-92234383D01*
X72996854Y-92234383D01*
G37*
X72996854Y-92234383D02*
X72996854Y-90964383D01*
X73758854Y-90964383D01*
X73758854Y-92234383D01*
X72996854Y-92234383D01*
G36*
X75536854Y-92234383D02*
G01*
X75536854Y-90964383D01*
X76298854Y-90964383D01*
X76298854Y-92234383D01*
X75536854Y-92234383D01*
G37*
X75536854Y-92234383D02*
X75536854Y-90964383D01*
X76298854Y-90964383D01*
X76298854Y-92234383D01*
X75536854Y-92234383D01*
G36*
X78076854Y-92234383D02*
G01*
X78076854Y-90964383D01*
X78838854Y-90964383D01*
X78838854Y-92234383D01*
X78076854Y-92234383D01*
G37*
X78076854Y-92234383D02*
X78076854Y-90964383D01*
X78838854Y-90964383D01*
X78838854Y-92234383D01*
X78076854Y-92234383D01*
G36*
X80616854Y-92234383D02*
G01*
X80616854Y-90964383D01*
X81378854Y-90964383D01*
X81378854Y-92234383D01*
X80616854Y-92234383D01*
G37*
X80616854Y-92234383D02*
X80616854Y-90964383D01*
X81378854Y-90964383D01*
X81378854Y-92234383D01*
X80616854Y-92234383D01*
G36*
X83156854Y-92234383D02*
G01*
X83156854Y-90964383D01*
X83918854Y-90964383D01*
X83918854Y-92234383D01*
X83156854Y-92234383D01*
G37*
X83156854Y-92234383D02*
X83156854Y-90964383D01*
X83918854Y-90964383D01*
X83918854Y-92234383D01*
X83156854Y-92234383D01*
G36*
X85696854Y-92234383D02*
G01*
X85696854Y-90964383D01*
X86458854Y-90964383D01*
X86458854Y-92234383D01*
X85696854Y-92234383D01*
G37*
X85696854Y-92234383D02*
X85696854Y-90964383D01*
X86458854Y-90964383D01*
X86458854Y-92234383D01*
X85696854Y-92234383D01*
G36*
X88236854Y-92234383D02*
G01*
X88236854Y-90964383D01*
X88998854Y-90964383D01*
X88998854Y-92234383D01*
X88236854Y-92234383D01*
G37*
X88236854Y-92234383D02*
X88236854Y-90964383D01*
X88998854Y-90964383D01*
X88998854Y-92234383D01*
X88236854Y-92234383D01*
G36*
X90776854Y-92234383D02*
G01*
X90776854Y-90964383D01*
X91538854Y-90964383D01*
X91538854Y-92234383D01*
X90776854Y-92234383D01*
G37*
X90776854Y-92234383D02*
X90776854Y-90964383D01*
X91538854Y-90964383D01*
X91538854Y-92234383D01*
X90776854Y-92234383D01*
G36*
X93316854Y-92234383D02*
G01*
X93316854Y-90964383D01*
X94078854Y-90964383D01*
X94078854Y-92234383D01*
X93316854Y-92234383D01*
G37*
X93316854Y-92234383D02*
X93316854Y-90964383D01*
X94078854Y-90964383D01*
X94078854Y-92234383D01*
X93316854Y-92234383D01*
G36*
X95856854Y-92234383D02*
G01*
X95856854Y-90964383D01*
X96618854Y-90964383D01*
X96618854Y-92234383D01*
X95856854Y-92234383D01*
G37*
X95856854Y-92234383D02*
X95856854Y-90964383D01*
X96618854Y-90964383D01*
X96618854Y-92234383D01*
X95856854Y-92234383D01*
G36*
X98396854Y-92234383D02*
G01*
X98396854Y-90964383D01*
X99158854Y-90964383D01*
X99158854Y-92234383D01*
X98396854Y-92234383D01*
G37*
X98396854Y-92234383D02*
X98396854Y-90964383D01*
X99158854Y-90964383D01*
X99158854Y-92234383D01*
X98396854Y-92234383D01*
G36*
X103476854Y-92234383D02*
G01*
X103476854Y-90964383D01*
X104238854Y-90964383D01*
X104238854Y-92234383D01*
X103476854Y-92234383D01*
G37*
X103476854Y-92234383D02*
X103476854Y-90964383D01*
X104238854Y-90964383D01*
X104238854Y-92234383D01*
X103476854Y-92234383D01*
G36*
X100936854Y-92234383D02*
G01*
X100936854Y-90964383D01*
X101698854Y-90964383D01*
X101698854Y-92234383D01*
X100936854Y-92234383D01*
G37*
X100936854Y-92234383D02*
X100936854Y-90964383D01*
X101698854Y-90964383D01*
X101698854Y-92234383D01*
X100936854Y-92234383D01*
G36*
X67238854Y-43724383D02*
G01*
X67238854Y-44994383D01*
X66476854Y-44994383D01*
X66476854Y-43724383D01*
X67238854Y-43724383D01*
G37*
X67238854Y-43724383D02*
X67238854Y-44994383D01*
X66476854Y-44994383D01*
X66476854Y-43724383D01*
X67238854Y-43724383D01*
G36*
X69778854Y-43724383D02*
G01*
X69778854Y-44994383D01*
X69016854Y-44994383D01*
X69016854Y-43724383D01*
X69778854Y-43724383D01*
G37*
X69778854Y-43724383D02*
X69778854Y-44994383D01*
X69016854Y-44994383D01*
X69016854Y-43724383D01*
X69778854Y-43724383D01*
G36*
X72318854Y-43724383D02*
G01*
X72318854Y-44994383D01*
X71556854Y-44994383D01*
X71556854Y-43724383D01*
X72318854Y-43724383D01*
G37*
X72318854Y-43724383D02*
X72318854Y-44994383D01*
X71556854Y-44994383D01*
X71556854Y-43724383D01*
X72318854Y-43724383D01*
G36*
X74858854Y-43724383D02*
G01*
X74858854Y-44994383D01*
X74096854Y-44994383D01*
X74096854Y-43724383D01*
X74858854Y-43724383D01*
G37*
X74858854Y-43724383D02*
X74858854Y-44994383D01*
X74096854Y-44994383D01*
X74096854Y-43724383D01*
X74858854Y-43724383D01*
G36*
X85018854Y-43724383D02*
G01*
X85018854Y-44994383D01*
X84256854Y-44994383D01*
X84256854Y-43724383D01*
X85018854Y-43724383D01*
G37*
X85018854Y-43724383D02*
X85018854Y-44994383D01*
X84256854Y-44994383D01*
X84256854Y-43724383D01*
X85018854Y-43724383D01*
G36*
X82478854Y-43724383D02*
G01*
X82478854Y-44994383D01*
X81716854Y-44994383D01*
X81716854Y-43724383D01*
X82478854Y-43724383D01*
G37*
X82478854Y-43724383D02*
X82478854Y-44994383D01*
X81716854Y-44994383D01*
X81716854Y-43724383D01*
X82478854Y-43724383D01*
G36*
X79938854Y-43724383D02*
G01*
X79938854Y-44994383D01*
X79176854Y-44994383D01*
X79176854Y-43724383D01*
X79938854Y-43724383D01*
G37*
X79938854Y-43724383D02*
X79938854Y-44994383D01*
X79176854Y-44994383D01*
X79176854Y-43724383D01*
X79938854Y-43724383D01*
G36*
X77398854Y-43724383D02*
G01*
X77398854Y-44994383D01*
X76636854Y-44994383D01*
X76636854Y-43724383D01*
X77398854Y-43724383D01*
G37*
X77398854Y-43724383D02*
X77398854Y-44994383D01*
X76636854Y-44994383D01*
X76636854Y-43724383D01*
X77398854Y-43724383D01*
G36*
X97718854Y-43724383D02*
G01*
X97718854Y-44994383D01*
X96956854Y-44994383D01*
X96956854Y-43724383D01*
X97718854Y-43724383D01*
G37*
X97718854Y-43724383D02*
X97718854Y-44994383D01*
X96956854Y-44994383D01*
X96956854Y-43724383D01*
X97718854Y-43724383D01*
G36*
X95178854Y-43724383D02*
G01*
X95178854Y-44994383D01*
X94416854Y-44994383D01*
X94416854Y-43724383D01*
X95178854Y-43724383D01*
G37*
X95178854Y-43724383D02*
X95178854Y-44994383D01*
X94416854Y-44994383D01*
X94416854Y-43724383D01*
X95178854Y-43724383D01*
G36*
X87558854Y-43724383D02*
G01*
X87558854Y-44994383D01*
X86796854Y-44994383D01*
X86796854Y-43724383D01*
X87558854Y-43724383D01*
G37*
X87558854Y-43724383D02*
X87558854Y-44994383D01*
X86796854Y-44994383D01*
X86796854Y-43724383D01*
X87558854Y-43724383D01*
G36*
X90098854Y-43724383D02*
G01*
X90098854Y-44994383D01*
X89336854Y-44994383D01*
X89336854Y-43724383D01*
X90098854Y-43724383D01*
G37*
X90098854Y-43724383D02*
X90098854Y-44994383D01*
X89336854Y-44994383D01*
X89336854Y-43724383D01*
X90098854Y-43724383D01*
G36*
X92638854Y-43724383D02*
G01*
X92638854Y-44994383D01*
X91876854Y-44994383D01*
X91876854Y-43724383D01*
X92638854Y-43724383D01*
G37*
X92638854Y-43724383D02*
X92638854Y-44994383D01*
X91876854Y-44994383D01*
X91876854Y-43724383D01*
X92638854Y-43724383D01*
G36*
X105338854Y-43724383D02*
G01*
X105338854Y-44994383D01*
X104576854Y-44994383D01*
X104576854Y-43724383D01*
X105338854Y-43724383D01*
G37*
X105338854Y-43724383D02*
X105338854Y-44994383D01*
X104576854Y-44994383D01*
X104576854Y-43724383D01*
X105338854Y-43724383D01*
G36*
X102798854Y-43724383D02*
G01*
X102798854Y-44994383D01*
X102036854Y-44994383D01*
X102036854Y-43724383D01*
X102798854Y-43724383D01*
G37*
X102798854Y-43724383D02*
X102798854Y-44994383D01*
X102036854Y-44994383D01*
X102036854Y-43724383D01*
X102798854Y-43724383D01*
G36*
X100258854Y-43724383D02*
G01*
X100258854Y-44994383D01*
X99496854Y-44994383D01*
X99496854Y-43724383D01*
X100258854Y-43724383D01*
G37*
X100258854Y-43724383D02*
X100258854Y-44994383D01*
X99496854Y-44994383D01*
X99496854Y-43724383D01*
X100258854Y-43724383D01*
G36*
X107878854Y-43724383D02*
G01*
X107878854Y-44994383D01*
X107116854Y-44994383D01*
X107116854Y-43724383D01*
X107878854Y-43724383D01*
G37*
X107878854Y-43724383D02*
X107878854Y-44994383D01*
X107116854Y-44994383D01*
X107116854Y-43724383D01*
X107878854Y-43724383D01*
G36*
X110418854Y-43724383D02*
G01*
X110418854Y-44994383D01*
X109656854Y-44994383D01*
X109656854Y-43724383D01*
X110418854Y-43724383D01*
G37*
X110418854Y-43724383D02*
X110418854Y-44994383D01*
X109656854Y-44994383D01*
X109656854Y-43724383D01*
X110418854Y-43724383D01*
G36*
X112958854Y-43724383D02*
G01*
X112958854Y-44994383D01*
X112196854Y-44994383D01*
X112196854Y-43724383D01*
X112958854Y-43724383D01*
G37*
X112958854Y-43724383D02*
X112958854Y-44994383D01*
X112196854Y-44994383D01*
X112196854Y-43724383D01*
X112958854Y-43724383D01*
G36*
X115498854Y-43724383D02*
G01*
X115498854Y-44994383D01*
X114736854Y-44994383D01*
X114736854Y-43724383D01*
X115498854Y-43724383D01*
G37*
X115498854Y-43724383D02*
X115498854Y-44994383D01*
X114736854Y-44994383D01*
X114736854Y-43724383D01*
X115498854Y-43724383D01*
G36*
X115498854Y-61504383D02*
G01*
X115498854Y-62774383D01*
X114736854Y-62774383D01*
X114736854Y-61504383D01*
X115498854Y-61504383D01*
G37*
X115498854Y-61504383D02*
X115498854Y-62774383D01*
X114736854Y-62774383D01*
X114736854Y-61504383D01*
X115498854Y-61504383D01*
G36*
X112958854Y-61504383D02*
G01*
X112958854Y-62774383D01*
X112196854Y-62774383D01*
X112196854Y-61504383D01*
X112958854Y-61504383D01*
G37*
X112958854Y-61504383D02*
X112958854Y-62774383D01*
X112196854Y-62774383D01*
X112196854Y-61504383D01*
X112958854Y-61504383D01*
G36*
X110418854Y-61504383D02*
G01*
X110418854Y-62774383D01*
X109656854Y-62774383D01*
X109656854Y-61504383D01*
X110418854Y-61504383D01*
G37*
X110418854Y-61504383D02*
X110418854Y-62774383D01*
X109656854Y-62774383D01*
X109656854Y-61504383D01*
X110418854Y-61504383D01*
G36*
X107878854Y-61504383D02*
G01*
X107878854Y-62774383D01*
X107116854Y-62774383D01*
X107116854Y-61504383D01*
X107878854Y-61504383D01*
G37*
X107878854Y-61504383D02*
X107878854Y-62774383D01*
X107116854Y-62774383D01*
X107116854Y-61504383D01*
X107878854Y-61504383D01*
G36*
X100258854Y-61504383D02*
G01*
X100258854Y-62774383D01*
X99496854Y-62774383D01*
X99496854Y-61504383D01*
X100258854Y-61504383D01*
G37*
X100258854Y-61504383D02*
X100258854Y-62774383D01*
X99496854Y-62774383D01*
X99496854Y-61504383D01*
X100258854Y-61504383D01*
G36*
X102798854Y-61504383D02*
G01*
X102798854Y-62774383D01*
X102036854Y-62774383D01*
X102036854Y-61504383D01*
X102798854Y-61504383D01*
G37*
X102798854Y-61504383D02*
X102798854Y-62774383D01*
X102036854Y-62774383D01*
X102036854Y-61504383D01*
X102798854Y-61504383D01*
G36*
X105338854Y-61504383D02*
G01*
X105338854Y-62774383D01*
X104576854Y-62774383D01*
X104576854Y-61504383D01*
X105338854Y-61504383D01*
G37*
X105338854Y-61504383D02*
X105338854Y-62774383D01*
X104576854Y-62774383D01*
X104576854Y-61504383D01*
X105338854Y-61504383D01*
G36*
X97718854Y-61504383D02*
G01*
X97718854Y-62774383D01*
X96956854Y-62774383D01*
X96956854Y-61504383D01*
X97718854Y-61504383D01*
G37*
X97718854Y-61504383D02*
X97718854Y-62774383D01*
X96956854Y-62774383D01*
X96956854Y-61504383D01*
X97718854Y-61504383D01*
G36*
X95178854Y-61504383D02*
G01*
X95178854Y-62774383D01*
X94416854Y-62774383D01*
X94416854Y-61504383D01*
X95178854Y-61504383D01*
G37*
X95178854Y-61504383D02*
X95178854Y-62774383D01*
X94416854Y-62774383D01*
X94416854Y-61504383D01*
X95178854Y-61504383D01*
G36*
X92638854Y-61504383D02*
G01*
X92638854Y-62774383D01*
X91876854Y-62774383D01*
X91876854Y-61504383D01*
X92638854Y-61504383D01*
G37*
X92638854Y-61504383D02*
X92638854Y-62774383D01*
X91876854Y-62774383D01*
X91876854Y-61504383D01*
X92638854Y-61504383D01*
G36*
X90098854Y-61504383D02*
G01*
X90098854Y-62774383D01*
X89336854Y-62774383D01*
X89336854Y-61504383D01*
X90098854Y-61504383D01*
G37*
X90098854Y-61504383D02*
X90098854Y-62774383D01*
X89336854Y-62774383D01*
X89336854Y-61504383D01*
X90098854Y-61504383D01*
G36*
X87558854Y-61504383D02*
G01*
X87558854Y-62774383D01*
X86796854Y-62774383D01*
X86796854Y-61504383D01*
X87558854Y-61504383D01*
G37*
X87558854Y-61504383D02*
X87558854Y-62774383D01*
X86796854Y-62774383D01*
X86796854Y-61504383D01*
X87558854Y-61504383D01*
G36*
X85018854Y-61504383D02*
G01*
X85018854Y-62774383D01*
X84256854Y-62774383D01*
X84256854Y-61504383D01*
X85018854Y-61504383D01*
G37*
X85018854Y-61504383D02*
X85018854Y-62774383D01*
X84256854Y-62774383D01*
X84256854Y-61504383D01*
X85018854Y-61504383D01*
G36*
X82478854Y-61504383D02*
G01*
X82478854Y-62774383D01*
X81716854Y-62774383D01*
X81716854Y-61504383D01*
X82478854Y-61504383D01*
G37*
X82478854Y-61504383D02*
X82478854Y-62774383D01*
X81716854Y-62774383D01*
X81716854Y-61504383D01*
X82478854Y-61504383D01*
G36*
X79938854Y-61504383D02*
G01*
X79938854Y-62774383D01*
X79176854Y-62774383D01*
X79176854Y-61504383D01*
X79938854Y-61504383D01*
G37*
X79938854Y-61504383D02*
X79938854Y-62774383D01*
X79176854Y-62774383D01*
X79176854Y-61504383D01*
X79938854Y-61504383D01*
G36*
X77398854Y-61504383D02*
G01*
X77398854Y-62774383D01*
X76636854Y-62774383D01*
X76636854Y-61504383D01*
X77398854Y-61504383D01*
G37*
X77398854Y-61504383D02*
X77398854Y-62774383D01*
X76636854Y-62774383D01*
X76636854Y-61504383D01*
X77398854Y-61504383D01*
G36*
X74858854Y-61504383D02*
G01*
X74858854Y-62774383D01*
X74096854Y-62774383D01*
X74096854Y-61504383D01*
X74858854Y-61504383D01*
G37*
X74858854Y-61504383D02*
X74858854Y-62774383D01*
X74096854Y-62774383D01*
X74096854Y-61504383D01*
X74858854Y-61504383D01*
G36*
X72318854Y-61504383D02*
G01*
X72318854Y-62774383D01*
X71556854Y-62774383D01*
X71556854Y-61504383D01*
X72318854Y-61504383D01*
G37*
X72318854Y-61504383D02*
X72318854Y-62774383D01*
X71556854Y-62774383D01*
X71556854Y-61504383D01*
X72318854Y-61504383D01*
G36*
X67238854Y-61504383D02*
G01*
X67238854Y-62774383D01*
X66476854Y-62774383D01*
X66476854Y-61504383D01*
X67238854Y-61504383D01*
G37*
X67238854Y-61504383D02*
X67238854Y-62774383D01*
X66476854Y-62774383D01*
X66476854Y-61504383D01*
X67238854Y-61504383D01*
G36*
X69778854Y-61504383D02*
G01*
X69778854Y-62774383D01*
X69016854Y-62774383D01*
X69016854Y-61504383D01*
X69778854Y-61504383D01*
G37*
X69778854Y-61504383D02*
X69778854Y-62774383D01*
X69016854Y-62774383D01*
X69016854Y-61504383D01*
X69778854Y-61504383D01*
D11*
X47857854Y-108409383D03*
D12*
X47857854Y-105869383D03*
D11*
X114897854Y-68369383D03*
D12*
X112357854Y-68369383D03*
D13*
X36182854Y-72269383D03*
X32132854Y-72319383D03*
D14*
X34157854Y-70419383D03*
D15*
X34157854Y-74119383D03*
D13*
X139782854Y-42169383D03*
X143832854Y-42119383D03*
D14*
X141807854Y-44019383D03*
D15*
X141807854Y-40319383D03*
D16*
X97357854Y-80369383D03*
D17*
X94817854Y-80369383D03*
X96087854Y-80369383D03*
D18*
X62357854Y-39869383D03*
D19*
X62357854Y-37329383D03*
X62357854Y-38599383D03*
D20*
X41357854Y-38269383D03*
D21*
X41357854Y-36369383D03*
D22*
X47857854Y-36869383D03*
X47857854Y-67869383D03*
X122857854Y-67869383D03*
X122857854Y-36869383D03*
D11*
X79757854Y-36369383D03*
X82297854Y-36369383D03*
X84837854Y-36369383D03*
X87377854Y-36369383D03*
X89917854Y-36369383D03*
X92457854Y-36369383D03*
X94997854Y-36369383D03*
X97537854Y-36369383D03*
X100077854Y-36369383D03*
X102617854Y-36369383D03*
X105157854Y-36369383D03*
X107697854Y-36369383D03*
X110237854Y-36369383D03*
X112777854Y-36369383D03*
X115317854Y-36369383D03*
D12*
X117857854Y-36369383D03*
D22*
X48857854Y-85869383D03*
X48857854Y-116869383D03*
X123857854Y-116869383D03*
X123857854Y-85869383D03*
D11*
X80757854Y-85369383D03*
X83297854Y-85369383D03*
X85837854Y-85369383D03*
X88377854Y-85369383D03*
X90917854Y-85369383D03*
X93457854Y-85369383D03*
X95997854Y-85369383D03*
X98537854Y-85369383D03*
X101077854Y-85369383D03*
X103617854Y-85369383D03*
X106157854Y-85369383D03*
X108697854Y-85369383D03*
X111237854Y-85369383D03*
X113777854Y-85369383D03*
X116317854Y-85369383D03*
D12*
X118857854Y-85369383D03*
D23*
X112320854Y-100433383D03*
X114820854Y-90133383D03*
X117400854Y-100433383D03*
X123623854Y-55475383D03*
X133923854Y-57975383D03*
X123623854Y-60555383D03*
D24*
X91017854Y-81369383D03*
D25*
X80857854Y-81369383D03*
D24*
X101197854Y-80869383D03*
D25*
X111357854Y-80869383D03*
D24*
X114197854Y-80869383D03*
D25*
X124357854Y-80869383D03*
D24*
X69697854Y-39869383D03*
D25*
X79857854Y-39869383D03*
D24*
X66197854Y-35869383D03*
D25*
X76357854Y-35869383D03*
G04 #@! TA.AperFunction,SMDPad,CuDef*
D10*
G36*
X196808199Y-36901718D02*
G01*
X196845183Y-36907204D01*
X196881452Y-36916289D01*
X196916656Y-36928885D01*
X196950456Y-36944871D01*
X196982526Y-36964093D01*
X197012558Y-36986366D01*
X197040262Y-37011475D01*
X197065371Y-37039179D01*
X197087644Y-37069211D01*
X197106866Y-37101281D01*
X197122852Y-37135081D01*
X197135448Y-37170285D01*
X197144533Y-37206554D01*
X197150019Y-37243538D01*
X197151854Y-37280883D01*
X197151854Y-39058883D01*
X197150019Y-39096228D01*
X197144533Y-39133212D01*
X197135448Y-39169481D01*
X197122852Y-39204685D01*
X197106866Y-39238485D01*
X197087644Y-39270555D01*
X197065371Y-39300587D01*
X197040262Y-39328291D01*
X197012558Y-39353400D01*
X196982526Y-39375673D01*
X196950456Y-39394895D01*
X196916656Y-39410881D01*
X196881452Y-39423477D01*
X196845183Y-39432562D01*
X196808199Y-39438048D01*
X196770854Y-39439883D01*
X196008854Y-39439883D01*
X195971509Y-39438048D01*
X195934525Y-39432562D01*
X195898256Y-39423477D01*
X195863052Y-39410881D01*
X195829252Y-39394895D01*
X195797182Y-39375673D01*
X195767150Y-39353400D01*
X195739446Y-39328291D01*
X195714337Y-39300587D01*
X195692064Y-39270555D01*
X195672842Y-39238485D01*
X195656856Y-39204685D01*
X195644260Y-39169481D01*
X195635175Y-39133212D01*
X195629689Y-39096228D01*
X195627854Y-39058883D01*
X195627854Y-37280883D01*
X195629689Y-37243538D01*
X195635175Y-37206554D01*
X195644260Y-37170285D01*
X195656856Y-37135081D01*
X195672842Y-37101281D01*
X195692064Y-37069211D01*
X195714337Y-37039179D01*
X195739446Y-37011475D01*
X195767150Y-36986366D01*
X195797182Y-36964093D01*
X195829252Y-36944871D01*
X195863052Y-36928885D01*
X195898256Y-36916289D01*
X195934525Y-36907204D01*
X195971509Y-36901718D01*
X196008854Y-36899883D01*
X196770854Y-36899883D01*
X196808199Y-36901718D01*
G37*
G04 #@! TD.AperFunction*
G04 #@! TA.AperFunction,SMDPad,CuDef*
G36*
X199348199Y-36901718D02*
G01*
X199385183Y-36907204D01*
X199421452Y-36916289D01*
X199456656Y-36928885D01*
X199490456Y-36944871D01*
X199522526Y-36964093D01*
X199552558Y-36986366D01*
X199580262Y-37011475D01*
X199605371Y-37039179D01*
X199627644Y-37069211D01*
X199646866Y-37101281D01*
X199662852Y-37135081D01*
X199675448Y-37170285D01*
X199684533Y-37206554D01*
X199690019Y-37243538D01*
X199691854Y-37280883D01*
X199691854Y-39058883D01*
X199690019Y-39096228D01*
X199684533Y-39133212D01*
X199675448Y-39169481D01*
X199662852Y-39204685D01*
X199646866Y-39238485D01*
X199627644Y-39270555D01*
X199605371Y-39300587D01*
X199580262Y-39328291D01*
X199552558Y-39353400D01*
X199522526Y-39375673D01*
X199490456Y-39394895D01*
X199456656Y-39410881D01*
X199421452Y-39423477D01*
X199385183Y-39432562D01*
X199348199Y-39438048D01*
X199310854Y-39439883D01*
X198548854Y-39439883D01*
X198511509Y-39438048D01*
X198474525Y-39432562D01*
X198438256Y-39423477D01*
X198403052Y-39410881D01*
X198369252Y-39394895D01*
X198337182Y-39375673D01*
X198307150Y-39353400D01*
X198279446Y-39328291D01*
X198254337Y-39300587D01*
X198232064Y-39270555D01*
X198212842Y-39238485D01*
X198196856Y-39204685D01*
X198184260Y-39169481D01*
X198175175Y-39133212D01*
X198169689Y-39096228D01*
X198167854Y-39058883D01*
X198167854Y-37280883D01*
X198169689Y-37243538D01*
X198175175Y-37206554D01*
X198184260Y-37170285D01*
X198196856Y-37135081D01*
X198212842Y-37101281D01*
X198232064Y-37069211D01*
X198254337Y-37039179D01*
X198279446Y-37011475D01*
X198307150Y-36986366D01*
X198337182Y-36964093D01*
X198369252Y-36944871D01*
X198403052Y-36928885D01*
X198438256Y-36916289D01*
X198474525Y-36907204D01*
X198511509Y-36901718D01*
X198548854Y-36899883D01*
X199310854Y-36899883D01*
X199348199Y-36901718D01*
G37*
G04 #@! TD.AperFunction*
G04 #@! TA.AperFunction,SMDPad,CuDef*
G36*
X201888199Y-36901718D02*
G01*
X201925183Y-36907204D01*
X201961452Y-36916289D01*
X201996656Y-36928885D01*
X202030456Y-36944871D01*
X202062526Y-36964093D01*
X202092558Y-36986366D01*
X202120262Y-37011475D01*
X202145371Y-37039179D01*
X202167644Y-37069211D01*
X202186866Y-37101281D01*
X202202852Y-37135081D01*
X202215448Y-37170285D01*
X202224533Y-37206554D01*
X202230019Y-37243538D01*
X202231854Y-37280883D01*
X202231854Y-39058883D01*
X202230019Y-39096228D01*
X202224533Y-39133212D01*
X202215448Y-39169481D01*
X202202852Y-39204685D01*
X202186866Y-39238485D01*
X202167644Y-39270555D01*
X202145371Y-39300587D01*
X202120262Y-39328291D01*
X202092558Y-39353400D01*
X202062526Y-39375673D01*
X202030456Y-39394895D01*
X201996656Y-39410881D01*
X201961452Y-39423477D01*
X201925183Y-39432562D01*
X201888199Y-39438048D01*
X201850854Y-39439883D01*
X201088854Y-39439883D01*
X201051509Y-39438048D01*
X201014525Y-39432562D01*
X200978256Y-39423477D01*
X200943052Y-39410881D01*
X200909252Y-39394895D01*
X200877182Y-39375673D01*
X200847150Y-39353400D01*
X200819446Y-39328291D01*
X200794337Y-39300587D01*
X200772064Y-39270555D01*
X200752842Y-39238485D01*
X200736856Y-39204685D01*
X200724260Y-39169481D01*
X200715175Y-39133212D01*
X200709689Y-39096228D01*
X200707854Y-39058883D01*
X200707854Y-37280883D01*
X200709689Y-37243538D01*
X200715175Y-37206554D01*
X200724260Y-37170285D01*
X200736856Y-37135081D01*
X200752842Y-37101281D01*
X200772064Y-37069211D01*
X200794337Y-37039179D01*
X200819446Y-37011475D01*
X200847150Y-36986366D01*
X200877182Y-36964093D01*
X200909252Y-36944871D01*
X200943052Y-36928885D01*
X200978256Y-36916289D01*
X201014525Y-36907204D01*
X201051509Y-36901718D01*
X201088854Y-36899883D01*
X201850854Y-36899883D01*
X201888199Y-36901718D01*
G37*
G04 #@! TD.AperFunction*
G04 #@! TA.AperFunction,SMDPad,CuDef*
G36*
X204428199Y-36901718D02*
G01*
X204465183Y-36907204D01*
X204501452Y-36916289D01*
X204536656Y-36928885D01*
X204570456Y-36944871D01*
X204602526Y-36964093D01*
X204632558Y-36986366D01*
X204660262Y-37011475D01*
X204685371Y-37039179D01*
X204707644Y-37069211D01*
X204726866Y-37101281D01*
X204742852Y-37135081D01*
X204755448Y-37170285D01*
X204764533Y-37206554D01*
X204770019Y-37243538D01*
X204771854Y-37280883D01*
X204771854Y-39058883D01*
X204770019Y-39096228D01*
X204764533Y-39133212D01*
X204755448Y-39169481D01*
X204742852Y-39204685D01*
X204726866Y-39238485D01*
X204707644Y-39270555D01*
X204685371Y-39300587D01*
X204660262Y-39328291D01*
X204632558Y-39353400D01*
X204602526Y-39375673D01*
X204570456Y-39394895D01*
X204536656Y-39410881D01*
X204501452Y-39423477D01*
X204465183Y-39432562D01*
X204428199Y-39438048D01*
X204390854Y-39439883D01*
X203628854Y-39439883D01*
X203591509Y-39438048D01*
X203554525Y-39432562D01*
X203518256Y-39423477D01*
X203483052Y-39410881D01*
X203449252Y-39394895D01*
X203417182Y-39375673D01*
X203387150Y-39353400D01*
X203359446Y-39328291D01*
X203334337Y-39300587D01*
X203312064Y-39270555D01*
X203292842Y-39238485D01*
X203276856Y-39204685D01*
X203264260Y-39169481D01*
X203255175Y-39133212D01*
X203249689Y-39096228D01*
X203247854Y-39058883D01*
X203247854Y-37280883D01*
X203249689Y-37243538D01*
X203255175Y-37206554D01*
X203264260Y-37170285D01*
X203276856Y-37135081D01*
X203292842Y-37101281D01*
X203312064Y-37069211D01*
X203334337Y-37039179D01*
X203359446Y-37011475D01*
X203387150Y-36986366D01*
X203417182Y-36964093D01*
X203449252Y-36944871D01*
X203483052Y-36928885D01*
X203518256Y-36916289D01*
X203554525Y-36907204D01*
X203591509Y-36901718D01*
X203628854Y-36899883D01*
X204390854Y-36899883D01*
X204428199Y-36901718D01*
G37*
G04 #@! TD.AperFunction*
G04 #@! TA.AperFunction,SMDPad,CuDef*
G36*
X204428199Y-52235718D02*
G01*
X204465183Y-52241204D01*
X204501452Y-52250289D01*
X204536656Y-52262885D01*
X204570456Y-52278871D01*
X204602526Y-52298093D01*
X204632558Y-52320366D01*
X204660262Y-52345475D01*
X204685371Y-52373179D01*
X204707644Y-52403211D01*
X204726866Y-52435281D01*
X204742852Y-52469081D01*
X204755448Y-52504285D01*
X204764533Y-52540554D01*
X204770019Y-52577538D01*
X204771854Y-52614883D01*
X204771854Y-54392883D01*
X204770019Y-54430228D01*
X204764533Y-54467212D01*
X204755448Y-54503481D01*
X204742852Y-54538685D01*
X204726866Y-54572485D01*
X204707644Y-54604555D01*
X204685371Y-54634587D01*
X204660262Y-54662291D01*
X204632558Y-54687400D01*
X204602526Y-54709673D01*
X204570456Y-54728895D01*
X204536656Y-54744881D01*
X204501452Y-54757477D01*
X204465183Y-54766562D01*
X204428199Y-54772048D01*
X204390854Y-54773883D01*
X203628854Y-54773883D01*
X203591509Y-54772048D01*
X203554525Y-54766562D01*
X203518256Y-54757477D01*
X203483052Y-54744881D01*
X203449252Y-54728895D01*
X203417182Y-54709673D01*
X203387150Y-54687400D01*
X203359446Y-54662291D01*
X203334337Y-54634587D01*
X203312064Y-54604555D01*
X203292842Y-54572485D01*
X203276856Y-54538685D01*
X203264260Y-54503481D01*
X203255175Y-54467212D01*
X203249689Y-54430228D01*
X203247854Y-54392883D01*
X203247854Y-52614883D01*
X203249689Y-52577538D01*
X203255175Y-52540554D01*
X203264260Y-52504285D01*
X203276856Y-52469081D01*
X203292842Y-52435281D01*
X203312064Y-52403211D01*
X203334337Y-52373179D01*
X203359446Y-52345475D01*
X203387150Y-52320366D01*
X203417182Y-52298093D01*
X203449252Y-52278871D01*
X203483052Y-52262885D01*
X203518256Y-52250289D01*
X203554525Y-52241204D01*
X203591509Y-52235718D01*
X203628854Y-52233883D01*
X204390854Y-52233883D01*
X204428199Y-52235718D01*
G37*
G04 #@! TD.AperFunction*
G04 #@! TA.AperFunction,SMDPad,CuDef*
G36*
X201888199Y-52235718D02*
G01*
X201925183Y-52241204D01*
X201961452Y-52250289D01*
X201996656Y-52262885D01*
X202030456Y-52278871D01*
X202062526Y-52298093D01*
X202092558Y-52320366D01*
X202120262Y-52345475D01*
X202145371Y-52373179D01*
X202167644Y-52403211D01*
X202186866Y-52435281D01*
X202202852Y-52469081D01*
X202215448Y-52504285D01*
X202224533Y-52540554D01*
X202230019Y-52577538D01*
X202231854Y-52614883D01*
X202231854Y-54392883D01*
X202230019Y-54430228D01*
X202224533Y-54467212D01*
X202215448Y-54503481D01*
X202202852Y-54538685D01*
X202186866Y-54572485D01*
X202167644Y-54604555D01*
X202145371Y-54634587D01*
X202120262Y-54662291D01*
X202092558Y-54687400D01*
X202062526Y-54709673D01*
X202030456Y-54728895D01*
X201996656Y-54744881D01*
X201961452Y-54757477D01*
X201925183Y-54766562D01*
X201888199Y-54772048D01*
X201850854Y-54773883D01*
X201088854Y-54773883D01*
X201051509Y-54772048D01*
X201014525Y-54766562D01*
X200978256Y-54757477D01*
X200943052Y-54744881D01*
X200909252Y-54728895D01*
X200877182Y-54709673D01*
X200847150Y-54687400D01*
X200819446Y-54662291D01*
X200794337Y-54634587D01*
X200772064Y-54604555D01*
X200752842Y-54572485D01*
X200736856Y-54538685D01*
X200724260Y-54503481D01*
X200715175Y-54467212D01*
X200709689Y-54430228D01*
X200707854Y-54392883D01*
X200707854Y-52614883D01*
X200709689Y-52577538D01*
X200715175Y-52540554D01*
X200724260Y-52504285D01*
X200736856Y-52469081D01*
X200752842Y-52435281D01*
X200772064Y-52403211D01*
X200794337Y-52373179D01*
X200819446Y-52345475D01*
X200847150Y-52320366D01*
X200877182Y-52298093D01*
X200909252Y-52278871D01*
X200943052Y-52262885D01*
X200978256Y-52250289D01*
X201014525Y-52241204D01*
X201051509Y-52235718D01*
X201088854Y-52233883D01*
X201850854Y-52233883D01*
X201888199Y-52235718D01*
G37*
G04 #@! TD.AperFunction*
G04 #@! TA.AperFunction,SMDPad,CuDef*
G36*
X199348199Y-52235718D02*
G01*
X199385183Y-52241204D01*
X199421452Y-52250289D01*
X199456656Y-52262885D01*
X199490456Y-52278871D01*
X199522526Y-52298093D01*
X199552558Y-52320366D01*
X199580262Y-52345475D01*
X199605371Y-52373179D01*
X199627644Y-52403211D01*
X199646866Y-52435281D01*
X199662852Y-52469081D01*
X199675448Y-52504285D01*
X199684533Y-52540554D01*
X199690019Y-52577538D01*
X199691854Y-52614883D01*
X199691854Y-54392883D01*
X199690019Y-54430228D01*
X199684533Y-54467212D01*
X199675448Y-54503481D01*
X199662852Y-54538685D01*
X199646866Y-54572485D01*
X199627644Y-54604555D01*
X199605371Y-54634587D01*
X199580262Y-54662291D01*
X199552558Y-54687400D01*
X199522526Y-54709673D01*
X199490456Y-54728895D01*
X199456656Y-54744881D01*
X199421452Y-54757477D01*
X199385183Y-54766562D01*
X199348199Y-54772048D01*
X199310854Y-54773883D01*
X198548854Y-54773883D01*
X198511509Y-54772048D01*
X198474525Y-54766562D01*
X198438256Y-54757477D01*
X198403052Y-54744881D01*
X198369252Y-54728895D01*
X198337182Y-54709673D01*
X198307150Y-54687400D01*
X198279446Y-54662291D01*
X198254337Y-54634587D01*
X198232064Y-54604555D01*
X198212842Y-54572485D01*
X198196856Y-54538685D01*
X198184260Y-54503481D01*
X198175175Y-54467212D01*
X198169689Y-54430228D01*
X198167854Y-54392883D01*
X198167854Y-52614883D01*
X198169689Y-52577538D01*
X198175175Y-52540554D01*
X198184260Y-52504285D01*
X198196856Y-52469081D01*
X198212842Y-52435281D01*
X198232064Y-52403211D01*
X198254337Y-52373179D01*
X198279446Y-52345475D01*
X198307150Y-52320366D01*
X198337182Y-52298093D01*
X198369252Y-52278871D01*
X198403052Y-52262885D01*
X198438256Y-52250289D01*
X198474525Y-52241204D01*
X198511509Y-52235718D01*
X198548854Y-52233883D01*
X199310854Y-52233883D01*
X199348199Y-52235718D01*
G37*
G04 #@! TD.AperFunction*
G04 #@! TA.AperFunction,SMDPad,CuDef*
G36*
X196808199Y-52235718D02*
G01*
X196845183Y-52241204D01*
X196881452Y-52250289D01*
X196916656Y-52262885D01*
X196950456Y-52278871D01*
X196982526Y-52298093D01*
X197012558Y-52320366D01*
X197040262Y-52345475D01*
X197065371Y-52373179D01*
X197087644Y-52403211D01*
X197106866Y-52435281D01*
X197122852Y-52469081D01*
X197135448Y-52504285D01*
X197144533Y-52540554D01*
X197150019Y-52577538D01*
X197151854Y-52614883D01*
X197151854Y-54392883D01*
X197150019Y-54430228D01*
X197144533Y-54467212D01*
X197135448Y-54503481D01*
X197122852Y-54538685D01*
X197106866Y-54572485D01*
X197087644Y-54604555D01*
X197065371Y-54634587D01*
X197040262Y-54662291D01*
X197012558Y-54687400D01*
X196982526Y-54709673D01*
X196950456Y-54728895D01*
X196916656Y-54744881D01*
X196881452Y-54757477D01*
X196845183Y-54766562D01*
X196808199Y-54772048D01*
X196770854Y-54773883D01*
X196008854Y-54773883D01*
X195971509Y-54772048D01*
X195934525Y-54766562D01*
X195898256Y-54757477D01*
X195863052Y-54744881D01*
X195829252Y-54728895D01*
X195797182Y-54709673D01*
X195767150Y-54687400D01*
X195739446Y-54662291D01*
X195714337Y-54634587D01*
X195692064Y-54604555D01*
X195672842Y-54572485D01*
X195656856Y-54538685D01*
X195644260Y-54503481D01*
X195635175Y-54467212D01*
X195629689Y-54430228D01*
X195627854Y-54392883D01*
X195627854Y-52614883D01*
X195629689Y-52577538D01*
X195635175Y-52540554D01*
X195644260Y-52504285D01*
X195656856Y-52469081D01*
X195672842Y-52435281D01*
X195692064Y-52403211D01*
X195714337Y-52373179D01*
X195739446Y-52345475D01*
X195767150Y-52320366D01*
X195797182Y-52298093D01*
X195829252Y-52278871D01*
X195863052Y-52262885D01*
X195898256Y-52250289D01*
X195934525Y-52241204D01*
X195971509Y-52235718D01*
X196008854Y-52233883D01*
X196770854Y-52233883D01*
X196808199Y-52235718D01*
G37*
G04 #@! TD.AperFunction*
G04 #@! TA.AperFunction,SMDPad,CuDef*
G36*
X196808199Y-111901718D02*
G01*
X196845183Y-111907204D01*
X196881452Y-111916289D01*
X196916656Y-111928885D01*
X196950456Y-111944871D01*
X196982526Y-111964093D01*
X197012558Y-111986366D01*
X197040262Y-112011475D01*
X197065371Y-112039179D01*
X197087644Y-112069211D01*
X197106866Y-112101281D01*
X197122852Y-112135081D01*
X197135448Y-112170285D01*
X197144533Y-112206554D01*
X197150019Y-112243538D01*
X197151854Y-112280883D01*
X197151854Y-114058883D01*
X197150019Y-114096228D01*
X197144533Y-114133212D01*
X197135448Y-114169481D01*
X197122852Y-114204685D01*
X197106866Y-114238485D01*
X197087644Y-114270555D01*
X197065371Y-114300587D01*
X197040262Y-114328291D01*
X197012558Y-114353400D01*
X196982526Y-114375673D01*
X196950456Y-114394895D01*
X196916656Y-114410881D01*
X196881452Y-114423477D01*
X196845183Y-114432562D01*
X196808199Y-114438048D01*
X196770854Y-114439883D01*
X196008854Y-114439883D01*
X195971509Y-114438048D01*
X195934525Y-114432562D01*
X195898256Y-114423477D01*
X195863052Y-114410881D01*
X195829252Y-114394895D01*
X195797182Y-114375673D01*
X195767150Y-114353400D01*
X195739446Y-114328291D01*
X195714337Y-114300587D01*
X195692064Y-114270555D01*
X195672842Y-114238485D01*
X195656856Y-114204685D01*
X195644260Y-114169481D01*
X195635175Y-114133212D01*
X195629689Y-114096228D01*
X195627854Y-114058883D01*
X195627854Y-112280883D01*
X195629689Y-112243538D01*
X195635175Y-112206554D01*
X195644260Y-112170285D01*
X195656856Y-112135081D01*
X195672842Y-112101281D01*
X195692064Y-112069211D01*
X195714337Y-112039179D01*
X195739446Y-112011475D01*
X195767150Y-111986366D01*
X195797182Y-111964093D01*
X195829252Y-111944871D01*
X195863052Y-111928885D01*
X195898256Y-111916289D01*
X195934525Y-111907204D01*
X195971509Y-111901718D01*
X196008854Y-111899883D01*
X196770854Y-111899883D01*
X196808199Y-111901718D01*
G37*
G04 #@! TD.AperFunction*
G04 #@! TA.AperFunction,SMDPad,CuDef*
G36*
X199348199Y-111901718D02*
G01*
X199385183Y-111907204D01*
X199421452Y-111916289D01*
X199456656Y-111928885D01*
X199490456Y-111944871D01*
X199522526Y-111964093D01*
X199552558Y-111986366D01*
X199580262Y-112011475D01*
X199605371Y-112039179D01*
X199627644Y-112069211D01*
X199646866Y-112101281D01*
X199662852Y-112135081D01*
X199675448Y-112170285D01*
X199684533Y-112206554D01*
X199690019Y-112243538D01*
X199691854Y-112280883D01*
X199691854Y-114058883D01*
X199690019Y-114096228D01*
X199684533Y-114133212D01*
X199675448Y-114169481D01*
X199662852Y-114204685D01*
X199646866Y-114238485D01*
X199627644Y-114270555D01*
X199605371Y-114300587D01*
X199580262Y-114328291D01*
X199552558Y-114353400D01*
X199522526Y-114375673D01*
X199490456Y-114394895D01*
X199456656Y-114410881D01*
X199421452Y-114423477D01*
X199385183Y-114432562D01*
X199348199Y-114438048D01*
X199310854Y-114439883D01*
X198548854Y-114439883D01*
X198511509Y-114438048D01*
X198474525Y-114432562D01*
X198438256Y-114423477D01*
X198403052Y-114410881D01*
X198369252Y-114394895D01*
X198337182Y-114375673D01*
X198307150Y-114353400D01*
X198279446Y-114328291D01*
X198254337Y-114300587D01*
X198232064Y-114270555D01*
X198212842Y-114238485D01*
X198196856Y-114204685D01*
X198184260Y-114169481D01*
X198175175Y-114133212D01*
X198169689Y-114096228D01*
X198167854Y-114058883D01*
X198167854Y-112280883D01*
X198169689Y-112243538D01*
X198175175Y-112206554D01*
X198184260Y-112170285D01*
X198196856Y-112135081D01*
X198212842Y-112101281D01*
X198232064Y-112069211D01*
X198254337Y-112039179D01*
X198279446Y-112011475D01*
X198307150Y-111986366D01*
X198337182Y-111964093D01*
X198369252Y-111944871D01*
X198403052Y-111928885D01*
X198438256Y-111916289D01*
X198474525Y-111907204D01*
X198511509Y-111901718D01*
X198548854Y-111899883D01*
X199310854Y-111899883D01*
X199348199Y-111901718D01*
G37*
G04 #@! TD.AperFunction*
G04 #@! TA.AperFunction,SMDPad,CuDef*
G36*
X201888199Y-111901718D02*
G01*
X201925183Y-111907204D01*
X201961452Y-111916289D01*
X201996656Y-111928885D01*
X202030456Y-111944871D01*
X202062526Y-111964093D01*
X202092558Y-111986366D01*
X202120262Y-112011475D01*
X202145371Y-112039179D01*
X202167644Y-112069211D01*
X202186866Y-112101281D01*
X202202852Y-112135081D01*
X202215448Y-112170285D01*
X202224533Y-112206554D01*
X202230019Y-112243538D01*
X202231854Y-112280883D01*
X202231854Y-114058883D01*
X202230019Y-114096228D01*
X202224533Y-114133212D01*
X202215448Y-114169481D01*
X202202852Y-114204685D01*
X202186866Y-114238485D01*
X202167644Y-114270555D01*
X202145371Y-114300587D01*
X202120262Y-114328291D01*
X202092558Y-114353400D01*
X202062526Y-114375673D01*
X202030456Y-114394895D01*
X201996656Y-114410881D01*
X201961452Y-114423477D01*
X201925183Y-114432562D01*
X201888199Y-114438048D01*
X201850854Y-114439883D01*
X201088854Y-114439883D01*
X201051509Y-114438048D01*
X201014525Y-114432562D01*
X200978256Y-114423477D01*
X200943052Y-114410881D01*
X200909252Y-114394895D01*
X200877182Y-114375673D01*
X200847150Y-114353400D01*
X200819446Y-114328291D01*
X200794337Y-114300587D01*
X200772064Y-114270555D01*
X200752842Y-114238485D01*
X200736856Y-114204685D01*
X200724260Y-114169481D01*
X200715175Y-114133212D01*
X200709689Y-114096228D01*
X200707854Y-114058883D01*
X200707854Y-112280883D01*
X200709689Y-112243538D01*
X200715175Y-112206554D01*
X200724260Y-112170285D01*
X200736856Y-112135081D01*
X200752842Y-112101281D01*
X200772064Y-112069211D01*
X200794337Y-112039179D01*
X200819446Y-112011475D01*
X200847150Y-111986366D01*
X200877182Y-111964093D01*
X200909252Y-111944871D01*
X200943052Y-111928885D01*
X200978256Y-111916289D01*
X201014525Y-111907204D01*
X201051509Y-111901718D01*
X201088854Y-111899883D01*
X201850854Y-111899883D01*
X201888199Y-111901718D01*
G37*
G04 #@! TD.AperFunction*
G04 #@! TA.AperFunction,SMDPad,CuDef*
G36*
X204428199Y-111901718D02*
G01*
X204465183Y-111907204D01*
X204501452Y-111916289D01*
X204536656Y-111928885D01*
X204570456Y-111944871D01*
X204602526Y-111964093D01*
X204632558Y-111986366D01*
X204660262Y-112011475D01*
X204685371Y-112039179D01*
X204707644Y-112069211D01*
X204726866Y-112101281D01*
X204742852Y-112135081D01*
X204755448Y-112170285D01*
X204764533Y-112206554D01*
X204770019Y-112243538D01*
X204771854Y-112280883D01*
X204771854Y-114058883D01*
X204770019Y-114096228D01*
X204764533Y-114133212D01*
X204755448Y-114169481D01*
X204742852Y-114204685D01*
X204726866Y-114238485D01*
X204707644Y-114270555D01*
X204685371Y-114300587D01*
X204660262Y-114328291D01*
X204632558Y-114353400D01*
X204602526Y-114375673D01*
X204570456Y-114394895D01*
X204536656Y-114410881D01*
X204501452Y-114423477D01*
X204465183Y-114432562D01*
X204428199Y-114438048D01*
X204390854Y-114439883D01*
X203628854Y-114439883D01*
X203591509Y-114438048D01*
X203554525Y-114432562D01*
X203518256Y-114423477D01*
X203483052Y-114410881D01*
X203449252Y-114394895D01*
X203417182Y-114375673D01*
X203387150Y-114353400D01*
X203359446Y-114328291D01*
X203334337Y-114300587D01*
X203312064Y-114270555D01*
X203292842Y-114238485D01*
X203276856Y-114204685D01*
X203264260Y-114169481D01*
X203255175Y-114133212D01*
X203249689Y-114096228D01*
X203247854Y-114058883D01*
X203247854Y-112280883D01*
X203249689Y-112243538D01*
X203255175Y-112206554D01*
X203264260Y-112170285D01*
X203276856Y-112135081D01*
X203292842Y-112101281D01*
X203312064Y-112069211D01*
X203334337Y-112039179D01*
X203359446Y-112011475D01*
X203387150Y-111986366D01*
X203417182Y-111964093D01*
X203449252Y-111944871D01*
X203483052Y-111928885D01*
X203518256Y-111916289D01*
X203554525Y-111907204D01*
X203591509Y-111901718D01*
X203628854Y-111899883D01*
X204390854Y-111899883D01*
X204428199Y-111901718D01*
G37*
G04 #@! TD.AperFunction*
G04 #@! TA.AperFunction,SMDPad,CuDef*
G36*
X204428199Y-127235718D02*
G01*
X204465183Y-127241204D01*
X204501452Y-127250289D01*
X204536656Y-127262885D01*
X204570456Y-127278871D01*
X204602526Y-127298093D01*
X204632558Y-127320366D01*
X204660262Y-127345475D01*
X204685371Y-127373179D01*
X204707644Y-127403211D01*
X204726866Y-127435281D01*
X204742852Y-127469081D01*
X204755448Y-127504285D01*
X204764533Y-127540554D01*
X204770019Y-127577538D01*
X204771854Y-127614883D01*
X204771854Y-129392883D01*
X204770019Y-129430228D01*
X204764533Y-129467212D01*
X204755448Y-129503481D01*
X204742852Y-129538685D01*
X204726866Y-129572485D01*
X204707644Y-129604555D01*
X204685371Y-129634587D01*
X204660262Y-129662291D01*
X204632558Y-129687400D01*
X204602526Y-129709673D01*
X204570456Y-129728895D01*
X204536656Y-129744881D01*
X204501452Y-129757477D01*
X204465183Y-129766562D01*
X204428199Y-129772048D01*
X204390854Y-129773883D01*
X203628854Y-129773883D01*
X203591509Y-129772048D01*
X203554525Y-129766562D01*
X203518256Y-129757477D01*
X203483052Y-129744881D01*
X203449252Y-129728895D01*
X203417182Y-129709673D01*
X203387150Y-129687400D01*
X203359446Y-129662291D01*
X203334337Y-129634587D01*
X203312064Y-129604555D01*
X203292842Y-129572485D01*
X203276856Y-129538685D01*
X203264260Y-129503481D01*
X203255175Y-129467212D01*
X203249689Y-129430228D01*
X203247854Y-129392883D01*
X203247854Y-127614883D01*
X203249689Y-127577538D01*
X203255175Y-127540554D01*
X203264260Y-127504285D01*
X203276856Y-127469081D01*
X203292842Y-127435281D01*
X203312064Y-127403211D01*
X203334337Y-127373179D01*
X203359446Y-127345475D01*
X203387150Y-127320366D01*
X203417182Y-127298093D01*
X203449252Y-127278871D01*
X203483052Y-127262885D01*
X203518256Y-127250289D01*
X203554525Y-127241204D01*
X203591509Y-127235718D01*
X203628854Y-127233883D01*
X204390854Y-127233883D01*
X204428199Y-127235718D01*
G37*
G04 #@! TD.AperFunction*
G04 #@! TA.AperFunction,SMDPad,CuDef*
G36*
X201888199Y-127235718D02*
G01*
X201925183Y-127241204D01*
X201961452Y-127250289D01*
X201996656Y-127262885D01*
X202030456Y-127278871D01*
X202062526Y-127298093D01*
X202092558Y-127320366D01*
X202120262Y-127345475D01*
X202145371Y-127373179D01*
X202167644Y-127403211D01*
X202186866Y-127435281D01*
X202202852Y-127469081D01*
X202215448Y-127504285D01*
X202224533Y-127540554D01*
X202230019Y-127577538D01*
X202231854Y-127614883D01*
X202231854Y-129392883D01*
X202230019Y-129430228D01*
X202224533Y-129467212D01*
X202215448Y-129503481D01*
X202202852Y-129538685D01*
X202186866Y-129572485D01*
X202167644Y-129604555D01*
X202145371Y-129634587D01*
X202120262Y-129662291D01*
X202092558Y-129687400D01*
X202062526Y-129709673D01*
X202030456Y-129728895D01*
X201996656Y-129744881D01*
X201961452Y-129757477D01*
X201925183Y-129766562D01*
X201888199Y-129772048D01*
X201850854Y-129773883D01*
X201088854Y-129773883D01*
X201051509Y-129772048D01*
X201014525Y-129766562D01*
X200978256Y-129757477D01*
X200943052Y-129744881D01*
X200909252Y-129728895D01*
X200877182Y-129709673D01*
X200847150Y-129687400D01*
X200819446Y-129662291D01*
X200794337Y-129634587D01*
X200772064Y-129604555D01*
X200752842Y-129572485D01*
X200736856Y-129538685D01*
X200724260Y-129503481D01*
X200715175Y-129467212D01*
X200709689Y-129430228D01*
X200707854Y-129392883D01*
X200707854Y-127614883D01*
X200709689Y-127577538D01*
X200715175Y-127540554D01*
X200724260Y-127504285D01*
X200736856Y-127469081D01*
X200752842Y-127435281D01*
X200772064Y-127403211D01*
X200794337Y-127373179D01*
X200819446Y-127345475D01*
X200847150Y-127320366D01*
X200877182Y-127298093D01*
X200909252Y-127278871D01*
X200943052Y-127262885D01*
X200978256Y-127250289D01*
X201014525Y-127241204D01*
X201051509Y-127235718D01*
X201088854Y-127233883D01*
X201850854Y-127233883D01*
X201888199Y-127235718D01*
G37*
G04 #@! TD.AperFunction*
G04 #@! TA.AperFunction,SMDPad,CuDef*
G36*
X199348199Y-127235718D02*
G01*
X199385183Y-127241204D01*
X199421452Y-127250289D01*
X199456656Y-127262885D01*
X199490456Y-127278871D01*
X199522526Y-127298093D01*
X199552558Y-127320366D01*
X199580262Y-127345475D01*
X199605371Y-127373179D01*
X199627644Y-127403211D01*
X199646866Y-127435281D01*
X199662852Y-127469081D01*
X199675448Y-127504285D01*
X199684533Y-127540554D01*
X199690019Y-127577538D01*
X199691854Y-127614883D01*
X199691854Y-129392883D01*
X199690019Y-129430228D01*
X199684533Y-129467212D01*
X199675448Y-129503481D01*
X199662852Y-129538685D01*
X199646866Y-129572485D01*
X199627644Y-129604555D01*
X199605371Y-129634587D01*
X199580262Y-129662291D01*
X199552558Y-129687400D01*
X199522526Y-129709673D01*
X199490456Y-129728895D01*
X199456656Y-129744881D01*
X199421452Y-129757477D01*
X199385183Y-129766562D01*
X199348199Y-129772048D01*
X199310854Y-129773883D01*
X198548854Y-129773883D01*
X198511509Y-129772048D01*
X198474525Y-129766562D01*
X198438256Y-129757477D01*
X198403052Y-129744881D01*
X198369252Y-129728895D01*
X198337182Y-129709673D01*
X198307150Y-129687400D01*
X198279446Y-129662291D01*
X198254337Y-129634587D01*
X198232064Y-129604555D01*
X198212842Y-129572485D01*
X198196856Y-129538685D01*
X198184260Y-129503481D01*
X198175175Y-129467212D01*
X198169689Y-129430228D01*
X198167854Y-129392883D01*
X198167854Y-127614883D01*
X198169689Y-127577538D01*
X198175175Y-127540554D01*
X198184260Y-127504285D01*
X198196856Y-127469081D01*
X198212842Y-127435281D01*
X198232064Y-127403211D01*
X198254337Y-127373179D01*
X198279446Y-127345475D01*
X198307150Y-127320366D01*
X198337182Y-127298093D01*
X198369252Y-127278871D01*
X198403052Y-127262885D01*
X198438256Y-127250289D01*
X198474525Y-127241204D01*
X198511509Y-127235718D01*
X198548854Y-127233883D01*
X199310854Y-127233883D01*
X199348199Y-127235718D01*
G37*
G04 #@! TD.AperFunction*
G04 #@! TA.AperFunction,SMDPad,CuDef*
G36*
X196808199Y-127235718D02*
G01*
X196845183Y-127241204D01*
X196881452Y-127250289D01*
X196916656Y-127262885D01*
X196950456Y-127278871D01*
X196982526Y-127298093D01*
X197012558Y-127320366D01*
X197040262Y-127345475D01*
X197065371Y-127373179D01*
X197087644Y-127403211D01*
X197106866Y-127435281D01*
X197122852Y-127469081D01*
X197135448Y-127504285D01*
X197144533Y-127540554D01*
X197150019Y-127577538D01*
X197151854Y-127614883D01*
X197151854Y-129392883D01*
X197150019Y-129430228D01*
X197144533Y-129467212D01*
X197135448Y-129503481D01*
X197122852Y-129538685D01*
X197106866Y-129572485D01*
X197087644Y-129604555D01*
X197065371Y-129634587D01*
X197040262Y-129662291D01*
X197012558Y-129687400D01*
X196982526Y-129709673D01*
X196950456Y-129728895D01*
X196916656Y-129744881D01*
X196881452Y-129757477D01*
X196845183Y-129766562D01*
X196808199Y-129772048D01*
X196770854Y-129773883D01*
X196008854Y-129773883D01*
X195971509Y-129772048D01*
X195934525Y-129766562D01*
X195898256Y-129757477D01*
X195863052Y-129744881D01*
X195829252Y-129728895D01*
X195797182Y-129709673D01*
X195767150Y-129687400D01*
X195739446Y-129662291D01*
X195714337Y-129634587D01*
X195692064Y-129604555D01*
X195672842Y-129572485D01*
X195656856Y-129538685D01*
X195644260Y-129503481D01*
X195635175Y-129467212D01*
X195629689Y-129430228D01*
X195627854Y-129392883D01*
X195627854Y-127614883D01*
X195629689Y-127577538D01*
X195635175Y-127540554D01*
X195644260Y-127504285D01*
X195656856Y-127469081D01*
X195672842Y-127435281D01*
X195692064Y-127403211D01*
X195714337Y-127373179D01*
X195739446Y-127345475D01*
X195767150Y-127320366D01*
X195797182Y-127298093D01*
X195829252Y-127278871D01*
X195863052Y-127262885D01*
X195898256Y-127250289D01*
X195934525Y-127241204D01*
X195971509Y-127235718D01*
X196008854Y-127233883D01*
X196770854Y-127233883D01*
X196808199Y-127235718D01*
G37*
G04 #@! TD.AperFunction*
D24*
X49517854Y-127369383D03*
D25*
X39357854Y-127369383D03*
D24*
X48857854Y-101529383D03*
D25*
X48857854Y-91369383D03*
D26*
X55357854Y-126569383D03*
X55357854Y-122869383D03*
D24*
X153307854Y-119009383D03*
D25*
X153307854Y-129169383D03*
D24*
X64017854Y-67869383D03*
D25*
X53857854Y-67869383D03*
X79357854Y-114869383D03*
X84357854Y-114869383D03*
X196507854Y-84519383D03*
X201507854Y-84519383D03*
X70857854Y-84869383D03*
X75857854Y-84869383D03*
D27*
X186357854Y-89536049D03*
X186357854Y-99536049D03*
X109857854Y-113869383D03*
X109857854Y-103869383D03*
X146307854Y-81519383D03*
X146307854Y-91519383D03*
X167282854Y-81519383D03*
X167282854Y-91519383D03*
X162157854Y-96469383D03*
X152157854Y-96469383D03*
X140857854Y-96369383D03*
X130857854Y-96369383D03*
D25*
X87857854Y-39869383D03*
X82857854Y-39869383D03*
D27*
X69857854Y-68369383D03*
X79857854Y-68369383D03*
D25*
X196857854Y-108869383D03*
X201857854Y-108869383D03*
D27*
X185357854Y-113369383D03*
X185357854Y-123369383D03*
D25*
X125857854Y-90869383D03*
X125857854Y-95869383D03*
X171357854Y-110369383D03*
X176357854Y-110369383D03*
X183357854Y-84369383D03*
D28*
X183357854Y-82369383D03*
D25*
X177357854Y-95869383D03*
X172357854Y-95869383D03*
X118357854Y-39869383D03*
X113357854Y-39869383D03*
X196507854Y-35119383D03*
X201507854Y-35119383D03*
X95357854Y-67869383D03*
X90357854Y-67869383D03*
D27*
X186057854Y-41869383D03*
X186057854Y-51869383D03*
D25*
X196507854Y-58919383D03*
X201507854Y-58919383D03*
X174357854Y-48869383D03*
X169357854Y-48869383D03*
X180357854Y-59869383D03*
X180357854Y-54869383D03*
D27*
X163167854Y-35119383D03*
X163167854Y-45119383D03*
D25*
X180857854Y-37569383D03*
D28*
X180857854Y-35569383D03*
D27*
X186057854Y-65702716D03*
X186057854Y-75702716D03*
X47357854Y-61869383D03*
X57357854Y-61869383D03*
X151897854Y-50649383D03*
X161897854Y-50649383D03*
D25*
X46357854Y-41869383D03*
X51357854Y-41869383D03*
D29*
X68297854Y-110649383D03*
X65757854Y-110649383D03*
X63217854Y-110649383D03*
X60677854Y-110649383D03*
X58137854Y-110649383D03*
X55597854Y-110649383D03*
X80997854Y-110649383D03*
X78457854Y-110649383D03*
X75917854Y-110649383D03*
X73377854Y-110649383D03*
X70837854Y-110649383D03*
X101317854Y-110649383D03*
X98777854Y-110649383D03*
X96237854Y-110649383D03*
X93697854Y-110649383D03*
X91157854Y-110649383D03*
X88617854Y-110649383D03*
X86077854Y-110649383D03*
X83537854Y-110649383D03*
X103857854Y-110649383D03*
X58137854Y-90329383D03*
X55597854Y-90329383D03*
X93697854Y-90329383D03*
X73377854Y-90329383D03*
D30*
X103857854Y-90329383D03*
D29*
X70837854Y-90329383D03*
X75917854Y-90329383D03*
X80997854Y-90329383D03*
X88617854Y-90329383D03*
X86077854Y-90329383D03*
X83537854Y-90329383D03*
X91157854Y-90329383D03*
X98777854Y-90329383D03*
X96237854Y-90329383D03*
X101317854Y-90329383D03*
X65757854Y-90329383D03*
X68297854Y-90329383D03*
X63217854Y-90329383D03*
X60677854Y-90329383D03*
X78457854Y-90329383D03*
D30*
X103857854Y-92869383D03*
D29*
X55597854Y-108109383D03*
X101317854Y-92869383D03*
X58137854Y-108109383D03*
X98777854Y-92869383D03*
X60677854Y-108109383D03*
X96237854Y-92869383D03*
X63217854Y-108109383D03*
X93697854Y-92869383D03*
X65757854Y-108109383D03*
X91157854Y-92869383D03*
X68297854Y-108109383D03*
X88617854Y-92869383D03*
X70837854Y-108109383D03*
X86077854Y-92869383D03*
X73377854Y-108109383D03*
X83537854Y-92869383D03*
X75917854Y-108109383D03*
X80997854Y-92869383D03*
X78457854Y-108109383D03*
X78457854Y-92869383D03*
X80997854Y-108109383D03*
X75917854Y-92869383D03*
X83537854Y-108109383D03*
X73377854Y-92869383D03*
X86077854Y-108109383D03*
X70837854Y-92869383D03*
X88617854Y-108109383D03*
X68297854Y-92869383D03*
X91157854Y-108109383D03*
X65757854Y-92869383D03*
X93697854Y-108109383D03*
X63217854Y-92869383D03*
X96237854Y-108109383D03*
X60677854Y-92869383D03*
X98777854Y-108109383D03*
X58137854Y-92869383D03*
X101317854Y-108109383D03*
X55597854Y-92869383D03*
X103857854Y-108109383D03*
D31*
X176087854Y-104409383D03*
X173547854Y-104409383D03*
D32*
X171007854Y-104409383D03*
D29*
X102417854Y-43089383D03*
X104957854Y-43089383D03*
X107497854Y-43089383D03*
X110037854Y-43089383D03*
X112577854Y-43089383D03*
X115117854Y-43089383D03*
X89717854Y-43089383D03*
X92257854Y-43089383D03*
X94797854Y-43089383D03*
X97337854Y-43089383D03*
X99877854Y-43089383D03*
X69397854Y-43089383D03*
X71937854Y-43089383D03*
X74477854Y-43089383D03*
X77017854Y-43089383D03*
X79557854Y-43089383D03*
X82097854Y-43089383D03*
X84637854Y-43089383D03*
X87177854Y-43089383D03*
X66857854Y-43089383D03*
X112577854Y-63409383D03*
X115117854Y-63409383D03*
X77017854Y-63409383D03*
X97337854Y-63409383D03*
D30*
X66857854Y-63409383D03*
D29*
X99877854Y-63409383D03*
X94797854Y-63409383D03*
X89717854Y-63409383D03*
X82097854Y-63409383D03*
X84637854Y-63409383D03*
X87177854Y-63409383D03*
X79557854Y-63409383D03*
X71937854Y-63409383D03*
X74477854Y-63409383D03*
X69397854Y-63409383D03*
X104957854Y-63409383D03*
X102417854Y-63409383D03*
X107497854Y-63409383D03*
X110037854Y-63409383D03*
X92257854Y-63409383D03*
D30*
X66857854Y-60869383D03*
D29*
X115117854Y-45629383D03*
X69397854Y-60869383D03*
X112577854Y-45629383D03*
X71937854Y-60869383D03*
X110037854Y-45629383D03*
X74477854Y-60869383D03*
X107497854Y-45629383D03*
X77017854Y-60869383D03*
X104957854Y-45629383D03*
X79557854Y-60869383D03*
X102417854Y-45629383D03*
X82097854Y-60869383D03*
X99877854Y-45629383D03*
X84637854Y-60869383D03*
X97337854Y-45629383D03*
X87177854Y-60869383D03*
X94797854Y-45629383D03*
X89717854Y-60869383D03*
X92257854Y-45629383D03*
X92257854Y-60869383D03*
X89717854Y-45629383D03*
X94797854Y-60869383D03*
X87177854Y-45629383D03*
X97337854Y-60869383D03*
X84637854Y-45629383D03*
X99877854Y-60869383D03*
X82097854Y-45629383D03*
X102417854Y-60869383D03*
X79557854Y-45629383D03*
X104957854Y-60869383D03*
X77017854Y-45629383D03*
X107497854Y-60869383D03*
X74477854Y-45629383D03*
X110037854Y-60869383D03*
X71937854Y-45629383D03*
X112577854Y-60869383D03*
X69397854Y-45629383D03*
X115117854Y-60869383D03*
X66857854Y-45629383D03*
D31*
X174537854Y-57509383D03*
X171997854Y-57509383D03*
D32*
X169457854Y-57509383D03*
D15*
X52627854Y-45869383D03*
X45007854Y-53489383D03*
X52627854Y-48409383D03*
X45007854Y-50949383D03*
X52627854Y-50949383D03*
X45007854Y-48409383D03*
X52627854Y-53489383D03*
D33*
X45007854Y-45869383D03*
D22*
X189857854Y-126869383D03*
X31357854Y-36869383D03*
X31357854Y-126869383D03*
X189857854Y-36869383D03*
G04 #@! TA.AperFunction,SMDPad,CuDef*
D10*
G36*
X196808199Y-86901718D02*
G01*
X196845183Y-86907204D01*
X196881452Y-86916289D01*
X196916656Y-86928885D01*
X196950456Y-86944871D01*
X196982526Y-86964093D01*
X197012558Y-86986366D01*
X197040262Y-87011475D01*
X197065371Y-87039179D01*
X197087644Y-87069211D01*
X197106866Y-87101281D01*
X197122852Y-87135081D01*
X197135448Y-87170285D01*
X197144533Y-87206554D01*
X197150019Y-87243538D01*
X197151854Y-87280883D01*
X197151854Y-89058883D01*
X197150019Y-89096228D01*
X197144533Y-89133212D01*
X197135448Y-89169481D01*
X197122852Y-89204685D01*
X197106866Y-89238485D01*
X197087644Y-89270555D01*
X197065371Y-89300587D01*
X197040262Y-89328291D01*
X197012558Y-89353400D01*
X196982526Y-89375673D01*
X196950456Y-89394895D01*
X196916656Y-89410881D01*
X196881452Y-89423477D01*
X196845183Y-89432562D01*
X196808199Y-89438048D01*
X196770854Y-89439883D01*
X196008854Y-89439883D01*
X195971509Y-89438048D01*
X195934525Y-89432562D01*
X195898256Y-89423477D01*
X195863052Y-89410881D01*
X195829252Y-89394895D01*
X195797182Y-89375673D01*
X195767150Y-89353400D01*
X195739446Y-89328291D01*
X195714337Y-89300587D01*
X195692064Y-89270555D01*
X195672842Y-89238485D01*
X195656856Y-89204685D01*
X195644260Y-89169481D01*
X195635175Y-89133212D01*
X195629689Y-89096228D01*
X195627854Y-89058883D01*
X195627854Y-87280883D01*
X195629689Y-87243538D01*
X195635175Y-87206554D01*
X195644260Y-87170285D01*
X195656856Y-87135081D01*
X195672842Y-87101281D01*
X195692064Y-87069211D01*
X195714337Y-87039179D01*
X195739446Y-87011475D01*
X195767150Y-86986366D01*
X195797182Y-86964093D01*
X195829252Y-86944871D01*
X195863052Y-86928885D01*
X195898256Y-86916289D01*
X195934525Y-86907204D01*
X195971509Y-86901718D01*
X196008854Y-86899883D01*
X196770854Y-86899883D01*
X196808199Y-86901718D01*
G37*
G04 #@! TD.AperFunction*
G04 #@! TA.AperFunction,SMDPad,CuDef*
G36*
X199348199Y-86901718D02*
G01*
X199385183Y-86907204D01*
X199421452Y-86916289D01*
X199456656Y-86928885D01*
X199490456Y-86944871D01*
X199522526Y-86964093D01*
X199552558Y-86986366D01*
X199580262Y-87011475D01*
X199605371Y-87039179D01*
X199627644Y-87069211D01*
X199646866Y-87101281D01*
X199662852Y-87135081D01*
X199675448Y-87170285D01*
X199684533Y-87206554D01*
X199690019Y-87243538D01*
X199691854Y-87280883D01*
X199691854Y-89058883D01*
X199690019Y-89096228D01*
X199684533Y-89133212D01*
X199675448Y-89169481D01*
X199662852Y-89204685D01*
X199646866Y-89238485D01*
X199627644Y-89270555D01*
X199605371Y-89300587D01*
X199580262Y-89328291D01*
X199552558Y-89353400D01*
X199522526Y-89375673D01*
X199490456Y-89394895D01*
X199456656Y-89410881D01*
X199421452Y-89423477D01*
X199385183Y-89432562D01*
X199348199Y-89438048D01*
X199310854Y-89439883D01*
X198548854Y-89439883D01*
X198511509Y-89438048D01*
X198474525Y-89432562D01*
X198438256Y-89423477D01*
X198403052Y-89410881D01*
X198369252Y-89394895D01*
X198337182Y-89375673D01*
X198307150Y-89353400D01*
X198279446Y-89328291D01*
X198254337Y-89300587D01*
X198232064Y-89270555D01*
X198212842Y-89238485D01*
X198196856Y-89204685D01*
X198184260Y-89169481D01*
X198175175Y-89133212D01*
X198169689Y-89096228D01*
X198167854Y-89058883D01*
X198167854Y-87280883D01*
X198169689Y-87243538D01*
X198175175Y-87206554D01*
X198184260Y-87170285D01*
X198196856Y-87135081D01*
X198212842Y-87101281D01*
X198232064Y-87069211D01*
X198254337Y-87039179D01*
X198279446Y-87011475D01*
X198307150Y-86986366D01*
X198337182Y-86964093D01*
X198369252Y-86944871D01*
X198403052Y-86928885D01*
X198438256Y-86916289D01*
X198474525Y-86907204D01*
X198511509Y-86901718D01*
X198548854Y-86899883D01*
X199310854Y-86899883D01*
X199348199Y-86901718D01*
G37*
G04 #@! TD.AperFunction*
G04 #@! TA.AperFunction,SMDPad,CuDef*
G36*
X201888199Y-86901718D02*
G01*
X201925183Y-86907204D01*
X201961452Y-86916289D01*
X201996656Y-86928885D01*
X202030456Y-86944871D01*
X202062526Y-86964093D01*
X202092558Y-86986366D01*
X202120262Y-87011475D01*
X202145371Y-87039179D01*
X202167644Y-87069211D01*
X202186866Y-87101281D01*
X202202852Y-87135081D01*
X202215448Y-87170285D01*
X202224533Y-87206554D01*
X202230019Y-87243538D01*
X202231854Y-87280883D01*
X202231854Y-89058883D01*
X202230019Y-89096228D01*
X202224533Y-89133212D01*
X202215448Y-89169481D01*
X202202852Y-89204685D01*
X202186866Y-89238485D01*
X202167644Y-89270555D01*
X202145371Y-89300587D01*
X202120262Y-89328291D01*
X202092558Y-89353400D01*
X202062526Y-89375673D01*
X202030456Y-89394895D01*
X201996656Y-89410881D01*
X201961452Y-89423477D01*
X201925183Y-89432562D01*
X201888199Y-89438048D01*
X201850854Y-89439883D01*
X201088854Y-89439883D01*
X201051509Y-89438048D01*
X201014525Y-89432562D01*
X200978256Y-89423477D01*
X200943052Y-89410881D01*
X200909252Y-89394895D01*
X200877182Y-89375673D01*
X200847150Y-89353400D01*
X200819446Y-89328291D01*
X200794337Y-89300587D01*
X200772064Y-89270555D01*
X200752842Y-89238485D01*
X200736856Y-89204685D01*
X200724260Y-89169481D01*
X200715175Y-89133212D01*
X200709689Y-89096228D01*
X200707854Y-89058883D01*
X200707854Y-87280883D01*
X200709689Y-87243538D01*
X200715175Y-87206554D01*
X200724260Y-87170285D01*
X200736856Y-87135081D01*
X200752842Y-87101281D01*
X200772064Y-87069211D01*
X200794337Y-87039179D01*
X200819446Y-87011475D01*
X200847150Y-86986366D01*
X200877182Y-86964093D01*
X200909252Y-86944871D01*
X200943052Y-86928885D01*
X200978256Y-86916289D01*
X201014525Y-86907204D01*
X201051509Y-86901718D01*
X201088854Y-86899883D01*
X201850854Y-86899883D01*
X201888199Y-86901718D01*
G37*
G04 #@! TD.AperFunction*
G04 #@! TA.AperFunction,SMDPad,CuDef*
G36*
X204428199Y-86901718D02*
G01*
X204465183Y-86907204D01*
X204501452Y-86916289D01*
X204536656Y-86928885D01*
X204570456Y-86944871D01*
X204602526Y-86964093D01*
X204632558Y-86986366D01*
X204660262Y-87011475D01*
X204685371Y-87039179D01*
X204707644Y-87069211D01*
X204726866Y-87101281D01*
X204742852Y-87135081D01*
X204755448Y-87170285D01*
X204764533Y-87206554D01*
X204770019Y-87243538D01*
X204771854Y-87280883D01*
X204771854Y-89058883D01*
X204770019Y-89096228D01*
X204764533Y-89133212D01*
X204755448Y-89169481D01*
X204742852Y-89204685D01*
X204726866Y-89238485D01*
X204707644Y-89270555D01*
X204685371Y-89300587D01*
X204660262Y-89328291D01*
X204632558Y-89353400D01*
X204602526Y-89375673D01*
X204570456Y-89394895D01*
X204536656Y-89410881D01*
X204501452Y-89423477D01*
X204465183Y-89432562D01*
X204428199Y-89438048D01*
X204390854Y-89439883D01*
X203628854Y-89439883D01*
X203591509Y-89438048D01*
X203554525Y-89432562D01*
X203518256Y-89423477D01*
X203483052Y-89410881D01*
X203449252Y-89394895D01*
X203417182Y-89375673D01*
X203387150Y-89353400D01*
X203359446Y-89328291D01*
X203334337Y-89300587D01*
X203312064Y-89270555D01*
X203292842Y-89238485D01*
X203276856Y-89204685D01*
X203264260Y-89169481D01*
X203255175Y-89133212D01*
X203249689Y-89096228D01*
X203247854Y-89058883D01*
X203247854Y-87280883D01*
X203249689Y-87243538D01*
X203255175Y-87206554D01*
X203264260Y-87170285D01*
X203276856Y-87135081D01*
X203292842Y-87101281D01*
X203312064Y-87069211D01*
X203334337Y-87039179D01*
X203359446Y-87011475D01*
X203387150Y-86986366D01*
X203417182Y-86964093D01*
X203449252Y-86944871D01*
X203483052Y-86928885D01*
X203518256Y-86916289D01*
X203554525Y-86907204D01*
X203591509Y-86901718D01*
X203628854Y-86899883D01*
X204390854Y-86899883D01*
X204428199Y-86901718D01*
G37*
G04 #@! TD.AperFunction*
G04 #@! TA.AperFunction,SMDPad,CuDef*
G36*
X204428199Y-102235718D02*
G01*
X204465183Y-102241204D01*
X204501452Y-102250289D01*
X204536656Y-102262885D01*
X204570456Y-102278871D01*
X204602526Y-102298093D01*
X204632558Y-102320366D01*
X204660262Y-102345475D01*
X204685371Y-102373179D01*
X204707644Y-102403211D01*
X204726866Y-102435281D01*
X204742852Y-102469081D01*
X204755448Y-102504285D01*
X204764533Y-102540554D01*
X204770019Y-102577538D01*
X204771854Y-102614883D01*
X204771854Y-104392883D01*
X204770019Y-104430228D01*
X204764533Y-104467212D01*
X204755448Y-104503481D01*
X204742852Y-104538685D01*
X204726866Y-104572485D01*
X204707644Y-104604555D01*
X204685371Y-104634587D01*
X204660262Y-104662291D01*
X204632558Y-104687400D01*
X204602526Y-104709673D01*
X204570456Y-104728895D01*
X204536656Y-104744881D01*
X204501452Y-104757477D01*
X204465183Y-104766562D01*
X204428199Y-104772048D01*
X204390854Y-104773883D01*
X203628854Y-104773883D01*
X203591509Y-104772048D01*
X203554525Y-104766562D01*
X203518256Y-104757477D01*
X203483052Y-104744881D01*
X203449252Y-104728895D01*
X203417182Y-104709673D01*
X203387150Y-104687400D01*
X203359446Y-104662291D01*
X203334337Y-104634587D01*
X203312064Y-104604555D01*
X203292842Y-104572485D01*
X203276856Y-104538685D01*
X203264260Y-104503481D01*
X203255175Y-104467212D01*
X203249689Y-104430228D01*
X203247854Y-104392883D01*
X203247854Y-102614883D01*
X203249689Y-102577538D01*
X203255175Y-102540554D01*
X203264260Y-102504285D01*
X203276856Y-102469081D01*
X203292842Y-102435281D01*
X203312064Y-102403211D01*
X203334337Y-102373179D01*
X203359446Y-102345475D01*
X203387150Y-102320366D01*
X203417182Y-102298093D01*
X203449252Y-102278871D01*
X203483052Y-102262885D01*
X203518256Y-102250289D01*
X203554525Y-102241204D01*
X203591509Y-102235718D01*
X203628854Y-102233883D01*
X204390854Y-102233883D01*
X204428199Y-102235718D01*
G37*
G04 #@! TD.AperFunction*
G04 #@! TA.AperFunction,SMDPad,CuDef*
G36*
X201888199Y-102235718D02*
G01*
X201925183Y-102241204D01*
X201961452Y-102250289D01*
X201996656Y-102262885D01*
X202030456Y-102278871D01*
X202062526Y-102298093D01*
X202092558Y-102320366D01*
X202120262Y-102345475D01*
X202145371Y-102373179D01*
X202167644Y-102403211D01*
X202186866Y-102435281D01*
X202202852Y-102469081D01*
X202215448Y-102504285D01*
X202224533Y-102540554D01*
X202230019Y-102577538D01*
X202231854Y-102614883D01*
X202231854Y-104392883D01*
X202230019Y-104430228D01*
X202224533Y-104467212D01*
X202215448Y-104503481D01*
X202202852Y-104538685D01*
X202186866Y-104572485D01*
X202167644Y-104604555D01*
X202145371Y-104634587D01*
X202120262Y-104662291D01*
X202092558Y-104687400D01*
X202062526Y-104709673D01*
X202030456Y-104728895D01*
X201996656Y-104744881D01*
X201961452Y-104757477D01*
X201925183Y-104766562D01*
X201888199Y-104772048D01*
X201850854Y-104773883D01*
X201088854Y-104773883D01*
X201051509Y-104772048D01*
X201014525Y-104766562D01*
X200978256Y-104757477D01*
X200943052Y-104744881D01*
X200909252Y-104728895D01*
X200877182Y-104709673D01*
X200847150Y-104687400D01*
X200819446Y-104662291D01*
X200794337Y-104634587D01*
X200772064Y-104604555D01*
X200752842Y-104572485D01*
X200736856Y-104538685D01*
X200724260Y-104503481D01*
X200715175Y-104467212D01*
X200709689Y-104430228D01*
X200707854Y-104392883D01*
X200707854Y-102614883D01*
X200709689Y-102577538D01*
X200715175Y-102540554D01*
X200724260Y-102504285D01*
X200736856Y-102469081D01*
X200752842Y-102435281D01*
X200772064Y-102403211D01*
X200794337Y-102373179D01*
X200819446Y-102345475D01*
X200847150Y-102320366D01*
X200877182Y-102298093D01*
X200909252Y-102278871D01*
X200943052Y-102262885D01*
X200978256Y-102250289D01*
X201014525Y-102241204D01*
X201051509Y-102235718D01*
X201088854Y-102233883D01*
X201850854Y-102233883D01*
X201888199Y-102235718D01*
G37*
G04 #@! TD.AperFunction*
G04 #@! TA.AperFunction,SMDPad,CuDef*
G36*
X199348199Y-102235718D02*
G01*
X199385183Y-102241204D01*
X199421452Y-102250289D01*
X199456656Y-102262885D01*
X199490456Y-102278871D01*
X199522526Y-102298093D01*
X199552558Y-102320366D01*
X199580262Y-102345475D01*
X199605371Y-102373179D01*
X199627644Y-102403211D01*
X199646866Y-102435281D01*
X199662852Y-102469081D01*
X199675448Y-102504285D01*
X199684533Y-102540554D01*
X199690019Y-102577538D01*
X199691854Y-102614883D01*
X199691854Y-104392883D01*
X199690019Y-104430228D01*
X199684533Y-104467212D01*
X199675448Y-104503481D01*
X199662852Y-104538685D01*
X199646866Y-104572485D01*
X199627644Y-104604555D01*
X199605371Y-104634587D01*
X199580262Y-104662291D01*
X199552558Y-104687400D01*
X199522526Y-104709673D01*
X199490456Y-104728895D01*
X199456656Y-104744881D01*
X199421452Y-104757477D01*
X199385183Y-104766562D01*
X199348199Y-104772048D01*
X199310854Y-104773883D01*
X198548854Y-104773883D01*
X198511509Y-104772048D01*
X198474525Y-104766562D01*
X198438256Y-104757477D01*
X198403052Y-104744881D01*
X198369252Y-104728895D01*
X198337182Y-104709673D01*
X198307150Y-104687400D01*
X198279446Y-104662291D01*
X198254337Y-104634587D01*
X198232064Y-104604555D01*
X198212842Y-104572485D01*
X198196856Y-104538685D01*
X198184260Y-104503481D01*
X198175175Y-104467212D01*
X198169689Y-104430228D01*
X198167854Y-104392883D01*
X198167854Y-102614883D01*
X198169689Y-102577538D01*
X198175175Y-102540554D01*
X198184260Y-102504285D01*
X198196856Y-102469081D01*
X198212842Y-102435281D01*
X198232064Y-102403211D01*
X198254337Y-102373179D01*
X198279446Y-102345475D01*
X198307150Y-102320366D01*
X198337182Y-102298093D01*
X198369252Y-102278871D01*
X198403052Y-102262885D01*
X198438256Y-102250289D01*
X198474525Y-102241204D01*
X198511509Y-102235718D01*
X198548854Y-102233883D01*
X199310854Y-102233883D01*
X199348199Y-102235718D01*
G37*
G04 #@! TD.AperFunction*
G04 #@! TA.AperFunction,SMDPad,CuDef*
G36*
X196808199Y-102235718D02*
G01*
X196845183Y-102241204D01*
X196881452Y-102250289D01*
X196916656Y-102262885D01*
X196950456Y-102278871D01*
X196982526Y-102298093D01*
X197012558Y-102320366D01*
X197040262Y-102345475D01*
X197065371Y-102373179D01*
X197087644Y-102403211D01*
X197106866Y-102435281D01*
X197122852Y-102469081D01*
X197135448Y-102504285D01*
X197144533Y-102540554D01*
X197150019Y-102577538D01*
X197151854Y-102614883D01*
X197151854Y-104392883D01*
X197150019Y-104430228D01*
X197144533Y-104467212D01*
X197135448Y-104503481D01*
X197122852Y-104538685D01*
X197106866Y-104572485D01*
X197087644Y-104604555D01*
X197065371Y-104634587D01*
X197040262Y-104662291D01*
X197012558Y-104687400D01*
X196982526Y-104709673D01*
X196950456Y-104728895D01*
X196916656Y-104744881D01*
X196881452Y-104757477D01*
X196845183Y-104766562D01*
X196808199Y-104772048D01*
X196770854Y-104773883D01*
X196008854Y-104773883D01*
X195971509Y-104772048D01*
X195934525Y-104766562D01*
X195898256Y-104757477D01*
X195863052Y-104744881D01*
X195829252Y-104728895D01*
X195797182Y-104709673D01*
X195767150Y-104687400D01*
X195739446Y-104662291D01*
X195714337Y-104634587D01*
X195692064Y-104604555D01*
X195672842Y-104572485D01*
X195656856Y-104538685D01*
X195644260Y-104503481D01*
X195635175Y-104467212D01*
X195629689Y-104430228D01*
X195627854Y-104392883D01*
X195627854Y-102614883D01*
X195629689Y-102577538D01*
X195635175Y-102540554D01*
X195644260Y-102504285D01*
X195656856Y-102469081D01*
X195672842Y-102435281D01*
X195692064Y-102403211D01*
X195714337Y-102373179D01*
X195739446Y-102345475D01*
X195767150Y-102320366D01*
X195797182Y-102298093D01*
X195829252Y-102278871D01*
X195863052Y-102262885D01*
X195898256Y-102250289D01*
X195934525Y-102241204D01*
X195971509Y-102235718D01*
X196008854Y-102233883D01*
X196770854Y-102233883D01*
X196808199Y-102235718D01*
G37*
G04 #@! TD.AperFunction*
G04 #@! TA.AperFunction,SMDPad,CuDef*
G36*
X196808199Y-61901718D02*
G01*
X196845183Y-61907204D01*
X196881452Y-61916289D01*
X196916656Y-61928885D01*
X196950456Y-61944871D01*
X196982526Y-61964093D01*
X197012558Y-61986366D01*
X197040262Y-62011475D01*
X197065371Y-62039179D01*
X197087644Y-62069211D01*
X197106866Y-62101281D01*
X197122852Y-62135081D01*
X197135448Y-62170285D01*
X197144533Y-62206554D01*
X197150019Y-62243538D01*
X197151854Y-62280883D01*
X197151854Y-64058883D01*
X197150019Y-64096228D01*
X197144533Y-64133212D01*
X197135448Y-64169481D01*
X197122852Y-64204685D01*
X197106866Y-64238485D01*
X197087644Y-64270555D01*
X197065371Y-64300587D01*
X197040262Y-64328291D01*
X197012558Y-64353400D01*
X196982526Y-64375673D01*
X196950456Y-64394895D01*
X196916656Y-64410881D01*
X196881452Y-64423477D01*
X196845183Y-64432562D01*
X196808199Y-64438048D01*
X196770854Y-64439883D01*
X196008854Y-64439883D01*
X195971509Y-64438048D01*
X195934525Y-64432562D01*
X195898256Y-64423477D01*
X195863052Y-64410881D01*
X195829252Y-64394895D01*
X195797182Y-64375673D01*
X195767150Y-64353400D01*
X195739446Y-64328291D01*
X195714337Y-64300587D01*
X195692064Y-64270555D01*
X195672842Y-64238485D01*
X195656856Y-64204685D01*
X195644260Y-64169481D01*
X195635175Y-64133212D01*
X195629689Y-64096228D01*
X195627854Y-64058883D01*
X195627854Y-62280883D01*
X195629689Y-62243538D01*
X195635175Y-62206554D01*
X195644260Y-62170285D01*
X195656856Y-62135081D01*
X195672842Y-62101281D01*
X195692064Y-62069211D01*
X195714337Y-62039179D01*
X195739446Y-62011475D01*
X195767150Y-61986366D01*
X195797182Y-61964093D01*
X195829252Y-61944871D01*
X195863052Y-61928885D01*
X195898256Y-61916289D01*
X195934525Y-61907204D01*
X195971509Y-61901718D01*
X196008854Y-61899883D01*
X196770854Y-61899883D01*
X196808199Y-61901718D01*
G37*
G04 #@! TD.AperFunction*
G04 #@! TA.AperFunction,SMDPad,CuDef*
G36*
X199348199Y-61901718D02*
G01*
X199385183Y-61907204D01*
X199421452Y-61916289D01*
X199456656Y-61928885D01*
X199490456Y-61944871D01*
X199522526Y-61964093D01*
X199552558Y-61986366D01*
X199580262Y-62011475D01*
X199605371Y-62039179D01*
X199627644Y-62069211D01*
X199646866Y-62101281D01*
X199662852Y-62135081D01*
X199675448Y-62170285D01*
X199684533Y-62206554D01*
X199690019Y-62243538D01*
X199691854Y-62280883D01*
X199691854Y-64058883D01*
X199690019Y-64096228D01*
X199684533Y-64133212D01*
X199675448Y-64169481D01*
X199662852Y-64204685D01*
X199646866Y-64238485D01*
X199627644Y-64270555D01*
X199605371Y-64300587D01*
X199580262Y-64328291D01*
X199552558Y-64353400D01*
X199522526Y-64375673D01*
X199490456Y-64394895D01*
X199456656Y-64410881D01*
X199421452Y-64423477D01*
X199385183Y-64432562D01*
X199348199Y-64438048D01*
X199310854Y-64439883D01*
X198548854Y-64439883D01*
X198511509Y-64438048D01*
X198474525Y-64432562D01*
X198438256Y-64423477D01*
X198403052Y-64410881D01*
X198369252Y-64394895D01*
X198337182Y-64375673D01*
X198307150Y-64353400D01*
X198279446Y-64328291D01*
X198254337Y-64300587D01*
X198232064Y-64270555D01*
X198212842Y-64238485D01*
X198196856Y-64204685D01*
X198184260Y-64169481D01*
X198175175Y-64133212D01*
X198169689Y-64096228D01*
X198167854Y-64058883D01*
X198167854Y-62280883D01*
X198169689Y-62243538D01*
X198175175Y-62206554D01*
X198184260Y-62170285D01*
X198196856Y-62135081D01*
X198212842Y-62101281D01*
X198232064Y-62069211D01*
X198254337Y-62039179D01*
X198279446Y-62011475D01*
X198307150Y-61986366D01*
X198337182Y-61964093D01*
X198369252Y-61944871D01*
X198403052Y-61928885D01*
X198438256Y-61916289D01*
X198474525Y-61907204D01*
X198511509Y-61901718D01*
X198548854Y-61899883D01*
X199310854Y-61899883D01*
X199348199Y-61901718D01*
G37*
G04 #@! TD.AperFunction*
G04 #@! TA.AperFunction,SMDPad,CuDef*
G36*
X201888199Y-61901718D02*
G01*
X201925183Y-61907204D01*
X201961452Y-61916289D01*
X201996656Y-61928885D01*
X202030456Y-61944871D01*
X202062526Y-61964093D01*
X202092558Y-61986366D01*
X202120262Y-62011475D01*
X202145371Y-62039179D01*
X202167644Y-62069211D01*
X202186866Y-62101281D01*
X202202852Y-62135081D01*
X202215448Y-62170285D01*
X202224533Y-62206554D01*
X202230019Y-62243538D01*
X202231854Y-62280883D01*
X202231854Y-64058883D01*
X202230019Y-64096228D01*
X202224533Y-64133212D01*
X202215448Y-64169481D01*
X202202852Y-64204685D01*
X202186866Y-64238485D01*
X202167644Y-64270555D01*
X202145371Y-64300587D01*
X202120262Y-64328291D01*
X202092558Y-64353400D01*
X202062526Y-64375673D01*
X202030456Y-64394895D01*
X201996656Y-64410881D01*
X201961452Y-64423477D01*
X201925183Y-64432562D01*
X201888199Y-64438048D01*
X201850854Y-64439883D01*
X201088854Y-64439883D01*
X201051509Y-64438048D01*
X201014525Y-64432562D01*
X200978256Y-64423477D01*
X200943052Y-64410881D01*
X200909252Y-64394895D01*
X200877182Y-64375673D01*
X200847150Y-64353400D01*
X200819446Y-64328291D01*
X200794337Y-64300587D01*
X200772064Y-64270555D01*
X200752842Y-64238485D01*
X200736856Y-64204685D01*
X200724260Y-64169481D01*
X200715175Y-64133212D01*
X200709689Y-64096228D01*
X200707854Y-64058883D01*
X200707854Y-62280883D01*
X200709689Y-62243538D01*
X200715175Y-62206554D01*
X200724260Y-62170285D01*
X200736856Y-62135081D01*
X200752842Y-62101281D01*
X200772064Y-62069211D01*
X200794337Y-62039179D01*
X200819446Y-62011475D01*
X200847150Y-61986366D01*
X200877182Y-61964093D01*
X200909252Y-61944871D01*
X200943052Y-61928885D01*
X200978256Y-61916289D01*
X201014525Y-61907204D01*
X201051509Y-61901718D01*
X201088854Y-61899883D01*
X201850854Y-61899883D01*
X201888199Y-61901718D01*
G37*
G04 #@! TD.AperFunction*
G04 #@! TA.AperFunction,SMDPad,CuDef*
G36*
X204428199Y-61901718D02*
G01*
X204465183Y-61907204D01*
X204501452Y-61916289D01*
X204536656Y-61928885D01*
X204570456Y-61944871D01*
X204602526Y-61964093D01*
X204632558Y-61986366D01*
X204660262Y-62011475D01*
X204685371Y-62039179D01*
X204707644Y-62069211D01*
X204726866Y-62101281D01*
X204742852Y-62135081D01*
X204755448Y-62170285D01*
X204764533Y-62206554D01*
X204770019Y-62243538D01*
X204771854Y-62280883D01*
X204771854Y-64058883D01*
X204770019Y-64096228D01*
X204764533Y-64133212D01*
X204755448Y-64169481D01*
X204742852Y-64204685D01*
X204726866Y-64238485D01*
X204707644Y-64270555D01*
X204685371Y-64300587D01*
X204660262Y-64328291D01*
X204632558Y-64353400D01*
X204602526Y-64375673D01*
X204570456Y-64394895D01*
X204536656Y-64410881D01*
X204501452Y-64423477D01*
X204465183Y-64432562D01*
X204428199Y-64438048D01*
X204390854Y-64439883D01*
X203628854Y-64439883D01*
X203591509Y-64438048D01*
X203554525Y-64432562D01*
X203518256Y-64423477D01*
X203483052Y-64410881D01*
X203449252Y-64394895D01*
X203417182Y-64375673D01*
X203387150Y-64353400D01*
X203359446Y-64328291D01*
X203334337Y-64300587D01*
X203312064Y-64270555D01*
X203292842Y-64238485D01*
X203276856Y-64204685D01*
X203264260Y-64169481D01*
X203255175Y-64133212D01*
X203249689Y-64096228D01*
X203247854Y-64058883D01*
X203247854Y-62280883D01*
X203249689Y-62243538D01*
X203255175Y-62206554D01*
X203264260Y-62170285D01*
X203276856Y-62135081D01*
X203292842Y-62101281D01*
X203312064Y-62069211D01*
X203334337Y-62039179D01*
X203359446Y-62011475D01*
X203387150Y-61986366D01*
X203417182Y-61964093D01*
X203449252Y-61944871D01*
X203483052Y-61928885D01*
X203518256Y-61916289D01*
X203554525Y-61907204D01*
X203591509Y-61901718D01*
X203628854Y-61899883D01*
X204390854Y-61899883D01*
X204428199Y-61901718D01*
G37*
G04 #@! TD.AperFunction*
G04 #@! TA.AperFunction,SMDPad,CuDef*
G36*
X204428199Y-77235718D02*
G01*
X204465183Y-77241204D01*
X204501452Y-77250289D01*
X204536656Y-77262885D01*
X204570456Y-77278871D01*
X204602526Y-77298093D01*
X204632558Y-77320366D01*
X204660262Y-77345475D01*
X204685371Y-77373179D01*
X204707644Y-77403211D01*
X204726866Y-77435281D01*
X204742852Y-77469081D01*
X204755448Y-77504285D01*
X204764533Y-77540554D01*
X204770019Y-77577538D01*
X204771854Y-77614883D01*
X204771854Y-79392883D01*
X204770019Y-79430228D01*
X204764533Y-79467212D01*
X204755448Y-79503481D01*
X204742852Y-79538685D01*
X204726866Y-79572485D01*
X204707644Y-79604555D01*
X204685371Y-79634587D01*
X204660262Y-79662291D01*
X204632558Y-79687400D01*
X204602526Y-79709673D01*
X204570456Y-79728895D01*
X204536656Y-79744881D01*
X204501452Y-79757477D01*
X204465183Y-79766562D01*
X204428199Y-79772048D01*
X204390854Y-79773883D01*
X203628854Y-79773883D01*
X203591509Y-79772048D01*
X203554525Y-79766562D01*
X203518256Y-79757477D01*
X203483052Y-79744881D01*
X203449252Y-79728895D01*
X203417182Y-79709673D01*
X203387150Y-79687400D01*
X203359446Y-79662291D01*
X203334337Y-79634587D01*
X203312064Y-79604555D01*
X203292842Y-79572485D01*
X203276856Y-79538685D01*
X203264260Y-79503481D01*
X203255175Y-79467212D01*
X203249689Y-79430228D01*
X203247854Y-79392883D01*
X203247854Y-77614883D01*
X203249689Y-77577538D01*
X203255175Y-77540554D01*
X203264260Y-77504285D01*
X203276856Y-77469081D01*
X203292842Y-77435281D01*
X203312064Y-77403211D01*
X203334337Y-77373179D01*
X203359446Y-77345475D01*
X203387150Y-77320366D01*
X203417182Y-77298093D01*
X203449252Y-77278871D01*
X203483052Y-77262885D01*
X203518256Y-77250289D01*
X203554525Y-77241204D01*
X203591509Y-77235718D01*
X203628854Y-77233883D01*
X204390854Y-77233883D01*
X204428199Y-77235718D01*
G37*
G04 #@! TD.AperFunction*
G04 #@! TA.AperFunction,SMDPad,CuDef*
G36*
X201888199Y-77235718D02*
G01*
X201925183Y-77241204D01*
X201961452Y-77250289D01*
X201996656Y-77262885D01*
X202030456Y-77278871D01*
X202062526Y-77298093D01*
X202092558Y-77320366D01*
X202120262Y-77345475D01*
X202145371Y-77373179D01*
X202167644Y-77403211D01*
X202186866Y-77435281D01*
X202202852Y-77469081D01*
X202215448Y-77504285D01*
X202224533Y-77540554D01*
X202230019Y-77577538D01*
X202231854Y-77614883D01*
X202231854Y-79392883D01*
X202230019Y-79430228D01*
X202224533Y-79467212D01*
X202215448Y-79503481D01*
X202202852Y-79538685D01*
X202186866Y-79572485D01*
X202167644Y-79604555D01*
X202145371Y-79634587D01*
X202120262Y-79662291D01*
X202092558Y-79687400D01*
X202062526Y-79709673D01*
X202030456Y-79728895D01*
X201996656Y-79744881D01*
X201961452Y-79757477D01*
X201925183Y-79766562D01*
X201888199Y-79772048D01*
X201850854Y-79773883D01*
X201088854Y-79773883D01*
X201051509Y-79772048D01*
X201014525Y-79766562D01*
X200978256Y-79757477D01*
X200943052Y-79744881D01*
X200909252Y-79728895D01*
X200877182Y-79709673D01*
X200847150Y-79687400D01*
X200819446Y-79662291D01*
X200794337Y-79634587D01*
X200772064Y-79604555D01*
X200752842Y-79572485D01*
X200736856Y-79538685D01*
X200724260Y-79503481D01*
X200715175Y-79467212D01*
X200709689Y-79430228D01*
X200707854Y-79392883D01*
X200707854Y-77614883D01*
X200709689Y-77577538D01*
X200715175Y-77540554D01*
X200724260Y-77504285D01*
X200736856Y-77469081D01*
X200752842Y-77435281D01*
X200772064Y-77403211D01*
X200794337Y-77373179D01*
X200819446Y-77345475D01*
X200847150Y-77320366D01*
X200877182Y-77298093D01*
X200909252Y-77278871D01*
X200943052Y-77262885D01*
X200978256Y-77250289D01*
X201014525Y-77241204D01*
X201051509Y-77235718D01*
X201088854Y-77233883D01*
X201850854Y-77233883D01*
X201888199Y-77235718D01*
G37*
G04 #@! TD.AperFunction*
G04 #@! TA.AperFunction,SMDPad,CuDef*
G36*
X199348199Y-77235718D02*
G01*
X199385183Y-77241204D01*
X199421452Y-77250289D01*
X199456656Y-77262885D01*
X199490456Y-77278871D01*
X199522526Y-77298093D01*
X199552558Y-77320366D01*
X199580262Y-77345475D01*
X199605371Y-77373179D01*
X199627644Y-77403211D01*
X199646866Y-77435281D01*
X199662852Y-77469081D01*
X199675448Y-77504285D01*
X199684533Y-77540554D01*
X199690019Y-77577538D01*
X199691854Y-77614883D01*
X199691854Y-79392883D01*
X199690019Y-79430228D01*
X199684533Y-79467212D01*
X199675448Y-79503481D01*
X199662852Y-79538685D01*
X199646866Y-79572485D01*
X199627644Y-79604555D01*
X199605371Y-79634587D01*
X199580262Y-79662291D01*
X199552558Y-79687400D01*
X199522526Y-79709673D01*
X199490456Y-79728895D01*
X199456656Y-79744881D01*
X199421452Y-79757477D01*
X199385183Y-79766562D01*
X199348199Y-79772048D01*
X199310854Y-79773883D01*
X198548854Y-79773883D01*
X198511509Y-79772048D01*
X198474525Y-79766562D01*
X198438256Y-79757477D01*
X198403052Y-79744881D01*
X198369252Y-79728895D01*
X198337182Y-79709673D01*
X198307150Y-79687400D01*
X198279446Y-79662291D01*
X198254337Y-79634587D01*
X198232064Y-79604555D01*
X198212842Y-79572485D01*
X198196856Y-79538685D01*
X198184260Y-79503481D01*
X198175175Y-79467212D01*
X198169689Y-79430228D01*
X198167854Y-79392883D01*
X198167854Y-77614883D01*
X198169689Y-77577538D01*
X198175175Y-77540554D01*
X198184260Y-77504285D01*
X198196856Y-77469081D01*
X198212842Y-77435281D01*
X198232064Y-77403211D01*
X198254337Y-77373179D01*
X198279446Y-77345475D01*
X198307150Y-77320366D01*
X198337182Y-77298093D01*
X198369252Y-77278871D01*
X198403052Y-77262885D01*
X198438256Y-77250289D01*
X198474525Y-77241204D01*
X198511509Y-77235718D01*
X198548854Y-77233883D01*
X199310854Y-77233883D01*
X199348199Y-77235718D01*
G37*
G04 #@! TD.AperFunction*
G04 #@! TA.AperFunction,SMDPad,CuDef*
G36*
X196808199Y-77235718D02*
G01*
X196845183Y-77241204D01*
X196881452Y-77250289D01*
X196916656Y-77262885D01*
X196950456Y-77278871D01*
X196982526Y-77298093D01*
X197012558Y-77320366D01*
X197040262Y-77345475D01*
X197065371Y-77373179D01*
X197087644Y-77403211D01*
X197106866Y-77435281D01*
X197122852Y-77469081D01*
X197135448Y-77504285D01*
X197144533Y-77540554D01*
X197150019Y-77577538D01*
X197151854Y-77614883D01*
X197151854Y-79392883D01*
X197150019Y-79430228D01*
X197144533Y-79467212D01*
X197135448Y-79503481D01*
X197122852Y-79538685D01*
X197106866Y-79572485D01*
X197087644Y-79604555D01*
X197065371Y-79634587D01*
X197040262Y-79662291D01*
X197012558Y-79687400D01*
X196982526Y-79709673D01*
X196950456Y-79728895D01*
X196916656Y-79744881D01*
X196881452Y-79757477D01*
X196845183Y-79766562D01*
X196808199Y-79772048D01*
X196770854Y-79773883D01*
X196008854Y-79773883D01*
X195971509Y-79772048D01*
X195934525Y-79766562D01*
X195898256Y-79757477D01*
X195863052Y-79744881D01*
X195829252Y-79728895D01*
X195797182Y-79709673D01*
X195767150Y-79687400D01*
X195739446Y-79662291D01*
X195714337Y-79634587D01*
X195692064Y-79604555D01*
X195672842Y-79572485D01*
X195656856Y-79538685D01*
X195644260Y-79503481D01*
X195635175Y-79467212D01*
X195629689Y-79430228D01*
X195627854Y-79392883D01*
X195627854Y-77614883D01*
X195629689Y-77577538D01*
X195635175Y-77540554D01*
X195644260Y-77504285D01*
X195656856Y-77469081D01*
X195672842Y-77435281D01*
X195692064Y-77403211D01*
X195714337Y-77373179D01*
X195739446Y-77345475D01*
X195767150Y-77320366D01*
X195797182Y-77298093D01*
X195829252Y-77278871D01*
X195863052Y-77262885D01*
X195898256Y-77250289D01*
X195934525Y-77241204D01*
X195971509Y-77235718D01*
X196008854Y-77233883D01*
X196770854Y-77233883D01*
X196808199Y-77235718D01*
G37*
G04 #@! TD.AperFunction*
D24*
X74601854Y-73763383D03*
D25*
X84761854Y-73763383D03*
D24*
X74601854Y-76811383D03*
D25*
X84761854Y-76811383D03*
D24*
X64357854Y-117709383D03*
D25*
X64357854Y-127869383D03*
D24*
X41357854Y-99209383D03*
D25*
X41357854Y-109369383D03*
D24*
X41357854Y-112709383D03*
D25*
X41357854Y-122869383D03*
D24*
X191707854Y-89609383D03*
D25*
X191707854Y-99769383D03*
D24*
X117857854Y-117029383D03*
D25*
X117857854Y-106869383D03*
D24*
X114357854Y-104209383D03*
D25*
X114357854Y-114369383D03*
D24*
X128697854Y-110869383D03*
D25*
X138857854Y-110869383D03*
D24*
X164517854Y-67039383D03*
D25*
X174677854Y-67039383D03*
D24*
X164667854Y-63239383D03*
D25*
X174827854Y-63239383D03*
D24*
X41197854Y-72869383D03*
D25*
X51357854Y-72869383D03*
D24*
X110857854Y-128029383D03*
D25*
X110857854Y-117869383D03*
D24*
X95357854Y-117709383D03*
D25*
X95357854Y-127869383D03*
D24*
X79857854Y-117709383D03*
D25*
X79857854Y-127869383D03*
D24*
X41357854Y-91029383D03*
D25*
X41357854Y-80869383D03*
D24*
X44857854Y-98529383D03*
D25*
X44857854Y-88369383D03*
D24*
X125857854Y-98709383D03*
D25*
X125857854Y-108869383D03*
D24*
X51517854Y-77369383D03*
D25*
X41357854Y-77369383D03*
D24*
X121857854Y-102709383D03*
D25*
X121857854Y-112869383D03*
D24*
X141697854Y-110869383D03*
D25*
X151857854Y-110869383D03*
D24*
X191707854Y-113309383D03*
D25*
X191707854Y-123469383D03*
D24*
X137997854Y-50319383D03*
D25*
X148157854Y-50319383D03*
D24*
X141967854Y-35519383D03*
D25*
X131807854Y-35519383D03*
D24*
X130357854Y-51029383D03*
D25*
X130357854Y-40869383D03*
D24*
X148017854Y-54369383D03*
D25*
X137857854Y-54369383D03*
D24*
X134357854Y-51029383D03*
D25*
X134357854Y-40869383D03*
D24*
X191707854Y-42209383D03*
D25*
X191707854Y-52369383D03*
D24*
X142847854Y-68429383D03*
D25*
X153007854Y-68429383D03*
D24*
X57357854Y-45529383D03*
D25*
X57357854Y-35369383D03*
D24*
X57357854Y-58029383D03*
D25*
X57357854Y-47869383D03*
D24*
X43597854Y-57869383D03*
D25*
X53757854Y-57869383D03*
D24*
X61647854Y-46839383D03*
D25*
X61647854Y-56999383D03*
D24*
X191707854Y-65909383D03*
D25*
X191707854Y-76069383D03*
D31*
X139087854Y-104409383D03*
X136547854Y-104409383D03*
D32*
X134007854Y-104409383D03*
D31*
X159087854Y-104409383D03*
X156547854Y-104409383D03*
D32*
X154007854Y-104409383D03*
D31*
X160087854Y-57409383D03*
X157547854Y-57409383D03*
D32*
X155007854Y-57409383D03*
D11*
X130427854Y-119819383D03*
X132967854Y-119819383D03*
X135507854Y-119819383D03*
X138047854Y-119819383D03*
X140587854Y-119819383D03*
X143127854Y-119819383D03*
X145667854Y-119819383D03*
D12*
X148207854Y-119819383D03*
D26*
X34357854Y-109356883D03*
X34357854Y-105656883D03*
X70857854Y-126569383D03*
X70857854Y-122869383D03*
X34357854Y-121069383D03*
X34357854Y-117369383D03*
X34157854Y-82131883D03*
X34157854Y-85831883D03*
X101857854Y-126569383D03*
X101857854Y-122869383D03*
X34357854Y-97644383D03*
X34357854Y-93944383D03*
X86357854Y-126569383D03*
X86357854Y-122869383D03*
X141607854Y-59169383D03*
X141607854Y-62869383D03*
D11*
X60897854Y-84869383D03*
D12*
X58357854Y-84869383D03*
D11*
X121857854Y-98189383D03*
X121857854Y-95649383D03*
X121857854Y-93109383D03*
D12*
X121857854Y-90569383D03*
D11*
X65937854Y-80869383D03*
X63397854Y-80869383D03*
D12*
X60857854Y-80869383D03*
D26*
X117357854Y-126569383D03*
X117357854Y-122869383D03*
D11*
X135632854Y-85669383D03*
D12*
X139132854Y-90869383D03*
D11*
X156607854Y-85669383D03*
D12*
X160107854Y-90869383D03*
D11*
X172857854Y-85669383D03*
D12*
X176357854Y-90869383D03*
D11*
X121457854Y-49639383D03*
X121457854Y-47099383D03*
X121457854Y-44559383D03*
D12*
X121457854Y-42019383D03*
D11*
X37857854Y-42089383D03*
X37857854Y-44629383D03*
X37857854Y-47169383D03*
X37857854Y-49709383D03*
X37857854Y-52249383D03*
X37857854Y-54789383D03*
X37857854Y-57329383D03*
D12*
X37857854Y-59869383D03*
D11*
X107437854Y-67869383D03*
X104897854Y-67869383D03*
D12*
X102357854Y-67869383D03*
D11*
X170807854Y-38219383D03*
D12*
X174307854Y-43419383D03*
D11*
X152757854Y-38219383D03*
D12*
X156257854Y-43419383D03*
D34*
X164317854Y-71389383D03*
D35*
X174477854Y-71389383D03*
D34*
X130707854Y-81759383D03*
D35*
X130707854Y-91919383D03*
D34*
X151682854Y-81759383D03*
D35*
X151682854Y-91919383D03*
D34*
X147927854Y-35409383D03*
D35*
X147927854Y-45569383D03*
D36*
X94857854Y-56369383D03*
X94857854Y-51369383D03*
X143357854Y-114869383D03*
X130357854Y-107369383D03*
X118857854Y-75369383D03*
X80984853Y-103194384D03*
X107230859Y-94494382D03*
X55250861Y-52257594D03*
X107857854Y-95869383D03*
X56821854Y-53951383D03*
X59107854Y-62587383D03*
X66727854Y-72239383D03*
X111348051Y-95844383D03*
X92347854Y-105394383D03*
X85777854Y-105513383D03*
X59107854Y-53951383D03*
X60631854Y-61219383D03*
X119857854Y-37869383D03*
X86357854Y-66369383D03*
X121857854Y-70844373D03*
X76857854Y-54869383D03*
X84907854Y-68419383D03*
X70857854Y-53369383D03*
X118857854Y-58369383D03*
X57357854Y-117369383D03*
X51829062Y-97398175D03*
X45899854Y-77573383D03*
X53857854Y-113369383D03*
X58857854Y-116369383D03*
X67857854Y-115869383D03*
X115357854Y-109369383D03*
X110857854Y-106369383D03*
X103857854Y-95869385D03*
X89857854Y-101844383D03*
X63171854Y-95861383D03*
X72357854Y-87019382D03*
D37*
X180857854Y-37569383D02*
X176157854Y-37569383D01*
X176157854Y-37569383D02*
X174357854Y-39369383D01*
X174357854Y-39369383D02*
X174357854Y-43869383D01*
X174357854Y-43869383D02*
X174357854Y-48869383D01*
X174357854Y-48869383D02*
X171857854Y-51369383D01*
X171857854Y-55369383D02*
X171857854Y-51369383D01*
X171997854Y-55509383D02*
X171857854Y-55369383D01*
X171997854Y-57509383D02*
X171997854Y-55509383D01*
X172357854Y-59869383D02*
X179226484Y-59869383D01*
X171997854Y-59509383D02*
X172357854Y-59869383D01*
X171997854Y-57509383D02*
X171997854Y-59509383D01*
X179226484Y-59869383D02*
X180357854Y-59869383D01*
X151897854Y-50649383D02*
X156637854Y-50649383D01*
X156637854Y-50649383D02*
X159857854Y-53869383D01*
X159857854Y-53869383D02*
X159857854Y-57369383D01*
X180357854Y-59869383D02*
X185857854Y-65369383D01*
X185857854Y-65369383D02*
X192357854Y-58869383D01*
X192357854Y-58869383D02*
X196357854Y-58869383D01*
X196357854Y-58869383D02*
X198857854Y-61369383D01*
X198857854Y-61369383D02*
X198857854Y-63369383D01*
X197639224Y-35119383D02*
X198857854Y-36338013D01*
X196507854Y-35119383D02*
X197639224Y-35119383D01*
X198857854Y-36338013D02*
X198857854Y-37869383D01*
X187029427Y-36869383D02*
X186029427Y-37869383D01*
X189857854Y-36869383D02*
X187029427Y-36869383D01*
X186029427Y-37869383D02*
X180857854Y-37869383D01*
X109447855Y-34619382D02*
X116107853Y-34619382D01*
X107697854Y-36369383D02*
X109447855Y-34619382D01*
X116107853Y-34619382D02*
X117857854Y-36369383D01*
X141807854Y-44019383D02*
X141807854Y-58819383D01*
X141807854Y-58819383D02*
X141857854Y-58869383D01*
X108357854Y-68789383D02*
X108357854Y-69869383D01*
X107437854Y-67869383D02*
X108357854Y-68789383D01*
X139107854Y-59169383D02*
X137407854Y-60869383D01*
X141607854Y-59169383D02*
X139107854Y-59169383D01*
X120357854Y-41869383D02*
X121357854Y-41869383D01*
X117857854Y-39369383D02*
X120357854Y-41869383D01*
X117857854Y-36369383D02*
X117857854Y-39369383D01*
X94857854Y-67369383D02*
X94857854Y-62869383D01*
X95357854Y-67869383D02*
X94857854Y-67369383D01*
X94857854Y-56369383D02*
X94857854Y-52369383D01*
X94857854Y-52369383D02*
X94857854Y-51369383D01*
X44397853Y-57069384D02*
X44397853Y-53829384D01*
X43597854Y-57869383D02*
X44397853Y-57069384D01*
X44397853Y-53829384D02*
X44857854Y-53369383D01*
X46357854Y-41869383D02*
X43857854Y-41869383D01*
X41857854Y-43869383D02*
X41857854Y-50869383D01*
X41857854Y-50869383D02*
X44357854Y-53369383D01*
X39827853Y-40339382D02*
X42607854Y-43119383D01*
X37656280Y-40339382D02*
X39827853Y-40339382D01*
X34186281Y-36869383D02*
X37656280Y-40339382D01*
X31357854Y-36869383D02*
X34186281Y-36869383D01*
X42607854Y-43119383D02*
X41857854Y-43869383D01*
X43857854Y-41869383D02*
X42607854Y-43119383D01*
X179857854Y-75369383D02*
X162857854Y-75369383D01*
X162857854Y-75369383D02*
X161357854Y-73869383D01*
X181157853Y-74069384D02*
X179857854Y-75369383D01*
X181157853Y-60669382D02*
X181157853Y-74069384D01*
X180357854Y-59869383D02*
X181157853Y-60669382D01*
X161357854Y-69068013D02*
X161357854Y-73869383D01*
X163386484Y-67039383D02*
X161357854Y-69068013D01*
X164517854Y-67039383D02*
X163386484Y-67039383D01*
X183357854Y-84369383D02*
X176857854Y-90869383D01*
X196507854Y-84519383D02*
X191207854Y-84519383D01*
X191207854Y-84686049D02*
X191207854Y-84519383D01*
X186357854Y-89536049D02*
X191207854Y-84686049D01*
X198929854Y-86899883D02*
X196399354Y-84369383D01*
X198929854Y-88169883D02*
X198929854Y-86899883D01*
X196399354Y-84369383D02*
X196357854Y-84369383D01*
X196857854Y-108869383D02*
X197657853Y-109669382D01*
X197657853Y-109669382D02*
X198857854Y-110869383D01*
X198857854Y-110869383D02*
X198857854Y-112869383D01*
X196857854Y-108869383D02*
X189857854Y-108869383D01*
X189857854Y-108869383D02*
X185357854Y-113369383D01*
X176357854Y-92719383D02*
X177357854Y-93719383D01*
X176357854Y-90869383D02*
X176357854Y-92719383D01*
X177357854Y-93719383D02*
X177357854Y-95869383D01*
X177357854Y-95869383D02*
X173857854Y-99369383D01*
X173857854Y-99369383D02*
X173857854Y-104369383D01*
X173547854Y-104409383D02*
X173547854Y-108179383D01*
X173547854Y-108179383D02*
X171357854Y-110369383D01*
X186357854Y-89536049D02*
X186357854Y-92869383D01*
X186357854Y-92869383D02*
X184357855Y-94869382D01*
X184357855Y-112369384D02*
X185357854Y-113369383D01*
X184357855Y-94869382D02*
X184357855Y-100369382D01*
X184357855Y-100369382D02*
X177357855Y-100369382D01*
X184357855Y-100369382D02*
X184357855Y-112369384D01*
X177357855Y-100369382D02*
X173357854Y-104369383D01*
X158843640Y-98369384D02*
X142857855Y-98369384D01*
X142857855Y-98369384D02*
X141857853Y-97369382D01*
X160743641Y-96469383D02*
X158843640Y-98369384D01*
X162157854Y-96469383D02*
X160743641Y-96469383D01*
X141857853Y-97369382D02*
X140857854Y-96369383D01*
X140857854Y-97783596D02*
X139357854Y-99283596D01*
X140857854Y-96369383D02*
X140857854Y-97783596D01*
X139357854Y-99283596D02*
X139357854Y-104369383D01*
X171357854Y-110369383D02*
X166857854Y-114869383D01*
X166857854Y-114869383D02*
X147357854Y-114869383D01*
X147357854Y-114869383D02*
X146377941Y-114869383D01*
X146377941Y-114869383D02*
X143357854Y-114869383D01*
X126277854Y-55289383D02*
X131857854Y-60869383D01*
X123357854Y-55289383D02*
X126277854Y-55289383D01*
X137407854Y-60869383D02*
X131857854Y-60869383D01*
X117857854Y-62132885D02*
X117857854Y-64869383D01*
X123357854Y-56632885D02*
X117857854Y-62132885D01*
X123357854Y-55289383D02*
X123357854Y-56632885D01*
X117857854Y-64869383D02*
X114857854Y-68369383D01*
X34157854Y-75969383D02*
X28857854Y-81269383D01*
X34157854Y-74119383D02*
X34157854Y-75969383D01*
X28857854Y-116869383D02*
X32857854Y-120869383D01*
X32857854Y-120869383D02*
X34357854Y-120869383D01*
X28870354Y-109356883D02*
X28857854Y-109369383D01*
X34357854Y-109356883D02*
X28870354Y-109356883D01*
X28857854Y-109369383D02*
X28857854Y-116869383D01*
X29132854Y-97644383D02*
X28857854Y-97369383D01*
X34357854Y-97644383D02*
X29132854Y-97644383D01*
X28857854Y-97369383D02*
X28857854Y-109369383D01*
X29095354Y-82131883D02*
X28857854Y-82369383D01*
X34157854Y-82131883D02*
X29095354Y-82131883D01*
X28857854Y-82369383D02*
X28857854Y-97369383D01*
X28857854Y-81269383D02*
X28857854Y-82369383D01*
X55357854Y-126569383D02*
X55357854Y-129869383D01*
X35857854Y-129869383D02*
X34357854Y-128369383D01*
X55357854Y-129869383D02*
X35857854Y-129869383D01*
X70857854Y-126569383D02*
X70857854Y-129944373D01*
X55432844Y-129944373D02*
X55357854Y-129869383D01*
X70857854Y-129944373D02*
X55432844Y-129944373D01*
X101857854Y-128419383D02*
X100332864Y-129944373D01*
X101857854Y-126569383D02*
X101857854Y-128419383D01*
X100332864Y-129944373D02*
X86432844Y-129944373D01*
X86432844Y-129944373D02*
X86357854Y-129869383D01*
X86357854Y-129869383D02*
X86357854Y-126369383D01*
X80282864Y-129944373D02*
X70857854Y-129944373D01*
X80357854Y-129869383D02*
X80282864Y-129944373D01*
X86357854Y-129869383D02*
X80357854Y-129869383D01*
X36182854Y-72269383D02*
X35957854Y-72269383D01*
X35957854Y-72269383D02*
X34357854Y-73869383D01*
X118857854Y-87219383D02*
X121857854Y-90219383D01*
X118857854Y-85369383D02*
X118857854Y-87219383D01*
X121857854Y-90219383D02*
X121857854Y-90369383D01*
X121857854Y-90569383D02*
X125557854Y-90569383D01*
X125557854Y-90569383D02*
X125857854Y-90869383D01*
X108697854Y-85369383D02*
X108697854Y-83709383D01*
X108697854Y-83709383D02*
X107857854Y-82869383D01*
X107857854Y-82869383D02*
X99857854Y-82869383D01*
X117357854Y-126569383D02*
X117357854Y-128419383D01*
X100547853Y-129729384D02*
X100332864Y-129944373D01*
X116047853Y-129729384D02*
X100547853Y-129729384D01*
X117357854Y-128419383D02*
X116047853Y-129729384D01*
X116047853Y-129729384D02*
X139717855Y-129729384D01*
X139717855Y-129729384D02*
X142857854Y-126589385D01*
X142857854Y-126589385D02*
X142857854Y-119869383D01*
X130807853Y-107819382D02*
X130357854Y-107369383D01*
X137857854Y-114869383D02*
X130807853Y-107819382D01*
X143357854Y-114869383D02*
X137857854Y-114869383D01*
X80997854Y-110649383D02*
X80997854Y-113229383D01*
X80997854Y-113229383D02*
X79357854Y-114869383D01*
X60857854Y-80869383D02*
X60857854Y-84369383D01*
X60857854Y-84369383D02*
X60857854Y-84869383D01*
X119357854Y-72869383D02*
X114857854Y-68369383D01*
X160357854Y-72869383D02*
X119357854Y-72869383D01*
X161357854Y-73869383D02*
X160357854Y-72869383D01*
X118857854Y-73369383D02*
X119357854Y-72869383D01*
X118857854Y-75369383D02*
X118857854Y-73369383D01*
X71757855Y-70269384D02*
X69857854Y-68369383D01*
X93457853Y-70269384D02*
X71757855Y-70269384D01*
X95357854Y-68369383D02*
X93457853Y-70269384D01*
X95357854Y-67869383D02*
X95357854Y-68369383D01*
X99857854Y-82869383D02*
X99857854Y-82369383D01*
X99857854Y-82369383D02*
X98857854Y-81369383D01*
X98857854Y-81369383D02*
X98857854Y-80869383D01*
X98857854Y-80869383D02*
X98357854Y-80369383D01*
X98357854Y-80369383D02*
X97512864Y-80369383D01*
X97857854Y-70369383D02*
X95357854Y-67869383D01*
X107857854Y-70369383D02*
X97857854Y-70369383D01*
X108357854Y-69869383D02*
X107857854Y-70369383D01*
X108857854Y-70369383D02*
X108357854Y-69869383D01*
X114357854Y-70369383D02*
X108857854Y-70369383D01*
X114857854Y-69869383D02*
X114357854Y-70369383D01*
X114857854Y-68369383D02*
X114857854Y-69869383D01*
X38707853Y-55639382D02*
X37857854Y-54789383D01*
X42937854Y-59869383D02*
X38707853Y-55639382D01*
X57357854Y-58029383D02*
X57357854Y-59869383D01*
X87857854Y-39869383D02*
X89857854Y-41869383D01*
X89857854Y-41869383D02*
X89857854Y-42369383D01*
X43597854Y-57869383D02*
X43597854Y-59609383D01*
X43597854Y-59609383D02*
X43857854Y-59869383D01*
X43857854Y-59869383D02*
X42937854Y-59869383D01*
X57357854Y-59869383D02*
X43857854Y-59869383D01*
X89717854Y-43089383D02*
X89717854Y-45439383D01*
X94797854Y-60869383D02*
X94797854Y-63219383D01*
X75917854Y-92529383D02*
X75871854Y-92575383D01*
X75917854Y-90329383D02*
X75917854Y-92529383D01*
X80997854Y-110309383D02*
X80951854Y-110355383D01*
X80997854Y-108109383D02*
X80997854Y-110309383D01*
X34195854Y-126869383D02*
X34215854Y-126849383D01*
X31357854Y-126869383D02*
X34195854Y-126869383D01*
X34215854Y-126849383D02*
X34357854Y-120869383D01*
X34357854Y-128369383D02*
X34215854Y-126849383D01*
X112277854Y-99025881D02*
X114225854Y-97077881D01*
X112277854Y-100369383D02*
X112277854Y-99025881D01*
X107230859Y-94494382D02*
X102053858Y-99671383D01*
X111996052Y-94494382D02*
X107230859Y-94494382D01*
X114225854Y-96724184D02*
X111996052Y-94494382D01*
X114225854Y-97077881D02*
X114225854Y-96724184D01*
X102053858Y-99671383D02*
X102033854Y-99671383D01*
X98510853Y-103194384D02*
X80984853Y-103194384D01*
X102033854Y-99671383D02*
X98510853Y-103194384D01*
X58449854Y-58777383D02*
X57357854Y-59869383D01*
X94857854Y-56369383D02*
X74028139Y-56369383D01*
X64449854Y-58777383D02*
X58449854Y-58777383D01*
X64857854Y-58369383D02*
X64449854Y-58777383D01*
X72028139Y-58369383D02*
X64857854Y-58369383D01*
X74028139Y-56369383D02*
X72028139Y-58369383D01*
D38*
X55250861Y-52105006D02*
X55250861Y-52257594D01*
X61647854Y-46839383D02*
X60516484Y-46839383D01*
X60516484Y-46839383D02*
X55250861Y-52105006D01*
D37*
X149027853Y-36509382D02*
X150997853Y-36509382D01*
X147927854Y-35409383D02*
X149027853Y-36509382D01*
X150997853Y-36509382D02*
X152857854Y-38369383D01*
X152857854Y-38369383D02*
X156357854Y-34869383D01*
X156357854Y-34869383D02*
X162857854Y-34869383D01*
X162857854Y-34869383D02*
X163357854Y-35369383D01*
D38*
X121857854Y-98189383D02*
X121857854Y-101869383D01*
X91357854Y-104369383D02*
X88357854Y-107369383D01*
X101857854Y-104369383D02*
X91357854Y-104369383D01*
X88357854Y-107369383D02*
X88357854Y-107869383D01*
X107857854Y-98369383D02*
X101857854Y-104369383D01*
X107857854Y-95869383D02*
X107857854Y-98369383D01*
X71937854Y-43089383D02*
X71937854Y-45289383D01*
X88617854Y-108109383D02*
X88617854Y-110801383D01*
X121857854Y-102709383D02*
X121857854Y-101869383D01*
X61901854Y-48871383D02*
X56821854Y-53951383D01*
X68500411Y-48871383D02*
X61901854Y-48871383D01*
X71742411Y-45629383D02*
X68500411Y-48871383D01*
X71937854Y-45629383D02*
X71742411Y-45629383D01*
X61335853Y-63037382D02*
X65723844Y-67425373D01*
X59557853Y-63037382D02*
X61335853Y-63037382D01*
X65723844Y-67425373D02*
X65723844Y-71235373D01*
X59107854Y-62587383D02*
X59557853Y-63037382D01*
X65723844Y-71235373D02*
X66727854Y-72239383D01*
X53011854Y-80875383D02*
X57075854Y-76811383D01*
X53011854Y-92627940D02*
X53011854Y-80875383D01*
X58023297Y-97639383D02*
X53011854Y-92627940D01*
X91357854Y-104369383D02*
X80315854Y-104369383D01*
X80315854Y-104369383D02*
X73585854Y-97639383D01*
X73585854Y-97639383D02*
X58023297Y-97639383D01*
X57075854Y-76811383D02*
X74601854Y-76811383D01*
X123059935Y-95649383D02*
X125779935Y-98369383D01*
X121857854Y-95649383D02*
X123059935Y-95649383D01*
X125779935Y-98369383D02*
X125857854Y-98369383D01*
X111357854Y-95930057D02*
X111357854Y-95854186D01*
X101918528Y-105369383D02*
X111357854Y-95930057D01*
X92347854Y-105369383D02*
X101918528Y-105369383D01*
X91157854Y-106559383D02*
X92347854Y-105369383D01*
X111357854Y-95854186D02*
X111348051Y-95844383D01*
X91157854Y-108109383D02*
X91157854Y-106559383D01*
X74477854Y-44639383D02*
X74357854Y-44759383D01*
X74477854Y-43089383D02*
X74477854Y-44639383D01*
X74357854Y-44759383D02*
X74357854Y-45869383D01*
X91157854Y-109659383D02*
X91365854Y-109867383D01*
X91157854Y-108109383D02*
X91157854Y-109659383D01*
X92347854Y-105369383D02*
X92347854Y-105394383D01*
X74477854Y-47179383D02*
X71007854Y-50649383D01*
X74477854Y-45629383D02*
X74477854Y-47179383D01*
X71007854Y-50649383D02*
X62409854Y-50649383D01*
X62409854Y-50649383D02*
X59107854Y-53951383D01*
X71860178Y-73763383D02*
X66473854Y-68377059D01*
X74601854Y-73763383D02*
X71860178Y-73763383D01*
X66473854Y-68377059D02*
X66473854Y-66905383D01*
X66473854Y-66905383D02*
X60885854Y-61317383D01*
X60787854Y-61219383D02*
X60631854Y-61219383D01*
X60885854Y-61317383D02*
X60787854Y-61219383D01*
X52261843Y-92938604D02*
X57712633Y-98389394D01*
X52261843Y-80564719D02*
X52261843Y-92938604D01*
X59063179Y-73763383D02*
X52261843Y-80564719D01*
X57712633Y-98389394D02*
X72303865Y-98389394D01*
X85141458Y-105513383D02*
X85777854Y-105513383D01*
X72303865Y-98389394D02*
X79427854Y-105513383D01*
X74601854Y-73763383D02*
X59063179Y-73763383D01*
X79427854Y-105513383D02*
X85141458Y-105513383D01*
X155007854Y-57409383D02*
X155007854Y-66219383D01*
X155007854Y-66219383D02*
X152857854Y-68369383D01*
X154007854Y-105759383D02*
X153857854Y-105909383D01*
X154007854Y-104409383D02*
X154007854Y-105759383D01*
X153857854Y-105909383D02*
X153857854Y-108869383D01*
X153857854Y-108869383D02*
X151857854Y-110869383D01*
X133857854Y-104559383D02*
X133857854Y-106369383D01*
X133857854Y-106369383D02*
X138357854Y-110869383D01*
X134007854Y-104409383D02*
X133857854Y-104559383D01*
X196389854Y-63169883D02*
X194057354Y-63169883D01*
X194057354Y-63169883D02*
X191857854Y-65369383D01*
X191857854Y-65369383D02*
X191857854Y-65869383D01*
X57357854Y-47869383D02*
X57357854Y-45369383D01*
X54277854Y-50949383D02*
X56557855Y-48669382D01*
X52627854Y-50949383D02*
X54277854Y-50949383D01*
X56557855Y-48669382D02*
X57357854Y-47869383D01*
X55982853Y-36244384D02*
X55982853Y-45244384D01*
X57357854Y-34869383D02*
X55982853Y-36244384D01*
X55982853Y-45244384D02*
X52857854Y-48369383D01*
X195627854Y-38169883D02*
X191857854Y-41939883D01*
X196389854Y-38169883D02*
X195627854Y-38169883D01*
X191857854Y-41939883D02*
X191857854Y-42369383D01*
X196389854Y-113169883D02*
X192057354Y-113169883D01*
X192057354Y-113169883D02*
X191857854Y-113369383D01*
X104957854Y-63409383D02*
X104957854Y-67769383D01*
X104957854Y-60869383D02*
X104957854Y-63219383D01*
X102417854Y-63409383D02*
X102417854Y-67809383D01*
X102417854Y-62419383D02*
X103347854Y-63349383D01*
X102417854Y-60869383D02*
X102417854Y-62419383D01*
X102417854Y-60869383D02*
X102417854Y-63219383D01*
X112577854Y-63409383D02*
X112577854Y-68149383D01*
X112577854Y-60869383D02*
X112577854Y-63219383D01*
X147217855Y-55169382D02*
X147217855Y-57509382D01*
X148017854Y-54369383D02*
X147217855Y-55169382D01*
X147217855Y-57509382D02*
X141857854Y-62869383D01*
X115117854Y-60869383D02*
X115117854Y-63219383D01*
X141967854Y-35519383D02*
X141967854Y-40259383D01*
X141967854Y-40259383D02*
X141857854Y-40369383D01*
X115117854Y-43089383D02*
X115117854Y-45445383D01*
X115117854Y-45445383D02*
X115241854Y-45569383D01*
X137357854Y-38369383D02*
X132857854Y-33869383D01*
X137357854Y-49679383D02*
X137357854Y-38369383D01*
X132857854Y-33869383D02*
X128857854Y-33869383D01*
X137997854Y-50319383D02*
X137357854Y-49679383D01*
X119857854Y-37869383D02*
X119857854Y-35869383D01*
X128432855Y-34294382D02*
X128857854Y-33869383D01*
X121432855Y-34294382D02*
X128432855Y-34294382D01*
X119857854Y-35869383D02*
X121432855Y-34294382D01*
X112577854Y-43089383D02*
X112577854Y-45445383D01*
X112577854Y-45445383D02*
X112701854Y-45569383D01*
X67857854Y-67369383D02*
X69357854Y-65869383D01*
X67857854Y-68700385D02*
X67857854Y-67369383D01*
X69357854Y-65869383D02*
X69357854Y-63369383D01*
X85857854Y-71869383D02*
X71026852Y-71869383D01*
X90857854Y-76869383D02*
X85857854Y-71869383D01*
X71026852Y-71869383D02*
X67857854Y-68700385D01*
X181857854Y-76869383D02*
X90857854Y-76869383D01*
X186857854Y-75869383D02*
X182857854Y-75869383D01*
X191707854Y-76069383D02*
X187057854Y-76069383D01*
X182857854Y-75869383D02*
X181857854Y-76869383D01*
X187057854Y-76069383D02*
X186857854Y-75869383D01*
X69397854Y-60869383D02*
X69397854Y-63219383D01*
X191707854Y-52369383D02*
X186357854Y-52369383D01*
X186357854Y-52369383D02*
X185857854Y-51869383D01*
X79557854Y-64959383D02*
X80967854Y-66369383D01*
X79557854Y-63409383D02*
X79557854Y-64959383D01*
X80967854Y-66369383D02*
X86357854Y-66369383D01*
X79557854Y-60869383D02*
X79557854Y-63219383D01*
X142847854Y-68429383D02*
X140432864Y-70844373D01*
X140432864Y-70844373D02*
X122494250Y-70844373D01*
X122494250Y-70844373D02*
X121857854Y-70844373D01*
X71937854Y-60869383D02*
X71937854Y-63219383D01*
X77017854Y-60869383D02*
X77017854Y-63219383D01*
X46557854Y-49559383D02*
X45407854Y-48409383D01*
X46557854Y-49763940D02*
X46557854Y-49559383D01*
X60483854Y-55369383D02*
X52163297Y-55369383D01*
X74161854Y-52173383D02*
X63679854Y-52173383D01*
X52163297Y-55369383D02*
X46557854Y-49763940D01*
X45407854Y-48409383D02*
X45007854Y-48409383D01*
X63679854Y-52173383D02*
X60483854Y-55369383D01*
X76857854Y-54869383D02*
X74161854Y-52173383D01*
X105157854Y-36369383D02*
X102357854Y-39169383D01*
X102357854Y-39169383D02*
X102357854Y-43369383D01*
X102417854Y-43089383D02*
X102417854Y-45439383D01*
X110237854Y-36369383D02*
X104857854Y-41749383D01*
X104857854Y-41749383D02*
X104857854Y-42869383D01*
X104957854Y-43089383D02*
X104957854Y-45693383D01*
X110037854Y-43089383D02*
X110037854Y-45445383D01*
X110037854Y-45445383D02*
X110161854Y-45569383D01*
X82097854Y-43089383D02*
X82097854Y-45439383D01*
X84637854Y-43089383D02*
X84637854Y-45439383D01*
X97337854Y-60869383D02*
X97337854Y-63219383D01*
X99877854Y-60869383D02*
X99877854Y-63219383D01*
X89717854Y-60869383D02*
X89717854Y-63219383D01*
X84637854Y-60869383D02*
X84637854Y-63219383D01*
X87177854Y-60869383D02*
X87177854Y-63219383D01*
X107497854Y-60869383D02*
X107497854Y-63219383D01*
X110037854Y-60869383D02*
X110037854Y-63219383D01*
X93697854Y-108109383D02*
X93697854Y-110801383D01*
X86077854Y-108109383D02*
X86077854Y-110547383D01*
X58357854Y-84869383D02*
X58357854Y-89369383D01*
X58357854Y-89369383D02*
X57857854Y-89869383D01*
X57857854Y-89869383D02*
X57857854Y-90369383D01*
X58137854Y-91879383D02*
X58345854Y-92087383D01*
X58137854Y-90329383D02*
X58137854Y-91879383D01*
X75917854Y-108109383D02*
X75917854Y-110547383D01*
X75857854Y-106869383D02*
X75857854Y-107369383D01*
X71357855Y-102369384D02*
X75857854Y-106869383D01*
X59519855Y-102369384D02*
X71357855Y-102369384D01*
X51487854Y-94337383D02*
X59519855Y-102369384D01*
X51487854Y-77399383D02*
X51487854Y-94337383D01*
X51517854Y-77369383D02*
X51487854Y-77399383D01*
D37*
X174537854Y-57509383D02*
X177717854Y-57509383D01*
X177717854Y-57509383D02*
X180357854Y-54869383D01*
X201507854Y-58919383D02*
X201507854Y-63219383D01*
X201507854Y-63219383D02*
X201357854Y-63369383D01*
X181162364Y-55673893D02*
X191662364Y-55673893D01*
X180357854Y-54869383D02*
X181162364Y-55673893D01*
X191662364Y-55673893D02*
X192857854Y-56869383D01*
X199357854Y-56869383D02*
X201357854Y-58869383D01*
X194727844Y-56499393D02*
X194357854Y-56869383D01*
X201357854Y-40369383D02*
X194727844Y-46999393D01*
X201507854Y-36250753D02*
X201357854Y-36400753D01*
X194727844Y-46999393D02*
X194727844Y-56499393D01*
X201357854Y-36400753D02*
X201357854Y-40369383D01*
X201507854Y-35119383D02*
X201507854Y-36250753D01*
X194357854Y-56869383D02*
X199357854Y-56869383D01*
X192857854Y-56869383D02*
X194357854Y-56869383D01*
X134357854Y-40869383D02*
X130357854Y-40869383D01*
X130357854Y-40869383D02*
X126857854Y-44369383D01*
X126857854Y-44369383D02*
X121357854Y-44369383D01*
X131807854Y-35519383D02*
X131807854Y-39419383D01*
X131807854Y-39419383D02*
X130357854Y-40869383D01*
X136057855Y-42569384D02*
X136057855Y-52569384D01*
X136057855Y-52569384D02*
X137057855Y-53569384D01*
X134357854Y-40869383D02*
X136057855Y-42569384D01*
X137057855Y-53569384D02*
X137857854Y-54369383D01*
X78607855Y-38119384D02*
X80607853Y-38119384D01*
X76357854Y-35869383D02*
X78607855Y-38119384D01*
X80607853Y-38119384D02*
X82357854Y-36369383D01*
X115317854Y-37909383D02*
X113357854Y-39869383D01*
X115317854Y-36369383D02*
X115317854Y-37909383D01*
X36107853Y-61439384D02*
X39637851Y-64969382D01*
X36655773Y-57329383D02*
X36107853Y-57877303D01*
X36107853Y-57877303D02*
X36107853Y-61439384D01*
X37857854Y-57329383D02*
X36655773Y-57329383D01*
X52157853Y-42669382D02*
X52157853Y-45669382D01*
X51357854Y-41869383D02*
X52157853Y-42669382D01*
X52157853Y-45669382D02*
X52357854Y-45869383D01*
X85457854Y-67869383D02*
X84907854Y-68419383D01*
X90357854Y-67869383D02*
X85457854Y-67869383D01*
X84907854Y-73869383D02*
X84907854Y-76819383D01*
X61647854Y-55868013D02*
X64146484Y-53369383D01*
X61647854Y-56999383D02*
X61647854Y-55868013D01*
X64146484Y-53369383D02*
X70857854Y-53369383D01*
X82857854Y-39869383D02*
X82857854Y-37509381D01*
X82857854Y-39869383D02*
X84857854Y-39869383D01*
X84857854Y-39869383D02*
X86857854Y-41869383D01*
X86857854Y-41869383D02*
X86857854Y-42369383D01*
X82857854Y-37509381D02*
X82857854Y-36869383D01*
X82857854Y-36869383D02*
X82357854Y-36369383D01*
X50957853Y-64969382D02*
X50757855Y-64969382D01*
X53857854Y-67869383D02*
X50957853Y-64969382D01*
X39637851Y-64969382D02*
X50757855Y-64969382D01*
X87177854Y-43089383D02*
X87177854Y-45439383D01*
X92257854Y-60869383D02*
X92257854Y-63219383D01*
X120067854Y-44553383D02*
X121041854Y-44553383D01*
X121041854Y-44553383D02*
X121357854Y-44869383D01*
X115383854Y-39869383D02*
X120067854Y-44553383D01*
X113357854Y-39869383D02*
X115383854Y-39869383D01*
X170807854Y-38219383D02*
X173657854Y-35369383D01*
X173657854Y-35369383D02*
X179857854Y-35369383D01*
X179857854Y-35369383D02*
X180857854Y-35369383D01*
X169457854Y-57509383D02*
X169457854Y-48969383D01*
X169457854Y-48969383D02*
X170857854Y-47569383D01*
X170857854Y-47569383D02*
X170857854Y-38369383D01*
X163167854Y-45119383D02*
X163167854Y-49559383D01*
X163167854Y-49559383D02*
X161857854Y-50869383D01*
X158107854Y-43419383D02*
X159557854Y-44869383D01*
X156257854Y-43419383D02*
X158107854Y-43419383D01*
X159557854Y-44869383D02*
X163357854Y-44869383D01*
X154407854Y-43419383D02*
X152457854Y-45369383D01*
X156257854Y-43419383D02*
X154407854Y-43419383D01*
X152457854Y-45369383D02*
X147857854Y-45369383D01*
X170807854Y-38219383D02*
X161507854Y-38219383D01*
X161507854Y-38219383D02*
X156357854Y-43369383D01*
X169457854Y-59509383D02*
X173317854Y-63369383D01*
X169457854Y-57509383D02*
X169457854Y-59509383D01*
X173317854Y-63369383D02*
X174857854Y-63369383D01*
D38*
X174677854Y-67039383D02*
X168527854Y-67039383D01*
X168527854Y-67039383D02*
X164857854Y-63369383D01*
X165417853Y-70289384D02*
X165417853Y-70149384D01*
X165417853Y-70149384D02*
X168527854Y-67039383D01*
X164317854Y-71389383D02*
X165417853Y-70289384D01*
X82097854Y-59319383D02*
X83047854Y-58369383D01*
X82097854Y-60869383D02*
X82097854Y-59319383D01*
X83047854Y-58369383D02*
X118857854Y-58369383D01*
X82097854Y-60869383D02*
X82097854Y-63219383D01*
X69397854Y-43089383D02*
X69397854Y-45829383D01*
X66857854Y-43089383D02*
X66857854Y-45369383D01*
X121457854Y-49639383D02*
X79127854Y-49639383D01*
X79127854Y-49639383D02*
X76857854Y-47369383D01*
X76857854Y-47369383D02*
X76857854Y-45369383D01*
X121457854Y-49639383D02*
X125127854Y-49639383D01*
X127892855Y-52404384D02*
X125127854Y-49639383D01*
X132982853Y-52404384D02*
X127892855Y-52404384D01*
X134357854Y-51029383D02*
X132982853Y-52404384D01*
X77017854Y-43089383D02*
X77017854Y-45709383D01*
X77017854Y-45709383D02*
X76857854Y-45869383D01*
X120607855Y-47949382D02*
X81437853Y-47949382D01*
X121457854Y-47099383D02*
X120607855Y-47949382D01*
X81437853Y-47949382D02*
X79357854Y-45869383D01*
X121457854Y-47099383D02*
X126587854Y-47099383D01*
X126587854Y-47099383D02*
X130357854Y-50869383D01*
X79557854Y-44639383D02*
X79357854Y-44839383D01*
X79557854Y-43089383D02*
X79557854Y-44639383D01*
X79357854Y-44839383D02*
X79357854Y-45869383D01*
X74477854Y-60869383D02*
X74477854Y-63219383D01*
X143832854Y-43379115D02*
X143882864Y-43429125D01*
X143882864Y-43429125D02*
X143882864Y-48344373D01*
X143832854Y-42119383D02*
X143832854Y-43379115D01*
X143882864Y-48344373D02*
X145907874Y-50369383D01*
X145907874Y-50369383D02*
X148357854Y-50369383D01*
D37*
X183357854Y-82369383D02*
X175857854Y-82369383D01*
X175857854Y-82369383D02*
X172857854Y-85369383D01*
X172857854Y-85369383D02*
X172857854Y-85869383D01*
X172857854Y-85669383D02*
X172857854Y-95369383D01*
X172857854Y-95369383D02*
X172357854Y-95869383D01*
X172357854Y-95869383D02*
X170857854Y-97369383D01*
X170857854Y-97369383D02*
X170857854Y-104369383D01*
X172857854Y-85669383D02*
X167357854Y-91169383D01*
X167357854Y-91169383D02*
X167357854Y-91369383D01*
X167357854Y-91369383D02*
X160857854Y-91369383D01*
X160857854Y-91369383D02*
X160357854Y-90869383D01*
X160357854Y-90869383D02*
X159357854Y-91869383D01*
X159357854Y-91869383D02*
X151857854Y-91869383D01*
X151857854Y-91869383D02*
X146857854Y-91869383D01*
X146857854Y-91869383D02*
X146357854Y-91369383D01*
X146357854Y-91369383D02*
X145857854Y-90869383D01*
X145857854Y-90869383D02*
X138857854Y-90869383D01*
X138857854Y-90869383D02*
X131857854Y-90869383D01*
X131857854Y-90869383D02*
X130857854Y-91869383D01*
X151682854Y-91919383D02*
X151682854Y-95694383D01*
X151682854Y-95694383D02*
X151857854Y-95869383D01*
X130707854Y-91919383D02*
X130707854Y-96219383D01*
X130707854Y-96219383D02*
X130857854Y-96369383D01*
X201469854Y-86899883D02*
X201357854Y-86787883D01*
X201469854Y-88169883D02*
X201469854Y-86899883D01*
X201357854Y-86787883D02*
X201357854Y-84869383D01*
X201857854Y-108869383D02*
X201857854Y-109869383D01*
X201857854Y-109869383D02*
X201857854Y-110869383D01*
X201857854Y-110869383D02*
X201357854Y-111369383D01*
X201357854Y-111369383D02*
X201357854Y-112869383D01*
X176087854Y-104409383D02*
X176087854Y-110139383D01*
X176087854Y-110139383D02*
X175857854Y-110369383D01*
X201469854Y-88169883D02*
X201469854Y-95481383D01*
X205671864Y-105055373D02*
X202657853Y-108069384D01*
X205671864Y-99683393D02*
X205671864Y-105055373D01*
X201469854Y-95481383D02*
X205671864Y-99683393D01*
X202657853Y-108069384D02*
X201857854Y-108869383D01*
X200707854Y-113931883D02*
X200707854Y-114473507D01*
X200707854Y-114473507D02*
X198811978Y-116369383D01*
X201469854Y-113169883D02*
X200707854Y-113931883D01*
X182357854Y-116369383D02*
X176357854Y-110369383D01*
X198811978Y-116369383D02*
X182357854Y-116369383D01*
X176357854Y-110369383D02*
X175857854Y-110369383D01*
X146667865Y-116559372D02*
X145857854Y-117369383D01*
X157568136Y-116559372D02*
X146667865Y-116559372D01*
X158378146Y-117369383D02*
X157568136Y-116559372D01*
X169357854Y-117369383D02*
X158378146Y-117369383D01*
X176357854Y-110369383D02*
X169357854Y-117369383D01*
X145857854Y-117369383D02*
X145857854Y-119869383D01*
X153307854Y-129169383D02*
X145857854Y-121719383D01*
X145857854Y-121719383D02*
X145857854Y-119869383D01*
X95357854Y-127869383D02*
X87857854Y-120369383D01*
X87857854Y-120369383D02*
X85857854Y-118369383D01*
X85857854Y-118369383D02*
X83357854Y-118369383D01*
X83357854Y-118369383D02*
X83357854Y-124369383D01*
X83357854Y-124369383D02*
X79857854Y-127869383D01*
X76807844Y-124819373D02*
X66407864Y-124819373D01*
X79857854Y-127869383D02*
X76807844Y-124819373D01*
X66407864Y-124819373D02*
X64357854Y-126869383D01*
X62107864Y-124619393D02*
X43107864Y-124619393D01*
X43107864Y-124619393D02*
X42157853Y-123669382D01*
X64357854Y-126869383D02*
X62107864Y-124619393D01*
X42157853Y-123669382D02*
X41357854Y-122869383D01*
X41357854Y-122869383D02*
X41357854Y-125369383D01*
X41357854Y-125369383D02*
X39357854Y-127369383D01*
X43057855Y-111069384D02*
X43057855Y-121669382D01*
X41357854Y-109369383D02*
X43057855Y-111069384D01*
X43057855Y-121669382D02*
X42557855Y-121669382D01*
X42557855Y-121669382D02*
X41357854Y-122869383D01*
X41357854Y-80869383D02*
X41357854Y-84869383D01*
X41357854Y-84869383D02*
X44857854Y-88369383D01*
X44857854Y-88369383D02*
X47857854Y-91369383D01*
X47857854Y-91369383D02*
X49357854Y-91369383D01*
X49357854Y-96545385D02*
X41357854Y-104545385D01*
X49357854Y-91369383D02*
X49357854Y-96545385D01*
X41357854Y-104545385D02*
X41357854Y-109369383D01*
X125857854Y-95869383D02*
X122857854Y-92869383D01*
X122857854Y-92869383D02*
X121857854Y-92869383D01*
X146667865Y-116559372D02*
X137547843Y-116559372D01*
X137547843Y-116559372D02*
X129857854Y-108869383D01*
X129857854Y-108869383D02*
X125857854Y-108869383D01*
X117357854Y-100369383D02*
X117357854Y-94369383D01*
X117357854Y-94369383D02*
X120357854Y-94369383D01*
X120357854Y-94369383D02*
X121857854Y-92869383D01*
X121857854Y-111869383D02*
X122857854Y-111869383D01*
X122857854Y-111869383D02*
X125857854Y-108869383D01*
X124357854Y-80869383D02*
X120357854Y-80869383D01*
X120357854Y-80869383D02*
X116357854Y-84869383D01*
X116707855Y-85219384D02*
X116707855Y-87719384D01*
X116357854Y-84869383D02*
X116707855Y-85219384D01*
X117357854Y-88369383D02*
X117357854Y-94369383D01*
X116707855Y-87719384D02*
X117357854Y-88369383D01*
X110857854Y-117869383D02*
X116857854Y-111869383D01*
X116857854Y-111869383D02*
X121857854Y-111869383D01*
X98407864Y-124819373D02*
X105907864Y-124819373D01*
X95357854Y-127869383D02*
X98407864Y-124819373D01*
X105907864Y-124819373D02*
X110857854Y-119869383D01*
X110857854Y-119869383D02*
X110857854Y-117869383D01*
X117357854Y-100869383D02*
X117357854Y-100369383D01*
X125357854Y-108869383D02*
X117357854Y-100869383D01*
X125857854Y-108869383D02*
X125357854Y-108869383D01*
X83537854Y-110649383D02*
X83537854Y-114049383D01*
X83537854Y-114049383D02*
X84357854Y-114869383D01*
X83557855Y-118169382D02*
X83357854Y-118369383D01*
X83557855Y-115669382D02*
X83557855Y-118169382D01*
X84357854Y-114869383D02*
X83557855Y-115669382D01*
X78457854Y-92529383D02*
X78427854Y-92559383D01*
X78457854Y-90329383D02*
X78457854Y-92529383D01*
X83537854Y-110309383D02*
X83567854Y-110339383D01*
X83537854Y-108109383D02*
X83537854Y-110309383D01*
X121857854Y-112869383D02*
X121857854Y-111869383D01*
X64357854Y-127869383D02*
X64357854Y-126869383D01*
X51357854Y-72869383D02*
X47843852Y-72869383D01*
X42157853Y-80069384D02*
X41357854Y-80869383D01*
X43787853Y-78439384D02*
X42157853Y-80069384D01*
X43787853Y-76925382D02*
X43787853Y-78439384D01*
X47843852Y-72869383D02*
X43787853Y-76925382D01*
X151682854Y-81759383D02*
X155292854Y-85369383D01*
X155292854Y-85369383D02*
X156857854Y-85369383D01*
X156857854Y-85369383D02*
X163357854Y-85369383D01*
X163357854Y-85369383D02*
X167357854Y-81369383D01*
X131807853Y-82859382D02*
X132847853Y-82859382D01*
X130707854Y-81759383D02*
X131807853Y-82859382D01*
X132847853Y-82859382D02*
X135357854Y-85369383D01*
X135357854Y-85369383D02*
X139357854Y-81369383D01*
X139357854Y-81369383D02*
X146357854Y-81369383D01*
D38*
X117057855Y-106069384D02*
X116057855Y-106069384D01*
X117857854Y-106869383D02*
X117057855Y-106069384D01*
X116057855Y-106069384D02*
X113857854Y-103869383D01*
X113857854Y-103869383D02*
X109857854Y-103869383D01*
X86077854Y-90329383D02*
X86077854Y-93021383D01*
X115507854Y-122869383D02*
X110857854Y-127519383D01*
X117357854Y-122869383D02*
X115507854Y-122869383D01*
X110857854Y-127519383D02*
X110857854Y-127869383D01*
X58137854Y-109659383D02*
X57837854Y-109959383D01*
X58137854Y-108109383D02*
X58137854Y-109659383D01*
X55597854Y-90329383D02*
X55597854Y-92767383D01*
X51829062Y-98034571D02*
X51829062Y-97398175D01*
X56340852Y-117369383D02*
X51829062Y-112857593D01*
X57357854Y-117369383D02*
X56340852Y-117369383D01*
X51829062Y-112857593D02*
X51829062Y-98034571D01*
X43726484Y-98529383D02*
X39066484Y-93869383D01*
X44857854Y-98529383D02*
X43726484Y-98529383D01*
X39066484Y-93869383D02*
X34357854Y-93869383D01*
X78457854Y-108109383D02*
X78457854Y-110639383D01*
X35032864Y-70194373D02*
X38682844Y-70194373D01*
X34807854Y-70419383D02*
X35032864Y-70194373D01*
X34157854Y-70419383D02*
X34807854Y-70419383D01*
X38682844Y-70194373D02*
X41357854Y-72869383D01*
X73377854Y-108109383D02*
X73377854Y-110547383D01*
X45899854Y-78209779D02*
X45899854Y-77573383D01*
X49327458Y-90019383D02*
X45899854Y-86591779D01*
X49963854Y-90019383D02*
X49327458Y-90019383D01*
X50737843Y-94857372D02*
X50737843Y-90793372D01*
X68888191Y-103399720D02*
X59280191Y-103399720D01*
X50737843Y-90793372D02*
X49963854Y-90019383D01*
X45899854Y-86591779D02*
X45899854Y-78209779D01*
X59280191Y-103399720D02*
X50737843Y-94857372D01*
X73357854Y-107869383D02*
X68888191Y-103399720D01*
X55597854Y-109659383D02*
X55805854Y-109867383D01*
X55597854Y-108109383D02*
X55597854Y-109659383D01*
X34157854Y-87031883D02*
X37995354Y-90869383D01*
X34157854Y-85831883D02*
X34157854Y-87031883D01*
X37995354Y-90869383D02*
X41357854Y-90869383D01*
X70837854Y-109659383D02*
X71045854Y-109867383D01*
X70837854Y-108109383D02*
X70837854Y-109659383D01*
X37817854Y-112709383D02*
X34357854Y-116169383D01*
X41357854Y-112709383D02*
X37817854Y-112709383D01*
X34357854Y-116169383D02*
X34357854Y-116869383D01*
X53857854Y-113369383D02*
X55857854Y-113369383D01*
X55857854Y-113369383D02*
X58857854Y-116369383D01*
X68297854Y-115429383D02*
X67857854Y-115869383D01*
X68297854Y-110649383D02*
X68297854Y-115429383D01*
X68297854Y-108109383D02*
X68297854Y-110039383D01*
X63217854Y-112199383D02*
X64357854Y-113339383D01*
X63217854Y-110649383D02*
X63217854Y-112199383D01*
X64357854Y-113339383D02*
X64357854Y-117369383D01*
X70857854Y-121669383D02*
X67057854Y-117869383D01*
X70857854Y-122869383D02*
X70857854Y-121669383D01*
X67057854Y-117869383D02*
X64357854Y-117869383D01*
X63217854Y-108109383D02*
X63217854Y-110547383D01*
X40557855Y-100009382D02*
X39717855Y-100009382D01*
X41357854Y-99209383D02*
X40557855Y-100009382D01*
X39717855Y-100009382D02*
X34357854Y-105369383D01*
X65757854Y-109659383D02*
X65711854Y-109705383D01*
X65757854Y-108109383D02*
X65757854Y-109659383D01*
X96237854Y-90329383D02*
X96237854Y-92513383D01*
X93697854Y-90329383D02*
X93697854Y-93021383D01*
X196389854Y-88169883D02*
X193557354Y-88169883D01*
X193557354Y-88169883D02*
X191857854Y-89869383D01*
X66857854Y-60869383D02*
X66857854Y-63219383D01*
X56821854Y-67921383D02*
X64017854Y-67921383D01*
X52794843Y-63894372D02*
X56821854Y-67921383D01*
X38157854Y-61669383D02*
X40382843Y-63894372D01*
X40382843Y-63894372D02*
X52794843Y-63894372D01*
X38157854Y-61369383D02*
X38157854Y-61669383D01*
X37857854Y-61069383D02*
X38157854Y-61369383D01*
X37857854Y-59869383D02*
X37857854Y-61069383D01*
X115357854Y-109369383D02*
X111357854Y-109369383D01*
X111357854Y-109369383D02*
X106857854Y-113869383D01*
X106857854Y-113869383D02*
X102357854Y-113869383D01*
X102357854Y-113869383D02*
X101357854Y-112869383D01*
X101357854Y-112869383D02*
X101357854Y-110869383D01*
X101317854Y-108109383D02*
X101317854Y-110547383D01*
X103857854Y-108109383D02*
X106617854Y-108109383D01*
X108357854Y-106369383D02*
X110857854Y-106369383D01*
X106617854Y-108109383D02*
X108357854Y-106369383D01*
X103857854Y-109659383D02*
X104065854Y-109867383D01*
X103857854Y-108109383D02*
X103857854Y-109659383D01*
X152507855Y-119809382D02*
X148417855Y-119809382D01*
X153307854Y-119009383D02*
X152507855Y-119809382D01*
X148417855Y-119809382D02*
X148357854Y-119869383D01*
X103857854Y-92869383D02*
X103857854Y-95869385D01*
X103857854Y-90329383D02*
X103857854Y-92259383D01*
X191707854Y-123469383D02*
X185457854Y-123469383D01*
X185457854Y-123469383D02*
X185357854Y-123369383D01*
X83537854Y-91879383D02*
X83237854Y-92179383D01*
X83537854Y-90329383D02*
X83537854Y-91879383D01*
X191707854Y-99769383D02*
X186757854Y-99769383D01*
X186757854Y-99769383D02*
X186357854Y-99369383D01*
X89857854Y-101844383D02*
X86382854Y-101844383D01*
X80997854Y-94419383D02*
X85857854Y-99279383D01*
X80997854Y-92869383D02*
X80997854Y-94419383D01*
X85857854Y-101319383D02*
X86382854Y-101844383D01*
X85857854Y-99279383D02*
X85857854Y-101319383D01*
X80997854Y-90329383D02*
X80997854Y-92259383D01*
X63397854Y-80869383D02*
X63397854Y-85409383D01*
X63397854Y-85409383D02*
X65857854Y-87869383D01*
X65857854Y-87869383D02*
X65857854Y-90369383D01*
X65757854Y-90329383D02*
X65757854Y-92767383D01*
X68297854Y-88779383D02*
X65857854Y-86339383D01*
X68297854Y-90329383D02*
X68297854Y-88779383D01*
X65857854Y-86339383D02*
X65857854Y-80869383D01*
X68297854Y-90329383D02*
X68297854Y-92767383D01*
X48857854Y-101529383D02*
X50857854Y-103529383D01*
X50857854Y-103529383D02*
X50857854Y-106369383D01*
X50857854Y-106369383D02*
X47857854Y-109369383D01*
X63217854Y-91879383D02*
X63171854Y-91925383D01*
X63217854Y-90329383D02*
X63217854Y-91879383D01*
X63217854Y-95815383D02*
X63171854Y-95861383D01*
X63217854Y-92869383D02*
X63217854Y-95815383D01*
X60677854Y-120049383D02*
X58357854Y-122369383D01*
X58357854Y-122369383D02*
X55857854Y-122369383D01*
X60677854Y-110649383D02*
X60677854Y-120049383D01*
X60677854Y-108109383D02*
X60677854Y-110547383D01*
X98777854Y-108109383D02*
X98777854Y-110801383D01*
X96237854Y-108109383D02*
X96237854Y-110547383D01*
X60677854Y-91879383D02*
X60631854Y-91925383D01*
X60677854Y-90329383D02*
X60677854Y-91879383D01*
X77882853Y-34494382D02*
X63232855Y-34494382D01*
X79757854Y-36369383D02*
X77882853Y-34494382D01*
X63232855Y-34494382D02*
X62357854Y-35369383D01*
X62357854Y-35369383D02*
X62357854Y-37369383D01*
X62357854Y-38599383D02*
X68587854Y-38599383D01*
X68587854Y-38599383D02*
X69857854Y-39869383D01*
X93942854Y-80369383D02*
X92942854Y-81369383D01*
X94817854Y-80369383D02*
X93942854Y-80369383D01*
X92942854Y-81369383D02*
X92857854Y-81369383D01*
X91017854Y-81369383D02*
X92857854Y-81369383D01*
X101197854Y-80869383D02*
X99697854Y-79369383D01*
X96372853Y-79044382D02*
X95917864Y-79499371D01*
X99372853Y-79044382D02*
X96372853Y-79044382D01*
X99697854Y-79369383D02*
X99372853Y-79044382D01*
X95917864Y-79499371D02*
X95917864Y-79688744D01*
X95917864Y-79688744D02*
X95917864Y-80369383D01*
X76101485Y-37244384D02*
X78726484Y-39869383D01*
X67572855Y-37244384D02*
X76101485Y-37244384D01*
X66197854Y-35869383D02*
X67572855Y-37244384D01*
X78726484Y-39869383D02*
X79857854Y-39869383D01*
X107497854Y-43089383D02*
X107497854Y-45439383D01*
X114197854Y-80869383D02*
X111357854Y-80869383D01*
X113907855Y-89119384D02*
X113907855Y-85419384D01*
X114857854Y-90069383D02*
X113907855Y-89119384D01*
X113907855Y-85419384D02*
X113857854Y-85369383D01*
X92257854Y-41539383D02*
X89857854Y-39139383D01*
X92257854Y-43089383D02*
X92257854Y-41539383D01*
X88517855Y-38494382D02*
X86982853Y-38494382D01*
X88567867Y-38544394D02*
X88517855Y-38494382D01*
X89532865Y-38544394D02*
X88567867Y-38544394D01*
X89857854Y-38869383D02*
X89532865Y-38544394D01*
X89857854Y-39139383D02*
X89857854Y-38869383D01*
X86982853Y-38494382D02*
X84857854Y-36369383D01*
X92257854Y-43089383D02*
X92257854Y-45439383D01*
X90282181Y-37794384D02*
X92107190Y-39619393D01*
X88802855Y-37794384D02*
X90282181Y-37794384D01*
X87377854Y-36369383D02*
X88802855Y-37794384D01*
X92107190Y-39619393D02*
X94107864Y-39619393D01*
X94107864Y-39619393D02*
X94857854Y-40369383D01*
X94857854Y-40369383D02*
X94857854Y-42869383D01*
X94797854Y-43089383D02*
X94797854Y-45439383D01*
X96357854Y-38869383D02*
X97357854Y-39869383D01*
X92417854Y-38869383D02*
X96357854Y-38869383D01*
X97357854Y-39869383D02*
X97357854Y-43369383D01*
X89917854Y-36369383D02*
X92417854Y-38869383D01*
X97337854Y-43089383D02*
X97337854Y-45439383D01*
X99857854Y-39869383D02*
X99857854Y-42869383D01*
X97857854Y-37869383D02*
X99857854Y-39869383D01*
X93957854Y-37869383D02*
X97857854Y-37869383D01*
X92457854Y-36369383D02*
X93957854Y-37869383D01*
X99877854Y-43089383D02*
X99877854Y-45439383D01*
X104732853Y-86794384D02*
X80073853Y-86794384D01*
X80073853Y-86794384D02*
X78357854Y-85078385D01*
X106157854Y-85369383D02*
X104732853Y-86794384D01*
X78357854Y-85078385D02*
X78357854Y-83369383D01*
X78357854Y-83369383D02*
X77857854Y-82869383D01*
X77857854Y-82869383D02*
X68857854Y-82869383D01*
X68857854Y-82869383D02*
X68357854Y-83369383D01*
X68357854Y-83369383D02*
X68357854Y-85869383D01*
X68357854Y-85869383D02*
X68857854Y-86369383D01*
X68857854Y-86369383D02*
X69357854Y-86869383D01*
X72207855Y-86869383D02*
X72357854Y-87019382D01*
X69357854Y-86869383D02*
X72207855Y-86869383D01*
X73377854Y-90329383D02*
X73377854Y-93021383D01*
X109812853Y-86794384D02*
X109812853Y-87914384D01*
X111237854Y-85369383D02*
X109812853Y-86794384D01*
X73448296Y-87914384D02*
X71493297Y-89869383D01*
X109812853Y-87914384D02*
X73448296Y-87914384D01*
X71493297Y-89869383D02*
X70857854Y-89869383D01*
X70837854Y-91879383D02*
X70537854Y-92179383D01*
X70837854Y-90329383D02*
X70837854Y-91879383D01*
X101317854Y-90329383D02*
X101317854Y-92259383D01*
X98777854Y-91879383D02*
X98985854Y-92087383D01*
X98777854Y-90329383D02*
X98777854Y-91879383D01*
X91157854Y-90329383D02*
X91157854Y-92605383D01*
X88617854Y-90329383D02*
X88617854Y-92767383D01*
M02*
