<?xml version="1.0" standalone="no"?>
 <!DOCTYPE svg PUBLIC "-//W3C//DTD SVG 1.1//EN" 
 "http://www.w3.org/Graphics/SVG/1.1/DTD/svg11.dtd"> 
<svg xmlns="http://www.w3.org/2000/svg" version="1.1" 
    width="29.7002cm" height="21.0007cm" viewBox="0 0 116930 82680 ">
<title>SVG Picture created as Main_Board_v1-B_Fab.svg date 2020/04/27 13:50:29 </title>
  <desc>Picture generated by PCBNEW </desc>
<g style="fill:#000000; fill-opacity:1;stroke:#000000; stroke-opacity:1;
stroke-linecap:round; stroke-linejoin:round; "
 transform="translate(0 0) scale(1 1)">
</g>
<g style="fill:#000000; fill-opacity:0.0; 
stroke:#000000; stroke-width:-0.000393701; stroke-opacity:1; 
stroke-linecap:round; stroke-linejoin:round;">
</g>
<g style="fill:#000000; fill-opacity:0.0; 
stroke:#000000; stroke-width:39.3701; stroke-opacity:1; 
stroke-linecap:round; stroke-linejoin:round;">
</g>
<g style="fill:#000000; fill-opacity:0.0; 
stroke:#000000; stroke-width:59.0551; stroke-opacity:1; 
stroke-linecap:round; stroke-linejoin:round;">
<rect x="69685.9" y="65357.2" width="42519.7" height="12598.4" rx="0" />
</g>
<g style="fill:#000000; fill-opacity:0.0; 
stroke:#000000; stroke-width:39.3701; stroke-opacity:1; 
stroke-linecap:round; stroke-linejoin:round;">
</g>
<g style="fill:#000000; fill-opacity:0.0; 
stroke:#000000; stroke-width:59.0551; stroke-opacity:1; 
stroke-linecap:round; stroke-linejoin:round;">
<rect x="3937.01" y="3937.01" width="109056" height="74806" rx="0" />
</g>
<g style="fill:#000000; fill-opacity:0.0; 
stroke:#000000; stroke-width:39.3701; stroke-opacity:1; 
stroke-linecap:round; stroke-linejoin:round;">
</g>
<g style="fill:#000000; fill-opacity:0.0; 
stroke:#000000; stroke-width:59.0551; stroke-opacity:1; 
stroke-linecap:round; stroke-linejoin:round;">
<rect x="4724.41" y="4724.41" width="107481" height="73231.2" rx="0" />
</g>
<g style="fill:#000000; fill-opacity:0.0; 
stroke:#000000; stroke-width:39.3701; stroke-opacity:1; 
stroke-linecap:round; stroke-linejoin:round;">
</g>
<g style="fill:#000000; fill-opacity:0.0; 
stroke:#000000; stroke-width:59.0551; stroke-opacity:1; 
stroke-linecap:round; stroke-linejoin:round;">
<path d="M23622 4724
L23622 3937
" />
</g>
<g style="fill:#000000; fill-opacity:0.0; 
stroke:#000000; stroke-width:39.3701; stroke-opacity:1; 
stroke-linecap:round; stroke-linejoin:round;">
</g>
<g style="fill:#000000; fill-opacity:0.0; 
stroke:#000000; stroke-width:59.0551; stroke-opacity:1; 
stroke-linecap:round; stroke-linejoin:round;">
<path d="M43307 4724
L43307 3937
" />
</g>
<g style="fill:#000000; fill-opacity:0.0; 
stroke:#000000; stroke-width:39.3701; stroke-opacity:1; 
stroke-linecap:round; stroke-linejoin:round;">
</g>
<g style="fill:#000000; fill-opacity:0.0; 
stroke:#000000; stroke-width:59.0551; stroke-opacity:1; 
stroke-linecap:round; stroke-linejoin:round;">
<path d="M62992 4724
L62992 3937
" />
</g>
<g style="fill:#000000; fill-opacity:0.0; 
stroke:#000000; stroke-width:39.3701; stroke-opacity:1; 
stroke-linecap:round; stroke-linejoin:round;">
</g>
<g style="fill:#000000; fill-opacity:0.0; 
stroke:#000000; stroke-width:59.0551; stroke-opacity:1; 
stroke-linecap:round; stroke-linejoin:round;">
<path d="M82677 4724
L82677 3937
" />
</g>
<g style="fill:#000000; fill-opacity:0.0; 
stroke:#000000; stroke-width:39.3701; stroke-opacity:1; 
stroke-linecap:round; stroke-linejoin:round;">
</g>
<g style="fill:#000000; fill-opacity:0.0; 
stroke:#000000; stroke-width:59.0551; stroke-opacity:1; 
stroke-linecap:round; stroke-linejoin:round;">
<path d="M102362 4724
L102362 3937
" />
</g>
<g style="fill:#000000; fill-opacity:0.0; 
stroke:#000000; stroke-width:39.3701; stroke-opacity:1; 
stroke-linecap:round; stroke-linejoin:round;">
</g>
<g style="fill:#000000; fill-opacity:0.0; 
stroke:#000000; stroke-width:59.0551; stroke-opacity:1; 
stroke-linecap:round; stroke-linejoin:round;">
<text x="13779.5" y="4586.61"
textLength="546.494" font-size="682.415" lengthAdjust="spacingAndGlyphs"
text-anchor="start" opacity="0">1</text>
<path d="M14199 4562
L13906 4562
" />
<path d="M14052 4562
L14052 4050
L14004 4123
L13955 4172
L13906 4196
" />
</g>
<g style="fill:#000000; fill-opacity:0.0; 
stroke:#000000; stroke-width:39.3701; stroke-opacity:1; 
stroke-linecap:round; stroke-linejoin:round;">
</g>
<g style="fill:#000000; fill-opacity:0.0; 
stroke:#000000; stroke-width:59.0551; stroke-opacity:1; 
stroke-linecap:round; stroke-linejoin:round;">
<text x="33464.6" y="4586.61"
textLength="546.494" font-size="682.415" lengthAdjust="spacingAndGlyphs"
text-anchor="start" opacity="0">2</text>
<path d="M33591 4099
L33615 4074
L33664 4050
L33786 4050
L33835 4074
L33859 4099
L33884 4147
L33884 4196
L33859 4269
L33567 4562
L33884 4562
" />
</g>
<g style="fill:#000000; fill-opacity:0.0; 
stroke:#000000; stroke-width:39.3701; stroke-opacity:1; 
stroke-linecap:round; stroke-linejoin:round;">
</g>
<g style="fill:#000000; fill-opacity:0.0; 
stroke:#000000; stroke-width:59.0551; stroke-opacity:1; 
stroke-linecap:round; stroke-linejoin:round;">
<text x="53149.6" y="4586.61"
textLength="546.494" font-size="682.415" lengthAdjust="spacingAndGlyphs"
text-anchor="start" opacity="0">3</text>
<path d="M53252 4050
L53569 4050
L53398 4245
L53471 4245
L53520 4269
L53544 4294
L53569 4342
L53569 4464
L53544 4513
L53520 4537
L53471 4562
L53325 4562
L53276 4537
L53252 4513
" />
</g>
<g style="fill:#000000; fill-opacity:0.0; 
stroke:#000000; stroke-width:39.3701; stroke-opacity:1; 
stroke-linecap:round; stroke-linejoin:round;">
</g>
<g style="fill:#000000; fill-opacity:0.0; 
stroke:#000000; stroke-width:59.0551; stroke-opacity:1; 
stroke-linecap:round; stroke-linejoin:round;">
<text x="72834.6" y="4586.61"
textLength="546.494" font-size="682.415" lengthAdjust="spacingAndGlyphs"
text-anchor="start" opacity="0">4</text>
<path d="M73205 4221
L73205 4562
" />
<path d="M73083 4026
L72961 4391
L73278 4391
" />
</g>
<g style="fill:#000000; fill-opacity:0.0; 
stroke:#000000; stroke-width:39.3701; stroke-opacity:1; 
stroke-linecap:round; stroke-linejoin:round;">
</g>
<g style="fill:#000000; fill-opacity:0.0; 
stroke:#000000; stroke-width:59.0551; stroke-opacity:1; 
stroke-linecap:round; stroke-linejoin:round;">
<text x="92519.7" y="4586.61"
textLength="546.494" font-size="682.415" lengthAdjust="spacingAndGlyphs"
text-anchor="start" opacity="0">5</text>
<path d="M92914 4050
L92671 4050
L92646 4294
L92671 4269
L92719 4245
L92841 4245
L92890 4269
L92914 4294
L92939 4342
L92939 4464
L92914 4513
L92890 4537
L92841 4562
L92719 4562
L92671 4537
L92646 4513
" />
</g>
<g style="fill:#000000; fill-opacity:0.0; 
stroke:#000000; stroke-width:39.3701; stroke-opacity:1; 
stroke-linecap:round; stroke-linejoin:round;">
</g>
<g style="fill:#000000; fill-opacity:0.0; 
stroke:#000000; stroke-width:59.0551; stroke-opacity:1; 
stroke-linecap:round; stroke-linejoin:round;">
<text x="112205" y="4586.61"
textLength="546.494" font-size="682.415" lengthAdjust="spacingAndGlyphs"
text-anchor="start" opacity="0">6</text>
<path d="M112575 4050
L112477 4050
L112429 4074
L112404 4099
L112356 4172
L112331 4269
L112331 4464
L112356 4513
L112380 4537
L112429 4562
L112526 4562
L112575 4537
L112599 4513
L112624 4464
L112624 4342
L112599 4294
L112575 4269
L112526 4245
L112429 4245
L112380 4269
L112356 4294
L112331 4342
" />
</g>
<g style="fill:#000000; fill-opacity:0.0; 
stroke:#000000; stroke-width:39.3701; stroke-opacity:1; 
stroke-linecap:round; stroke-linejoin:round;">
</g>
<g style="fill:#000000; fill-opacity:0.0; 
stroke:#000000; stroke-width:59.0551; stroke-opacity:1; 
stroke-linecap:round; stroke-linejoin:round;">
<path d="M23622 77955
L23622 78742
" />
</g>
<g style="fill:#000000; fill-opacity:0.0; 
stroke:#000000; stroke-width:39.3701; stroke-opacity:1; 
stroke-linecap:round; stroke-linejoin:round;">
</g>
<g style="fill:#000000; fill-opacity:0.0; 
stroke:#000000; stroke-width:59.0551; stroke-opacity:1; 
stroke-linecap:round; stroke-linejoin:round;">
<path d="M43307 77955
L43307 78742
" />
</g>
<g style="fill:#000000; fill-opacity:0.0; 
stroke:#000000; stroke-width:39.3701; stroke-opacity:1; 
stroke-linecap:round; stroke-linejoin:round;">
</g>
<g style="fill:#000000; fill-opacity:0.0; 
stroke:#000000; stroke-width:59.0551; stroke-opacity:1; 
stroke-linecap:round; stroke-linejoin:round;">
<path d="M62992 77955
L62992 78742
" />
</g>
<g style="fill:#000000; fill-opacity:0.0; 
stroke:#000000; stroke-width:39.3701; stroke-opacity:1; 
stroke-linecap:round; stroke-linejoin:round;">
</g>
<g style="fill:#000000; fill-opacity:0.0; 
stroke:#000000; stroke-width:59.0551; stroke-opacity:1; 
stroke-linecap:round; stroke-linejoin:round;">
<path d="M82677 77955
L82677 78742
" />
</g>
<g style="fill:#000000; fill-opacity:0.0; 
stroke:#000000; stroke-width:39.3701; stroke-opacity:1; 
stroke-linecap:round; stroke-linejoin:round;">
</g>
<g style="fill:#000000; fill-opacity:0.0; 
stroke:#000000; stroke-width:59.0551; stroke-opacity:1; 
stroke-linecap:round; stroke-linejoin:round;">
<path d="M102362 77955
L102362 78742
" />
</g>
<g style="fill:#000000; fill-opacity:0.0; 
stroke:#000000; stroke-width:39.3701; stroke-opacity:1; 
stroke-linecap:round; stroke-linejoin:round;">
</g>
<g style="fill:#000000; fill-opacity:0.0; 
stroke:#000000; stroke-width:59.0551; stroke-opacity:1; 
stroke-linecap:round; stroke-linejoin:round;">
<text x="13779.5" y="78605.2"
textLength="546.494" font-size="682.415" lengthAdjust="spacingAndGlyphs"
text-anchor="start" opacity="0">1</text>
<path d="M14199 78580
L13906 78580
" />
<path d="M14052 78580
L14052 78069
L14004 78142
L13955 78190
L13906 78215
" />
</g>
<g style="fill:#000000; fill-opacity:0.0; 
stroke:#000000; stroke-width:39.3701; stroke-opacity:1; 
stroke-linecap:round; stroke-linejoin:round;">
</g>
<g style="fill:#000000; fill-opacity:0.0; 
stroke:#000000; stroke-width:59.0551; stroke-opacity:1; 
stroke-linecap:round; stroke-linejoin:round;">
<text x="33464.6" y="78605.2"
textLength="546.494" font-size="682.415" lengthAdjust="spacingAndGlyphs"
text-anchor="start" opacity="0">2</text>
<path d="M33591 78117
L33615 78093
L33664 78069
L33786 78069
L33835 78093
L33859 78117
L33884 78166
L33884 78215
L33859 78288
L33567 78580
L33884 78580
" />
</g>
<g style="fill:#000000; fill-opacity:0.0; 
stroke:#000000; stroke-width:39.3701; stroke-opacity:1; 
stroke-linecap:round; stroke-linejoin:round;">
</g>
<g style="fill:#000000; fill-opacity:0.0; 
stroke:#000000; stroke-width:59.0551; stroke-opacity:1; 
stroke-linecap:round; stroke-linejoin:round;">
<text x="53149.6" y="78605.2"
textLength="546.494" font-size="682.415" lengthAdjust="spacingAndGlyphs"
text-anchor="start" opacity="0">3</text>
<path d="M53252 78069
L53569 78069
L53398 78263
L53471 78263
L53520 78288
L53544 78312
L53569 78361
L53569 78483
L53544 78532
L53520 78556
L53471 78580
L53325 78580
L53276 78556
L53252 78532
" />
</g>
<g style="fill:#000000; fill-opacity:0.0; 
stroke:#000000; stroke-width:39.3701; stroke-opacity:1; 
stroke-linecap:round; stroke-linejoin:round;">
</g>
<g style="fill:#000000; fill-opacity:0.0; 
stroke:#000000; stroke-width:59.0551; stroke-opacity:1; 
stroke-linecap:round; stroke-linejoin:round;">
<text x="72834.6" y="78605.2"
textLength="546.494" font-size="682.415" lengthAdjust="spacingAndGlyphs"
text-anchor="start" opacity="0">4</text>
<path d="M73205 78239
L73205 78580
" />
<path d="M73083 78044
L72961 78410
L73278 78410
" />
</g>
<g style="fill:#000000; fill-opacity:0.0; 
stroke:#000000; stroke-width:39.3701; stroke-opacity:1; 
stroke-linecap:round; stroke-linejoin:round;">
</g>
<g style="fill:#000000; fill-opacity:0.0; 
stroke:#000000; stroke-width:59.0551; stroke-opacity:1; 
stroke-linecap:round; stroke-linejoin:round;">
<text x="92519.7" y="78605.2"
textLength="546.494" font-size="682.415" lengthAdjust="spacingAndGlyphs"
text-anchor="start" opacity="0">5</text>
<path d="M92914 78069
L92671 78069
L92646 78312
L92671 78288
L92719 78263
L92841 78263
L92890 78288
L92914 78312
L92939 78361
L92939 78483
L92914 78532
L92890 78556
L92841 78580
L92719 78580
L92671 78556
L92646 78532
" />
</g>
<g style="fill:#000000; fill-opacity:0.0; 
stroke:#000000; stroke-width:39.3701; stroke-opacity:1; 
stroke-linecap:round; stroke-linejoin:round;">
</g>
<g style="fill:#000000; fill-opacity:0.0; 
stroke:#000000; stroke-width:59.0551; stroke-opacity:1; 
stroke-linecap:round; stroke-linejoin:round;">
<text x="112205" y="78605.2"
textLength="546.494" font-size="682.415" lengthAdjust="spacingAndGlyphs"
text-anchor="start" opacity="0">6</text>
<path d="M112575 78069
L112477 78069
L112429 78093
L112404 78117
L112356 78190
L112331 78288
L112331 78483
L112356 78532
L112380 78556
L112429 78580
L112526 78580
L112575 78556
L112599 78532
L112624 78483
L112624 78361
L112599 78312
L112575 78288
L112526 78263
L112429 78263
L112380 78288
L112356 78312
L112331 78361
" />
</g>
<g style="fill:#000000; fill-opacity:0.0; 
stroke:#000000; stroke-width:39.3701; stroke-opacity:1; 
stroke-linecap:round; stroke-linejoin:round;">
</g>
<g style="fill:#000000; fill-opacity:0.0; 
stroke:#000000; stroke-width:59.0551; stroke-opacity:1; 
stroke-linecap:round; stroke-linejoin:round;">
<path d="M3937 23622
L4724 23622
" />
</g>
<g style="fill:#000000; fill-opacity:0.0; 
stroke:#000000; stroke-width:39.3701; stroke-opacity:1; 
stroke-linecap:round; stroke-linejoin:round;">
</g>
<g style="fill:#000000; fill-opacity:0.0; 
stroke:#000000; stroke-width:59.0551; stroke-opacity:1; 
stroke-linecap:round; stroke-linejoin:round;">
<path d="M3937 43307
L4724 43307
" />
</g>
<g style="fill:#000000; fill-opacity:0.0; 
stroke:#000000; stroke-width:39.3701; stroke-opacity:1; 
stroke-linecap:round; stroke-linejoin:round;">
</g>
<g style="fill:#000000; fill-opacity:0.0; 
stroke:#000000; stroke-width:59.0551; stroke-opacity:1; 
stroke-linecap:round; stroke-linejoin:round;">
<path d="M3937 62992
L4724 62992
" />
</g>
<g style="fill:#000000; fill-opacity:0.0; 
stroke:#000000; stroke-width:39.3701; stroke-opacity:1; 
stroke-linecap:round; stroke-linejoin:round;">
</g>
<g style="fill:#000000; fill-opacity:0.0; 
stroke:#000000; stroke-width:59.0551; stroke-opacity:1; 
stroke-linecap:round; stroke-linejoin:round;">
<text x="4330.71" y="14035.4"
textLength="497.75" font-size="682.415" lengthAdjust="spacingAndGlyphs"
text-anchor="middle" opacity="0">A</text>
<path d="M4208 13864
L4452 13864
" />
<path d="M4160 14011
L4330 13499
L4501 14011
" />
</g>
<g style="fill:#000000; fill-opacity:0.0; 
stroke:#000000; stroke-width:39.3701; stroke-opacity:1; 
stroke-linecap:round; stroke-linejoin:round;">
</g>
<g style="fill:#000000; fill-opacity:0.0; 
stroke:#000000; stroke-width:59.0551; stroke-opacity:1; 
stroke-linecap:round; stroke-linejoin:round;">
<text x="4330.71" y="33720.5"
textLength="570.866" font-size="682.415" lengthAdjust="spacingAndGlyphs"
text-anchor="middle" opacity="0">B</text>
<path d="M4367 33428
L4440 33452
L4464 33476
L4489 33525
L4489 33598
L4464 33647
L4440 33671
L4391 33696
L4196 33696
L4196 33184
L4367 33184
L4416 33208
L4440 33233
L4464 33281
L4464 33330
L4440 33379
L4416 33403
L4367 33428
L4196 33428
" />
</g>
<g style="fill:#000000; fill-opacity:0.0; 
stroke:#000000; stroke-width:39.3701; stroke-opacity:1; 
stroke-linecap:round; stroke-linejoin:round;">
</g>
<g style="fill:#000000; fill-opacity:0.0; 
stroke:#000000; stroke-width:59.0551; stroke-opacity:1; 
stroke-linecap:round; stroke-linejoin:round;">
<text x="4330.71" y="53405.5"
textLength="570.866" font-size="682.415" lengthAdjust="spacingAndGlyphs"
text-anchor="middle" opacity="0">C</text>
<path d="M4489 53332
L4464 53356
L4391 53381
L4342 53381
L4269 53356
L4221 53308
L4196 53259
L4172 53161
L4172 53088
L4196 52991
L4221 52942
L4269 52893
L4342 52869
L4391 52869
L4464 52893
L4489 52918
" />
</g>
<g style="fill:#000000; fill-opacity:0.0; 
stroke:#000000; stroke-width:39.3701; stroke-opacity:1; 
stroke-linecap:round; stroke-linejoin:round;">
</g>
<g style="fill:#000000; fill-opacity:0.0; 
stroke:#000000; stroke-width:59.0551; stroke-opacity:1; 
stroke-linecap:round; stroke-linejoin:round;">
<text x="4330.71" y="73090.6"
textLength="570.866" font-size="682.415" lengthAdjust="spacingAndGlyphs"
text-anchor="middle" opacity="0">D</text>
<path d="M4196 73066
L4196 72554
L4318 72554
L4391 72578
L4440 72627
L4464 72676
L4489 72773
L4489 72846
L4464 72944
L4440 72993
L4391 73041
L4318 73066
L4196 73066
" />
</g>
<g style="fill:#000000; fill-opacity:0.0; 
stroke:#000000; stroke-width:39.3701; stroke-opacity:1; 
stroke-linecap:round; stroke-linejoin:round;">
</g>
<g style="fill:#000000; fill-opacity:0.0; 
stroke:#000000; stroke-width:59.0551; stroke-opacity:1; 
stroke-linecap:round; stroke-linejoin:round;">
<path d="M112992 23622
L112205 23622
" />
</g>
<g style="fill:#000000; fill-opacity:0.0; 
stroke:#000000; stroke-width:39.3701; stroke-opacity:1; 
stroke-linecap:round; stroke-linejoin:round;">
</g>
<g style="fill:#000000; fill-opacity:0.0; 
stroke:#000000; stroke-width:59.0551; stroke-opacity:1; 
stroke-linecap:round; stroke-linejoin:round;">
<path d="M112992 43307
L112205 43307
" />
</g>
<g style="fill:#000000; fill-opacity:0.0; 
stroke:#000000; stroke-width:39.3701; stroke-opacity:1; 
stroke-linecap:round; stroke-linejoin:round;">
</g>
<g style="fill:#000000; fill-opacity:0.0; 
stroke:#000000; stroke-width:59.0551; stroke-opacity:1; 
stroke-linecap:round; stroke-linejoin:round;">
<path d="M112992 62992
L112205 62992
" />
</g>
<g style="fill:#000000; fill-opacity:0.0; 
stroke:#000000; stroke-width:39.3701; stroke-opacity:1; 
stroke-linecap:round; stroke-linejoin:round;">
</g>
<g style="fill:#000000; fill-opacity:0.0; 
stroke:#000000; stroke-width:59.0551; stroke-opacity:1; 
stroke-linecap:round; stroke-linejoin:round;">
<text x="112599" y="14035.4"
textLength="497.75" font-size="682.415" lengthAdjust="spacingAndGlyphs"
text-anchor="middle" opacity="0">A</text>
<path d="M112477 13864
L112721 13864
" />
<path d="M112428 14011
L112599 13499
L112769 14011
" />
</g>
<g style="fill:#000000; fill-opacity:0.0; 
stroke:#000000; stroke-width:39.3701; stroke-opacity:1; 
stroke-linecap:round; stroke-linejoin:round;">
</g>
<g style="fill:#000000; fill-opacity:0.0; 
stroke:#000000; stroke-width:59.0551; stroke-opacity:1; 
stroke-linecap:round; stroke-linejoin:round;">
<text x="112599" y="33720.5"
textLength="570.866" font-size="682.415" lengthAdjust="spacingAndGlyphs"
text-anchor="middle" opacity="0">B</text>
<path d="M112635 33428
L112708 33452
L112733 33476
L112757 33525
L112757 33598
L112733 33647
L112708 33671
L112660 33696
L112465 33696
L112465 33184
L112635 33184
L112684 33208
L112708 33233
L112733 33281
L112733 33330
L112708 33379
L112684 33403
L112635 33428
L112465 33428
" />
</g>
<g style="fill:#000000; fill-opacity:0.0; 
stroke:#000000; stroke-width:39.3701; stroke-opacity:1; 
stroke-linecap:round; stroke-linejoin:round;">
</g>
<g style="fill:#000000; fill-opacity:0.0; 
stroke:#000000; stroke-width:59.0551; stroke-opacity:1; 
stroke-linecap:round; stroke-linejoin:round;">
<text x="112599" y="53405.5"
textLength="570.866" font-size="682.415" lengthAdjust="spacingAndGlyphs"
text-anchor="middle" opacity="0">C</text>
<path d="M112757 53332
L112733 53356
L112660 53381
L112611 53381
L112538 53356
L112489 53308
L112465 53259
L112440 53161
L112440 53088
L112465 52991
L112489 52942
L112538 52893
L112611 52869
L112660 52869
L112733 52893
L112757 52918
" />
</g>
<g style="fill:#000000; fill-opacity:0.0; 
stroke:#000000; stroke-width:39.3701; stroke-opacity:1; 
stroke-linecap:round; stroke-linejoin:round;">
</g>
<g style="fill:#000000; fill-opacity:0.0; 
stroke:#000000; stroke-width:59.0551; stroke-opacity:1; 
stroke-linecap:round; stroke-linejoin:round;">
<text x="112599" y="73090.6"
textLength="570.866" font-size="682.415" lengthAdjust="spacingAndGlyphs"
text-anchor="middle" opacity="0">D</text>
<path d="M112465 73066
L112465 72554
L112587 72554
L112660 72578
L112708 72627
L112733 72676
L112757 72773
L112757 72846
L112733 72944
L112708 72993
L112660 73041
L112587 73066
L112465 73066
" />
</g>
<g style="fill:#000000; fill-opacity:0.0; 
stroke:#000000; stroke-width:39.3701; stroke-opacity:1; 
stroke-linecap:round; stroke-linejoin:round;">
</g>
<g style="fill:#000000; fill-opacity:0.0; 
stroke:#000000; stroke-width:59.0551; stroke-opacity:1; 
stroke-linecap:round; stroke-linejoin:round;">
<text x="78741" y="76321.7"
textLength="2758.72" font-size="787.402" lengthAdjust="spacingAndGlyphs"
text-anchor="start" opacity="0">Date: </text>
<path d="M78911 76293
L78911 75703
L79051 75703
L79136 75731
L79192 75787
L79220 75843
L79248 75956
L79248 76040
L79220 76153
L79192 76209
L79136 76265
L79051 76293
L78911 76293
" />
<path d="M79754 76293
L79754 75984
L79726 75928
L79670 75899
L79557 75899
L79501 75928
" />
<path d="M79754 76265
L79698 76293
L79557 76293
L79501 76265
L79473 76209
L79473 76153
L79501 76096
L79557 76068
L79698 76068
L79754 76040
" />
<path d="M79951 75899
L80176 75899
" />
<path d="M80036 75703
L80036 76209
L80064 76265
L80120 76293
L80176 76293
" />
<path d="M80598 76265
L80542 76293
L80429 76293
L80373 76265
L80345 76209
L80345 75984
L80373 75928
L80429 75899
L80542 75899
L80598 75928
L80626 75984
L80626 76040
L80345 76096
" />
<path d="M80879 76237
L80907 76265
L80879 76293
L80851 76265
L80879 76237
L80879 76293
" />
<path d="M80879 75928
L80907 75956
L80879 75984
L80851 75956
L80879 75928
L80879 75984
" />
</g>
<g style="fill:#000000; fill-opacity:0.0; 
stroke:#000000; stroke-width:39.3701; stroke-opacity:1; 
stroke-linecap:round; stroke-linejoin:round;">
</g>
<g style="fill:#000000; fill-opacity:0.0; 
stroke:#000000; stroke-width:59.0551; stroke-opacity:1; 
stroke-linecap:round; stroke-linejoin:round;">
<path d="M69685 76577
L112205 76577
" />
</g>
<g style="fill:#000000; fill-opacity:0.0; 
stroke:#000000; stroke-width:39.3701; stroke-opacity:1; 
stroke-linecap:round; stroke-linejoin:round;">
</g>
<g style="fill:#000000; fill-opacity:0.0; 
stroke:#000000; stroke-width:59.0551; stroke-opacity:1; 
stroke-linecap:round; stroke-linejoin:round;">
<text x="70079.6" y="77424.1"
textLength="16960.1" font-size="787.402" lengthAdjust="spacingAndGlyphs"
text-anchor="start" opacity="0">KiCad E.D.A.  kicad (5.1.5-0-10_14)</text>
<path d="M70249 77395
L70249 76805
" />
<path d="M70587 77395
L70334 77058
" />
<path d="M70587 76805
L70249 77142
" />
<path d="M70840 77395
L70840 77002
" />
<path d="M70840 76805
L70812 76833
L70840 76861
L70868 76833
L70840 76805
L70840 76861
" />
<path d="M71458 77339
L71430 77367
L71346 77395
L71290 77395
L71205 77367
L71149 77311
L71121 77255
L71093 77142
L71093 77058
L71121 76946
L71149 76889
L71205 76833
L71290 76805
L71346 76805
L71430 76833
L71458 76861
" />
<path d="M71965 77395
L71965 77086
L71937 77030
L71880 77002
L71768 77002
L71712 77030
" />
<path d="M71965 77367
L71908 77395
L71768 77395
L71712 77367
L71683 77311
L71683 77255
L71712 77199
L71768 77171
L71908 77171
L71965 77142
" />
<path d="M72499 77395
L72499 76805
" />
<path d="M72499 77367
L72443 77395
L72330 77395
L72274 77367
L72246 77339
L72218 77283
L72218 77114
L72246 77058
L72274 77030
L72330 77002
L72443 77002
L72499 77030
" />
<path d="M73230 77086
L73427 77086
" />
<path d="M73511 77395
L73230 77395
L73230 76805
L73511 76805
" />
<path d="M73764 77339
L73793 77367
L73764 77395
L73736 77367
L73764 77339
L73764 77395
" />
<path d="M74046 77395
L74046 76805
L74186 76805
L74271 76833
L74327 76889
L74355 76946
L74383 77058
L74383 77142
L74355 77255
L74327 77311
L74271 77367
L74186 77395
L74046 77395
" />
<path d="M74636 77339
L74664 77367
L74636 77395
L74608 77367
L74636 77339
L74636 77395
" />
<path d="M74889 77227
L75171 77227
" />
<path d="M74833 77395
L75030 76805
L75227 77395
" />
<path d="M75424 77339
L75452 77367
L75424 77395
L75395 77367
L75424 77339
L75424 77395
" />
<path d="M76605 77395
L76605 76805
" />
<path d="M76661 77171
L76830 77395
" />
<path d="M76830 77002
L76605 77227
" />
<path d="M77083 77395
L77083 77002
" />
<path d="M77083 76805
L77055 76833
L77083 76861
L77111 76833
L77083 76805
L77083 76861
" />
<path d="M77617 77367
L77561 77395
L77448 77395
L77392 77367
L77364 77339
L77336 77283
L77336 77114
L77364 77058
L77392 77030
L77448 77002
L77561 77002
L77617 77030
" />
<path d="M78123 77395
L78123 77086
L78095 77030
L78039 77002
L77926 77002
L77870 77030
" />
<path d="M78123 77367
L78067 77395
L77926 77395
L77870 77367
L77842 77311
L77842 77255
L77870 77199
L77926 77171
L78067 77171
L78123 77142
" />
<path d="M78658 77395
L78658 76805
" />
<path d="M78658 77367
L78601 77395
L78489 77395
L78433 77367
L78404 77339
L78376 77283
L78376 77114
L78404 77058
L78433 77030
L78489 77002
L78601 77002
L78658 77030
" />
<path d="M79557 77620
L79529 77592
L79473 77508
L79445 77452
L79417 77367
L79389 77227
L79389 77114
L79417 76974
L79445 76889
L79473 76833
L79529 76749
L79557 76721
" />
<path d="M80064 76805
L79782 76805
L79754 77086
L79782 77058
L79839 77030
L79979 77030
L80036 77058
L80064 77086
L80092 77142
L80092 77283
L80064 77339
L80036 77367
L79979 77395
L79839 77395
L79782 77367
L79754 77339
" />
<path d="M80345 77339
L80373 77367
L80345 77395
L80317 77367
L80345 77339
L80345 77395
" />
<path d="M80935 77395
L80598 77395
" />
<path d="M80767 77395
L80767 76805
L80710 76889
L80654 76946
L80598 76974
" />
<path d="M81188 77339
L81217 77367
L81188 77395
L81160 77367
L81188 77339
L81188 77395
" />
<path d="M81751 76805
L81470 76805
L81442 77086
L81470 77058
L81526 77030
L81667 77030
L81723 77058
L81751 77086
L81779 77142
L81779 77283
L81751 77339
L81723 77367
L81667 77395
L81526 77395
L81470 77367
L81442 77339
" />
<path d="M82032 77171
L82482 77171
" />
<path d="M82876 76805
L82932 76805
L82988 76833
L83016 76861
L83045 76917
L83073 77030
L83073 77171
L83045 77283
L83016 77339
L82988 77367
L82932 77395
L82876 77395
L82820 77367
L82791 77339
L82763 77283
L82735 77171
L82735 77030
L82763 76917
L82791 76861
L82820 76833
L82876 76805
" />
<path d="M83326 77171
L83776 77171
" />
<path d="M84366 77395
L84029 77395
" />
<path d="M84197 77395
L84197 76805
L84141 76889
L84085 76946
L84029 76974
" />
<path d="M84732 76805
L84788 76805
L84844 76833
L84872 76861
L84901 76917
L84929 77030
L84929 77171
L84901 77283
L84872 77339
L84844 77367
L84788 77395
L84732 77395
L84676 77367
L84647 77339
L84619 77283
L84591 77171
L84591 77030
L84619 76917
L84647 76861
L84676 76833
L84732 76805
" />
<path d="M85041 77452
L85491 77452
" />
<path d="M85941 77395
L85604 77395
" />
<path d="M85772 77395
L85772 76805
L85716 76889
L85660 76946
L85604 76974
" />
<path d="M86447 77002
L86447 77395
" />
<path d="M86307 76777
L86166 77199
L86532 77199
" />
<path d="M86700 77620
L86728 77592
L86785 77508
L86813 77452
L86841 77367
L86869 77227
L86869 77114
L86841 76974
L86813 76889
L86785 76833
L86728 76749
L86700 76721
" />
</g>
<g style="fill:#000000; fill-opacity:0.0; 
stroke:#000000; stroke-width:39.3701; stroke-opacity:1; 
stroke-linecap:round; stroke-linejoin:round;">
</g>
<g style="fill:#000000; fill-opacity:0.0; 
stroke:#000000; stroke-width:59.0551; stroke-opacity:1; 
stroke-linecap:round; stroke-linejoin:round;">
<path d="M69685 75396
L112205 75396
" />
</g>
<g style="fill:#000000; fill-opacity:0.0; 
stroke:#000000; stroke-width:39.3701; stroke-opacity:1; 
stroke-linecap:round; stroke-linejoin:round;">
</g>
<g style="fill:#000000; fill-opacity:0.0; 
stroke:#000000; stroke-width:118.11; stroke-opacity:1; 
stroke-linecap:round; stroke-linejoin:round;">
<text x="103544" y="76321.7"
textLength="2336.9" font-size="787.402" lengthAdjust="spacingAndGlyphs"
text-anchor="start" opacity="0">Rev: </text>
<path d="M104099 76293
L103902 76012
" />
<path d="M103761 76293
L103761 75703
L103986 75703
L104042 75731
L104070 75759
L104099 75815
L104099 75899
L104070 75956
L104042 75984
L103986 76012
L103761 76012
" />
<path d="M104577 76265
L104520 76293
L104408 76293
L104352 76265
L104323 76209
L104323 75984
L104352 75928
L104408 75899
L104520 75899
L104577 75928
L104605 75984
L104605 76040
L104323 76096
" />
<path d="M104802 75899
L104942 76293
L105083 75899
" />
<path d="M105308 76237
L105336 76265
L105308 76293
L105280 76265
L105308 76237
L105308 76293
" />
<path d="M105308 75928
L105336 75956
L105308 75984
L105280 75956
L105308 75928
L105308 75984
" />
</g>
<g style="fill:#000000; fill-opacity:0.0; 
stroke:#000000; stroke-width:39.3701; stroke-opacity:1; 
stroke-linecap:round; stroke-linejoin:round;">
</g>
<g style="fill:#000000; fill-opacity:0.0; 
stroke:#000000; stroke-width:59.0551; stroke-opacity:1; 
stroke-linecap:round; stroke-linejoin:round;">
<text x="70079.6" y="76321.7"
textLength="3781.21" font-size="787.402" lengthAdjust="spacingAndGlyphs"
text-anchor="start" opacity="0">Size: A4</text>
<path d="M70221 76265
L70305 76293
L70446 76293
L70502 76265
L70530 76237
L70559 76181
L70559 76124
L70530 76068
L70502 76040
L70446 76012
L70334 75984
L70277 75956
L70249 75928
L70221 75871
L70221 75815
L70249 75759
L70277 75731
L70334 75703
L70474 75703
L70559 75731
" />
<path d="M70812 76293
L70812 75899
" />
<path d="M70812 75703
L70784 75731
L70812 75759
L70840 75731
L70812 75703
L70812 75759
" />
<path d="M71037 75899
L71346 75899
L71037 76293
L71346 76293
" />
<path d="M71796 76265
L71740 76293
L71627 76293
L71571 76265
L71543 76209
L71543 75984
L71571 75928
L71627 75899
L71740 75899
L71796 75928
L71824 75984
L71824 76040
L71543 76096
" />
<path d="M72077 76237
L72105 76265
L72077 76293
L72049 76265
L72077 76237
L72077 76293
" />
<path d="M72077 75928
L72105 75956
L72077 75984
L72049 75956
L72077 75928
L72077 75984
" />
<path d="M72780 76124
L73061 76124
" />
<path d="M72724 76293
L72921 75703
L73118 76293
" />
<path d="M73568 75899
L73568 76293
" />
<path d="M73427 75674
L73286 76096
L73652 76096
" />
</g>
<g style="fill:#000000; fill-opacity:0.0; 
stroke:#000000; stroke-width:39.3701; stroke-opacity:1; 
stroke-linecap:round; stroke-linejoin:round;">
</g>
<g style="fill:#000000; fill-opacity:0.0; 
stroke:#000000; stroke-width:59.0551; stroke-opacity:1; 
stroke-linecap:round; stroke-linejoin:round;">
<text x="103544" y="77424.1"
textLength="3349.27" font-size="787.402" lengthAdjust="spacingAndGlyphs"
text-anchor="start" opacity="0">Id: 1/1</text>
<path d="M103714 77395
L103714 76805
" />
<path d="M104248 77395
L104248 76805
" />
<path d="M104248 77367
L104192 77395
L104079 77395
L104023 77367
L103995 77339
L103967 77283
L103967 77114
L103995 77058
L104023 77030
L104079 77002
L104192 77002
L104248 77030
" />
<path d="M104529 77339
L104557 77367
L104529 77395
L104501 77367
L104529 77339
L104529 77395
" />
<path d="M104529 77030
L104557 77058
L104529 77086
L104501 77058
L104529 77030
L104529 77086
" />
<path d="M105570 77395
L105232 77395
" />
<path d="M105401 77395
L105401 76805
L105345 76889
L105289 76946
L105232 76974
" />
<path d="M106245 76777
L105739 77536
" />
<path d="M106751 77395
L106413 77395
" />
<path d="M106582 77395
L106582 76805
L106526 76889
L106470 76946
L106413 76974
" />
</g>
<g style="fill:#000000; fill-opacity:0.0; 
stroke:#000000; stroke-width:39.3701; stroke-opacity:1; 
stroke-linecap:round; stroke-linejoin:round;">
</g>
<g style="fill:#000000; fill-opacity:0.0; 
stroke:#000000; stroke-width:59.0551; stroke-opacity:1; 
stroke-linecap:round; stroke-linejoin:round;">
<path d="M69685 73821
L112205 73821
" />
</g>
<g style="fill:#000000; fill-opacity:0.0; 
stroke:#000000; stroke-width:39.3701; stroke-opacity:1; 
stroke-linecap:round; stroke-linejoin:round;">
</g>
<g style="fill:#000000; fill-opacity:0.0; 
stroke:#000000; stroke-width:157.48; stroke-opacity:1; 
stroke-linecap:round; stroke-linejoin:round;">
<text x="70079.6" y="74924.1"
textLength="3701.14" font-size="1049.87" lengthAdjust="spacingAndGlyphs"
text-anchor="start" opacity="0">Title: </text>
<path d="M70360 74099
L70810 74099
" />
<path d="M70486 74886
L70585 74099
" />
<path d="M70974 74886
L71039 74361
" />
<path d="M71072 74099
L71030 74136
L71063 74174
L71105 74136
L71072 74099
L71063 74174
" />
<path d="M71302 74361
L71602 74361
" />
<path d="M71447 74099
L71363 74774
L71391 74849
L71461 74886
L71536 74886
" />
<path d="M71911 74886
L71841 74849
L71813 74774
L71897 74099
" />
<path d="M72516 74849
L72436 74886
L72286 74886
L72216 74849
L72187 74774
L72225 74474
L72272 74399
L72352 74361
L72501 74361
L72572 74399
L72600 74474
L72591 74549
L72206 74624
" />
<path d="M72895 74811
L72928 74849
L72886 74886
L72853 74849
L72895 74811
L72886 74886
" />
<path d="M72947 74399
L72980 74436
L72937 74474
L72905 74436
L72947 74399
L72937 74474
" />
</g>
<g style="fill:#000000; fill-opacity:0.0; 
stroke:#000000; stroke-width:39.3701; stroke-opacity:1; 
stroke-linecap:round; stroke-linejoin:round;">
</g>
<g style="fill:#000000; fill-opacity:0.0; 
stroke:#000000; stroke-width:59.0551; stroke-opacity:1; 
stroke-linecap:round; stroke-linejoin:round;">
<text x="70079.6" y="73408.3"
textLength="13674.9" font-size="787.402" lengthAdjust="spacingAndGlyphs"
text-anchor="start" opacity="0">File: Main_Board_v1.kicad_pcb</text>
<path d="M70446 73070
L70249 73070
" />
<path d="M70249 73380
L70249 72789
L70530 72789
" />
<path d="M70755 73380
L70755 72986
" />
<path d="M70755 72789
L70727 72817
L70755 72845
L70784 72817
L70755 72789
L70755 72845
" />
<path d="M71121 73380
L71065 73352
L71037 73295
L71037 72789
" />
<path d="M71571 73352
L71515 73380
L71402 73380
L71346 73352
L71318 73295
L71318 73070
L71346 73014
L71402 72986
L71515 72986
L71571 73014
L71599 73070
L71599 73127
L71318 73183
" />
<path d="M71852 73323
L71880 73352
L71852 73380
L71824 73352
L71852 73323
L71852 73380
" />
<path d="M71852 73014
L71880 73042
L71852 73070
L71824 73042
L71852 73014
L71852 73070
" />
<path d="M72583 73380
L72583 72789
L72780 73211
L72977 72789
L72977 73380
" />
<path d="M73511 73380
L73511 73070
L73483 73014
L73427 72986
L73314 72986
L73258 73014
" />
<path d="M73511 73352
L73455 73380
L73314 73380
L73258 73352
L73230 73295
L73230 73239
L73258 73183
L73314 73155
L73455 73155
L73511 73127
" />
<path d="M73793 73380
L73793 72986
" />
<path d="M73793 72789
L73764 72817
L73793 72845
L73821 72817
L73793 72789
L73793 72845
" />
<path d="M74074 72986
L74074 73380
" />
<path d="M74074 73042
L74102 73014
L74158 72986
L74242 72986
L74299 73014
L74327 73070
L74327 73380
" />
<path d="M74467 73436
L74917 73436
" />
<path d="M75255 73070
L75339 73099
L75367 73127
L75395 73183
L75395 73267
L75367 73323
L75339 73352
L75283 73380
L75058 73380
L75058 72789
L75255 72789
L75311 72817
L75339 72845
L75367 72902
L75367 72958
L75339 73014
L75311 73042
L75255 73070
L75058 73070
" />
<path d="M75733 73380
L75677 73352
L75649 73323
L75620 73267
L75620 73099
L75649 73042
L75677 73014
L75733 72986
L75817 72986
L75874 73014
L75902 73042
L75930 73099
L75930 73267
L75902 73323
L75874 73352
L75817 73380
L75733 73380
" />
<path d="M76436 73380
L76436 73070
L76408 73014
L76352 72986
L76239 72986
L76183 73014
" />
<path d="M76436 73352
L76380 73380
L76239 73380
L76183 73352
L76155 73295
L76155 73239
L76183 73183
L76239 73155
L76380 73155
L76436 73127
" />
<path d="M76717 73380
L76717 72986
" />
<path d="M76717 73099
L76745 73042
L76773 73014
L76830 72986
L76886 72986
" />
<path d="M77336 73380
L77336 72789
" />
<path d="M77336 73352
L77280 73380
L77167 73380
L77111 73352
L77083 73323
L77055 73267
L77055 73099
L77083 73042
L77111 73014
L77167 72986
L77280 72986
L77336 73014
" />
<path d="M77476 73436
L77926 73436
" />
<path d="M78011 72986
L78151 73380
L78292 72986
" />
<path d="M78826 73380
L78489 73380
" />
<path d="M78658 73380
L78658 72789
L78601 72874
L78545 72930
L78489 72958
" />
<path d="M79079 73323
L79108 73352
L79079 73380
L79051 73352
L79079 73323
L79079 73380
" />
<path d="M79361 73380
L79361 72789
" />
<path d="M79417 73155
L79586 73380
" />
<path d="M79586 72986
L79361 73211
" />
<path d="M79839 73380
L79839 72986
" />
<path d="M79839 72789
L79811 72817
L79839 72845
L79867 72817
L79839 72789
L79839 72845
" />
<path d="M80373 73352
L80317 73380
L80204 73380
L80148 73352
L80120 73323
L80092 73267
L80092 73099
L80120 73042
L80148 73014
L80204 72986
L80317 72986
L80373 73014
" />
<path d="M80879 73380
L80879 73070
L80851 73014
L80795 72986
L80682 72986
L80626 73014
" />
<path d="M80879 73352
L80823 73380
L80682 73380
L80626 73352
L80598 73295
L80598 73239
L80626 73183
L80682 73155
L80823 73155
L80879 73127
" />
<path d="M81413 73380
L81413 72789
" />
<path d="M81413 73352
L81357 73380
L81245 73380
L81188 73352
L81160 73323
L81132 73267
L81132 73099
L81160 73042
L81188 73014
L81245 72986
L81357 72986
L81413 73014
" />
<path d="M81554 73436
L82004 73436
" />
<path d="M82145 72986
L82145 73577
" />
<path d="M82145 73014
L82201 72986
L82313 72986
L82370 73014
L82398 73042
L82426 73099
L82426 73267
L82398 73323
L82370 73352
L82313 73380
L82201 73380
L82145 73352
" />
<path d="M82932 73352
L82876 73380
L82763 73380
L82707 73352
L82679 73323
L82651 73267
L82651 73099
L82679 73042
L82707 73014
L82763 72986
L82876 72986
L82932 73014
" />
<path d="M83185 73380
L83185 72789
" />
<path d="M83185 73014
L83241 72986
L83354 72986
L83410 73014
L83438 73042
L83466 73099
L83466 73267
L83438 73323
L83410 73352
L83354 73380
L83241 73380
L83185 73352
" />
</g>
<g style="fill:#000000; fill-opacity:0.0; 
stroke:#000000; stroke-width:39.3701; stroke-opacity:1; 
stroke-linecap:round; stroke-linejoin:round;">
</g>
<g style="fill:#000000; fill-opacity:0.0; 
stroke:#000000; stroke-width:59.0551; stroke-opacity:1; 
stroke-linecap:round; stroke-linejoin:round;">
<path d="M69685 71459
L112205 71459
" />
</g>
<g style="fill:#000000; fill-opacity:0.0; 
stroke:#000000; stroke-width:39.3701; stroke-opacity:1; 
stroke-linecap:round; stroke-linejoin:round;">
</g>
<g style="fill:#000000; fill-opacity:0.0; 
stroke:#000000; stroke-width:59.0551; stroke-opacity:1; 
stroke-linecap:round; stroke-linejoin:round;">
<text x="70079.6" y="72345.4"
textLength="3236.78" font-size="787.402" lengthAdjust="spacingAndGlyphs"
text-anchor="start" opacity="0">Sheet: </text>
<path d="M70221 72289
L70305 72317
L70446 72317
L70502 72289
L70530 72260
L70559 72204
L70559 72148
L70530 72092
L70502 72064
L70446 72036
L70334 72007
L70277 71979
L70249 71951
L70221 71895
L70221 71839
L70249 71782
L70277 71754
L70334 71726
L70474 71726
L70559 71754
" />
<path d="M70812 72317
L70812 71726
" />
<path d="M71065 72317
L71065 72007
L71037 71951
L70980 71923
L70896 71923
L70840 71951
L70812 71979
" />
<path d="M71571 72289
L71515 72317
L71402 72317
L71346 72289
L71318 72232
L71318 72007
L71346 71951
L71402 71923
L71515 71923
L71571 71951
L71599 72007
L71599 72064
L71318 72120
" />
<path d="M72077 72289
L72021 72317
L71908 72317
L71852 72289
L71824 72232
L71824 72007
L71852 71951
L71908 71923
L72021 71923
L72077 71951
L72105 72007
L72105 72064
L71824 72120
" />
<path d="M72274 71923
L72499 71923
" />
<path d="M72358 71726
L72358 72232
L72386 72289
L72443 72317
L72499 72317
" />
<path d="M72696 72260
L72724 72289
L72696 72317
L72668 72289
L72696 72260
L72696 72317
" />
<path d="M72696 71951
L72724 71979
L72696 72007
L72668 71979
L72696 71951
L72696 72007
" />
</g>
<g style="fill:#000000; fill-opacity:0.0; 
stroke:#000000; stroke-width:39.3701; stroke-opacity:1; 
stroke-linecap:round; stroke-linejoin:round;">
</g>
<g style="fill:#000000; fill-opacity:0.0; 
stroke:#000000; stroke-width:59.0551; stroke-opacity:1; 
stroke-linecap:round; stroke-linejoin:round;">
<path d="M77559 75396
L77559 76577
" />
</g>
<g style="fill:#000000; fill-opacity:0.0; 
stroke:#000000; stroke-width:39.3701; stroke-opacity:1; 
stroke-linecap:round; stroke-linejoin:round;">
</g>
<g style="fill:#000000; fill-opacity:0.0; 
stroke:#000000; stroke-width:59.0551; stroke-opacity:1; 
stroke-linecap:round; stroke-linejoin:round;">
<path d="M102756 75396
L102756 77955
" />
</g>
<g style="fill:#000084; fill-opacity:0.0; 
stroke:#000084; stroke-width:59.0551; stroke-opacity:1; 
stroke-linecap:round; stroke-linejoin:round;">
</g>
<g style="fill:#000084; fill-opacity:0.0; 
stroke:#000084; stroke-width:39.3701; stroke-opacity:1; 
stroke-linecap:round; stroke-linejoin:round;">
<path d="M11924 29547
L12424 30047
" />
<path d="M11912 26897
L11912 29535
" />
<path d="M15062 26897
L11912 26897
" />
<path d="M15062 30047
L15062 26897
" />
<path d="M12424 30047
L15062 30047
" />
<path d="M57353 15507
L56853 15007
" />
<path d="M57365 18157
L57365 15519
" />
<path d="M54215 18157
L57365 18157
" />
<path d="M54215 15007
L54215 18157
" />
<path d="M56853 15007
L54215 15007
" />
<path d="M23318 48007
L22818 47507
" />
<path d="M23329 50657
L23329 48019
" />
<path d="M20180 50657
L23329 50657
" />
<path d="M20180 47507
L20180 50657
" />
<path d="M22818 47507
L20180 47507
" />
<path d="M15050 41231
L14550 40731
" />
<path d="M15062 43880
L15062 41242
" />
<path d="M11912 43880
L15062 43880
" />
<path d="M11912 40731
L11912 43880
" />
<path d="M14550 40731
L11912 40731
" />
<path d="M29420 48007
L28920 47507
" />
<path d="M29432 50657
L29432 48019
" />
<path d="M26282 50657
L29432 50657
" />
<path d="M26282 47507
L26282 50657
" />
<path d="M28920 47507
L26282 47507
" />
<path d="M15050 45842
L14550 45342
" />
<path d="M15062 48491
L15062 45854
" />
<path d="M11912 48491
L15062 48491
" />
<path d="M11912 45342
L11912 48491
" />
<path d="M14550 45342
L11912 45342
" />
<path d="M11924 34158
L12424 34658
" />
<path d="M11912 31508
L11912 34146
" />
<path d="M15062 31508
L11912 31508
" />
<path d="M15062 34658
L15062 31508
" />
<path d="M12424 34658
L15062 34658
" />
<path d="M41625 48007
L41125 47507
" />
<path d="M41636 50657
L41636 48019
" />
<path d="M38487 50657
L41636 50657
" />
<path d="M38487 47507
L38487 50657
" />
<path d="M41125 47507
L38487 47507
" />
<path d="M15050 36619
L14550 36119
" />
<path d="M15062 39269
L15062 36631
" />
<path d="M11912 39269
L15062 39269
" />
<path d="M11912 36119
L11912 39269
" />
<path d="M14550 36119
L11912 36119
" />
<path d="M35522 48007
L35022 47507
" />
<path d="M35534 50657
L35534 48019
" />
<path d="M32384 50657
L35534 50657
" />
<path d="M32384 47507
L32384 50657
" />
<path d="M35022 47507
L32384 47507
" />
<path d="M54227 25117
L54727 25617
" />
<path d="M54215 22468
L54215 25106
" />
<path d="M57365 22468
L54215 22468
" />
<path d="M57365 25617
L57365 22468
" />
<path d="M54727 25617
L57365 25617
" />
<path d="M48475 35407
L48225 35157
" />
<path d="M48475 39157
L48475 35407
" />
<path d="M47475 39157
L48475 39157
" />
<path d="M47475 35157
L47475 39157
" />
<path d="M48225 35157
L47475 35157
" />
<path d="M47727 48007
L47227 47507
" />
<path d="M47739 50657
L47739 48019
" />
<path d="M44589 50657
L47739 50657
" />
<path d="M44589 47507
L44589 50657
" />
<path d="M47227 47507
L44589 47507
" />
<path d="M48318 16293
L48068 16043
" />
<path d="M48318 20043
L48318 16293
" />
<path d="M47318 20043
L48318 20043
" />
<path d="M47318 16043
L47318 20043
" />
<path d="M48068 16043
L47318 16043
" />
<g >
</g>
<g >
</g>
<g >
</g>
<g >
</g>
<g >
</g>
<g >
</g>
<g >
</g>
<g >
</g>
<g >
</g>
<g >
</g>
<g >
</g>
<g >
</g>
<g >
</g>
<g >
</g>
<g >
</g>
<g >
</g>
<g >
</g>
<g >
</g>
<g >
</g>
<g >
</g>
<g >
</g>
<g >
</g>
<g >
</g>
<g >
</g>
<g >
</g>
<g >
</g>
<g >
</g>
<g >
</g>
<g >
</g>
<g >
</g>
<g >
</g>
<g >
</g>
<g >
</g>
<g >
</g>
<g >
</g>
<g >
</g>
<g >
</g>
<g >
</g>
<g >
</g>
<g >
</g>
<g >
</g>
<g >
</g>
<g >
</g>
<g >
</g>
<g >
</g>
<g >
</g>
<g >
</g>
<g >
</g>
<g >
</g>
<g >
</g>
<g >
</g>
<g >
</g>
<g >
</g>
<g >
</g>
<g >
</g>
<g >
</g>
<g >
</g>
<g >
</g>
<g >
</g>
<g >
</g>
<g >
</g>
<g >
</g>
<g >
</g>
<g >
</g>
<g >
</g>
<g >
</g>
<g >
</g>
<g >
</g>
<g >
</g>
<g >
</g>
<g >
</g>
<g >
</g>
<g >
</g>
<g >
</g>
<g >
</g>
<g >
</g>
<g >
</g>
<g >
</g>
<g >
</g>
<g >
</g>
<g >
</g>
<g >
</g>
<g >
</g>
<g >
</g>
<g >
</g>
<g >
</g>
<g >
</g>
<g >
</g>
<g >
</g>
<g >
</g>
<g >
</g>
<g >
</g>
<g >
</g>
<g >
</g>
<g >
</g>
<g >
</g>
<g >
</g>
<g >
</g>
<g >
</g>
<g >
</g>
<g >
</g>
<g >
</g>
<g >
</g>
<g >
</g>
<g >
</g>
<g >
</g>
<g >
</g>
<g >
</g>
<g >
</g>
<g >
</g>
<g >
</g>
<g >
</g>
<g >
</g>
<g >
</g>
<g >
</g>
<g >
</g>
<g >
</g>
<g >
</g>
<g >
</g>
<g >
</g>
<g >
</g>
<g >
</g>
<g >
</g>
<g >
</g>
<g >
</g>
<g >
</g>
</g>
<g style="fill:#000084; fill-opacity:0.0; 
stroke:#000084; stroke-width:39.3701; stroke-opacity:1; 
stroke-linecap:round; stroke-linejoin:round;">
</g>
<g style="fill:#000084; fill-opacity:0.0; 
stroke:#000084; stroke-width:59.0551; stroke-opacity:1; 
stroke-linecap:round; stroke-linejoin:round;">
<text x="13605.5" y="26543.1"
textLength="-2134.42" font-size="-524.934" lengthAdjust="spacingAndGlyphs"
text-anchor="middle" opacity="0">BREATH</text>
<path d="M14477 26318
L14420 26336
L14402 26355
L14383 26393
L14383 26449
L14402 26486
L14420 26505
L14458 26524
L14608 26524
L14608 26130
L14477 26130
L14439 26149
L14420 26168
L14402 26205
L14402 26243
L14420 26280
L14439 26299
L14477 26318
L14608 26318
" />
<path d="M13989 26524
L14121 26336
" />
<path d="M14214 26524
L14214 26130
L14064 26130
L14027 26149
L14008 26168
L13989 26205
L13989 26261
L14008 26299
L14027 26318
L14064 26336
L14214 26336
" />
<path d="M13821 26318
L13689 26318
" />
<path d="M13633 26524
L13821 26524
L13821 26130
L13633 26130
" />
<path d="M13483 26411
L13296 26411
" />
<path d="M13521 26524
L13389 26130
L13258 26524
" />
<path d="M13183 26130
L12958 26130
" />
<path d="M13071 26524
L13071 26130
" />
<path d="M12827 26524
L12827 26130
" />
<path d="M12827 26318
L12602 26318
" />
<path d="M12602 26524
L12602 26130
" />
<g transform="rotate(90 11322 28629.7)">
<text x="11322" y="28826.5"
textLength="-973.097" font-size="-524.934" lengthAdjust="spacingAndGlyphs"
text-anchor="middle" opacity="0">J18</text>
</g>
<path d="M11537 28948
L11256 28948
L11200 28967
L11162 29004
L11143 29060
L11143 29098
" />
<path d="M11143 28554
L11143 28779
" />
<path d="M11143 28667
L11537 28667
L11481 28704
L11443 28742
L11425 28779
" />
<path d="M11368 28329
L11387 28367
L11406 28385
L11443 28404
L11462 28404
L11500 28385
L11518 28367
L11537 28329
L11537 28254
L11518 28217
L11500 28198
L11462 28179
L11443 28179
L11406 28198
L11387 28217
L11368 28254
L11368 28329
L11350 28367
L11331 28385
L11293 28404
L11218 28404
L11181 28385
L11162 28367
L11143 28329
L11143 28254
L11162 28217
L11181 28198
L11218 28179
L11293 28179
L11331 28198
L11350 28217
L11368 28254
" />
<text x="55672.4" y="18905.3"
textLength="-1441.79" font-size="-524.934" lengthAdjust="spacingAndGlyphs"
text-anchor="middle" opacity="0">MUTE</text>
<path d="M56337 18886
L56337 18492
L56206 18774
L56075 18492
L56075 18886
" />
<path d="M55887 18492
L55887 18811
L55869 18849
L55850 18867
L55812 18886
L55738 18886
L55700 18867
L55681 18849
L55663 18811
L55663 18492
" />
<path d="M55531 18492
L55306 18492
" />
<path d="M55419 18886
L55419 18492
" />
<path d="M55175 18680
L55044 18680
" />
<path d="M54988 18886
L55175 18886
L55175 18492
L54988 18492
" />
<g transform="rotate(-90 57955.8 16425)">
<text x="57955.8" y="16621.8"
textLength="-973.097" font-size="-524.934" lengthAdjust="spacingAndGlyphs"
text-anchor="middle" opacity="0">J14</text>
</g>
<path d="M57740 16106
L58021 16106
L58077 16087
L58115 16050
L58133 15993
L58133 15956
" />
<path d="M58133 16499
L58133 16274
" />
<path d="M58133 16387
L57740 16387
L57796 16349
L57833 16312
L57852 16274
" />
<path d="M57871 16837
L58133 16837
" />
<path d="M57721 16743
L58002 16649
L58002 16893
" />
<text x="21637" y="51405.3"
textLength="-1479.28" font-size="-524.934" lengthAdjust="spacingAndGlyphs"
text-anchor="middle" opacity="0">PMAX</text>
<path d="M22321 51386
L22321 50992
L22171 50992
L22133 51011
L22115 51030
L22096 51067
L22096 51124
L22115 51161
L22133 51180
L22171 51199
L22321 51199
" />
<path d="M21927 51386
L21927 50992
L21796 51274
L21665 50992
L21665 51386
" />
<path d="M21496 51274
L21308 51274
" />
<path d="M21533 51386
L21402 50992
L21271 51386
" />
<path d="M21177 50992
L20915 51386
" />
<path d="M20915 50992
L21177 51386
" />
<g transform="rotate(-90 23920.4 48925)">
<text x="23920.4" y="49121.8"
textLength="-973.097" font-size="-524.934" lengthAdjust="spacingAndGlyphs"
text-anchor="middle" opacity="0">J26</text>
</g>
<path d="M23704 48606
L23986 48606
L24042 48587
L24079 48550
L24098 48493
L24098 48456
" />
<path d="M23742 48774
L23723 48793
L23704 48831
L23704 48924
L23723 48962
L23742 48981
L23779 48999
L23817 48999
L23873 48981
L24098 48756
L24098 48999
" />
<path d="M23704 49337
L23704 49262
L23723 49224
L23742 49206
L23798 49168
L23873 49149
L24023 49149
L24061 49168
L24079 49187
L24098 49224
L24098 49299
L24079 49337
L24061 49356
L24023 49374
L23929 49374
L23892 49356
L23873 49337
L23854 49299
L23854 49224
L23873 49187
L23892 49168
L23929 49149
" />
<text x="13369.2" y="44628.7"
textLength="-2454.16" font-size="-524.934" lengthAdjust="spacingAndGlyphs"
text-anchor="middle" opacity="0">VOL_MAX</text>
<path d="M14597 44216
L14465 44609
L14334 44216
" />
<path d="M14128 44216
L14053 44216
L14016 44234
L13978 44272
L13959 44347
L13959 44478
L13978 44553
L14016 44591
L14053 44609
L14128 44609
L14166 44591
L14203 44553
L14222 44478
L14222 44347
L14203 44272
L14166 44234
L14128 44216
" />
<path d="M13603 44609
L13791 44609
L13791 44216
" />
<path d="M13566 44647
L13266 44647
" />
<path d="M13172 44609
L13172 44216
L13041 44497
L12909 44216
L12909 44609
" />
<path d="M12741 44497
L12553 44497
" />
<path d="M12778 44609
L12647 44216
L12516 44609
" />
<path d="M12422 44216
L12160 44609
" />
<path d="M12160 44216
L12422 44609
" />
<g transform="rotate(-90 15652.7 42148.4)">
<text x="15652.7" y="42345.2"
textLength="-973.097" font-size="-524.934" lengthAdjust="spacingAndGlyphs"
text-anchor="middle" opacity="0">J23</text>
</g>
<path d="M15437 41829
L15718 41829
L15774 41810
L15812 41773
L15830 41717
L15830 41679
" />
<path d="M15474 41998
L15455 42017
L15437 42054
L15437 42148
L15455 42185
L15474 42204
L15512 42223
L15549 42223
L15605 42204
L15830 41979
L15830 42223
" />
<path d="M15437 42354
L15437 42598
L15587 42467
L15587 42523
L15605 42560
L15624 42579
L15662 42598
L15755 42598
L15793 42579
L15812 42560
L15830 42523
L15830 42410
L15812 42373
L15793 42354
" />
<text x="27739.3" y="51405.3"
textLength="-991.845" font-size="-524.934" lengthAdjust="spacingAndGlyphs"
text-anchor="middle" opacity="0">VOL</text>
<path d="M28236 50992
L28104 51386
L27973 50992
" />
<path d="M27767 50992
L27692 50992
L27654 51011
L27617 51049
L27598 51124
L27598 51255
L27617 51330
L27654 51367
L27692 51386
L27767 51386
L27804 51367
L27842 51330
L27861 51255
L27861 51124
L27842 51049
L27804 51011
L27767 50992
" />
<path d="M27242 51386
L27429 51386
L27429 50992
" />
<g transform="rotate(-90 30022.8 48925)">
<text x="30022.8" y="49121.8"
textLength="-973.097" font-size="-524.934" lengthAdjust="spacingAndGlyphs"
text-anchor="middle" opacity="0">J22</text>
</g>
<path d="M29807 48606
L30088 48606
L30144 48587
L30182 48550
L30200 48493
L30200 48456
" />
<path d="M29844 48774
L29825 48793
L29807 48831
L29807 48924
L29825 48962
L29844 48981
L29882 48999
L29919 48999
L29975 48981
L30200 48756
L30200 48999
" />
<path d="M29844 49149
L29825 49168
L29807 49206
L29807 49299
L29825 49337
L29844 49356
L29882 49374
L29919 49374
L29975 49356
L30200 49131
L30200 49374
" />
<text x="13369.2" y="49239.9"
textLength="-2341.68" font-size="-524.934" lengthAdjust="spacingAndGlyphs"
text-anchor="middle" opacity="0">VOL_MIN</text>
<path d="M14540 48827
L14409 49221
L14278 48827
" />
<path d="M14072 48827
L13997 48827
L13959 48846
L13922 48883
L13903 48958
L13903 49089
L13922 49164
L13959 49202
L13997 49221
L14072 49221
L14109 49202
L14147 49164
L14166 49089
L14166 48958
L14147 48883
L14109 48846
L14072 48827
" />
<path d="M13547 49221
L13734 49221
L13734 48827
" />
<path d="M13509 49258
L13209 49258
" />
<path d="M13116 49221
L13116 48827
L12984 49108
L12853 48827
L12853 49221
" />
<path d="M12666 49221
L12666 48827
" />
<path d="M12478 49221
L12478 48827
L12253 49221
L12253 48827
" />
<g transform="rotate(-90 15652.7 46759.6)">
<text x="15652.7" y="46956.4"
textLength="-973.097" font-size="-524.934" lengthAdjust="spacingAndGlyphs"
text-anchor="middle" opacity="0">J21</text>
</g>
<path d="M15437 46440
L15718 46440
L15774 46422
L15812 46384
L15830 46328
L15830 46290
" />
<path d="M15474 46609
L15455 46628
L15437 46665
L15437 46759
L15455 46797
L15474 46815
L15512 46834
L15549 46834
L15605 46815
L15830 46590
L15830 46834
" />
<path d="M15830 47209
L15830 46984
" />
<path d="M15830 47097
L15437 47097
L15493 47059
L15530 47022
L15549 46984
" />
<text x="13605.5" y="31154.3"
textLength="-410.667" font-size="-524.934" lengthAdjust="spacingAndGlyphs"
text-anchor="middle" opacity="0">+</text>
<path d="M13755 30985
L13455 30985
" />
<path d="M13605 31135
L13605 30835
" />
<g transform="rotate(90 11322 33240.9)">
<text x="11322" y="33437.7"
textLength="-973.097" font-size="-524.934" lengthAdjust="spacingAndGlyphs"
text-anchor="middle" opacity="0">J20</text>
</g>
<path d="M11537 33559
L11256 33559
L11200 33578
L11162 33615
L11143 33672
L11143 33709
" />
<path d="M11500 33390
L11518 33372
L11537 33334
L11537 33240
L11518 33203
L11500 33184
L11462 33165
L11425 33165
L11368 33184
L11143 33409
L11143 33165
" />
<path d="M11537 32922
L11537 32884
L11518 32847
L11500 32828
L11462 32809
L11387 32790
L11293 32790
L11218 32809
L11181 32828
L11162 32847
L11143 32884
L11143 32922
L11162 32959
L11181 32978
L11218 32997
L11293 33015
L11387 33015
L11462 32997
L11500 32978
L11518 32959
L11537 32922
" />
<text x="39944" y="51405.3"
textLength="-673.135" font-size="-524.934" lengthAdjust="spacingAndGlyphs"
text-anchor="middle" opacity="0">EP</text>
<path d="M40225 51180
L40094 51180
" />
<path d="M40037 51386
L40225 51386
L40225 50992
L40037 50992
" />
<path d="M39869 51386
L39869 50992
L39719 50992
L39681 51011
L39662 51030
L39644 51067
L39644 51124
L39662 51161
L39681 51180
L39719 51199
L39869 51199
" />
<g transform="rotate(-90 42227.5 48925)">
<text x="42227.5" y="49121.8"
textLength="-973.097" font-size="-524.934" lengthAdjust="spacingAndGlyphs"
text-anchor="middle" opacity="0">J19</text>
</g>
<path d="M42011 48606
L42293 48606
L42349 48587
L42386 48550
L42405 48493
L42405 48456
" />
<path d="M42405 48999
L42405 48774
" />
<path d="M42405 48887
L42011 48887
L42068 48849
L42105 48812
L42124 48774
" />
<path d="M42405 49187
L42405 49262
L42386 49299
L42368 49318
L42311 49356
L42236 49374
L42086 49374
L42049 49356
L42030 49337
L42011 49299
L42011 49224
L42030 49187
L42049 49168
L42086 49149
L42180 49149
L42218 49168
L42236 49187
L42255 49224
L42255 49299
L42236 49337
L42218 49356
L42180 49374
" />
<text x="13369.2" y="40017.5"
textLength="-410.667" font-size="-524.934" lengthAdjust="spacingAndGlyphs"
text-anchor="middle" opacity="0">-</text>
<path d="M13519 39848
L13219 39848
" />
<g transform="rotate(-90 15652.7 37537.2)">
<text x="15652.7" y="37734"
textLength="-973.097" font-size="-524.934" lengthAdjust="spacingAndGlyphs"
text-anchor="middle" opacity="0">J17</text>
</g>
<path d="M15437 37218
L15718 37218
L15774 37199
L15812 37162
L15830 37105
L15830 37068
" />
<path d="M15830 37612
L15830 37387
" />
<path d="M15830 37499
L15437 37499
L15493 37462
L15530 37424
L15549 37387
" />
<path d="M15437 37743
L15437 38005
L15830 37837
" />
<text x="33841.7" y="51405.3"
textLength="-504.406" font-size="-524.934" lengthAdjust="spacingAndGlyphs"
text-anchor="middle" opacity="0">IP</text>
<path d="M34038 51386
L34038 50992
" />
<path d="M33851 51386
L33851 50992
L33701 50992
L33663 51011
L33644 51030
L33626 51067
L33626 51124
L33644 51161
L33663 51180
L33701 51199
L33851 51199
" />
<g transform="rotate(-90 36125.1 48925)">
<text x="36125.1" y="49121.8"
textLength="-973.097" font-size="-524.934" lengthAdjust="spacingAndGlyphs"
text-anchor="middle" opacity="0">J16</text>
</g>
<path d="M35909 48606
L36190 48606
L36246 48587
L36284 48550
L36303 48493
L36303 48456
" />
<path d="M36303 48999
L36303 48774
" />
<path d="M36303 48887
L35909 48887
L35965 48849
L36003 48812
L36022 48774
" />
<path d="M35909 49337
L35909 49262
L35928 49224
L35947 49206
L36003 49168
L36078 49149
L36228 49149
L36265 49168
L36284 49187
L36303 49224
L36303 49299
L36284 49337
L36265 49356
L36228 49374
L36134 49374
L36097 49356
L36078 49337
L36059 49299
L36059 49224
L36078 49187
L36097 49168
L36134 49149
" />
<text x="55908.6" y="22113.9"
textLength="-2341.68" font-size="-524.934" lengthAdjust="spacingAndGlyphs"
text-anchor="middle" opacity="0">HISTORY</text>
<path d="M57024 22095
L57024 21701
" />
<path d="M57024 21888
L56799 21888
" />
<path d="M56799 22095
L56799 21701
" />
<path d="M56611 22095
L56611 21701
" />
<path d="M56442 22076
L56386 22095
L56292 22095
L56255 22076
L56236 22057
L56217 22020
L56217 21982
L56236 21945
L56255 21926
L56292 21907
L56367 21888
L56405 21870
L56424 21851
L56442 21813
L56442 21776
L56424 21738
L56405 21720
L56367 21701
L56274 21701
L56217 21720
" />
<path d="M56105 21701
L55880 21701
" />
<path d="M55992 22095
L55992 21701
" />
<path d="M55674 21701
L55599 21701
L55561 21720
L55524 21757
L55505 21832
L55505 21963
L55524 22038
L55561 22076
L55599 22095
L55674 22095
L55711 22076
L55749 22038
L55767 21963
L55767 21832
L55749 21757
L55711 21720
L55674 21701
" />
<path d="M55111 22095
L55243 21907
" />
<path d="M55336 22095
L55336 21701
L55186 21701
L55149 21720
L55130 21738
L55111 21776
L55111 21832
L55130 21870
L55149 21888
L55186 21907
L55336 21907
" />
<path d="M54868 21907
L54868 22095
" />
<path d="M54999 21701
L54868 21907
L54736 21701
" />
<g transform="rotate(90 53625.1 24200.5)">
<text x="53625.1" y="24397.4"
textLength="-973.097" font-size="-524.934" lengthAdjust="spacingAndGlyphs"
text-anchor="middle" opacity="0">J15</text>
</g>
<path d="M53840 24519
L53559 24519
L53503 24538
L53465 24575
L53447 24631
L53447 24669
" />
<path d="M53447 24125
L53447 24350
" />
<path d="M53447 24238
L53840 24238
L53784 24275
L53746 24313
L53728 24350
" />
<path d="M53840 23769
L53840 23956
L53653 23975
L53672 23956
L53690 23919
L53690 23825
L53672 23788
L53653 23769
L53615 23750
L53522 23750
L53484 23769
L53465 23788
L53447 23825
L53447 23919
L53465 23956
L53484 23975
" />
<g transform="rotate(-90 47070.8 37440.7)">
<text x="47070.8" y="37637.6"
textLength="-5884.98" font-size="-524.934" lengthAdjust="spacingAndGlyphs"
text-anchor="middle" opacity="0">I2C Interface LCD_C</text>
</g>
<path d="M47248 34553
L46855 34553
" />
<path d="M46892 34722
L46873 34741
L46855 34778
L46855 34872
L46873 34909
L46892 34928
L46930 34947
L46967 34947
L47023 34928
L47248 34703
L47248 34947
" />
<path d="M47211 35340
L47230 35322
L47248 35265
L47248 35228
L47230 35172
L47192 35134
L47155 35115
L47080 35097
L47023 35097
L46948 35115
L46911 35134
L46873 35172
L46855 35228
L46855 35265
L46873 35322
L46892 35340
" />
<path d="M47248 35809
L46855 35809
" />
<path d="M46986 35997
L47248 35997
" />
<path d="M47023 35997
L47005 36015
L46986 36053
L46986 36109
L47005 36147
L47042 36165
L47248 36165
" />
<path d="M46986 36297
L46986 36447
" />
<path d="M46855 36353
L47192 36353
L47230 36372
L47248 36409
L47248 36447
" />
<path d="M47230 36728
L47248 36690
L47248 36615
L47230 36578
L47192 36559
L47042 36559
L47005 36578
L46986 36615
L46986 36690
L47005 36728
L47042 36747
L47080 36747
L47117 36559
" />
<path d="M47248 36915
L46986 36915
" />
<path d="M47061 36915
L47023 36934
L47005 36953
L46986 36990
L46986 37028
" />
<path d="M46986 37103
L46986 37253
" />
<path d="M47248 37159
L46911 37159
L46873 37178
L46855 37215
L46855 37253
" />
<path d="M47248 37553
L47042 37553
L47005 37534
L46986 37496
L46986 37421
L47005 37384
" />
<path d="M47230 37553
L47248 37515
L47248 37421
L47230 37384
L47192 37365
L47155 37365
L47117 37384
L47098 37421
L47098 37515
L47080 37553
" />
<path d="M47230 37909
L47248 37871
L47248 37796
L47230 37759
L47211 37740
L47173 37721
L47061 37721
L47023 37740
L47005 37759
L46986 37796
L46986 37871
L47005 37909
" />
<path d="M47230 38228
L47248 38190
L47248 38115
L47230 38078
L47192 38059
L47042 38059
L47005 38078
L46986 38115
L46986 38190
L47005 38228
L47042 38246
L47080 38246
L47117 38059
" />
<path d="M47248 38903
L47248 38715
L46855 38715
" />
<path d="M47211 39259
L47230 39240
L47248 39184
L47248 39146
L47230 39090
L47192 39053
L47155 39034
L47080 39015
L47023 39015
L46948 39034
L46911 39053
L46873 39090
L46855 39146
L46855 39184
L46873 39240
L46892 39259
" />
<path d="M47248 39427
L46855 39427
L46855 39521
L46873 39577
L46911 39615
L46948 39634
L47023 39652
L47080 39652
L47155 39634
L47192 39615
L47230 39577
L47248 39521
L47248 39427
" />
<path d="M47286 39727
L47286 40027
" />
<path d="M47211 40346
L47230 40327
L47248 40271
L47248 40234
L47230 40177
L47192 40140
L47155 40121
L47080 40102
L47023 40102
L46948 40121
L46911 40140
L46873 40177
L46855 40234
L46855 40271
L46873 40327
L46892 40346
" />
<g transform="rotate(-90 47975.5 37157.2)">
<text x="47975.5" y="37354.1"
textLength="-973.097" font-size="-524.934" lengthAdjust="spacingAndGlyphs"
text-anchor="middle" opacity="0">J12</text>
</g>
<path d="M47759 36838
L48041 36838
L48097 36819
L48134 36782
L48153 36726
L48153 36688
" />
<path d="M48153 37232
L48153 37007
" />
<path d="M48153 37119
L47759 37119
L47816 37082
L47853 37044
L47872 37007
" />
<path d="M47797 37382
L47778 37400
L47759 37438
L47759 37532
L47778 37569
L47797 37588
L47834 37607
L47872 37607
L47928 37588
L48153 37363
L48153 37607
" />
<text x="46046.4" y="51405.3"
textLength="-1160.57" font-size="-524.934" lengthAdjust="spacingAndGlyphs"
text-anchor="middle" opacity="0">BPM</text>
<path d="M46440 51180
L46383 51199
L46365 51217
L46346 51255
L46346 51311
L46365 51349
L46383 51367
L46421 51386
L46571 51386
L46571 50992
L46440 50992
L46402 51011
L46383 51030
L46365 51067
L46365 51105
L46383 51142
L46402 51161
L46440 51180
L46571 51180
" />
<path d="M46177 51386
L46177 50992
L46027 50992
L45990 51011
L45971 51030
L45952 51067
L45952 51124
L45971 51161
L45990 51180
L46027 51199
L46177 51199
" />
<path d="M45783 51386
L45783 50992
L45652 51274
L45521 50992
L45521 51386
" />
<g transform="rotate(-90 48329.9 48925)">
<text x="48329.9" y="49121.8"
textLength="-973.097" font-size="-524.934" lengthAdjust="spacingAndGlyphs"
text-anchor="middle" opacity="0">J10</text>
</g>
<path d="M48114 48606
L48395 48606
L48451 48587
L48489 48550
L48507 48493
L48507 48456
" />
<path d="M48507 48999
L48507 48774
" />
<path d="M48507 48887
L48114 48887
L48170 48849
L48208 48812
L48226 48774
" />
<path d="M48114 49243
L48114 49281
L48133 49318
L48151 49337
L48189 49356
L48264 49374
L48357 49374
L48432 49356
L48470 49337
L48489 49318
L48507 49281
L48507 49243
L48489 49206
L48470 49187
L48432 49168
L48357 49149
L48264 49149
L48189 49168
L48151 49187
L48133 49206
L48114 49243
" />
<g transform="rotate(-90 46970.8 19440.7)">
<text x="46970.8" y="19637.6"
textLength="-5941.23" font-size="-524.934" lengthAdjust="spacingAndGlyphs"
text-anchor="middle" opacity="0">I2C Interface LCD_M</text>
</g>
<path d="M47148 16525
L46755 16525
" />
<path d="M46792 16694
L46773 16712
L46755 16750
L46755 16844
L46773 16881
L46792 16900
L46830 16919
L46867 16919
L46923 16900
L47148 16675
L47148 16919
" />
<path d="M47111 17312
L47130 17294
L47148 17237
L47148 17200
L47130 17144
L47092 17106
L47055 17087
L46980 17069
L46923 17069
L46848 17087
L46811 17106
L46773 17144
L46755 17200
L46755 17237
L46773 17294
L46792 17312
" />
<path d="M47148 17781
L46755 17781
" />
<path d="M46886 17969
L47148 17969
" />
<path d="M46923 17969
L46905 17987
L46886 18025
L46886 18081
L46905 18118
L46942 18137
L47148 18137
" />
<path d="M46886 18268
L46886 18418
" />
<path d="M46755 18325
L47092 18325
L47130 18343
L47148 18381
L47148 18418
" />
<path d="M47130 18700
L47148 18662
L47148 18587
L47130 18550
L47092 18531
L46942 18531
L46905 18550
L46886 18587
L46886 18662
L46905 18700
L46942 18718
L46980 18718
L47017 18531
" />
<path d="M47148 18887
L46886 18887
" />
<path d="M46961 18887
L46923 18906
L46905 18925
L46886 18962
L46886 19000
" />
<path d="M46886 19075
L46886 19225
" />
<path d="M47148 19131
L46811 19131
L46773 19150
L46755 19187
L46755 19225
" />
<path d="M47148 19525
L46942 19525
L46905 19506
L46886 19468
L46886 19393
L46905 19356
" />
<path d="M47130 19525
L47148 19487
L47148 19393
L47130 19356
L47092 19337
L47055 19337
L47017 19356
L46998 19393
L46998 19487
L46980 19525
" />
<path d="M47130 19881
L47148 19843
L47148 19768
L47130 19731
L47111 19712
L47073 19693
L46961 19693
L46923 19712
L46905 19731
L46886 19768
L46886 19843
L46905 19881
" />
<path d="M47130 20199
L47148 20162
L47148 20087
L47130 20050
L47092 20031
L46942 20031
L46905 20050
L46886 20087
L46886 20162
L46905 20199
L46942 20218
L46980 20218
L47017 20031
" />
<path d="M47148 20874
L47148 20687
L46755 20687
" />
<path d="M47111 21231
L47130 21212
L47148 21156
L47148 21118
L47130 21062
L47092 21024
L47055 21006
L46980 20987
L46923 20987
L46848 21006
L46811 21024
L46773 21062
L46755 21118
L46755 21156
L46773 21212
L46792 21231
" />
<path d="M47148 21399
L46755 21399
L46755 21493
L46773 21549
L46811 21587
L46848 21606
L46923 21624
L46980 21624
L47055 21606
L47092 21587
L47130 21549
L47148 21493
L47148 21399
" />
<path d="M47186 21699
L47186 21999
" />
<path d="M47148 22093
L46755 22093
L47036 22224
L46755 22355
L47148 22355
" />
<g transform="rotate(-90 47818.1 18043.1)">
<text x="47818.1" y="18239.9"
textLength="-598.144" font-size="-524.934" lengthAdjust="spacingAndGlyphs"
text-anchor="middle" opacity="0">J6</text>
</g>
<path d="M47602 17911
L47883 17911
L47939 17893
L47977 17855
L47996 17799
L47996 17761
" />
<path d="M47602 18268
L47602 18193
L47621 18155
L47639 18136
L47696 18099
L47771 18080
L47921 18080
L47958 18099
L47977 18118
L47996 18155
L47996 18230
L47977 18268
L47958 18286
L47921 18305
L47827 18305
L47789 18286
L47771 18268
L47752 18230
L47752 18155
L47771 18118
L47789 18099
L47827 18080
" />
<g >
</g>
</g>
<g style="fill:#000000; fill-opacity:0.0; 
stroke:#000000; stroke-width:59.0551; stroke-opacity:1; 
stroke-linecap:round; stroke-linejoin:round;">
</g>
<g style="fill:#C2C200; fill-opacity:0.0; 
stroke:#C2C200; stroke-width:59.0551; stroke-opacity:1; 
stroke-linecap:round; stroke-linejoin:round;">
</g>
<g style="fill:#C2C200; fill-opacity:0.0; 
stroke:#C2C200; stroke-width:19.685; stroke-opacity:1; 
stroke-linecap:round; stroke-linejoin:round;">
<path d="M10770 51523
L10770 12940
" />
<path d="M46597 12940
L81636 12940
" />
<path d="M10770 12940
L46597 12940
" />
<path d="M81636 51523
L10770 51523
" />
<path d="M81636 12940
L81636 51523
" />
<g >
</g>
<g >
</g>
<g >
</g>
<g >
</g>
<g >
</g>
<g >
</g>
<g >
</g>
<g >
</g>
<g >
</g>
<g >
</g>
<g >
</g>
<g >
</g>
<g >
</g>
<g >
</g>
<g >
</g>
<g >
</g>
<g >
</g>
<g >
</g>
<g >
</g>
<g >
</g>
<g >
</g>
<g >
</g>
<g >
</g>
<g >
</g>
<g >
</g>
<g >
</g>
<g >
</g>
<g >
</g>
<g >
</g>
<g >
</g>
<g >
</g>
<g >
</g>
<g >
</g>
<g >
</g>
<g >
</g>
<g >
</g>
<g >
</g>
<g >
</g>
<g >
</g>
<g >
</g>
<g >
</g>
<g >
</g>
<g >
</g>
<g >
</g>
<g >
</g>
<g >
</g>
<g >
</g>
<g >
</g>
<g >
</g>
<g >
</g>
<g >
</g>
<g >
</g>
<g >
</g>
<g >
</g>
<g >
</g>
<g >
</g>
<g >
</g>
<g >
</g>
<g >
</g>
<g >
</g>
<g >
</g>
<g >
</g>
<g >
</g>
<g >
</g>
<g >
</g>
<g >
</g>
<g >
</g>
<g >
</g>
<g >
</g>
<g >
</g>
<g >
</g>
<g >
</g>
<g >
</g>
<g >
</g>
<g >
</g>
<g >
</g>
<g >
</g>
<g >
</g>
<g >
</g>
<g >
</g>
<g >
</g>
<g >
</g>
<g >
</g>
<g >
</g>
<g >
</g>
<g >
</g>
<g >
</g>
<g >
</g>
<g >
</g>
<g >
</g>
<g >
</g>
<g >
</g>
<g >
</g>
<g >
</g>
<g >
</g>
<g >
</g>
<g >
</g>
<g >
</g>
<g >
</g>
<g >
</g>
<g >
</g>
<g >
</g>
<g >
</g>
<g >
</g>
<g >
</g>
<g >
</g>
<g >
</g>
<g >
</g>
<g >
</g>
<g >
</g>
<g >
</g>
<g >
</g>
<g >
</g>
<g >
</g>
<g >
</g>
<g >
</g>
<g >
</g>
<g >
</g>
<g >
</g>
<g >
</g>
<g >
</g>
<g >
</g>
<g >
</g>
<g >
</g>
<g >
</g>
<g >
</g>
<g >
</g>
</g> 
</svg>
