G04 #@! TF.GenerationSoftware,KiCad,Pcbnew,(5.1.5-0-10_14)*
G04 #@! TF.CreationDate,2020-04-27T06:18:58+02:00*
G04 #@! TF.ProjectId,Main_Board_v1,4d61696e-5f42-46f6-9172-645f76312e6b,rev?*
G04 #@! TF.SameCoordinates,Original*
G04 #@! TF.FileFunction,Legend,Bot*
G04 #@! TF.FilePolarity,Positive*
%FSLAX46Y46*%
G04 Gerber Fmt 4.6, Leading zero omitted, Abs format (unit mm)*
G04 Created by KiCad (PCBNEW (5.1.5-0-10_14)) date 2020-04-27 06:18:58*
%MOMM*%
%LPD*%
G04 APERTURE LIST*
%ADD10C,0.120000*%
%ADD11C,0.100000*%
%ADD12C,0.150000*%
G04 APERTURE END LIST*
D10*
X38157854Y-72319383D02*
G75*
G03X38157854Y-72319383I-3900000J0D01*
G01*
X32457854Y-75319383D02*
X33787854Y-75319383D01*
X32457854Y-73989383D02*
X32457854Y-75319383D01*
X145607854Y-42119383D02*
G75*
G03X145607854Y-42119383I-3900000J0D01*
G01*
X143507854Y-39119383D02*
X142177854Y-39119383D01*
X143507854Y-40449383D02*
X143507854Y-39119383D01*
X59157854Y-124669383D02*
G75*
G03X59157854Y-124669383I-3900000J0D01*
G01*
X57057854Y-121669383D02*
X55727854Y-121669383D01*
X57057854Y-122999383D02*
X57057854Y-121669383D01*
X38157854Y-107456883D02*
G75*
G03X38157854Y-107456883I-3900000J0D01*
G01*
X36057854Y-104456883D02*
X34727854Y-104456883D01*
X36057854Y-105786883D02*
X36057854Y-104456883D01*
X74657854Y-124669383D02*
G75*
G03X74657854Y-124669383I-3900000J0D01*
G01*
X72557854Y-121669383D02*
X71227854Y-121669383D01*
X72557854Y-122999383D02*
X72557854Y-121669383D01*
X38157854Y-119169383D02*
G75*
G03X38157854Y-119169383I-3900000J0D01*
G01*
X36057854Y-116169383D02*
X34727854Y-116169383D01*
X36057854Y-117499383D02*
X36057854Y-116169383D01*
X38157854Y-84031883D02*
G75*
G03X38157854Y-84031883I-3900000J0D01*
G01*
X32457854Y-87031883D02*
X33787854Y-87031883D01*
X32457854Y-85701883D02*
X32457854Y-87031883D01*
X105657854Y-124669383D02*
G75*
G03X105657854Y-124669383I-3900000J0D01*
G01*
X103557854Y-121669383D02*
X102227854Y-121669383D01*
X103557854Y-122999383D02*
X103557854Y-121669383D01*
X38157854Y-95744383D02*
G75*
G03X38157854Y-95744383I-3900000J0D01*
G01*
X36057854Y-92744383D02*
X34727854Y-92744383D01*
X36057854Y-94074383D02*
X36057854Y-92744383D01*
X90157854Y-124669383D02*
G75*
G03X90157854Y-124669383I-3900000J0D01*
G01*
X88057854Y-121669383D02*
X86727854Y-121669383D01*
X88057854Y-122999383D02*
X88057854Y-121669383D01*
X145607854Y-61069383D02*
G75*
G03X145607854Y-61069383I-3900000J0D01*
G01*
X139907854Y-64069383D02*
X141237854Y-64069383D01*
X139907854Y-62739383D02*
X139907854Y-64069383D01*
D11*
G36*
X120457854Y-99569383D02*
G01*
X120857854Y-99569383D01*
X120857854Y-89269383D01*
X120457854Y-89269383D01*
X120457854Y-99569383D01*
G37*
X120457854Y-99569383D02*
X120857854Y-99569383D01*
X120857854Y-89269383D01*
X120457854Y-89269383D01*
X120457854Y-99569383D01*
G36*
X120557854Y-99469383D02*
G01*
X120757854Y-99469383D01*
X120757854Y-89269383D01*
X120557854Y-89269383D01*
X120557854Y-99469383D01*
G37*
X120557854Y-99469383D02*
X120757854Y-99469383D01*
X120757854Y-89269383D01*
X120557854Y-89269383D01*
X120557854Y-99469383D01*
D10*
X123187854Y-89239383D02*
X121857854Y-89239383D01*
X123187854Y-90569383D02*
X123187854Y-89239383D01*
X123187854Y-91839383D02*
X120527854Y-91839383D01*
X120527854Y-91839383D02*
X120527854Y-99519383D01*
X123187854Y-91839383D02*
X123187854Y-99519383D01*
X123187854Y-99519383D02*
X120527854Y-99519383D01*
X121157854Y-124669383D02*
G75*
G03X121157854Y-124669383I-3900000J0D01*
G01*
X119057854Y-121669383D02*
X117727854Y-121669383D01*
X119057854Y-122999383D02*
X119057854Y-121669383D01*
D11*
G36*
X120057854Y-51019383D02*
G01*
X120457854Y-51019383D01*
X120457854Y-40719383D01*
X120057854Y-40719383D01*
X120057854Y-51019383D01*
G37*
X120057854Y-51019383D02*
X120457854Y-51019383D01*
X120457854Y-40719383D01*
X120057854Y-40719383D01*
X120057854Y-51019383D01*
G36*
X120157854Y-50919383D02*
G01*
X120357854Y-50919383D01*
X120357854Y-40719383D01*
X120157854Y-40719383D01*
X120157854Y-50919383D01*
G37*
X120157854Y-50919383D02*
X120357854Y-50919383D01*
X120357854Y-40719383D01*
X120157854Y-40719383D01*
X120157854Y-50919383D01*
D10*
X122787854Y-40689383D02*
X121457854Y-40689383D01*
X122787854Y-42019383D02*
X122787854Y-40689383D01*
X122787854Y-43289383D02*
X120127854Y-43289383D01*
X120127854Y-43289383D02*
X120127854Y-50969383D01*
X122787854Y-43289383D02*
X122787854Y-50969383D01*
X122787854Y-50969383D02*
X120127854Y-50969383D01*
D12*
X35767377Y-76871763D02*
X35767377Y-77586049D01*
X35814996Y-77728906D01*
X35910234Y-77824144D01*
X36053092Y-77871763D01*
X36148330Y-77871763D01*
X34767377Y-77871763D02*
X35338806Y-77871763D01*
X35053092Y-77871763D02*
X35053092Y-76871763D01*
X35148330Y-77014621D01*
X35243568Y-77109859D01*
X35338806Y-77157478D01*
X34195949Y-77300335D02*
X34291187Y-77252716D01*
X34338806Y-77205097D01*
X34386425Y-77109859D01*
X34386425Y-77062240D01*
X34338806Y-76967002D01*
X34291187Y-76919383D01*
X34195949Y-76871763D01*
X34005473Y-76871763D01*
X33910234Y-76919383D01*
X33862615Y-76967002D01*
X33814996Y-77062240D01*
X33814996Y-77109859D01*
X33862615Y-77205097D01*
X33910234Y-77252716D01*
X34005473Y-77300335D01*
X34195949Y-77300335D01*
X34291187Y-77347954D01*
X34338806Y-77395573D01*
X34386425Y-77490811D01*
X34386425Y-77681287D01*
X34338806Y-77776525D01*
X34291187Y-77824144D01*
X34195949Y-77871763D01*
X34005473Y-77871763D01*
X33910234Y-77824144D01*
X33862615Y-77776525D01*
X33814996Y-77681287D01*
X33814996Y-77490811D01*
X33862615Y-77395573D01*
X33910234Y-77347954D01*
X34005473Y-77300335D01*
X145007377Y-37147763D02*
X145007377Y-37862049D01*
X145054996Y-38004906D01*
X145150234Y-38100144D01*
X145293092Y-38147763D01*
X145388330Y-38147763D01*
X144007377Y-38147763D02*
X144578806Y-38147763D01*
X144293092Y-38147763D02*
X144293092Y-37147763D01*
X144388330Y-37290621D01*
X144483568Y-37385859D01*
X144578806Y-37433478D01*
X143150234Y-37481097D02*
X143150234Y-38147763D01*
X143388330Y-37100144D02*
X143626425Y-37814430D01*
X143007377Y-37814430D01*
X55367377Y-119021763D02*
X55367377Y-119736049D01*
X55414996Y-119878906D01*
X55510234Y-119974144D01*
X55653092Y-120021763D01*
X55748330Y-120021763D01*
X54938806Y-119117002D02*
X54891187Y-119069383D01*
X54795949Y-119021763D01*
X54557854Y-119021763D01*
X54462615Y-119069383D01*
X54414996Y-119117002D01*
X54367377Y-119212240D01*
X54367377Y-119307478D01*
X54414996Y-119450335D01*
X54986425Y-120021763D01*
X54367377Y-120021763D01*
X53510234Y-119021763D02*
X53700711Y-119021763D01*
X53795949Y-119069383D01*
X53843568Y-119117002D01*
X53938806Y-119259859D01*
X53986425Y-119450335D01*
X53986425Y-119831287D01*
X53938806Y-119926525D01*
X53891187Y-119974144D01*
X53795949Y-120021763D01*
X53605473Y-120021763D01*
X53510234Y-119974144D01*
X53462615Y-119926525D01*
X53414996Y-119831287D01*
X53414996Y-119593192D01*
X53462615Y-119497954D01*
X53510234Y-119450335D01*
X53605473Y-119402716D01*
X53795949Y-119402716D01*
X53891187Y-119450335D01*
X53938806Y-119497954D01*
X53986425Y-119593192D01*
X34367377Y-101809263D02*
X34367377Y-102523549D01*
X34414996Y-102666406D01*
X34510234Y-102761644D01*
X34653092Y-102809263D01*
X34748330Y-102809263D01*
X33938806Y-101904502D02*
X33891187Y-101856883D01*
X33795949Y-101809263D01*
X33557854Y-101809263D01*
X33462615Y-101856883D01*
X33414996Y-101904502D01*
X33367377Y-101999740D01*
X33367377Y-102094978D01*
X33414996Y-102237835D01*
X33986425Y-102809263D01*
X33367377Y-102809263D01*
X33034044Y-101809263D02*
X32414996Y-101809263D01*
X32748330Y-102190216D01*
X32605473Y-102190216D01*
X32510234Y-102237835D01*
X32462615Y-102285454D01*
X32414996Y-102380692D01*
X32414996Y-102618787D01*
X32462615Y-102714025D01*
X32510234Y-102761644D01*
X32605473Y-102809263D01*
X32891187Y-102809263D01*
X32986425Y-102761644D01*
X33034044Y-102714025D01*
X70867377Y-119021763D02*
X70867377Y-119736049D01*
X70914996Y-119878906D01*
X71010234Y-119974144D01*
X71153092Y-120021763D01*
X71248330Y-120021763D01*
X70438806Y-119117002D02*
X70391187Y-119069383D01*
X70295949Y-119021763D01*
X70057854Y-119021763D01*
X69962615Y-119069383D01*
X69914996Y-119117002D01*
X69867377Y-119212240D01*
X69867377Y-119307478D01*
X69914996Y-119450335D01*
X70486425Y-120021763D01*
X69867377Y-120021763D01*
X69486425Y-119117002D02*
X69438806Y-119069383D01*
X69343568Y-119021763D01*
X69105473Y-119021763D01*
X69010234Y-119069383D01*
X68962615Y-119117002D01*
X68914996Y-119212240D01*
X68914996Y-119307478D01*
X68962615Y-119450335D01*
X69534044Y-120021763D01*
X68914996Y-120021763D01*
X34367377Y-113521763D02*
X34367377Y-114236049D01*
X34414996Y-114378906D01*
X34510234Y-114474144D01*
X34653092Y-114521763D01*
X34748330Y-114521763D01*
X33938806Y-113617002D02*
X33891187Y-113569383D01*
X33795949Y-113521763D01*
X33557854Y-113521763D01*
X33462615Y-113569383D01*
X33414996Y-113617002D01*
X33367377Y-113712240D01*
X33367377Y-113807478D01*
X33414996Y-113950335D01*
X33986425Y-114521763D01*
X33367377Y-114521763D01*
X32414996Y-114521763D02*
X32986425Y-114521763D01*
X32700711Y-114521763D02*
X32700711Y-113521763D01*
X32795949Y-113664621D01*
X32891187Y-113759859D01*
X32986425Y-113807478D01*
X35767377Y-88584263D02*
X35767377Y-89298549D01*
X35814996Y-89441406D01*
X35910234Y-89536644D01*
X36053092Y-89584263D01*
X36148330Y-89584263D01*
X35338806Y-88679502D02*
X35291187Y-88631883D01*
X35195949Y-88584263D01*
X34957854Y-88584263D01*
X34862615Y-88631883D01*
X34814996Y-88679502D01*
X34767377Y-88774740D01*
X34767377Y-88869978D01*
X34814996Y-89012835D01*
X35386425Y-89584263D01*
X34767377Y-89584263D01*
X34148330Y-88584263D02*
X34053092Y-88584263D01*
X33957854Y-88631883D01*
X33910234Y-88679502D01*
X33862615Y-88774740D01*
X33814996Y-88965216D01*
X33814996Y-89203311D01*
X33862615Y-89393787D01*
X33910234Y-89489025D01*
X33957854Y-89536644D01*
X34053092Y-89584263D01*
X34148330Y-89584263D01*
X34243568Y-89536644D01*
X34291187Y-89489025D01*
X34338806Y-89393787D01*
X34386425Y-89203311D01*
X34386425Y-88965216D01*
X34338806Y-88774740D01*
X34291187Y-88679502D01*
X34243568Y-88631883D01*
X34148330Y-88584263D01*
X101867377Y-119021763D02*
X101867377Y-119736049D01*
X101914996Y-119878906D01*
X102010234Y-119974144D01*
X102153092Y-120021763D01*
X102248330Y-120021763D01*
X100867377Y-120021763D02*
X101438806Y-120021763D01*
X101153092Y-120021763D02*
X101153092Y-119021763D01*
X101248330Y-119164621D01*
X101343568Y-119259859D01*
X101438806Y-119307478D01*
X100391187Y-120021763D02*
X100200711Y-120021763D01*
X100105473Y-119974144D01*
X100057854Y-119926525D01*
X99962615Y-119783668D01*
X99914996Y-119593192D01*
X99914996Y-119212240D01*
X99962615Y-119117002D01*
X100010234Y-119069383D01*
X100105473Y-119021763D01*
X100295949Y-119021763D01*
X100391187Y-119069383D01*
X100438806Y-119117002D01*
X100486425Y-119212240D01*
X100486425Y-119450335D01*
X100438806Y-119545573D01*
X100391187Y-119593192D01*
X100295949Y-119640811D01*
X100105473Y-119640811D01*
X100010234Y-119593192D01*
X99962615Y-119545573D01*
X99914996Y-119450335D01*
X34367377Y-90096763D02*
X34367377Y-90811049D01*
X34414996Y-90953906D01*
X34510234Y-91049144D01*
X34653092Y-91096763D01*
X34748330Y-91096763D01*
X33367377Y-91096763D02*
X33938806Y-91096763D01*
X33653092Y-91096763D02*
X33653092Y-90096763D01*
X33748330Y-90239621D01*
X33843568Y-90334859D01*
X33938806Y-90382478D01*
X33034044Y-90096763D02*
X32367377Y-90096763D01*
X32795949Y-91096763D01*
X86367377Y-119021763D02*
X86367377Y-119736049D01*
X86414996Y-119878906D01*
X86510234Y-119974144D01*
X86653092Y-120021763D01*
X86748330Y-120021763D01*
X85367377Y-120021763D02*
X85938806Y-120021763D01*
X85653092Y-120021763D02*
X85653092Y-119021763D01*
X85748330Y-119164621D01*
X85843568Y-119259859D01*
X85938806Y-119307478D01*
X84510234Y-119021763D02*
X84700711Y-119021763D01*
X84795949Y-119069383D01*
X84843568Y-119117002D01*
X84938806Y-119259859D01*
X84986425Y-119450335D01*
X84986425Y-119831287D01*
X84938806Y-119926525D01*
X84891187Y-119974144D01*
X84795949Y-120021763D01*
X84605473Y-120021763D01*
X84510234Y-119974144D01*
X84462615Y-119926525D01*
X84414996Y-119831287D01*
X84414996Y-119593192D01*
X84462615Y-119497954D01*
X84510234Y-119450335D01*
X84605473Y-119402716D01*
X84795949Y-119402716D01*
X84891187Y-119450335D01*
X84938806Y-119497954D01*
X84986425Y-119593192D01*
X143217377Y-65621763D02*
X143217377Y-66336049D01*
X143264996Y-66478906D01*
X143360234Y-66574144D01*
X143503092Y-66621763D01*
X143598330Y-66621763D01*
X142217377Y-66621763D02*
X142788806Y-66621763D01*
X142503092Y-66621763D02*
X142503092Y-65621763D01*
X142598330Y-65764621D01*
X142693568Y-65859859D01*
X142788806Y-65907478D01*
X141312615Y-65621763D02*
X141788806Y-65621763D01*
X141836425Y-66097954D01*
X141788806Y-66050335D01*
X141693568Y-66002716D01*
X141455473Y-66002716D01*
X141360234Y-66050335D01*
X141312615Y-66097954D01*
X141264996Y-66193192D01*
X141264996Y-66431287D01*
X141312615Y-66526525D01*
X141360234Y-66574144D01*
X141455473Y-66621763D01*
X141693568Y-66621763D01*
X141788806Y-66574144D01*
X141836425Y-66526525D01*
X122401377Y-87693763D02*
X122401377Y-88408049D01*
X122448996Y-88550906D01*
X122544234Y-88646144D01*
X122687092Y-88693763D01*
X122782330Y-88693763D01*
X121401377Y-88693763D02*
X121972806Y-88693763D01*
X121687092Y-88693763D02*
X121687092Y-87693763D01*
X121782330Y-87836621D01*
X121877568Y-87931859D01*
X121972806Y-87979478D01*
X121020425Y-87789002D02*
X120972806Y-87741383D01*
X120877568Y-87693763D01*
X120639473Y-87693763D01*
X120544234Y-87741383D01*
X120496615Y-87789002D01*
X120448996Y-87884240D01*
X120448996Y-87979478D01*
X120496615Y-88122335D01*
X121068044Y-88693763D01*
X120448996Y-88693763D01*
X117367377Y-119021763D02*
X117367377Y-119736049D01*
X117414996Y-119878906D01*
X117510234Y-119974144D01*
X117653092Y-120021763D01*
X117748330Y-120021763D01*
X116367377Y-120021763D02*
X116938806Y-120021763D01*
X116653092Y-120021763D02*
X116653092Y-119021763D01*
X116748330Y-119164621D01*
X116843568Y-119259859D01*
X116938806Y-119307478D01*
X115748330Y-119021763D02*
X115653092Y-119021763D01*
X115557854Y-119069383D01*
X115510234Y-119117002D01*
X115462615Y-119212240D01*
X115414996Y-119402716D01*
X115414996Y-119640811D01*
X115462615Y-119831287D01*
X115510234Y-119926525D01*
X115557854Y-119974144D01*
X115653092Y-120021763D01*
X115748330Y-120021763D01*
X115843568Y-119974144D01*
X115891187Y-119926525D01*
X115938806Y-119831287D01*
X115986425Y-119640811D01*
X115986425Y-119402716D01*
X115938806Y-119212240D01*
X115891187Y-119117002D01*
X115843568Y-119069383D01*
X115748330Y-119021763D01*
X124211187Y-41211763D02*
X124211187Y-41926049D01*
X124258806Y-42068906D01*
X124354044Y-42164144D01*
X124496901Y-42211763D01*
X124592139Y-42211763D01*
X123306425Y-41211763D02*
X123496901Y-41211763D01*
X123592139Y-41259383D01*
X123639758Y-41307002D01*
X123734996Y-41449859D01*
X123782615Y-41640335D01*
X123782615Y-42021287D01*
X123734996Y-42116525D01*
X123687377Y-42164144D01*
X123592139Y-42211763D01*
X123401663Y-42211763D01*
X123306425Y-42164144D01*
X123258806Y-42116525D01*
X123211187Y-42021287D01*
X123211187Y-41783192D01*
X123258806Y-41687954D01*
X123306425Y-41640335D01*
X123401663Y-41592716D01*
X123592139Y-41592716D01*
X123687377Y-41640335D01*
X123734996Y-41687954D01*
X123782615Y-41783192D01*
M02*
