<?xml version="1.0" standalone="no"?>
 <!DOCTYPE svg PUBLIC "-//W3C//DTD SVG 1.1//EN" 
 "http://www.w3.org/Graphics/SVG/1.1/DTD/svg11.dtd"> 
<svg xmlns="http://www.w3.org/2000/svg" version="1.1" 
    width="29.7002cm" height="21.0007cm" viewBox="0 0 116930 82680 ">
<title>SVG Picture created as Main_Board_v1-F_CrtYd.svg date 2020/04/27 13:50:29 </title>
  <desc>Picture generated by PCBNEW </desc>
<g style="fill:#000000; fill-opacity:1;stroke:#000000; stroke-opacity:1;
stroke-linecap:round; stroke-linejoin:round; "
 transform="translate(0 0) scale(1 1)">
</g>
<g style="fill:#000000; fill-opacity:0.0; 
stroke:#000000; stroke-width:-0.000393701; stroke-opacity:1; 
stroke-linecap:round; stroke-linejoin:round;">
</g>
<g style="fill:#000000; fill-opacity:0.0; 
stroke:#000000; stroke-width:39.3701; stroke-opacity:1; 
stroke-linecap:round; stroke-linejoin:round;">
</g>
<g style="fill:#000000; fill-opacity:0.0; 
stroke:#000000; stroke-width:59.0551; stroke-opacity:1; 
stroke-linecap:round; stroke-linejoin:round;">
<rect x="69685.9" y="65357.2" width="42519.7" height="12598.4" rx="0" />
</g>
<g style="fill:#000000; fill-opacity:0.0; 
stroke:#000000; stroke-width:39.3701; stroke-opacity:1; 
stroke-linecap:round; stroke-linejoin:round;">
</g>
<g style="fill:#000000; fill-opacity:0.0; 
stroke:#000000; stroke-width:59.0551; stroke-opacity:1; 
stroke-linecap:round; stroke-linejoin:round;">
<rect x="3937.01" y="3937.01" width="109056" height="74806" rx="0" />
</g>
<g style="fill:#000000; fill-opacity:0.0; 
stroke:#000000; stroke-width:39.3701; stroke-opacity:1; 
stroke-linecap:round; stroke-linejoin:round;">
</g>
<g style="fill:#000000; fill-opacity:0.0; 
stroke:#000000; stroke-width:59.0551; stroke-opacity:1; 
stroke-linecap:round; stroke-linejoin:round;">
<rect x="4724.41" y="4724.41" width="107481" height="73231.2" rx="0" />
</g>
<g style="fill:#000000; fill-opacity:0.0; 
stroke:#000000; stroke-width:39.3701; stroke-opacity:1; 
stroke-linecap:round; stroke-linejoin:round;">
</g>
<g style="fill:#000000; fill-opacity:0.0; 
stroke:#000000; stroke-width:59.0551; stroke-opacity:1; 
stroke-linecap:round; stroke-linejoin:round;">
<path d="M23622 4724
L23622 3937
" />
</g>
<g style="fill:#000000; fill-opacity:0.0; 
stroke:#000000; stroke-width:39.3701; stroke-opacity:1; 
stroke-linecap:round; stroke-linejoin:round;">
</g>
<g style="fill:#000000; fill-opacity:0.0; 
stroke:#000000; stroke-width:59.0551; stroke-opacity:1; 
stroke-linecap:round; stroke-linejoin:round;">
<path d="M43307 4724
L43307 3937
" />
</g>
<g style="fill:#000000; fill-opacity:0.0; 
stroke:#000000; stroke-width:39.3701; stroke-opacity:1; 
stroke-linecap:round; stroke-linejoin:round;">
</g>
<g style="fill:#000000; fill-opacity:0.0; 
stroke:#000000; stroke-width:59.0551; stroke-opacity:1; 
stroke-linecap:round; stroke-linejoin:round;">
<path d="M62992 4724
L62992 3937
" />
</g>
<g style="fill:#000000; fill-opacity:0.0; 
stroke:#000000; stroke-width:39.3701; stroke-opacity:1; 
stroke-linecap:round; stroke-linejoin:round;">
</g>
<g style="fill:#000000; fill-opacity:0.0; 
stroke:#000000; stroke-width:59.0551; stroke-opacity:1; 
stroke-linecap:round; stroke-linejoin:round;">
<path d="M82677 4724
L82677 3937
" />
</g>
<g style="fill:#000000; fill-opacity:0.0; 
stroke:#000000; stroke-width:39.3701; stroke-opacity:1; 
stroke-linecap:round; stroke-linejoin:round;">
</g>
<g style="fill:#000000; fill-opacity:0.0; 
stroke:#000000; stroke-width:59.0551; stroke-opacity:1; 
stroke-linecap:round; stroke-linejoin:round;">
<path d="M102362 4724
L102362 3937
" />
</g>
<g style="fill:#000000; fill-opacity:0.0; 
stroke:#000000; stroke-width:39.3701; stroke-opacity:1; 
stroke-linecap:round; stroke-linejoin:round;">
</g>
<g style="fill:#000000; fill-opacity:0.0; 
stroke:#000000; stroke-width:59.0551; stroke-opacity:1; 
stroke-linecap:round; stroke-linejoin:round;">
<text x="13779.5" y="4586.61"
textLength="546.494" font-size="682.415" lengthAdjust="spacingAndGlyphs"
text-anchor="start" opacity="0">1</text>
<path d="M14199 4562
L13906 4562
" />
<path d="M14052 4562
L14052 4050
L14004 4123
L13955 4172
L13906 4196
" />
</g>
<g style="fill:#000000; fill-opacity:0.0; 
stroke:#000000; stroke-width:39.3701; stroke-opacity:1; 
stroke-linecap:round; stroke-linejoin:round;">
</g>
<g style="fill:#000000; fill-opacity:0.0; 
stroke:#000000; stroke-width:59.0551; stroke-opacity:1; 
stroke-linecap:round; stroke-linejoin:round;">
<text x="33464.6" y="4586.61"
textLength="546.494" font-size="682.415" lengthAdjust="spacingAndGlyphs"
text-anchor="start" opacity="0">2</text>
<path d="M33591 4099
L33615 4074
L33664 4050
L33786 4050
L33835 4074
L33859 4099
L33884 4147
L33884 4196
L33859 4269
L33567 4562
L33884 4562
" />
</g>
<g style="fill:#000000; fill-opacity:0.0; 
stroke:#000000; stroke-width:39.3701; stroke-opacity:1; 
stroke-linecap:round; stroke-linejoin:round;">
</g>
<g style="fill:#000000; fill-opacity:0.0; 
stroke:#000000; stroke-width:59.0551; stroke-opacity:1; 
stroke-linecap:round; stroke-linejoin:round;">
<text x="53149.6" y="4586.61"
textLength="546.494" font-size="682.415" lengthAdjust="spacingAndGlyphs"
text-anchor="start" opacity="0">3</text>
<path d="M53252 4050
L53569 4050
L53398 4245
L53471 4245
L53520 4269
L53544 4294
L53569 4342
L53569 4464
L53544 4513
L53520 4537
L53471 4562
L53325 4562
L53276 4537
L53252 4513
" />
</g>
<g style="fill:#000000; fill-opacity:0.0; 
stroke:#000000; stroke-width:39.3701; stroke-opacity:1; 
stroke-linecap:round; stroke-linejoin:round;">
</g>
<g style="fill:#000000; fill-opacity:0.0; 
stroke:#000000; stroke-width:59.0551; stroke-opacity:1; 
stroke-linecap:round; stroke-linejoin:round;">
<text x="72834.6" y="4586.61"
textLength="546.494" font-size="682.415" lengthAdjust="spacingAndGlyphs"
text-anchor="start" opacity="0">4</text>
<path d="M73205 4221
L73205 4562
" />
<path d="M73083 4026
L72961 4391
L73278 4391
" />
</g>
<g style="fill:#000000; fill-opacity:0.0; 
stroke:#000000; stroke-width:39.3701; stroke-opacity:1; 
stroke-linecap:round; stroke-linejoin:round;">
</g>
<g style="fill:#000000; fill-opacity:0.0; 
stroke:#000000; stroke-width:59.0551; stroke-opacity:1; 
stroke-linecap:round; stroke-linejoin:round;">
<text x="92519.7" y="4586.61"
textLength="546.494" font-size="682.415" lengthAdjust="spacingAndGlyphs"
text-anchor="start" opacity="0">5</text>
<path d="M92914 4050
L92671 4050
L92646 4294
L92671 4269
L92719 4245
L92841 4245
L92890 4269
L92914 4294
L92939 4342
L92939 4464
L92914 4513
L92890 4537
L92841 4562
L92719 4562
L92671 4537
L92646 4513
" />
</g>
<g style="fill:#000000; fill-opacity:0.0; 
stroke:#000000; stroke-width:39.3701; stroke-opacity:1; 
stroke-linecap:round; stroke-linejoin:round;">
</g>
<g style="fill:#000000; fill-opacity:0.0; 
stroke:#000000; stroke-width:59.0551; stroke-opacity:1; 
stroke-linecap:round; stroke-linejoin:round;">
<text x="112205" y="4586.61"
textLength="546.494" font-size="682.415" lengthAdjust="spacingAndGlyphs"
text-anchor="start" opacity="0">6</text>
<path d="M112575 4050
L112477 4050
L112429 4074
L112404 4099
L112356 4172
L112331 4269
L112331 4464
L112356 4513
L112380 4537
L112429 4562
L112526 4562
L112575 4537
L112599 4513
L112624 4464
L112624 4342
L112599 4294
L112575 4269
L112526 4245
L112429 4245
L112380 4269
L112356 4294
L112331 4342
" />
</g>
<g style="fill:#000000; fill-opacity:0.0; 
stroke:#000000; stroke-width:39.3701; stroke-opacity:1; 
stroke-linecap:round; stroke-linejoin:round;">
</g>
<g style="fill:#000000; fill-opacity:0.0; 
stroke:#000000; stroke-width:59.0551; stroke-opacity:1; 
stroke-linecap:round; stroke-linejoin:round;">
<path d="M23622 77955
L23622 78742
" />
</g>
<g style="fill:#000000; fill-opacity:0.0; 
stroke:#000000; stroke-width:39.3701; stroke-opacity:1; 
stroke-linecap:round; stroke-linejoin:round;">
</g>
<g style="fill:#000000; fill-opacity:0.0; 
stroke:#000000; stroke-width:59.0551; stroke-opacity:1; 
stroke-linecap:round; stroke-linejoin:round;">
<path d="M43307 77955
L43307 78742
" />
</g>
<g style="fill:#000000; fill-opacity:0.0; 
stroke:#000000; stroke-width:39.3701; stroke-opacity:1; 
stroke-linecap:round; stroke-linejoin:round;">
</g>
<g style="fill:#000000; fill-opacity:0.0; 
stroke:#000000; stroke-width:59.0551; stroke-opacity:1; 
stroke-linecap:round; stroke-linejoin:round;">
<path d="M62992 77955
L62992 78742
" />
</g>
<g style="fill:#000000; fill-opacity:0.0; 
stroke:#000000; stroke-width:39.3701; stroke-opacity:1; 
stroke-linecap:round; stroke-linejoin:round;">
</g>
<g style="fill:#000000; fill-opacity:0.0; 
stroke:#000000; stroke-width:59.0551; stroke-opacity:1; 
stroke-linecap:round; stroke-linejoin:round;">
<path d="M82677 77955
L82677 78742
" />
</g>
<g style="fill:#000000; fill-opacity:0.0; 
stroke:#000000; stroke-width:39.3701; stroke-opacity:1; 
stroke-linecap:round; stroke-linejoin:round;">
</g>
<g style="fill:#000000; fill-opacity:0.0; 
stroke:#000000; stroke-width:59.0551; stroke-opacity:1; 
stroke-linecap:round; stroke-linejoin:round;">
<path d="M102362 77955
L102362 78742
" />
</g>
<g style="fill:#000000; fill-opacity:0.0; 
stroke:#000000; stroke-width:39.3701; stroke-opacity:1; 
stroke-linecap:round; stroke-linejoin:round;">
</g>
<g style="fill:#000000; fill-opacity:0.0; 
stroke:#000000; stroke-width:59.0551; stroke-opacity:1; 
stroke-linecap:round; stroke-linejoin:round;">
<text x="13779.5" y="78605.2"
textLength="546.494" font-size="682.415" lengthAdjust="spacingAndGlyphs"
text-anchor="start" opacity="0">1</text>
<path d="M14199 78580
L13906 78580
" />
<path d="M14052 78580
L14052 78069
L14004 78142
L13955 78190
L13906 78215
" />
</g>
<g style="fill:#000000; fill-opacity:0.0; 
stroke:#000000; stroke-width:39.3701; stroke-opacity:1; 
stroke-linecap:round; stroke-linejoin:round;">
</g>
<g style="fill:#000000; fill-opacity:0.0; 
stroke:#000000; stroke-width:59.0551; stroke-opacity:1; 
stroke-linecap:round; stroke-linejoin:round;">
<text x="33464.6" y="78605.2"
textLength="546.494" font-size="682.415" lengthAdjust="spacingAndGlyphs"
text-anchor="start" opacity="0">2</text>
<path d="M33591 78117
L33615 78093
L33664 78069
L33786 78069
L33835 78093
L33859 78117
L33884 78166
L33884 78215
L33859 78288
L33567 78580
L33884 78580
" />
</g>
<g style="fill:#000000; fill-opacity:0.0; 
stroke:#000000; stroke-width:39.3701; stroke-opacity:1; 
stroke-linecap:round; stroke-linejoin:round;">
</g>
<g style="fill:#000000; fill-opacity:0.0; 
stroke:#000000; stroke-width:59.0551; stroke-opacity:1; 
stroke-linecap:round; stroke-linejoin:round;">
<text x="53149.6" y="78605.2"
textLength="546.494" font-size="682.415" lengthAdjust="spacingAndGlyphs"
text-anchor="start" opacity="0">3</text>
<path d="M53252 78069
L53569 78069
L53398 78263
L53471 78263
L53520 78288
L53544 78312
L53569 78361
L53569 78483
L53544 78532
L53520 78556
L53471 78580
L53325 78580
L53276 78556
L53252 78532
" />
</g>
<g style="fill:#000000; fill-opacity:0.0; 
stroke:#000000; stroke-width:39.3701; stroke-opacity:1; 
stroke-linecap:round; stroke-linejoin:round;">
</g>
<g style="fill:#000000; fill-opacity:0.0; 
stroke:#000000; stroke-width:59.0551; stroke-opacity:1; 
stroke-linecap:round; stroke-linejoin:round;">
<text x="72834.6" y="78605.2"
textLength="546.494" font-size="682.415" lengthAdjust="spacingAndGlyphs"
text-anchor="start" opacity="0">4</text>
<path d="M73205 78239
L73205 78580
" />
<path d="M73083 78044
L72961 78410
L73278 78410
" />
</g>
<g style="fill:#000000; fill-opacity:0.0; 
stroke:#000000; stroke-width:39.3701; stroke-opacity:1; 
stroke-linecap:round; stroke-linejoin:round;">
</g>
<g style="fill:#000000; fill-opacity:0.0; 
stroke:#000000; stroke-width:59.0551; stroke-opacity:1; 
stroke-linecap:round; stroke-linejoin:round;">
<text x="92519.7" y="78605.2"
textLength="546.494" font-size="682.415" lengthAdjust="spacingAndGlyphs"
text-anchor="start" opacity="0">5</text>
<path d="M92914 78069
L92671 78069
L92646 78312
L92671 78288
L92719 78263
L92841 78263
L92890 78288
L92914 78312
L92939 78361
L92939 78483
L92914 78532
L92890 78556
L92841 78580
L92719 78580
L92671 78556
L92646 78532
" />
</g>
<g style="fill:#000000; fill-opacity:0.0; 
stroke:#000000; stroke-width:39.3701; stroke-opacity:1; 
stroke-linecap:round; stroke-linejoin:round;">
</g>
<g style="fill:#000000; fill-opacity:0.0; 
stroke:#000000; stroke-width:59.0551; stroke-opacity:1; 
stroke-linecap:round; stroke-linejoin:round;">
<text x="112205" y="78605.2"
textLength="546.494" font-size="682.415" lengthAdjust="spacingAndGlyphs"
text-anchor="start" opacity="0">6</text>
<path d="M112575 78069
L112477 78069
L112429 78093
L112404 78117
L112356 78190
L112331 78288
L112331 78483
L112356 78532
L112380 78556
L112429 78580
L112526 78580
L112575 78556
L112599 78532
L112624 78483
L112624 78361
L112599 78312
L112575 78288
L112526 78263
L112429 78263
L112380 78288
L112356 78312
L112331 78361
" />
</g>
<g style="fill:#000000; fill-opacity:0.0; 
stroke:#000000; stroke-width:39.3701; stroke-opacity:1; 
stroke-linecap:round; stroke-linejoin:round;">
</g>
<g style="fill:#000000; fill-opacity:0.0; 
stroke:#000000; stroke-width:59.0551; stroke-opacity:1; 
stroke-linecap:round; stroke-linejoin:round;">
<path d="M3937 23622
L4724 23622
" />
</g>
<g style="fill:#000000; fill-opacity:0.0; 
stroke:#000000; stroke-width:39.3701; stroke-opacity:1; 
stroke-linecap:round; stroke-linejoin:round;">
</g>
<g style="fill:#000000; fill-opacity:0.0; 
stroke:#000000; stroke-width:59.0551; stroke-opacity:1; 
stroke-linecap:round; stroke-linejoin:round;">
<path d="M3937 43307
L4724 43307
" />
</g>
<g style="fill:#000000; fill-opacity:0.0; 
stroke:#000000; stroke-width:39.3701; stroke-opacity:1; 
stroke-linecap:round; stroke-linejoin:round;">
</g>
<g style="fill:#000000; fill-opacity:0.0; 
stroke:#000000; stroke-width:59.0551; stroke-opacity:1; 
stroke-linecap:round; stroke-linejoin:round;">
<path d="M3937 62992
L4724 62992
" />
</g>
<g style="fill:#000000; fill-opacity:0.0; 
stroke:#000000; stroke-width:39.3701; stroke-opacity:1; 
stroke-linecap:round; stroke-linejoin:round;">
</g>
<g style="fill:#000000; fill-opacity:0.0; 
stroke:#000000; stroke-width:59.0551; stroke-opacity:1; 
stroke-linecap:round; stroke-linejoin:round;">
<text x="4330.71" y="14035.4"
textLength="497.75" font-size="682.415" lengthAdjust="spacingAndGlyphs"
text-anchor="middle" opacity="0">A</text>
<path d="M4208 13864
L4452 13864
" />
<path d="M4160 14011
L4330 13499
L4501 14011
" />
</g>
<g style="fill:#000000; fill-opacity:0.0; 
stroke:#000000; stroke-width:39.3701; stroke-opacity:1; 
stroke-linecap:round; stroke-linejoin:round;">
</g>
<g style="fill:#000000; fill-opacity:0.0; 
stroke:#000000; stroke-width:59.0551; stroke-opacity:1; 
stroke-linecap:round; stroke-linejoin:round;">
<text x="4330.71" y="33720.5"
textLength="570.866" font-size="682.415" lengthAdjust="spacingAndGlyphs"
text-anchor="middle" opacity="0">B</text>
<path d="M4367 33428
L4440 33452
L4464 33476
L4489 33525
L4489 33598
L4464 33647
L4440 33671
L4391 33696
L4196 33696
L4196 33184
L4367 33184
L4416 33208
L4440 33233
L4464 33281
L4464 33330
L4440 33379
L4416 33403
L4367 33428
L4196 33428
" />
</g>
<g style="fill:#000000; fill-opacity:0.0; 
stroke:#000000; stroke-width:39.3701; stroke-opacity:1; 
stroke-linecap:round; stroke-linejoin:round;">
</g>
<g style="fill:#000000; fill-opacity:0.0; 
stroke:#000000; stroke-width:59.0551; stroke-opacity:1; 
stroke-linecap:round; stroke-linejoin:round;">
<text x="4330.71" y="53405.5"
textLength="570.866" font-size="682.415" lengthAdjust="spacingAndGlyphs"
text-anchor="middle" opacity="0">C</text>
<path d="M4489 53332
L4464 53356
L4391 53381
L4342 53381
L4269 53356
L4221 53308
L4196 53259
L4172 53161
L4172 53088
L4196 52991
L4221 52942
L4269 52893
L4342 52869
L4391 52869
L4464 52893
L4489 52918
" />
</g>
<g style="fill:#000000; fill-opacity:0.0; 
stroke:#000000; stroke-width:39.3701; stroke-opacity:1; 
stroke-linecap:round; stroke-linejoin:round;">
</g>
<g style="fill:#000000; fill-opacity:0.0; 
stroke:#000000; stroke-width:59.0551; stroke-opacity:1; 
stroke-linecap:round; stroke-linejoin:round;">
<text x="4330.71" y="73090.6"
textLength="570.866" font-size="682.415" lengthAdjust="spacingAndGlyphs"
text-anchor="middle" opacity="0">D</text>
<path d="M4196 73066
L4196 72554
L4318 72554
L4391 72578
L4440 72627
L4464 72676
L4489 72773
L4489 72846
L4464 72944
L4440 72993
L4391 73041
L4318 73066
L4196 73066
" />
</g>
<g style="fill:#000000; fill-opacity:0.0; 
stroke:#000000; stroke-width:39.3701; stroke-opacity:1; 
stroke-linecap:round; stroke-linejoin:round;">
</g>
<g style="fill:#000000; fill-opacity:0.0; 
stroke:#000000; stroke-width:59.0551; stroke-opacity:1; 
stroke-linecap:round; stroke-linejoin:round;">
<path d="M112992 23622
L112205 23622
" />
</g>
<g style="fill:#000000; fill-opacity:0.0; 
stroke:#000000; stroke-width:39.3701; stroke-opacity:1; 
stroke-linecap:round; stroke-linejoin:round;">
</g>
<g style="fill:#000000; fill-opacity:0.0; 
stroke:#000000; stroke-width:59.0551; stroke-opacity:1; 
stroke-linecap:round; stroke-linejoin:round;">
<path d="M112992 43307
L112205 43307
" />
</g>
<g style="fill:#000000; fill-opacity:0.0; 
stroke:#000000; stroke-width:39.3701; stroke-opacity:1; 
stroke-linecap:round; stroke-linejoin:round;">
</g>
<g style="fill:#000000; fill-opacity:0.0; 
stroke:#000000; stroke-width:59.0551; stroke-opacity:1; 
stroke-linecap:round; stroke-linejoin:round;">
<path d="M112992 62992
L112205 62992
" />
</g>
<g style="fill:#000000; fill-opacity:0.0; 
stroke:#000000; stroke-width:39.3701; stroke-opacity:1; 
stroke-linecap:round; stroke-linejoin:round;">
</g>
<g style="fill:#000000; fill-opacity:0.0; 
stroke:#000000; stroke-width:59.0551; stroke-opacity:1; 
stroke-linecap:round; stroke-linejoin:round;">
<text x="112599" y="14035.4"
textLength="497.75" font-size="682.415" lengthAdjust="spacingAndGlyphs"
text-anchor="middle" opacity="0">A</text>
<path d="M112477 13864
L112721 13864
" />
<path d="M112428 14011
L112599 13499
L112769 14011
" />
</g>
<g style="fill:#000000; fill-opacity:0.0; 
stroke:#000000; stroke-width:39.3701; stroke-opacity:1; 
stroke-linecap:round; stroke-linejoin:round;">
</g>
<g style="fill:#000000; fill-opacity:0.0; 
stroke:#000000; stroke-width:59.0551; stroke-opacity:1; 
stroke-linecap:round; stroke-linejoin:round;">
<text x="112599" y="33720.5"
textLength="570.866" font-size="682.415" lengthAdjust="spacingAndGlyphs"
text-anchor="middle" opacity="0">B</text>
<path d="M112635 33428
L112708 33452
L112733 33476
L112757 33525
L112757 33598
L112733 33647
L112708 33671
L112660 33696
L112465 33696
L112465 33184
L112635 33184
L112684 33208
L112708 33233
L112733 33281
L112733 33330
L112708 33379
L112684 33403
L112635 33428
L112465 33428
" />
</g>
<g style="fill:#000000; fill-opacity:0.0; 
stroke:#000000; stroke-width:39.3701; stroke-opacity:1; 
stroke-linecap:round; stroke-linejoin:round;">
</g>
<g style="fill:#000000; fill-opacity:0.0; 
stroke:#000000; stroke-width:59.0551; stroke-opacity:1; 
stroke-linecap:round; stroke-linejoin:round;">
<text x="112599" y="53405.5"
textLength="570.866" font-size="682.415" lengthAdjust="spacingAndGlyphs"
text-anchor="middle" opacity="0">C</text>
<path d="M112757 53332
L112733 53356
L112660 53381
L112611 53381
L112538 53356
L112489 53308
L112465 53259
L112440 53161
L112440 53088
L112465 52991
L112489 52942
L112538 52893
L112611 52869
L112660 52869
L112733 52893
L112757 52918
" />
</g>
<g style="fill:#000000; fill-opacity:0.0; 
stroke:#000000; stroke-width:39.3701; stroke-opacity:1; 
stroke-linecap:round; stroke-linejoin:round;">
</g>
<g style="fill:#000000; fill-opacity:0.0; 
stroke:#000000; stroke-width:59.0551; stroke-opacity:1; 
stroke-linecap:round; stroke-linejoin:round;">
<text x="112599" y="73090.6"
textLength="570.866" font-size="682.415" lengthAdjust="spacingAndGlyphs"
text-anchor="middle" opacity="0">D</text>
<path d="M112465 73066
L112465 72554
L112587 72554
L112660 72578
L112708 72627
L112733 72676
L112757 72773
L112757 72846
L112733 72944
L112708 72993
L112660 73041
L112587 73066
L112465 73066
" />
</g>
<g style="fill:#000000; fill-opacity:0.0; 
stroke:#000000; stroke-width:39.3701; stroke-opacity:1; 
stroke-linecap:round; stroke-linejoin:round;">
</g>
<g style="fill:#000000; fill-opacity:0.0; 
stroke:#000000; stroke-width:59.0551; stroke-opacity:1; 
stroke-linecap:round; stroke-linejoin:round;">
<text x="78741" y="76321.7"
textLength="2758.72" font-size="787.402" lengthAdjust="spacingAndGlyphs"
text-anchor="start" opacity="0">Date: </text>
<path d="M78911 76293
L78911 75703
L79051 75703
L79136 75731
L79192 75787
L79220 75843
L79248 75956
L79248 76040
L79220 76153
L79192 76209
L79136 76265
L79051 76293
L78911 76293
" />
<path d="M79754 76293
L79754 75984
L79726 75928
L79670 75899
L79557 75899
L79501 75928
" />
<path d="M79754 76265
L79698 76293
L79557 76293
L79501 76265
L79473 76209
L79473 76153
L79501 76096
L79557 76068
L79698 76068
L79754 76040
" />
<path d="M79951 75899
L80176 75899
" />
<path d="M80036 75703
L80036 76209
L80064 76265
L80120 76293
L80176 76293
" />
<path d="M80598 76265
L80542 76293
L80429 76293
L80373 76265
L80345 76209
L80345 75984
L80373 75928
L80429 75899
L80542 75899
L80598 75928
L80626 75984
L80626 76040
L80345 76096
" />
<path d="M80879 76237
L80907 76265
L80879 76293
L80851 76265
L80879 76237
L80879 76293
" />
<path d="M80879 75928
L80907 75956
L80879 75984
L80851 75956
L80879 75928
L80879 75984
" />
</g>
<g style="fill:#000000; fill-opacity:0.0; 
stroke:#000000; stroke-width:39.3701; stroke-opacity:1; 
stroke-linecap:round; stroke-linejoin:round;">
</g>
<g style="fill:#000000; fill-opacity:0.0; 
stroke:#000000; stroke-width:59.0551; stroke-opacity:1; 
stroke-linecap:round; stroke-linejoin:round;">
<path d="M69685 76577
L112205 76577
" />
</g>
<g style="fill:#000000; fill-opacity:0.0; 
stroke:#000000; stroke-width:39.3701; stroke-opacity:1; 
stroke-linecap:round; stroke-linejoin:round;">
</g>
<g style="fill:#000000; fill-opacity:0.0; 
stroke:#000000; stroke-width:59.0551; stroke-opacity:1; 
stroke-linecap:round; stroke-linejoin:round;">
<text x="70079.6" y="77424.1"
textLength="16960.1" font-size="787.402" lengthAdjust="spacingAndGlyphs"
text-anchor="start" opacity="0">KiCad E.D.A.  kicad (5.1.5-0-10_14)</text>
<path d="M70249 77395
L70249 76805
" />
<path d="M70587 77395
L70334 77058
" />
<path d="M70587 76805
L70249 77142
" />
<path d="M70840 77395
L70840 77002
" />
<path d="M70840 76805
L70812 76833
L70840 76861
L70868 76833
L70840 76805
L70840 76861
" />
<path d="M71458 77339
L71430 77367
L71346 77395
L71290 77395
L71205 77367
L71149 77311
L71121 77255
L71093 77142
L71093 77058
L71121 76946
L71149 76889
L71205 76833
L71290 76805
L71346 76805
L71430 76833
L71458 76861
" />
<path d="M71965 77395
L71965 77086
L71937 77030
L71880 77002
L71768 77002
L71712 77030
" />
<path d="M71965 77367
L71908 77395
L71768 77395
L71712 77367
L71683 77311
L71683 77255
L71712 77199
L71768 77171
L71908 77171
L71965 77142
" />
<path d="M72499 77395
L72499 76805
" />
<path d="M72499 77367
L72443 77395
L72330 77395
L72274 77367
L72246 77339
L72218 77283
L72218 77114
L72246 77058
L72274 77030
L72330 77002
L72443 77002
L72499 77030
" />
<path d="M73230 77086
L73427 77086
" />
<path d="M73511 77395
L73230 77395
L73230 76805
L73511 76805
" />
<path d="M73764 77339
L73793 77367
L73764 77395
L73736 77367
L73764 77339
L73764 77395
" />
<path d="M74046 77395
L74046 76805
L74186 76805
L74271 76833
L74327 76889
L74355 76946
L74383 77058
L74383 77142
L74355 77255
L74327 77311
L74271 77367
L74186 77395
L74046 77395
" />
<path d="M74636 77339
L74664 77367
L74636 77395
L74608 77367
L74636 77339
L74636 77395
" />
<path d="M74889 77227
L75171 77227
" />
<path d="M74833 77395
L75030 76805
L75227 77395
" />
<path d="M75424 77339
L75452 77367
L75424 77395
L75395 77367
L75424 77339
L75424 77395
" />
<path d="M76605 77395
L76605 76805
" />
<path d="M76661 77171
L76830 77395
" />
<path d="M76830 77002
L76605 77227
" />
<path d="M77083 77395
L77083 77002
" />
<path d="M77083 76805
L77055 76833
L77083 76861
L77111 76833
L77083 76805
L77083 76861
" />
<path d="M77617 77367
L77561 77395
L77448 77395
L77392 77367
L77364 77339
L77336 77283
L77336 77114
L77364 77058
L77392 77030
L77448 77002
L77561 77002
L77617 77030
" />
<path d="M78123 77395
L78123 77086
L78095 77030
L78039 77002
L77926 77002
L77870 77030
" />
<path d="M78123 77367
L78067 77395
L77926 77395
L77870 77367
L77842 77311
L77842 77255
L77870 77199
L77926 77171
L78067 77171
L78123 77142
" />
<path d="M78658 77395
L78658 76805
" />
<path d="M78658 77367
L78601 77395
L78489 77395
L78433 77367
L78404 77339
L78376 77283
L78376 77114
L78404 77058
L78433 77030
L78489 77002
L78601 77002
L78658 77030
" />
<path d="M79557 77620
L79529 77592
L79473 77508
L79445 77452
L79417 77367
L79389 77227
L79389 77114
L79417 76974
L79445 76889
L79473 76833
L79529 76749
L79557 76721
" />
<path d="M80064 76805
L79782 76805
L79754 77086
L79782 77058
L79839 77030
L79979 77030
L80036 77058
L80064 77086
L80092 77142
L80092 77283
L80064 77339
L80036 77367
L79979 77395
L79839 77395
L79782 77367
L79754 77339
" />
<path d="M80345 77339
L80373 77367
L80345 77395
L80317 77367
L80345 77339
L80345 77395
" />
<path d="M80935 77395
L80598 77395
" />
<path d="M80767 77395
L80767 76805
L80710 76889
L80654 76946
L80598 76974
" />
<path d="M81188 77339
L81217 77367
L81188 77395
L81160 77367
L81188 77339
L81188 77395
" />
<path d="M81751 76805
L81470 76805
L81442 77086
L81470 77058
L81526 77030
L81667 77030
L81723 77058
L81751 77086
L81779 77142
L81779 77283
L81751 77339
L81723 77367
L81667 77395
L81526 77395
L81470 77367
L81442 77339
" />
<path d="M82032 77171
L82482 77171
" />
<path d="M82876 76805
L82932 76805
L82988 76833
L83016 76861
L83045 76917
L83073 77030
L83073 77171
L83045 77283
L83016 77339
L82988 77367
L82932 77395
L82876 77395
L82820 77367
L82791 77339
L82763 77283
L82735 77171
L82735 77030
L82763 76917
L82791 76861
L82820 76833
L82876 76805
" />
<path d="M83326 77171
L83776 77171
" />
<path d="M84366 77395
L84029 77395
" />
<path d="M84197 77395
L84197 76805
L84141 76889
L84085 76946
L84029 76974
" />
<path d="M84732 76805
L84788 76805
L84844 76833
L84872 76861
L84901 76917
L84929 77030
L84929 77171
L84901 77283
L84872 77339
L84844 77367
L84788 77395
L84732 77395
L84676 77367
L84647 77339
L84619 77283
L84591 77171
L84591 77030
L84619 76917
L84647 76861
L84676 76833
L84732 76805
" />
<path d="M85041 77452
L85491 77452
" />
<path d="M85941 77395
L85604 77395
" />
<path d="M85772 77395
L85772 76805
L85716 76889
L85660 76946
L85604 76974
" />
<path d="M86447 77002
L86447 77395
" />
<path d="M86307 76777
L86166 77199
L86532 77199
" />
<path d="M86700 77620
L86728 77592
L86785 77508
L86813 77452
L86841 77367
L86869 77227
L86869 77114
L86841 76974
L86813 76889
L86785 76833
L86728 76749
L86700 76721
" />
</g>
<g style="fill:#000000; fill-opacity:0.0; 
stroke:#000000; stroke-width:39.3701; stroke-opacity:1; 
stroke-linecap:round; stroke-linejoin:round;">
</g>
<g style="fill:#000000; fill-opacity:0.0; 
stroke:#000000; stroke-width:59.0551; stroke-opacity:1; 
stroke-linecap:round; stroke-linejoin:round;">
<path d="M69685 75396
L112205 75396
" />
</g>
<g style="fill:#000000; fill-opacity:0.0; 
stroke:#000000; stroke-width:39.3701; stroke-opacity:1; 
stroke-linecap:round; stroke-linejoin:round;">
</g>
<g style="fill:#000000; fill-opacity:0.0; 
stroke:#000000; stroke-width:118.11; stroke-opacity:1; 
stroke-linecap:round; stroke-linejoin:round;">
<text x="103544" y="76321.7"
textLength="2336.9" font-size="787.402" lengthAdjust="spacingAndGlyphs"
text-anchor="start" opacity="0">Rev: </text>
<path d="M104099 76293
L103902 76012
" />
<path d="M103761 76293
L103761 75703
L103986 75703
L104042 75731
L104070 75759
L104099 75815
L104099 75899
L104070 75956
L104042 75984
L103986 76012
L103761 76012
" />
<path d="M104577 76265
L104520 76293
L104408 76293
L104352 76265
L104323 76209
L104323 75984
L104352 75928
L104408 75899
L104520 75899
L104577 75928
L104605 75984
L104605 76040
L104323 76096
" />
<path d="M104802 75899
L104942 76293
L105083 75899
" />
<path d="M105308 76237
L105336 76265
L105308 76293
L105280 76265
L105308 76237
L105308 76293
" />
<path d="M105308 75928
L105336 75956
L105308 75984
L105280 75956
L105308 75928
L105308 75984
" />
</g>
<g style="fill:#000000; fill-opacity:0.0; 
stroke:#000000; stroke-width:39.3701; stroke-opacity:1; 
stroke-linecap:round; stroke-linejoin:round;">
</g>
<g style="fill:#000000; fill-opacity:0.0; 
stroke:#000000; stroke-width:59.0551; stroke-opacity:1; 
stroke-linecap:round; stroke-linejoin:round;">
<text x="70079.6" y="76321.7"
textLength="3781.21" font-size="787.402" lengthAdjust="spacingAndGlyphs"
text-anchor="start" opacity="0">Size: A4</text>
<path d="M70221 76265
L70305 76293
L70446 76293
L70502 76265
L70530 76237
L70559 76181
L70559 76124
L70530 76068
L70502 76040
L70446 76012
L70334 75984
L70277 75956
L70249 75928
L70221 75871
L70221 75815
L70249 75759
L70277 75731
L70334 75703
L70474 75703
L70559 75731
" />
<path d="M70812 76293
L70812 75899
" />
<path d="M70812 75703
L70784 75731
L70812 75759
L70840 75731
L70812 75703
L70812 75759
" />
<path d="M71037 75899
L71346 75899
L71037 76293
L71346 76293
" />
<path d="M71796 76265
L71740 76293
L71627 76293
L71571 76265
L71543 76209
L71543 75984
L71571 75928
L71627 75899
L71740 75899
L71796 75928
L71824 75984
L71824 76040
L71543 76096
" />
<path d="M72077 76237
L72105 76265
L72077 76293
L72049 76265
L72077 76237
L72077 76293
" />
<path d="M72077 75928
L72105 75956
L72077 75984
L72049 75956
L72077 75928
L72077 75984
" />
<path d="M72780 76124
L73061 76124
" />
<path d="M72724 76293
L72921 75703
L73118 76293
" />
<path d="M73568 75899
L73568 76293
" />
<path d="M73427 75674
L73286 76096
L73652 76096
" />
</g>
<g style="fill:#000000; fill-opacity:0.0; 
stroke:#000000; stroke-width:39.3701; stroke-opacity:1; 
stroke-linecap:round; stroke-linejoin:round;">
</g>
<g style="fill:#000000; fill-opacity:0.0; 
stroke:#000000; stroke-width:59.0551; stroke-opacity:1; 
stroke-linecap:round; stroke-linejoin:round;">
<text x="103544" y="77424.1"
textLength="3349.27" font-size="787.402" lengthAdjust="spacingAndGlyphs"
text-anchor="start" opacity="0">Id: 1/1</text>
<path d="M103714 77395
L103714 76805
" />
<path d="M104248 77395
L104248 76805
" />
<path d="M104248 77367
L104192 77395
L104079 77395
L104023 77367
L103995 77339
L103967 77283
L103967 77114
L103995 77058
L104023 77030
L104079 77002
L104192 77002
L104248 77030
" />
<path d="M104529 77339
L104557 77367
L104529 77395
L104501 77367
L104529 77339
L104529 77395
" />
<path d="M104529 77030
L104557 77058
L104529 77086
L104501 77058
L104529 77030
L104529 77086
" />
<path d="M105570 77395
L105232 77395
" />
<path d="M105401 77395
L105401 76805
L105345 76889
L105289 76946
L105232 76974
" />
<path d="M106245 76777
L105739 77536
" />
<path d="M106751 77395
L106413 77395
" />
<path d="M106582 77395
L106582 76805
L106526 76889
L106470 76946
L106413 76974
" />
</g>
<g style="fill:#000000; fill-opacity:0.0; 
stroke:#000000; stroke-width:39.3701; stroke-opacity:1; 
stroke-linecap:round; stroke-linejoin:round;">
</g>
<g style="fill:#000000; fill-opacity:0.0; 
stroke:#000000; stroke-width:59.0551; stroke-opacity:1; 
stroke-linecap:round; stroke-linejoin:round;">
<path d="M69685 73821
L112205 73821
" />
</g>
<g style="fill:#000000; fill-opacity:0.0; 
stroke:#000000; stroke-width:39.3701; stroke-opacity:1; 
stroke-linecap:round; stroke-linejoin:round;">
</g>
<g style="fill:#000000; fill-opacity:0.0; 
stroke:#000000; stroke-width:157.48; stroke-opacity:1; 
stroke-linecap:round; stroke-linejoin:round;">
<text x="70079.6" y="74924.1"
textLength="3701.14" font-size="1049.87" lengthAdjust="spacingAndGlyphs"
text-anchor="start" opacity="0">Title: </text>
<path d="M70360 74099
L70810 74099
" />
<path d="M70486 74886
L70585 74099
" />
<path d="M70974 74886
L71039 74361
" />
<path d="M71072 74099
L71030 74136
L71063 74174
L71105 74136
L71072 74099
L71063 74174
" />
<path d="M71302 74361
L71602 74361
" />
<path d="M71447 74099
L71363 74774
L71391 74849
L71461 74886
L71536 74886
" />
<path d="M71911 74886
L71841 74849
L71813 74774
L71897 74099
" />
<path d="M72516 74849
L72436 74886
L72286 74886
L72216 74849
L72187 74774
L72225 74474
L72272 74399
L72352 74361
L72501 74361
L72572 74399
L72600 74474
L72591 74549
L72206 74624
" />
<path d="M72895 74811
L72928 74849
L72886 74886
L72853 74849
L72895 74811
L72886 74886
" />
<path d="M72947 74399
L72980 74436
L72937 74474
L72905 74436
L72947 74399
L72937 74474
" />
</g>
<g style="fill:#000000; fill-opacity:0.0; 
stroke:#000000; stroke-width:39.3701; stroke-opacity:1; 
stroke-linecap:round; stroke-linejoin:round;">
</g>
<g style="fill:#000000; fill-opacity:0.0; 
stroke:#000000; stroke-width:59.0551; stroke-opacity:1; 
stroke-linecap:round; stroke-linejoin:round;">
<text x="70079.6" y="73408.3"
textLength="13674.9" font-size="787.402" lengthAdjust="spacingAndGlyphs"
text-anchor="start" opacity="0">File: Main_Board_v1.kicad_pcb</text>
<path d="M70446 73070
L70249 73070
" />
<path d="M70249 73380
L70249 72789
L70530 72789
" />
<path d="M70755 73380
L70755 72986
" />
<path d="M70755 72789
L70727 72817
L70755 72845
L70784 72817
L70755 72789
L70755 72845
" />
<path d="M71121 73380
L71065 73352
L71037 73295
L71037 72789
" />
<path d="M71571 73352
L71515 73380
L71402 73380
L71346 73352
L71318 73295
L71318 73070
L71346 73014
L71402 72986
L71515 72986
L71571 73014
L71599 73070
L71599 73127
L71318 73183
" />
<path d="M71852 73323
L71880 73352
L71852 73380
L71824 73352
L71852 73323
L71852 73380
" />
<path d="M71852 73014
L71880 73042
L71852 73070
L71824 73042
L71852 73014
L71852 73070
" />
<path d="M72583 73380
L72583 72789
L72780 73211
L72977 72789
L72977 73380
" />
<path d="M73511 73380
L73511 73070
L73483 73014
L73427 72986
L73314 72986
L73258 73014
" />
<path d="M73511 73352
L73455 73380
L73314 73380
L73258 73352
L73230 73295
L73230 73239
L73258 73183
L73314 73155
L73455 73155
L73511 73127
" />
<path d="M73793 73380
L73793 72986
" />
<path d="M73793 72789
L73764 72817
L73793 72845
L73821 72817
L73793 72789
L73793 72845
" />
<path d="M74074 72986
L74074 73380
" />
<path d="M74074 73042
L74102 73014
L74158 72986
L74242 72986
L74299 73014
L74327 73070
L74327 73380
" />
<path d="M74467 73436
L74917 73436
" />
<path d="M75255 73070
L75339 73099
L75367 73127
L75395 73183
L75395 73267
L75367 73323
L75339 73352
L75283 73380
L75058 73380
L75058 72789
L75255 72789
L75311 72817
L75339 72845
L75367 72902
L75367 72958
L75339 73014
L75311 73042
L75255 73070
L75058 73070
" />
<path d="M75733 73380
L75677 73352
L75649 73323
L75620 73267
L75620 73099
L75649 73042
L75677 73014
L75733 72986
L75817 72986
L75874 73014
L75902 73042
L75930 73099
L75930 73267
L75902 73323
L75874 73352
L75817 73380
L75733 73380
" />
<path d="M76436 73380
L76436 73070
L76408 73014
L76352 72986
L76239 72986
L76183 73014
" />
<path d="M76436 73352
L76380 73380
L76239 73380
L76183 73352
L76155 73295
L76155 73239
L76183 73183
L76239 73155
L76380 73155
L76436 73127
" />
<path d="M76717 73380
L76717 72986
" />
<path d="M76717 73099
L76745 73042
L76773 73014
L76830 72986
L76886 72986
" />
<path d="M77336 73380
L77336 72789
" />
<path d="M77336 73352
L77280 73380
L77167 73380
L77111 73352
L77083 73323
L77055 73267
L77055 73099
L77083 73042
L77111 73014
L77167 72986
L77280 72986
L77336 73014
" />
<path d="M77476 73436
L77926 73436
" />
<path d="M78011 72986
L78151 73380
L78292 72986
" />
<path d="M78826 73380
L78489 73380
" />
<path d="M78658 73380
L78658 72789
L78601 72874
L78545 72930
L78489 72958
" />
<path d="M79079 73323
L79108 73352
L79079 73380
L79051 73352
L79079 73323
L79079 73380
" />
<path d="M79361 73380
L79361 72789
" />
<path d="M79417 73155
L79586 73380
" />
<path d="M79586 72986
L79361 73211
" />
<path d="M79839 73380
L79839 72986
" />
<path d="M79839 72789
L79811 72817
L79839 72845
L79867 72817
L79839 72789
L79839 72845
" />
<path d="M80373 73352
L80317 73380
L80204 73380
L80148 73352
L80120 73323
L80092 73267
L80092 73099
L80120 73042
L80148 73014
L80204 72986
L80317 72986
L80373 73014
" />
<path d="M80879 73380
L80879 73070
L80851 73014
L80795 72986
L80682 72986
L80626 73014
" />
<path d="M80879 73352
L80823 73380
L80682 73380
L80626 73352
L80598 73295
L80598 73239
L80626 73183
L80682 73155
L80823 73155
L80879 73127
" />
<path d="M81413 73380
L81413 72789
" />
<path d="M81413 73352
L81357 73380
L81245 73380
L81188 73352
L81160 73323
L81132 73267
L81132 73099
L81160 73042
L81188 73014
L81245 72986
L81357 72986
L81413 73014
" />
<path d="M81554 73436
L82004 73436
" />
<path d="M82145 72986
L82145 73577
" />
<path d="M82145 73014
L82201 72986
L82313 72986
L82370 73014
L82398 73042
L82426 73099
L82426 73267
L82398 73323
L82370 73352
L82313 73380
L82201 73380
L82145 73352
" />
<path d="M82932 73352
L82876 73380
L82763 73380
L82707 73352
L82679 73323
L82651 73267
L82651 73099
L82679 73042
L82707 73014
L82763 72986
L82876 72986
L82932 73014
" />
<path d="M83185 73380
L83185 72789
" />
<path d="M83185 73014
L83241 72986
L83354 72986
L83410 73014
L83438 73042
L83466 73099
L83466 73267
L83438 73323
L83410 73352
L83354 73380
L83241 73380
L83185 73352
" />
</g>
<g style="fill:#000000; fill-opacity:0.0; 
stroke:#000000; stroke-width:39.3701; stroke-opacity:1; 
stroke-linecap:round; stroke-linejoin:round;">
</g>
<g style="fill:#000000; fill-opacity:0.0; 
stroke:#000000; stroke-width:59.0551; stroke-opacity:1; 
stroke-linecap:round; stroke-linejoin:round;">
<path d="M69685 71459
L112205 71459
" />
</g>
<g style="fill:#000000; fill-opacity:0.0; 
stroke:#000000; stroke-width:39.3701; stroke-opacity:1; 
stroke-linecap:round; stroke-linejoin:round;">
</g>
<g style="fill:#000000; fill-opacity:0.0; 
stroke:#000000; stroke-width:59.0551; stroke-opacity:1; 
stroke-linecap:round; stroke-linejoin:round;">
<text x="70079.6" y="72345.4"
textLength="3236.78" font-size="787.402" lengthAdjust="spacingAndGlyphs"
text-anchor="start" opacity="0">Sheet: </text>
<path d="M70221 72289
L70305 72317
L70446 72317
L70502 72289
L70530 72260
L70559 72204
L70559 72148
L70530 72092
L70502 72064
L70446 72036
L70334 72007
L70277 71979
L70249 71951
L70221 71895
L70221 71839
L70249 71782
L70277 71754
L70334 71726
L70474 71726
L70559 71754
" />
<path d="M70812 72317
L70812 71726
" />
<path d="M71065 72317
L71065 72007
L71037 71951
L70980 71923
L70896 71923
L70840 71951
L70812 71979
" />
<path d="M71571 72289
L71515 72317
L71402 72317
L71346 72289
L71318 72232
L71318 72007
L71346 71951
L71402 71923
L71515 71923
L71571 71951
L71599 72007
L71599 72064
L71318 72120
" />
<path d="M72077 72289
L72021 72317
L71908 72317
L71852 72289
L71824 72232
L71824 72007
L71852 71951
L71908 71923
L72021 71923
L72077 71951
L72105 72007
L72105 72064
L71824 72120
" />
<path d="M72274 71923
L72499 71923
" />
<path d="M72358 71726
L72358 72232
L72386 72289
L72443 72317
L72499 72317
" />
<path d="M72696 72260
L72724 72289
L72696 72317
L72668 72289
L72696 72260
L72696 72317
" />
<path d="M72696 71951
L72724 71979
L72696 72007
L72668 71979
L72696 71951
L72696 72007
" />
</g>
<g style="fill:#000000; fill-opacity:0.0; 
stroke:#000000; stroke-width:39.3701; stroke-opacity:1; 
stroke-linecap:round; stroke-linejoin:round;">
</g>
<g style="fill:#000000; fill-opacity:0.0; 
stroke:#000000; stroke-width:59.0551; stroke-opacity:1; 
stroke-linecap:round; stroke-linejoin:round;">
<path d="M77559 75396
L77559 76577
" />
</g>
<g style="fill:#000000; fill-opacity:0.0; 
stroke:#000000; stroke-width:39.3701; stroke-opacity:1; 
stroke-linecap:round; stroke-linejoin:round;">
</g>
<g style="fill:#000000; fill-opacity:0.0; 
stroke:#000000; stroke-width:59.0551; stroke-opacity:1; 
stroke-linecap:round; stroke-linejoin:round;">
<path d="M102756 75396
L102756 77955
" />
</g>
<g style="fill:#C2C2C2; fill-opacity:0.0; 
stroke:#C2C2C2; stroke-width:59.0551; stroke-opacity:1; 
stroke-linecap:round; stroke-linejoin:round;">
</g>
<g style="fill:#C2C2C2; fill-opacity:0.0; 
stroke:#C2C2C2; stroke-width:19.685; stroke-opacity:1; 
stroke-linecap:round; stroke-linejoin:round;">
<path d="M19550 40972
L18133 40972
" />
<path d="M19550 43393
L19550 40972
" />
<path d="M18133 43393
L19550 43393
" />
<path d="M18133 40972
L18133 43393
" />
<path d="M43526 26208
L43526 27625
" />
<path d="M45947 26208
L43526 26208
" />
<path d="M45947 27625
L45947 26208
" />
<path d="M43526 27625
L45947 27625
" />
<path d="M36755 30850
L38904 30850
" />
<path d="M36755 30850
L36755 32716
" />
<path d="M38904 32716
L38904 30850
" />
<path d="M38904 32716
L36755 32716
" />
<path d="M25341 14121
L25341 16271
" />
<path d="M25341 14121
L23475 14121
" />
<path d="M23475 16271
L25341 16271
" />
<path d="M23475 16271
L23475 14121
" />
</g>
<g style="fill:#C2C2C2; fill-opacity:0.0; 
stroke:#C2C2C2; stroke-width:47.2441; stroke-opacity:1; 
stroke-linecap:round; stroke-linejoin:round;">
<circle cx="16282.6" cy="14692.7" r="1299.21" /> 
</g>
<g style="fill:#C2C2C2; fill-opacity:0.0; 
stroke:#C2C2C2; stroke-width:19.685; stroke-opacity:1; 
stroke-linecap:round; stroke-linejoin:round;">
<path d="M19668 25893
L18014 25893
" />
<path d="M18014 25893
L18014 27547
" />
<path d="M18014 15342
L19668 15342
" />
<path d="M18014 13688
L18014 15342
" />
<path d="M19668 15342
L19668 13688
" />
<path d="M18014 27547
L19668 27547
" />
<path d="M19668 27547
L19668 25893
" />
<path d="M19668 13688
L18014 13688
" />
<path d="M47542 27547
L49196 27547
" />
<path d="M47542 25893
L47542 27547
" />
<path d="M49196 27547
L49196 25893
" />
<path d="M49196 25893
L47542 25893
" />
<path d="M47542 13688
L47542 15342
" />
<path d="M47542 15342
L49196 15342
" />
<path d="M49196 15342
L49196 13688
" />
<path d="M49196 13688
L47542 13688
" />
<path d="M47109 15027
L47109 13609
" />
<path d="M30692 15027
L47109 15027
" />
<path d="M30692 13609
L30692 15027
" />
<path d="M47109 13609
L30692 13609
" />
<path d="M20062 45184
L18408 45184
" />
<path d="M18408 45184
L18408 46838
" />
<path d="M18408 34633
L20062 34633
" />
<path d="M18408 32980
L18408 34633
" />
<path d="M20062 34633
L20062 32980
" />
<path d="M18408 46838
L20062 46838
" />
<path d="M20062 46838
L20062 45184
" />
<path d="M20062 32980
L18408 32980
" />
<path d="M47936 46838
L49589 46838
" />
<path d="M47936 45184
L47936 46838
" />
<path d="M49589 46838
L49589 45184
" />
<path d="M49589 45184
L47936 45184
" />
<path d="M47936 32980
L47936 34633
" />
<path d="M47936 34633
L49589 34633
" />
<path d="M49589 34633
L49589 32980
" />
<path d="M49589 32980
L47936 32980
" />
<path d="M47503 34318
L47503 32901
" />
<path d="M31085 34318
L47503 34318
" />
<path d="M31085 32901
L31085 34318
" />
<path d="M47503 32901
L31085 32901
" />
<path d="M43275 34934
L43275 40052
" />
<path d="M47173 34934
L43275 34934
" />
<path d="M47173 40052
L47173 34934
" />
<path d="M43275 40052
L47173 40052
" />
<path d="M53277 20895
L48158 20895
" />
<path d="M53277 24793
L53277 20895
" />
<path d="M48158 24793
L53277 24793
" />
<path d="M48158 20895
L48158 24793
" />
<path d="M36247 31444
L31420 31444
" />
<path d="M36247 32625
L36247 31444
" />
<path d="M31420 32625
L36247 32625
" />
<path d="M31420 31444
L31420 32625
" />
<path d="M39428 32428
L44255 32428
" />
<path d="M39428 31247
L39428 32428
" />
<path d="M44255 31247
L39428 31247
" />
<path d="M44255 32428
L44255 31247
" />
<path d="M44546 32428
L49373 32428
" />
<path d="M44546 31247
L44546 32428
" />
<path d="M49373 31247
L44546 31247
" />
<path d="M49373 32428
L49373 31247
" />
<path d="M27026 16287
L31853 16287
" />
<path d="M27026 15106
L27026 16287
" />
<path d="M31853 15106
L27026 15106
" />
<path d="M31853 16287
L31853 15106
" />
<path d="M25648 14712
L30475 14712
" />
<path d="M25648 13531
L25648 14712
" />
<path d="M30475 13531
L25648 13531
" />
<path d="M30475 14712
L30475 13531
" />
<path d="M76471 21613
L81313 21611
" />
<path d="M81318 21611
L81318 14521
" />
<path d="M81318 14521
L76471 14521
" />
<path d="M76471 14521
L76471 21613
" />
<path d="M76471 51141
L81313 51138
" />
<path d="M81318 51138
L81318 44048
" />
<path d="M81318 44048
L76471 44048
" />
<path d="M76471 44048
L76471 51141
" />
<path d="M19908 49554
L15081 49554
" />
<path d="M19908 50735
L19908 49554
" />
<path d="M15081 50735
L19908 50735
" />
<path d="M15081 49554
L15081 50735
" />
<path d="M19825 40385
L19825 35558
" />
<path d="M18644 40385
L19825 40385
" />
<path d="M18644 35558
L18644 40385
" />
<path d="M19825 35558
L18644 35558
" />
<path d="M59766 46440
L59766 51267
" />
<path d="M60947 46440
L59766 46440
" />
<path d="M60947 51267
L60947 46440
" />
<path d="M59766 51267
L60947 51267
" />
<path d="M25617 26129
L20790 26129
" />
<path d="M25617 27310
L25617 26129
" />
<path d="M20790 27310
L25617 27310
" />
<path d="M20790 26129
L20790 27310
" />
<path d="M30711 45814
L33743 45814
" />
<path d="M30711 44633
L30711 45814
" />
<path d="M33743 44633
L30711 44633
" />
<path d="M33743 45814
L33743 44633
" />
<path d="M76833 33865
L79865 33865
" />
<path d="M76833 32684
L76833 33865
" />
<path d="M79865 32684
L76833 32684
" />
<path d="M79865 33865
L79865 32684
" />
<path d="M27365 34003
L30396 34003
" />
<path d="M27365 32822
L27365 34003
" />
<path d="M30396 32822
L27365 32822
" />
<path d="M30396 34003
L30396 32822
" />
<path d="M72483 34561
L72483 39876
" />
<path d="M74255 34561
L72483 34561
" />
<path d="M74255 39876
L74255 34561
" />
<path d="M72483 39876
L74255 39876
" />
<path d="M44136 45519
L44136 40204
" />
<path d="M42365 45519
L44136 45519
" />
<path d="M42365 40204
L42365 45519
" />
<path d="M44136 40204
L42365 40204
" />
<path d="M56715 31405
L56715 36720
" />
<path d="M58487 31405
L56715 31405
" />
<path d="M58487 36720
L58487 31405
" />
<path d="M56715 36720
L58487 36720
" />
<path d="M64973 31405
L64973 36720
" />
<path d="M66745 31405
L64973 31405
" />
<path d="M66745 36720
L66745 31405
" />
<path d="M64973 36720
L66745 36720
" />
<path d="M64530 37094
L59215 37094
" />
<path d="M64530 38865
L64530 37094
" />
<path d="M59215 38865
L64530 38865
" />
<path d="M59215 37094
L59215 38865
" />
<path d="M56144 37054
L50829 37054
" />
<path d="M56144 38826
L56144 37054
" />
<path d="M50829 38826
L56144 38826
" />
<path d="M50829 37054
L50829 38826
" />
<path d="M35121 15106
L32089 15106
" />
<path d="M35121 16287
L35121 15106
" />
<path d="M32089 16287
L35121 16287
" />
<path d="M32089 15106
L32089 16287
" />
<path d="M26814 27802
L32129 27802
" />
<path d="M26814 26031
L26814 27802
" />
<path d="M32129 26031
L26814 26031
" />
<path d="M32129 27802
L32129 26031
" />
<path d="M76971 43452
L80003 43452
" />
<path d="M76971 42271
L76971 43452
" />
<path d="M80003 42271
L76971 42271
" />
<path d="M80003 43452
L80003 42271
" />
<path d="M72089 43944
L72089 49259
" />
<path d="M73861 43944
L72089 43944
" />
<path d="M73861 49259
L73861 43944
" />
<path d="M72089 49259
L73861 49259
" />
<path d="M48959 35243
L48959 38275
" />
<path d="M50140 35243
L48959 35243
" />
<path d="M50140 38275
L50140 35243
" />
<path d="M48959 38275
L50140 38275
" />
<path d="M66932 44043
L69963 44043
" />
<path d="M66932 42861
L66932 44043
" />
<path d="M69963 42861
L66932 42861
" />
<path d="M69963 44043
L69963 42861
" />
<circle cx="72188.1" cy="32822.6" r="1082.68" /> 
<path d="M70357 37153
L67325 37153
" />
<path d="M70357 38334
L70357 37153
" />
<path d="M67325 38334
L70357 38334
" />
<path d="M67325 37153
L67325 38334
" />
<path d="M47129 15106
L44097 15106
" />
<path d="M47129 16287
L47129 15106
" />
<path d="M44097 16287
L47129 16287
" />
<path d="M44097 15106
L44097 16287
" />
<path d="M76833 14417
L79865 14417
" />
<path d="M76833 13235
L76833 14417
" />
<path d="M79865 13235
L76833 13235
" />
<path d="M79865 14417
L79865 13235
" />
<path d="M38073 26129
L35042 26129
" />
<path d="M38073 27310
L38073 26129
" />
<path d="M35042 27310
L38073 27310
" />
<path d="M35042 26129
L35042 27310
" />
<path d="M72365 15795
L72365 21109
" />
<path d="M74136 15795
L72365 15795
" />
<path d="M74136 21109
L74136 15795
" />
<path d="M72365 21109
L74136 21109
" />
<path d="M76833 23787
L79865 23787
" />
<path d="M76833 22606
L76833 23787
" />
<path d="M79865 22606
L76833 22606
" />
<path d="M79865 23787
L79865 22606
" />
<path d="M69176 18649
L66144 18649
" />
<path d="M69176 19830
L69176 18649
" />
<path d="M66144 19830
L69176 19830
" />
<path d="M66144 18649
L66144 19830
" />
<path d="M71597 24102
L71597 21070
" />
<path d="M70416 24102
L71597 24102
" />
<path d="M70416 21070
L70416 24102
" />
<path d="M71597 21070
L70416 21070
" />
<path d="M63353 13137
L63353 18452
" />
<path d="M65125 13137
L63353 13137
" />
<path d="M65125 18452
L65125 13137
" />
<path d="M63353 18452
L65125 18452
" />
<circle cx="71203.9" cy="14397.4" r="1082.68" /> 
<path d="M72365 25178
L72365 30493
" />
<path d="M74136 25178
L72365 25178
" />
<path d="M74136 30493
L74136 25178
" />
<path d="M72365 30493
L74136 30493
" />
<path d="M17955 25243
L23270 25243
" />
<path d="M17955 23472
L17955 25243
" />
<path d="M23270 23472
L17955 23472
" />
<path d="M23270 25243
L23270 23472
" />
<path d="M59113 20826
L64428 20826
" />
<path d="M59113 19054
L59113 20826
" />
<path d="M64428 19054
L59113 19054
" />
<path d="M64428 20826
L64428 19054
" />
<path d="M17719 17074
L20751 17074
" />
<path d="M17719 15893
L17719 17074
" />
<path d="M20751 15893
L17719 15893
" />
<path d="M20751 17074
L20751 15893
" />
<path d="M41499 35972
L21282 35972
" />
<path d="M21282 35972
L21282 43137
" />
<path d="M21282 43137
L41499 43137
" />
<path d="M41499 43137
L41499 35972
" />
<path d="M70392 39767
L66258 39767
" />
<path d="M70392 41700
L70392 39767
" />
<path d="M66258 41700
L70392 41700
" />
<path d="M66258 39767
L66258 41700
" />
<path d="M25711 24554
L45928 24554
" />
<path d="M45928 24554
L45928 17389
" />
<path d="M45928 17389
L25711 17389
" />
<path d="M25711 17389
L25711 24554
" />
<path d="M69782 21302
L65648 21302
" />
<path d="M69782 23235
L69782 21302
" />
<path d="M65648 23235
L69782 23235
" />
<path d="M65648 21302
L65648 23235
" />
<path d="M21302 17448
L17148 17448
" />
<path d="M21302 21661
L21302 17448
" />
<path d="M17148 21661
L21302 21661
" />
<path d="M17148 17448
L17148 21661
" />
<path d="M75573 49121
L73920 49121
" />
<path d="M75573 50775
L75573 49121
" />
<path d="M73920 50775
L75573 50775
" />
<path d="M73920 49121
L73920 50775
" />
<path d="M13172 13688
L11518 13688
" />
<path d="M13172 15342
L13172 13688
" />
<path d="M11518 15342
L13172 15342
" />
<path d="M11518 13688
L11518 15342
" />
<path d="M13172 49121
L11518 49121
" />
<path d="M13172 50775
L13172 49121
" />
<path d="M11518 50775
L13172 50775
" />
<path d="M11518 49121
L11518 50775
" />
<path d="M73920 13688
L73920 15342
" />
<path d="M75573 13688
L73920 13688
" />
<path d="M75573 15342
L75573 13688
" />
<path d="M73920 15342
L75573 15342
" />
<path d="M76471 41298
L81313 41296
" />
<path d="M81318 41296
L81318 34206
" />
<path d="M81318 34206
L76471 34206
" />
<path d="M76471 34206
L76471 41298
" />
<path d="M76471 31456
L81313 31453
" />
<path d="M81318 31453
L81318 24363
" />
<path d="M81318 24363
L76471 24363
" />
<path d="M76471 24363
L76471 31456
" />
<path d="M28957 29631
L33784 29631
" />
<path d="M28957 28450
L28957 29631
" />
<path d="M33784 28450
L28957 28450
" />
<path d="M33784 29631
L33784 28450
" />
<path d="M28957 30831
L33784 30831
" />
<path d="M28957 29650
L28957 30831
" />
<path d="M33784 29650
L28957 29650
" />
<path d="M33784 30831
L33784 29650
" />
<path d="M24747 45928
L24747 50755
" />
<path d="M25928 45928
L24747 45928
" />
<path d="M25928 50755
L25928 45928
" />
<path d="M24747 50755
L25928 50755
" />
<path d="M15692 38645
L15692 43472
" />
<path d="M16873 38645
L15692 38645
" />
<path d="M16873 43472
L16873 38645
" />
<path d="M15692 43472
L16873 43472
" />
<path d="M15692 43960
L15692 48787
" />
<path d="M16873 43960
L15692 43960
" />
<path d="M16873 48787
L16873 43960
" />
<path d="M15692 48787
L16873 48787
" />
<path d="M74884 34865
L74884 39692
" />
<path d="M76066 34865
L74884 34865
" />
<path d="M76066 39692
L76066 34865
" />
<path d="M74884 39692
L76066 39692
" />
<path d="M46991 46487
L46991 41661
" />
<path d="M45810 46487
L46991 46487
" />
<path d="M45810 41661
L45810 46487
" />
<path d="M46991 41661
L45810 41661
" />
<path d="M44432 40613
L44432 45440
" />
<path d="M45613 40613
L44432 40613
" />
<path d="M45613 45440
L45613 40613
" />
<path d="M44432 45440
L45613 45440
" />
<path d="M50255 44239
L55081 44239
" />
<path d="M50255 43058
L50255 44239
" />
<path d="M55081 43058
L50255 43058
" />
<path d="M55081 44239
L55081 43058
" />
<path d="M64357 26984
L69184 26984
" />
<path d="M64357 25802
L64357 26984
" />
<path d="M69184 25802
L64357 25802
" />
<path d="M69184 26984
L69184 25802
" />
<path d="M64416 25487
L69243 25487
" />
<path d="M64416 24306
L64416 25487
" />
<path d="M69243 24306
L64416 24306
" />
<path d="M69243 25487
L69243 24306
" />
<path d="M15806 29279
L20633 29279
" />
<path d="M15806 28098
L15806 29279
" />
<path d="M20633 28098
L15806 28098
" />
<path d="M20633 29279
L20633 28098
" />
<path d="M44235 50818
L44235 45991
" />
<path d="M43054 50818
L44235 50818
" />
<path d="M43054 45991
L43054 50818
" />
<path d="M44235 45991
L43054 45991
" />
<path d="M36951 45928
L36951 50755
" />
<path d="M38133 45928
L36951 45928
" />
<path d="M38133 50755
L38133 45928
" />
<path d="M36951 50755
L38133 50755
" />
<path d="M30849 45928
L30849 50755
" />
<path d="M32030 45928
L30849 45928
" />
<path d="M32030 50755
L32030 45928
" />
<path d="M30849 50755
L32030 50755
" />
<path d="M16873 36251
L16873 31424
" />
<path d="M15692 36251
L16873 36251
" />
<path d="M15692 31424
L15692 36251
" />
<path d="M16873 31424
L15692 31424
" />
<path d="M18251 39204
L18251 34377
" />
<path d="M17070 39204
L18251 39204
" />
<path d="M17070 34377
L17070 39204
" />
<path d="M18251 34377
L17070 34377
" />
<path d="M48959 38448
L48959 43275
" />
<path d="M50140 38448
L48959 38448
" />
<path d="M50140 43275
L50140 38448
" />
<path d="M48959 43275
L50140 43275
" />
<path d="M20696 29869
L15869 29869
" />
<path d="M20696 31050
L20696 29869
" />
<path d="M15869 31050
L20696 31050
" />
<path d="M15869 29869
L15869 31050
" />
<path d="M47384 40023
L47384 44850
" />
<path d="M48566 40023
L47384 40023
" />
<path d="M48566 44850
L48566 40023
" />
<path d="M47384 44850
L48566 44850
" />
<path d="M55373 44239
L60199 44239
" />
<path d="M55373 43058
L55373 44239
" />
<path d="M60199 43058
L55373 43058
" />
<path d="M60199 44239
L60199 43058
" />
<path d="M74884 44196
L74884 49023
" />
<path d="M76066 44196
L74884 44196
" />
<path d="M76066 49023
L76066 44196
" />
<path d="M74884 49023
L76066 49023
" />
<path d="M53916 20401
L58743 20401
" />
<path d="M53916 19220
L53916 20401
" />
<path d="M58743 19220
L53916 19220
" />
<path d="M58743 20401
L58743 19220
" />
<path d="M56306 13393
L51479 13393
" />
<path d="M56306 14574
L56306 13393
" />
<path d="M51479 14574
L56306 14574
" />
<path d="M51479 13393
L51479 14574
" />
<path d="M51912 20503
L51912 15676
" />
<path d="M50731 20503
L51912 20503
" />
<path d="M50731 15676
L50731 20503
" />
<path d="M51912 15676
L50731 15676
" />
<path d="M58688 20814
L53861 20814
" />
<path d="M58688 21995
L58688 20814
" />
<path d="M53861 21995
L58688 21995
" />
<path d="M53861 20814
L53861 21995
" />
<path d="M53487 20503
L53487 15676
" />
<path d="M52306 20503
L53487 20503
" />
<path d="M52306 15676
L52306 20503
" />
<path d="M53487 15676
L52306 15676
" />
<path d="M74884 16204
L74884 21031
" />
<path d="M76066 16204
L74884 16204
" />
<path d="M76066 21031
L76066 16204
" />
<path d="M74884 21031
L76066 21031
" />
<path d="M55825 27531
L60652 27531
" />
<path d="M55825 26350
L55825 27531
" />
<path d="M60652 26350
L55825 26350
" />
<path d="M60652 27531
L60652 26350
" />
<path d="M23172 18338
L23172 13511
" />
<path d="M21991 18338
L23172 18338
" />
<path d="M21991 13511
L21991 18338
" />
<path d="M23172 13511
L21991 13511
" />
<path d="M23172 23259
L23172 18432
" />
<path d="M21991 23259
L23172 23259
" />
<path d="M21991 18432
L21991 23259
" />
<path d="M23172 18432
L21991 18432
" />
<path d="M16751 23373
L21577 23373
" />
<path d="M16751 22192
L16751 23373
" />
<path d="M21577 22192
L16751 22192
" />
<path d="M21577 23373
L21577 22192
" />
<path d="M23680 18027
L23680 22854
" />
<path d="M24861 18027
L23680 18027
" />
<path d="M24861 22854
L24861 18027
" />
<path d="M23680 22854
L24861 22854
" />
<path d="M74884 25535
L74884 30361
" />
<path d="M76066 25535
L74884 25535
" />
<path d="M76066 30361
L76066 25535
" />
<path d="M74884 30361
L76066 30361
" />
<path d="M55825 39767
L51692 39767
" />
<path d="M55825 41700
L55825 39767
" />
<path d="M51692 41700
L55825 41700
" />
<path d="M51692 39767
L51692 41700
" />
<path d="M63699 39767
L59566 39767
" />
<path d="M63699 41700
L63699 39767
" />
<path d="M59566 41700
L63699 41700
" />
<path d="M59566 39767
L59566 41700
" />
<path d="M64093 21263
L59959 21263
" />
<path d="M64093 23196
L64093 21263
" />
<path d="M59959 23196
L64093 23196
" />
<path d="M59959 21263
L59959 23196
" />
<path d="M59058 51326
L59058 46464
" />
<path d="M50652 51326
L59058 51326
" />
<path d="M50652 46464
L50652 51326
" />
<path d="M59058 46464
L50652 46464
" />
<path d="M22266 32704
L22266 34121
" />
<path d="M24688 32704
L22266 32704
" />
<path d="M24688 34121
L24688 32704
" />
<path d="M22266 34121
L24688 34121
" />
<path d="M23251 31129
L23251 32547
" />
<path d="M26656 31129
L23251 31129
" />
<path d="M26656 32547
L26656 31129
" />
<path d="M23251 32547
L26656 32547
" />
<path d="M52690 36720
L56115 36720
" />
<path d="M52690 31798
L52690 36720
" />
<path d="M56115 31798
L52690 31798
" />
<path d="M56115 36720
L56115 31798
" />
<path d="M60947 36720
L64373 36720
" />
<path d="M60947 31798
L60947 36720
" />
<path d="M64373 31798
L60947 31798
" />
<path d="M64373 36720
L64373 31798
" />
<path d="M67345 36720
L70770 36720
" />
<path d="M67345 31798
L67345 36720
" />
<path d="M70770 31798
L67345 31798
" />
<path d="M70770 36720
L70770 31798
" />
<path d="M10751 24279
L15613 24279
" />
<path d="M10751 15873
L10751 24279
" />
<path d="M15613 15873
L10751 15873
" />
<path d="M15613 24279
L15613 15873
" />
<path d="M39589 26011
L39589 27428
" />
<path d="M42995 26011
L39589 26011
" />
<path d="M42995 27428
L42995 26011
" />
<path d="M39589 27428
L42995 27428
" />
<path d="M66538 18039
L69963 18039
" />
<path d="M66538 13117
L66538 18039
" />
<path d="M69963 13117
L66538 13117
" />
<path d="M69963 18039
L69963 13117
" />
<path d="M59432 18039
L62857 18039
" />
<path d="M59432 13117
L59432 18039
" />
<path d="M62857 13117
L59432 13117
" />
<path d="M62857 18039
L62857 13117
" />
<path d="M64160 28735
L69223 28735
" />
<path d="M64160 27476
L64160 28735
" />
<path d="M69223 27476
L64160 27476
" />
<path d="M69223 28735
L69223 27476
" />
<path d="M50829 31657
L50829 36720
" />
<path d="M52089 31657
L50829 31657
" />
<path d="M52089 36720
L52089 31657
" />
<path d="M50829 36720
L52089 36720
" />
<path d="M59087 31657
L59087 36720
" />
<path d="M60347 31657
L59087 31657
" />
<path d="M60347 36720
L60347 31657
" />
<path d="M59087 36720
L60347 36720
" />
<path d="M57609 13409
L57609 18472
" />
<path d="M58869 13409
L57609 13409
" />
<path d="M58869 18472
L58869 13409
" />
<path d="M57609 18472
L58869 18472
" />
<g >
</g>
<g >
</g>
<g >
</g>
<g >
</g>
<g >
</g>
<g >
</g>
<g >
</g>
<g >
</g>
<g >
</g>
<g >
</g>
<g >
</g>
<g >
</g>
<g >
</g>
<g >
</g>
<g >
</g>
<g >
</g>
<g >
</g>
<g >
</g>
<g >
</g>
<g >
</g>
<g >
</g>
<g >
</g>
<g >
</g>
<g >
</g>
<g >
</g>
<g >
</g>
<g >
</g>
<g >
</g>
<g >
</g>
<g >
</g>
<g >
</g>
<g >
</g>
<g >
</g>
<g >
</g>
<g >
</g>
<g >
</g>
<g >
</g>
<g >
</g>
<g >
</g>
<g >
</g>
<g >
</g>
<g >
</g>
<g >
</g>
<g >
</g>
<g >
</g>
<g >
</g>
<g >
</g>
<g >
</g>
<g >
</g>
<g >
</g>
<g >
</g>
<g >
</g>
<g >
</g>
<g >
</g>
<g >
</g>
<g >
</g>
<g >
</g>
<g >
</g>
<g >
</g>
<g >
</g>
<g >
</g>
<g >
</g>
<g >
</g>
<g >
</g>
<g >
</g>
<g >
</g>
<g >
</g>
<g >
</g>
<g >
</g>
<g >
</g>
<g >
</g>
<g >
</g>
<g >
</g>
<g >
</g>
<g >
</g>
<g >
</g>
<g >
</g>
<g >
</g>
<g >
</g>
<g >
</g>
<g >
</g>
<g >
</g>
<g >
</g>
<g >
</g>
<g >
</g>
<g >
</g>
<g >
</g>
<g >
</g>
<g >
</g>
<g >
</g>
<g >
</g>
<g >
</g>
<g >
</g>
<g >
</g>
<g >
</g>
<g >
</g>
<g >
</g>
<g >
</g>
<g >
</g>
<g >
</g>
<g >
</g>
<g >
</g>
<g >
</g>
<g >
</g>
<g >
</g>
<g >
</g>
<g >
</g>
<g >
</g>
<g >
</g>
<g >
</g>
<g >
</g>
<g >
</g>
<g >
</g>
<g >
</g>
<g >
</g>
<g >
</g>
<g >
</g>
<g >
</g>
<g >
</g>
<g >
</g>
<g >
</g>
<g >
</g>
<g >
</g>
<g >
</g>
<g >
</g>
<g >
</g>
<g >
</g>
</g>
<g style="fill:#000000; fill-opacity:0.0; 
stroke:#000000; stroke-width:19.685; stroke-opacity:1; 
stroke-linecap:round; stroke-linejoin:round;">
</g>
<g style="fill:#C2C200; fill-opacity:0.0; 
stroke:#C2C200; stroke-width:19.685; stroke-opacity:1; 
stroke-linecap:round; stroke-linejoin:round;">
<path d="M10770 51523
L10770 12940
" />
<path d="M46597 12940
L81636 12940
" />
<path d="M10770 12940
L46597 12940
" />
<path d="M81636 51523
L10770 51523
" />
<path d="M81636 12940
L81636 51523
" />
<g >
</g>
<g >
</g>
<g >
</g>
<g >
</g>
<g >
</g>
<g >
</g>
<g >
</g>
<g >
</g>
<g >
</g>
<g >
</g>
<g >
</g>
<g >
</g>
<g >
</g>
<g >
</g>
<g >
</g>
<g >
</g>
<g >
</g>
<g >
</g>
<g >
</g>
<g >
</g>
<g >
</g>
<g >
</g>
<g >
</g>
<g >
</g>
<g >
</g>
<g >
</g>
<g >
</g>
<g >
</g>
<g >
</g>
<g >
</g>
<g >
</g>
<g >
</g>
<g >
</g>
<g >
</g>
<g >
</g>
<g >
</g>
<g >
</g>
<g >
</g>
<g >
</g>
<g >
</g>
<g >
</g>
<g >
</g>
<g >
</g>
<g >
</g>
<g >
</g>
<g >
</g>
<g >
</g>
<g >
</g>
<g >
</g>
<g >
</g>
<g >
</g>
<g >
</g>
<g >
</g>
<g >
</g>
<g >
</g>
<g >
</g>
<g >
</g>
<g >
</g>
<g >
</g>
<g >
</g>
<g >
</g>
<g >
</g>
<g >
</g>
<g >
</g>
<g >
</g>
<g >
</g>
<g >
</g>
<g >
</g>
<g >
</g>
<g >
</g>
<g >
</g>
<g >
</g>
<g >
</g>
<g >
</g>
<g >
</g>
<g >
</g>
<g >
</g>
<g >
</g>
<g >
</g>
<g >
</g>
<g >
</g>
<g >
</g>
<g >
</g>
<g >
</g>
<g >
</g>
<g >
</g>
<g >
</g>
<g >
</g>
<g >
</g>
<g >
</g>
<g >
</g>
<g >
</g>
<g >
</g>
<g >
</g>
<g >
</g>
<g >
</g>
<g >
</g>
<g >
</g>
<g >
</g>
<g >
</g>
<g >
</g>
<g >
</g>
<g >
</g>
<g >
</g>
<g >
</g>
<g >
</g>
<g >
</g>
<g >
</g>
<g >
</g>
<g >
</g>
<g >
</g>
<g >
</g>
<g >
</g>
<g >
</g>
<g >
</g>
<g >
</g>
<g >
</g>
<g >
</g>
<g >
</g>
<g >
</g>
<g >
</g>
<g >
</g>
<g >
</g>
<g >
</g>
<g >
</g>
<g >
</g>
<g >
</g>
</g> 
</svg>
