M48
; DRILL file {KiCad (5.1.5-0-10_14)} date Monday, 27 April 2020 at 06:18:18
; FORMAT={-:-/ absolute / inch / decimal}
; #@! TF.CreationDate,2020-04-27T06:18:18+02:00
; #@! TF.GenerationSoftware,Kicad,Pcbnew,(5.1.5-0-10_14)
; #@! TF.FileFunction,Plated,1,2,PTH
FMAT,2
INCH
T1C0.0236
T2C0.0276
T3C0.0315
T4C0.0394
T5C0.0433
T6C0.0472
T7C0.0984
%
G90
G05
T1
X1.8071Y-3.0541
X2.0405Y-3.8346
X2.1204Y-4.4634
X2.1752Y-2.0574
X2.2371Y-2.1241
X2.2582Y-4.6208
X2.3172Y-4.5815
X2.3271Y-2.1241
X2.3271Y-2.4641
X2.3871Y-2.4102
X2.4871Y-3.7741
X2.6271Y-2.8441
X2.6716Y-4.5618
X2.7897Y-2.1012
X2.8487Y-3.426
X3.0259Y-2.1602
X3.1884Y-4.0628
X3.3428Y-2.6937
X3.3771Y-4.1541
X3.3999Y-2.613
X3.5377Y-4.0096
X3.6357Y-4.1494
X3.7346Y-2.0224
X3.7346Y-2.2193
X4.0889Y-3.7744
X4.2217Y-3.7203
X4.2464Y-3.7744
X4.3645Y-4.1878
X4.3838Y-3.7734
X4.5416Y-4.3059
X4.6794Y-2.298
X4.6794Y-2.9673
X4.7188Y-1.4909
X4.7976Y-2.7891
X5.1322Y-4.2271
X5.644Y-4.5224
T2
X2.455Y-1.4697
X2.455Y-1.5197
X2.455Y-1.5697
X3.733Y-3.1641
X3.783Y-3.1641
X3.833Y-3.1641
T3
X1.772Y-1.8059
X1.772Y-1.9059
X1.772Y-2.0059
X1.772Y-2.1059
X2.072Y-1.8059
X2.072Y-1.9059
X2.072Y-2.0059
X2.072Y-2.1059
X1.6283Y-3.1838
X1.6283Y-3.5838
X4.7976Y-4.0437
X4.7976Y-4.4437
X5.0668Y-4.3649
X5.4668Y-4.3649
X6.6676Y-1.924
X6.8645Y-1.924
X3.2621Y-1.5697
X3.459Y-1.5697
X1.622Y-2.8689
X2.022Y-2.8689
X5.1322Y-1.609
X5.1322Y-2.009
X7.7503Y-4.2862
X7.9472Y-4.2862
X7.5476Y-3.5279
X7.5476Y-3.9279
X3.144Y-4.6342
X3.144Y-5.0342
X6.7464Y-4.3453
X6.9432Y-4.3453
X2.6062Y-1.4122
X3.0062Y-1.4122
X6.483Y-2.4897
X6.883Y-2.4897
X7.2188Y-3.2429
X7.2188Y-3.3216
X1.6283Y-4.4374
X1.6283Y-4.8374
X7.7365Y-1.3827
X7.9334Y-1.3827
X1.7165Y-2.2783
X2.1165Y-2.2783
X1.9235Y-3.5972
X1.9235Y-3.9972
X6.0357Y-4.6854
X6.0357Y-5.0854
X2.744Y-1.5697
X3.144Y-1.5697
X2.2582Y-1.3925
X2.2582Y-1.7925
X2.9371Y-2.9041
X3.3371Y-2.9041
X4.4629Y-1.5697
X4.6598Y-1.5697
X2.2582Y-1.8846
X2.2582Y-2.2846
X3.9842Y-3.1838
X4.3842Y-3.1838
X7.7365Y-3.3275
X7.9334Y-3.3275
X1.6283Y-3.9059
X1.6283Y-4.3059
X7.5476Y-2.5949
X7.5476Y-2.9949
X4.955Y-3.5775
X4.955Y-3.7744
X2.9371Y-3.0241
X3.3371Y-3.0241
X5.6239Y-2.6941
X6.0239Y-2.6941
X4.496Y-3.1838
X4.896Y-3.1838
X4.955Y-3.8862
X4.955Y-4.2862
X2.1889Y-3.5563
X2.1889Y-3.6563
X2.1889Y-4.2563
X2.1889Y-4.3563
X2.2889Y-3.5563
X2.2889Y-3.6563
X2.2889Y-4.2563
X2.2889Y-4.3563
X2.3889Y-3.5563
X2.3889Y-3.6563
X2.3889Y-4.2563
X2.3889Y-4.3563
X2.4889Y-3.5563
X2.4889Y-3.6563
X2.4889Y-4.2563
X2.4889Y-4.3563
X2.5889Y-3.5563
X2.5889Y-3.6563
X2.5889Y-4.2563
X2.5889Y-4.3563
X2.6889Y-3.5563
X2.6889Y-3.6563
X2.6889Y-4.2563
X2.6889Y-4.3563
X2.7889Y-3.5563
X2.7889Y-3.6563
X2.7889Y-4.2563
X2.7889Y-4.3563
X2.8889Y-3.5563
X2.8889Y-3.6563
X2.8889Y-4.2563
X2.8889Y-4.3563
X2.9889Y-3.5563
X2.9889Y-3.6563
X2.9889Y-4.2563
X2.9889Y-4.3563
X3.0889Y-3.5563
X3.0889Y-3.6563
X3.0889Y-4.2563
X3.0889Y-4.3563
X3.1889Y-3.5563
X3.1889Y-3.6563
X3.1889Y-4.2563
X3.1889Y-4.3563
X3.2889Y-3.5563
X3.2889Y-3.6563
X3.2889Y-4.2563
X3.2889Y-4.3563
X3.3889Y-3.5563
X3.3889Y-3.6563
X3.3889Y-4.2563
X3.3889Y-4.3563
X3.4889Y-3.5563
X3.4889Y-3.6563
X3.4889Y-4.2563
X3.4889Y-4.3563
X3.5889Y-3.5563
X3.5889Y-3.6563
X3.5889Y-4.2563
X3.5889Y-4.3563
X3.6889Y-3.5563
X3.6889Y-3.6563
X3.6889Y-4.2563
X3.6889Y-4.3563
X3.7889Y-3.5563
X3.7889Y-3.6563
X3.7889Y-4.2563
X3.7889Y-4.3563
X3.8889Y-3.5563
X3.8889Y-3.6563
X3.8889Y-4.2563
X3.8889Y-4.3563
X3.9889Y-3.5563
X3.9889Y-3.6563
X3.9889Y-4.2563
X3.9889Y-4.3563
X4.0889Y-3.5563
X4.0889Y-3.6563
X4.0889Y-4.2563
X4.0889Y-4.3563
X5.433Y-1.9811
X5.833Y-1.9811
X2.5338Y-4.6342
X2.5338Y-5.0342
X3.1834Y-3.2035
X3.5834Y-3.2035
X2.4271Y-1.8441
X2.4271Y-2.2441
X5.1893Y-1.3984
X5.5893Y-1.3984
X7.5476Y-1.6618
X7.5476Y-2.0618
X7.7365Y-2.3197
X7.9334Y-2.3197
X7.5476Y-4.461
X7.5476Y-4.861
X6.7857Y-3.7744
X6.9826Y-3.7744
X7.1007Y-2.1602
X7.1007Y-2.3571
X2.6322Y-1.6964
X2.6322Y-1.7964
X2.6322Y-2.3964
X2.6322Y-2.4964
X2.7322Y-1.6964
X2.7322Y-1.7964
X2.7322Y-2.3964
X2.7322Y-2.4964
X2.8322Y-1.6964
X2.8322Y-1.7964
X2.8322Y-2.3964
X2.8322Y-2.4964
X2.9322Y-1.6964
X2.9322Y-1.7964
X2.9322Y-2.3964
X2.9322Y-2.4964
X3.0322Y-1.6964
X3.0322Y-1.7964
X3.0322Y-2.3964
X3.0322Y-2.4964
X3.1322Y-1.6964
X3.1322Y-1.7964
X3.1322Y-2.3964
X3.1322Y-2.4964
X3.2322Y-1.6964
X3.2322Y-1.7964
X3.2322Y-2.3964
X3.2322Y-2.4964
X3.3322Y-1.6964
X3.3322Y-1.7964
X3.3322Y-2.3964
X3.3322Y-2.4964
X3.4322Y-1.6964
X3.4322Y-1.7964
X3.4322Y-2.3964
X3.4322Y-2.4964
X3.5322Y-1.6964
X3.5322Y-1.7964
X3.5322Y-2.3964
X3.5322Y-2.4964
X3.6322Y-1.6964
X3.6322Y-1.7964
X3.6322Y-2.3964
X3.6322Y-2.4964
X3.7322Y-1.6964
X3.7322Y-1.7964
X3.7322Y-2.3964
X3.7322Y-2.4964
X3.8322Y-1.6964
X3.8322Y-1.7964
X3.8322Y-2.3964
X3.8322Y-2.4964
X3.9322Y-1.6964
X3.9322Y-1.7964
X3.9322Y-2.3964
X3.9322Y-2.4964
X4.0322Y-1.6964
X4.0322Y-1.7964
X4.0322Y-2.3964
X4.0322Y-2.4964
X4.1322Y-1.6964
X4.1322Y-1.7964
X4.1322Y-2.3964
X4.1322Y-2.4964
X4.2322Y-1.6964
X4.2322Y-1.7964
X4.2322Y-2.3964
X4.2322Y-2.4964
X4.3322Y-1.6964
X4.3322Y-1.7964
X4.3322Y-2.3964
X4.3322Y-2.4964
X4.4322Y-1.6964
X4.4322Y-1.7964
X4.4322Y-2.3964
X4.4322Y-2.4964
X4.5322Y-1.6964
X4.5322Y-1.7964
X4.5322Y-2.3964
X4.5322Y-2.4964
X3.1243Y-4.5224
X3.3212Y-4.5224
X7.1204Y-1.4004
X7.1204Y-1.4791
X3.7542Y-4.6342
X3.7542Y-5.0342
X2.7897Y-3.3413
X2.9865Y-3.3413
X5.2897Y-1.609
X5.2897Y-2.009
X4.5023Y-4.1027
X4.5023Y-4.5027
X2.1204Y-2.672
X2.5204Y-2.672
X1.7661Y-3.4791
X1.7661Y-3.8791
X1.8251Y-1.6484
X2.022Y-1.6484
X1.5495Y-5.0145
X1.9495Y-5.0145
X5.5787Y-4.3649
X5.9787Y-4.3649
X3.5574Y-2.672
X3.7542Y-2.672
X1.6283Y-3.046
X2.0283Y-3.046
X6.4771Y-2.6393
X6.8771Y-2.6393
X4.3645Y-4.6405
X4.3645Y-5.0405
X5.4275Y-2.1405
X5.8275Y-2.1405
X4.6401Y-4.2075
X4.6401Y-4.6075
T4
X6.4239Y-1.3827
X6.4239Y-1.7764
X7.3369Y-3.525
X7.3369Y-3.9187
X5.9905Y-3.798
X6.3842Y-3.798
X2.396Y-3.1838
X2.496Y-3.1838
X2.596Y-3.1838
X1.6283Y-1.4319
X1.6283Y-1.5067
X5.3399Y-3.3728
X5.4777Y-3.5775
X5.1519Y-3.7941
X5.5456Y-3.7941
X5.7602Y-3.2094
X5.7602Y-3.6031
X6.5859Y-3.2094
X6.5859Y-3.6031
X1.4905Y-1.6571
X1.4905Y-1.7571
X1.4905Y-1.8571
X1.4905Y-1.9571
X1.4905Y-2.0571
X1.4905Y-2.1571
X1.4905Y-2.2571
X1.4905Y-2.3571
X2.7503Y-2.6917
X3.144Y-2.6917
X7.3251Y-2.5867
X7.3251Y-2.9804
X3.1401Y-1.4319
X3.2401Y-1.4319
X3.3401Y-1.4319
X3.4401Y-1.4319
X3.5401Y-1.4319
X3.6401Y-1.4319
X3.7401Y-1.4319
X3.8401Y-1.4319
X3.9401Y-1.4319
X4.0401Y-1.4319
X4.1401Y-1.4319
X4.2401Y-1.4319
X4.3401Y-1.4319
X4.4401Y-1.4319
X4.5401Y-1.4319
X4.6401Y-1.4319
X1.8645Y-2.4358
X2.2582Y-2.4358
X4.4235Y-2.6917
X4.5235Y-2.6917
X7.3251Y-1.6484
X7.3251Y-2.0421
X6.1657Y-3.3728
X6.3035Y-3.5775
X4.7818Y-1.6543
X4.7818Y-1.7543
X4.7818Y-1.8543
X4.7818Y-1.9543
X4.7976Y-3.5657
X4.7976Y-3.6657
X4.7976Y-3.7657
X4.7976Y-3.8657
X3.1794Y-3.361
X3.2794Y-3.361
X3.3794Y-3.361
X3.4794Y-3.361
X3.5794Y-3.361
X3.6794Y-3.361
X3.7794Y-3.361
X3.8794Y-3.361
X3.9794Y-3.361
X4.0794Y-3.361
X4.1794Y-3.361
X4.2794Y-3.361
X4.3794Y-3.361
X4.4794Y-3.361
X4.5794Y-3.361
X4.6794Y-3.361
X7.2976Y-4.4634
X7.2976Y-4.8571
X2.2976Y-3.3413
X2.3976Y-3.3413
X6.0141Y-1.5047
X6.1519Y-1.7094
X1.8842Y-4.1681
X1.8842Y-4.2681
X4.3251Y-4.0893
X4.3251Y-4.483
X6.7247Y-1.5047
X6.8625Y-1.7094
X6.8054Y-3.3728
X6.9432Y-3.5775
X5.9802Y-1.9941
X6.3739Y-1.9941
X4.0298Y-2.672
X4.1298Y-2.672
X4.2298Y-2.672
X5.135Y-4.7173
X5.235Y-4.7173
X5.335Y-4.7173
X5.435Y-4.7173
X5.535Y-4.7173
X5.635Y-4.7173
X5.735Y-4.7173
X5.835Y-4.7173
T5
X6.4692Y-2.8106
X6.8692Y-2.8106
X5.8239Y-1.3941
X5.8239Y-1.7941
X5.2759Y-4.1106
X5.3759Y-4.1106
X5.4759Y-4.1106
X6.7326Y-4.1106
X6.8326Y-4.1106
X6.9326Y-4.1106
X6.6716Y-2.2641
X6.7716Y-2.2641
X6.8716Y-2.2641
X6.1027Y-2.2602
X6.2027Y-2.2602
X6.3027Y-2.2602
X5.9718Y-3.2189
X5.9718Y-3.6189
X6.0633Y-4.1106
X6.1633Y-4.1106
X6.2633Y-4.1106
X5.146Y-3.2189
X5.146Y-3.6189
T6
X4.4221Y-3.9541
X4.5205Y-3.5486
X4.6221Y-3.9541
X4.8671Y-2.1841
X4.8671Y-2.3841
X5.2726Y-2.2825
T7
X1.2346Y-1.4516
X1.8842Y-1.4516
X1.8842Y-2.672
X4.8369Y-1.4516
X4.8369Y-2.672
X1.2346Y-4.9949
X1.9235Y-3.3807
X1.9235Y-4.6012
X4.8763Y-3.3807
X4.8763Y-4.6012
X7.4747Y-1.4516
X7.4747Y-4.9949
T2
G00X4.0357Y-4.8374
M15
G01X3.9846Y-4.8374
M16
G05
G00X4.0357Y-4.983
M15
G01X3.9846Y-4.983
M16
G05
G00X1.3192Y-3.2335
M15
G01X1.3704Y-3.2335
M16
G05
G00X1.3192Y-3.3792
M15
G01X1.3704Y-3.3792
M16
G05
G00X1.3783Y-4.6208
M15
G01X1.3271Y-4.6208
M16
G05
G00X1.3783Y-4.7665
M15
G01X1.3271Y-4.7665
M16
G05
G00X2.205Y-4.8374
M15
G01X2.1539Y-4.8374
M16
G05
G00X2.205Y-4.983
M15
G01X2.1539Y-4.983
M16
G05
G00X5.5495Y-2.3295
M15
G01X5.6007Y-2.3295
M16
G05
G00X5.5495Y-2.4752
M15
G01X5.6007Y-2.4752
M16
G05
G00X1.2651Y-2.8216
M15
G01X1.2651Y-2.8728
M16
G05
G00X1.3192Y-2.7724
M15
G01X1.3704Y-2.7724
M16
G05
G00X1.3192Y-2.9181
M15
G01X1.3704Y-2.9181
M16
G05
G00X1.4245Y-2.8197
M15
G01X1.4245Y-2.8708
M16
G05
G00X5.5033Y-1.6858
M15
G01X5.5033Y-1.6346
M16
G05
G00X5.6086Y-1.5874
M15
G01X5.5574Y-1.5874
M16
G05
G00X5.6086Y-1.733
M15
G01X5.5574Y-1.733
M16
G05
G00X5.6627Y-1.6838
M15
G01X5.6627Y-1.6327
M16
G05
G00X1.3783Y-3.6986
M15
G01X1.3271Y-3.6986
M16
G05
G00X1.3783Y-3.8443
M15
G01X1.3271Y-3.8443
M16
G05
G00X2.8153Y-4.8374
M15
G01X2.7641Y-4.8374
M16
G05
G00X2.8153Y-4.983
M15
G01X2.7641Y-4.983
M16
G05
G00X3.4255Y-4.8374
M15
G01X3.3743Y-4.8374
M16
G05
G00X3.4255Y-4.983
M15
G01X3.3743Y-4.983
M16
G05
G00X1.3783Y-4.1597
M15
G01X1.3271Y-4.1597
M16
G05
G00X1.3783Y-4.3054
M15
G01X1.3271Y-4.3054
M16
G05
G00X4.646Y-4.8374
M15
G01X4.5948Y-4.8374
M16
G05
G00X4.646Y-4.983
M15
G01X4.5948Y-4.983
M16
G05
T0
M30
