<?xml version="1.0" standalone="no"?>
<!DOCTYPE svg PUBLIC "-//W3C//DTD SVG 1.1//EN"
"http://www.w3.org/Graphics/SVG/1.1/DTD/svg11.dtd">
<svg width="107.8mm" height="187mm" viewBox="-133.9 181.5 107.8 187" xmlns="http://www.w3.org/2000/svg" version = "1.1">
<title>pcb.123dx</title>
<desc> made with 123D Design </desc>
<path d="M -101.989 249.361 L -101.989 249.365 L -100.002 249.365 L -99.9894 249.365 L -99.9894 248.67 L -99.9894 248.665 L -101.977 248.665 L -101.989 248.665 L -101.989 249.026 L -101.989 249.365 L -100.958 249.365 L -99.9894 249.365 L -99.9894 249.004 L -99.9894 248.665 L -101.021 248.665 L -101.989 248.665 z  M -38.6438 294.015 L -38.6394 294.015 L -38.6394 293.179 L -38.6394 292.015 L -38.932 292.015 L -39.3394 292.015 L -39.3394 294.003 L -39.3394 294.015 L -39.3394 292.851 L -39.3394 292.015 L -39.335 292.015 L -38.6394 292.015 L -38.6394 292.028 L -38.6394 294.015 L -39.0468 294.015 L -39.3394 294.015 z  M -34.6394 294.015 L -35.0468 294.015 L -35.3394 294.015 L -34.6438 294.015 L -34.6394 294.015 L -34.6394 292.028 L -34.6394 292.015 L -34.932 292.015 L -35.3394 292.015 L -35.3394 292.851 L -35.3394 294.015 L -35.3394 294.003 L -35.3394 292.015 L -35.335 292.015 L -34.6394 292.015 L -34.6394 293.179 z  M -94.0972 265.593 L -93.901 265.684 L -93.8997 265.684 L -93.6905 265.74 L -93.6892 265.741 L -93.4735 265.759 L -93.4721 265.759 L -93.2564 265.74 L -93.2551 265.74 L -93.0459 265.684 L -93.0447 265.683 L -92.8485 265.592 L -92.8473 265.591 L -92.67 265.467 L -92.669 265.466 L -92.5159 265.313 L -92.5151 265.312 L -92.3909 265.134 L -92.3904 265.133 L -92.2988 264.937 L -92.2985 264.936 L -92.2425 264.727 L -92.2423 264.725 L -92.2235 264.509 L -92.2236 264.508 L -92.2425 264.292 L -92.2428 264.291 L -92.2988 264.082 L -92.2994 264.081 L -92.3909 263.884 L -92.3917 263.883 L -92.5159 263.706 L -92.5169 263.705 L -92.67 263.552 L -92.6711 263.551 L -92.8485 263.427 L -92.8497 263.426 L -93.0459 263.335 L -93.0472 263.334 L -93.2564 263.278 L -93.2578 263.278 L -93.4735 263.259 L -93.4748 263.26 L -93.6905 263.278 L -93.6918 263.279 L -93.901 263.335 L -93.9022 263.335 L -94.0985 263.427 L -94.0996 263.428 L -94.2769 263.552 L -94.2779 263.553 L -94.431 263.706 L -94.4318 263.707 L -94.556 263.884 L -94.5566 263.886 L -94.6481 264.082 L -94.6484 264.083 L -94.7045 264.292 L -94.7046 264.294 L -94.7235 264.509 L -94.7233 264.511 L -94.7045 264.727 L -94.7041 264.728 L -94.6481 264.937 L -94.6475 264.938 L -94.556 265.134 L -94.5552 265.136 L -94.431 265.313 L -94.4301 265.314 L -94.2769 265.467 L -94.2758 265.468 L -94.0985 265.592 z  M -46.7233 264.511 L -46.7045 264.727 L -46.7041 264.728 L -46.6481 264.937 L -46.6475 264.938 L -46.556 265.134 L -46.5552 265.136 L -46.431 265.313 L -46.4301 265.314 L -46.2769 265.467 L -46.2758 265.468 L -46.0985 265.592 L -46.0972 265.593 L -45.901 265.684 L -45.8997 265.684 L -45.6905 265.74 L -45.6892 265.741 L -45.4735 265.759 L -45.4721 265.759 L -45.2564 265.74 L -45.2551 265.74 L -45.0459 265.684 L -45.0447 265.683 L -44.8485 265.592 L -44.8473 265.591 L -44.67 265.467 L -44.669 265.466 L -44.5159 265.313 L -44.5151 265.312 L -44.3909 265.134 L -44.3903 265.133 L -44.2988 264.937 L -44.2985 264.936 L -44.2424 264.727 L -44.2423 264.725 L -44.2235 264.509 L -44.2236 264.508 L -44.2424 264.292 L -44.2428 264.291 L -44.2988 264.082 L -44.2994 264.081 L -44.3909 263.884 L -44.3917 263.883 L -44.5159 263.706 L -44.5169 263.705 L -44.67 263.552 L -44.6711 263.551 L -44.8485 263.427 L -44.8497 263.426 L -45.0459 263.335 L -45.0472 263.334 L -45.2564 263.278 L -45.2578 263.278 L -45.4735 263.259 L -45.4748 263.26 L -45.6905 263.278 L -45.6918 263.279 L -45.901 263.335 L -45.9022 263.335 L -46.0985 263.427 L -46.0996 263.428 L -46.2769 263.552 L -46.2779 263.553 L -46.431 263.706 L -46.4318 263.707 L -46.556 263.884 L -46.5566 263.886 L -46.6481 264.082 L -46.6484 264.083 L -46.7045 264.292 L -46.7046 264.294 L -46.7235 264.509 z  M -98.932 250.015 L -99.3394 250.015 L -99.3394 250.851 L -99.3394 252.015 L -99.0468 252.015 L -98.6394 252.015 L -98.6394 251.179 L -98.6394 250.015 L -99.335 250.015 L -99.3394 250.015 L -99.3394 252.003 L -99.3394 252.015 L -98.6438 252.015 L -98.6394 252.015 L -98.6394 250.028 L -98.6394 250.015 z  M -34.932 274.015 L -35.3394 274.015 L -35.3394 274.851 L -35.3394 276.015 L -35.0468 276.015 L -34.6394 276.015 L -34.6394 275.179 L -34.6394 274.015 L -35.335 274.015 L -35.3394 274.015 L -35.3394 276.003 L -35.3394 276.015 L -34.6438 276.015 L -34.6394 276.015 L -34.6394 274.028 L -34.6394 274.015 z  M -85.9894 315.361 L -85.9894 314.665 L -85.9769 314.665 L -83.9894 314.665 L -83.9894 314.67 L -83.9894 315.365 L -84.0019 315.365 L -85.9894 315.365 L -85.9894 315.026 L -85.9894 314.665 L -85.0212 314.665 L -83.9894 314.665 L -83.9894 315.004 L -83.9894 315.365 L -84.9576 315.365 L -85.9894 315.365 z  M -102.932 250.015 L -103.339 250.015 L -103.339 250.851 L -103.339 252.015 L -103.047 252.015 L -102.639 252.015 L -102.639 251.179 L -102.639 250.015 L -103.335 250.015 L -103.339 250.015 L -103.339 252.003 L -103.339 252.015 L -102.644 252.015 L -102.639 252.015 L -102.639 250.028 L -102.639 250.015 z  M -120.989 253.361 L -120.989 252.665 L -120.977 252.665 L -118.989 252.665 L -118.989 252.67 L -118.989 253.365 L -119.002 253.365 L -120.989 253.365 L -120.989 253.026 L -120.989 252.665 L -120.021 252.665 L -118.989 252.665 L -118.989 253.004 L -118.989 253.365 L -119.958 253.365 L -120.989 253.365 z  M -38.932 274.015 L -39.3394 274.015 L -39.3394 274.851 L -39.3394 276.015 L -39.0468 276.015 L -38.6394 276.015 L -38.6394 275.179 L -38.6394 274.015 L -39.335 274.015 L -39.3394 274.015 L -39.3394 276.003 L -39.3394 276.015 L -38.6438 276.015 L -38.6394 276.015 L -38.6394 274.028 L -38.6394 274.015 z  M -117.932 250.015 L -118.339 250.015 L -118.339 250.851 L -118.339 252.015 L -118.047 252.015 L -117.639 252.015 L -117.639 251.179 L -117.639 250.015 L -118.335 250.015 L -118.339 250.015 L -118.339 252.003 L -118.339 252.015 L -117.644 252.015 L -117.639 252.015 L -117.639 250.028 L -117.639 250.015 z  M -66.9894 351.361 L -66.9894 350.665 L -66.9769 350.665 L -64.9894 350.665 L -64.9894 350.67 L -64.9894 351.365 L -65.0019 351.365 L -66.9894 351.365 L -66.9894 351.026 L -66.9894 350.665 L -66.0212 350.665 L -64.9894 350.665 L -64.9894 351.004 L -64.9894 351.365 L -65.9576 351.365 L -66.9894 351.365 z  M -85.9894 311.361 L -85.9894 310.665 L -85.9769 310.665 L -83.9894 310.665 L -83.9894 310.67 L -83.9894 311.365 L -84.0019 311.365 L -85.9894 311.365 L -85.9894 311.026 L -85.9894 310.665 L -85.0212 310.665 L -83.9894 310.665 L -83.9894 311.004 L -83.9894 311.365 L -84.9576 311.365 L -85.9894 311.365 z  M -37.9894 295.361 L -37.9894 294.665 L -37.9769 294.665 L -35.9894 294.665 L -35.9894 294.67 L -35.9894 295.365 L -36.0019 295.365 L -37.9894 295.365 L -37.9894 295.026 L -37.9894 294.665 L -37.0212 294.665 L -35.9894 294.665 L -35.9894 295.004 L -35.9894 295.365 L -36.9576 295.365 L -37.9894 295.365 z  M -37.9894 277.026 L -37.9894 277.365 L -36.9576 277.365 L -35.9894 277.365 L -35.9894 277.004 L -35.9894 276.665 L -37.0212 276.665 L -37.9894 276.665 L -37.9894 277.361 L -37.9894 277.365 L -36.0019 277.365 L -35.9894 277.365 L -35.9894 276.67 L -35.9894 276.665 L -37.9769 276.665 L -37.9894 276.665 z  M -120.989 249.361 L -120.989 248.665 L -120.977 248.665 L -118.989 248.665 L -118.989 248.67 L -118.989 249.365 L -119.002 249.365 L -120.989 249.365 L -120.989 249.026 L -120.989 248.665 L -120.021 248.665 L -118.989 248.665 L -118.989 249.004 L -118.989 249.365 L -119.958 249.365 L -120.989 249.365 z  M -121.932 250.015 L -122.339 250.015 L -122.339 250.851 L -122.339 252.015 L -122.047 252.015 L -121.639 252.015 L -121.639 251.179 L -121.639 250.015 L -122.335 250.015 L -122.339 250.015 L -122.339 252.003 L -122.339 252.015 L -121.644 252.015 L -121.639 252.015 L -121.639 250.028 L -121.639 250.015 z  M -37.9894 273.026 L -37.9894 273.365 L -36.9576 273.365 L -35.9894 273.365 L -35.9894 273.004 L -35.9894 272.665 L -37.0212 272.665 L -37.9894 272.665 L -37.9894 273.361 L -37.9894 273.365 L -36.0019 273.365 L -35.9894 273.365 L -35.9894 272.67 L -35.9894 272.665 L -37.9769 272.665 L -37.9894 272.665 z  M -66.9894 347.361 L -66.9894 346.665 L -66.9769 346.665 L -64.9894 346.665 L -64.9894 346.67 L -64.9894 347.365 L -65.0019 347.365 L -66.9894 347.365 L -66.9894 347.026 L -66.9894 346.665 L -66.0212 346.665 L -64.9894 346.665 L -64.9894 347.004 L -64.9894 347.365 L -65.9576 347.365 L -66.9894 347.365 z  M -83.335 312.015 L -82.6394 312.015 L -82.6394 312.028 L -82.6394 314.015 L -82.6438 314.015 L -83.3394 314.015 L -83.3394 314.003 L -83.3394 312.015 L -82.932 312.015 L -82.6394 312.015 L -82.6394 313.179 L -82.6394 314.015 L -83.0468 314.015 L -83.3394 314.015 L -83.3394 312.851 L -83.3394 312.015 z  M -37.9894 291.361 L -37.9894 290.665 L -37.9769 290.665 L -35.9894 290.665 L -35.9894 290.67 L -35.9894 291.365 L -36.0019 291.365 L -37.9894 291.365 L -37.9894 291.026 L -37.9894 290.665 L -37.0212 290.665 L -35.9894 290.665 L -35.9894 291.004 L -35.9894 291.365 L -36.9576 291.365 L -37.9894 291.365 z  M -88.335 352.015 L -87.6394 352.015 L -87.6394 352.028 L -87.6394 354.015 L -87.6438 354.015 L -88.3394 354.015 L -88.3394 354.003 L -88.3394 352.015 L -87.932 352.015 L -87.6394 352.015 L -87.6394 353.179 L -87.6394 354.015 L -88.0468 354.015 L -88.3394 354.015 L -88.3394 352.851 L -88.3394 352.015 z  M -64.335 348.015 L -63.6394 348.015 L -63.6394 348.028 L -63.6394 350.015 L -63.6438 350.015 L -64.3394 350.015 L -64.3394 350.003 L -64.3394 348.015 L -63.932 348.015 L -63.6394 348.015 L -63.6394 349.179 L -63.6394 350.015 L -64.0468 350.015 L -64.3394 350.015 L -64.3394 348.851 L -64.3394 348.015 z  M -87.335 312.015 L -86.6394 312.015 L -86.6394 312.028 L -86.6394 314.015 L -86.6438 314.015 L -87.3394 314.015 L -87.3394 314.003 L -87.3394 312.015 L -86.932 312.015 L -86.6394 312.015 L -86.6394 313.179 L -86.6394 314.015 L -87.0468 314.015 L -87.3394 314.015 L -87.3394 312.851 L -87.3394 312.015 z  M -90.9894 355.027 L -90.9894 355.365 L -89.9576 355.365 L -88.9894 355.365 L -88.9894 355.004 L -88.9894 354.665 L -90.0212 354.665 L -90.9894 354.665 L -90.9894 355.361 L -90.9894 355.365 L -89.0019 355.365 L -88.9894 355.365 L -88.9894 354.67 L -88.9894 354.665 L -90.9769 354.665 L -90.9894 354.665 z  M -92.335 352.015 L -91.6394 352.015 L -91.6394 352.028 L -91.6394 354.015 L -91.6438 354.015 L -92.3394 354.015 L -92.3394 354.003 L -92.3394 352.015 L -91.932 352.015 L -91.6394 352.015 L -91.6394 353.179 L -91.6394 354.015 L -92.0468 354.015 L -92.3394 354.015 L -92.3394 352.851 L -92.3394 352.015 z  M -34.932 328.015 L -35.3394 328.015 L -35.3394 328.851 L -35.3394 330.015 L -35.0468 330.015 L -34.6394 330.015 L -34.6394 329.179 L -34.6394 328.015 L -35.335 328.015 L -35.3394 328.015 L -35.3394 330.003 L -35.3394 330.015 L -34.6438 330.015 L -34.6394 330.015 L -34.6394 328.028 L -34.6394 328.015 z  M -68.335 348.015 L -67.6394 348.015 L -67.6394 348.028 L -67.6394 350.015 L -67.6438 350.015 L -68.3394 350.015 L -68.3394 350.003 L -68.3394 348.015 L -67.932 348.015 L -67.6394 348.015 L -67.6394 349.179 L -67.6394 350.015 L -68.0468 350.015 L -68.3394 350.015 L -68.3394 348.851 L -68.3394 348.015 z  M -94.6484 339.083 L -94.7045 339.292 L -94.7046 339.294 L -94.7235 339.509 L -94.7233 339.511 L -94.7045 339.726 L -94.7041 339.728 L -94.6481 339.937 L -94.6475 339.938 L -94.556 340.134 L -94.5552 340.136 L -94.431 340.313 L -94.4301 340.314 L -94.2769 340.467 L -94.2758 340.468 L -94.0985 340.592 L -94.0972 340.593 L -93.901 340.684 L -93.8997 340.684 L -93.6905 340.74 L -93.6892 340.741 L -93.4735 340.759 L -93.4721 340.759 L -93.2564 340.74 L -93.2551 340.74 L -93.0459 340.684 L -93.0447 340.683 L -92.8485 340.592 L -92.8473 340.591 L -92.67 340.467 L -92.669 340.466 L -92.5159 340.313 L -92.5151 340.312 L -92.3909 340.134 L -92.3904 340.133 L -92.2988 339.937 L -92.2985 339.936 L -92.2425 339.726 L -92.2423 339.725 L -92.2235 339.509 L -92.2236 339.508 L -92.2425 339.292 L -92.2428 339.291 L -92.2988 339.082 L -92.2994 339.081 L -92.3909 338.884 L -92.3917 338.883 L -92.5159 338.706 L -92.5169 338.705 L -92.67 338.552 L -92.6711 338.551 L -92.8485 338.427 L -92.8497 338.426 L -93.0459 338.335 L -93.0472 338.334 L -93.2564 338.278 L -93.2578 338.278 L -93.4735 338.259 L -93.4748 338.26 L -93.6905 338.278 L -93.6918 338.279 L -93.901 338.335 L -93.9022 338.335 L -94.0985 338.427 L -94.0996 338.428 L -94.2769 338.552 L -94.2779 338.553 L -94.431 338.706 L -94.4318 338.707 L -94.556 338.884 L -94.5566 338.886 L -94.6481 339.082 z  M -90.9894 351.026 L -90.9894 351.365 L -89.9576 351.365 L -88.9894 351.365 L -88.9894 351.004 L -88.9894 350.665 L -90.0212 350.665 L -90.9894 350.665 L -90.9894 351.361 L -90.9894 351.365 L -89.0019 351.365 L -88.9894 351.365 L -88.9894 350.67 L -88.9894 350.665 L -90.9769 350.665 L -90.9894 350.665 z  M -38.932 328.015 L -39.3394 328.015 L -39.3394 328.851 L -39.3394 330.015 L -39.0468 330.015 L -38.6394 330.015 L -38.6394 329.179 L -38.6394 328.015 L -39.335 328.015 L -39.3394 328.015 L -39.3394 330.003 L -39.3394 330.015 L -38.6438 330.015 L -38.6394 330.015 L -38.6394 328.028 L -38.6394 328.015 z  M -77.6484 264.083 L -77.7045 264.292 L -77.7046 264.294 L -77.7235 264.509 L -77.7233 264.511 L -77.7045 264.727 L -77.7041 264.728 L -77.6481 264.937 L -77.6475 264.938 L -77.556 265.134 L -77.5552 265.136 L -77.431 265.313 L -77.4301 265.314 L -77.2769 265.467 L -77.2758 265.468 L -77.0985 265.592 L -77.0972 265.593 L -76.901 265.684 L -76.8997 265.684 L -76.6905 265.74 L -76.6892 265.741 L -76.4735 265.759 L -76.4721 265.759 L -76.2564 265.74 L -76.2551 265.74 L -76.0459 265.684 L -76.0447 265.683 L -75.8485 265.592 L -75.8473 265.591 L -75.67 265.467 L -75.669 265.466 L -75.5159 265.313 L -75.5151 265.312 L -75.3909 265.134 L -75.3904 265.133 L -75.2988 264.937 L -75.2985 264.936 L -75.2425 264.727 L -75.2423 264.725 L -75.2235 264.509 L -75.2236 264.508 L -75.2425 264.292 L -75.2428 264.291 L -75.2988 264.082 L -75.2994 264.081 L -75.3909 263.884 L -75.3917 263.883 L -75.5159 263.706 L -75.5169 263.705 L -75.67 263.552 L -75.6711 263.551 L -75.8485 263.427 L -75.8497 263.426 L -76.0459 263.335 L -76.0472 263.334 L -76.2564 263.278 L -76.2578 263.278 L -76.4735 263.259 L -76.4748 263.26 L -76.6905 263.278 L -76.6918 263.279 L -76.901 263.335 L -76.9022 263.335 L -77.0985 263.427 L -77.0996 263.428 L -77.2769 263.552 L -77.2779 263.553 L -77.431 263.706 L -77.4318 263.707 L -77.556 263.884 L -77.5566 263.886 L -77.6481 264.082 z  M -37.9894 331.026 L -37.9894 331.365 L -36.9576 331.365 L -35.9894 331.365 L -35.9894 331.004 L -35.9894 330.665 L -37.0212 330.665 L -37.9894 330.665 L -37.9894 331.361 L -37.9894 331.365 L -36.0019 331.365 L -35.9894 331.365 L -35.9894 330.67 L -35.9894 330.665 L -37.9769 330.665 L -37.9894 330.665 z  M -35.335 310.015 L -34.6394 310.015 L -34.6394 310.028 L -34.6394 312.015 L -34.6438 312.015 L -35.3394 312.015 L -35.3394 312.003 L -35.3394 310.015 L -34.932 310.015 L -34.6394 310.015 L -34.6394 311.179 L -34.6394 312.015 L -35.0468 312.015 L -35.3394 312.015 L -35.3394 310.851 L -35.3394 310.015 z  M -37.9894 327.026 L -37.9894 327.365 L -36.9576 327.365 L -35.9894 327.365 L -35.9894 327.004 L -35.9894 326.665 L -37.0212 326.665 L -37.9894 326.665 L -37.9894 327.361 L -37.9894 327.365 L -36.0019 327.365 L -35.9894 327.365 L -35.9894 326.67 L -35.9894 326.665 L -37.9769 326.665 L -37.9894 326.665 z  M -77.6484 339.083 L -77.7045 339.292 L -77.7046 339.294 L -77.7235 339.509 L -77.7233 339.511 L -77.7045 339.726 L -77.7041 339.728 L -77.6481 339.937 L -77.6475 339.938 L -77.556 340.134 L -77.5552 340.136 L -77.431 340.313 L -77.4301 340.314 L -77.2769 340.467 L -77.2758 340.468 L -77.0985 340.592 L -77.0972 340.593 L -76.901 340.684 L -76.8997 340.684 L -76.6905 340.74 L -76.6892 340.741 L -76.4735 340.759 L -76.4721 340.759 L -76.2564 340.74 L -76.2551 340.74 L -76.0459 340.684 L -76.0447 340.683 L -75.8485 340.592 L -75.8473 340.591 L -75.67 340.467 L -75.669 340.466 L -75.5159 340.313 L -75.5151 340.312 L -75.3909 340.134 L -75.3904 340.133 L -75.2988 339.937 L -75.2985 339.936 L -75.2425 339.726 L -75.2423 339.725 L -75.2235 339.509 L -75.2236 339.508 L -75.2425 339.292 L -75.2428 339.291 L -75.2988 339.082 L -75.2994 339.081 L -75.3909 338.884 L -75.3917 338.883 L -75.5159 338.706 L -75.5169 338.705 L -75.67 338.552 L -75.6711 338.551 L -75.8485 338.427 L -75.8497 338.426 L -76.0459 338.335 L -76.0472 338.334 L -76.2564 338.278 L -76.2578 338.278 L -76.4735 338.259 L -76.4748 338.26 L -76.6905 338.278 L -76.6918 338.279 L -76.901 338.335 L -76.9022 338.335 L -77.0985 338.427 L -77.0996 338.428 L -77.2769 338.552 L -77.2779 338.553 L -77.431 338.706 L -77.4318 338.707 L -77.556 338.884 L -77.5566 338.886 L -77.6481 339.082 z  M -53.9894 351.026 L -53.9894 351.365 L -52.9576 351.365 L -51.9894 351.365 L -51.9894 351.004 L -51.9894 350.665 L -53.0212 350.665 L -53.9894 350.665 L -53.9894 351.361 L -53.9894 351.365 L -52.0019 351.365 L -51.9894 351.365 L -51.9894 350.67 L -51.9894 350.665 L -53.9769 350.665 L -53.9894 350.665 z  M -101.989 253.361 L -101.989 252.665 L -101.977 252.665 L -99.9894 252.665 L -99.9894 252.67 L -99.9894 253.365 L -100.002 253.365 L -101.989 253.365 L -101.989 253.026 L -101.989 252.665 L -101.021 252.665 L -99.9894 252.665 L -99.9894 253.004 L -99.9894 253.365 L -100.958 253.365 L -101.989 253.365 z  M -85.9894 333.361 L -85.9894 332.665 L -85.9769 332.665 L -83.9894 332.665 L -83.9894 332.67 L -83.9894 333.365 L -84.0019 333.365 L -85.9894 333.365 L -85.9894 333.027 L -85.9894 332.665 L -85.0212 332.665 L -83.9894 332.665 L -83.9894 333.004 L -83.9894 333.365 L -84.9576 333.365 L -85.9894 333.365 z  M -39.335 310.015 L -38.6394 310.015 L -38.6394 310.028 L -38.6394 312.015 L -38.6438 312.015 L -39.3394 312.015 L -39.3394 312.003 L -39.3394 310.015 L -38.932 310.015 L -38.6394 310.015 L -38.6394 311.179 L -38.6394 312.015 L -39.0468 312.015 L -39.3394 312.015 L -39.3394 310.851 L -39.3394 310.015 z  M -53.9894 347.026 L -53.9894 347.365 L -52.9576 347.365 L -51.9894 347.365 L -51.9894 347.004 L -51.9894 346.665 L -53.0212 346.665 L -53.9894 346.665 L -53.9894 347.361 L -53.9894 347.365 L -52.0019 347.365 L -51.9894 347.365 L -51.9894 346.67 L -51.9894 346.665 L -53.9769 346.665 L -53.9894 346.665 z  M -85.9894 329.361 L -85.9894 328.665 L -85.9769 328.665 L -83.9894 328.665 L -83.9894 328.67 L -83.9894 329.365 L -84.0019 329.365 L -85.9894 329.365 L -85.9894 329.026 L -85.9894 328.665 L -85.0212 328.665 L -83.9894 328.665 L -83.9894 329.004 L -83.9894 329.365 L -84.9576 329.365 L -85.9894 329.365 z  M -37.9894 313.361 L -37.9894 312.665 L -37.9769 312.665 L -35.9894 312.665 L -35.9894 312.67 L -35.9894 313.365 L -36.0019 313.365 L -37.9894 313.365 L -37.9894 313.026 L -37.9894 312.665 L -37.0212 312.665 L -35.9894 312.665 L -35.9894 313.004 L -35.9894 313.365 L -36.9576 313.365 L -37.9894 313.365 z  M -50.932 348.015 L -51.3394 348.015 L -51.3394 348.851 L -51.3394 350.015 L -51.0468 350.015 L -50.6394 350.015 L -50.6394 349.179 L -50.6394 348.015 L -51.335 348.015 L -51.3394 348.015 L -51.3394 350.003 L -51.3394 350.015 L -50.6438 350.015 L -50.6394 350.015 L -50.6394 348.028 L -50.6394 348.015 z  M -54.932 348.015 L -55.3394 348.015 L -55.3394 348.851 L -55.3394 350.015 L -55.0468 350.015 L -54.6394 350.015 L -54.6394 349.179 L -54.6394 348.015 L -55.335 348.015 L -55.3394 348.015 L -55.3394 350.003 L -55.3394 350.015 L -54.6438 350.015 L -54.6394 350.015 L -54.6394 348.028 L -54.6394 348.015 z  M -83.335 330.015 L -82.6394 330.015 L -82.6394 330.028 L -82.6394 332.015 L -82.6438 332.015 L -83.3394 332.015 L -83.3394 332.003 L -83.3394 330.015 L -82.932 330.015 L -82.6394 330.015 L -82.6394 331.179 L -82.6394 332.015 L -83.0468 332.015 L -83.3394 332.015 L -83.3394 330.851 L -83.3394 330.015 z  M -37.9894 309.361 L -37.9894 308.665 L -37.9769 308.665 L -35.9894 308.665 L -35.9894 308.67 L -35.9894 309.365 L -36.0019 309.365 L -37.9894 309.365 L -37.9894 309.026 L -37.9894 308.665 L -37.0212 308.665 L -35.9894 308.665 L -35.9894 309.004 L -35.9894 309.365 L -36.9576 309.365 L -37.9894 309.365 z  M -87.335 330.015 L -86.6394 330.015 L -86.6394 330.028 L -86.6394 332.015 L -86.6438 332.015 L -87.3394 332.015 L -87.3394 332.003 L -87.3394 330.015 L -86.932 330.015 L -86.6394 330.015 L -86.6394 331.179 L -86.6394 332.015 L -87.0468 332.015 L -87.3394 332.015 L -87.3394 330.851 L -87.3394 330.015 z  M -125.648 339.083 L -125.704 339.292 L -125.705 339.294 L -125.723 339.509 L -125.723 339.511 L -125.704 339.726 L -125.704 339.728 L -125.648 339.937 L -125.648 339.938 L -125.556 340.134 L -125.555 340.136 L -125.431 340.313 L -125.43 340.314 L -125.277 340.467 L -125.276 340.468 L -125.098 340.592 L -125.097 340.593 L -124.901 340.684 L -124.9 340.684 L -124.691 340.74 L -124.689 340.741 L -124.473 340.759 L -124.472 340.759 L -124.256 340.74 L -124.255 340.74 L -124.046 340.684 L -124.045 340.683 L -123.848 340.592 L -123.847 340.591 L -123.67 340.467 L -123.669 340.466 L -123.516 340.313 L -123.515 340.312 L -123.391 340.134 L -123.39 340.133 L -123.299 339.937 L -123.298 339.936 L -123.242 339.726 L -123.242 339.725 L -123.223 339.509 L -123.224 339.508 L -123.242 339.292 L -123.243 339.291 L -123.299 339.082 L -123.299 339.081 L -123.391 338.884 L -123.392 338.883 L -123.516 338.706 L -123.517 338.705 L -123.67 338.552 L -123.671 338.551 L -123.848 338.427 L -123.85 338.426 L -124.046 338.335 L -124.047 338.334 L -124.256 338.278 L -124.258 338.278 L -124.473 338.259 L -124.475 338.26 L -124.691 338.278 L -124.692 338.279 L -124.901 338.335 L -124.902 338.335 L -125.098 338.427 L -125.1 338.428 L -125.277 338.552 L -125.278 338.553 L -125.431 338.706 L -125.432 338.707 L -125.556 338.884 L -125.557 338.886 L -125.648 339.082 z  M -125.648 264.083 L -125.704 264.292 L -125.705 264.294 L -125.723 264.509 L -125.723 264.511 L -125.704 264.727 L -125.704 264.728 L -125.648 264.937 L -125.648 264.938 L -125.556 265.134 L -125.555 265.136 L -125.431 265.313 L -125.43 265.314 L -125.277 265.467 L -125.276 265.468 L -125.098 265.592 L -125.097 265.593 L -124.901 265.684 L -124.9 265.684 L -124.691 265.74 L -124.689 265.741 L -124.473 265.759 L -124.472 265.759 L -124.256 265.74 L -124.255 265.74 L -124.046 265.684 L -124.045 265.683 L -123.848 265.592 L -123.847 265.591 L -123.67 265.467 L -123.669 265.466 L -123.516 265.313 L -123.515 265.312 L -123.391 265.134 L -123.39 265.133 L -123.299 264.937 L -123.298 264.936 L -123.242 264.727 L -123.242 264.725 L -123.223 264.509 L -123.224 264.508 L -123.242 264.292 L -123.243 264.291 L -123.299 264.082 L -123.299 264.081 L -123.391 263.884 L -123.392 263.883 L -123.516 263.706 L -123.517 263.705 L -123.67 263.552 L -123.671 263.551 L -123.848 263.427 L -123.85 263.426 L -124.046 263.335 L -124.047 263.334 L -124.256 263.278 L -124.258 263.278 L -124.473 263.259 L -124.475 263.26 L -124.691 263.278 L -124.692 263.279 L -124.901 263.335 L -124.902 263.335 L -125.098 263.427 L -125.1 263.428 L -125.277 263.552 L -125.278 263.553 L -125.431 263.706 L -125.432 263.707 L -125.556 263.884 L -125.557 263.886 L -125.648 264.082 z  M -46.6484 339.083 L -46.7045 339.292 L -46.7046 339.294 L -46.7235 339.509 L -46.7233 339.511 L -46.7045 339.726 L -46.7041 339.728 L -46.6481 339.937 L -46.6475 339.938 L -46.556 340.134 L -46.5552 340.136 L -46.431 340.313 L -46.4301 340.314 L -46.2769 340.467 L -46.2758 340.468 L -46.0985 340.592 L -46.0972 340.593 L -45.901 340.684 L -45.8997 340.684 L -45.6905 340.74 L -45.6892 340.741 L -45.4735 340.759 L -45.4721 340.759 L -45.2564 340.74 L -45.2551 340.74 L -45.0459 340.684 L -45.0447 340.683 L -44.8485 340.592 L -44.8473 340.591 L -44.67 340.467 L -44.669 340.466 L -44.5159 340.313 L -44.5151 340.312 L -44.3909 340.134 L -44.3903 340.133 L -44.2988 339.937 L -44.2985 339.936 L -44.2424 339.726 L -44.2423 339.725 L -44.2235 339.509 L -44.2236 339.508 L -44.2424 339.292 L -44.2428 339.291 L -44.2988 339.082 L -44.2994 339.081 L -44.3909 338.884 L -44.3917 338.883 L -44.5159 338.706 L -44.5169 338.705 L -44.67 338.552 L -44.6711 338.551 L -44.8485 338.427 L -44.8497 338.426 L -45.0459 338.335 L -45.0472 338.334 L -45.2564 338.278 L -45.2578 338.278 L -45.4735 338.259 L -45.4748 338.26 L -45.6905 338.278 L -45.6918 338.279 L -45.901 338.335 L -45.9022 338.335 L -46.0985 338.427 L -46.0996 338.428 L -46.2769 338.552 L -46.2779 338.553 L -46.431 338.706 L -46.4318 338.707 L -46.556 338.884 L -46.5566 338.886 L -46.6481 339.082 z  M -57.7705 268.758 L -78.8673 268.758 L -79 268.758 L -79 309.965 L -79 310.224 L -78.8673 310.224 L -57.7705 310.224 L -57.7705 269.017 z  M -128.387 360 L -31 360 L -31 358.937 L -31 190 L -31.6125 190 L -129 190 L -129 190.492 L -129 268.758 L -128.855 268.758 L -105.77 268.758 L -105.77 269.017 L -105.77 310.224 L -128.855 310.224 L -129 310.224 L -129 310.535 L -129 360 z  " fill= "none" stroke="rgb(0,0,255)" stroke-width="0.05mm" />
</svg>
