%FSLAX45Y45*%
G04 Gerber Fmt 4.5, Leading zero omitted, Abs format (unit mm)*
G04 Created by KiCad (PCBNEW (5.1.5-0-10_14)) date 2020-05-11 17:30:37*
%MOMM*%
%LPD*%
G04 APERTURE LIST*
%TA.AperFunction,Profile*%
%ADD10C,0.050000*%
%TD*%
%ADD11C,0.200000*%
%ADD12C,0.300000*%
G04 APERTURE END LIST*
D10*
X2735785Y-13086938D02*
X2735785Y-3286938D01*
X11835785Y-3286938D02*
X16535785Y-3286938D01*
X2735785Y-3286938D02*
X11835785Y-3286938D01*
X16535785Y-13086938D02*
X2735785Y-13086938D01*
X16535785Y-3286938D02*
X16535785Y-13086938D01*
D11*
X3270785Y-7911938D02*
X3330785Y-7971938D01*
X3330785Y-7911938D02*
X3270785Y-7971938D01*
X3270785Y-8821938D02*
X3330785Y-8881938D01*
X3330785Y-8821938D02*
X3270785Y-8881938D01*
X3270785Y-9956938D02*
X3330785Y-10016938D01*
X3330785Y-9956938D02*
X3270785Y-10016938D01*
X3270785Y-11136938D02*
X3330785Y-11196938D01*
X3330785Y-11136938D02*
X3270785Y-11196938D01*
X3300785Y-12331938D02*
X3360785Y-12391938D01*
X3360785Y-12331938D02*
X3300785Y-12391938D01*
X3430785Y-7691938D02*
X3490785Y-7751938D01*
X3490785Y-7691938D02*
X3430785Y-7751938D01*
X3470785Y-8966938D02*
X3530785Y-9026938D01*
X3530785Y-8966938D02*
X3470785Y-9026938D01*
X3560785Y-10106939D02*
X3620785Y-10166939D01*
X3620785Y-10106939D02*
X3560785Y-10166939D01*
X4045785Y-11911938D02*
X4105785Y-11971938D01*
X4105785Y-11911938D02*
X4045785Y-11971938D01*
X4255785Y-11391938D02*
X4315785Y-11451938D01*
X4315785Y-11391938D02*
X4255785Y-11451938D01*
X4665785Y-10476938D02*
X4725785Y-10536938D01*
X4725785Y-10476938D02*
X4665785Y-10536938D01*
X4822621Y-6031126D02*
X4882621Y-6091126D01*
X4882621Y-6031126D02*
X4822621Y-6091126D01*
X4824653Y-5480454D02*
X4884653Y-5540454D01*
X4884653Y-5480454D02*
X4824653Y-5540454D01*
X4920786Y-12496938D02*
X4980786Y-12556938D01*
X4980786Y-12496938D02*
X4920786Y-12556938D01*
X5165785Y-5906938D02*
X5225785Y-5966938D01*
X5225785Y-5906938D02*
X5165785Y-5966938D01*
X5232577Y-6463434D02*
X5292577Y-6523434D01*
X5292577Y-6463434D02*
X5232577Y-6523434D01*
X5465785Y-6786938D02*
X5525785Y-6846938D01*
X5525785Y-6786938D02*
X5465785Y-6846938D01*
X5475785Y-10476938D02*
X5535785Y-10536938D01*
X5535785Y-10476938D02*
X5475785Y-10536938D01*
X5905785Y-8976938D02*
X5965785Y-9036938D01*
X5965785Y-8976938D02*
X5905785Y-9036938D01*
X5940785Y-11751938D02*
X6000785Y-11811938D01*
X6000785Y-11751938D02*
X5940785Y-11811938D01*
X6034709Y-6448702D02*
X6094709Y-6508702D01*
X6094709Y-6448702D02*
X6034709Y-6508702D01*
X6105785Y-10476938D02*
X6165785Y-10536938D01*
X6165785Y-10476938D02*
X6105785Y-10536938D01*
X6240785Y-11651938D02*
X6300785Y-11711938D01*
X6300785Y-11651938D02*
X6240785Y-11711938D01*
X6500785Y-12491938D02*
X6560785Y-12551938D01*
X6560785Y-12491938D02*
X6500785Y-12551938D01*
X6925785Y-10476938D02*
X6985785Y-10536938D01*
X6985785Y-10476938D02*
X6925785Y-10536938D01*
X7100785Y-7051938D02*
X7160785Y-7111938D01*
X7160785Y-7051938D02*
X7100785Y-7111938D01*
X7369733Y-6642758D02*
X7429733Y-6702758D01*
X7429733Y-6642758D02*
X7369733Y-6702758D01*
X7555785Y-10476938D02*
X7615785Y-10536938D01*
X7615785Y-10476938D02*
X7555785Y-10536938D01*
X7621193Y-5108090D02*
X7681193Y-5168090D01*
X7681193Y-5108090D02*
X7621193Y-5168090D01*
X7625785Y-11669439D02*
X7685785Y-11729439D01*
X7685785Y-11669439D02*
X7625785Y-11729439D01*
X7730921Y-6365390D02*
X7790921Y-6425390D01*
X7790921Y-6365390D02*
X7730921Y-6425390D01*
X7735493Y-5198134D02*
X7795493Y-5258134D01*
X7795493Y-5198134D02*
X7735493Y-5258134D01*
X7735785Y-5546938D02*
X7795785Y-5606938D01*
X7795785Y-5546938D02*
X7735785Y-5606938D01*
X7857921Y-4199278D02*
X7917921Y-4259278D01*
X7917921Y-4199278D02*
X7857921Y-4259278D01*
X7870785Y-7981938D02*
X7930785Y-8041938D01*
X7930785Y-7981938D02*
X7870785Y-8041938D01*
X7872145Y-5834530D02*
X7932145Y-5894530D01*
X7932145Y-5834530D02*
X7872145Y-5894530D01*
X7885785Y-8621938D02*
X7945785Y-8681938D01*
X7945785Y-8621938D02*
X7885785Y-8681938D01*
X7915785Y-6636938D02*
X7975785Y-6696938D01*
X7975785Y-6636938D02*
X7915785Y-6696938D01*
X8080785Y-12496938D02*
X8140785Y-12556938D01*
X8140785Y-12496938D02*
X8080785Y-12556938D01*
X8174405Y-5667906D02*
X8234405Y-5727906D01*
X8234405Y-5667906D02*
X8174405Y-5727906D01*
X8375785Y-10476938D02*
X8435785Y-10536938D01*
X8435785Y-10476938D02*
X8375785Y-10536938D01*
X8440785Y-8341938D02*
X8500785Y-8401938D01*
X8500785Y-8341938D02*
X8440785Y-8401938D01*
X8632621Y-4984646D02*
X8692621Y-5044646D01*
X8692621Y-4984646D02*
X8632621Y-5044646D01*
X8639967Y-5313572D02*
X8699967Y-5373572D01*
X8699967Y-5313572D02*
X8639967Y-5373572D01*
X8647353Y-5183782D02*
X8707353Y-5243782D01*
X8707353Y-5183782D02*
X8647353Y-5243782D01*
X8705785Y-6626938D02*
X8765785Y-6686938D01*
X8765785Y-6626938D02*
X8705785Y-6686938D01*
X8745785Y-11636938D02*
X8805785Y-11696938D01*
X8805785Y-11636938D02*
X8745785Y-11696938D01*
X8833284Y-11536939D02*
X8893284Y-11596939D01*
X8893284Y-11536939D02*
X8833284Y-11596939D01*
X8870785Y-6186938D02*
X8930785Y-6246938D01*
X8930785Y-6186938D02*
X8870785Y-6246938D01*
X8900785Y-9971938D02*
X8960785Y-10031938D01*
X8960785Y-9971938D02*
X8900785Y-10031938D01*
X8995785Y-8236938D02*
X9055785Y-8296938D01*
X9055785Y-8236938D02*
X8995785Y-8296938D01*
X9085785Y-10136938D02*
X9145785Y-10196938D01*
X9145785Y-10136938D02*
X9085785Y-10196938D01*
X9090785Y-9291938D02*
X9150785Y-9351938D01*
X9150785Y-9291938D02*
X9090785Y-9351938D01*
X9120785Y-8151938D02*
X9180785Y-8211938D01*
X9180785Y-8151938D02*
X9120785Y-8211938D01*
X9140785Y-6231938D02*
X9200785Y-6291938D01*
X9200785Y-6231938D02*
X9140785Y-6291938D01*
X9160785Y-6081938D02*
X9220785Y-6141938D01*
X9220785Y-6081938D02*
X9160785Y-6141938D01*
X9175785Y-5706938D02*
X9235785Y-5766938D01*
X9235785Y-5706938D02*
X9175785Y-5766938D01*
X9175785Y-10021938D02*
X9235785Y-10081938D01*
X9235785Y-10021938D02*
X9175785Y-10081938D01*
X9207949Y-5269126D02*
X9267949Y-5329126D01*
X9267949Y-5269126D02*
X9207949Y-5329126D01*
X9239086Y-9856937D02*
X9299086Y-9916937D01*
X9299086Y-9856937D02*
X9239086Y-9916937D01*
X9265785Y-10211939D02*
X9325785Y-10271939D01*
X9325785Y-10211939D02*
X9265785Y-10271939D01*
X9305785Y-10406938D02*
X9365785Y-10466938D01*
X9365785Y-10406938D02*
X9305785Y-10466938D01*
X9315785Y-6006938D02*
X9375785Y-6066938D01*
X9375785Y-6006938D02*
X9315785Y-6066938D01*
X9341906Y-9795065D02*
X9401906Y-9855065D01*
X9401906Y-9795065D02*
X9341906Y-9855065D01*
X9380785Y-5876938D02*
X9440785Y-5936938D01*
X9440785Y-5876938D02*
X9380785Y-5936938D01*
X9406962Y-10208932D02*
X9466962Y-10268932D01*
X9466962Y-10208932D02*
X9406962Y-10268932D01*
X9415785Y-6081939D02*
X9475785Y-6141939D01*
X9475785Y-6081939D02*
X9415785Y-6141939D01*
X9435785Y-8071938D02*
X9495785Y-8131938D01*
X9495785Y-8071938D02*
X9435785Y-8131938D01*
X9470785Y-9771938D02*
X9530785Y-9831938D01*
X9530785Y-9771938D02*
X9470785Y-9831938D01*
X9480785Y-5956938D02*
X9540785Y-6016938D01*
X9540785Y-5956938D02*
X9480785Y-6016938D01*
X9513285Y-11711938D02*
X9573285Y-11771938D01*
X9573285Y-11711938D02*
X9513285Y-11771938D01*
X9530785Y-10256938D02*
X9590785Y-10316938D01*
X9590785Y-10256938D02*
X9530785Y-10316938D01*
X9545785Y-5496938D02*
X9605785Y-5556938D01*
X9605785Y-5496938D02*
X9545785Y-5556938D01*
X9565785Y-9571938D02*
X9625785Y-9631938D01*
X9625785Y-9571938D02*
X9565785Y-9631938D01*
X9585785Y-8026938D02*
X9645785Y-8086938D01*
X9645785Y-8026938D02*
X9585785Y-8086938D01*
X9620785Y-9826938D02*
X9680785Y-9886938D01*
X9680785Y-9826938D02*
X9620785Y-9886938D01*
X9635785Y-12486938D02*
X9695785Y-12546938D01*
X9695785Y-12486938D02*
X9635785Y-12546938D01*
X9705785Y-6016938D02*
X9765785Y-6076938D01*
X9765785Y-6016938D02*
X9705785Y-6076938D01*
X9725785Y-9591938D02*
X9785785Y-9651938D01*
X9785785Y-9591938D02*
X9725785Y-9651938D01*
X9770785Y-9441938D02*
X9830785Y-9501938D01*
X9830785Y-9441938D02*
X9770785Y-9501938D01*
X9889246Y-9471202D02*
X9949246Y-9531202D01*
X9949246Y-9471202D02*
X9889246Y-9531202D01*
X9930785Y-10574653D02*
X9990785Y-10634653D01*
X9990785Y-10574653D02*
X9930785Y-10634653D01*
X10000785Y-9401938D02*
X10060785Y-9461938D01*
X10060785Y-9401938D02*
X10000785Y-9461938D01*
X10035785Y-6016938D02*
X10095785Y-6076938D01*
X10095785Y-6016938D02*
X10035785Y-6076938D01*
X10050785Y-10516938D02*
X10110785Y-10576938D01*
X10110785Y-10516938D02*
X10050785Y-10576938D01*
X10100785Y-9471938D02*
X10160785Y-9531938D01*
X10160785Y-9471938D02*
X10100785Y-9531938D01*
X10105785Y-6516938D02*
X10165785Y-6576938D01*
X10165785Y-6516938D02*
X10105785Y-6576938D01*
X10115785Y-4906939D02*
X10175785Y-4966939D01*
X10175785Y-4906939D02*
X10115785Y-4966939D01*
X10123176Y-6383204D02*
X10183176Y-6443204D01*
X10183176Y-6383204D02*
X10123176Y-6443204D01*
X10175785Y-5076938D02*
X10235785Y-5136938D01*
X10235785Y-5076938D02*
X10175785Y-5136938D01*
X10217086Y-10729725D02*
X10277086Y-10789725D01*
X10277086Y-10729725D02*
X10217086Y-10789725D01*
X10312818Y-10657366D02*
X10372818Y-10717366D01*
X10372818Y-10657366D02*
X10312818Y-10717366D01*
X10325785Y-5321938D02*
X10385785Y-5381938D01*
X10385785Y-5321938D02*
X10325785Y-5381938D01*
X10350785Y-10526938D02*
X10410785Y-10586938D01*
X10410785Y-10526938D02*
X10350785Y-10586938D01*
X10365785Y-5661938D02*
X10425785Y-5721938D01*
X10425785Y-5661938D02*
X10365785Y-5721938D01*
X10405785Y-9506938D02*
X10465785Y-9566938D01*
X10465785Y-9506938D02*
X10405785Y-9566938D01*
X10413206Y-9842952D02*
X10473206Y-9902952D01*
X10473206Y-9842952D02*
X10413206Y-9902952D01*
X10480785Y-5476938D02*
X10540785Y-5536938D01*
X10540785Y-5476938D02*
X10480785Y-5536938D01*
X10520785Y-10346938D02*
X10580785Y-10406938D01*
X10580785Y-10346938D02*
X10520785Y-10406938D01*
X10529181Y-10633422D02*
X10589181Y-10693422D01*
X10589181Y-10633422D02*
X10529181Y-10693422D01*
X10530785Y-6604439D02*
X10590785Y-6664439D01*
X10590785Y-6604439D02*
X10530785Y-6664439D01*
X10535785Y-9881938D02*
X10595785Y-9941938D01*
X10595785Y-9881938D02*
X10535785Y-9941938D01*
X10554385Y-5837578D02*
X10614385Y-5897578D01*
X10614385Y-5837578D02*
X10554385Y-5897578D01*
X10554385Y-6147966D02*
X10614385Y-6207966D01*
X10614385Y-6147966D02*
X10554385Y-6207966D01*
X10585786Y-10481938D02*
X10645786Y-10541938D01*
X10645786Y-10481938D02*
X10585786Y-10541938D01*
X10586821Y-9011094D02*
X10646821Y-9071094D01*
X10646821Y-9011094D02*
X10586821Y-9071094D01*
X10615785Y-8821938D02*
X10675785Y-8881938D01*
X10675785Y-8821938D02*
X10615785Y-8881938D01*
X10690785Y-9911938D02*
X10750785Y-9971938D01*
X10750785Y-9911938D02*
X10690785Y-9971938D01*
X10705785Y-6631938D02*
X10765785Y-6691938D01*
X10765785Y-6631938D02*
X10705785Y-6691938D01*
X10710785Y-8926938D02*
X10770785Y-8986938D01*
X10770785Y-8926938D02*
X10710785Y-8986938D01*
X10710785Y-10201938D02*
X10770785Y-10261938D01*
X10770785Y-10201938D02*
X10710785Y-10261938D01*
X10717163Y-10056399D02*
X10777163Y-10116399D01*
X10777163Y-10056399D02*
X10717163Y-10116399D01*
X10720785Y-10591938D02*
X10780785Y-10651938D01*
X10780785Y-10591938D02*
X10720785Y-10651938D01*
X10770785Y-10476938D02*
X10830785Y-10536938D01*
X10830785Y-10476938D02*
X10770785Y-10536938D01*
X10780785Y-10906938D02*
X10840785Y-10966938D01*
X10840785Y-10906938D02*
X10780785Y-10966938D01*
X10940785Y-9096938D02*
X11000785Y-9156938D01*
X11000785Y-9096938D02*
X10940785Y-9156938D01*
X10950785Y-10896938D02*
X11010785Y-10956938D01*
X11010785Y-10896938D02*
X10950785Y-10956938D01*
X11008515Y-7153187D02*
X11068515Y-7213187D01*
X11068515Y-7153187D02*
X11008515Y-7213187D01*
X11010785Y-5926938D02*
X11070785Y-5986938D01*
X11070785Y-5926938D02*
X11010785Y-5986938D01*
X11110785Y-7021938D02*
X11170785Y-7081938D01*
X11170785Y-7021938D02*
X11110785Y-7081938D01*
X11110785Y-8866938D02*
X11170785Y-8926938D01*
X11170785Y-8866938D02*
X11110785Y-8926938D01*
X11150785Y-10086938D02*
X11210785Y-10146938D01*
X11210785Y-10086938D02*
X11150785Y-10146938D01*
X11200785Y-12496938D02*
X11260785Y-12556938D01*
X11260785Y-12496938D02*
X11200785Y-12556938D01*
X11220785Y-8756938D02*
X11280785Y-8816938D01*
X11280785Y-8756938D02*
X11220785Y-8816938D01*
X11234870Y-6267854D02*
X11294870Y-6327854D01*
X11294870Y-6267854D02*
X11234870Y-6327854D01*
X11520785Y-9211938D02*
X11580785Y-9271938D01*
X11580785Y-9211938D02*
X11520785Y-9271938D01*
X11595785Y-11276938D02*
X11655785Y-11336938D01*
X11655785Y-11276938D02*
X11595785Y-11336938D01*
X11750785Y-11306938D02*
X11810785Y-11366938D01*
X11810785Y-11306938D02*
X11750785Y-11366938D01*
X11800785Y-4951938D02*
X11860785Y-5011938D01*
X11860785Y-4951938D02*
X11800785Y-5011938D01*
X11840785Y-9021938D02*
X11900785Y-9081938D01*
X11900785Y-9021938D02*
X11840785Y-9081938D01*
X11880785Y-7816938D02*
X11940785Y-7876938D01*
X11940785Y-7816938D02*
X11880785Y-7876938D01*
X12155785Y-4136938D02*
X12215785Y-4196938D01*
X12215785Y-4136938D02*
X12155785Y-4196938D01*
X12310785Y-10461938D02*
X12370785Y-10521938D01*
X12370785Y-10461938D02*
X12310785Y-10521938D01*
X12476337Y-10569203D02*
X12536337Y-10629203D01*
X12536337Y-10569203D02*
X12476337Y-10629203D01*
X12490785Y-4951939D02*
X12550785Y-5011939D01*
X12550785Y-4951939D02*
X12490785Y-5011939D01*
X12722820Y-5929904D02*
X12782820Y-5989904D01*
X12782820Y-5929904D02*
X12722820Y-5989904D01*
X13010565Y-6209434D02*
X13070565Y-6269434D01*
X13070565Y-6209434D02*
X13010565Y-6269434D01*
X13024786Y-10380602D02*
X13084786Y-10440602D01*
X13084786Y-10380602D02*
X13024786Y-10440602D01*
X13040785Y-10546939D02*
X13100785Y-10606939D01*
X13100785Y-10546939D02*
X13040785Y-10606939D01*
X13256437Y-6180986D02*
X13316437Y-6240986D01*
X13316437Y-6180986D02*
X13256437Y-6240986D01*
X13377849Y-4782462D02*
X13437849Y-4842462D01*
X13437849Y-4782462D02*
X13377849Y-4842462D01*
X13487577Y-5865518D02*
X13547577Y-5925518D01*
X13547577Y-5865518D02*
X13487577Y-5925518D01*
X13660785Y-11566938D02*
X13720785Y-11626938D01*
X13720785Y-11566938D02*
X13660785Y-11626938D01*
X14034185Y-11178538D02*
X14094185Y-11238538D01*
X14094185Y-11178538D02*
X14034185Y-11238538D01*
X14245005Y-4710834D02*
X14305005Y-4770834D01*
X14305005Y-4710834D02*
X14245005Y-4770834D01*
X14290785Y-10621938D02*
X14350785Y-10681938D01*
X14350785Y-10621938D02*
X14290785Y-10681938D01*
X14685785Y-8921938D02*
X14745785Y-8981938D01*
X14745785Y-8921938D02*
X14685785Y-8981938D01*
X14957221Y-4710834D02*
X15017221Y-4770834D01*
X15017221Y-4710834D02*
X14957221Y-4770834D01*
X6306385Y-3794938D02*
G75*
G03X6306385Y-3794938I-40000J0D01*
G01*
X6506385Y-3794938D02*
G75*
G03X6506385Y-3794938I-40000J0D01*
G01*
X4835785Y-7726938D02*
G75*
G03X4835785Y-7726938I-40000J0D01*
G01*
X4835785Y-7926938D02*
G75*
G03X4835785Y-7926938I-40000J0D01*
G01*
X14055041Y-3548770D02*
X14055041Y-3638770D01*
X14010041Y-3593770D02*
X14100041Y-3593770D01*
X14309041Y-3548770D02*
X14309041Y-3638770D01*
X14264041Y-3593770D02*
X14354041Y-3593770D01*
X3295785Y-6561938D02*
X3295785Y-6651938D01*
X3250785Y-6606938D02*
X3340785Y-6606938D01*
X3549785Y-6561938D02*
X3549785Y-6651938D01*
X3504785Y-6606938D02*
X3594785Y-6606938D01*
X4892053Y-4793654D02*
X4892053Y-4722943D01*
X4821342Y-4722943D01*
X4821342Y-4793654D01*
X4892053Y-4793654D01*
X5242053Y-5313654D02*
X5242053Y-5242943D01*
X5171342Y-5242943D01*
X5171342Y-5313654D01*
X5242053Y-5313654D01*
X8762141Y-9697294D02*
X8762141Y-9626583D01*
X8691430Y-9626583D01*
X8691430Y-9697294D01*
X8762141Y-9697294D01*
X9016141Y-9697294D02*
X9016141Y-9626583D01*
X8945430Y-9626583D01*
X8945430Y-9697294D01*
X9016141Y-9697294D01*
X11915141Y-9596094D02*
X11915141Y-9525383D01*
X11844430Y-9525383D01*
X11844430Y-9596094D01*
X11915141Y-9596094D01*
X11915141Y-9850094D02*
X11915141Y-9779383D01*
X11844430Y-9779383D01*
X11844430Y-9850094D01*
X11915141Y-9850094D01*
X11915141Y-10104094D02*
X11915141Y-10033383D01*
X11844430Y-10033383D01*
X11844430Y-10104094D01*
X11915141Y-10104094D01*
X11915141Y-10358094D02*
X11915141Y-10287383D01*
X11844430Y-10287383D01*
X11844430Y-10358094D01*
X11915141Y-10358094D01*
X3914141Y-4414494D02*
X3914141Y-4343783D01*
X3843430Y-4343783D01*
X3843430Y-4414494D01*
X3914141Y-4414494D01*
X3914141Y-4668494D02*
X3914141Y-4597783D01*
X3843430Y-4597783D01*
X3843430Y-4668494D01*
X3914141Y-4668494D01*
X3914141Y-4922494D02*
X3914141Y-4851783D01*
X3843430Y-4851783D01*
X3843430Y-4922494D01*
X3914141Y-4922494D01*
X3914141Y-5176494D02*
X3914141Y-5105783D01*
X3843430Y-5105783D01*
X3843430Y-5176494D01*
X3914141Y-5176494D01*
X3914141Y-5430494D02*
X3914141Y-5359783D01*
X3843430Y-5359783D01*
X3843430Y-5430494D01*
X3914141Y-5430494D01*
X3914141Y-5684494D02*
X3914141Y-5613783D01*
X3843430Y-5613783D01*
X3843430Y-5684494D01*
X3914141Y-5684494D01*
X3914141Y-5938494D02*
X3914141Y-5867783D01*
X3843430Y-5867783D01*
X3843430Y-5938494D01*
X3914141Y-5938494D01*
X3914141Y-6192494D02*
X3914141Y-6121783D01*
X3843430Y-6121783D01*
X3843430Y-6192494D01*
X3914141Y-6192494D01*
X10531857Y-4900650D02*
X10531857Y-4829939D01*
X10461146Y-4829939D01*
X10461146Y-4900650D01*
X10531857Y-4900650D01*
X10785857Y-4900650D02*
X10785857Y-4829939D01*
X10715146Y-4829939D01*
X10715146Y-4900650D01*
X10785857Y-4900650D01*
X12829541Y-12009094D02*
X12829541Y-11938383D01*
X12758830Y-11938383D01*
X12758830Y-12009094D01*
X12829541Y-12009094D01*
X13083541Y-12009094D02*
X13083541Y-11938383D01*
X13012830Y-11938383D01*
X13012830Y-12009094D01*
X13083541Y-12009094D01*
X13337541Y-12009094D02*
X13337541Y-11938383D01*
X13266830Y-11938383D01*
X13266830Y-12009094D01*
X13337541Y-12009094D01*
X13591541Y-12009094D02*
X13591541Y-11938383D01*
X13520830Y-11938383D01*
X13520830Y-12009094D01*
X13591541Y-12009094D01*
X13845541Y-12009094D02*
X13845541Y-11938383D01*
X13774830Y-11938383D01*
X13774830Y-12009094D01*
X13845541Y-12009094D01*
X14099541Y-12009094D02*
X14099541Y-11938383D01*
X14028830Y-11938383D01*
X14028830Y-12009094D01*
X14099541Y-12009094D01*
X14353541Y-12009094D02*
X14353541Y-11938383D01*
X14282830Y-11938383D01*
X14282830Y-12009094D01*
X14353541Y-12009094D01*
X14607541Y-12009094D02*
X14607541Y-11938383D01*
X14536830Y-11938383D01*
X14536830Y-12009094D01*
X14607541Y-12009094D01*
X8111141Y-8572294D02*
X8111141Y-8501583D01*
X8040430Y-8501583D01*
X8040430Y-8572294D01*
X8111141Y-8572294D01*
X8365141Y-8572294D02*
X8365141Y-8501583D01*
X8294430Y-8501583D01*
X8294430Y-8572294D01*
X8365141Y-8572294D01*
X8619141Y-8572294D02*
X8619141Y-8501583D01*
X8548430Y-8501583D01*
X8548430Y-8572294D01*
X8619141Y-8572294D01*
X8873141Y-8572294D02*
X8873141Y-8501583D01*
X8802430Y-8501583D01*
X8802430Y-8572294D01*
X8873141Y-8572294D01*
X9127141Y-8572294D02*
X9127141Y-8501583D01*
X9056430Y-8501583D01*
X9056430Y-8572294D01*
X9127141Y-8572294D01*
X9381141Y-8572294D02*
X9381141Y-8501583D01*
X9310430Y-8501583D01*
X9310430Y-8572294D01*
X9381141Y-8572294D01*
X9635141Y-8572294D02*
X9635141Y-8501583D01*
X9564430Y-8501583D01*
X9564430Y-8572294D01*
X9635141Y-8572294D01*
X9889141Y-8572294D02*
X9889141Y-8501583D01*
X9818430Y-8501583D01*
X9818430Y-8572294D01*
X9889141Y-8572294D01*
X10143141Y-8572294D02*
X10143141Y-8501583D01*
X10072430Y-8501583D01*
X10072430Y-8572294D01*
X10143141Y-8572294D01*
X10397141Y-8572294D02*
X10397141Y-8501583D01*
X10326430Y-8501583D01*
X10326430Y-8572294D01*
X10397141Y-8572294D01*
X10651141Y-8572294D02*
X10651141Y-8501583D01*
X10580430Y-8501583D01*
X10580430Y-8572294D01*
X10651141Y-8572294D01*
X10905141Y-8572294D02*
X10905141Y-8501583D01*
X10834430Y-8501583D01*
X10834430Y-8572294D01*
X10905141Y-8572294D01*
X11159141Y-8572294D02*
X11159141Y-8501583D01*
X11088430Y-8501583D01*
X11088430Y-8572294D01*
X11159141Y-8572294D01*
X11413141Y-8572294D02*
X11413141Y-8501583D01*
X11342430Y-8501583D01*
X11342430Y-8572294D01*
X11413141Y-8572294D01*
X11667141Y-8572294D02*
X11667141Y-8501583D01*
X11596430Y-8501583D01*
X11596430Y-8572294D01*
X11667141Y-8572294D01*
X11921141Y-8572294D02*
X11921141Y-8501583D01*
X11850430Y-8501583D01*
X11850430Y-8572294D01*
X11921141Y-8572294D01*
X12835356Y-4335356D02*
X12835356Y-4264644D01*
X12764644Y-4264644D01*
X12764644Y-4335356D01*
X12835356Y-4335356D01*
X12835356Y-4589356D02*
X12835356Y-4518644D01*
X12764644Y-4518644D01*
X12764644Y-4589356D01*
X12835356Y-4589356D01*
X12835356Y-4843356D02*
X12835356Y-4772644D01*
X12764644Y-4772644D01*
X12764644Y-4843356D01*
X12835356Y-4843356D01*
X12835356Y-5097356D02*
X12835356Y-5026644D01*
X12764644Y-5026644D01*
X12764644Y-5097356D01*
X12835356Y-5097356D01*
X6060453Y-4793654D02*
X6060453Y-4722943D01*
X5989742Y-4722943D01*
X5989742Y-4793654D01*
X6060453Y-4793654D01*
X6410453Y-5313654D02*
X6410453Y-5242943D01*
X6339742Y-5242943D01*
X6339742Y-5313654D01*
X6410453Y-5313654D01*
X11280649Y-5704814D02*
X11280649Y-5634103D01*
X11209938Y-5634103D01*
X11209938Y-5704814D01*
X11280649Y-5704814D01*
X11534649Y-5704814D02*
X11534649Y-5634103D01*
X11463938Y-5634103D01*
X11463938Y-5704814D01*
X11534649Y-5704814D01*
X11788649Y-5704814D02*
X11788649Y-5634103D01*
X11717938Y-5634103D01*
X11717938Y-5704814D01*
X11788649Y-5704814D01*
X7508241Y-4820894D02*
X7508241Y-4750183D01*
X7437530Y-4750183D01*
X7437530Y-4820894D01*
X7508241Y-4820894D01*
X7508241Y-5010894D02*
X7508241Y-4940183D01*
X7437530Y-4940183D01*
X7437530Y-5010894D01*
X7508241Y-5010894D01*
X8011141Y-3672294D02*
X8011141Y-3601583D01*
X7940430Y-3601583D01*
X7940430Y-3672294D01*
X8011141Y-3672294D01*
X8265141Y-3672294D02*
X8265141Y-3601583D01*
X8194430Y-3601583D01*
X8194430Y-3672294D01*
X8265141Y-3672294D01*
X8519141Y-3672294D02*
X8519141Y-3601583D01*
X8448430Y-3601583D01*
X8448430Y-3672294D01*
X8519141Y-3672294D01*
X8773141Y-3672294D02*
X8773141Y-3601583D01*
X8702430Y-3601583D01*
X8702430Y-3672294D01*
X8773141Y-3672294D01*
X9027141Y-3672294D02*
X9027141Y-3601583D01*
X8956430Y-3601583D01*
X8956430Y-3672294D01*
X9027141Y-3672294D01*
X9281141Y-3672294D02*
X9281141Y-3601583D01*
X9210430Y-3601583D01*
X9210430Y-3672294D01*
X9281141Y-3672294D01*
X9535141Y-3672294D02*
X9535141Y-3601583D01*
X9464430Y-3601583D01*
X9464430Y-3672294D01*
X9535141Y-3672294D01*
X9789141Y-3672294D02*
X9789141Y-3601583D01*
X9718430Y-3601583D01*
X9718430Y-3672294D01*
X9789141Y-3672294D01*
X10043141Y-3672294D02*
X10043141Y-3601583D01*
X9972430Y-3601583D01*
X9972430Y-3672294D01*
X10043141Y-3672294D01*
X10297141Y-3672294D02*
X10297141Y-3601583D01*
X10226430Y-3601583D01*
X10226430Y-3672294D01*
X10297141Y-3672294D01*
X10551141Y-3672294D02*
X10551141Y-3601583D01*
X10480430Y-3601583D01*
X10480430Y-3672294D01*
X10551141Y-3672294D01*
X10805141Y-3672294D02*
X10805141Y-3601583D01*
X10734430Y-3601583D01*
X10734430Y-3672294D01*
X10805141Y-3672294D01*
X11059141Y-3672294D02*
X11059141Y-3601583D01*
X10988430Y-3601583D01*
X10988430Y-3672294D01*
X11059141Y-3672294D01*
X11313141Y-3672294D02*
X11313141Y-3601583D01*
X11242430Y-3601583D01*
X11242430Y-3672294D01*
X11313141Y-3672294D01*
X11567141Y-3672294D02*
X11567141Y-3601583D01*
X11496430Y-3601583D01*
X11496430Y-3672294D01*
X11567141Y-3672294D01*
X11821141Y-3672294D02*
X11821141Y-3601583D01*
X11750430Y-3601583D01*
X11750430Y-3672294D01*
X11821141Y-3672294D01*
X5451141Y-8502294D02*
X5451141Y-8431583D01*
X5380430Y-8431583D01*
X5380430Y-8502294D01*
X5451141Y-8502294D01*
X5971141Y-8152294D02*
X5971141Y-8081583D01*
X5900430Y-8081583D01*
X5900430Y-8152294D01*
X5971141Y-8152294D01*
X5141141Y-9457294D02*
X5141141Y-9386583D01*
X5070430Y-9386583D01*
X5070430Y-9457294D01*
X5141141Y-9457294D01*
X5491141Y-9977294D02*
X5491141Y-9906583D01*
X5420430Y-9906583D01*
X5420430Y-9977294D01*
X5491141Y-9977294D01*
X8026341Y-9457294D02*
X8026341Y-9386583D01*
X7955630Y-9386583D01*
X7955630Y-9457294D01*
X8026341Y-9457294D01*
X8376341Y-9977294D02*
X8376341Y-9906583D01*
X8305630Y-9906583D01*
X8305630Y-9977294D01*
X8376341Y-9977294D01*
X6583741Y-9457294D02*
X6583741Y-9386583D01*
X6513030Y-9386583D01*
X6513030Y-9457294D01*
X6583741Y-9457294D01*
X6933741Y-9977294D02*
X6933741Y-9906583D01*
X6863030Y-9906583D01*
X6863030Y-9977294D01*
X6933741Y-9977294D01*
X9066141Y-9062294D02*
X9066141Y-8991583D01*
X8995430Y-8991583D01*
X8995430Y-9062294D01*
X9066141Y-9062294D01*
X9320141Y-9062294D02*
X9320141Y-8991583D01*
X9249430Y-8991583D01*
X9249430Y-9062294D01*
X9320141Y-9062294D01*
X9731141Y-9062294D02*
X9731141Y-8991583D01*
X9660430Y-8991583D01*
X9660430Y-9062294D01*
X9731141Y-9062294D01*
X9985141Y-9062294D02*
X9985141Y-8991583D01*
X9914430Y-8991583D01*
X9914430Y-9062294D01*
X9985141Y-9062294D01*
X10239141Y-9062294D02*
X10239141Y-8991583D01*
X10168430Y-8991583D01*
X10168430Y-9062294D01*
X10239141Y-9062294D01*
X13857785Y-4042938D02*
X13912785Y-3987938D01*
X13857785Y-3932938D01*
X13802785Y-3987938D01*
X13857785Y-4042938D01*
X13857785Y-4492938D02*
X13912785Y-4437938D01*
X13857785Y-4382938D01*
X13802785Y-4437938D01*
X13857785Y-4492938D01*
X14507785Y-4042938D02*
X14562785Y-3987938D01*
X14507785Y-3932938D01*
X14452785Y-3987938D01*
X14507785Y-4042938D01*
X14507785Y-4492938D02*
X14562785Y-4437938D01*
X14507785Y-4382938D01*
X14452785Y-4437938D01*
X14507785Y-4492938D01*
X11405785Y-12301938D02*
X11460785Y-12246938D01*
X11405785Y-12191938D01*
X11350785Y-12246938D01*
X11405785Y-12301938D01*
X11405785Y-12751938D02*
X11460785Y-12696938D01*
X11405785Y-12641938D01*
X11350785Y-12696938D01*
X11405785Y-12751938D01*
X12055785Y-12301938D02*
X12110785Y-12246938D01*
X12055785Y-12191938D01*
X12000785Y-12246938D01*
X12055785Y-12301938D01*
X12055785Y-12751938D02*
X12110785Y-12696938D01*
X12055785Y-12641938D01*
X12000785Y-12696938D01*
X12055785Y-12751938D01*
X3095785Y-7061938D02*
X3150785Y-7006938D01*
X3095785Y-6951938D01*
X3040785Y-7006938D01*
X3095785Y-7061938D01*
X3095785Y-7511938D02*
X3150785Y-7456938D01*
X3095785Y-7401938D01*
X3040785Y-7456938D01*
X3095785Y-7511938D01*
X3745785Y-7061938D02*
X3800785Y-7006938D01*
X3745785Y-6951938D01*
X3690785Y-7006938D01*
X3745785Y-7061938D01*
X3745785Y-7511938D02*
X3800785Y-7456938D01*
X3745785Y-7401938D01*
X3690785Y-7456938D01*
X3745785Y-7511938D01*
X9855785Y-12301938D02*
X9910785Y-12246938D01*
X9855785Y-12191938D01*
X9800785Y-12246938D01*
X9855785Y-12301938D01*
X9855785Y-12751938D02*
X9910785Y-12696938D01*
X9855785Y-12641938D01*
X9800785Y-12696938D01*
X9855785Y-12751938D01*
X10505785Y-12301938D02*
X10560785Y-12246938D01*
X10505785Y-12191938D01*
X10450785Y-12246938D01*
X10505785Y-12301938D01*
X10505785Y-12751938D02*
X10560785Y-12696938D01*
X10505785Y-12641938D01*
X10450785Y-12696938D01*
X10505785Y-12751938D01*
X13833045Y-5925714D02*
X13888045Y-5870714D01*
X13833045Y-5815714D01*
X13778045Y-5870714D01*
X13833045Y-5925714D01*
X13833045Y-6375714D02*
X13888045Y-6320714D01*
X13833045Y-6265714D01*
X13778045Y-6320714D01*
X13833045Y-6375714D01*
X14483045Y-5925714D02*
X14538045Y-5870714D01*
X14483045Y-5815714D01*
X14428045Y-5870714D01*
X14483045Y-5925714D01*
X14483045Y-6375714D02*
X14538045Y-6320714D01*
X14483045Y-6265714D01*
X14428045Y-6320714D01*
X14483045Y-6375714D01*
X3115785Y-11751938D02*
X3170785Y-11696938D01*
X3115785Y-11641938D01*
X3060785Y-11696938D01*
X3115785Y-11751938D01*
X3115785Y-12201938D02*
X3170785Y-12146938D01*
X3115785Y-12091938D01*
X3060785Y-12146938D01*
X3115785Y-12201938D01*
X3765785Y-11751938D02*
X3820785Y-11696938D01*
X3765785Y-11641938D01*
X3710785Y-11696938D01*
X3765785Y-11751938D01*
X3765785Y-12201938D02*
X3820785Y-12146938D01*
X3765785Y-12091938D01*
X3710785Y-12146938D01*
X3765785Y-12201938D01*
X3095785Y-8221938D02*
X3150785Y-8166938D01*
X3095785Y-8111938D01*
X3040785Y-8166938D01*
X3095785Y-8221938D01*
X3095785Y-8671938D02*
X3150785Y-8616938D01*
X3095785Y-8561938D01*
X3040785Y-8616938D01*
X3095785Y-8671938D01*
X3745785Y-8221938D02*
X3800785Y-8166938D01*
X3745785Y-8111938D01*
X3690785Y-8166938D01*
X3745785Y-8221938D01*
X3745785Y-8671938D02*
X3800785Y-8616938D01*
X3745785Y-8561938D01*
X3690785Y-8616938D01*
X3745785Y-8671938D01*
X8305785Y-12301938D02*
X8360785Y-12246938D01*
X8305785Y-12191938D01*
X8250785Y-12246938D01*
X8305785Y-12301938D01*
X8305785Y-12751938D02*
X8360785Y-12696938D01*
X8305785Y-12641938D01*
X8250785Y-12696938D01*
X8305785Y-12751938D01*
X8955785Y-12301938D02*
X9010785Y-12246938D01*
X8955785Y-12191938D01*
X8900785Y-12246938D01*
X8955785Y-12301938D01*
X8955785Y-12751938D02*
X9010785Y-12696938D01*
X8955785Y-12641938D01*
X8900785Y-12696938D01*
X8955785Y-12751938D01*
X3115785Y-10581938D02*
X3170785Y-10526938D01*
X3115785Y-10471938D01*
X3060785Y-10526938D01*
X3115785Y-10581938D01*
X3115785Y-11031938D02*
X3170785Y-10976938D01*
X3115785Y-10921938D01*
X3060785Y-10976938D01*
X3115785Y-11031938D01*
X3765785Y-10581938D02*
X3820785Y-10526938D01*
X3765785Y-10471938D01*
X3710785Y-10526938D01*
X3765785Y-10581938D01*
X3765785Y-11031938D02*
X3820785Y-10976938D01*
X3765785Y-10921938D01*
X3710785Y-10976938D01*
X3765785Y-11031938D01*
X3105785Y-9401938D02*
X3160785Y-9346938D01*
X3105785Y-9291938D01*
X3050785Y-9346938D01*
X3105785Y-9401938D01*
X3105785Y-9851938D02*
X3160785Y-9796938D01*
X3105785Y-9741938D01*
X3050785Y-9796938D01*
X3105785Y-9851938D01*
X3755785Y-9401938D02*
X3810785Y-9346938D01*
X3755785Y-9291938D01*
X3700785Y-9346938D01*
X3755785Y-9401938D01*
X3755785Y-9851938D02*
X3810785Y-9796938D01*
X3755785Y-9741938D01*
X3700785Y-9796938D01*
X3755785Y-9851938D01*
X6765785Y-12301938D02*
X6820785Y-12246938D01*
X6765785Y-12191938D01*
X6710785Y-12246938D01*
X6765785Y-12301938D01*
X6765785Y-12751938D02*
X6820785Y-12696938D01*
X6765785Y-12641938D01*
X6710785Y-12696938D01*
X6765785Y-12751938D01*
X7415785Y-12301938D02*
X7470785Y-12246938D01*
X7415785Y-12191938D01*
X7360785Y-12246938D01*
X7415785Y-12301938D01*
X7415785Y-12751938D02*
X7470785Y-12696938D01*
X7415785Y-12641938D01*
X7360785Y-12696938D01*
X7415785Y-12751938D01*
X5205785Y-12301938D02*
X5260785Y-12246938D01*
X5205785Y-12191938D01*
X5150785Y-12246938D01*
X5205785Y-12301938D01*
X5205785Y-12751938D02*
X5260785Y-12696938D01*
X5205785Y-12641938D01*
X5150785Y-12696938D01*
X5205785Y-12751938D01*
X5855785Y-12301938D02*
X5910785Y-12246938D01*
X5855785Y-12191938D01*
X5800785Y-12246938D01*
X5855785Y-12301938D01*
X5855785Y-12751938D02*
X5910785Y-12696938D01*
X5855785Y-12641938D01*
X5800785Y-12696938D01*
X5855785Y-12751938D01*
X3010785Y-12561938D02*
X3260785Y-12811938D01*
X3260785Y-12561938D02*
X3010785Y-12811938D01*
X3260785Y-12686938D02*
G75*
G03X3260785Y-12686938I-125000J0D01*
G01*
X3010785Y-3561938D02*
X3260785Y-3811938D01*
X3260785Y-3561938D02*
X3010785Y-3811938D01*
X3260785Y-3686938D02*
G75*
G03X3260785Y-3686938I-125000J0D01*
G01*
X4760785Y-8461938D02*
X5010785Y-8711938D01*
X5010785Y-8461938D02*
X4760785Y-8711938D01*
X5010785Y-8586938D02*
G75*
G03X5010785Y-8586938I-125000J0D01*
G01*
X4760785Y-11561938D02*
X5010785Y-11811938D01*
X5010785Y-11561938D02*
X4760785Y-11811938D01*
X5010785Y-11686938D02*
G75*
G03X5010785Y-11686938I-125000J0D01*
G01*
X12260785Y-8461938D02*
X12510785Y-8711938D01*
X12510785Y-8461938D02*
X12260785Y-8711938D01*
X12510785Y-8586938D02*
G75*
G03X12510785Y-8586938I-125000J0D01*
G01*
X12260785Y-11561938D02*
X12510785Y-11811938D01*
X12510785Y-11561938D02*
X12260785Y-11811938D01*
X12510785Y-11686938D02*
G75*
G03X12510785Y-11686938I-125000J0D01*
G01*
X4660785Y-3561938D02*
X4910785Y-3811938D01*
X4910785Y-3561938D02*
X4660785Y-3811938D01*
X4910785Y-3686938D02*
G75*
G03X4910785Y-3686938I-125000J0D01*
G01*
X4660785Y-6661938D02*
X4910785Y-6911938D01*
X4910785Y-6661938D02*
X4660785Y-6911938D01*
X4910785Y-6786938D02*
G75*
G03X4910785Y-6786938I-125000J0D01*
G01*
X12160785Y-3561938D02*
X12410785Y-3811938D01*
X12410785Y-3561938D02*
X12160785Y-3811938D01*
X12410785Y-3686938D02*
G75*
G03X12410785Y-3686938I-125000J0D01*
G01*
X12160785Y-6661938D02*
X12410785Y-6911938D01*
X12410785Y-6661938D02*
X12160785Y-6911938D01*
X12410785Y-6786938D02*
G75*
G03X12410785Y-6786938I-125000J0D01*
G01*
X16010785Y-3561938D02*
X16260785Y-3811938D01*
X16260785Y-3561938D02*
X16010785Y-3811938D01*
X16260785Y-3686938D02*
G75*
G03X16260785Y-3686938I-125000J0D01*
G01*
X16010785Y-12561938D02*
X16260785Y-12811938D01*
X16260785Y-12561938D02*
X16010785Y-12811938D01*
X16260785Y-12686938D02*
G75*
G03X16260785Y-12686938I-125000J0D01*
G01*
D12*
X3019714Y-13555153D02*
X3019714Y-13255153D01*
X3091142Y-13255153D01*
X3133999Y-13269438D01*
X3162571Y-13298010D01*
X3176857Y-13326581D01*
X3191142Y-13383724D01*
X3191142Y-13426581D01*
X3176857Y-13483724D01*
X3162571Y-13512295D01*
X3133999Y-13540867D01*
X3091142Y-13555153D01*
X3019714Y-13555153D01*
X3319714Y-13555153D02*
X3319714Y-13355153D01*
X3319714Y-13412295D02*
X3333999Y-13383724D01*
X3348285Y-13369438D01*
X3376857Y-13355153D01*
X3405428Y-13355153D01*
X3505428Y-13555153D02*
X3505428Y-13355153D01*
X3505428Y-13255153D02*
X3491142Y-13269438D01*
X3505428Y-13283724D01*
X3519714Y-13269438D01*
X3505428Y-13255153D01*
X3505428Y-13283724D01*
X3691142Y-13555153D02*
X3662571Y-13540867D01*
X3648285Y-13512295D01*
X3648285Y-13255153D01*
X3848285Y-13555153D02*
X3819714Y-13540867D01*
X3805428Y-13512295D01*
X3805428Y-13255153D01*
X4191142Y-13555153D02*
X4191142Y-13255153D01*
X4291142Y-13469438D01*
X4391142Y-13255153D01*
X4391142Y-13555153D01*
X4662571Y-13555153D02*
X4662571Y-13398010D01*
X4648285Y-13369438D01*
X4619714Y-13355153D01*
X4562571Y-13355153D01*
X4534000Y-13369438D01*
X4662571Y-13540867D02*
X4634000Y-13555153D01*
X4562571Y-13555153D01*
X4534000Y-13540867D01*
X4519714Y-13512295D01*
X4519714Y-13483724D01*
X4534000Y-13455153D01*
X4562571Y-13440867D01*
X4634000Y-13440867D01*
X4662571Y-13426581D01*
X4805428Y-13355153D02*
X4805428Y-13655153D01*
X4805428Y-13369438D02*
X4834000Y-13355153D01*
X4891142Y-13355153D01*
X4919714Y-13369438D01*
X4934000Y-13383724D01*
X4948285Y-13412295D01*
X4948285Y-13498010D01*
X4934000Y-13526581D01*
X4919714Y-13540867D01*
X4891142Y-13555153D01*
X4834000Y-13555153D01*
X4805428Y-13540867D01*
X5076857Y-13526581D02*
X5091142Y-13540867D01*
X5076857Y-13555153D01*
X5062571Y-13540867D01*
X5076857Y-13526581D01*
X5076857Y-13555153D01*
X5076857Y-13369438D02*
X5091142Y-13383724D01*
X5076857Y-13398010D01*
X5062571Y-13383724D01*
X5076857Y-13369438D01*
X5076857Y-13398010D01*
X2673285Y-14019438D02*
X2733285Y-14079438D01*
X2733285Y-14019438D02*
X2673285Y-14079438D01*
X3076857Y-13885153D02*
X3105428Y-13885153D01*
X3133999Y-13899438D01*
X3148285Y-13913724D01*
X3162571Y-13942295D01*
X3176857Y-13999438D01*
X3176857Y-14070867D01*
X3162571Y-14128010D01*
X3148285Y-14156581D01*
X3133999Y-14170867D01*
X3105428Y-14185153D01*
X3076857Y-14185153D01*
X3048285Y-14170867D01*
X3033999Y-14156581D01*
X3019714Y-14128010D01*
X3005428Y-14070867D01*
X3005428Y-13999438D01*
X3019714Y-13942295D01*
X3033999Y-13913724D01*
X3048285Y-13899438D01*
X3076857Y-13885153D01*
X3305428Y-14156581D02*
X3319714Y-14170867D01*
X3305428Y-14185153D01*
X3291142Y-14170867D01*
X3305428Y-14156581D01*
X3305428Y-14185153D01*
X3576857Y-13885153D02*
X3519714Y-13885153D01*
X3491142Y-13899438D01*
X3476857Y-13913724D01*
X3448285Y-13956581D01*
X3433999Y-14013724D01*
X3433999Y-14128010D01*
X3448285Y-14156581D01*
X3462571Y-14170867D01*
X3491142Y-14185153D01*
X3548285Y-14185153D01*
X3576857Y-14170867D01*
X3591142Y-14156581D01*
X3605428Y-14128010D01*
X3605428Y-14056581D01*
X3591142Y-14028010D01*
X3576857Y-14013724D01*
X3548285Y-13999438D01*
X3491142Y-13999438D01*
X3462571Y-14013724D01*
X3448285Y-14028010D01*
X3433999Y-14056581D01*
X3791142Y-13885153D02*
X3819714Y-13885153D01*
X3848285Y-13899438D01*
X3862571Y-13913724D01*
X3876857Y-13942295D01*
X3891142Y-13999438D01*
X3891142Y-14070867D01*
X3876857Y-14128010D01*
X3862571Y-14156581D01*
X3848285Y-14170867D01*
X3819714Y-14185153D01*
X3791142Y-14185153D01*
X3762571Y-14170867D01*
X3748285Y-14156581D01*
X3733999Y-14128010D01*
X3719714Y-14070867D01*
X3719714Y-13999438D01*
X3733999Y-13942295D01*
X3748285Y-13913724D01*
X3762571Y-13899438D01*
X3791142Y-13885153D01*
X4019714Y-14185153D02*
X4019714Y-13985153D01*
X4019714Y-14013724D02*
X4033999Y-13999438D01*
X4062571Y-13985153D01*
X4105428Y-13985153D01*
X4133999Y-13999438D01*
X4148285Y-14028010D01*
X4148285Y-14185153D01*
X4148285Y-14028010D02*
X4162571Y-13999438D01*
X4191142Y-13985153D01*
X4234000Y-13985153D01*
X4262571Y-13999438D01*
X4276857Y-14028010D01*
X4276857Y-14185153D01*
X4419714Y-14185153D02*
X4419714Y-13985153D01*
X4419714Y-14013724D02*
X4434000Y-13999438D01*
X4462571Y-13985153D01*
X4505428Y-13985153D01*
X4534000Y-13999438D01*
X4548285Y-14028010D01*
X4548285Y-14185153D01*
X4548285Y-14028010D02*
X4562571Y-13999438D01*
X4591142Y-13985153D01*
X4634000Y-13985153D01*
X4662571Y-13999438D01*
X4676857Y-14028010D01*
X4676857Y-14185153D01*
X5262571Y-13870867D02*
X5005428Y-14256581D01*
X5648285Y-13885153D02*
X5676857Y-13885153D01*
X5705428Y-13899438D01*
X5719714Y-13913724D01*
X5733999Y-13942295D01*
X5748285Y-13999438D01*
X5748285Y-14070867D01*
X5733999Y-14128010D01*
X5719714Y-14156581D01*
X5705428Y-14170867D01*
X5676857Y-14185153D01*
X5648285Y-14185153D01*
X5619714Y-14170867D01*
X5605428Y-14156581D01*
X5591142Y-14128010D01*
X5576857Y-14070867D01*
X5576857Y-13999438D01*
X5591142Y-13942295D01*
X5605428Y-13913724D01*
X5619714Y-13899438D01*
X5648285Y-13885153D01*
X5876857Y-14156581D02*
X5891142Y-14170867D01*
X5876857Y-14185153D01*
X5862571Y-14170867D01*
X5876857Y-14156581D01*
X5876857Y-14185153D01*
X6076857Y-13885153D02*
X6105428Y-13885153D01*
X6133999Y-13899438D01*
X6148285Y-13913724D01*
X6162571Y-13942295D01*
X6176857Y-13999438D01*
X6176857Y-14070867D01*
X6162571Y-14128010D01*
X6148285Y-14156581D01*
X6133999Y-14170867D01*
X6105428Y-14185153D01*
X6076857Y-14185153D01*
X6048285Y-14170867D01*
X6033999Y-14156581D01*
X6019714Y-14128010D01*
X6005428Y-14070867D01*
X6005428Y-13999438D01*
X6019714Y-13942295D01*
X6033999Y-13913724D01*
X6048285Y-13899438D01*
X6076857Y-13885153D01*
X6291142Y-13913724D02*
X6305428Y-13899438D01*
X6333999Y-13885153D01*
X6405428Y-13885153D01*
X6433999Y-13899438D01*
X6448285Y-13913724D01*
X6462571Y-13942295D01*
X6462571Y-13970867D01*
X6448285Y-14013724D01*
X6276857Y-14185153D01*
X6462571Y-14185153D01*
X6719714Y-13985153D02*
X6719714Y-14185153D01*
X6648285Y-13870867D02*
X6576857Y-14085153D01*
X6762571Y-14085153D01*
X6862571Y-13885153D02*
X6862571Y-13942295D01*
X6976857Y-13885153D02*
X6976857Y-13942295D01*
X7419714Y-14299438D02*
X7405428Y-14285153D01*
X7376857Y-14242295D01*
X7362571Y-14213724D01*
X7348285Y-14170867D01*
X7333999Y-14099438D01*
X7333999Y-14042295D01*
X7348285Y-13970867D01*
X7362571Y-13928010D01*
X7376857Y-13899438D01*
X7405428Y-13856581D01*
X7419714Y-13842295D01*
X7691142Y-14185153D02*
X7519714Y-14185153D01*
X7605428Y-14185153D02*
X7605428Y-13885153D01*
X7576857Y-13928010D01*
X7548285Y-13956581D01*
X7519714Y-13970867D01*
X7948285Y-13985153D02*
X7948285Y-14185153D01*
X7876857Y-13870867D02*
X7805428Y-14085153D01*
X7991142Y-14085153D01*
X8148285Y-14013724D02*
X8119714Y-13999438D01*
X8105428Y-13985153D01*
X8091142Y-13956581D01*
X8091142Y-13942295D01*
X8105428Y-13913724D01*
X8119714Y-13899438D01*
X8148285Y-13885153D01*
X8205428Y-13885153D01*
X8233999Y-13899438D01*
X8248285Y-13913724D01*
X8262571Y-13942295D01*
X8262571Y-13956581D01*
X8248285Y-13985153D01*
X8233999Y-13999438D01*
X8205428Y-14013724D01*
X8148285Y-14013724D01*
X8119714Y-14028010D01*
X8105428Y-14042295D01*
X8091142Y-14070867D01*
X8091142Y-14128010D01*
X8105428Y-14156581D01*
X8119714Y-14170867D01*
X8148285Y-14185153D01*
X8205428Y-14185153D01*
X8233999Y-14170867D01*
X8248285Y-14156581D01*
X8262571Y-14128010D01*
X8262571Y-14070867D01*
X8248285Y-14042295D01*
X8233999Y-14028010D01*
X8205428Y-14013724D01*
X8619714Y-14185153D02*
X8619714Y-13885153D01*
X8748285Y-14185153D02*
X8748285Y-14028010D01*
X8734000Y-13999438D01*
X8705428Y-13985153D01*
X8662571Y-13985153D01*
X8634000Y-13999438D01*
X8619714Y-14013724D01*
X8934000Y-14185153D02*
X8905428Y-14170867D01*
X8891142Y-14156581D01*
X8876857Y-14128010D01*
X8876857Y-14042295D01*
X8891142Y-14013724D01*
X8905428Y-13999438D01*
X8934000Y-13985153D01*
X8976857Y-13985153D01*
X9005428Y-13999438D01*
X9019714Y-14013724D01*
X9034000Y-14042295D01*
X9034000Y-14128010D01*
X9019714Y-14156581D01*
X9005428Y-14170867D01*
X8976857Y-14185153D01*
X8934000Y-14185153D01*
X9205428Y-14185153D02*
X9176857Y-14170867D01*
X9162571Y-14142295D01*
X9162571Y-13885153D01*
X9434000Y-14170867D02*
X9405428Y-14185153D01*
X9348285Y-14185153D01*
X9319714Y-14170867D01*
X9305428Y-14142295D01*
X9305428Y-14028010D01*
X9319714Y-13999438D01*
X9348285Y-13985153D01*
X9405428Y-13985153D01*
X9434000Y-13999438D01*
X9448285Y-14028010D01*
X9448285Y-14056581D01*
X9305428Y-14085153D01*
X9562571Y-14170867D02*
X9591142Y-14185153D01*
X9648285Y-14185153D01*
X9676857Y-14170867D01*
X9691142Y-14142295D01*
X9691142Y-14128010D01*
X9676857Y-14099438D01*
X9648285Y-14085153D01*
X9605428Y-14085153D01*
X9576857Y-14070867D01*
X9562571Y-14042295D01*
X9562571Y-14028010D01*
X9576857Y-13999438D01*
X9605428Y-13985153D01*
X9648285Y-13985153D01*
X9676857Y-13999438D01*
X9791142Y-14299438D02*
X9805428Y-14285153D01*
X9834000Y-14242295D01*
X9848285Y-14213724D01*
X9862571Y-14170867D01*
X9876857Y-14099438D01*
X9876857Y-14042295D01*
X9862571Y-13970867D01*
X9848285Y-13928010D01*
X9834000Y-13899438D01*
X9805428Y-13856581D01*
X9791142Y-13842295D01*
X2733285Y-14445438D02*
G75*
G03X2733285Y-14445438I-40000J0D01*
G01*
X3076857Y-14281153D02*
X3105428Y-14281153D01*
X3133999Y-14295438D01*
X3148285Y-14309724D01*
X3162571Y-14338295D01*
X3176857Y-14395438D01*
X3176857Y-14466867D01*
X3162571Y-14524010D01*
X3148285Y-14552581D01*
X3133999Y-14566867D01*
X3105428Y-14581153D01*
X3076857Y-14581153D01*
X3048285Y-14566867D01*
X3033999Y-14552581D01*
X3019714Y-14524010D01*
X3005428Y-14466867D01*
X3005428Y-14395438D01*
X3019714Y-14338295D01*
X3033999Y-14309724D01*
X3048285Y-14295438D01*
X3076857Y-14281153D01*
X3305428Y-14552581D02*
X3319714Y-14566867D01*
X3305428Y-14581153D01*
X3291142Y-14566867D01*
X3305428Y-14552581D01*
X3305428Y-14581153D01*
X3491142Y-14409724D02*
X3462571Y-14395438D01*
X3448285Y-14381153D01*
X3433999Y-14352581D01*
X3433999Y-14338295D01*
X3448285Y-14309724D01*
X3462571Y-14295438D01*
X3491142Y-14281153D01*
X3548285Y-14281153D01*
X3576857Y-14295438D01*
X3591142Y-14309724D01*
X3605428Y-14338295D01*
X3605428Y-14352581D01*
X3591142Y-14381153D01*
X3576857Y-14395438D01*
X3548285Y-14409724D01*
X3491142Y-14409724D01*
X3462571Y-14424010D01*
X3448285Y-14438295D01*
X3433999Y-14466867D01*
X3433999Y-14524010D01*
X3448285Y-14552581D01*
X3462571Y-14566867D01*
X3491142Y-14581153D01*
X3548285Y-14581153D01*
X3576857Y-14566867D01*
X3591142Y-14552581D01*
X3605428Y-14524010D01*
X3605428Y-14466867D01*
X3591142Y-14438295D01*
X3576857Y-14424010D01*
X3548285Y-14409724D01*
X3791142Y-14281153D02*
X3819714Y-14281153D01*
X3848285Y-14295438D01*
X3862571Y-14309724D01*
X3876857Y-14338295D01*
X3891142Y-14395438D01*
X3891142Y-14466867D01*
X3876857Y-14524010D01*
X3862571Y-14552581D01*
X3848285Y-14566867D01*
X3819714Y-14581153D01*
X3791142Y-14581153D01*
X3762571Y-14566867D01*
X3748285Y-14552581D01*
X3733999Y-14524010D01*
X3719714Y-14466867D01*
X3719714Y-14395438D01*
X3733999Y-14338295D01*
X3748285Y-14309724D01*
X3762571Y-14295438D01*
X3791142Y-14281153D01*
X4019714Y-14581153D02*
X4019714Y-14381153D01*
X4019714Y-14409724D02*
X4033999Y-14395438D01*
X4062571Y-14381153D01*
X4105428Y-14381153D01*
X4133999Y-14395438D01*
X4148285Y-14424010D01*
X4148285Y-14581153D01*
X4148285Y-14424010D02*
X4162571Y-14395438D01*
X4191142Y-14381153D01*
X4234000Y-14381153D01*
X4262571Y-14395438D01*
X4276857Y-14424010D01*
X4276857Y-14581153D01*
X4419714Y-14581153D02*
X4419714Y-14381153D01*
X4419714Y-14409724D02*
X4434000Y-14395438D01*
X4462571Y-14381153D01*
X4505428Y-14381153D01*
X4534000Y-14395438D01*
X4548285Y-14424010D01*
X4548285Y-14581153D01*
X4548285Y-14424010D02*
X4562571Y-14395438D01*
X4591142Y-14381153D01*
X4634000Y-14381153D01*
X4662571Y-14395438D01*
X4676857Y-14424010D01*
X4676857Y-14581153D01*
X5262571Y-14266867D02*
X5005428Y-14652581D01*
X5648285Y-14281153D02*
X5676857Y-14281153D01*
X5705428Y-14295438D01*
X5719714Y-14309724D01*
X5733999Y-14338295D01*
X5748285Y-14395438D01*
X5748285Y-14466867D01*
X5733999Y-14524010D01*
X5719714Y-14552581D01*
X5705428Y-14566867D01*
X5676857Y-14581153D01*
X5648285Y-14581153D01*
X5619714Y-14566867D01*
X5605428Y-14552581D01*
X5591142Y-14524010D01*
X5576857Y-14466867D01*
X5576857Y-14395438D01*
X5591142Y-14338295D01*
X5605428Y-14309724D01*
X5619714Y-14295438D01*
X5648285Y-14281153D01*
X5876857Y-14552581D02*
X5891142Y-14566867D01*
X5876857Y-14581153D01*
X5862571Y-14566867D01*
X5876857Y-14552581D01*
X5876857Y-14581153D01*
X6076857Y-14281153D02*
X6105428Y-14281153D01*
X6133999Y-14295438D01*
X6148285Y-14309724D01*
X6162571Y-14338295D01*
X6176857Y-14395438D01*
X6176857Y-14466867D01*
X6162571Y-14524010D01*
X6148285Y-14552581D01*
X6133999Y-14566867D01*
X6105428Y-14581153D01*
X6076857Y-14581153D01*
X6048285Y-14566867D01*
X6033999Y-14552581D01*
X6019714Y-14524010D01*
X6005428Y-14466867D01*
X6005428Y-14395438D01*
X6019714Y-14338295D01*
X6033999Y-14309724D01*
X6048285Y-14295438D01*
X6076857Y-14281153D01*
X6276857Y-14281153D02*
X6462571Y-14281153D01*
X6362571Y-14395438D01*
X6405428Y-14395438D01*
X6433999Y-14409724D01*
X6448285Y-14424010D01*
X6462571Y-14452581D01*
X6462571Y-14524010D01*
X6448285Y-14552581D01*
X6433999Y-14566867D01*
X6405428Y-14581153D01*
X6319714Y-14581153D01*
X6291142Y-14566867D01*
X6276857Y-14552581D01*
X6748285Y-14581153D02*
X6576857Y-14581153D01*
X6662571Y-14581153D02*
X6662571Y-14281153D01*
X6633999Y-14324010D01*
X6605428Y-14352581D01*
X6576857Y-14366867D01*
X6862571Y-14281153D02*
X6862571Y-14338295D01*
X6976857Y-14281153D02*
X6976857Y-14338295D01*
X7419714Y-14695438D02*
X7405428Y-14681153D01*
X7376857Y-14638295D01*
X7362571Y-14609724D01*
X7348285Y-14566867D01*
X7333999Y-14495438D01*
X7333999Y-14438295D01*
X7348285Y-14366867D01*
X7362571Y-14324010D01*
X7376857Y-14295438D01*
X7405428Y-14252581D01*
X7419714Y-14238295D01*
X7662571Y-14381153D02*
X7662571Y-14581153D01*
X7591142Y-14266867D02*
X7519714Y-14481153D01*
X7705428Y-14481153D01*
X8048285Y-14581153D02*
X8048285Y-14281153D01*
X8176857Y-14581153D02*
X8176857Y-14424010D01*
X8162571Y-14395438D01*
X8133999Y-14381153D01*
X8091142Y-14381153D01*
X8062571Y-14395438D01*
X8048285Y-14409724D01*
X8362571Y-14581153D02*
X8333999Y-14566867D01*
X8319714Y-14552581D01*
X8305428Y-14524010D01*
X8305428Y-14438295D01*
X8319714Y-14409724D01*
X8333999Y-14395438D01*
X8362571Y-14381153D01*
X8405428Y-14381153D01*
X8434000Y-14395438D01*
X8448285Y-14409724D01*
X8462571Y-14438295D01*
X8462571Y-14524010D01*
X8448285Y-14552581D01*
X8434000Y-14566867D01*
X8405428Y-14581153D01*
X8362571Y-14581153D01*
X8634000Y-14581153D02*
X8605428Y-14566867D01*
X8591142Y-14538295D01*
X8591142Y-14281153D01*
X8862571Y-14566867D02*
X8834000Y-14581153D01*
X8776857Y-14581153D01*
X8748285Y-14566867D01*
X8734000Y-14538295D01*
X8734000Y-14424010D01*
X8748285Y-14395438D01*
X8776857Y-14381153D01*
X8834000Y-14381153D01*
X8862571Y-14395438D01*
X8876857Y-14424010D01*
X8876857Y-14452581D01*
X8734000Y-14481153D01*
X8991142Y-14566867D02*
X9019714Y-14581153D01*
X9076857Y-14581153D01*
X9105428Y-14566867D01*
X9119714Y-14538295D01*
X9119714Y-14524010D01*
X9105428Y-14495438D01*
X9076857Y-14481153D01*
X9034000Y-14481153D01*
X9005428Y-14466867D01*
X8991142Y-14438295D01*
X8991142Y-14424010D01*
X9005428Y-14395438D01*
X9034000Y-14381153D01*
X9076857Y-14381153D01*
X9105428Y-14395438D01*
X9219714Y-14695438D02*
X9234000Y-14681153D01*
X9262571Y-14638295D01*
X9276857Y-14609724D01*
X9291142Y-14566867D01*
X9305428Y-14495438D01*
X9305428Y-14438295D01*
X9291142Y-14366867D01*
X9276857Y-14324010D01*
X9262571Y-14295438D01*
X9234000Y-14252581D01*
X9219714Y-14238295D01*
X2688285Y-14796438D02*
X2688285Y-14886438D01*
X2643285Y-14841438D02*
X2733285Y-14841438D01*
X3076857Y-14677153D02*
X3105428Y-14677153D01*
X3133999Y-14691438D01*
X3148285Y-14705724D01*
X3162571Y-14734295D01*
X3176857Y-14791438D01*
X3176857Y-14862867D01*
X3162571Y-14920010D01*
X3148285Y-14948581D01*
X3133999Y-14962867D01*
X3105428Y-14977153D01*
X3076857Y-14977153D01*
X3048285Y-14962867D01*
X3033999Y-14948581D01*
X3019714Y-14920010D01*
X3005428Y-14862867D01*
X3005428Y-14791438D01*
X3019714Y-14734295D01*
X3033999Y-14705724D01*
X3048285Y-14691438D01*
X3076857Y-14677153D01*
X3305428Y-14948581D02*
X3319714Y-14962867D01*
X3305428Y-14977153D01*
X3291142Y-14962867D01*
X3305428Y-14948581D01*
X3305428Y-14977153D01*
X3462571Y-14977153D02*
X3519714Y-14977153D01*
X3548285Y-14962867D01*
X3562571Y-14948581D01*
X3591142Y-14905724D01*
X3605428Y-14848581D01*
X3605428Y-14734295D01*
X3591142Y-14705724D01*
X3576857Y-14691438D01*
X3548285Y-14677153D01*
X3491142Y-14677153D01*
X3462571Y-14691438D01*
X3448285Y-14705724D01*
X3433999Y-14734295D01*
X3433999Y-14805724D01*
X3448285Y-14834295D01*
X3462571Y-14848581D01*
X3491142Y-14862867D01*
X3548285Y-14862867D01*
X3576857Y-14848581D01*
X3591142Y-14834295D01*
X3605428Y-14805724D01*
X3791142Y-14677153D02*
X3819714Y-14677153D01*
X3848285Y-14691438D01*
X3862571Y-14705724D01*
X3876857Y-14734295D01*
X3891142Y-14791438D01*
X3891142Y-14862867D01*
X3876857Y-14920010D01*
X3862571Y-14948581D01*
X3848285Y-14962867D01*
X3819714Y-14977153D01*
X3791142Y-14977153D01*
X3762571Y-14962867D01*
X3748285Y-14948581D01*
X3733999Y-14920010D01*
X3719714Y-14862867D01*
X3719714Y-14791438D01*
X3733999Y-14734295D01*
X3748285Y-14705724D01*
X3762571Y-14691438D01*
X3791142Y-14677153D01*
X4019714Y-14977153D02*
X4019714Y-14777153D01*
X4019714Y-14805724D02*
X4033999Y-14791438D01*
X4062571Y-14777153D01*
X4105428Y-14777153D01*
X4133999Y-14791438D01*
X4148285Y-14820010D01*
X4148285Y-14977153D01*
X4148285Y-14820010D02*
X4162571Y-14791438D01*
X4191142Y-14777153D01*
X4234000Y-14777153D01*
X4262571Y-14791438D01*
X4276857Y-14820010D01*
X4276857Y-14977153D01*
X4419714Y-14977153D02*
X4419714Y-14777153D01*
X4419714Y-14805724D02*
X4434000Y-14791438D01*
X4462571Y-14777153D01*
X4505428Y-14777153D01*
X4534000Y-14791438D01*
X4548285Y-14820010D01*
X4548285Y-14977153D01*
X4548285Y-14820010D02*
X4562571Y-14791438D01*
X4591142Y-14777153D01*
X4634000Y-14777153D01*
X4662571Y-14791438D01*
X4676857Y-14820010D01*
X4676857Y-14977153D01*
X5262571Y-14662867D02*
X5005428Y-15048581D01*
X5648285Y-14677153D02*
X5676857Y-14677153D01*
X5705428Y-14691438D01*
X5719714Y-14705724D01*
X5733999Y-14734295D01*
X5748285Y-14791438D01*
X5748285Y-14862867D01*
X5733999Y-14920010D01*
X5719714Y-14948581D01*
X5705428Y-14962867D01*
X5676857Y-14977153D01*
X5648285Y-14977153D01*
X5619714Y-14962867D01*
X5605428Y-14948581D01*
X5591142Y-14920010D01*
X5576857Y-14862867D01*
X5576857Y-14791438D01*
X5591142Y-14734295D01*
X5605428Y-14705724D01*
X5619714Y-14691438D01*
X5648285Y-14677153D01*
X5876857Y-14948581D02*
X5891142Y-14962867D01*
X5876857Y-14977153D01*
X5862571Y-14962867D01*
X5876857Y-14948581D01*
X5876857Y-14977153D01*
X6076857Y-14677153D02*
X6105428Y-14677153D01*
X6133999Y-14691438D01*
X6148285Y-14705724D01*
X6162571Y-14734295D01*
X6176857Y-14791438D01*
X6176857Y-14862867D01*
X6162571Y-14920010D01*
X6148285Y-14948581D01*
X6133999Y-14962867D01*
X6105428Y-14977153D01*
X6076857Y-14977153D01*
X6048285Y-14962867D01*
X6033999Y-14948581D01*
X6019714Y-14920010D01*
X6005428Y-14862867D01*
X6005428Y-14791438D01*
X6019714Y-14734295D01*
X6033999Y-14705724D01*
X6048285Y-14691438D01*
X6076857Y-14677153D01*
X6276857Y-14677153D02*
X6462571Y-14677153D01*
X6362571Y-14791438D01*
X6405428Y-14791438D01*
X6433999Y-14805724D01*
X6448285Y-14820010D01*
X6462571Y-14848581D01*
X6462571Y-14920010D01*
X6448285Y-14948581D01*
X6433999Y-14962867D01*
X6405428Y-14977153D01*
X6319714Y-14977153D01*
X6291142Y-14962867D01*
X6276857Y-14948581D01*
X6733999Y-14677153D02*
X6591142Y-14677153D01*
X6576857Y-14820010D01*
X6591142Y-14805724D01*
X6619714Y-14791438D01*
X6691142Y-14791438D01*
X6719714Y-14805724D01*
X6733999Y-14820010D01*
X6748285Y-14848581D01*
X6748285Y-14920010D01*
X6733999Y-14948581D01*
X6719714Y-14962867D01*
X6691142Y-14977153D01*
X6619714Y-14977153D01*
X6591142Y-14962867D01*
X6576857Y-14948581D01*
X6862571Y-14677153D02*
X6862571Y-14734295D01*
X6976857Y-14677153D02*
X6976857Y-14734295D01*
X7419714Y-15091438D02*
X7405428Y-15077153D01*
X7376857Y-15034295D01*
X7362571Y-15005724D01*
X7348285Y-14962867D01*
X7333999Y-14891438D01*
X7333999Y-14834295D01*
X7348285Y-14762867D01*
X7362571Y-14720010D01*
X7376857Y-14691438D01*
X7405428Y-14648581D01*
X7419714Y-14634295D01*
X7662571Y-14777153D02*
X7662571Y-14977153D01*
X7591142Y-14662867D02*
X7519714Y-14877153D01*
X7705428Y-14877153D01*
X8048285Y-14977153D02*
X8048285Y-14677153D01*
X8176857Y-14977153D02*
X8176857Y-14820010D01*
X8162571Y-14791438D01*
X8133999Y-14777153D01*
X8091142Y-14777153D01*
X8062571Y-14791438D01*
X8048285Y-14805724D01*
X8362571Y-14977153D02*
X8333999Y-14962867D01*
X8319714Y-14948581D01*
X8305428Y-14920010D01*
X8305428Y-14834295D01*
X8319714Y-14805724D01*
X8333999Y-14791438D01*
X8362571Y-14777153D01*
X8405428Y-14777153D01*
X8434000Y-14791438D01*
X8448285Y-14805724D01*
X8462571Y-14834295D01*
X8462571Y-14920010D01*
X8448285Y-14948581D01*
X8434000Y-14962867D01*
X8405428Y-14977153D01*
X8362571Y-14977153D01*
X8634000Y-14977153D02*
X8605428Y-14962867D01*
X8591142Y-14934295D01*
X8591142Y-14677153D01*
X8862571Y-14962867D02*
X8834000Y-14977153D01*
X8776857Y-14977153D01*
X8748285Y-14962867D01*
X8734000Y-14934295D01*
X8734000Y-14820010D01*
X8748285Y-14791438D01*
X8776857Y-14777153D01*
X8834000Y-14777153D01*
X8862571Y-14791438D01*
X8876857Y-14820010D01*
X8876857Y-14848581D01*
X8734000Y-14877153D01*
X8991142Y-14962867D02*
X9019714Y-14977153D01*
X9076857Y-14977153D01*
X9105428Y-14962867D01*
X9119714Y-14934295D01*
X9119714Y-14920010D01*
X9105428Y-14891438D01*
X9076857Y-14877153D01*
X9034000Y-14877153D01*
X9005428Y-14862867D01*
X8991142Y-14834295D01*
X8991142Y-14820010D01*
X9005428Y-14791438D01*
X9034000Y-14777153D01*
X9076857Y-14777153D01*
X9105428Y-14791438D01*
X9219714Y-15091438D02*
X9234000Y-15077153D01*
X9262571Y-15034295D01*
X9276857Y-15005724D01*
X9291142Y-14962867D01*
X9305428Y-14891438D01*
X9305428Y-14834295D01*
X9291142Y-14762867D01*
X9276857Y-14720010D01*
X9262571Y-14691438D01*
X9234000Y-14648581D01*
X9219714Y-14634295D01*
X2718641Y-15272794D02*
X2718641Y-15202083D01*
X2647930Y-15202083D01*
X2647930Y-15272794D01*
X2718641Y-15272794D01*
X3176857Y-15373153D02*
X3005428Y-15373153D01*
X3091142Y-15373153D02*
X3091142Y-15073153D01*
X3062571Y-15116010D01*
X3033999Y-15144581D01*
X3005428Y-15158867D01*
X3305428Y-15344581D02*
X3319714Y-15358867D01*
X3305428Y-15373153D01*
X3291142Y-15358867D01*
X3305428Y-15344581D01*
X3305428Y-15373153D01*
X3505428Y-15073153D02*
X3533999Y-15073153D01*
X3562571Y-15087438D01*
X3576857Y-15101724D01*
X3591142Y-15130295D01*
X3605428Y-15187438D01*
X3605428Y-15258867D01*
X3591142Y-15316010D01*
X3576857Y-15344581D01*
X3562571Y-15358867D01*
X3533999Y-15373153D01*
X3505428Y-15373153D01*
X3476857Y-15358867D01*
X3462571Y-15344581D01*
X3448285Y-15316010D01*
X3433999Y-15258867D01*
X3433999Y-15187438D01*
X3448285Y-15130295D01*
X3462571Y-15101724D01*
X3476857Y-15087438D01*
X3505428Y-15073153D01*
X3791142Y-15073153D02*
X3819714Y-15073153D01*
X3848285Y-15087438D01*
X3862571Y-15101724D01*
X3876857Y-15130295D01*
X3891142Y-15187438D01*
X3891142Y-15258867D01*
X3876857Y-15316010D01*
X3862571Y-15344581D01*
X3848285Y-15358867D01*
X3819714Y-15373153D01*
X3791142Y-15373153D01*
X3762571Y-15358867D01*
X3748285Y-15344581D01*
X3733999Y-15316010D01*
X3719714Y-15258867D01*
X3719714Y-15187438D01*
X3733999Y-15130295D01*
X3748285Y-15101724D01*
X3762571Y-15087438D01*
X3791142Y-15073153D01*
X4019714Y-15373153D02*
X4019714Y-15173153D01*
X4019714Y-15201724D02*
X4033999Y-15187438D01*
X4062571Y-15173153D01*
X4105428Y-15173153D01*
X4133999Y-15187438D01*
X4148285Y-15216010D01*
X4148285Y-15373153D01*
X4148285Y-15216010D02*
X4162571Y-15187438D01*
X4191142Y-15173153D01*
X4234000Y-15173153D01*
X4262571Y-15187438D01*
X4276857Y-15216010D01*
X4276857Y-15373153D01*
X4419714Y-15373153D02*
X4419714Y-15173153D01*
X4419714Y-15201724D02*
X4434000Y-15187438D01*
X4462571Y-15173153D01*
X4505428Y-15173153D01*
X4534000Y-15187438D01*
X4548285Y-15216010D01*
X4548285Y-15373153D01*
X4548285Y-15216010D02*
X4562571Y-15187438D01*
X4591142Y-15173153D01*
X4634000Y-15173153D01*
X4662571Y-15187438D01*
X4676857Y-15216010D01*
X4676857Y-15373153D01*
X5262571Y-15058867D02*
X5005428Y-15444581D01*
X5648285Y-15073153D02*
X5676857Y-15073153D01*
X5705428Y-15087438D01*
X5719714Y-15101724D01*
X5733999Y-15130295D01*
X5748285Y-15187438D01*
X5748285Y-15258867D01*
X5733999Y-15316010D01*
X5719714Y-15344581D01*
X5705428Y-15358867D01*
X5676857Y-15373153D01*
X5648285Y-15373153D01*
X5619714Y-15358867D01*
X5605428Y-15344581D01*
X5591142Y-15316010D01*
X5576857Y-15258867D01*
X5576857Y-15187438D01*
X5591142Y-15130295D01*
X5605428Y-15101724D01*
X5619714Y-15087438D01*
X5648285Y-15073153D01*
X5876857Y-15344581D02*
X5891142Y-15358867D01*
X5876857Y-15373153D01*
X5862571Y-15358867D01*
X5876857Y-15344581D01*
X5876857Y-15373153D01*
X6076857Y-15073153D02*
X6105428Y-15073153D01*
X6133999Y-15087438D01*
X6148285Y-15101724D01*
X6162571Y-15130295D01*
X6176857Y-15187438D01*
X6176857Y-15258867D01*
X6162571Y-15316010D01*
X6148285Y-15344581D01*
X6133999Y-15358867D01*
X6105428Y-15373153D01*
X6076857Y-15373153D01*
X6048285Y-15358867D01*
X6033999Y-15344581D01*
X6019714Y-15316010D01*
X6005428Y-15258867D01*
X6005428Y-15187438D01*
X6019714Y-15130295D01*
X6033999Y-15101724D01*
X6048285Y-15087438D01*
X6076857Y-15073153D01*
X6276857Y-15073153D02*
X6462571Y-15073153D01*
X6362571Y-15187438D01*
X6405428Y-15187438D01*
X6433999Y-15201724D01*
X6448285Y-15216010D01*
X6462571Y-15244581D01*
X6462571Y-15316010D01*
X6448285Y-15344581D01*
X6433999Y-15358867D01*
X6405428Y-15373153D01*
X6319714Y-15373153D01*
X6291142Y-15358867D01*
X6276857Y-15344581D01*
X6605428Y-15373153D02*
X6662571Y-15373153D01*
X6691142Y-15358867D01*
X6705428Y-15344581D01*
X6733999Y-15301724D01*
X6748285Y-15244581D01*
X6748285Y-15130295D01*
X6733999Y-15101724D01*
X6719714Y-15087438D01*
X6691142Y-15073153D01*
X6633999Y-15073153D01*
X6605428Y-15087438D01*
X6591142Y-15101724D01*
X6576857Y-15130295D01*
X6576857Y-15201724D01*
X6591142Y-15230295D01*
X6605428Y-15244581D01*
X6633999Y-15258867D01*
X6691142Y-15258867D01*
X6719714Y-15244581D01*
X6733999Y-15230295D01*
X6748285Y-15201724D01*
X6862571Y-15073153D02*
X6862571Y-15130295D01*
X6976857Y-15073153D02*
X6976857Y-15130295D01*
X7419714Y-15487438D02*
X7405428Y-15473153D01*
X7376857Y-15430295D01*
X7362571Y-15401724D01*
X7348285Y-15358867D01*
X7333999Y-15287438D01*
X7333999Y-15230295D01*
X7348285Y-15158867D01*
X7362571Y-15116010D01*
X7376857Y-15087438D01*
X7405428Y-15044581D01*
X7419714Y-15030295D01*
X7576857Y-15201724D02*
X7548285Y-15187438D01*
X7533999Y-15173153D01*
X7519714Y-15144581D01*
X7519714Y-15130295D01*
X7533999Y-15101724D01*
X7548285Y-15087438D01*
X7576857Y-15073153D01*
X7633999Y-15073153D01*
X7662571Y-15087438D01*
X7676857Y-15101724D01*
X7691142Y-15130295D01*
X7691142Y-15144581D01*
X7676857Y-15173153D01*
X7662571Y-15187438D01*
X7633999Y-15201724D01*
X7576857Y-15201724D01*
X7548285Y-15216010D01*
X7533999Y-15230295D01*
X7519714Y-15258867D01*
X7519714Y-15316010D01*
X7533999Y-15344581D01*
X7548285Y-15358867D01*
X7576857Y-15373153D01*
X7633999Y-15373153D01*
X7662571Y-15358867D01*
X7676857Y-15344581D01*
X7691142Y-15316010D01*
X7691142Y-15258867D01*
X7676857Y-15230295D01*
X7662571Y-15216010D01*
X7633999Y-15201724D01*
X7805428Y-15101724D02*
X7819714Y-15087438D01*
X7848285Y-15073153D01*
X7919714Y-15073153D01*
X7948285Y-15087438D01*
X7962571Y-15101724D01*
X7976857Y-15130295D01*
X7976857Y-15158867D01*
X7962571Y-15201724D01*
X7791142Y-15373153D01*
X7976857Y-15373153D01*
X8333999Y-15373153D02*
X8333999Y-15073153D01*
X8462571Y-15373153D02*
X8462571Y-15216010D01*
X8448285Y-15187438D01*
X8419714Y-15173153D01*
X8376857Y-15173153D01*
X8348285Y-15187438D01*
X8333999Y-15201724D01*
X8648285Y-15373153D02*
X8619714Y-15358867D01*
X8605428Y-15344581D01*
X8591142Y-15316010D01*
X8591142Y-15230295D01*
X8605428Y-15201724D01*
X8619714Y-15187438D01*
X8648285Y-15173153D01*
X8691142Y-15173153D01*
X8719714Y-15187438D01*
X8734000Y-15201724D01*
X8748285Y-15230295D01*
X8748285Y-15316010D01*
X8734000Y-15344581D01*
X8719714Y-15358867D01*
X8691142Y-15373153D01*
X8648285Y-15373153D01*
X8919714Y-15373153D02*
X8891142Y-15358867D01*
X8876857Y-15330295D01*
X8876857Y-15073153D01*
X9148285Y-15358867D02*
X9119714Y-15373153D01*
X9062571Y-15373153D01*
X9034000Y-15358867D01*
X9019714Y-15330295D01*
X9019714Y-15216010D01*
X9034000Y-15187438D01*
X9062571Y-15173153D01*
X9119714Y-15173153D01*
X9148285Y-15187438D01*
X9162571Y-15216010D01*
X9162571Y-15244581D01*
X9019714Y-15273153D01*
X9276857Y-15358867D02*
X9305428Y-15373153D01*
X9362571Y-15373153D01*
X9391142Y-15358867D01*
X9405428Y-15330295D01*
X9405428Y-15316010D01*
X9391142Y-15287438D01*
X9362571Y-15273153D01*
X9319714Y-15273153D01*
X9291142Y-15258867D01*
X9276857Y-15230295D01*
X9276857Y-15216010D01*
X9291142Y-15187438D01*
X9319714Y-15173153D01*
X9362571Y-15173153D01*
X9391142Y-15187438D01*
X9505428Y-15487438D02*
X9519714Y-15473153D01*
X9548285Y-15430295D01*
X9562571Y-15401724D01*
X9576857Y-15358867D01*
X9591142Y-15287438D01*
X9591142Y-15230295D01*
X9576857Y-15158867D01*
X9562571Y-15116010D01*
X9548285Y-15087438D01*
X9519714Y-15044581D01*
X9505428Y-15030295D01*
X2678285Y-15688438D02*
X2733285Y-15633438D01*
X2678285Y-15578438D01*
X2623285Y-15633438D01*
X2678285Y-15688438D01*
X3176857Y-15769153D02*
X3005428Y-15769153D01*
X3091142Y-15769153D02*
X3091142Y-15469153D01*
X3062571Y-15512010D01*
X3033999Y-15540581D01*
X3005428Y-15554867D01*
X3305428Y-15740581D02*
X3319714Y-15754867D01*
X3305428Y-15769153D01*
X3291142Y-15754867D01*
X3305428Y-15740581D01*
X3305428Y-15769153D01*
X3605428Y-15769153D02*
X3433999Y-15769153D01*
X3519714Y-15769153D02*
X3519714Y-15469153D01*
X3491142Y-15512010D01*
X3462571Y-15540581D01*
X3433999Y-15554867D01*
X3791142Y-15469153D02*
X3819714Y-15469153D01*
X3848285Y-15483438D01*
X3862571Y-15497724D01*
X3876857Y-15526295D01*
X3891142Y-15583438D01*
X3891142Y-15654867D01*
X3876857Y-15712010D01*
X3862571Y-15740581D01*
X3848285Y-15754867D01*
X3819714Y-15769153D01*
X3791142Y-15769153D01*
X3762571Y-15754867D01*
X3748285Y-15740581D01*
X3733999Y-15712010D01*
X3719714Y-15654867D01*
X3719714Y-15583438D01*
X3733999Y-15526295D01*
X3748285Y-15497724D01*
X3762571Y-15483438D01*
X3791142Y-15469153D01*
X4019714Y-15769153D02*
X4019714Y-15569153D01*
X4019714Y-15597724D02*
X4033999Y-15583438D01*
X4062571Y-15569153D01*
X4105428Y-15569153D01*
X4133999Y-15583438D01*
X4148285Y-15612010D01*
X4148285Y-15769153D01*
X4148285Y-15612010D02*
X4162571Y-15583438D01*
X4191142Y-15569153D01*
X4234000Y-15569153D01*
X4262571Y-15583438D01*
X4276857Y-15612010D01*
X4276857Y-15769153D01*
X4419714Y-15769153D02*
X4419714Y-15569153D01*
X4419714Y-15597724D02*
X4434000Y-15583438D01*
X4462571Y-15569153D01*
X4505428Y-15569153D01*
X4534000Y-15583438D01*
X4548285Y-15612010D01*
X4548285Y-15769153D01*
X4548285Y-15612010D02*
X4562571Y-15583438D01*
X4591142Y-15569153D01*
X4634000Y-15569153D01*
X4662571Y-15583438D01*
X4676857Y-15612010D01*
X4676857Y-15769153D01*
X5262571Y-15454867D02*
X5005428Y-15840581D01*
X5648285Y-15469153D02*
X5676857Y-15469153D01*
X5705428Y-15483438D01*
X5719714Y-15497724D01*
X5733999Y-15526295D01*
X5748285Y-15583438D01*
X5748285Y-15654867D01*
X5733999Y-15712010D01*
X5719714Y-15740581D01*
X5705428Y-15754867D01*
X5676857Y-15769153D01*
X5648285Y-15769153D01*
X5619714Y-15754867D01*
X5605428Y-15740581D01*
X5591142Y-15712010D01*
X5576857Y-15654867D01*
X5576857Y-15583438D01*
X5591142Y-15526295D01*
X5605428Y-15497724D01*
X5619714Y-15483438D01*
X5648285Y-15469153D01*
X5876857Y-15740581D02*
X5891142Y-15754867D01*
X5876857Y-15769153D01*
X5862571Y-15754867D01*
X5876857Y-15740581D01*
X5876857Y-15769153D01*
X6076857Y-15469153D02*
X6105428Y-15469153D01*
X6133999Y-15483438D01*
X6148285Y-15497724D01*
X6162571Y-15526295D01*
X6176857Y-15583438D01*
X6176857Y-15654867D01*
X6162571Y-15712010D01*
X6148285Y-15740581D01*
X6133999Y-15754867D01*
X6105428Y-15769153D01*
X6076857Y-15769153D01*
X6048285Y-15754867D01*
X6033999Y-15740581D01*
X6019714Y-15712010D01*
X6005428Y-15654867D01*
X6005428Y-15583438D01*
X6019714Y-15526295D01*
X6033999Y-15497724D01*
X6048285Y-15483438D01*
X6076857Y-15469153D01*
X6433999Y-15569153D02*
X6433999Y-15769153D01*
X6362571Y-15454867D02*
X6291142Y-15669153D01*
X6476857Y-15669153D01*
X6562571Y-15469153D02*
X6748285Y-15469153D01*
X6648285Y-15583438D01*
X6691142Y-15583438D01*
X6719714Y-15597724D01*
X6733999Y-15612010D01*
X6748285Y-15640581D01*
X6748285Y-15712010D01*
X6733999Y-15740581D01*
X6719714Y-15754867D01*
X6691142Y-15769153D01*
X6605428Y-15769153D01*
X6576857Y-15754867D01*
X6562571Y-15740581D01*
X6862571Y-15469153D02*
X6862571Y-15526295D01*
X6976857Y-15469153D02*
X6976857Y-15526295D01*
X7419714Y-15883438D02*
X7405428Y-15869153D01*
X7376857Y-15826295D01*
X7362571Y-15797724D01*
X7348285Y-15754867D01*
X7333999Y-15683438D01*
X7333999Y-15626295D01*
X7348285Y-15554867D01*
X7362571Y-15512010D01*
X7376857Y-15483438D01*
X7405428Y-15440581D01*
X7419714Y-15426295D01*
X7662571Y-15569153D02*
X7662571Y-15769153D01*
X7591142Y-15454867D02*
X7519714Y-15669153D01*
X7705428Y-15669153D01*
X7862571Y-15597724D02*
X7833999Y-15583438D01*
X7819714Y-15569153D01*
X7805428Y-15540581D01*
X7805428Y-15526295D01*
X7819714Y-15497724D01*
X7833999Y-15483438D01*
X7862571Y-15469153D01*
X7919714Y-15469153D01*
X7948285Y-15483438D01*
X7962571Y-15497724D01*
X7976857Y-15526295D01*
X7976857Y-15540581D01*
X7962571Y-15569153D01*
X7948285Y-15583438D01*
X7919714Y-15597724D01*
X7862571Y-15597724D01*
X7833999Y-15612010D01*
X7819714Y-15626295D01*
X7805428Y-15654867D01*
X7805428Y-15712010D01*
X7819714Y-15740581D01*
X7833999Y-15754867D01*
X7862571Y-15769153D01*
X7919714Y-15769153D01*
X7948285Y-15754867D01*
X7962571Y-15740581D01*
X7976857Y-15712010D01*
X7976857Y-15654867D01*
X7962571Y-15626295D01*
X7948285Y-15612010D01*
X7919714Y-15597724D01*
X8333999Y-15769153D02*
X8333999Y-15469153D01*
X8462571Y-15769153D02*
X8462571Y-15612010D01*
X8448285Y-15583438D01*
X8419714Y-15569153D01*
X8376857Y-15569153D01*
X8348285Y-15583438D01*
X8333999Y-15597724D01*
X8648285Y-15769153D02*
X8619714Y-15754867D01*
X8605428Y-15740581D01*
X8591142Y-15712010D01*
X8591142Y-15626295D01*
X8605428Y-15597724D01*
X8619714Y-15583438D01*
X8648285Y-15569153D01*
X8691142Y-15569153D01*
X8719714Y-15583438D01*
X8734000Y-15597724D01*
X8748285Y-15626295D01*
X8748285Y-15712010D01*
X8734000Y-15740581D01*
X8719714Y-15754867D01*
X8691142Y-15769153D01*
X8648285Y-15769153D01*
X8919714Y-15769153D02*
X8891142Y-15754867D01*
X8876857Y-15726295D01*
X8876857Y-15469153D01*
X9148285Y-15754867D02*
X9119714Y-15769153D01*
X9062571Y-15769153D01*
X9034000Y-15754867D01*
X9019714Y-15726295D01*
X9019714Y-15612010D01*
X9034000Y-15583438D01*
X9062571Y-15569153D01*
X9119714Y-15569153D01*
X9148285Y-15583438D01*
X9162571Y-15612010D01*
X9162571Y-15640581D01*
X9019714Y-15669153D01*
X9276857Y-15754867D02*
X9305428Y-15769153D01*
X9362571Y-15769153D01*
X9391142Y-15754867D01*
X9405428Y-15726295D01*
X9405428Y-15712010D01*
X9391142Y-15683438D01*
X9362571Y-15669153D01*
X9319714Y-15669153D01*
X9291142Y-15654867D01*
X9276857Y-15626295D01*
X9276857Y-15612010D01*
X9291142Y-15583438D01*
X9319714Y-15569153D01*
X9362571Y-15569153D01*
X9391142Y-15583438D01*
X9505428Y-15883438D02*
X9519714Y-15869153D01*
X9548285Y-15826295D01*
X9562571Y-15797724D01*
X9576857Y-15754867D01*
X9591142Y-15683438D01*
X9591142Y-15626295D01*
X9576857Y-15554867D01*
X9562571Y-15512010D01*
X9548285Y-15483438D01*
X9519714Y-15440581D01*
X9505428Y-15426295D01*
X2483285Y-15904438D02*
X2733285Y-16154438D01*
X2733285Y-15904438D02*
X2483285Y-16154438D01*
X2733285Y-16029438D02*
G75*
G03X2733285Y-16029438I-125000J0D01*
G01*
X3005428Y-15893724D02*
X3019714Y-15879438D01*
X3048285Y-15865153D01*
X3119714Y-15865153D01*
X3148285Y-15879438D01*
X3162571Y-15893724D01*
X3176857Y-15922295D01*
X3176857Y-15950867D01*
X3162571Y-15993724D01*
X2991142Y-16165153D01*
X3176857Y-16165153D01*
X3305428Y-16136581D02*
X3319714Y-16150867D01*
X3305428Y-16165153D01*
X3291142Y-16150867D01*
X3305428Y-16136581D01*
X3305428Y-16165153D01*
X3591142Y-15865153D02*
X3448285Y-15865153D01*
X3433999Y-16008010D01*
X3448285Y-15993724D01*
X3476857Y-15979438D01*
X3548285Y-15979438D01*
X3576857Y-15993724D01*
X3591142Y-16008010D01*
X3605428Y-16036581D01*
X3605428Y-16108010D01*
X3591142Y-16136581D01*
X3576857Y-16150867D01*
X3548285Y-16165153D01*
X3476857Y-16165153D01*
X3448285Y-16150867D01*
X3433999Y-16136581D01*
X3791142Y-15865153D02*
X3819714Y-15865153D01*
X3848285Y-15879438D01*
X3862571Y-15893724D01*
X3876857Y-15922295D01*
X3891142Y-15979438D01*
X3891142Y-16050867D01*
X3876857Y-16108010D01*
X3862571Y-16136581D01*
X3848285Y-16150867D01*
X3819714Y-16165153D01*
X3791142Y-16165153D01*
X3762571Y-16150867D01*
X3748285Y-16136581D01*
X3733999Y-16108010D01*
X3719714Y-16050867D01*
X3719714Y-15979438D01*
X3733999Y-15922295D01*
X3748285Y-15893724D01*
X3762571Y-15879438D01*
X3791142Y-15865153D01*
X4019714Y-16165153D02*
X4019714Y-15965153D01*
X4019714Y-15993724D02*
X4033999Y-15979438D01*
X4062571Y-15965153D01*
X4105428Y-15965153D01*
X4133999Y-15979438D01*
X4148285Y-16008010D01*
X4148285Y-16165153D01*
X4148285Y-16008010D02*
X4162571Y-15979438D01*
X4191142Y-15965153D01*
X4234000Y-15965153D01*
X4262571Y-15979438D01*
X4276857Y-16008010D01*
X4276857Y-16165153D01*
X4419714Y-16165153D02*
X4419714Y-15965153D01*
X4419714Y-15993724D02*
X4434000Y-15979438D01*
X4462571Y-15965153D01*
X4505428Y-15965153D01*
X4534000Y-15979438D01*
X4548285Y-16008010D01*
X4548285Y-16165153D01*
X4548285Y-16008010D02*
X4562571Y-15979438D01*
X4591142Y-15965153D01*
X4634000Y-15965153D01*
X4662571Y-15979438D01*
X4676857Y-16008010D01*
X4676857Y-16165153D01*
X5262571Y-15850867D02*
X5005428Y-16236581D01*
X5648285Y-15865153D02*
X5676857Y-15865153D01*
X5705428Y-15879438D01*
X5719714Y-15893724D01*
X5733999Y-15922295D01*
X5748285Y-15979438D01*
X5748285Y-16050867D01*
X5733999Y-16108010D01*
X5719714Y-16136581D01*
X5705428Y-16150867D01*
X5676857Y-16165153D01*
X5648285Y-16165153D01*
X5619714Y-16150867D01*
X5605428Y-16136581D01*
X5591142Y-16108010D01*
X5576857Y-16050867D01*
X5576857Y-15979438D01*
X5591142Y-15922295D01*
X5605428Y-15893724D01*
X5619714Y-15879438D01*
X5648285Y-15865153D01*
X5876857Y-16136581D02*
X5891142Y-16150867D01*
X5876857Y-16165153D01*
X5862571Y-16150867D01*
X5876857Y-16136581D01*
X5876857Y-16165153D01*
X6076857Y-15865153D02*
X6105428Y-15865153D01*
X6133999Y-15879438D01*
X6148285Y-15893724D01*
X6162571Y-15922295D01*
X6176857Y-15979438D01*
X6176857Y-16050867D01*
X6162571Y-16108010D01*
X6148285Y-16136581D01*
X6133999Y-16150867D01*
X6105428Y-16165153D01*
X6076857Y-16165153D01*
X6048285Y-16150867D01*
X6033999Y-16136581D01*
X6019714Y-16108010D01*
X6005428Y-16050867D01*
X6005428Y-15979438D01*
X6019714Y-15922295D01*
X6033999Y-15893724D01*
X6048285Y-15879438D01*
X6076857Y-15865153D01*
X6319714Y-16165153D02*
X6376857Y-16165153D01*
X6405428Y-16150867D01*
X6419714Y-16136581D01*
X6448285Y-16093724D01*
X6462571Y-16036581D01*
X6462571Y-15922295D01*
X6448285Y-15893724D01*
X6433999Y-15879438D01*
X6405428Y-15865153D01*
X6348285Y-15865153D01*
X6319714Y-15879438D01*
X6305428Y-15893724D01*
X6291142Y-15922295D01*
X6291142Y-15993724D01*
X6305428Y-16022295D01*
X6319714Y-16036581D01*
X6348285Y-16050867D01*
X6405428Y-16050867D01*
X6433999Y-16036581D01*
X6448285Y-16022295D01*
X6462571Y-15993724D01*
X6633999Y-15993724D02*
X6605428Y-15979438D01*
X6591142Y-15965153D01*
X6576857Y-15936581D01*
X6576857Y-15922295D01*
X6591142Y-15893724D01*
X6605428Y-15879438D01*
X6633999Y-15865153D01*
X6691142Y-15865153D01*
X6719714Y-15879438D01*
X6733999Y-15893724D01*
X6748285Y-15922295D01*
X6748285Y-15936581D01*
X6733999Y-15965153D01*
X6719714Y-15979438D01*
X6691142Y-15993724D01*
X6633999Y-15993724D01*
X6605428Y-16008010D01*
X6591142Y-16022295D01*
X6576857Y-16050867D01*
X6576857Y-16108010D01*
X6591142Y-16136581D01*
X6605428Y-16150867D01*
X6633999Y-16165153D01*
X6691142Y-16165153D01*
X6719714Y-16150867D01*
X6733999Y-16136581D01*
X6748285Y-16108010D01*
X6748285Y-16050867D01*
X6733999Y-16022295D01*
X6719714Y-16008010D01*
X6691142Y-15993724D01*
X6862571Y-15865153D02*
X6862571Y-15922295D01*
X6976857Y-15865153D02*
X6976857Y-15922295D01*
X7419714Y-16279438D02*
X7405428Y-16265153D01*
X7376857Y-16222295D01*
X7362571Y-16193724D01*
X7348285Y-16150867D01*
X7333999Y-16079438D01*
X7333999Y-16022295D01*
X7348285Y-15950867D01*
X7362571Y-15908010D01*
X7376857Y-15879438D01*
X7405428Y-15836581D01*
X7419714Y-15822295D01*
X7691142Y-16165153D02*
X7519714Y-16165153D01*
X7605428Y-16165153D02*
X7605428Y-15865153D01*
X7576857Y-15908010D01*
X7548285Y-15936581D01*
X7519714Y-15950867D01*
X7805428Y-15893724D02*
X7819714Y-15879438D01*
X7848285Y-15865153D01*
X7919714Y-15865153D01*
X7948285Y-15879438D01*
X7962571Y-15893724D01*
X7976857Y-15922295D01*
X7976857Y-15950867D01*
X7962571Y-15993724D01*
X7791142Y-16165153D01*
X7976857Y-16165153D01*
X8333999Y-16165153D02*
X8333999Y-15865153D01*
X8462571Y-16165153D02*
X8462571Y-16008010D01*
X8448285Y-15979438D01*
X8419714Y-15965153D01*
X8376857Y-15965153D01*
X8348285Y-15979438D01*
X8333999Y-15993724D01*
X8648285Y-16165153D02*
X8619714Y-16150867D01*
X8605428Y-16136581D01*
X8591142Y-16108010D01*
X8591142Y-16022295D01*
X8605428Y-15993724D01*
X8619714Y-15979438D01*
X8648285Y-15965153D01*
X8691142Y-15965153D01*
X8719714Y-15979438D01*
X8734000Y-15993724D01*
X8748285Y-16022295D01*
X8748285Y-16108010D01*
X8734000Y-16136581D01*
X8719714Y-16150867D01*
X8691142Y-16165153D01*
X8648285Y-16165153D01*
X8919714Y-16165153D02*
X8891142Y-16150867D01*
X8876857Y-16122295D01*
X8876857Y-15865153D01*
X9148285Y-16150867D02*
X9119714Y-16165153D01*
X9062571Y-16165153D01*
X9034000Y-16150867D01*
X9019714Y-16122295D01*
X9019714Y-16008010D01*
X9034000Y-15979438D01*
X9062571Y-15965153D01*
X9119714Y-15965153D01*
X9148285Y-15979438D01*
X9162571Y-16008010D01*
X9162571Y-16036581D01*
X9019714Y-16065153D01*
X9276857Y-16150867D02*
X9305428Y-16165153D01*
X9362571Y-16165153D01*
X9391142Y-16150867D01*
X9405428Y-16122295D01*
X9405428Y-16108010D01*
X9391142Y-16079438D01*
X9362571Y-16065153D01*
X9319714Y-16065153D01*
X9291142Y-16050867D01*
X9276857Y-16022295D01*
X9276857Y-16008010D01*
X9291142Y-15979438D01*
X9319714Y-15965153D01*
X9362571Y-15965153D01*
X9391142Y-15979438D01*
X9505428Y-16279438D02*
X9519714Y-16265153D01*
X9548285Y-16222295D01*
X9562571Y-16193724D01*
X9576857Y-16150867D01*
X9591142Y-16079438D01*
X9591142Y-16022295D01*
X9576857Y-15950867D01*
X9562571Y-15908010D01*
X9548285Y-15879438D01*
X9519714Y-15836581D01*
X9505428Y-15822295D01*
M02*
