G04 #@! TF.GenerationSoftware,KiCad,Pcbnew,(5.1.5-0-10_14)*
G04 #@! TF.CreationDate,2020-05-11T17:30:39+02:00*
G04 #@! TF.ProjectId,Main_Board_v1_1_smd,4d61696e-5f42-46f6-9172-645f76315f31,rev?*
G04 #@! TF.SameCoordinates,Original*
G04 #@! TF.FileFunction,Legend,Top*
G04 #@! TF.FilePolarity,Positive*
%FSLAX46Y46*%
G04 Gerber Fmt 4.6, Leading zero omitted, Abs format (unit mm)*
G04 Created by KiCad (PCBNEW (5.1.5-0-10_14)) date 2020-05-11 17:30:39*
%MOMM*%
%LPD*%
G04 APERTURE LIST*
%ADD10C,0.300000*%
%ADD11C,0.120000*%
%ADD12C,0.100000*%
%ADD13C,0.150000*%
G04 APERTURE END LIST*
D10*
X141529282Y-53397954D02*
X141529282Y-51897954D01*
X142100711Y-51897954D01*
X142243568Y-51969383D01*
X142314996Y-52040811D01*
X142386425Y-52183668D01*
X142386425Y-52397954D01*
X142314996Y-52540811D01*
X142243568Y-52612240D01*
X142100711Y-52683668D01*
X141529282Y-52683668D01*
X143029282Y-53397954D02*
X143029282Y-52397954D01*
X143029282Y-52683668D02*
X143100711Y-52540811D01*
X143172139Y-52469383D01*
X143314996Y-52397954D01*
X143457854Y-52397954D01*
X144529282Y-53326525D02*
X144386425Y-53397954D01*
X144100711Y-53397954D01*
X143957854Y-53326525D01*
X143886425Y-53183668D01*
X143886425Y-52612240D01*
X143957854Y-52469383D01*
X144100711Y-52397954D01*
X144386425Y-52397954D01*
X144529282Y-52469383D01*
X144600711Y-52612240D01*
X144600711Y-52755097D01*
X143886425Y-52897954D01*
X145172139Y-53326525D02*
X145314996Y-53397954D01*
X145600711Y-53397954D01*
X145743568Y-53326525D01*
X145814996Y-53183668D01*
X145814996Y-53112240D01*
X145743568Y-52969383D01*
X145600711Y-52897954D01*
X145386425Y-52897954D01*
X145243568Y-52826525D01*
X145172139Y-52683668D01*
X145172139Y-52612240D01*
X145243568Y-52469383D01*
X145386425Y-52397954D01*
X145600711Y-52397954D01*
X145743568Y-52469383D01*
X146386425Y-53326525D02*
X146529282Y-53397954D01*
X146814996Y-53397954D01*
X146957854Y-53326525D01*
X147029282Y-53183668D01*
X147029282Y-53112240D01*
X146957854Y-52969383D01*
X146814996Y-52897954D01*
X146600711Y-52897954D01*
X146457854Y-52826525D01*
X146386425Y-52683668D01*
X146386425Y-52612240D01*
X146457854Y-52469383D01*
X146600711Y-52397954D01*
X146814996Y-52397954D01*
X146957854Y-52469383D01*
X147672139Y-52612240D02*
X148172139Y-52612240D01*
X148386425Y-53397954D02*
X147672139Y-53397954D01*
X147672139Y-51897954D01*
X148386425Y-51897954D01*
X148886425Y-53397954D02*
X149672139Y-52397954D01*
X148886425Y-52397954D02*
X149672139Y-53397954D01*
X150029282Y-52397954D02*
X150600711Y-52397954D01*
X150243568Y-51897954D02*
X150243568Y-53183668D01*
X150314996Y-53326525D01*
X150457854Y-53397954D01*
X150600711Y-53397954D01*
X142529282Y-112447954D02*
X142529282Y-110947954D01*
X143100711Y-110947954D01*
X143243568Y-111019383D01*
X143314996Y-111090811D01*
X143386425Y-111233668D01*
X143386425Y-111447954D01*
X143314996Y-111590811D01*
X143243568Y-111662240D01*
X143100711Y-111733668D01*
X142529282Y-111733668D01*
X144029282Y-112447954D02*
X144029282Y-111447954D01*
X144029282Y-111733668D02*
X144100711Y-111590811D01*
X144172139Y-111519383D01*
X144314996Y-111447954D01*
X144457854Y-111447954D01*
X145529282Y-112376525D02*
X145386425Y-112447954D01*
X145100711Y-112447954D01*
X144957854Y-112376525D01*
X144886425Y-112233668D01*
X144886425Y-111662240D01*
X144957854Y-111519383D01*
X145100711Y-111447954D01*
X145386425Y-111447954D01*
X145529282Y-111519383D01*
X145600711Y-111662240D01*
X145600711Y-111805097D01*
X144886425Y-111947954D01*
X146172139Y-112376525D02*
X146314996Y-112447954D01*
X146600711Y-112447954D01*
X146743568Y-112376525D01*
X146814996Y-112233668D01*
X146814996Y-112162240D01*
X146743568Y-112019383D01*
X146600711Y-111947954D01*
X146386425Y-111947954D01*
X146243568Y-111876525D01*
X146172139Y-111733668D01*
X146172139Y-111662240D01*
X146243568Y-111519383D01*
X146386425Y-111447954D01*
X146600711Y-111447954D01*
X146743568Y-111519383D01*
X147386425Y-112376525D02*
X147529282Y-112447954D01*
X147814996Y-112447954D01*
X147957854Y-112376525D01*
X148029282Y-112233668D01*
X148029282Y-112162240D01*
X147957854Y-112019383D01*
X147814996Y-111947954D01*
X147600711Y-111947954D01*
X147457854Y-111876525D01*
X147386425Y-111733668D01*
X147386425Y-111662240D01*
X147457854Y-111519383D01*
X147600711Y-111447954D01*
X147814996Y-111447954D01*
X147957854Y-111519383D01*
X148672139Y-112447954D02*
X148672139Y-110947954D01*
X149386425Y-111447954D02*
X149386425Y-112447954D01*
X149386425Y-111590811D02*
X149457854Y-111519383D01*
X149600711Y-111447954D01*
X149814996Y-111447954D01*
X149957854Y-111519383D01*
X150029282Y-111662240D01*
X150029282Y-112447954D01*
X150529282Y-111447954D02*
X151100711Y-111447954D01*
X150743568Y-110947954D02*
X150743568Y-112233668D01*
X150814996Y-112376525D01*
X150957854Y-112447954D01*
X151100711Y-112447954D01*
X144664996Y-96062240D02*
X144164996Y-96062240D01*
X144164996Y-96847954D02*
X144164996Y-95347954D01*
X144879282Y-95347954D01*
X145664996Y-96847954D02*
X145522139Y-96776525D01*
X145450711Y-96633668D01*
X145450711Y-95347954D01*
X146450711Y-96847954D02*
X146307854Y-96776525D01*
X146236425Y-96705097D01*
X146164996Y-96562240D01*
X146164996Y-96133668D01*
X146236425Y-95990811D01*
X146307854Y-95919383D01*
X146450711Y-95847954D01*
X146664996Y-95847954D01*
X146807854Y-95919383D01*
X146879282Y-95990811D01*
X146950711Y-96133668D01*
X146950711Y-96562240D01*
X146879282Y-96705097D01*
X146807854Y-96776525D01*
X146664996Y-96847954D01*
X146450711Y-96847954D01*
X147450711Y-95847954D02*
X147736425Y-96847954D01*
X148022139Y-96133668D01*
X148307854Y-96847954D01*
X148593568Y-95847954D01*
X147014996Y-72962240D02*
X146514996Y-72962240D01*
X146514996Y-73747954D02*
X146514996Y-72247954D01*
X147229282Y-72247954D01*
X148014996Y-73747954D02*
X147872139Y-73676525D01*
X147800711Y-73533668D01*
X147800711Y-72247954D01*
X148800711Y-73747954D02*
X148657854Y-73676525D01*
X148586425Y-73605097D01*
X148514996Y-73462240D01*
X148514996Y-73033668D01*
X148586425Y-72890811D01*
X148657854Y-72819383D01*
X148800711Y-72747954D01*
X149014996Y-72747954D01*
X149157854Y-72819383D01*
X149229282Y-72890811D01*
X149300711Y-73033668D01*
X149300711Y-73462240D01*
X149229282Y-73605097D01*
X149157854Y-73676525D01*
X149014996Y-73747954D01*
X148800711Y-73747954D01*
X149800711Y-72747954D02*
X150086425Y-73747954D01*
X150372139Y-73033668D01*
X150657854Y-73747954D01*
X150943568Y-72747954D01*
X45122139Y-42076525D02*
X45336425Y-42147954D01*
X45693568Y-42147954D01*
X45836425Y-42076525D01*
X45907854Y-42005097D01*
X45979282Y-41862240D01*
X45979282Y-41719383D01*
X45907854Y-41576525D01*
X45836425Y-41505097D01*
X45693568Y-41433668D01*
X45407854Y-41362240D01*
X45264996Y-41290811D01*
X45193568Y-41219383D01*
X45122139Y-41076525D01*
X45122139Y-40933668D01*
X45193568Y-40790811D01*
X45264996Y-40719383D01*
X45407854Y-40647954D01*
X45764996Y-40647954D01*
X45979282Y-40719383D01*
X46407854Y-40647954D02*
X46907854Y-42147954D01*
X47407854Y-40647954D01*
X48693568Y-42147954D02*
X47836425Y-42147954D01*
X48264996Y-42147954D02*
X48264996Y-40647954D01*
X48122139Y-40862240D01*
X47979282Y-41005097D01*
X47836425Y-41076525D01*
X85722139Y-93876525D02*
X85936425Y-93947954D01*
X86293568Y-93947954D01*
X86436425Y-93876525D01*
X86507854Y-93805097D01*
X86579282Y-93662240D01*
X86579282Y-93519383D01*
X86507854Y-93376525D01*
X86436425Y-93305097D01*
X86293568Y-93233668D01*
X86007854Y-93162240D01*
X85864996Y-93090811D01*
X85793568Y-93019383D01*
X85722139Y-92876525D01*
X85722139Y-92733668D01*
X85793568Y-92590811D01*
X85864996Y-92519383D01*
X86007854Y-92447954D01*
X86364996Y-92447954D01*
X86579282Y-92519383D01*
X87007854Y-92447954D02*
X87507854Y-93947954D01*
X88007854Y-92447954D01*
X88436425Y-92590811D02*
X88507854Y-92519383D01*
X88650711Y-92447954D01*
X89007854Y-92447954D01*
X89150711Y-92519383D01*
X89222139Y-92590811D01*
X89293568Y-92733668D01*
X89293568Y-92876525D01*
X89222139Y-93090811D01*
X88364996Y-93947954D01*
X89293568Y-93947954D01*
X58672139Y-92426525D02*
X58886425Y-92497954D01*
X59243568Y-92497954D01*
X59386425Y-92426525D01*
X59457854Y-92355097D01*
X59529282Y-92212240D01*
X59529282Y-92069383D01*
X59457854Y-91926525D01*
X59386425Y-91855097D01*
X59243568Y-91783668D01*
X58957854Y-91712240D01*
X58814996Y-91640811D01*
X58743568Y-91569383D01*
X58672139Y-91426525D01*
X58672139Y-91283668D01*
X58743568Y-91140811D01*
X58814996Y-91069383D01*
X58957854Y-90997954D01*
X59314996Y-90997954D01*
X59529282Y-91069383D01*
X59957854Y-90997954D02*
X60457854Y-92497954D01*
X60957854Y-90997954D01*
X61314996Y-90997954D02*
X62243568Y-90997954D01*
X61743568Y-91569383D01*
X61957854Y-91569383D01*
X62100711Y-91640811D01*
X62172139Y-91712240D01*
X62243568Y-91855097D01*
X62243568Y-92212240D01*
X62172139Y-92355097D01*
X62100711Y-92426525D01*
X61957854Y-92497954D01*
X61529282Y-92497954D01*
X61386425Y-92426525D01*
X61314996Y-92355097D01*
X43772139Y-91576525D02*
X43986425Y-91647954D01*
X44343568Y-91647954D01*
X44486425Y-91576525D01*
X44557854Y-91505097D01*
X44629282Y-91362240D01*
X44629282Y-91219383D01*
X44557854Y-91076525D01*
X44486425Y-91005097D01*
X44343568Y-90933668D01*
X44057854Y-90862240D01*
X43914996Y-90790811D01*
X43843568Y-90719383D01*
X43772139Y-90576525D01*
X43772139Y-90433668D01*
X43843568Y-90290811D01*
X43914996Y-90219383D01*
X44057854Y-90147954D01*
X44414996Y-90147954D01*
X44629282Y-90219383D01*
X45057854Y-90147954D02*
X45557854Y-91647954D01*
X46057854Y-90147954D01*
X47200711Y-90647954D02*
X47200711Y-91647954D01*
X46843568Y-90076525D02*
X46486425Y-91147954D01*
X47414996Y-91147954D01*
X48236425Y-91076525D02*
X49379282Y-91076525D01*
X48807854Y-91647954D02*
X48807854Y-90505097D01*
X62936425Y-91176525D02*
X64079282Y-91176525D01*
X63507854Y-91747954D02*
X63507854Y-90605097D01*
X77536425Y-91226525D02*
X78679282Y-91226525D01*
X78107854Y-91797954D02*
X78107854Y-90655097D01*
X59529282Y-78947954D02*
X58672139Y-78947954D01*
X59100711Y-78947954D02*
X59100711Y-77447954D01*
X58957854Y-77662240D01*
X58814996Y-77805097D01*
X58672139Y-77876525D01*
X60100711Y-77590811D02*
X60172139Y-77519383D01*
X60314996Y-77447954D01*
X60672139Y-77447954D01*
X60814996Y-77519383D01*
X60886425Y-77590811D01*
X60957854Y-77733668D01*
X60957854Y-77876525D01*
X60886425Y-78090811D01*
X60029282Y-78947954D01*
X60957854Y-78947954D01*
X61386425Y-77447954D02*
X61886425Y-78947954D01*
X62386425Y-77447954D01*
X55836425Y-78326525D02*
X56979282Y-78326525D01*
X56407854Y-78897954D02*
X56407854Y-77755097D01*
X59386425Y-41776525D02*
X60529282Y-41776525D01*
X59957854Y-42347954D02*
X59957854Y-41205097D01*
X52436425Y-41776525D02*
X53579282Y-41776525D01*
X53007854Y-42347954D02*
X53007854Y-41205097D01*
D11*
X120187854Y-84039383D02*
X120187854Y-85369383D01*
X118857854Y-84039383D02*
X120187854Y-84039383D01*
X117587854Y-84039383D02*
X117587854Y-86699383D01*
X117587854Y-86699383D02*
X79427854Y-86699383D01*
X117587854Y-84039383D02*
X79427854Y-84039383D01*
X79427854Y-84039383D02*
X79427854Y-86699383D01*
X102867854Y-103929383D02*
X103317854Y-103929383D01*
X98097854Y-98709383D02*
X98097854Y-99159383D01*
X98547854Y-98709383D02*
X98097854Y-98709383D01*
X103317854Y-98709383D02*
X103317854Y-99159383D01*
X102867854Y-98709383D02*
X103317854Y-98709383D01*
X98097854Y-103929383D02*
X98097854Y-103479383D01*
X98547854Y-103929383D02*
X98097854Y-103929383D01*
X97137854Y-58397383D02*
X97137854Y-58847383D01*
X102357854Y-53627383D02*
X101907854Y-53627383D01*
X102357854Y-54077383D02*
X102357854Y-53627383D01*
X102357854Y-58847383D02*
X101907854Y-58847383D01*
X102357854Y-58397383D02*
X102357854Y-58847383D01*
X97137854Y-53627383D02*
X97587854Y-53627383D01*
X97137854Y-54077383D02*
X97137854Y-53627383D01*
X94107854Y-88969383D02*
X91507854Y-88969383D01*
X94107854Y-89269383D02*
X94107854Y-88969383D01*
X89007854Y-89269383D02*
X94107854Y-89269383D01*
X89007854Y-89169383D02*
X89007854Y-89269383D01*
X91607854Y-88969383D02*
X91907854Y-89069383D01*
X89007854Y-88969383D02*
X91607854Y-88969383D01*
X89007854Y-89069383D02*
X89007854Y-88969383D01*
X94107854Y-89069383D02*
X89007854Y-89069383D01*
X94107854Y-88869383D02*
X94107854Y-89069383D01*
X89007854Y-88869383D02*
X94107854Y-88869383D01*
X89007854Y-89169383D02*
X89007854Y-88869383D01*
X94107854Y-89169383D02*
X89007854Y-89169383D01*
X88977854Y-91599383D02*
X88977854Y-90269383D01*
X90307854Y-91599383D02*
X88977854Y-91599383D01*
X91577854Y-91599383D02*
X91577854Y-88939383D01*
X91577854Y-88939383D02*
X94177854Y-88939383D01*
X91577854Y-91599383D02*
X94177854Y-91599383D01*
X94177854Y-91599383D02*
X94177854Y-88939383D01*
X73527854Y-80789383D02*
X74627854Y-80789383D01*
X73527854Y-80519383D02*
X73527854Y-80789383D01*
X72027854Y-80519383D02*
X73527854Y-80519383D01*
X73527854Y-87149383D02*
X76357854Y-87149383D01*
X73527854Y-87419383D02*
X73527854Y-87149383D01*
X72027854Y-87419383D02*
X73527854Y-87419383D01*
X58186587Y-114179383D02*
X58529121Y-114179383D01*
X58186587Y-113159383D02*
X58529121Y-113159383D01*
X56057854Y-112879383D02*
X50047854Y-112879383D01*
X53807854Y-106059383D02*
X50047854Y-106059383D01*
X50047854Y-112879383D02*
X50047854Y-111619383D01*
X50047854Y-106059383D02*
X50047854Y-107319383D01*
X90927854Y-81579383D02*
X93357854Y-81579383D01*
X90907854Y-81569383D02*
X90907854Y-80569383D01*
X90907854Y-78519383D02*
X92757854Y-78519383D01*
X90907854Y-79569383D02*
X90907854Y-78519383D01*
X53457854Y-100489383D02*
X55657854Y-100489383D01*
X53457854Y-98319383D02*
X53457854Y-100489383D01*
X55657854Y-98319383D02*
X55657854Y-100489383D01*
X53457854Y-98319383D02*
X55657854Y-98319383D01*
X49927854Y-94419383D02*
X49927854Y-93089383D01*
X49927854Y-93089383D02*
X51257854Y-93089383D01*
D12*
G36*
X55657854Y-94219383D02*
G01*
X53457854Y-94219383D01*
X53457854Y-93319383D01*
X55657854Y-93319383D01*
X55657854Y-94219383D01*
G37*
X55657854Y-94219383D02*
X53457854Y-94219383D01*
X53457854Y-93319383D01*
X55657854Y-93319383D01*
X55657854Y-94219383D01*
D11*
X52189225Y-98119383D02*
G75*
G03X52189225Y-98119383I-1131371J0D01*
G01*
X48060654Y-92669983D02*
X48619454Y-92136583D01*
X48619454Y-92136583D02*
X56061654Y-92136583D01*
X56061654Y-92136583D02*
X56061654Y-103896783D01*
X56061654Y-103896783D02*
X48060654Y-103896783D01*
X48060654Y-103896783D02*
X48060654Y-92669983D01*
X47407854Y-94519383D02*
X47407854Y-102069383D01*
X43107854Y-94519383D02*
X43107854Y-102069383D01*
X47407854Y-94519383D02*
X43107854Y-94519383D01*
X51955790Y-91079383D02*
X53159918Y-91079383D01*
X51955790Y-89259383D02*
X53159918Y-89259383D01*
X44247854Y-107867319D02*
X44247854Y-109071447D01*
X46067854Y-107867319D02*
X46067854Y-109071447D01*
X81988174Y-49191743D02*
X78538174Y-49191743D01*
X81988174Y-49191743D02*
X83938174Y-49191743D01*
X81988174Y-54311743D02*
X80038174Y-54311743D01*
X81988174Y-54311743D02*
X83938174Y-54311743D01*
X119597854Y-87849383D02*
X120177854Y-87849383D01*
X117297854Y-87849383D02*
X117817854Y-87849383D01*
X114937854Y-87849383D02*
X115518854Y-87849383D01*
X118797854Y-93089383D02*
X120177854Y-93089383D01*
X114937854Y-93089383D02*
X116317854Y-93089383D01*
X120177854Y-93089383D02*
X120177854Y-87849383D01*
X114937854Y-93089383D02*
X114937854Y-87849383D01*
X118397854Y-43249383D02*
X118977854Y-43249383D01*
X116097854Y-43249383D02*
X116617854Y-43249383D01*
X113737854Y-43249383D02*
X114318854Y-43249383D01*
X117597854Y-48489383D02*
X118977854Y-48489383D01*
X113737854Y-48489383D02*
X115117854Y-48489383D01*
X118977854Y-48489383D02*
X118977854Y-43249383D01*
X113737854Y-48489383D02*
X113737854Y-43249383D01*
X75893627Y-36859183D02*
X76236161Y-36859183D01*
X75893627Y-35839183D02*
X76236161Y-35839183D01*
X108765014Y-47352943D02*
X106165014Y-47352943D01*
X108765014Y-47652943D02*
X108765014Y-47352943D01*
X103665014Y-47652943D02*
X108765014Y-47652943D01*
X103665014Y-47552943D02*
X103665014Y-47652943D01*
X106265014Y-47352943D02*
X106565014Y-47452943D01*
X103665014Y-47352943D02*
X106265014Y-47352943D01*
X103665014Y-47452943D02*
X103665014Y-47352943D01*
X108765014Y-47452943D02*
X103665014Y-47452943D01*
X108765014Y-47252943D02*
X108765014Y-47452943D01*
X103665014Y-47252943D02*
X108765014Y-47252943D01*
X103665014Y-47552943D02*
X103665014Y-47252943D01*
X108765014Y-47552943D02*
X103665014Y-47552943D01*
X103635014Y-49982943D02*
X103635014Y-48652943D01*
X104965014Y-49982943D02*
X103635014Y-49982943D01*
X106235014Y-49982943D02*
X106235014Y-47322943D01*
X106235014Y-47322943D02*
X108835014Y-47322943D01*
X106235014Y-49982943D02*
X108835014Y-49982943D01*
X108835014Y-49982943D02*
X108835014Y-47322943D01*
X72524494Y-34803623D02*
X70094494Y-34803623D01*
X72544494Y-34813623D02*
X72544494Y-35813623D01*
X72544494Y-37863623D02*
X70694494Y-37863623D01*
X72544494Y-36813623D02*
X72544494Y-37863623D01*
X70541854Y-112879383D02*
X64531854Y-112879383D01*
X68291854Y-106059383D02*
X64531854Y-106059383D01*
X64531854Y-112879383D02*
X64531854Y-111619383D01*
X64531854Y-106059383D02*
X64531854Y-107319383D01*
X85025854Y-112879383D02*
X79015854Y-112879383D01*
X82775854Y-106059383D02*
X79015854Y-106059383D01*
X79015854Y-112879383D02*
X79015854Y-111619383D01*
X79015854Y-106059383D02*
X79015854Y-107319383D01*
X52002254Y-56399503D02*
X52002254Y-62409503D01*
X45182254Y-58649503D02*
X45182254Y-62409503D01*
X52002254Y-62409503D02*
X50742254Y-62409503D01*
X45182254Y-62409503D02*
X46442254Y-62409503D01*
X65589854Y-65057383D02*
X65589854Y-66157383D01*
X65859854Y-65057383D02*
X65589854Y-65057383D01*
X65859854Y-63557383D02*
X65859854Y-65057383D01*
X59229854Y-65057383D02*
X59229854Y-67887383D01*
X58959854Y-65057383D02*
X59229854Y-65057383D01*
X58959854Y-63557383D02*
X58959854Y-65057383D01*
X163281854Y-86940383D02*
X163295854Y-87947383D01*
X162279854Y-86931383D02*
X163281854Y-86940383D01*
X163295854Y-87947383D02*
X162279854Y-86931383D01*
X169976054Y-91579583D02*
X169976054Y-88531583D01*
X169976054Y-88531583D02*
X163626054Y-88531583D01*
X163626054Y-91579583D02*
X169976054Y-91579583D01*
X169950654Y-93941783D02*
X163600654Y-93941783D01*
X169950654Y-96989783D02*
X169950654Y-93941783D01*
X163600654Y-96989783D02*
X169950654Y-96989783D01*
X151498854Y-95313383D02*
X151498854Y-98733383D01*
X151498854Y-98733383D02*
X151788854Y-98733383D01*
X151498854Y-90360383D02*
X151498854Y-86940383D01*
X151498854Y-86940383D02*
X151788854Y-86940383D01*
X163281854Y-95313383D02*
X163281854Y-98733383D01*
X163281854Y-98733383D02*
X162991854Y-98733383D01*
X163281854Y-90360383D02*
X163281854Y-86940383D01*
X163281854Y-86940383D02*
X162991854Y-86940383D01*
X163281854Y-108940383D02*
X163295854Y-109947383D01*
X162279854Y-108931383D02*
X163281854Y-108940383D01*
X163295854Y-109947383D02*
X162279854Y-108931383D01*
X169976054Y-113579583D02*
X169976054Y-110531583D01*
X169976054Y-110531583D02*
X163626054Y-110531583D01*
X163626054Y-113579583D02*
X169976054Y-113579583D01*
X169950654Y-115941783D02*
X163600654Y-115941783D01*
X169950654Y-118989783D02*
X169950654Y-115941783D01*
X163600654Y-118989783D02*
X169950654Y-118989783D01*
X151498854Y-117313383D02*
X151498854Y-120733383D01*
X151498854Y-120733383D02*
X151788854Y-120733383D01*
X151498854Y-112360383D02*
X151498854Y-108940383D01*
X151498854Y-108940383D02*
X151788854Y-108940383D01*
X163281854Y-117313383D02*
X163281854Y-120733383D01*
X163281854Y-120733383D02*
X162991854Y-120733383D01*
X163281854Y-112360383D02*
X163281854Y-108940383D01*
X163281854Y-108940383D02*
X162991854Y-108940383D01*
X163281854Y-42940383D02*
X163295854Y-43947383D01*
X162279854Y-42931383D02*
X163281854Y-42940383D01*
X163295854Y-43947383D02*
X162279854Y-42931383D01*
X169976054Y-47579583D02*
X169976054Y-44531583D01*
X169976054Y-44531583D02*
X163626054Y-44531583D01*
X163626054Y-47579583D02*
X169976054Y-47579583D01*
X169950654Y-49941783D02*
X163600654Y-49941783D01*
X169950654Y-52989783D02*
X169950654Y-49941783D01*
X163600654Y-52989783D02*
X169950654Y-52989783D01*
X151498854Y-51313383D02*
X151498854Y-54733383D01*
X151498854Y-54733383D02*
X151788854Y-54733383D01*
X151498854Y-46360383D02*
X151498854Y-42940383D01*
X151498854Y-42940383D02*
X151788854Y-42940383D01*
X163281854Y-51313383D02*
X163281854Y-54733383D01*
X163281854Y-54733383D02*
X162991854Y-54733383D01*
X163281854Y-46360383D02*
X163281854Y-42940383D01*
X163281854Y-42940383D02*
X162991854Y-42940383D01*
X163281854Y-64940383D02*
X163295854Y-65947383D01*
X162279854Y-64931383D02*
X163281854Y-64940383D01*
X163295854Y-65947383D02*
X162279854Y-64931383D01*
X169976054Y-69579583D02*
X169976054Y-66531583D01*
X169976054Y-66531583D02*
X163626054Y-66531583D01*
X163626054Y-69579583D02*
X169976054Y-69579583D01*
X169950654Y-71941783D02*
X163600654Y-71941783D01*
X169950654Y-74989783D02*
X169950654Y-71941783D01*
X163600654Y-74989783D02*
X169950654Y-74989783D01*
X151498854Y-73313383D02*
X151498854Y-76733383D01*
X151498854Y-76733383D02*
X151788854Y-76733383D01*
X151498854Y-68360383D02*
X151498854Y-64940383D01*
X151498854Y-64940383D02*
X151788854Y-64940383D01*
X163281854Y-73313383D02*
X163281854Y-76733383D01*
X163281854Y-76733383D02*
X162991854Y-76733383D01*
X163281854Y-68360383D02*
X163281854Y-64940383D01*
X163281854Y-64940383D02*
X162991854Y-64940383D01*
X81386587Y-80579383D02*
X81729121Y-80579383D01*
X81386587Y-79559383D02*
X81729121Y-79559383D01*
X87836587Y-82679383D02*
X88179121Y-82679383D01*
X87836587Y-81659383D02*
X88179121Y-81659383D01*
X83986587Y-82679383D02*
X84329121Y-82679383D01*
X83986587Y-81659383D02*
X84329121Y-81659383D01*
X73797761Y-38917663D02*
X73455227Y-38917663D01*
X73797761Y-39937663D02*
X73455227Y-39937663D01*
X77724601Y-38943063D02*
X77382067Y-38943063D01*
X77724601Y-39963063D02*
X77382067Y-39963063D01*
X54787854Y-118550116D02*
X54787854Y-118892650D01*
X55807854Y-118550116D02*
X55807854Y-118892650D01*
X93829121Y-92709383D02*
X93486587Y-92709383D01*
X93829121Y-93729383D02*
X93486587Y-93729383D01*
X144986587Y-116429383D02*
X145329121Y-116429383D01*
X144986587Y-115409383D02*
X145329121Y-115409383D01*
X41874494Y-63569276D02*
X41874494Y-63911810D01*
X42894494Y-63569276D02*
X42894494Y-63911810D01*
X107547854Y-70898116D02*
X107547854Y-71240650D01*
X108567854Y-70898116D02*
X108567854Y-71240650D01*
X112947854Y-70898116D02*
X112947854Y-71240650D01*
X113967854Y-70898116D02*
X113967854Y-71240650D01*
X70281854Y-118550116D02*
X70281854Y-118892650D01*
X71301854Y-118550116D02*
X71301854Y-118892650D01*
X31886587Y-113829383D02*
X32229121Y-113829383D01*
X31886587Y-112809383D02*
X32229121Y-112809383D01*
X36136587Y-125829383D02*
X36479121Y-125829383D01*
X36136587Y-124809383D02*
X36479121Y-124809383D01*
X149867854Y-85915650D02*
X149867854Y-85573116D01*
X148847854Y-85915650D02*
X148847854Y-85573116D01*
X111139121Y-97479383D02*
X110796587Y-97479383D01*
X111139121Y-98499383D02*
X110796587Y-98499383D01*
X110796587Y-100277383D02*
X111139121Y-100277383D01*
X110796587Y-99257383D02*
X111139121Y-99257383D01*
X73186587Y-114079383D02*
X73529121Y-114079383D01*
X73186587Y-113059383D02*
X73529121Y-113059383D01*
X76427574Y-63266650D02*
X76427574Y-62924116D01*
X75407574Y-63266650D02*
X75407574Y-62924116D01*
X76407254Y-67315410D02*
X76407254Y-66972876D01*
X75387254Y-67315410D02*
X75387254Y-66972876D01*
X31936587Y-77729383D02*
X32279121Y-77729383D01*
X31936587Y-76709383D02*
X32279121Y-76709383D01*
X116763854Y-118550116D02*
X116763854Y-118892650D01*
X117783854Y-118550116D02*
X117783854Y-118892650D01*
X101269854Y-118550116D02*
X101269854Y-118892650D01*
X102289854Y-118550116D02*
X102289854Y-118892650D01*
X85775854Y-118296116D02*
X85775854Y-118638650D01*
X86795854Y-118296116D02*
X86795854Y-118638650D01*
X31836587Y-90629383D02*
X32179121Y-90629383D01*
X31836587Y-89609383D02*
X32179121Y-89609383D01*
X31786587Y-101929383D02*
X32129121Y-101929383D01*
X31786587Y-100909383D02*
X32129121Y-100909383D01*
X115086587Y-101279383D02*
X115429121Y-101279383D01*
X115086587Y-100259383D02*
X115429121Y-100259383D01*
X41147854Y-74098116D02*
X41147854Y-74440650D01*
X42167854Y-74098116D02*
X42167854Y-74440650D01*
X121947854Y-102298116D02*
X121947854Y-102640650D01*
X122967854Y-102298116D02*
X122967854Y-102640650D01*
X87286587Y-114079383D02*
X87629121Y-114079383D01*
X87286587Y-113059383D02*
X87629121Y-113059383D01*
X149186587Y-107379383D02*
X149529121Y-107379383D01*
X149186587Y-106359383D02*
X149529121Y-106359383D01*
X135528681Y-35427703D02*
X135186147Y-35427703D01*
X135528681Y-36447703D02*
X135186147Y-36447703D01*
X134638747Y-44880503D02*
X134981281Y-44880503D01*
X134638747Y-43860503D02*
X134981281Y-43860503D01*
X132222294Y-47104996D02*
X132222294Y-47447530D01*
X133242294Y-47104996D02*
X133242294Y-47447530D01*
X134665774Y-62151956D02*
X134665774Y-62494490D01*
X135685774Y-62151956D02*
X135685774Y-62494490D01*
X130337614Y-49650076D02*
X130337614Y-49992610D01*
X131357614Y-49650076D02*
X131357614Y-49992610D01*
X149186587Y-42379383D02*
X149529121Y-42379383D01*
X149186587Y-41359383D02*
X149529121Y-41359383D01*
X52171654Y-67628196D02*
X52171654Y-67970730D01*
X53191654Y-67628196D02*
X53191654Y-67970730D01*
X78511454Y-56238836D02*
X78511454Y-56581370D01*
X79531454Y-56238836D02*
X79531454Y-56581370D01*
X82220401Y-55310823D02*
X81877867Y-55310823D01*
X82220401Y-56330823D02*
X81877867Y-56330823D01*
X82179761Y-57866063D02*
X81837227Y-57866063D01*
X82179761Y-58886063D02*
X81837227Y-58886063D01*
X87696094Y-50574636D02*
X87696094Y-50917170D01*
X88716094Y-50574636D02*
X88716094Y-50917170D01*
X148070267Y-56935343D02*
X148412801Y-56935343D01*
X148070267Y-55915343D02*
X148412801Y-55915343D01*
X72509854Y-47855383D02*
X72509854Y-46525383D01*
X72509854Y-46525383D02*
X73839854Y-46525383D01*
X76839854Y-48805383D02*
G75*
G03X76839854Y-48805383I-3000000J0D01*
G01*
X76989854Y-46155383D02*
X76989854Y-46755383D01*
X76989854Y-46455383D02*
X77289854Y-46455383D01*
X77289854Y-46455383D02*
X76689854Y-46455383D01*
X146991854Y-118467383D02*
X146991854Y-119737383D01*
X145721854Y-118467383D02*
X146991854Y-118467383D01*
X127561854Y-120780312D02*
X127561854Y-121177383D01*
X128321854Y-120780312D02*
X128321854Y-121177383D01*
X127561854Y-129837383D02*
X127561854Y-123837383D01*
X128321854Y-129837383D02*
X127561854Y-129837383D01*
X128321854Y-123837383D02*
X128321854Y-129837383D01*
X129211854Y-121177383D02*
X129211854Y-123837383D01*
X130101854Y-120780312D02*
X130101854Y-121177383D01*
X130861854Y-120780312D02*
X130861854Y-121177383D01*
X130101854Y-129837383D02*
X130101854Y-123837383D01*
X130861854Y-129837383D02*
X130101854Y-129837383D01*
X130861854Y-123837383D02*
X130861854Y-129837383D01*
X131751854Y-121177383D02*
X131751854Y-123837383D01*
X132641854Y-120780312D02*
X132641854Y-121177383D01*
X133401854Y-120780312D02*
X133401854Y-121177383D01*
X132641854Y-129837383D02*
X132641854Y-123837383D01*
X133401854Y-129837383D02*
X132641854Y-129837383D01*
X133401854Y-123837383D02*
X133401854Y-129837383D01*
X134291854Y-121177383D02*
X134291854Y-123837383D01*
X135181854Y-120780312D02*
X135181854Y-121177383D01*
X135941854Y-120780312D02*
X135941854Y-121177383D01*
X135181854Y-129837383D02*
X135181854Y-123837383D01*
X135941854Y-129837383D02*
X135181854Y-129837383D01*
X135941854Y-123837383D02*
X135941854Y-129837383D01*
X136831854Y-121177383D02*
X136831854Y-123837383D01*
X137721854Y-120780312D02*
X137721854Y-121177383D01*
X138481854Y-120780312D02*
X138481854Y-121177383D01*
X137721854Y-129837383D02*
X137721854Y-123837383D01*
X138481854Y-129837383D02*
X137721854Y-129837383D01*
X138481854Y-123837383D02*
X138481854Y-129837383D01*
X139371854Y-121177383D02*
X139371854Y-123837383D01*
X140261854Y-120780312D02*
X140261854Y-121177383D01*
X141021854Y-120780312D02*
X141021854Y-121177383D01*
X140261854Y-129837383D02*
X140261854Y-123837383D01*
X141021854Y-129837383D02*
X140261854Y-129837383D01*
X141021854Y-123837383D02*
X141021854Y-129837383D01*
X141911854Y-121177383D02*
X141911854Y-123837383D01*
X142801854Y-120780312D02*
X142801854Y-121177383D01*
X143561854Y-120780312D02*
X143561854Y-121177383D01*
X142801854Y-129837383D02*
X142801854Y-123837383D01*
X143561854Y-129837383D02*
X142801854Y-129837383D01*
X143561854Y-123837383D02*
X143561854Y-129837383D01*
X144451854Y-121177383D02*
X144451854Y-123837383D01*
X145341854Y-120847383D02*
X145341854Y-121177383D01*
X146101854Y-120847383D02*
X146101854Y-121177383D01*
X145441854Y-123837383D02*
X145441854Y-129837383D01*
X145561854Y-123837383D02*
X145561854Y-129837383D01*
X145681854Y-123837383D02*
X145681854Y-129837383D01*
X145801854Y-123837383D02*
X145801854Y-129837383D01*
X145921854Y-123837383D02*
X145921854Y-129837383D01*
X146041854Y-123837383D02*
X146041854Y-129837383D01*
X145341854Y-129837383D02*
X145341854Y-123837383D01*
X146101854Y-129837383D02*
X145341854Y-129837383D01*
X146101854Y-123837383D02*
X146101854Y-129837383D01*
X147051854Y-123837383D02*
X147051854Y-121177383D01*
X126611854Y-123837383D02*
X147051854Y-123837383D01*
X126611854Y-121177383D02*
X126611854Y-123837383D01*
X147051854Y-121177383D02*
X126611854Y-121177383D01*
X91137854Y-95289383D02*
X91137854Y-96619383D01*
X89807854Y-95289383D02*
X91137854Y-95289383D01*
X88537854Y-95289383D02*
X88537854Y-97949383D01*
X88537854Y-97949383D02*
X85937854Y-97949383D01*
X88537854Y-95289383D02*
X85937854Y-95289383D01*
X85937854Y-95289383D02*
X85937854Y-97949383D01*
X95627854Y-91599383D02*
X95627854Y-90269383D01*
X96957854Y-91599383D02*
X95627854Y-91599383D01*
X98227854Y-91599383D02*
X98227854Y-88939383D01*
X98227854Y-88939383D02*
X103367854Y-88939383D01*
X98227854Y-91599383D02*
X103367854Y-91599383D01*
X103367854Y-91599383D02*
X103367854Y-88939383D01*
X67883854Y-100489383D02*
X70083854Y-100489383D01*
X67883854Y-98319383D02*
X67883854Y-100489383D01*
X70083854Y-98319383D02*
X70083854Y-100489383D01*
X67883854Y-98319383D02*
X70083854Y-98319383D01*
X64353854Y-94419383D02*
X64353854Y-93089383D01*
X64353854Y-93089383D02*
X65683854Y-93089383D01*
D12*
G36*
X70083854Y-94219383D02*
G01*
X67883854Y-94219383D01*
X67883854Y-93319383D01*
X70083854Y-93319383D01*
X70083854Y-94219383D01*
G37*
X70083854Y-94219383D02*
X67883854Y-94219383D01*
X67883854Y-93319383D01*
X70083854Y-93319383D01*
X70083854Y-94219383D01*
D11*
X66615225Y-98119383D02*
G75*
G03X66615225Y-98119383I-1131371J0D01*
G01*
X62486654Y-92669983D02*
X63045454Y-92136583D01*
X63045454Y-92136583D02*
X70487654Y-92136583D01*
X70487654Y-92136583D02*
X70487654Y-103896783D01*
X70487654Y-103896783D02*
X62486654Y-103896783D01*
X62486654Y-103896783D02*
X62486654Y-92669983D01*
X82309854Y-100489383D02*
X84509854Y-100489383D01*
X82309854Y-98319383D02*
X82309854Y-100489383D01*
X84509854Y-98319383D02*
X84509854Y-100489383D01*
X82309854Y-98319383D02*
X84509854Y-98319383D01*
X78779854Y-94419383D02*
X78779854Y-93089383D01*
X78779854Y-93089383D02*
X80109854Y-93089383D01*
D12*
G36*
X84509854Y-94219383D02*
G01*
X82309854Y-94219383D01*
X82309854Y-93319383D01*
X84509854Y-93319383D01*
X84509854Y-94219383D01*
G37*
X84509854Y-94219383D02*
X82309854Y-94219383D01*
X82309854Y-93319383D01*
X84509854Y-93319383D01*
X84509854Y-94219383D01*
D11*
X81041225Y-98119383D02*
G75*
G03X81041225Y-98119383I-1131371J0D01*
G01*
X76912654Y-92669983D02*
X77471454Y-92136583D01*
X77471454Y-92136583D02*
X84913654Y-92136583D01*
X84913654Y-92136583D02*
X84913654Y-103896783D01*
X84913654Y-103896783D02*
X76912654Y-103896783D01*
X76912654Y-103896783D02*
X76912654Y-92669983D01*
X60427854Y-82269383D02*
X60427854Y-80069383D01*
X58257854Y-82269383D02*
X60427854Y-82269383D01*
X58257854Y-80069383D02*
X60427854Y-80069383D01*
X58257854Y-82269383D02*
X58257854Y-80069383D01*
X54357854Y-85799383D02*
X53027854Y-85799383D01*
X53027854Y-85799383D02*
X53027854Y-84469383D01*
D12*
G36*
X54157854Y-80069383D02*
G01*
X54157854Y-82269383D01*
X53257854Y-82269383D01*
X53257854Y-80069383D01*
X54157854Y-80069383D01*
G37*
X54157854Y-80069383D02*
X54157854Y-82269383D01*
X53257854Y-82269383D01*
X53257854Y-80069383D01*
X54157854Y-80069383D01*
D11*
X59189225Y-84669383D02*
G75*
G03X59189225Y-84669383I-1131371J0D01*
G01*
X52608454Y-87666583D02*
X52075054Y-87107783D01*
X52075054Y-87107783D02*
X52075054Y-79665583D01*
X52075054Y-79665583D02*
X63835254Y-79665583D01*
X63835254Y-79665583D02*
X63835254Y-87666583D01*
X63835254Y-87666583D02*
X52608454Y-87666583D01*
X40057854Y-62841383D02*
X38787854Y-62841383D01*
X40057854Y-61571383D02*
X40057854Y-62841383D01*
X37744925Y-43411383D02*
X37347854Y-43411383D01*
X37744925Y-44171383D02*
X37347854Y-44171383D01*
X28687854Y-43411383D02*
X34687854Y-43411383D01*
X28687854Y-44171383D02*
X28687854Y-43411383D01*
X34687854Y-44171383D02*
X28687854Y-44171383D01*
X37347854Y-45061383D02*
X34687854Y-45061383D01*
X37744925Y-45951383D02*
X37347854Y-45951383D01*
X37744925Y-46711383D02*
X37347854Y-46711383D01*
X28687854Y-45951383D02*
X34687854Y-45951383D01*
X28687854Y-46711383D02*
X28687854Y-45951383D01*
X34687854Y-46711383D02*
X28687854Y-46711383D01*
X37347854Y-47601383D02*
X34687854Y-47601383D01*
X37744925Y-48491383D02*
X37347854Y-48491383D01*
X37744925Y-49251383D02*
X37347854Y-49251383D01*
X28687854Y-48491383D02*
X34687854Y-48491383D01*
X28687854Y-49251383D02*
X28687854Y-48491383D01*
X34687854Y-49251383D02*
X28687854Y-49251383D01*
X37347854Y-50141383D02*
X34687854Y-50141383D01*
X37744925Y-51031383D02*
X37347854Y-51031383D01*
X37744925Y-51791383D02*
X37347854Y-51791383D01*
X28687854Y-51031383D02*
X34687854Y-51031383D01*
X28687854Y-51791383D02*
X28687854Y-51031383D01*
X34687854Y-51791383D02*
X28687854Y-51791383D01*
X37347854Y-52681383D02*
X34687854Y-52681383D01*
X37744925Y-53571383D02*
X37347854Y-53571383D01*
X37744925Y-54331383D02*
X37347854Y-54331383D01*
X28687854Y-53571383D02*
X34687854Y-53571383D01*
X28687854Y-54331383D02*
X28687854Y-53571383D01*
X34687854Y-54331383D02*
X28687854Y-54331383D01*
X37347854Y-55221383D02*
X34687854Y-55221383D01*
X37744925Y-56111383D02*
X37347854Y-56111383D01*
X37744925Y-56871383D02*
X37347854Y-56871383D01*
X28687854Y-56111383D02*
X34687854Y-56111383D01*
X28687854Y-56871383D02*
X28687854Y-56111383D01*
X34687854Y-56871383D02*
X28687854Y-56871383D01*
X37347854Y-57761383D02*
X34687854Y-57761383D01*
X37744925Y-58651383D02*
X37347854Y-58651383D01*
X37744925Y-59411383D02*
X37347854Y-59411383D01*
X28687854Y-58651383D02*
X34687854Y-58651383D01*
X28687854Y-59411383D02*
X28687854Y-58651383D01*
X34687854Y-59411383D02*
X28687854Y-59411383D01*
X37347854Y-60301383D02*
X34687854Y-60301383D01*
X37677854Y-61191383D02*
X37347854Y-61191383D01*
X37677854Y-61951383D02*
X37347854Y-61951383D01*
X34687854Y-61291383D02*
X28687854Y-61291383D01*
X34687854Y-61411383D02*
X28687854Y-61411383D01*
X34687854Y-61531383D02*
X28687854Y-61531383D01*
X34687854Y-61651383D02*
X28687854Y-61651383D01*
X34687854Y-61771383D02*
X28687854Y-61771383D01*
X34687854Y-61891383D02*
X28687854Y-61891383D01*
X28687854Y-61191383D02*
X34687854Y-61191383D01*
X28687854Y-61951383D02*
X28687854Y-61191383D01*
X34687854Y-61951383D02*
X28687854Y-61951383D01*
X34687854Y-62901383D02*
X37347854Y-62901383D01*
X34687854Y-42461383D02*
X34687854Y-62901383D01*
X37347854Y-42461383D02*
X34687854Y-42461383D01*
X37347854Y-62901383D02*
X37347854Y-42461383D01*
X111122934Y-58024583D02*
X111122934Y-56694583D01*
X112452934Y-58024583D02*
X111122934Y-58024583D01*
X113722934Y-58024583D02*
X113722934Y-55364583D01*
X113722934Y-55364583D02*
X118862934Y-55364583D01*
X113722934Y-58024583D02*
X118862934Y-58024583D01*
X118862934Y-58024583D02*
X118862934Y-55364583D01*
X61350974Y-46512983D02*
X59150974Y-46512983D01*
X61350974Y-48682983D02*
X61350974Y-46512983D01*
X59150974Y-48682983D02*
X59150974Y-46512983D01*
X61350974Y-48682983D02*
X59150974Y-48682983D01*
X64880974Y-52582983D02*
X64880974Y-53912983D01*
X64880974Y-53912983D02*
X63550974Y-53912983D01*
D12*
G36*
X59150974Y-52782983D02*
G01*
X61350974Y-52782983D01*
X61350974Y-53682983D01*
X59150974Y-53682983D01*
X59150974Y-52782983D01*
G37*
X59150974Y-52782983D02*
X61350974Y-52782983D01*
X61350974Y-53682983D01*
X59150974Y-53682983D01*
X59150974Y-52782983D01*
D11*
X64882345Y-48882983D02*
G75*
G03X64882345Y-48882983I-1131371J0D01*
G01*
X66748174Y-54332383D02*
X66189374Y-54865783D01*
X66189374Y-54865783D02*
X58747174Y-54865783D01*
X58747174Y-54865783D02*
X58747174Y-43105583D01*
X58747174Y-43105583D02*
X66748174Y-43105583D01*
X66748174Y-43105583D02*
X66748174Y-54332383D01*
X49666974Y-46512983D02*
X47466974Y-46512983D01*
X49666974Y-48682983D02*
X49666974Y-46512983D01*
X47466974Y-48682983D02*
X47466974Y-46512983D01*
X49666974Y-48682983D02*
X47466974Y-48682983D01*
X53196974Y-52582983D02*
X53196974Y-53912983D01*
X53196974Y-53912983D02*
X51866974Y-53912983D01*
D12*
G36*
X47466974Y-52782983D02*
G01*
X49666974Y-52782983D01*
X49666974Y-53682983D01*
X47466974Y-53682983D01*
X47466974Y-52782983D01*
G37*
X47466974Y-52782983D02*
X49666974Y-52782983D01*
X49666974Y-53682983D01*
X47466974Y-53682983D01*
X47466974Y-52782983D01*
D11*
X53198345Y-48882983D02*
G75*
G03X53198345Y-48882983I-1131371J0D01*
G01*
X55064174Y-54332383D02*
X54505374Y-54865783D01*
X54505374Y-54865783D02*
X47063174Y-54865783D01*
X47063174Y-54865783D02*
X47063174Y-43105583D01*
X47063174Y-43105583D02*
X55064174Y-43105583D01*
X55064174Y-43105583D02*
X55064174Y-54332383D01*
X73703854Y-57483383D02*
X73703854Y-65033383D01*
X69403854Y-57483383D02*
X69403854Y-65033383D01*
X73703854Y-57483383D02*
X69403854Y-57483383D01*
X61812854Y-94519383D02*
X61812854Y-102069383D01*
X57512854Y-94519383D02*
X57512854Y-102069383D01*
X61812854Y-94519383D02*
X57512854Y-94519383D01*
X76217854Y-94519383D02*
X76217854Y-102069383D01*
X71917854Y-94519383D02*
X71917854Y-102069383D01*
X76217854Y-94519383D02*
X71917854Y-94519383D01*
X41275894Y-55235223D02*
X41275894Y-47685223D01*
X45575894Y-55235223D02*
X45575894Y-47685223D01*
X41275894Y-55235223D02*
X45575894Y-55235223D01*
X99659918Y-106759383D02*
X98455790Y-106759383D01*
X99659918Y-108579383D02*
X98455790Y-108579383D01*
X104959918Y-94659383D02*
X103755790Y-94659383D01*
X104959918Y-96479383D02*
X103755790Y-96479383D01*
X76897854Y-82967319D02*
X76897854Y-84171447D01*
X78717854Y-82967319D02*
X78717854Y-84171447D01*
X148447854Y-90267319D02*
X148447854Y-91471447D01*
X150267854Y-90267319D02*
X150267854Y-91471447D01*
X110807918Y-94539383D02*
X109603790Y-94539383D01*
X110807918Y-96359383D02*
X109603790Y-96359383D01*
X66455790Y-91079383D02*
X67659918Y-91079383D01*
X66455790Y-89259383D02*
X67659918Y-89259383D01*
X81055790Y-91079383D02*
X82259918Y-91079383D01*
X81055790Y-89259383D02*
X82259918Y-89259383D01*
X58647854Y-107667319D02*
X58647854Y-108871447D01*
X60467854Y-107667319D02*
X60467854Y-108871447D01*
X73147854Y-107767319D02*
X73147854Y-108971447D01*
X74967854Y-107767319D02*
X74967854Y-108971447D01*
X94968254Y-55086847D02*
X94968254Y-53882719D01*
X93148254Y-55086847D02*
X93148254Y-53882719D01*
X100964430Y-63172263D02*
X102168558Y-63172263D01*
X100964430Y-61352263D02*
X102168558Y-61352263D01*
X157959918Y-102959383D02*
X156755790Y-102959383D01*
X157959918Y-104779383D02*
X156755790Y-104779383D01*
X144447854Y-107267319D02*
X144447854Y-108471447D01*
X146267854Y-107267319D02*
X146267854Y-108471447D01*
X157959918Y-80959383D02*
X156755790Y-80959383D01*
X157959918Y-82779383D02*
X156755790Y-82779383D01*
X117055790Y-82379383D02*
X118259918Y-82379383D01*
X117055790Y-80559383D02*
X118259918Y-80559383D01*
X49682854Y-75714608D02*
X49182854Y-75714608D01*
X49432854Y-75464608D02*
X49432854Y-75964608D01*
X48241854Y-80870383D02*
X47673854Y-80870383D01*
X48475854Y-80830383D02*
X47439854Y-80830383D01*
X48634854Y-80790383D02*
X47280854Y-80790383D01*
X48762854Y-80750383D02*
X47152854Y-80750383D01*
X48872854Y-80710383D02*
X47042854Y-80710383D01*
X48968854Y-80670383D02*
X46946854Y-80670383D01*
X49055854Y-80630383D02*
X46859854Y-80630383D01*
X49135854Y-80590383D02*
X46779854Y-80590383D01*
X49208854Y-80550383D02*
X46706854Y-80550383D01*
X49276854Y-80510383D02*
X46638854Y-80510383D01*
X49340854Y-80470383D02*
X46574854Y-80470383D01*
X49400854Y-80430383D02*
X46514854Y-80430383D01*
X49457854Y-80390383D02*
X46457854Y-80390383D01*
X49511854Y-80350383D02*
X46403854Y-80350383D01*
X49562854Y-80310383D02*
X46352854Y-80310383D01*
X46917854Y-80270383D02*
X46304854Y-80270383D01*
X49610854Y-80270383D02*
X48997854Y-80270383D01*
X46917854Y-80230383D02*
X46258854Y-80230383D01*
X49656854Y-80230383D02*
X48997854Y-80230383D01*
X46917854Y-80190383D02*
X46214854Y-80190383D01*
X49700854Y-80190383D02*
X48997854Y-80190383D01*
X46917854Y-80150383D02*
X46172854Y-80150383D01*
X49742854Y-80150383D02*
X48997854Y-80150383D01*
X46917854Y-80110383D02*
X46131854Y-80110383D01*
X49783854Y-80110383D02*
X48997854Y-80110383D01*
X46917854Y-80070383D02*
X46093854Y-80070383D01*
X49821854Y-80070383D02*
X48997854Y-80070383D01*
X46917854Y-80030383D02*
X46056854Y-80030383D01*
X49858854Y-80030383D02*
X48997854Y-80030383D01*
X46917854Y-79990383D02*
X46020854Y-79990383D01*
X49894854Y-79990383D02*
X48997854Y-79990383D01*
X46917854Y-79950383D02*
X45986854Y-79950383D01*
X49928854Y-79950383D02*
X48997854Y-79950383D01*
X46917854Y-79910383D02*
X45953854Y-79910383D01*
X49961854Y-79910383D02*
X48997854Y-79910383D01*
X46917854Y-79870383D02*
X45922854Y-79870383D01*
X49992854Y-79870383D02*
X48997854Y-79870383D01*
X46917854Y-79830383D02*
X45892854Y-79830383D01*
X50022854Y-79830383D02*
X48997854Y-79830383D01*
X46917854Y-79790383D02*
X45862854Y-79790383D01*
X50052854Y-79790383D02*
X48997854Y-79790383D01*
X46917854Y-79750383D02*
X45835854Y-79750383D01*
X50079854Y-79750383D02*
X48997854Y-79750383D01*
X46917854Y-79710383D02*
X45808854Y-79710383D01*
X50106854Y-79710383D02*
X48997854Y-79710383D01*
X46917854Y-79670383D02*
X45782854Y-79670383D01*
X50132854Y-79670383D02*
X48997854Y-79670383D01*
X46917854Y-79630383D02*
X45757854Y-79630383D01*
X50157854Y-79630383D02*
X48997854Y-79630383D01*
X46917854Y-79590383D02*
X45733854Y-79590383D01*
X50181854Y-79590383D02*
X48997854Y-79590383D01*
X46917854Y-79550383D02*
X45710854Y-79550383D01*
X50204854Y-79550383D02*
X48997854Y-79550383D01*
X46917854Y-79510383D02*
X45689854Y-79510383D01*
X50225854Y-79510383D02*
X48997854Y-79510383D01*
X46917854Y-79470383D02*
X45667854Y-79470383D01*
X50247854Y-79470383D02*
X48997854Y-79470383D01*
X46917854Y-79430383D02*
X45647854Y-79430383D01*
X50267854Y-79430383D02*
X48997854Y-79430383D01*
X46917854Y-79390383D02*
X45628854Y-79390383D01*
X50286854Y-79390383D02*
X48997854Y-79390383D01*
X46917854Y-79350383D02*
X45609854Y-79350383D01*
X50305854Y-79350383D02*
X48997854Y-79350383D01*
X46917854Y-79310383D02*
X45592854Y-79310383D01*
X50322854Y-79310383D02*
X48997854Y-79310383D01*
X46917854Y-79270383D02*
X45575854Y-79270383D01*
X50339854Y-79270383D02*
X48997854Y-79270383D01*
X46917854Y-79230383D02*
X45559854Y-79230383D01*
X50355854Y-79230383D02*
X48997854Y-79230383D01*
X46917854Y-79190383D02*
X45543854Y-79190383D01*
X50371854Y-79190383D02*
X48997854Y-79190383D01*
X46917854Y-79150383D02*
X45529854Y-79150383D01*
X50385854Y-79150383D02*
X48997854Y-79150383D01*
X46917854Y-79110383D02*
X45515854Y-79110383D01*
X50399854Y-79110383D02*
X48997854Y-79110383D01*
X46917854Y-79070383D02*
X45502854Y-79070383D01*
X50412854Y-79070383D02*
X48997854Y-79070383D01*
X46917854Y-79030383D02*
X45489854Y-79030383D01*
X50425854Y-79030383D02*
X48997854Y-79030383D01*
X46917854Y-78990383D02*
X45477854Y-78990383D01*
X50437854Y-78990383D02*
X48997854Y-78990383D01*
X46917854Y-78949383D02*
X45466854Y-78949383D01*
X50448854Y-78949383D02*
X48997854Y-78949383D01*
X46917854Y-78909383D02*
X45456854Y-78909383D01*
X50458854Y-78909383D02*
X48997854Y-78909383D01*
X46917854Y-78869383D02*
X45446854Y-78869383D01*
X50468854Y-78869383D02*
X48997854Y-78869383D01*
X46917854Y-78829383D02*
X45437854Y-78829383D01*
X50477854Y-78829383D02*
X48997854Y-78829383D01*
X46917854Y-78789383D02*
X45429854Y-78789383D01*
X50485854Y-78789383D02*
X48997854Y-78789383D01*
X46917854Y-78749383D02*
X45421854Y-78749383D01*
X50493854Y-78749383D02*
X48997854Y-78749383D01*
X46917854Y-78709383D02*
X45414854Y-78709383D01*
X50500854Y-78709383D02*
X48997854Y-78709383D01*
X46917854Y-78669383D02*
X45407854Y-78669383D01*
X50507854Y-78669383D02*
X48997854Y-78669383D01*
X46917854Y-78629383D02*
X45401854Y-78629383D01*
X50513854Y-78629383D02*
X48997854Y-78629383D01*
X46917854Y-78589383D02*
X45396854Y-78589383D01*
X50518854Y-78589383D02*
X48997854Y-78589383D01*
X46917854Y-78549383D02*
X45392854Y-78549383D01*
X50522854Y-78549383D02*
X48997854Y-78549383D01*
X46917854Y-78509383D02*
X45388854Y-78509383D01*
X50526854Y-78509383D02*
X48997854Y-78509383D01*
X46917854Y-78469383D02*
X45384854Y-78469383D01*
X50530854Y-78469383D02*
X48997854Y-78469383D01*
X46917854Y-78429383D02*
X45381854Y-78429383D01*
X50533854Y-78429383D02*
X48997854Y-78429383D01*
X46917854Y-78389383D02*
X45379854Y-78389383D01*
X50535854Y-78389383D02*
X48997854Y-78389383D01*
X46917854Y-78349383D02*
X45378854Y-78349383D01*
X50536854Y-78349383D02*
X48997854Y-78349383D01*
X50537854Y-78309383D02*
X48997854Y-78309383D01*
X46917854Y-78309383D02*
X45377854Y-78309383D01*
X50537854Y-78269383D02*
X48997854Y-78269383D01*
X46917854Y-78269383D02*
X45377854Y-78269383D01*
X50577854Y-78269383D02*
G75*
G03X50577854Y-78269383I-2620000J0D01*
G01*
X74759918Y-88459383D02*
X73555790Y-88459383D01*
X74759918Y-90279383D02*
X73555790Y-90279383D01*
X156959918Y-35959383D02*
X155755790Y-35959383D01*
X156959918Y-37779383D02*
X155755790Y-37779383D01*
X132306254Y-42610367D02*
X132306254Y-41406239D01*
X130486254Y-42610367D02*
X130486254Y-41406239D01*
X106753854Y-59343887D02*
X106753854Y-58139759D01*
X104933854Y-59343887D02*
X104933854Y-58139759D01*
X146393094Y-49382007D02*
X146393094Y-48177879D01*
X144573094Y-49382007D02*
X144573094Y-48177879D01*
X115655790Y-41145383D02*
X116859918Y-41145383D01*
X115655790Y-39325383D02*
X116859918Y-39325383D01*
X58102694Y-65810727D02*
X58102694Y-64606599D01*
X56282694Y-65810727D02*
X56282694Y-64606599D01*
X82590238Y-45573783D02*
X81386110Y-45573783D01*
X82590238Y-47393783D02*
X81386110Y-47393783D01*
X53295654Y-58363279D02*
X53295654Y-59567407D01*
X55115654Y-58363279D02*
X55115654Y-59567407D01*
X61109079Y-36224383D02*
X61109079Y-36724383D01*
X60859079Y-36474383D02*
X61359079Y-36474383D01*
X66264854Y-37665383D02*
X66264854Y-38233383D01*
X66224854Y-37431383D02*
X66224854Y-38467383D01*
X66184854Y-37272383D02*
X66184854Y-38626383D01*
X66144854Y-37144383D02*
X66144854Y-38754383D01*
X66104854Y-37034383D02*
X66104854Y-38864383D01*
X66064854Y-36938383D02*
X66064854Y-38960383D01*
X66024854Y-36851383D02*
X66024854Y-39047383D01*
X65984854Y-36771383D02*
X65984854Y-39127383D01*
X65944854Y-36698383D02*
X65944854Y-39200383D01*
X65904854Y-36630383D02*
X65904854Y-39268383D01*
X65864854Y-36566383D02*
X65864854Y-39332383D01*
X65824854Y-36506383D02*
X65824854Y-39392383D01*
X65784854Y-36449383D02*
X65784854Y-39449383D01*
X65744854Y-36395383D02*
X65744854Y-39503383D01*
X65704854Y-36344383D02*
X65704854Y-39554383D01*
X65664854Y-38989383D02*
X65664854Y-39602383D01*
X65664854Y-36296383D02*
X65664854Y-36909383D01*
X65624854Y-38989383D02*
X65624854Y-39648383D01*
X65624854Y-36250383D02*
X65624854Y-36909383D01*
X65584854Y-38989383D02*
X65584854Y-39692383D01*
X65584854Y-36206383D02*
X65584854Y-36909383D01*
X65544854Y-38989383D02*
X65544854Y-39734383D01*
X65544854Y-36164383D02*
X65544854Y-36909383D01*
X65504854Y-38989383D02*
X65504854Y-39775383D01*
X65504854Y-36123383D02*
X65504854Y-36909383D01*
X65464854Y-38989383D02*
X65464854Y-39813383D01*
X65464854Y-36085383D02*
X65464854Y-36909383D01*
X65424854Y-38989383D02*
X65424854Y-39850383D01*
X65424854Y-36048383D02*
X65424854Y-36909383D01*
X65384854Y-38989383D02*
X65384854Y-39886383D01*
X65384854Y-36012383D02*
X65384854Y-36909383D01*
X65344854Y-38989383D02*
X65344854Y-39920383D01*
X65344854Y-35978383D02*
X65344854Y-36909383D01*
X65304854Y-38989383D02*
X65304854Y-39953383D01*
X65304854Y-35945383D02*
X65304854Y-36909383D01*
X65264854Y-38989383D02*
X65264854Y-39984383D01*
X65264854Y-35914383D02*
X65264854Y-36909383D01*
X65224854Y-38989383D02*
X65224854Y-40014383D01*
X65224854Y-35884383D02*
X65224854Y-36909383D01*
X65184854Y-38989383D02*
X65184854Y-40044383D01*
X65184854Y-35854383D02*
X65184854Y-36909383D01*
X65144854Y-38989383D02*
X65144854Y-40071383D01*
X65144854Y-35827383D02*
X65144854Y-36909383D01*
X65104854Y-38989383D02*
X65104854Y-40098383D01*
X65104854Y-35800383D02*
X65104854Y-36909383D01*
X65064854Y-38989383D02*
X65064854Y-40124383D01*
X65064854Y-35774383D02*
X65064854Y-36909383D01*
X65024854Y-38989383D02*
X65024854Y-40149383D01*
X65024854Y-35749383D02*
X65024854Y-36909383D01*
X64984854Y-38989383D02*
X64984854Y-40173383D01*
X64984854Y-35725383D02*
X64984854Y-36909383D01*
X64944854Y-38989383D02*
X64944854Y-40196383D01*
X64944854Y-35702383D02*
X64944854Y-36909383D01*
X64904854Y-38989383D02*
X64904854Y-40217383D01*
X64904854Y-35681383D02*
X64904854Y-36909383D01*
X64864854Y-38989383D02*
X64864854Y-40239383D01*
X64864854Y-35659383D02*
X64864854Y-36909383D01*
X64824854Y-38989383D02*
X64824854Y-40259383D01*
X64824854Y-35639383D02*
X64824854Y-36909383D01*
X64784854Y-38989383D02*
X64784854Y-40278383D01*
X64784854Y-35620383D02*
X64784854Y-36909383D01*
X64744854Y-38989383D02*
X64744854Y-40297383D01*
X64744854Y-35601383D02*
X64744854Y-36909383D01*
X64704854Y-38989383D02*
X64704854Y-40314383D01*
X64704854Y-35584383D02*
X64704854Y-36909383D01*
X64664854Y-38989383D02*
X64664854Y-40331383D01*
X64664854Y-35567383D02*
X64664854Y-36909383D01*
X64624854Y-38989383D02*
X64624854Y-40347383D01*
X64624854Y-35551383D02*
X64624854Y-36909383D01*
X64584854Y-38989383D02*
X64584854Y-40363383D01*
X64584854Y-35535383D02*
X64584854Y-36909383D01*
X64544854Y-38989383D02*
X64544854Y-40377383D01*
X64544854Y-35521383D02*
X64544854Y-36909383D01*
X64504854Y-38989383D02*
X64504854Y-40391383D01*
X64504854Y-35507383D02*
X64504854Y-36909383D01*
X64464854Y-38989383D02*
X64464854Y-40404383D01*
X64464854Y-35494383D02*
X64464854Y-36909383D01*
X64424854Y-38989383D02*
X64424854Y-40417383D01*
X64424854Y-35481383D02*
X64424854Y-36909383D01*
X64384854Y-38989383D02*
X64384854Y-40429383D01*
X64384854Y-35469383D02*
X64384854Y-36909383D01*
X64343854Y-38989383D02*
X64343854Y-40440383D01*
X64343854Y-35458383D02*
X64343854Y-36909383D01*
X64303854Y-38989383D02*
X64303854Y-40450383D01*
X64303854Y-35448383D02*
X64303854Y-36909383D01*
X64263854Y-38989383D02*
X64263854Y-40460383D01*
X64263854Y-35438383D02*
X64263854Y-36909383D01*
X64223854Y-38989383D02*
X64223854Y-40469383D01*
X64223854Y-35429383D02*
X64223854Y-36909383D01*
X64183854Y-38989383D02*
X64183854Y-40477383D01*
X64183854Y-35421383D02*
X64183854Y-36909383D01*
X64143854Y-38989383D02*
X64143854Y-40485383D01*
X64143854Y-35413383D02*
X64143854Y-36909383D01*
X64103854Y-38989383D02*
X64103854Y-40492383D01*
X64103854Y-35406383D02*
X64103854Y-36909383D01*
X64063854Y-38989383D02*
X64063854Y-40499383D01*
X64063854Y-35399383D02*
X64063854Y-36909383D01*
X64023854Y-38989383D02*
X64023854Y-40505383D01*
X64023854Y-35393383D02*
X64023854Y-36909383D01*
X63983854Y-38989383D02*
X63983854Y-40510383D01*
X63983854Y-35388383D02*
X63983854Y-36909383D01*
X63943854Y-38989383D02*
X63943854Y-40514383D01*
X63943854Y-35384383D02*
X63943854Y-36909383D01*
X63903854Y-38989383D02*
X63903854Y-40518383D01*
X63903854Y-35380383D02*
X63903854Y-36909383D01*
X63863854Y-38989383D02*
X63863854Y-40522383D01*
X63863854Y-35376383D02*
X63863854Y-36909383D01*
X63823854Y-38989383D02*
X63823854Y-40525383D01*
X63823854Y-35373383D02*
X63823854Y-36909383D01*
X63783854Y-38989383D02*
X63783854Y-40527383D01*
X63783854Y-35371383D02*
X63783854Y-36909383D01*
X63743854Y-38989383D02*
X63743854Y-40528383D01*
X63743854Y-35370383D02*
X63743854Y-36909383D01*
X63703854Y-35369383D02*
X63703854Y-36909383D01*
X63703854Y-38989383D02*
X63703854Y-40529383D01*
X63663854Y-35369383D02*
X63663854Y-36909383D01*
X63663854Y-38989383D02*
X63663854Y-40529383D01*
X66283854Y-37949383D02*
G75*
G03X66283854Y-37949383I-2620000J0D01*
G01*
X145008198Y-66127463D02*
X143804070Y-66127463D01*
X145008198Y-67947463D02*
X143804070Y-67947463D01*
X87299398Y-55347703D02*
X86095270Y-55347703D01*
X87299398Y-57167703D02*
X86095270Y-57167703D01*
X42206014Y-58083879D02*
X42206014Y-59288007D01*
X44026014Y-58083879D02*
X44026014Y-59288007D01*
X157959918Y-58959383D02*
X156755790Y-58959383D01*
X157959918Y-60779383D02*
X156755790Y-60779383D01*
X119187854Y-35039383D02*
X119187854Y-36369383D01*
X117857854Y-35039383D02*
X119187854Y-35039383D01*
X116587854Y-35039383D02*
X116587854Y-37699383D01*
X116587854Y-37699383D02*
X78427854Y-37699383D01*
X116587854Y-35039383D02*
X78427854Y-35039383D01*
X78427854Y-35039383D02*
X78427854Y-37699383D01*
D13*
X117333949Y-82281763D02*
X117333949Y-83091287D01*
X117381568Y-83186525D01*
X117429187Y-83234144D01*
X117524425Y-83281763D01*
X117714901Y-83281763D01*
X117810139Y-83234144D01*
X117857758Y-83186525D01*
X117905377Y-83091287D01*
X117905377Y-82281763D01*
X118810139Y-82281763D02*
X118619663Y-82281763D01*
X118524425Y-82329383D01*
X118476806Y-82377002D01*
X118381568Y-82519859D01*
X118333949Y-82710335D01*
X118333949Y-83091287D01*
X118381568Y-83186525D01*
X118429187Y-83234144D01*
X118524425Y-83281763D01*
X118714901Y-83281763D01*
X118810139Y-83234144D01*
X118857758Y-83186525D01*
X118905377Y-83091287D01*
X118905377Y-82853192D01*
X118857758Y-82757954D01*
X118810139Y-82710335D01*
X118714901Y-82662716D01*
X118524425Y-82662716D01*
X118429187Y-82710335D01*
X118381568Y-82757954D01*
X118333949Y-82853192D01*
X95845949Y-104421763D02*
X95845949Y-105231287D01*
X95893568Y-105326525D01*
X95941187Y-105374144D01*
X96036425Y-105421763D01*
X96226901Y-105421763D01*
X96322139Y-105374144D01*
X96369758Y-105326525D01*
X96417377Y-105231287D01*
X96417377Y-104421763D01*
X97369758Y-104421763D02*
X96893568Y-104421763D01*
X96845949Y-104897954D01*
X96893568Y-104850335D01*
X96988806Y-104802716D01*
X97226901Y-104802716D01*
X97322139Y-104850335D01*
X97369758Y-104897954D01*
X97417377Y-104993192D01*
X97417377Y-105231287D01*
X97369758Y-105326525D01*
X97322139Y-105374144D01*
X97226901Y-105421763D01*
X96988806Y-105421763D01*
X96893568Y-105374144D01*
X96845949Y-105326525D01*
X95795949Y-51971763D02*
X95795949Y-52781287D01*
X95843568Y-52876525D01*
X95891187Y-52924144D01*
X95986425Y-52971763D01*
X96176901Y-52971763D01*
X96272139Y-52924144D01*
X96319758Y-52876525D01*
X96367377Y-52781287D01*
X96367377Y-51971763D01*
X96748330Y-51971763D02*
X97367377Y-51971763D01*
X97034044Y-52352716D01*
X97176901Y-52352716D01*
X97272139Y-52400335D01*
X97319758Y-52447954D01*
X97367377Y-52543192D01*
X97367377Y-52781287D01*
X97319758Y-52876525D01*
X97272139Y-52924144D01*
X97176901Y-52971763D01*
X96891187Y-52971763D01*
X96795949Y-52924144D01*
X96748330Y-52876525D01*
X86298330Y-88571763D02*
X86298330Y-89286049D01*
X86250711Y-89428906D01*
X86155473Y-89524144D01*
X86012615Y-89571763D01*
X85917377Y-89571763D01*
X86726901Y-88667002D02*
X86774520Y-88619383D01*
X86869758Y-88571763D01*
X87107854Y-88571763D01*
X87203092Y-88619383D01*
X87250711Y-88667002D01*
X87298330Y-88762240D01*
X87298330Y-88857478D01*
X87250711Y-89000335D01*
X86679282Y-89571763D01*
X87298330Y-89571763D01*
X88203092Y-88571763D02*
X87726901Y-88571763D01*
X87679282Y-89047954D01*
X87726901Y-89000335D01*
X87822139Y-88952716D01*
X88060234Y-88952716D01*
X88155473Y-89000335D01*
X88203092Y-89047954D01*
X88250711Y-89143192D01*
X88250711Y-89381287D01*
X88203092Y-89476525D01*
X88155473Y-89524144D01*
X88060234Y-89571763D01*
X87822139Y-89571763D01*
X87726901Y-89524144D01*
X87679282Y-89476525D01*
X87517377Y-88271763D02*
X87517377Y-87271763D01*
X87898330Y-87271763D01*
X87993568Y-87319383D01*
X88041187Y-87367002D01*
X88088806Y-87462240D01*
X88088806Y-87605097D01*
X88041187Y-87700335D01*
X87993568Y-87747954D01*
X87898330Y-87795573D01*
X87517377Y-87795573D01*
X88707854Y-87271763D02*
X88898330Y-87271763D01*
X88993568Y-87319383D01*
X89088806Y-87414621D01*
X89136425Y-87605097D01*
X89136425Y-87938430D01*
X89088806Y-88128906D01*
X88993568Y-88224144D01*
X88898330Y-88271763D01*
X88707854Y-88271763D01*
X88612615Y-88224144D01*
X88517377Y-88128906D01*
X88469758Y-87938430D01*
X88469758Y-87605097D01*
X88517377Y-87414621D01*
X88612615Y-87319383D01*
X88707854Y-87271763D01*
X89469758Y-87271763D02*
X89707854Y-88271763D01*
X89898330Y-87557478D01*
X90088806Y-88271763D01*
X90326901Y-87271763D01*
X90707854Y-87747954D02*
X91041187Y-87747954D01*
X91184044Y-88271763D02*
X90707854Y-88271763D01*
X90707854Y-87271763D01*
X91184044Y-87271763D01*
X92184044Y-88271763D02*
X91850711Y-87795573D01*
X91612615Y-88271763D02*
X91612615Y-87271763D01*
X91993568Y-87271763D01*
X92088806Y-87319383D01*
X92136425Y-87367002D01*
X92184044Y-87462240D01*
X92184044Y-87605097D01*
X92136425Y-87700335D01*
X92088806Y-87747954D01*
X91993568Y-87795573D01*
X91612615Y-87795573D01*
X92803092Y-87271763D02*
X92993568Y-87271763D01*
X93088806Y-87319383D01*
X93184044Y-87414621D01*
X93231663Y-87605097D01*
X93231663Y-87938430D01*
X93184044Y-88128906D01*
X93088806Y-88224144D01*
X92993568Y-88271763D01*
X92803092Y-88271763D01*
X92707854Y-88224144D01*
X92612615Y-88128906D01*
X92564996Y-87938430D01*
X92564996Y-87605097D01*
X92612615Y-87414621D01*
X92707854Y-87319383D01*
X92803092Y-87271763D01*
X93993568Y-87747954D02*
X93660234Y-87747954D01*
X93660234Y-88271763D02*
X93660234Y-87271763D01*
X94136425Y-87271763D01*
X94850711Y-87747954D02*
X94517377Y-87747954D01*
X94517377Y-88271763D02*
X94517377Y-87271763D01*
X94993568Y-87271763D01*
X69295949Y-78321763D02*
X69295949Y-79131287D01*
X69343568Y-79226525D01*
X69391187Y-79274144D01*
X69486425Y-79321763D01*
X69676901Y-79321763D01*
X69772139Y-79274144D01*
X69819758Y-79226525D01*
X69867377Y-79131287D01*
X69867377Y-78321763D01*
X70772139Y-78655097D02*
X70772139Y-79321763D01*
X70534044Y-78274144D02*
X70295949Y-78988430D01*
X70914996Y-78988430D01*
X57714996Y-112691763D02*
X57381663Y-112215573D01*
X57143568Y-112691763D02*
X57143568Y-111691763D01*
X57524520Y-111691763D01*
X57619758Y-111739383D01*
X57667377Y-111787002D01*
X57714996Y-111882240D01*
X57714996Y-112025097D01*
X57667377Y-112120335D01*
X57619758Y-112167954D01*
X57524520Y-112215573D01*
X57143568Y-112215573D01*
X58572139Y-112025097D02*
X58572139Y-112691763D01*
X58334044Y-111644144D02*
X58095949Y-112358430D01*
X58714996Y-112358430D01*
X59572139Y-111691763D02*
X59095949Y-111691763D01*
X59048330Y-112167954D01*
X59095949Y-112120335D01*
X59191187Y-112072716D01*
X59429282Y-112072716D01*
X59524520Y-112120335D01*
X59572139Y-112167954D01*
X59619758Y-112263192D01*
X59619758Y-112501287D01*
X59572139Y-112596525D01*
X59524520Y-112644144D01*
X59429282Y-112691763D01*
X59191187Y-112691763D01*
X59095949Y-112644144D01*
X59048330Y-112596525D01*
X51862615Y-114517002D02*
X51767377Y-114469383D01*
X51672139Y-114374144D01*
X51529282Y-114231287D01*
X51434044Y-114183668D01*
X51338806Y-114183668D01*
X51386425Y-114421763D02*
X51291187Y-114374144D01*
X51195949Y-114278906D01*
X51148330Y-114088430D01*
X51148330Y-113755097D01*
X51195949Y-113564621D01*
X51291187Y-113469383D01*
X51386425Y-113421763D01*
X51576901Y-113421763D01*
X51672139Y-113469383D01*
X51767377Y-113564621D01*
X51814996Y-113755097D01*
X51814996Y-114088430D01*
X51767377Y-114278906D01*
X51672139Y-114374144D01*
X51576901Y-114421763D01*
X51386425Y-114421763D01*
X52672139Y-113421763D02*
X52481663Y-113421763D01*
X52386425Y-113469383D01*
X52338806Y-113517002D01*
X52243568Y-113659859D01*
X52195949Y-113850335D01*
X52195949Y-114231287D01*
X52243568Y-114326525D01*
X52291187Y-114374144D01*
X52386425Y-114421763D01*
X52576901Y-114421763D01*
X52672139Y-114374144D01*
X52719758Y-114326525D01*
X52767377Y-114231287D01*
X52767377Y-113993192D01*
X52719758Y-113897954D01*
X52672139Y-113850335D01*
X52576901Y-113802716D01*
X52386425Y-113802716D01*
X52291187Y-113850335D01*
X52243568Y-113897954D01*
X52195949Y-113993192D01*
X94912615Y-79567002D02*
X94817377Y-79519383D01*
X94722139Y-79424144D01*
X94579282Y-79281287D01*
X94484044Y-79233668D01*
X94388806Y-79233668D01*
X94436425Y-79471763D02*
X94341187Y-79424144D01*
X94245949Y-79328906D01*
X94198330Y-79138430D01*
X94198330Y-78805097D01*
X94245949Y-78614621D01*
X94341187Y-78519383D01*
X94436425Y-78471763D01*
X94626901Y-78471763D01*
X94722139Y-78519383D01*
X94817377Y-78614621D01*
X94864996Y-78805097D01*
X94864996Y-79138430D01*
X94817377Y-79328906D01*
X94722139Y-79424144D01*
X94626901Y-79471763D01*
X94436425Y-79471763D01*
X95769758Y-78471763D02*
X95293568Y-78471763D01*
X95245949Y-78947954D01*
X95293568Y-78900335D01*
X95388806Y-78852716D01*
X95626901Y-78852716D01*
X95722139Y-78900335D01*
X95769758Y-78947954D01*
X95817377Y-79043192D01*
X95817377Y-79281287D01*
X95769758Y-79376525D01*
X95722139Y-79424144D01*
X95626901Y-79471763D01*
X95388806Y-79471763D01*
X95293568Y-79424144D01*
X95245949Y-79376525D01*
X55448330Y-90721763D02*
X55448330Y-91436049D01*
X55400711Y-91578906D01*
X55305473Y-91674144D01*
X55162615Y-91721763D01*
X55067377Y-91721763D01*
X55876901Y-90817002D02*
X55924520Y-90769383D01*
X56019758Y-90721763D01*
X56257854Y-90721763D01*
X56353092Y-90769383D01*
X56400711Y-90817002D01*
X56448330Y-90912240D01*
X56448330Y-91007478D01*
X56400711Y-91150335D01*
X55829282Y-91721763D01*
X56448330Y-91721763D01*
X56781663Y-90721763D02*
X57448330Y-90721763D01*
X57019758Y-91721763D01*
X42719758Y-94071763D02*
X42719758Y-93071763D01*
X42957854Y-93071763D01*
X43100711Y-93119383D01*
X43195949Y-93214621D01*
X43243568Y-93309859D01*
X43291187Y-93500335D01*
X43291187Y-93643192D01*
X43243568Y-93833668D01*
X43195949Y-93928906D01*
X43100711Y-94024144D01*
X42957854Y-94071763D01*
X42719758Y-94071763D01*
X43624520Y-93071763D02*
X44291187Y-93071763D01*
X43862615Y-94071763D01*
X51914996Y-88706525D02*
X51867377Y-88754144D01*
X51724520Y-88801763D01*
X51629282Y-88801763D01*
X51486425Y-88754144D01*
X51391187Y-88658906D01*
X51343568Y-88563668D01*
X51295949Y-88373192D01*
X51295949Y-88230335D01*
X51343568Y-88039859D01*
X51391187Y-87944621D01*
X51486425Y-87849383D01*
X51629282Y-87801763D01*
X51724520Y-87801763D01*
X51867377Y-87849383D01*
X51914996Y-87897002D01*
X52248330Y-87801763D02*
X52867377Y-87801763D01*
X52534044Y-88182716D01*
X52676901Y-88182716D01*
X52772139Y-88230335D01*
X52819758Y-88277954D01*
X52867377Y-88373192D01*
X52867377Y-88611287D01*
X52819758Y-88706525D01*
X52772139Y-88754144D01*
X52676901Y-88801763D01*
X52391187Y-88801763D01*
X52295949Y-88754144D01*
X52248330Y-88706525D01*
X53248330Y-87897002D02*
X53295949Y-87849383D01*
X53391187Y-87801763D01*
X53629282Y-87801763D01*
X53724520Y-87849383D01*
X53772139Y-87897002D01*
X53819758Y-87992240D01*
X53819758Y-88087478D01*
X53772139Y-88230335D01*
X53200711Y-88801763D01*
X53819758Y-88801763D01*
X43564996Y-105526525D02*
X43517377Y-105574144D01*
X43374520Y-105621763D01*
X43279282Y-105621763D01*
X43136425Y-105574144D01*
X43041187Y-105478906D01*
X42993568Y-105383668D01*
X42945949Y-105193192D01*
X42945949Y-105050335D01*
X42993568Y-104859859D01*
X43041187Y-104764621D01*
X43136425Y-104669383D01*
X43279282Y-104621763D01*
X43374520Y-104621763D01*
X43517377Y-104669383D01*
X43564996Y-104717002D01*
X43898330Y-104621763D02*
X44517377Y-104621763D01*
X44184044Y-105002716D01*
X44326901Y-105002716D01*
X44422139Y-105050335D01*
X44469758Y-105097954D01*
X44517377Y-105193192D01*
X44517377Y-105431287D01*
X44469758Y-105526525D01*
X44422139Y-105574144D01*
X44326901Y-105621763D01*
X44041187Y-105621763D01*
X43945949Y-105574144D01*
X43898330Y-105526525D01*
X45469758Y-105621763D02*
X44898330Y-105621763D01*
X45184044Y-105621763D02*
X45184044Y-104621763D01*
X45088806Y-104764621D01*
X44993568Y-104859859D01*
X44898330Y-104907478D01*
X78445949Y-47871763D02*
X78445949Y-48681287D01*
X78493568Y-48776525D01*
X78541187Y-48824144D01*
X78636425Y-48871763D01*
X78826901Y-48871763D01*
X78922139Y-48824144D01*
X78969758Y-48776525D01*
X79017377Y-48681287D01*
X79017377Y-47871763D01*
X80017377Y-48871763D02*
X79445949Y-48871763D01*
X79731663Y-48871763D02*
X79731663Y-47871763D01*
X79636425Y-48014621D01*
X79541187Y-48109859D01*
X79445949Y-48157478D01*
X121012615Y-89571763D02*
X120679282Y-89095573D01*
X120441187Y-89571763D02*
X120441187Y-88571763D01*
X120822139Y-88571763D01*
X120917377Y-88619383D01*
X120964996Y-88667002D01*
X121012615Y-88762240D01*
X121012615Y-88905097D01*
X120964996Y-89000335D01*
X120917377Y-89047954D01*
X120822139Y-89095573D01*
X120441187Y-89095573D01*
X121298330Y-88571763D02*
X121631663Y-89571763D01*
X121964996Y-88571763D01*
X122250711Y-88667002D02*
X122298330Y-88619383D01*
X122393568Y-88571763D01*
X122631663Y-88571763D01*
X122726901Y-88619383D01*
X122774520Y-88667002D01*
X122822139Y-88762240D01*
X122822139Y-88857478D01*
X122774520Y-89000335D01*
X122203092Y-89571763D01*
X122822139Y-89571763D01*
X111262615Y-44571763D02*
X110929282Y-44095573D01*
X110691187Y-44571763D02*
X110691187Y-43571763D01*
X111072139Y-43571763D01*
X111167377Y-43619383D01*
X111214996Y-43667002D01*
X111262615Y-43762240D01*
X111262615Y-43905097D01*
X111214996Y-44000335D01*
X111167377Y-44047954D01*
X111072139Y-44095573D01*
X110691187Y-44095573D01*
X111548330Y-43571763D02*
X111881663Y-44571763D01*
X112214996Y-43571763D01*
X113072139Y-44571763D02*
X112500711Y-44571763D01*
X112786425Y-44571763D02*
X112786425Y-43571763D01*
X112691187Y-43714621D01*
X112595949Y-43809859D01*
X112500711Y-43857478D01*
X75422036Y-35371563D02*
X75088703Y-34895373D01*
X74850608Y-35371563D02*
X74850608Y-34371563D01*
X75231560Y-34371563D01*
X75326798Y-34419183D01*
X75374417Y-34466802D01*
X75422036Y-34562040D01*
X75422036Y-34704897D01*
X75374417Y-34800135D01*
X75326798Y-34847754D01*
X75231560Y-34895373D01*
X74850608Y-34895373D01*
X76279179Y-34704897D02*
X76279179Y-35371563D01*
X76041084Y-34323944D02*
X75802989Y-35038230D01*
X76422036Y-35038230D01*
X77231560Y-34704897D02*
X77231560Y-35371563D01*
X76993465Y-34323944D02*
X76755370Y-35038230D01*
X77374417Y-35038230D01*
X101874520Y-46221763D02*
X101874520Y-46936049D01*
X101826901Y-47078906D01*
X101731663Y-47174144D01*
X101588806Y-47221763D01*
X101493568Y-47221763D01*
X102826901Y-46221763D02*
X102350711Y-46221763D01*
X102303092Y-46697954D01*
X102350711Y-46650335D01*
X102445949Y-46602716D01*
X102684044Y-46602716D01*
X102779282Y-46650335D01*
X102826901Y-46697954D01*
X102874520Y-46793192D01*
X102874520Y-47031287D01*
X102826901Y-47126525D01*
X102779282Y-47174144D01*
X102684044Y-47221763D01*
X102445949Y-47221763D01*
X102350711Y-47174144D01*
X102303092Y-47126525D01*
X103798330Y-45847954D02*
X103941187Y-45895573D01*
X103988806Y-45943192D01*
X104036425Y-46038430D01*
X104036425Y-46181287D01*
X103988806Y-46276525D01*
X103941187Y-46324144D01*
X103845949Y-46371763D01*
X103464996Y-46371763D01*
X103464996Y-45371763D01*
X103798330Y-45371763D01*
X103893568Y-45419383D01*
X103941187Y-45467002D01*
X103988806Y-45562240D01*
X103988806Y-45657478D01*
X103941187Y-45752716D01*
X103893568Y-45800335D01*
X103798330Y-45847954D01*
X103464996Y-45847954D01*
X104464996Y-45371763D02*
X104464996Y-46181287D01*
X104512615Y-46276525D01*
X104560234Y-46324144D01*
X104655473Y-46371763D01*
X104845949Y-46371763D01*
X104941187Y-46324144D01*
X104988806Y-46276525D01*
X105036425Y-46181287D01*
X105036425Y-45371763D01*
X105417377Y-45371763D02*
X106084044Y-45371763D01*
X105417377Y-46371763D01*
X106084044Y-46371763D01*
X106369758Y-45371763D02*
X107036425Y-45371763D01*
X106369758Y-46371763D01*
X107036425Y-46371763D01*
X107417377Y-45847954D02*
X107750711Y-45847954D01*
X107893568Y-46371763D02*
X107417377Y-46371763D01*
X107417377Y-45371763D01*
X107893568Y-45371763D01*
X108893568Y-46371763D02*
X108560234Y-45895573D01*
X108322139Y-46371763D02*
X108322139Y-45371763D01*
X108703092Y-45371763D01*
X108798330Y-45419383D01*
X108845949Y-45467002D01*
X108893568Y-45562240D01*
X108893568Y-45705097D01*
X108845949Y-45800335D01*
X108798330Y-45847954D01*
X108703092Y-45895573D01*
X108322139Y-45895573D01*
X109084044Y-46467002D02*
X109845949Y-46467002D01*
X110084044Y-46371763D02*
X110084044Y-45371763D01*
X110417377Y-46086049D01*
X110750711Y-45371763D01*
X110750711Y-46371763D01*
X71499255Y-34411242D02*
X71404017Y-34363623D01*
X71308779Y-34268384D01*
X71165922Y-34125527D01*
X71070684Y-34077908D01*
X70975446Y-34077908D01*
X71023065Y-34316003D02*
X70927827Y-34268384D01*
X70832589Y-34173146D01*
X70784970Y-33982670D01*
X70784970Y-33649337D01*
X70832589Y-33458861D01*
X70927827Y-33363623D01*
X71023065Y-33316003D01*
X71213541Y-33316003D01*
X71308779Y-33363623D01*
X71404017Y-33458861D01*
X71451636Y-33649337D01*
X71451636Y-33982670D01*
X71404017Y-34173146D01*
X71308779Y-34268384D01*
X71213541Y-34316003D01*
X71023065Y-34316003D01*
X72308779Y-33649337D02*
X72308779Y-34316003D01*
X72070684Y-33268384D02*
X71832589Y-33982670D01*
X72451636Y-33982670D01*
X66346615Y-114517002D02*
X66251377Y-114469383D01*
X66156139Y-114374144D01*
X66013282Y-114231287D01*
X65918044Y-114183668D01*
X65822806Y-114183668D01*
X65870425Y-114421763D02*
X65775187Y-114374144D01*
X65679949Y-114278906D01*
X65632330Y-114088430D01*
X65632330Y-113755097D01*
X65679949Y-113564621D01*
X65775187Y-113469383D01*
X65870425Y-113421763D01*
X66060901Y-113421763D01*
X66156139Y-113469383D01*
X66251377Y-113564621D01*
X66298996Y-113755097D01*
X66298996Y-114088430D01*
X66251377Y-114278906D01*
X66156139Y-114374144D01*
X66060901Y-114421763D01*
X65870425Y-114421763D01*
X66632330Y-113421763D02*
X67251377Y-113421763D01*
X66918044Y-113802716D01*
X67060901Y-113802716D01*
X67156139Y-113850335D01*
X67203758Y-113897954D01*
X67251377Y-113993192D01*
X67251377Y-114231287D01*
X67203758Y-114326525D01*
X67156139Y-114374144D01*
X67060901Y-114421763D01*
X66775187Y-114421763D01*
X66679949Y-114374144D01*
X66632330Y-114326525D01*
X80830615Y-114517002D02*
X80735377Y-114469383D01*
X80640139Y-114374144D01*
X80497282Y-114231287D01*
X80402044Y-114183668D01*
X80306806Y-114183668D01*
X80354425Y-114421763D02*
X80259187Y-114374144D01*
X80163949Y-114278906D01*
X80116330Y-114088430D01*
X80116330Y-113755097D01*
X80163949Y-113564621D01*
X80259187Y-113469383D01*
X80354425Y-113421763D01*
X80544901Y-113421763D01*
X80640139Y-113469383D01*
X80735377Y-113564621D01*
X80782996Y-113755097D01*
X80782996Y-114088430D01*
X80735377Y-114278906D01*
X80640139Y-114374144D01*
X80544901Y-114421763D01*
X80354425Y-114421763D01*
X81163949Y-113517002D02*
X81211568Y-113469383D01*
X81306806Y-113421763D01*
X81544901Y-113421763D01*
X81640139Y-113469383D01*
X81687758Y-113517002D01*
X81735377Y-113612240D01*
X81735377Y-113707478D01*
X81687758Y-113850335D01*
X81116330Y-114421763D01*
X81735377Y-114421763D01*
X45462615Y-64217002D02*
X45367377Y-64169383D01*
X45272139Y-64074144D01*
X45129282Y-63931287D01*
X45034044Y-63883668D01*
X44938806Y-63883668D01*
X44986425Y-64121763D02*
X44891187Y-64074144D01*
X44795949Y-63978906D01*
X44748330Y-63788430D01*
X44748330Y-63455097D01*
X44795949Y-63264621D01*
X44891187Y-63169383D01*
X44986425Y-63121763D01*
X45176901Y-63121763D01*
X45272139Y-63169383D01*
X45367377Y-63264621D01*
X45414996Y-63455097D01*
X45414996Y-63788430D01*
X45367377Y-63978906D01*
X45272139Y-64074144D01*
X45176901Y-64121763D01*
X44986425Y-64121763D01*
X46367377Y-64121763D02*
X45795949Y-64121763D01*
X46081663Y-64121763D02*
X46081663Y-63121763D01*
X45986425Y-63264621D01*
X45891187Y-63359859D01*
X45795949Y-63407478D01*
X61045949Y-55771763D02*
X61045949Y-56581287D01*
X61093568Y-56676525D01*
X61141187Y-56724144D01*
X61236425Y-56771763D01*
X61426901Y-56771763D01*
X61522139Y-56724144D01*
X61569758Y-56676525D01*
X61617377Y-56581287D01*
X61617377Y-55771763D01*
X62045949Y-55867002D02*
X62093568Y-55819383D01*
X62188806Y-55771763D01*
X62426901Y-55771763D01*
X62522139Y-55819383D01*
X62569758Y-55867002D01*
X62617377Y-55962240D01*
X62617377Y-56057478D01*
X62569758Y-56200335D01*
X61998330Y-56771763D01*
X62617377Y-56771763D01*
X156295949Y-124171763D02*
X156867377Y-124171763D01*
X156581663Y-125171763D02*
X156581663Y-124171763D01*
X157200711Y-125171763D02*
X157200711Y-124171763D01*
X157581663Y-124171763D01*
X157676901Y-124219383D01*
X157724520Y-124267002D01*
X157772139Y-124362240D01*
X157772139Y-124505097D01*
X157724520Y-124600335D01*
X157676901Y-124647954D01*
X157581663Y-124695573D01*
X157200711Y-124695573D01*
X158629282Y-124505097D02*
X158629282Y-125171763D01*
X158391187Y-124124144D02*
X158153092Y-124838430D01*
X158772139Y-124838430D01*
X160295949Y-33321763D02*
X160867377Y-33321763D01*
X160581663Y-34321763D02*
X160581663Y-33321763D01*
X161200711Y-34321763D02*
X161200711Y-33321763D01*
X161581663Y-33321763D01*
X161676901Y-33369383D01*
X161724520Y-33417002D01*
X161772139Y-33512240D01*
X161772139Y-33655097D01*
X161724520Y-33750335D01*
X161676901Y-33797954D01*
X161581663Y-33845573D01*
X161200711Y-33845573D01*
X162724520Y-34321763D02*
X162153092Y-34321763D01*
X162438806Y-34321763D02*
X162438806Y-33321763D01*
X162343568Y-33464621D01*
X162248330Y-33559859D01*
X162153092Y-33607478D01*
X149445949Y-95474144D02*
X149588806Y-95521763D01*
X149826901Y-95521763D01*
X149922139Y-95474144D01*
X149969758Y-95426525D01*
X150017377Y-95331287D01*
X150017377Y-95236049D01*
X149969758Y-95140811D01*
X149922139Y-95093192D01*
X149826901Y-95045573D01*
X149636425Y-94997954D01*
X149541187Y-94950335D01*
X149493568Y-94902716D01*
X149445949Y-94807478D01*
X149445949Y-94712240D01*
X149493568Y-94617002D01*
X149541187Y-94569383D01*
X149636425Y-94521763D01*
X149874520Y-94521763D01*
X150017377Y-94569383D01*
X150874520Y-94855097D02*
X150874520Y-95521763D01*
X150636425Y-94474144D02*
X150398330Y-95188430D01*
X151017377Y-95188430D01*
X149245949Y-116374144D02*
X149388806Y-116421763D01*
X149626901Y-116421763D01*
X149722139Y-116374144D01*
X149769758Y-116326525D01*
X149817377Y-116231287D01*
X149817377Y-116136049D01*
X149769758Y-116040811D01*
X149722139Y-115993192D01*
X149626901Y-115945573D01*
X149436425Y-115897954D01*
X149341187Y-115850335D01*
X149293568Y-115802716D01*
X149245949Y-115707478D01*
X149245949Y-115612240D01*
X149293568Y-115517002D01*
X149341187Y-115469383D01*
X149436425Y-115421763D01*
X149674520Y-115421763D01*
X149817377Y-115469383D01*
X150150711Y-115421763D02*
X150769758Y-115421763D01*
X150436425Y-115802716D01*
X150579282Y-115802716D01*
X150674520Y-115850335D01*
X150722139Y-115897954D01*
X150769758Y-115993192D01*
X150769758Y-116231287D01*
X150722139Y-116326525D01*
X150674520Y-116374144D01*
X150579282Y-116421763D01*
X150293568Y-116421763D01*
X150198330Y-116374144D01*
X150150711Y-116326525D01*
X149395949Y-45824144D02*
X149538806Y-45871763D01*
X149776901Y-45871763D01*
X149872139Y-45824144D01*
X149919758Y-45776525D01*
X149967377Y-45681287D01*
X149967377Y-45586049D01*
X149919758Y-45490811D01*
X149872139Y-45443192D01*
X149776901Y-45395573D01*
X149586425Y-45347954D01*
X149491187Y-45300335D01*
X149443568Y-45252716D01*
X149395949Y-45157478D01*
X149395949Y-45062240D01*
X149443568Y-44967002D01*
X149491187Y-44919383D01*
X149586425Y-44871763D01*
X149824520Y-44871763D01*
X149967377Y-44919383D01*
X150348330Y-44967002D02*
X150395949Y-44919383D01*
X150491187Y-44871763D01*
X150729282Y-44871763D01*
X150824520Y-44919383D01*
X150872139Y-44967002D01*
X150919758Y-45062240D01*
X150919758Y-45157478D01*
X150872139Y-45300335D01*
X150300711Y-45871763D01*
X150919758Y-45871763D01*
X149095949Y-67174144D02*
X149238806Y-67221763D01*
X149476901Y-67221763D01*
X149572139Y-67174144D01*
X149619758Y-67126525D01*
X149667377Y-67031287D01*
X149667377Y-66936049D01*
X149619758Y-66840811D01*
X149572139Y-66793192D01*
X149476901Y-66745573D01*
X149286425Y-66697954D01*
X149191187Y-66650335D01*
X149143568Y-66602716D01*
X149095949Y-66507478D01*
X149095949Y-66412240D01*
X149143568Y-66317002D01*
X149191187Y-66269383D01*
X149286425Y-66221763D01*
X149524520Y-66221763D01*
X149667377Y-66269383D01*
X150619758Y-67221763D02*
X150048330Y-67221763D01*
X150334044Y-67221763D02*
X150334044Y-66221763D01*
X150238806Y-66364621D01*
X150143568Y-66459859D01*
X150048330Y-66507478D01*
X80914996Y-79091763D02*
X80581663Y-78615573D01*
X80343568Y-79091763D02*
X80343568Y-78091763D01*
X80724520Y-78091763D01*
X80819758Y-78139383D01*
X80867377Y-78187002D01*
X80914996Y-78282240D01*
X80914996Y-78425097D01*
X80867377Y-78520335D01*
X80819758Y-78567954D01*
X80724520Y-78615573D01*
X80343568Y-78615573D01*
X81772139Y-78425097D02*
X81772139Y-79091763D01*
X81534044Y-78044144D02*
X81295949Y-78758430D01*
X81914996Y-78758430D01*
X82200711Y-78091763D02*
X82819758Y-78091763D01*
X82486425Y-78472716D01*
X82629282Y-78472716D01*
X82724520Y-78520335D01*
X82772139Y-78567954D01*
X82819758Y-78663192D01*
X82819758Y-78901287D01*
X82772139Y-78996525D01*
X82724520Y-79044144D01*
X82629282Y-79091763D01*
X82343568Y-79091763D01*
X82248330Y-79044144D01*
X82200711Y-78996525D01*
X87364996Y-81191763D02*
X87031663Y-80715573D01*
X86793568Y-81191763D02*
X86793568Y-80191763D01*
X87174520Y-80191763D01*
X87269758Y-80239383D01*
X87317377Y-80287002D01*
X87364996Y-80382240D01*
X87364996Y-80525097D01*
X87317377Y-80620335D01*
X87269758Y-80667954D01*
X87174520Y-80715573D01*
X86793568Y-80715573D01*
X88222139Y-80525097D02*
X88222139Y-81191763D01*
X87984044Y-80144144D02*
X87745949Y-80858430D01*
X88364996Y-80858430D01*
X88698330Y-80287002D02*
X88745949Y-80239383D01*
X88841187Y-80191763D01*
X89079282Y-80191763D01*
X89174520Y-80239383D01*
X89222139Y-80287002D01*
X89269758Y-80382240D01*
X89269758Y-80477478D01*
X89222139Y-80620335D01*
X88650711Y-81191763D01*
X89269758Y-81191763D01*
X83914996Y-81371763D02*
X83581663Y-80895573D01*
X83343568Y-81371763D02*
X83343568Y-80371763D01*
X83724520Y-80371763D01*
X83819758Y-80419383D01*
X83867377Y-80467002D01*
X83914996Y-80562240D01*
X83914996Y-80705097D01*
X83867377Y-80800335D01*
X83819758Y-80847954D01*
X83724520Y-80895573D01*
X83343568Y-80895573D01*
X84772139Y-80705097D02*
X84772139Y-81371763D01*
X84534044Y-80324144D02*
X84295949Y-81038430D01*
X84914996Y-81038430D01*
X85819758Y-81371763D02*
X85248330Y-81371763D01*
X85534044Y-81371763D02*
X85534044Y-80371763D01*
X85438806Y-80514621D01*
X85343568Y-80609859D01*
X85248330Y-80657478D01*
X72983636Y-41310043D02*
X72650303Y-40833853D01*
X72412208Y-41310043D02*
X72412208Y-40310043D01*
X72793160Y-40310043D01*
X72888398Y-40357663D01*
X72936017Y-40405282D01*
X72983636Y-40500520D01*
X72983636Y-40643377D01*
X72936017Y-40738615D01*
X72888398Y-40786234D01*
X72793160Y-40833853D01*
X72412208Y-40833853D01*
X73840779Y-40643377D02*
X73840779Y-41310043D01*
X73602684Y-40262424D02*
X73364589Y-40976710D01*
X73983636Y-40976710D01*
X74555065Y-40310043D02*
X74650303Y-40310043D01*
X74745541Y-40357663D01*
X74793160Y-40405282D01*
X74840779Y-40500520D01*
X74888398Y-40690996D01*
X74888398Y-40929091D01*
X74840779Y-41119567D01*
X74793160Y-41214805D01*
X74745541Y-41262424D01*
X74650303Y-41310043D01*
X74555065Y-41310043D01*
X74459827Y-41262424D01*
X74412208Y-41214805D01*
X74364589Y-41119567D01*
X74316970Y-40929091D01*
X74316970Y-40690996D01*
X74364589Y-40500520D01*
X74412208Y-40405282D01*
X74459827Y-40357663D01*
X74555065Y-40310043D01*
X76910476Y-41335443D02*
X76577143Y-40859253D01*
X76339048Y-41335443D02*
X76339048Y-40335443D01*
X76720000Y-40335443D01*
X76815238Y-40383063D01*
X76862857Y-40430682D01*
X76910476Y-40525920D01*
X76910476Y-40668777D01*
X76862857Y-40764015D01*
X76815238Y-40811634D01*
X76720000Y-40859253D01*
X76339048Y-40859253D01*
X77243810Y-40335443D02*
X77862857Y-40335443D01*
X77529524Y-40716396D01*
X77672381Y-40716396D01*
X77767619Y-40764015D01*
X77815238Y-40811634D01*
X77862857Y-40906872D01*
X77862857Y-41144967D01*
X77815238Y-41240205D01*
X77767619Y-41287824D01*
X77672381Y-41335443D01*
X77386667Y-41335443D01*
X77291429Y-41287824D01*
X77243810Y-41240205D01*
X78339048Y-41335443D02*
X78529524Y-41335443D01*
X78624762Y-41287824D01*
X78672381Y-41240205D01*
X78767619Y-41097348D01*
X78815238Y-40906872D01*
X78815238Y-40525920D01*
X78767619Y-40430682D01*
X78720000Y-40383063D01*
X78624762Y-40335443D01*
X78434286Y-40335443D01*
X78339048Y-40383063D01*
X78291429Y-40430682D01*
X78243810Y-40525920D01*
X78243810Y-40764015D01*
X78291429Y-40859253D01*
X78339048Y-40906872D01*
X78434286Y-40954491D01*
X78624762Y-40954491D01*
X78720000Y-40906872D01*
X78767619Y-40859253D01*
X78815238Y-40764015D01*
X55514996Y-117021763D02*
X55181663Y-116545573D01*
X54943568Y-117021763D02*
X54943568Y-116021763D01*
X55324520Y-116021763D01*
X55419758Y-116069383D01*
X55467377Y-116117002D01*
X55514996Y-116212240D01*
X55514996Y-116355097D01*
X55467377Y-116450335D01*
X55419758Y-116497954D01*
X55324520Y-116545573D01*
X54943568Y-116545573D01*
X55848330Y-116021763D02*
X56467377Y-116021763D01*
X56134044Y-116402716D01*
X56276901Y-116402716D01*
X56372139Y-116450335D01*
X56419758Y-116497954D01*
X56467377Y-116593192D01*
X56467377Y-116831287D01*
X56419758Y-116926525D01*
X56372139Y-116974144D01*
X56276901Y-117021763D01*
X55991187Y-117021763D01*
X55895949Y-116974144D01*
X55848330Y-116926525D01*
X57038806Y-116450335D02*
X56943568Y-116402716D01*
X56895949Y-116355097D01*
X56848330Y-116259859D01*
X56848330Y-116212240D01*
X56895949Y-116117002D01*
X56943568Y-116069383D01*
X57038806Y-116021763D01*
X57229282Y-116021763D01*
X57324520Y-116069383D01*
X57372139Y-116117002D01*
X57419758Y-116212240D01*
X57419758Y-116259859D01*
X57372139Y-116355097D01*
X57324520Y-116402716D01*
X57229282Y-116450335D01*
X57038806Y-116450335D01*
X56943568Y-116497954D01*
X56895949Y-116545573D01*
X56848330Y-116640811D01*
X56848330Y-116831287D01*
X56895949Y-116926525D01*
X56943568Y-116974144D01*
X57038806Y-117021763D01*
X57229282Y-117021763D01*
X57324520Y-116974144D01*
X57372139Y-116926525D01*
X57419758Y-116831287D01*
X57419758Y-116640811D01*
X57372139Y-116545573D01*
X57324520Y-116497954D01*
X57229282Y-116450335D01*
X93014996Y-95101763D02*
X92681663Y-94625573D01*
X92443568Y-95101763D02*
X92443568Y-94101763D01*
X92824520Y-94101763D01*
X92919758Y-94149383D01*
X92967377Y-94197002D01*
X93014996Y-94292240D01*
X93014996Y-94435097D01*
X92967377Y-94530335D01*
X92919758Y-94577954D01*
X92824520Y-94625573D01*
X92443568Y-94625573D01*
X93348330Y-94101763D02*
X93967377Y-94101763D01*
X93634044Y-94482716D01*
X93776901Y-94482716D01*
X93872139Y-94530335D01*
X93919758Y-94577954D01*
X93967377Y-94673192D01*
X93967377Y-94911287D01*
X93919758Y-95006525D01*
X93872139Y-95054144D01*
X93776901Y-95101763D01*
X93491187Y-95101763D01*
X93395949Y-95054144D01*
X93348330Y-95006525D01*
X94300711Y-94101763D02*
X94967377Y-94101763D01*
X94538806Y-95101763D01*
X147314996Y-117421763D02*
X146981663Y-116945573D01*
X146743568Y-117421763D02*
X146743568Y-116421763D01*
X147124520Y-116421763D01*
X147219758Y-116469383D01*
X147267377Y-116517002D01*
X147314996Y-116612240D01*
X147314996Y-116755097D01*
X147267377Y-116850335D01*
X147219758Y-116897954D01*
X147124520Y-116945573D01*
X146743568Y-116945573D01*
X147648330Y-116421763D02*
X148267377Y-116421763D01*
X147934044Y-116802716D01*
X148076901Y-116802716D01*
X148172139Y-116850335D01*
X148219758Y-116897954D01*
X148267377Y-116993192D01*
X148267377Y-117231287D01*
X148219758Y-117326525D01*
X148172139Y-117374144D01*
X148076901Y-117421763D01*
X147791187Y-117421763D01*
X147695949Y-117374144D01*
X147648330Y-117326525D01*
X149124520Y-116421763D02*
X148934044Y-116421763D01*
X148838806Y-116469383D01*
X148791187Y-116517002D01*
X148695949Y-116659859D01*
X148648330Y-116850335D01*
X148648330Y-117231287D01*
X148695949Y-117326525D01*
X148743568Y-117374144D01*
X148838806Y-117421763D01*
X149029282Y-117421763D01*
X149124520Y-117374144D01*
X149172139Y-117326525D01*
X149219758Y-117231287D01*
X149219758Y-116993192D01*
X149172139Y-116897954D01*
X149124520Y-116850335D01*
X149029282Y-116802716D01*
X148838806Y-116802716D01*
X148743568Y-116850335D01*
X148695949Y-116897954D01*
X148648330Y-116993192D01*
X42364996Y-66521763D02*
X42031663Y-66045573D01*
X41793568Y-66521763D02*
X41793568Y-65521763D01*
X42174520Y-65521763D01*
X42269758Y-65569383D01*
X42317377Y-65617002D01*
X42364996Y-65712240D01*
X42364996Y-65855097D01*
X42317377Y-65950335D01*
X42269758Y-65997954D01*
X42174520Y-66045573D01*
X41793568Y-66045573D01*
X42698330Y-65521763D02*
X43317377Y-65521763D01*
X42984044Y-65902716D01*
X43126901Y-65902716D01*
X43222139Y-65950335D01*
X43269758Y-65997954D01*
X43317377Y-66093192D01*
X43317377Y-66331287D01*
X43269758Y-66426525D01*
X43222139Y-66474144D01*
X43126901Y-66521763D01*
X42841187Y-66521763D01*
X42745949Y-66474144D01*
X42698330Y-66426525D01*
X44222139Y-65521763D02*
X43745949Y-65521763D01*
X43698330Y-65997954D01*
X43745949Y-65950335D01*
X43841187Y-65902716D01*
X44079282Y-65902716D01*
X44174520Y-65950335D01*
X44222139Y-65997954D01*
X44269758Y-66093192D01*
X44269758Y-66331287D01*
X44222139Y-66426525D01*
X44174520Y-66474144D01*
X44079282Y-66521763D01*
X43841187Y-66521763D01*
X43745949Y-66474144D01*
X43698330Y-66426525D01*
X106964996Y-74021763D02*
X106631663Y-73545573D01*
X106393568Y-74021763D02*
X106393568Y-73021763D01*
X106774520Y-73021763D01*
X106869758Y-73069383D01*
X106917377Y-73117002D01*
X106964996Y-73212240D01*
X106964996Y-73355097D01*
X106917377Y-73450335D01*
X106869758Y-73497954D01*
X106774520Y-73545573D01*
X106393568Y-73545573D01*
X107298330Y-73021763D02*
X107917377Y-73021763D01*
X107584044Y-73402716D01*
X107726901Y-73402716D01*
X107822139Y-73450335D01*
X107869758Y-73497954D01*
X107917377Y-73593192D01*
X107917377Y-73831287D01*
X107869758Y-73926525D01*
X107822139Y-73974144D01*
X107726901Y-74021763D01*
X107441187Y-74021763D01*
X107345949Y-73974144D01*
X107298330Y-73926525D01*
X108774520Y-73355097D02*
X108774520Y-74021763D01*
X108536425Y-72974144D02*
X108298330Y-73688430D01*
X108917377Y-73688430D01*
X112414996Y-68671763D02*
X112081663Y-68195573D01*
X111843568Y-68671763D02*
X111843568Y-67671763D01*
X112224520Y-67671763D01*
X112319758Y-67719383D01*
X112367377Y-67767002D01*
X112414996Y-67862240D01*
X112414996Y-68005097D01*
X112367377Y-68100335D01*
X112319758Y-68147954D01*
X112224520Y-68195573D01*
X111843568Y-68195573D01*
X112748330Y-67671763D02*
X113367377Y-67671763D01*
X113034044Y-68052716D01*
X113176901Y-68052716D01*
X113272139Y-68100335D01*
X113319758Y-68147954D01*
X113367377Y-68243192D01*
X113367377Y-68481287D01*
X113319758Y-68576525D01*
X113272139Y-68624144D01*
X113176901Y-68671763D01*
X112891187Y-68671763D01*
X112795949Y-68624144D01*
X112748330Y-68576525D01*
X113700711Y-67671763D02*
X114319758Y-67671763D01*
X113986425Y-68052716D01*
X114129282Y-68052716D01*
X114224520Y-68100335D01*
X114272139Y-68147954D01*
X114319758Y-68243192D01*
X114319758Y-68481287D01*
X114272139Y-68576525D01*
X114224520Y-68624144D01*
X114129282Y-68671763D01*
X113843568Y-68671763D01*
X113748330Y-68624144D01*
X113700711Y-68576525D01*
X68864996Y-116771763D02*
X68531663Y-116295573D01*
X68293568Y-116771763D02*
X68293568Y-115771763D01*
X68674520Y-115771763D01*
X68769758Y-115819383D01*
X68817377Y-115867002D01*
X68864996Y-115962240D01*
X68864996Y-116105097D01*
X68817377Y-116200335D01*
X68769758Y-116247954D01*
X68674520Y-116295573D01*
X68293568Y-116295573D01*
X69198330Y-115771763D02*
X69817377Y-115771763D01*
X69484044Y-116152716D01*
X69626901Y-116152716D01*
X69722139Y-116200335D01*
X69769758Y-116247954D01*
X69817377Y-116343192D01*
X69817377Y-116581287D01*
X69769758Y-116676525D01*
X69722139Y-116724144D01*
X69626901Y-116771763D01*
X69341187Y-116771763D01*
X69245949Y-116724144D01*
X69198330Y-116676525D01*
X70198330Y-115867002D02*
X70245949Y-115819383D01*
X70341187Y-115771763D01*
X70579282Y-115771763D01*
X70674520Y-115819383D01*
X70722139Y-115867002D01*
X70769758Y-115962240D01*
X70769758Y-116057478D01*
X70722139Y-116200335D01*
X70150711Y-116771763D01*
X70769758Y-116771763D01*
X30014996Y-112341763D02*
X29681663Y-111865573D01*
X29443568Y-112341763D02*
X29443568Y-111341763D01*
X29824520Y-111341763D01*
X29919758Y-111389383D01*
X29967377Y-111437002D01*
X30014996Y-111532240D01*
X30014996Y-111675097D01*
X29967377Y-111770335D01*
X29919758Y-111817954D01*
X29824520Y-111865573D01*
X29443568Y-111865573D01*
X30348330Y-111341763D02*
X30967377Y-111341763D01*
X30634044Y-111722716D01*
X30776901Y-111722716D01*
X30872139Y-111770335D01*
X30919758Y-111817954D01*
X30967377Y-111913192D01*
X30967377Y-112151287D01*
X30919758Y-112246525D01*
X30872139Y-112294144D01*
X30776901Y-112341763D01*
X30491187Y-112341763D01*
X30395949Y-112294144D01*
X30348330Y-112246525D01*
X31919758Y-112341763D02*
X31348330Y-112341763D01*
X31634044Y-112341763D02*
X31634044Y-111341763D01*
X31538806Y-111484621D01*
X31443568Y-111579859D01*
X31348330Y-111627478D01*
X38714996Y-126521763D02*
X38381663Y-126045573D01*
X38143568Y-126521763D02*
X38143568Y-125521763D01*
X38524520Y-125521763D01*
X38619758Y-125569383D01*
X38667377Y-125617002D01*
X38714996Y-125712240D01*
X38714996Y-125855097D01*
X38667377Y-125950335D01*
X38619758Y-125997954D01*
X38524520Y-126045573D01*
X38143568Y-126045573D01*
X39048330Y-125521763D02*
X39667377Y-125521763D01*
X39334044Y-125902716D01*
X39476901Y-125902716D01*
X39572139Y-125950335D01*
X39619758Y-125997954D01*
X39667377Y-126093192D01*
X39667377Y-126331287D01*
X39619758Y-126426525D01*
X39572139Y-126474144D01*
X39476901Y-126521763D01*
X39191187Y-126521763D01*
X39095949Y-126474144D01*
X39048330Y-126426525D01*
X40286425Y-125521763D02*
X40381663Y-125521763D01*
X40476901Y-125569383D01*
X40524520Y-125617002D01*
X40572139Y-125712240D01*
X40619758Y-125902716D01*
X40619758Y-126140811D01*
X40572139Y-126331287D01*
X40524520Y-126426525D01*
X40476901Y-126474144D01*
X40381663Y-126521763D01*
X40286425Y-126521763D01*
X40191187Y-126474144D01*
X40143568Y-126426525D01*
X40095949Y-126331287D01*
X40048330Y-126140811D01*
X40048330Y-125902716D01*
X40095949Y-125712240D01*
X40143568Y-125617002D01*
X40191187Y-125569383D01*
X40286425Y-125521763D01*
X146364996Y-85021763D02*
X146031663Y-84545573D01*
X145793568Y-85021763D02*
X145793568Y-84021763D01*
X146174520Y-84021763D01*
X146269758Y-84069383D01*
X146317377Y-84117002D01*
X146364996Y-84212240D01*
X146364996Y-84355097D01*
X146317377Y-84450335D01*
X146269758Y-84497954D01*
X146174520Y-84545573D01*
X145793568Y-84545573D01*
X146745949Y-84117002D02*
X146793568Y-84069383D01*
X146888806Y-84021763D01*
X147126901Y-84021763D01*
X147222139Y-84069383D01*
X147269758Y-84117002D01*
X147317377Y-84212240D01*
X147317377Y-84307478D01*
X147269758Y-84450335D01*
X146698330Y-85021763D01*
X147317377Y-85021763D01*
X147793568Y-85021763D02*
X147984044Y-85021763D01*
X148079282Y-84974144D01*
X148126901Y-84926525D01*
X148222139Y-84783668D01*
X148269758Y-84593192D01*
X148269758Y-84212240D01*
X148222139Y-84117002D01*
X148174520Y-84069383D01*
X148079282Y-84021763D01*
X147888806Y-84021763D01*
X147793568Y-84069383D01*
X147745949Y-84117002D01*
X147698330Y-84212240D01*
X147698330Y-84450335D01*
X147745949Y-84545573D01*
X147793568Y-84593192D01*
X147888806Y-84640811D01*
X148079282Y-84640811D01*
X148174520Y-84593192D01*
X148222139Y-84545573D01*
X148269758Y-84450335D01*
X113014996Y-97521763D02*
X112681663Y-97045573D01*
X112443568Y-97521763D02*
X112443568Y-96521763D01*
X112824520Y-96521763D01*
X112919758Y-96569383D01*
X112967377Y-96617002D01*
X113014996Y-96712240D01*
X113014996Y-96855097D01*
X112967377Y-96950335D01*
X112919758Y-96997954D01*
X112824520Y-97045573D01*
X112443568Y-97045573D01*
X113395949Y-96617002D02*
X113443568Y-96569383D01*
X113538806Y-96521763D01*
X113776901Y-96521763D01*
X113872139Y-96569383D01*
X113919758Y-96617002D01*
X113967377Y-96712240D01*
X113967377Y-96807478D01*
X113919758Y-96950335D01*
X113348330Y-97521763D01*
X113967377Y-97521763D01*
X114538806Y-96950335D02*
X114443568Y-96902716D01*
X114395949Y-96855097D01*
X114348330Y-96759859D01*
X114348330Y-96712240D01*
X114395949Y-96617002D01*
X114443568Y-96569383D01*
X114538806Y-96521763D01*
X114729282Y-96521763D01*
X114824520Y-96569383D01*
X114872139Y-96617002D01*
X114919758Y-96712240D01*
X114919758Y-96759859D01*
X114872139Y-96855097D01*
X114824520Y-96902716D01*
X114729282Y-96950335D01*
X114538806Y-96950335D01*
X114443568Y-96997954D01*
X114395949Y-97045573D01*
X114348330Y-97140811D01*
X114348330Y-97331287D01*
X114395949Y-97426525D01*
X114443568Y-97474144D01*
X114538806Y-97521763D01*
X114729282Y-97521763D01*
X114824520Y-97474144D01*
X114872139Y-97426525D01*
X114919758Y-97331287D01*
X114919758Y-97140811D01*
X114872139Y-97045573D01*
X114824520Y-96997954D01*
X114729282Y-96950335D01*
X109014996Y-101671763D02*
X108681663Y-101195573D01*
X108443568Y-101671763D02*
X108443568Y-100671763D01*
X108824520Y-100671763D01*
X108919758Y-100719383D01*
X108967377Y-100767002D01*
X109014996Y-100862240D01*
X109014996Y-101005097D01*
X108967377Y-101100335D01*
X108919758Y-101147954D01*
X108824520Y-101195573D01*
X108443568Y-101195573D01*
X109395949Y-100767002D02*
X109443568Y-100719383D01*
X109538806Y-100671763D01*
X109776901Y-100671763D01*
X109872139Y-100719383D01*
X109919758Y-100767002D01*
X109967377Y-100862240D01*
X109967377Y-100957478D01*
X109919758Y-101100335D01*
X109348330Y-101671763D01*
X109967377Y-101671763D01*
X110300711Y-100671763D02*
X110967377Y-100671763D01*
X110538806Y-101671763D01*
X72714996Y-112591763D02*
X72381663Y-112115573D01*
X72143568Y-112591763D02*
X72143568Y-111591763D01*
X72524520Y-111591763D01*
X72619758Y-111639383D01*
X72667377Y-111687002D01*
X72714996Y-111782240D01*
X72714996Y-111925097D01*
X72667377Y-112020335D01*
X72619758Y-112067954D01*
X72524520Y-112115573D01*
X72143568Y-112115573D01*
X73095949Y-111687002D02*
X73143568Y-111639383D01*
X73238806Y-111591763D01*
X73476901Y-111591763D01*
X73572139Y-111639383D01*
X73619758Y-111687002D01*
X73667377Y-111782240D01*
X73667377Y-111877478D01*
X73619758Y-112020335D01*
X73048330Y-112591763D01*
X73667377Y-112591763D01*
X74524520Y-111591763D02*
X74334044Y-111591763D01*
X74238806Y-111639383D01*
X74191187Y-111687002D01*
X74095949Y-111829859D01*
X74048330Y-112020335D01*
X74048330Y-112401287D01*
X74095949Y-112496525D01*
X74143568Y-112544144D01*
X74238806Y-112591763D01*
X74429282Y-112591763D01*
X74524520Y-112544144D01*
X74572139Y-112496525D01*
X74619758Y-112401287D01*
X74619758Y-112163192D01*
X74572139Y-112067954D01*
X74524520Y-112020335D01*
X74429282Y-111972716D01*
X74238806Y-111972716D01*
X74143568Y-112020335D01*
X74095949Y-112067954D01*
X74048330Y-112163192D01*
X77514996Y-61921763D02*
X77181663Y-61445573D01*
X76943568Y-61921763D02*
X76943568Y-60921763D01*
X77324520Y-60921763D01*
X77419758Y-60969383D01*
X77467377Y-61017002D01*
X77514996Y-61112240D01*
X77514996Y-61255097D01*
X77467377Y-61350335D01*
X77419758Y-61397954D01*
X77324520Y-61445573D01*
X76943568Y-61445573D01*
X77895949Y-61017002D02*
X77943568Y-60969383D01*
X78038806Y-60921763D01*
X78276901Y-60921763D01*
X78372139Y-60969383D01*
X78419758Y-61017002D01*
X78467377Y-61112240D01*
X78467377Y-61207478D01*
X78419758Y-61350335D01*
X77848330Y-61921763D01*
X78467377Y-61921763D01*
X79372139Y-60921763D02*
X78895949Y-60921763D01*
X78848330Y-61397954D01*
X78895949Y-61350335D01*
X78991187Y-61302716D01*
X79229282Y-61302716D01*
X79324520Y-61350335D01*
X79372139Y-61397954D01*
X79419758Y-61493192D01*
X79419758Y-61731287D01*
X79372139Y-61826525D01*
X79324520Y-61874144D01*
X79229282Y-61921763D01*
X78991187Y-61921763D01*
X78895949Y-61874144D01*
X78848330Y-61826525D01*
X77414996Y-65871763D02*
X77081663Y-65395573D01*
X76843568Y-65871763D02*
X76843568Y-64871763D01*
X77224520Y-64871763D01*
X77319758Y-64919383D01*
X77367377Y-64967002D01*
X77414996Y-65062240D01*
X77414996Y-65205097D01*
X77367377Y-65300335D01*
X77319758Y-65347954D01*
X77224520Y-65395573D01*
X76843568Y-65395573D01*
X77795949Y-64967002D02*
X77843568Y-64919383D01*
X77938806Y-64871763D01*
X78176901Y-64871763D01*
X78272139Y-64919383D01*
X78319758Y-64967002D01*
X78367377Y-65062240D01*
X78367377Y-65157478D01*
X78319758Y-65300335D01*
X77748330Y-65871763D01*
X78367377Y-65871763D01*
X79224520Y-65205097D02*
X79224520Y-65871763D01*
X78986425Y-64824144D02*
X78748330Y-65538430D01*
X79367377Y-65538430D01*
X28314996Y-76971763D02*
X27981663Y-76495573D01*
X27743568Y-76971763D02*
X27743568Y-75971763D01*
X28124520Y-75971763D01*
X28219758Y-76019383D01*
X28267377Y-76067002D01*
X28314996Y-76162240D01*
X28314996Y-76305097D01*
X28267377Y-76400335D01*
X28219758Y-76447954D01*
X28124520Y-76495573D01*
X27743568Y-76495573D01*
X28695949Y-76067002D02*
X28743568Y-76019383D01*
X28838806Y-75971763D01*
X29076901Y-75971763D01*
X29172139Y-76019383D01*
X29219758Y-76067002D01*
X29267377Y-76162240D01*
X29267377Y-76257478D01*
X29219758Y-76400335D01*
X28648330Y-76971763D01*
X29267377Y-76971763D01*
X29600711Y-75971763D02*
X30219758Y-75971763D01*
X29886425Y-76352716D01*
X30029282Y-76352716D01*
X30124520Y-76400335D01*
X30172139Y-76447954D01*
X30219758Y-76543192D01*
X30219758Y-76781287D01*
X30172139Y-76876525D01*
X30124520Y-76924144D01*
X30029282Y-76971763D01*
X29743568Y-76971763D01*
X29648330Y-76924144D01*
X29600711Y-76876525D01*
X118964996Y-120121763D02*
X118631663Y-119645573D01*
X118393568Y-120121763D02*
X118393568Y-119121763D01*
X118774520Y-119121763D01*
X118869758Y-119169383D01*
X118917377Y-119217002D01*
X118964996Y-119312240D01*
X118964996Y-119455097D01*
X118917377Y-119550335D01*
X118869758Y-119597954D01*
X118774520Y-119645573D01*
X118393568Y-119645573D01*
X119345949Y-119217002D02*
X119393568Y-119169383D01*
X119488806Y-119121763D01*
X119726901Y-119121763D01*
X119822139Y-119169383D01*
X119869758Y-119217002D01*
X119917377Y-119312240D01*
X119917377Y-119407478D01*
X119869758Y-119550335D01*
X119298330Y-120121763D01*
X119917377Y-120121763D01*
X120298330Y-119217002D02*
X120345949Y-119169383D01*
X120441187Y-119121763D01*
X120679282Y-119121763D01*
X120774520Y-119169383D01*
X120822139Y-119217002D01*
X120869758Y-119312240D01*
X120869758Y-119407478D01*
X120822139Y-119550335D01*
X120250711Y-120121763D01*
X120869758Y-120121763D01*
X103664996Y-120571763D02*
X103331663Y-120095573D01*
X103093568Y-120571763D02*
X103093568Y-119571763D01*
X103474520Y-119571763D01*
X103569758Y-119619383D01*
X103617377Y-119667002D01*
X103664996Y-119762240D01*
X103664996Y-119905097D01*
X103617377Y-120000335D01*
X103569758Y-120047954D01*
X103474520Y-120095573D01*
X103093568Y-120095573D01*
X104045949Y-119667002D02*
X104093568Y-119619383D01*
X104188806Y-119571763D01*
X104426901Y-119571763D01*
X104522139Y-119619383D01*
X104569758Y-119667002D01*
X104617377Y-119762240D01*
X104617377Y-119857478D01*
X104569758Y-120000335D01*
X103998330Y-120571763D01*
X104617377Y-120571763D01*
X105569758Y-120571763D02*
X104998330Y-120571763D01*
X105284044Y-120571763D02*
X105284044Y-119571763D01*
X105188806Y-119714621D01*
X105093568Y-119809859D01*
X104998330Y-119857478D01*
X83414996Y-116921763D02*
X83081663Y-116445573D01*
X82843568Y-116921763D02*
X82843568Y-115921763D01*
X83224520Y-115921763D01*
X83319758Y-115969383D01*
X83367377Y-116017002D01*
X83414996Y-116112240D01*
X83414996Y-116255097D01*
X83367377Y-116350335D01*
X83319758Y-116397954D01*
X83224520Y-116445573D01*
X82843568Y-116445573D01*
X83795949Y-116017002D02*
X83843568Y-115969383D01*
X83938806Y-115921763D01*
X84176901Y-115921763D01*
X84272139Y-115969383D01*
X84319758Y-116017002D01*
X84367377Y-116112240D01*
X84367377Y-116207478D01*
X84319758Y-116350335D01*
X83748330Y-116921763D01*
X84367377Y-116921763D01*
X84986425Y-115921763D02*
X85081663Y-115921763D01*
X85176901Y-115969383D01*
X85224520Y-116017002D01*
X85272139Y-116112240D01*
X85319758Y-116302716D01*
X85319758Y-116540811D01*
X85272139Y-116731287D01*
X85224520Y-116826525D01*
X85176901Y-116874144D01*
X85081663Y-116921763D01*
X84986425Y-116921763D01*
X84891187Y-116874144D01*
X84843568Y-116826525D01*
X84795949Y-116731287D01*
X84748330Y-116540811D01*
X84748330Y-116302716D01*
X84795949Y-116112240D01*
X84843568Y-116017002D01*
X84891187Y-115969383D01*
X84986425Y-115921763D01*
X29164996Y-89021763D02*
X28831663Y-88545573D01*
X28593568Y-89021763D02*
X28593568Y-88021763D01*
X28974520Y-88021763D01*
X29069758Y-88069383D01*
X29117377Y-88117002D01*
X29164996Y-88212240D01*
X29164996Y-88355097D01*
X29117377Y-88450335D01*
X29069758Y-88497954D01*
X28974520Y-88545573D01*
X28593568Y-88545573D01*
X30117377Y-89021763D02*
X29545949Y-89021763D01*
X29831663Y-89021763D02*
X29831663Y-88021763D01*
X29736425Y-88164621D01*
X29641187Y-88259859D01*
X29545949Y-88307478D01*
X30593568Y-89021763D02*
X30784044Y-89021763D01*
X30879282Y-88974144D01*
X30926901Y-88926525D01*
X31022139Y-88783668D01*
X31069758Y-88593192D01*
X31069758Y-88212240D01*
X31022139Y-88117002D01*
X30974520Y-88069383D01*
X30879282Y-88021763D01*
X30688806Y-88021763D01*
X30593568Y-88069383D01*
X30545949Y-88117002D01*
X30498330Y-88212240D01*
X30498330Y-88450335D01*
X30545949Y-88545573D01*
X30593568Y-88593192D01*
X30688806Y-88640811D01*
X30879282Y-88640811D01*
X30974520Y-88593192D01*
X31022139Y-88545573D01*
X31069758Y-88450335D01*
X29164996Y-100441763D02*
X28831663Y-99965573D01*
X28593568Y-100441763D02*
X28593568Y-99441763D01*
X28974520Y-99441763D01*
X29069758Y-99489383D01*
X29117377Y-99537002D01*
X29164996Y-99632240D01*
X29164996Y-99775097D01*
X29117377Y-99870335D01*
X29069758Y-99917954D01*
X28974520Y-99965573D01*
X28593568Y-99965573D01*
X30117377Y-100441763D02*
X29545949Y-100441763D01*
X29831663Y-100441763D02*
X29831663Y-99441763D01*
X29736425Y-99584621D01*
X29641187Y-99679859D01*
X29545949Y-99727478D01*
X30688806Y-99870335D02*
X30593568Y-99822716D01*
X30545949Y-99775097D01*
X30498330Y-99679859D01*
X30498330Y-99632240D01*
X30545949Y-99537002D01*
X30593568Y-99489383D01*
X30688806Y-99441763D01*
X30879282Y-99441763D01*
X30974520Y-99489383D01*
X31022139Y-99537002D01*
X31069758Y-99632240D01*
X31069758Y-99679859D01*
X31022139Y-99775097D01*
X30974520Y-99822716D01*
X30879282Y-99870335D01*
X30688806Y-99870335D01*
X30593568Y-99917954D01*
X30545949Y-99965573D01*
X30498330Y-100060811D01*
X30498330Y-100251287D01*
X30545949Y-100346525D01*
X30593568Y-100394144D01*
X30688806Y-100441763D01*
X30879282Y-100441763D01*
X30974520Y-100394144D01*
X31022139Y-100346525D01*
X31069758Y-100251287D01*
X31069758Y-100060811D01*
X31022139Y-99965573D01*
X30974520Y-99917954D01*
X30879282Y-99870335D01*
X114614996Y-99791763D02*
X114281663Y-99315573D01*
X114043568Y-99791763D02*
X114043568Y-98791763D01*
X114424520Y-98791763D01*
X114519758Y-98839383D01*
X114567377Y-98887002D01*
X114614996Y-98982240D01*
X114614996Y-99125097D01*
X114567377Y-99220335D01*
X114519758Y-99267954D01*
X114424520Y-99315573D01*
X114043568Y-99315573D01*
X115567377Y-99791763D02*
X114995949Y-99791763D01*
X115281663Y-99791763D02*
X115281663Y-98791763D01*
X115186425Y-98934621D01*
X115091187Y-99029859D01*
X114995949Y-99077478D01*
X115900711Y-98791763D02*
X116567377Y-98791763D01*
X116138806Y-99791763D01*
X39714996Y-77121763D02*
X39381663Y-76645573D01*
X39143568Y-77121763D02*
X39143568Y-76121763D01*
X39524520Y-76121763D01*
X39619758Y-76169383D01*
X39667377Y-76217002D01*
X39714996Y-76312240D01*
X39714996Y-76455097D01*
X39667377Y-76550335D01*
X39619758Y-76597954D01*
X39524520Y-76645573D01*
X39143568Y-76645573D01*
X40667377Y-77121763D02*
X40095949Y-77121763D01*
X40381663Y-77121763D02*
X40381663Y-76121763D01*
X40286425Y-76264621D01*
X40191187Y-76359859D01*
X40095949Y-76407478D01*
X41524520Y-76121763D02*
X41334044Y-76121763D01*
X41238806Y-76169383D01*
X41191187Y-76217002D01*
X41095949Y-76359859D01*
X41048330Y-76550335D01*
X41048330Y-76931287D01*
X41095949Y-77026525D01*
X41143568Y-77074144D01*
X41238806Y-77121763D01*
X41429282Y-77121763D01*
X41524520Y-77074144D01*
X41572139Y-77026525D01*
X41619758Y-76931287D01*
X41619758Y-76693192D01*
X41572139Y-76597954D01*
X41524520Y-76550335D01*
X41429282Y-76502716D01*
X41238806Y-76502716D01*
X41143568Y-76550335D01*
X41095949Y-76597954D01*
X41048330Y-76693192D01*
X123614996Y-100521763D02*
X123281663Y-100045573D01*
X123043568Y-100521763D02*
X123043568Y-99521763D01*
X123424520Y-99521763D01*
X123519758Y-99569383D01*
X123567377Y-99617002D01*
X123614996Y-99712240D01*
X123614996Y-99855097D01*
X123567377Y-99950335D01*
X123519758Y-99997954D01*
X123424520Y-100045573D01*
X123043568Y-100045573D01*
X124567377Y-100521763D02*
X123995949Y-100521763D01*
X124281663Y-100521763D02*
X124281663Y-99521763D01*
X124186425Y-99664621D01*
X124091187Y-99759859D01*
X123995949Y-99807478D01*
X125472139Y-99521763D02*
X124995949Y-99521763D01*
X124948330Y-99997954D01*
X124995949Y-99950335D01*
X125091187Y-99902716D01*
X125329282Y-99902716D01*
X125424520Y-99950335D01*
X125472139Y-99997954D01*
X125519758Y-100093192D01*
X125519758Y-100331287D01*
X125472139Y-100426525D01*
X125424520Y-100474144D01*
X125329282Y-100521763D01*
X125091187Y-100521763D01*
X124995949Y-100474144D01*
X124948330Y-100426525D01*
X86814996Y-112591763D02*
X86481663Y-112115573D01*
X86243568Y-112591763D02*
X86243568Y-111591763D01*
X86624520Y-111591763D01*
X86719758Y-111639383D01*
X86767377Y-111687002D01*
X86814996Y-111782240D01*
X86814996Y-111925097D01*
X86767377Y-112020335D01*
X86719758Y-112067954D01*
X86624520Y-112115573D01*
X86243568Y-112115573D01*
X87767377Y-112591763D02*
X87195949Y-112591763D01*
X87481663Y-112591763D02*
X87481663Y-111591763D01*
X87386425Y-111734621D01*
X87291187Y-111829859D01*
X87195949Y-111877478D01*
X88624520Y-111925097D02*
X88624520Y-112591763D01*
X88386425Y-111544144D02*
X88148330Y-112258430D01*
X88767377Y-112258430D01*
X148714996Y-105891763D02*
X148381663Y-105415573D01*
X148143568Y-105891763D02*
X148143568Y-104891763D01*
X148524520Y-104891763D01*
X148619758Y-104939383D01*
X148667377Y-104987002D01*
X148714996Y-105082240D01*
X148714996Y-105225097D01*
X148667377Y-105320335D01*
X148619758Y-105367954D01*
X148524520Y-105415573D01*
X148143568Y-105415573D01*
X149667377Y-105891763D02*
X149095949Y-105891763D01*
X149381663Y-105891763D02*
X149381663Y-104891763D01*
X149286425Y-105034621D01*
X149191187Y-105129859D01*
X149095949Y-105177478D01*
X150000711Y-104891763D02*
X150619758Y-104891763D01*
X150286425Y-105272716D01*
X150429282Y-105272716D01*
X150524520Y-105320335D01*
X150572139Y-105367954D01*
X150619758Y-105463192D01*
X150619758Y-105701287D01*
X150572139Y-105796525D01*
X150524520Y-105844144D01*
X150429282Y-105891763D01*
X150143568Y-105891763D01*
X150048330Y-105844144D01*
X150000711Y-105796525D01*
X134714556Y-37820083D02*
X134381223Y-37343893D01*
X134143128Y-37820083D02*
X134143128Y-36820083D01*
X134524080Y-36820083D01*
X134619318Y-36867703D01*
X134666937Y-36915322D01*
X134714556Y-37010560D01*
X134714556Y-37153417D01*
X134666937Y-37248655D01*
X134619318Y-37296274D01*
X134524080Y-37343893D01*
X134143128Y-37343893D01*
X135666937Y-37820083D02*
X135095509Y-37820083D01*
X135381223Y-37820083D02*
X135381223Y-36820083D01*
X135285985Y-36962941D01*
X135190747Y-37058179D01*
X135095509Y-37105798D01*
X136047890Y-36915322D02*
X136095509Y-36867703D01*
X136190747Y-36820083D01*
X136428842Y-36820083D01*
X136524080Y-36867703D01*
X136571699Y-36915322D01*
X136619318Y-37010560D01*
X136619318Y-37105798D01*
X136571699Y-37248655D01*
X136000271Y-37820083D01*
X136619318Y-37820083D01*
X134167156Y-43392883D02*
X133833823Y-42916693D01*
X133595728Y-43392883D02*
X133595728Y-42392883D01*
X133976680Y-42392883D01*
X134071918Y-42440503D01*
X134119537Y-42488122D01*
X134167156Y-42583360D01*
X134167156Y-42726217D01*
X134119537Y-42821455D01*
X134071918Y-42869074D01*
X133976680Y-42916693D01*
X133595728Y-42916693D01*
X135119537Y-43392883D02*
X134548109Y-43392883D01*
X134833823Y-43392883D02*
X134833823Y-42392883D01*
X134738585Y-42535741D01*
X134643347Y-42630979D01*
X134548109Y-42678598D01*
X136071918Y-43392883D02*
X135500490Y-43392883D01*
X135786204Y-43392883D02*
X135786204Y-42392883D01*
X135690966Y-42535741D01*
X135595728Y-42630979D01*
X135500490Y-42678598D01*
X134364996Y-47521763D02*
X134031663Y-47045573D01*
X133793568Y-47521763D02*
X133793568Y-46521763D01*
X134174520Y-46521763D01*
X134269758Y-46569383D01*
X134317377Y-46617002D01*
X134364996Y-46712240D01*
X134364996Y-46855097D01*
X134317377Y-46950335D01*
X134269758Y-46997954D01*
X134174520Y-47045573D01*
X133793568Y-47045573D01*
X135317377Y-47521763D02*
X134745949Y-47521763D01*
X135031663Y-47521763D02*
X135031663Y-46521763D01*
X134936425Y-46664621D01*
X134841187Y-46759859D01*
X134745949Y-46807478D01*
X135936425Y-46521763D02*
X136031663Y-46521763D01*
X136126901Y-46569383D01*
X136174520Y-46617002D01*
X136222139Y-46712240D01*
X136269758Y-46902716D01*
X136269758Y-47140811D01*
X136222139Y-47331287D01*
X136174520Y-47426525D01*
X136126901Y-47474144D01*
X136031663Y-47521763D01*
X135936425Y-47521763D01*
X135841187Y-47474144D01*
X135793568Y-47426525D01*
X135745949Y-47331287D01*
X135698330Y-47140811D01*
X135698330Y-46902716D01*
X135745949Y-46712240D01*
X135793568Y-46617002D01*
X135841187Y-46569383D01*
X135936425Y-46521763D01*
X133341187Y-60571763D02*
X133007854Y-60095573D01*
X132769758Y-60571763D02*
X132769758Y-59571763D01*
X133150711Y-59571763D01*
X133245949Y-59619383D01*
X133293568Y-59667002D01*
X133341187Y-59762240D01*
X133341187Y-59905097D01*
X133293568Y-60000335D01*
X133245949Y-60047954D01*
X133150711Y-60095573D01*
X132769758Y-60095573D01*
X133817377Y-60571763D02*
X134007854Y-60571763D01*
X134103092Y-60524144D01*
X134150711Y-60476525D01*
X134245949Y-60333668D01*
X134293568Y-60143192D01*
X134293568Y-59762240D01*
X134245949Y-59667002D01*
X134198330Y-59619383D01*
X134103092Y-59571763D01*
X133912615Y-59571763D01*
X133817377Y-59619383D01*
X133769758Y-59667002D01*
X133722139Y-59762240D01*
X133722139Y-60000335D01*
X133769758Y-60095573D01*
X133817377Y-60143192D01*
X133912615Y-60190811D01*
X134103092Y-60190811D01*
X134198330Y-60143192D01*
X134245949Y-60095573D01*
X134293568Y-60000335D01*
X132291187Y-50771763D02*
X131957854Y-50295573D01*
X131719758Y-50771763D02*
X131719758Y-49771763D01*
X132100711Y-49771763D01*
X132195949Y-49819383D01*
X132243568Y-49867002D01*
X132291187Y-49962240D01*
X132291187Y-50105097D01*
X132243568Y-50200335D01*
X132195949Y-50247954D01*
X132100711Y-50295573D01*
X131719758Y-50295573D01*
X132862615Y-50200335D02*
X132767377Y-50152716D01*
X132719758Y-50105097D01*
X132672139Y-50009859D01*
X132672139Y-49962240D01*
X132719758Y-49867002D01*
X132767377Y-49819383D01*
X132862615Y-49771763D01*
X133053092Y-49771763D01*
X133148330Y-49819383D01*
X133195949Y-49867002D01*
X133243568Y-49962240D01*
X133243568Y-50009859D01*
X133195949Y-50105097D01*
X133148330Y-50152716D01*
X133053092Y-50200335D01*
X132862615Y-50200335D01*
X132767377Y-50247954D01*
X132719758Y-50295573D01*
X132672139Y-50390811D01*
X132672139Y-50581287D01*
X132719758Y-50676525D01*
X132767377Y-50724144D01*
X132862615Y-50771763D01*
X133053092Y-50771763D01*
X133148330Y-50724144D01*
X133195949Y-50676525D01*
X133243568Y-50581287D01*
X133243568Y-50390811D01*
X133195949Y-50295573D01*
X133148330Y-50247954D01*
X133053092Y-50200335D01*
X149191187Y-40891763D02*
X148857854Y-40415573D01*
X148619758Y-40891763D02*
X148619758Y-39891763D01*
X149000711Y-39891763D01*
X149095949Y-39939383D01*
X149143568Y-39987002D01*
X149191187Y-40082240D01*
X149191187Y-40225097D01*
X149143568Y-40320335D01*
X149095949Y-40367954D01*
X149000711Y-40415573D01*
X148619758Y-40415573D01*
X149524520Y-39891763D02*
X150191187Y-39891763D01*
X149762615Y-40891763D01*
X53791187Y-66321763D02*
X53457854Y-65845573D01*
X53219758Y-66321763D02*
X53219758Y-65321763D01*
X53600711Y-65321763D01*
X53695949Y-65369383D01*
X53743568Y-65417002D01*
X53791187Y-65512240D01*
X53791187Y-65655097D01*
X53743568Y-65750335D01*
X53695949Y-65797954D01*
X53600711Y-65845573D01*
X53219758Y-65845573D01*
X54648330Y-65321763D02*
X54457854Y-65321763D01*
X54362615Y-65369383D01*
X54314996Y-65417002D01*
X54219758Y-65559859D01*
X54172139Y-65750335D01*
X54172139Y-66131287D01*
X54219758Y-66226525D01*
X54267377Y-66274144D01*
X54362615Y-66321763D01*
X54553092Y-66321763D01*
X54648330Y-66274144D01*
X54695949Y-66226525D01*
X54743568Y-66131287D01*
X54743568Y-65893192D01*
X54695949Y-65797954D01*
X54648330Y-65750335D01*
X54553092Y-65702716D01*
X54362615Y-65702716D01*
X54267377Y-65750335D01*
X54219758Y-65797954D01*
X54172139Y-65893192D01*
X77091187Y-57771763D02*
X76757854Y-57295573D01*
X76519758Y-57771763D02*
X76519758Y-56771763D01*
X76900711Y-56771763D01*
X76995949Y-56819383D01*
X77043568Y-56867002D01*
X77091187Y-56962240D01*
X77091187Y-57105097D01*
X77043568Y-57200335D01*
X76995949Y-57247954D01*
X76900711Y-57295573D01*
X76519758Y-57295573D01*
X77995949Y-56771763D02*
X77519758Y-56771763D01*
X77472139Y-57247954D01*
X77519758Y-57200335D01*
X77614996Y-57152716D01*
X77853092Y-57152716D01*
X77948330Y-57200335D01*
X77995949Y-57247954D01*
X78043568Y-57343192D01*
X78043568Y-57581287D01*
X77995949Y-57676525D01*
X77948330Y-57724144D01*
X77853092Y-57771763D01*
X77614996Y-57771763D01*
X77519758Y-57724144D01*
X77472139Y-57676525D01*
X81641187Y-55221763D02*
X81307854Y-54745573D01*
X81069758Y-55221763D02*
X81069758Y-54221763D01*
X81450711Y-54221763D01*
X81545949Y-54269383D01*
X81593568Y-54317002D01*
X81641187Y-54412240D01*
X81641187Y-54555097D01*
X81593568Y-54650335D01*
X81545949Y-54697954D01*
X81450711Y-54745573D01*
X81069758Y-54745573D01*
X82498330Y-54555097D02*
X82498330Y-55221763D01*
X82260234Y-54174144D02*
X82022139Y-54888430D01*
X82641187Y-54888430D01*
X81841827Y-60258443D02*
X81508494Y-59782253D01*
X81270398Y-60258443D02*
X81270398Y-59258443D01*
X81651351Y-59258443D01*
X81746589Y-59306063D01*
X81794208Y-59353682D01*
X81841827Y-59448920D01*
X81841827Y-59591777D01*
X81794208Y-59687015D01*
X81746589Y-59734634D01*
X81651351Y-59782253D01*
X81270398Y-59782253D01*
X82175160Y-59258443D02*
X82794208Y-59258443D01*
X82460874Y-59639396D01*
X82603732Y-59639396D01*
X82698970Y-59687015D01*
X82746589Y-59734634D01*
X82794208Y-59829872D01*
X82794208Y-60067967D01*
X82746589Y-60163205D01*
X82698970Y-60210824D01*
X82603732Y-60258443D01*
X82318017Y-60258443D01*
X82222779Y-60210824D01*
X82175160Y-60163205D01*
X88591187Y-53621763D02*
X88257854Y-53145573D01*
X88019758Y-53621763D02*
X88019758Y-52621763D01*
X88400711Y-52621763D01*
X88495949Y-52669383D01*
X88543568Y-52717002D01*
X88591187Y-52812240D01*
X88591187Y-52955097D01*
X88543568Y-53050335D01*
X88495949Y-53097954D01*
X88400711Y-53145573D01*
X88019758Y-53145573D01*
X88972139Y-52717002D02*
X89019758Y-52669383D01*
X89114996Y-52621763D01*
X89353092Y-52621763D01*
X89448330Y-52669383D01*
X89495949Y-52717002D01*
X89543568Y-52812240D01*
X89543568Y-52907478D01*
X89495949Y-53050335D01*
X88924520Y-53621763D01*
X89543568Y-53621763D01*
X148074867Y-55447723D02*
X147741534Y-54971533D01*
X147503438Y-55447723D02*
X147503438Y-54447723D01*
X147884391Y-54447723D01*
X147979629Y-54495343D01*
X148027248Y-54542962D01*
X148074867Y-54638200D01*
X148074867Y-54781057D01*
X148027248Y-54876295D01*
X147979629Y-54923914D01*
X147884391Y-54971533D01*
X147503438Y-54971533D01*
X149027248Y-55447723D02*
X148455819Y-55447723D01*
X148741534Y-55447723D02*
X148741534Y-54447723D01*
X148646295Y-54590581D01*
X148551057Y-54685819D01*
X148455819Y-54733438D01*
X72880330Y-45157763D02*
X72880330Y-44157763D01*
X73213663Y-44872049D01*
X73546996Y-44157763D01*
X73546996Y-45157763D01*
X74023187Y-45157763D02*
X74023187Y-44157763D01*
X74594615Y-45157763D02*
X74166044Y-44586335D01*
X74594615Y-44157763D02*
X74023187Y-44729192D01*
X75546996Y-45157763D02*
X74975568Y-45157763D01*
X75261282Y-45157763D02*
X75261282Y-44157763D01*
X75166044Y-44300621D01*
X75070806Y-44395859D01*
X74975568Y-44443478D01*
X147998330Y-121721763D02*
X147998330Y-122436049D01*
X147950711Y-122578906D01*
X147855473Y-122674144D01*
X147712615Y-122721763D01*
X147617377Y-122721763D01*
X148426901Y-121817002D02*
X148474520Y-121769383D01*
X148569758Y-121721763D01*
X148807854Y-121721763D01*
X148903092Y-121769383D01*
X148950711Y-121817002D01*
X148998330Y-121912240D01*
X148998330Y-122007478D01*
X148950711Y-122150335D01*
X148379282Y-122721763D01*
X148998330Y-122721763D01*
X149855473Y-122055097D02*
X149855473Y-122721763D01*
X149617377Y-121674144D02*
X149379282Y-122388430D01*
X149998330Y-122388430D01*
X91590234Y-97428906D02*
X92304520Y-97428906D01*
X92447377Y-97476525D01*
X92542615Y-97571763D01*
X92590234Y-97714621D01*
X92590234Y-97809859D01*
X92590234Y-96428906D02*
X92590234Y-97000335D01*
X92590234Y-96714621D02*
X91590234Y-96714621D01*
X91733092Y-96809859D01*
X91828330Y-96905097D01*
X91875949Y-97000335D01*
X91590234Y-96095573D02*
X91590234Y-95476525D01*
X91971187Y-95809859D01*
X91971187Y-95667002D01*
X92018806Y-95571763D01*
X92066425Y-95524144D01*
X92161663Y-95476525D01*
X92399758Y-95476525D01*
X92494996Y-95524144D01*
X92542615Y-95571763D01*
X92590234Y-95667002D01*
X92590234Y-95952716D01*
X92542615Y-96047954D01*
X92494996Y-96095573D01*
X95298330Y-87621763D02*
X95298330Y-88336049D01*
X95250711Y-88478906D01*
X95155473Y-88574144D01*
X95012615Y-88621763D01*
X94917377Y-88621763D01*
X96298330Y-88621763D02*
X95726901Y-88621763D01*
X96012615Y-88621763D02*
X96012615Y-87621763D01*
X95917377Y-87764621D01*
X95822139Y-87859859D01*
X95726901Y-87907478D01*
X97250711Y-88621763D02*
X96679282Y-88621763D01*
X96964996Y-88621763D02*
X96964996Y-87621763D01*
X96869758Y-87764621D01*
X96774520Y-87859859D01*
X96679282Y-87907478D01*
X98481663Y-87421763D02*
X98481663Y-88231287D01*
X98529282Y-88326525D01*
X98576901Y-88374144D01*
X98672139Y-88421763D01*
X98862615Y-88421763D01*
X98957854Y-88374144D01*
X99005473Y-88326525D01*
X99053092Y-88231287D01*
X99053092Y-87421763D01*
X99481663Y-88136049D02*
X99957854Y-88136049D01*
X99386425Y-88421763D02*
X99719758Y-87421763D01*
X100053092Y-88421763D01*
X100957854Y-88421763D02*
X100624520Y-87945573D01*
X100386425Y-88421763D02*
X100386425Y-87421763D01*
X100767377Y-87421763D01*
X100862615Y-87469383D01*
X100910234Y-87517002D01*
X100957854Y-87612240D01*
X100957854Y-87755097D01*
X100910234Y-87850335D01*
X100862615Y-87897954D01*
X100767377Y-87945573D01*
X100386425Y-87945573D01*
X101243568Y-87421763D02*
X101814996Y-87421763D01*
X101529282Y-88421763D02*
X101529282Y-87421763D01*
X101910234Y-88517002D02*
X102672139Y-88517002D01*
X103481663Y-88326525D02*
X103434044Y-88374144D01*
X103291187Y-88421763D01*
X103195949Y-88421763D01*
X103053092Y-88374144D01*
X102957854Y-88278906D01*
X102910234Y-88183668D01*
X102862615Y-87993192D01*
X102862615Y-87850335D01*
X102910234Y-87659859D01*
X102957854Y-87564621D01*
X103053092Y-87469383D01*
X103195949Y-87421763D01*
X103291187Y-87421763D01*
X103434044Y-87469383D01*
X103481663Y-87517002D01*
X69924520Y-90771763D02*
X69924520Y-91486049D01*
X69876901Y-91628906D01*
X69781663Y-91724144D01*
X69638806Y-91771763D01*
X69543568Y-91771763D01*
X70448330Y-91771763D02*
X70638806Y-91771763D01*
X70734044Y-91724144D01*
X70781663Y-91676525D01*
X70876901Y-91533668D01*
X70924520Y-91343192D01*
X70924520Y-90962240D01*
X70876901Y-90867002D01*
X70829282Y-90819383D01*
X70734044Y-90771763D01*
X70543568Y-90771763D01*
X70448330Y-90819383D01*
X70400711Y-90867002D01*
X70353092Y-90962240D01*
X70353092Y-91200335D01*
X70400711Y-91295573D01*
X70448330Y-91343192D01*
X70543568Y-91390811D01*
X70734044Y-91390811D01*
X70829282Y-91343192D01*
X70876901Y-91295573D01*
X70924520Y-91200335D01*
X84924520Y-90771763D02*
X84924520Y-91486049D01*
X84876901Y-91628906D01*
X84781663Y-91724144D01*
X84638806Y-91771763D01*
X84543568Y-91771763D01*
X85543568Y-91200335D02*
X85448330Y-91152716D01*
X85400711Y-91105097D01*
X85353092Y-91009859D01*
X85353092Y-90962240D01*
X85400711Y-90867002D01*
X85448330Y-90819383D01*
X85543568Y-90771763D01*
X85734044Y-90771763D01*
X85829282Y-90819383D01*
X85876901Y-90867002D01*
X85924520Y-90962240D01*
X85924520Y-91009859D01*
X85876901Y-91105097D01*
X85829282Y-91152716D01*
X85734044Y-91200335D01*
X85543568Y-91200335D01*
X85448330Y-91247954D01*
X85400711Y-91295573D01*
X85353092Y-91390811D01*
X85353092Y-91581287D01*
X85400711Y-91676525D01*
X85448330Y-91724144D01*
X85543568Y-91771763D01*
X85734044Y-91771763D01*
X85829282Y-91724144D01*
X85876901Y-91676525D01*
X85924520Y-91581287D01*
X85924520Y-91390811D01*
X85876901Y-91295573D01*
X85829282Y-91247954D01*
X85734044Y-91200335D01*
X53574520Y-78121763D02*
X53574520Y-78836049D01*
X53526901Y-78978906D01*
X53431663Y-79074144D01*
X53288806Y-79121763D01*
X53193568Y-79121763D01*
X53955473Y-78121763D02*
X54622139Y-78121763D01*
X54193568Y-79121763D01*
X29474520Y-63671763D02*
X29474520Y-64386049D01*
X29426901Y-64528906D01*
X29331663Y-64624144D01*
X29188806Y-64671763D01*
X29093568Y-64671763D01*
X30379282Y-64005097D02*
X30379282Y-64671763D01*
X30141187Y-63624144D02*
X29903092Y-64338430D01*
X30522139Y-64338430D01*
X121274520Y-54671763D02*
X121274520Y-55386049D01*
X121226901Y-55528906D01*
X121131663Y-55624144D01*
X120988806Y-55671763D01*
X120893568Y-55671763D01*
X121655473Y-54671763D02*
X122274520Y-54671763D01*
X121941187Y-55052716D01*
X122084044Y-55052716D01*
X122179282Y-55100335D01*
X122226901Y-55147954D01*
X122274520Y-55243192D01*
X122274520Y-55481287D01*
X122226901Y-55576525D01*
X122179282Y-55624144D01*
X122084044Y-55671763D01*
X121798330Y-55671763D01*
X121703092Y-55624144D01*
X121655473Y-55576525D01*
X119510234Y-56871763D02*
X119510234Y-57681287D01*
X119557854Y-57776525D01*
X119605473Y-57824144D01*
X119700711Y-57871763D01*
X119891187Y-57871763D01*
X119986425Y-57824144D01*
X120034044Y-57776525D01*
X120081663Y-57681287D01*
X120081663Y-56871763D01*
X120510234Y-57586049D02*
X120986425Y-57586049D01*
X120414996Y-57871763D02*
X120748330Y-56871763D01*
X121081663Y-57871763D01*
X121986425Y-57871763D02*
X121653092Y-57395573D01*
X121414996Y-57871763D02*
X121414996Y-56871763D01*
X121795949Y-56871763D01*
X121891187Y-56919383D01*
X121938806Y-56967002D01*
X121986425Y-57062240D01*
X121986425Y-57205097D01*
X121938806Y-57300335D01*
X121891187Y-57347954D01*
X121795949Y-57395573D01*
X121414996Y-57395573D01*
X122272139Y-56871763D02*
X122843568Y-56871763D01*
X122557854Y-57871763D02*
X122557854Y-56871763D01*
X122938806Y-57967002D02*
X123700711Y-57967002D01*
X123938806Y-57871763D02*
X123938806Y-56871763D01*
X124272139Y-57586049D01*
X124605473Y-56871763D01*
X124605473Y-57871763D01*
X57174520Y-42621763D02*
X57174520Y-43336049D01*
X57126901Y-43478906D01*
X57031663Y-43574144D01*
X56888806Y-43621763D01*
X56793568Y-43621763D01*
X57603092Y-42717002D02*
X57650711Y-42669383D01*
X57745949Y-42621763D01*
X57984044Y-42621763D01*
X58079282Y-42669383D01*
X58126901Y-42717002D01*
X58174520Y-42812240D01*
X58174520Y-42907478D01*
X58126901Y-43050335D01*
X57555473Y-43621763D01*
X58174520Y-43621763D01*
D10*
X65729282Y-42447954D02*
X64872139Y-42447954D01*
X65300711Y-42447954D02*
X65300711Y-40947954D01*
X65157854Y-41162240D01*
X65014996Y-41305097D01*
X64872139Y-41376525D01*
X66300711Y-41090811D02*
X66372139Y-41019383D01*
X66514996Y-40947954D01*
X66872139Y-40947954D01*
X67014996Y-41019383D01*
X67086425Y-41090811D01*
X67157854Y-41233668D01*
X67157854Y-41376525D01*
X67086425Y-41590811D01*
X66229282Y-42447954D01*
X67157854Y-42447954D01*
X67586425Y-40947954D02*
X68086425Y-42447954D01*
X68586425Y-40947954D01*
D13*
X50424520Y-40471763D02*
X50424520Y-41186049D01*
X50376901Y-41328906D01*
X50281663Y-41424144D01*
X50138806Y-41471763D01*
X50043568Y-41471763D01*
X51424520Y-41471763D02*
X50853092Y-41471763D01*
X51138806Y-41471763D02*
X51138806Y-40471763D01*
X51043568Y-40614621D01*
X50948330Y-40709859D01*
X50853092Y-40757478D01*
X51067377Y-46024144D02*
X51210234Y-46071763D01*
X51448330Y-46071763D01*
X51543568Y-46024144D01*
X51591187Y-45976525D01*
X51638806Y-45881287D01*
X51638806Y-45786049D01*
X51591187Y-45690811D01*
X51543568Y-45643192D01*
X51448330Y-45595573D01*
X51257854Y-45547954D01*
X51162615Y-45500335D01*
X51114996Y-45452716D01*
X51067377Y-45357478D01*
X51067377Y-45262240D01*
X51114996Y-45167002D01*
X51162615Y-45119383D01*
X51257854Y-45071763D01*
X51495949Y-45071763D01*
X51638806Y-45119383D01*
X51924520Y-45071763D02*
X52257854Y-46071763D01*
X52591187Y-45071763D01*
X53448330Y-46071763D02*
X52876901Y-46071763D01*
X53162615Y-46071763D02*
X53162615Y-45071763D01*
X53067377Y-45214621D01*
X52972139Y-45309859D01*
X52876901Y-45357478D01*
X70619758Y-56971763D02*
X70619758Y-55971763D01*
X70857854Y-55971763D01*
X71000711Y-56019383D01*
X71095949Y-56114621D01*
X71143568Y-56209859D01*
X71191187Y-56400335D01*
X71191187Y-56543192D01*
X71143568Y-56733668D01*
X71095949Y-56828906D01*
X71000711Y-56924144D01*
X70857854Y-56971763D01*
X70619758Y-56971763D01*
X72048330Y-56305097D02*
X72048330Y-56971763D01*
X71810234Y-55924144D02*
X71572139Y-56638430D01*
X72191187Y-56638430D01*
X57169758Y-93921763D02*
X57169758Y-92921763D01*
X57407854Y-92921763D01*
X57550711Y-92969383D01*
X57645949Y-93064621D01*
X57693568Y-93159859D01*
X57741187Y-93350335D01*
X57741187Y-93493192D01*
X57693568Y-93683668D01*
X57645949Y-93778906D01*
X57550711Y-93874144D01*
X57407854Y-93921763D01*
X57169758Y-93921763D01*
X58074520Y-92921763D02*
X58693568Y-92921763D01*
X58360234Y-93302716D01*
X58503092Y-93302716D01*
X58598330Y-93350335D01*
X58645949Y-93397954D01*
X58693568Y-93493192D01*
X58693568Y-93731287D01*
X58645949Y-93826525D01*
X58598330Y-93874144D01*
X58503092Y-93921763D01*
X58217377Y-93921763D01*
X58122139Y-93874144D01*
X58074520Y-93826525D01*
X71369758Y-94021763D02*
X71369758Y-93021763D01*
X71607854Y-93021763D01*
X71750711Y-93069383D01*
X71845949Y-93164621D01*
X71893568Y-93259859D01*
X71941187Y-93450335D01*
X71941187Y-93593192D01*
X71893568Y-93783668D01*
X71845949Y-93878906D01*
X71750711Y-93974144D01*
X71607854Y-94021763D01*
X71369758Y-94021763D01*
X72322139Y-93117002D02*
X72369758Y-93069383D01*
X72464996Y-93021763D01*
X72703092Y-93021763D01*
X72798330Y-93069383D01*
X72845949Y-93117002D01*
X72893568Y-93212240D01*
X72893568Y-93307478D01*
X72845949Y-93450335D01*
X72274520Y-94021763D01*
X72893568Y-94021763D01*
X42719758Y-44971763D02*
X42719758Y-43971763D01*
X42957854Y-43971763D01*
X43100711Y-44019383D01*
X43195949Y-44114621D01*
X43243568Y-44209859D01*
X43291187Y-44400335D01*
X43291187Y-44543192D01*
X43243568Y-44733668D01*
X43195949Y-44828906D01*
X43100711Y-44924144D01*
X42957854Y-44971763D01*
X42719758Y-44971763D01*
X44243568Y-44971763D02*
X43672139Y-44971763D01*
X43957854Y-44971763D02*
X43957854Y-43971763D01*
X43862615Y-44114621D01*
X43767377Y-44209859D01*
X43672139Y-44257478D01*
X98414996Y-109846525D02*
X98367377Y-109894144D01*
X98224520Y-109941763D01*
X98129282Y-109941763D01*
X97986425Y-109894144D01*
X97891187Y-109798906D01*
X97843568Y-109703668D01*
X97795949Y-109513192D01*
X97795949Y-109370335D01*
X97843568Y-109179859D01*
X97891187Y-109084621D01*
X97986425Y-108989383D01*
X98129282Y-108941763D01*
X98224520Y-108941763D01*
X98367377Y-108989383D01*
X98414996Y-109037002D01*
X98748330Y-108941763D02*
X99367377Y-108941763D01*
X99034044Y-109322716D01*
X99176901Y-109322716D01*
X99272139Y-109370335D01*
X99319758Y-109417954D01*
X99367377Y-109513192D01*
X99367377Y-109751287D01*
X99319758Y-109846525D01*
X99272139Y-109894144D01*
X99176901Y-109941763D01*
X98891187Y-109941763D01*
X98795949Y-109894144D01*
X98748330Y-109846525D01*
X99986425Y-108941763D02*
X100081663Y-108941763D01*
X100176901Y-108989383D01*
X100224520Y-109037002D01*
X100272139Y-109132240D01*
X100319758Y-109322716D01*
X100319758Y-109560811D01*
X100272139Y-109751287D01*
X100224520Y-109846525D01*
X100176901Y-109894144D01*
X100081663Y-109941763D01*
X99986425Y-109941763D01*
X99891187Y-109894144D01*
X99843568Y-109846525D01*
X99795949Y-109751287D01*
X99748330Y-109560811D01*
X99748330Y-109322716D01*
X99795949Y-109132240D01*
X99843568Y-109037002D01*
X99891187Y-108989383D01*
X99986425Y-108941763D01*
X103864996Y-94126525D02*
X103817377Y-94174144D01*
X103674520Y-94221763D01*
X103579282Y-94221763D01*
X103436425Y-94174144D01*
X103341187Y-94078906D01*
X103293568Y-93983668D01*
X103245949Y-93793192D01*
X103245949Y-93650335D01*
X103293568Y-93459859D01*
X103341187Y-93364621D01*
X103436425Y-93269383D01*
X103579282Y-93221763D01*
X103674520Y-93221763D01*
X103817377Y-93269383D01*
X103864996Y-93317002D01*
X104245949Y-93317002D02*
X104293568Y-93269383D01*
X104388806Y-93221763D01*
X104626901Y-93221763D01*
X104722139Y-93269383D01*
X104769758Y-93317002D01*
X104817377Y-93412240D01*
X104817377Y-93507478D01*
X104769758Y-93650335D01*
X104198330Y-94221763D01*
X104817377Y-94221763D01*
X105293568Y-94221763D02*
X105484044Y-94221763D01*
X105579282Y-94174144D01*
X105626901Y-94126525D01*
X105722139Y-93983668D01*
X105769758Y-93793192D01*
X105769758Y-93412240D01*
X105722139Y-93317002D01*
X105674520Y-93269383D01*
X105579282Y-93221763D01*
X105388806Y-93221763D01*
X105293568Y-93269383D01*
X105245949Y-93317002D01*
X105198330Y-93412240D01*
X105198330Y-93650335D01*
X105245949Y-93745573D01*
X105293568Y-93793192D01*
X105388806Y-93840811D01*
X105579282Y-93840811D01*
X105674520Y-93793192D01*
X105722139Y-93745573D01*
X105769758Y-93650335D01*
X79564996Y-82426525D02*
X79517377Y-82474144D01*
X79374520Y-82521763D01*
X79279282Y-82521763D01*
X79136425Y-82474144D01*
X79041187Y-82378906D01*
X78993568Y-82283668D01*
X78945949Y-82093192D01*
X78945949Y-81950335D01*
X78993568Y-81759859D01*
X79041187Y-81664621D01*
X79136425Y-81569383D01*
X79279282Y-81521763D01*
X79374520Y-81521763D01*
X79517377Y-81569383D01*
X79564996Y-81617002D01*
X79945949Y-81617002D02*
X79993568Y-81569383D01*
X80088806Y-81521763D01*
X80326901Y-81521763D01*
X80422139Y-81569383D01*
X80469758Y-81617002D01*
X80517377Y-81712240D01*
X80517377Y-81807478D01*
X80469758Y-81950335D01*
X79898330Y-82521763D01*
X80517377Y-82521763D01*
X81088806Y-81950335D02*
X80993568Y-81902716D01*
X80945949Y-81855097D01*
X80898330Y-81759859D01*
X80898330Y-81712240D01*
X80945949Y-81617002D01*
X80993568Y-81569383D01*
X81088806Y-81521763D01*
X81279282Y-81521763D01*
X81374520Y-81569383D01*
X81422139Y-81617002D01*
X81469758Y-81712240D01*
X81469758Y-81759859D01*
X81422139Y-81855097D01*
X81374520Y-81902716D01*
X81279282Y-81950335D01*
X81088806Y-81950335D01*
X80993568Y-81997954D01*
X80945949Y-82045573D01*
X80898330Y-82140811D01*
X80898330Y-82331287D01*
X80945949Y-82426525D01*
X80993568Y-82474144D01*
X81088806Y-82521763D01*
X81279282Y-82521763D01*
X81374520Y-82474144D01*
X81422139Y-82426525D01*
X81469758Y-82331287D01*
X81469758Y-82140811D01*
X81422139Y-82045573D01*
X81374520Y-81997954D01*
X81279282Y-81950335D01*
X146014996Y-88676525D02*
X145967377Y-88724144D01*
X145824520Y-88771763D01*
X145729282Y-88771763D01*
X145586425Y-88724144D01*
X145491187Y-88628906D01*
X145443568Y-88533668D01*
X145395949Y-88343192D01*
X145395949Y-88200335D01*
X145443568Y-88009859D01*
X145491187Y-87914621D01*
X145586425Y-87819383D01*
X145729282Y-87771763D01*
X145824520Y-87771763D01*
X145967377Y-87819383D01*
X146014996Y-87867002D01*
X146395949Y-87867002D02*
X146443568Y-87819383D01*
X146538806Y-87771763D01*
X146776901Y-87771763D01*
X146872139Y-87819383D01*
X146919758Y-87867002D01*
X146967377Y-87962240D01*
X146967377Y-88057478D01*
X146919758Y-88200335D01*
X146348330Y-88771763D01*
X146967377Y-88771763D01*
X147300711Y-87771763D02*
X147967377Y-87771763D01*
X147538806Y-88771763D01*
X109264996Y-94026525D02*
X109217377Y-94074144D01*
X109074520Y-94121763D01*
X108979282Y-94121763D01*
X108836425Y-94074144D01*
X108741187Y-93978906D01*
X108693568Y-93883668D01*
X108645949Y-93693192D01*
X108645949Y-93550335D01*
X108693568Y-93359859D01*
X108741187Y-93264621D01*
X108836425Y-93169383D01*
X108979282Y-93121763D01*
X109074520Y-93121763D01*
X109217377Y-93169383D01*
X109264996Y-93217002D01*
X109645949Y-93217002D02*
X109693568Y-93169383D01*
X109788806Y-93121763D01*
X110026901Y-93121763D01*
X110122139Y-93169383D01*
X110169758Y-93217002D01*
X110217377Y-93312240D01*
X110217377Y-93407478D01*
X110169758Y-93550335D01*
X109598330Y-94121763D01*
X110217377Y-94121763D01*
X111074520Y-93121763D02*
X110884044Y-93121763D01*
X110788806Y-93169383D01*
X110741187Y-93217002D01*
X110645949Y-93359859D01*
X110598330Y-93550335D01*
X110598330Y-93931287D01*
X110645949Y-94026525D01*
X110693568Y-94074144D01*
X110788806Y-94121763D01*
X110979282Y-94121763D01*
X111074520Y-94074144D01*
X111122139Y-94026525D01*
X111169758Y-93931287D01*
X111169758Y-93693192D01*
X111122139Y-93597954D01*
X111074520Y-93550335D01*
X110979282Y-93502716D01*
X110788806Y-93502716D01*
X110693568Y-93550335D01*
X110645949Y-93597954D01*
X110598330Y-93693192D01*
X66414996Y-88706525D02*
X66367377Y-88754144D01*
X66224520Y-88801763D01*
X66129282Y-88801763D01*
X65986425Y-88754144D01*
X65891187Y-88658906D01*
X65843568Y-88563668D01*
X65795949Y-88373192D01*
X65795949Y-88230335D01*
X65843568Y-88039859D01*
X65891187Y-87944621D01*
X65986425Y-87849383D01*
X66129282Y-87801763D01*
X66224520Y-87801763D01*
X66367377Y-87849383D01*
X66414996Y-87897002D01*
X66795949Y-87897002D02*
X66843568Y-87849383D01*
X66938806Y-87801763D01*
X67176901Y-87801763D01*
X67272139Y-87849383D01*
X67319758Y-87897002D01*
X67367377Y-87992240D01*
X67367377Y-88087478D01*
X67319758Y-88230335D01*
X66748330Y-88801763D01*
X67367377Y-88801763D01*
X68272139Y-87801763D02*
X67795949Y-87801763D01*
X67748330Y-88277954D01*
X67795949Y-88230335D01*
X67891187Y-88182716D01*
X68129282Y-88182716D01*
X68224520Y-88230335D01*
X68272139Y-88277954D01*
X68319758Y-88373192D01*
X68319758Y-88611287D01*
X68272139Y-88706525D01*
X68224520Y-88754144D01*
X68129282Y-88801763D01*
X67891187Y-88801763D01*
X67795949Y-88754144D01*
X67748330Y-88706525D01*
X81014996Y-88706525D02*
X80967377Y-88754144D01*
X80824520Y-88801763D01*
X80729282Y-88801763D01*
X80586425Y-88754144D01*
X80491187Y-88658906D01*
X80443568Y-88563668D01*
X80395949Y-88373192D01*
X80395949Y-88230335D01*
X80443568Y-88039859D01*
X80491187Y-87944621D01*
X80586425Y-87849383D01*
X80729282Y-87801763D01*
X80824520Y-87801763D01*
X80967377Y-87849383D01*
X81014996Y-87897002D01*
X81395949Y-87897002D02*
X81443568Y-87849383D01*
X81538806Y-87801763D01*
X81776901Y-87801763D01*
X81872139Y-87849383D01*
X81919758Y-87897002D01*
X81967377Y-87992240D01*
X81967377Y-88087478D01*
X81919758Y-88230335D01*
X81348330Y-88801763D01*
X81967377Y-88801763D01*
X82824520Y-88135097D02*
X82824520Y-88801763D01*
X82586425Y-87754144D02*
X82348330Y-88468430D01*
X82967377Y-88468430D01*
X58414996Y-105476525D02*
X58367377Y-105524144D01*
X58224520Y-105571763D01*
X58129282Y-105571763D01*
X57986425Y-105524144D01*
X57891187Y-105428906D01*
X57843568Y-105333668D01*
X57795949Y-105143192D01*
X57795949Y-105000335D01*
X57843568Y-104809859D01*
X57891187Y-104714621D01*
X57986425Y-104619383D01*
X58129282Y-104571763D01*
X58224520Y-104571763D01*
X58367377Y-104619383D01*
X58414996Y-104667002D01*
X58795949Y-104667002D02*
X58843568Y-104619383D01*
X58938806Y-104571763D01*
X59176901Y-104571763D01*
X59272139Y-104619383D01*
X59319758Y-104667002D01*
X59367377Y-104762240D01*
X59367377Y-104857478D01*
X59319758Y-105000335D01*
X58748330Y-105571763D01*
X59367377Y-105571763D01*
X59700711Y-104571763D02*
X60319758Y-104571763D01*
X59986425Y-104952716D01*
X60129282Y-104952716D01*
X60224520Y-105000335D01*
X60272139Y-105047954D01*
X60319758Y-105143192D01*
X60319758Y-105381287D01*
X60272139Y-105476525D01*
X60224520Y-105524144D01*
X60129282Y-105571763D01*
X59843568Y-105571763D01*
X59748330Y-105524144D01*
X59700711Y-105476525D01*
X72964996Y-105476525D02*
X72917377Y-105524144D01*
X72774520Y-105571763D01*
X72679282Y-105571763D01*
X72536425Y-105524144D01*
X72441187Y-105428906D01*
X72393568Y-105333668D01*
X72345949Y-105143192D01*
X72345949Y-105000335D01*
X72393568Y-104809859D01*
X72441187Y-104714621D01*
X72536425Y-104619383D01*
X72679282Y-104571763D01*
X72774520Y-104571763D01*
X72917377Y-104619383D01*
X72964996Y-104667002D01*
X73345949Y-104667002D02*
X73393568Y-104619383D01*
X73488806Y-104571763D01*
X73726901Y-104571763D01*
X73822139Y-104619383D01*
X73869758Y-104667002D01*
X73917377Y-104762240D01*
X73917377Y-104857478D01*
X73869758Y-105000335D01*
X73298330Y-105571763D01*
X73917377Y-105571763D01*
X74298330Y-104667002D02*
X74345949Y-104619383D01*
X74441187Y-104571763D01*
X74679282Y-104571763D01*
X74774520Y-104619383D01*
X74822139Y-104667002D01*
X74869758Y-104762240D01*
X74869758Y-104857478D01*
X74822139Y-105000335D01*
X74250711Y-105571763D01*
X74869758Y-105571763D01*
X92214996Y-51676525D02*
X92167377Y-51724144D01*
X92024520Y-51771763D01*
X91929282Y-51771763D01*
X91786425Y-51724144D01*
X91691187Y-51628906D01*
X91643568Y-51533668D01*
X91595949Y-51343192D01*
X91595949Y-51200335D01*
X91643568Y-51009859D01*
X91691187Y-50914621D01*
X91786425Y-50819383D01*
X91929282Y-50771763D01*
X92024520Y-50771763D01*
X92167377Y-50819383D01*
X92214996Y-50867002D01*
X92595949Y-50867002D02*
X92643568Y-50819383D01*
X92738806Y-50771763D01*
X92976901Y-50771763D01*
X93072139Y-50819383D01*
X93119758Y-50867002D01*
X93167377Y-50962240D01*
X93167377Y-51057478D01*
X93119758Y-51200335D01*
X92548330Y-51771763D01*
X93167377Y-51771763D01*
X94119758Y-51771763D02*
X93548330Y-51771763D01*
X93834044Y-51771763D02*
X93834044Y-50771763D01*
X93738806Y-50914621D01*
X93643568Y-51009859D01*
X93548330Y-51057478D01*
X97464996Y-63726525D02*
X97417377Y-63774144D01*
X97274520Y-63821763D01*
X97179282Y-63821763D01*
X97036425Y-63774144D01*
X96941187Y-63678906D01*
X96893568Y-63583668D01*
X96845949Y-63393192D01*
X96845949Y-63250335D01*
X96893568Y-63059859D01*
X96941187Y-62964621D01*
X97036425Y-62869383D01*
X97179282Y-62821763D01*
X97274520Y-62821763D01*
X97417377Y-62869383D01*
X97464996Y-62917002D01*
X97845949Y-62917002D02*
X97893568Y-62869383D01*
X97988806Y-62821763D01*
X98226901Y-62821763D01*
X98322139Y-62869383D01*
X98369758Y-62917002D01*
X98417377Y-63012240D01*
X98417377Y-63107478D01*
X98369758Y-63250335D01*
X97798330Y-63821763D01*
X98417377Y-63821763D01*
X99036425Y-62821763D02*
X99131663Y-62821763D01*
X99226901Y-62869383D01*
X99274520Y-62917002D01*
X99322139Y-63012240D01*
X99369758Y-63202716D01*
X99369758Y-63440811D01*
X99322139Y-63631287D01*
X99274520Y-63726525D01*
X99226901Y-63774144D01*
X99131663Y-63821763D01*
X99036425Y-63821763D01*
X98941187Y-63774144D01*
X98893568Y-63726525D01*
X98845949Y-63631287D01*
X98798330Y-63440811D01*
X98798330Y-63202716D01*
X98845949Y-63012240D01*
X98893568Y-62917002D01*
X98941187Y-62869383D01*
X99036425Y-62821763D01*
X160664996Y-105426525D02*
X160617377Y-105474144D01*
X160474520Y-105521763D01*
X160379282Y-105521763D01*
X160236425Y-105474144D01*
X160141187Y-105378906D01*
X160093568Y-105283668D01*
X160045949Y-105093192D01*
X160045949Y-104950335D01*
X160093568Y-104759859D01*
X160141187Y-104664621D01*
X160236425Y-104569383D01*
X160379282Y-104521763D01*
X160474520Y-104521763D01*
X160617377Y-104569383D01*
X160664996Y-104617002D01*
X161617377Y-105521763D02*
X161045949Y-105521763D01*
X161331663Y-105521763D02*
X161331663Y-104521763D01*
X161236425Y-104664621D01*
X161141187Y-104759859D01*
X161045949Y-104807478D01*
X162093568Y-105521763D02*
X162284044Y-105521763D01*
X162379282Y-105474144D01*
X162426901Y-105426525D01*
X162522139Y-105283668D01*
X162569758Y-105093192D01*
X162569758Y-104712240D01*
X162522139Y-104617002D01*
X162474520Y-104569383D01*
X162379282Y-104521763D01*
X162188806Y-104521763D01*
X162093568Y-104569383D01*
X162045949Y-104617002D01*
X161998330Y-104712240D01*
X161998330Y-104950335D01*
X162045949Y-105045573D01*
X162093568Y-105093192D01*
X162188806Y-105140811D01*
X162379282Y-105140811D01*
X162474520Y-105093192D01*
X162522139Y-105045573D01*
X162569758Y-104950335D01*
X144064996Y-105126525D02*
X144017377Y-105174144D01*
X143874520Y-105221763D01*
X143779282Y-105221763D01*
X143636425Y-105174144D01*
X143541187Y-105078906D01*
X143493568Y-104983668D01*
X143445949Y-104793192D01*
X143445949Y-104650335D01*
X143493568Y-104459859D01*
X143541187Y-104364621D01*
X143636425Y-104269383D01*
X143779282Y-104221763D01*
X143874520Y-104221763D01*
X144017377Y-104269383D01*
X144064996Y-104317002D01*
X145017377Y-105221763D02*
X144445949Y-105221763D01*
X144731663Y-105221763D02*
X144731663Y-104221763D01*
X144636425Y-104364621D01*
X144541187Y-104459859D01*
X144445949Y-104507478D01*
X145588806Y-104650335D02*
X145493568Y-104602716D01*
X145445949Y-104555097D01*
X145398330Y-104459859D01*
X145398330Y-104412240D01*
X145445949Y-104317002D01*
X145493568Y-104269383D01*
X145588806Y-104221763D01*
X145779282Y-104221763D01*
X145874520Y-104269383D01*
X145922139Y-104317002D01*
X145969758Y-104412240D01*
X145969758Y-104459859D01*
X145922139Y-104555097D01*
X145874520Y-104602716D01*
X145779282Y-104650335D01*
X145588806Y-104650335D01*
X145493568Y-104697954D01*
X145445949Y-104745573D01*
X145398330Y-104840811D01*
X145398330Y-105031287D01*
X145445949Y-105126525D01*
X145493568Y-105174144D01*
X145588806Y-105221763D01*
X145779282Y-105221763D01*
X145874520Y-105174144D01*
X145922139Y-105126525D01*
X145969758Y-105031287D01*
X145969758Y-104840811D01*
X145922139Y-104745573D01*
X145874520Y-104697954D01*
X145779282Y-104650335D01*
X152664996Y-82226525D02*
X152617377Y-82274144D01*
X152474520Y-82321763D01*
X152379282Y-82321763D01*
X152236425Y-82274144D01*
X152141187Y-82178906D01*
X152093568Y-82083668D01*
X152045949Y-81893192D01*
X152045949Y-81750335D01*
X152093568Y-81559859D01*
X152141187Y-81464621D01*
X152236425Y-81369383D01*
X152379282Y-81321763D01*
X152474520Y-81321763D01*
X152617377Y-81369383D01*
X152664996Y-81417002D01*
X153617377Y-82321763D02*
X153045949Y-82321763D01*
X153331663Y-82321763D02*
X153331663Y-81321763D01*
X153236425Y-81464621D01*
X153141187Y-81559859D01*
X153045949Y-81607478D01*
X153950711Y-81321763D02*
X154617377Y-81321763D01*
X154188806Y-82321763D01*
X115914996Y-79876525D02*
X115867377Y-79924144D01*
X115724520Y-79971763D01*
X115629282Y-79971763D01*
X115486425Y-79924144D01*
X115391187Y-79828906D01*
X115343568Y-79733668D01*
X115295949Y-79543192D01*
X115295949Y-79400335D01*
X115343568Y-79209859D01*
X115391187Y-79114621D01*
X115486425Y-79019383D01*
X115629282Y-78971763D01*
X115724520Y-78971763D01*
X115867377Y-79019383D01*
X115914996Y-79067002D01*
X116867377Y-79971763D02*
X116295949Y-79971763D01*
X116581663Y-79971763D02*
X116581663Y-78971763D01*
X116486425Y-79114621D01*
X116391187Y-79209859D01*
X116295949Y-79257478D01*
X117724520Y-78971763D02*
X117534044Y-78971763D01*
X117438806Y-79019383D01*
X117391187Y-79067002D01*
X117295949Y-79209859D01*
X117248330Y-79400335D01*
X117248330Y-79781287D01*
X117295949Y-79876525D01*
X117343568Y-79924144D01*
X117438806Y-79971763D01*
X117629282Y-79971763D01*
X117724520Y-79924144D01*
X117772139Y-79876525D01*
X117819758Y-79781287D01*
X117819758Y-79543192D01*
X117772139Y-79447954D01*
X117724520Y-79400335D01*
X117629282Y-79352716D01*
X117438806Y-79352716D01*
X117343568Y-79400335D01*
X117295949Y-79447954D01*
X117248330Y-79543192D01*
X46664996Y-75176525D02*
X46617377Y-75224144D01*
X46474520Y-75271763D01*
X46379282Y-75271763D01*
X46236425Y-75224144D01*
X46141187Y-75128906D01*
X46093568Y-75033668D01*
X46045949Y-74843192D01*
X46045949Y-74700335D01*
X46093568Y-74509859D01*
X46141187Y-74414621D01*
X46236425Y-74319383D01*
X46379282Y-74271763D01*
X46474520Y-74271763D01*
X46617377Y-74319383D01*
X46664996Y-74367002D01*
X47617377Y-75271763D02*
X47045949Y-75271763D01*
X47331663Y-75271763D02*
X47331663Y-74271763D01*
X47236425Y-74414621D01*
X47141187Y-74509859D01*
X47045949Y-74557478D01*
X48522139Y-74271763D02*
X48045949Y-74271763D01*
X47998330Y-74747954D01*
X48045949Y-74700335D01*
X48141187Y-74652716D01*
X48379282Y-74652716D01*
X48474520Y-74700335D01*
X48522139Y-74747954D01*
X48569758Y-74843192D01*
X48569758Y-75081287D01*
X48522139Y-75176525D01*
X48474520Y-75224144D01*
X48379282Y-75271763D01*
X48141187Y-75271763D01*
X48045949Y-75224144D01*
X47998330Y-75176525D01*
X73514996Y-91546525D02*
X73467377Y-91594144D01*
X73324520Y-91641763D01*
X73229282Y-91641763D01*
X73086425Y-91594144D01*
X72991187Y-91498906D01*
X72943568Y-91403668D01*
X72895949Y-91213192D01*
X72895949Y-91070335D01*
X72943568Y-90879859D01*
X72991187Y-90784621D01*
X73086425Y-90689383D01*
X73229282Y-90641763D01*
X73324520Y-90641763D01*
X73467377Y-90689383D01*
X73514996Y-90737002D01*
X74467377Y-91641763D02*
X73895949Y-91641763D01*
X74181663Y-91641763D02*
X74181663Y-90641763D01*
X74086425Y-90784621D01*
X73991187Y-90879859D01*
X73895949Y-90927478D01*
X75324520Y-90975097D02*
X75324520Y-91641763D01*
X75086425Y-90594144D02*
X74848330Y-91308430D01*
X75467377Y-91308430D01*
X151664996Y-36676525D02*
X151617377Y-36724144D01*
X151474520Y-36771763D01*
X151379282Y-36771763D01*
X151236425Y-36724144D01*
X151141187Y-36628906D01*
X151093568Y-36533668D01*
X151045949Y-36343192D01*
X151045949Y-36200335D01*
X151093568Y-36009859D01*
X151141187Y-35914621D01*
X151236425Y-35819383D01*
X151379282Y-35771763D01*
X151474520Y-35771763D01*
X151617377Y-35819383D01*
X151664996Y-35867002D01*
X152617377Y-36771763D02*
X152045949Y-36771763D01*
X152331663Y-36771763D02*
X152331663Y-35771763D01*
X152236425Y-35914621D01*
X152141187Y-36009859D01*
X152045949Y-36057478D01*
X152950711Y-35771763D02*
X153569758Y-35771763D01*
X153236425Y-36152716D01*
X153379282Y-36152716D01*
X153474520Y-36200335D01*
X153522139Y-36247954D01*
X153569758Y-36343192D01*
X153569758Y-36581287D01*
X153522139Y-36676525D01*
X153474520Y-36724144D01*
X153379282Y-36771763D01*
X153093568Y-36771763D01*
X152998330Y-36724144D01*
X152950711Y-36676525D01*
X129814996Y-39176525D02*
X129767377Y-39224144D01*
X129624520Y-39271763D01*
X129529282Y-39271763D01*
X129386425Y-39224144D01*
X129291187Y-39128906D01*
X129243568Y-39033668D01*
X129195949Y-38843192D01*
X129195949Y-38700335D01*
X129243568Y-38509859D01*
X129291187Y-38414621D01*
X129386425Y-38319383D01*
X129529282Y-38271763D01*
X129624520Y-38271763D01*
X129767377Y-38319383D01*
X129814996Y-38367002D01*
X130767377Y-39271763D02*
X130195949Y-39271763D01*
X130481663Y-39271763D02*
X130481663Y-38271763D01*
X130386425Y-38414621D01*
X130291187Y-38509859D01*
X130195949Y-38557478D01*
X131148330Y-38367002D02*
X131195949Y-38319383D01*
X131291187Y-38271763D01*
X131529282Y-38271763D01*
X131624520Y-38319383D01*
X131672139Y-38367002D01*
X131719758Y-38462240D01*
X131719758Y-38557478D01*
X131672139Y-38700335D01*
X131100711Y-39271763D01*
X131719758Y-39271763D01*
X105064996Y-56376525D02*
X105017377Y-56424144D01*
X104874520Y-56471763D01*
X104779282Y-56471763D01*
X104636425Y-56424144D01*
X104541187Y-56328906D01*
X104493568Y-56233668D01*
X104445949Y-56043192D01*
X104445949Y-55900335D01*
X104493568Y-55709859D01*
X104541187Y-55614621D01*
X104636425Y-55519383D01*
X104779282Y-55471763D01*
X104874520Y-55471763D01*
X105017377Y-55519383D01*
X105064996Y-55567002D01*
X106017377Y-56471763D02*
X105445949Y-56471763D01*
X105731663Y-56471763D02*
X105731663Y-55471763D01*
X105636425Y-55614621D01*
X105541187Y-55709859D01*
X105445949Y-55757478D01*
X106969758Y-56471763D02*
X106398330Y-56471763D01*
X106684044Y-56471763D02*
X106684044Y-55471763D01*
X106588806Y-55614621D01*
X106493568Y-55709859D01*
X106398330Y-55757478D01*
X142264996Y-49626525D02*
X142217377Y-49674144D01*
X142074520Y-49721763D01*
X141979282Y-49721763D01*
X141836425Y-49674144D01*
X141741187Y-49578906D01*
X141693568Y-49483668D01*
X141645949Y-49293192D01*
X141645949Y-49150335D01*
X141693568Y-48959859D01*
X141741187Y-48864621D01*
X141836425Y-48769383D01*
X141979282Y-48721763D01*
X142074520Y-48721763D01*
X142217377Y-48769383D01*
X142264996Y-48817002D01*
X143217377Y-49721763D02*
X142645949Y-49721763D01*
X142931663Y-49721763D02*
X142931663Y-48721763D01*
X142836425Y-48864621D01*
X142741187Y-48959859D01*
X142645949Y-49007478D01*
X143836425Y-48721763D02*
X143931663Y-48721763D01*
X144026901Y-48769383D01*
X144074520Y-48817002D01*
X144122139Y-48912240D01*
X144169758Y-49102716D01*
X144169758Y-49340811D01*
X144122139Y-49531287D01*
X144074520Y-49626525D01*
X144026901Y-49674144D01*
X143931663Y-49721763D01*
X143836425Y-49721763D01*
X143741187Y-49674144D01*
X143693568Y-49626525D01*
X143645949Y-49531287D01*
X143598330Y-49340811D01*
X143598330Y-49102716D01*
X143645949Y-48912240D01*
X143693568Y-48817002D01*
X143741187Y-48769383D01*
X143836425Y-48721763D01*
X112691187Y-39676525D02*
X112643568Y-39724144D01*
X112500711Y-39771763D01*
X112405473Y-39771763D01*
X112262615Y-39724144D01*
X112167377Y-39628906D01*
X112119758Y-39533668D01*
X112072139Y-39343192D01*
X112072139Y-39200335D01*
X112119758Y-39009859D01*
X112167377Y-38914621D01*
X112262615Y-38819383D01*
X112405473Y-38771763D01*
X112500711Y-38771763D01*
X112643568Y-38819383D01*
X112691187Y-38867002D01*
X113167377Y-39771763D02*
X113357854Y-39771763D01*
X113453092Y-39724144D01*
X113500711Y-39676525D01*
X113595949Y-39533668D01*
X113643568Y-39343192D01*
X113643568Y-38962240D01*
X113595949Y-38867002D01*
X113548330Y-38819383D01*
X113453092Y-38771763D01*
X113262615Y-38771763D01*
X113167377Y-38819383D01*
X113119758Y-38867002D01*
X113072139Y-38962240D01*
X113072139Y-39200335D01*
X113119758Y-39295573D01*
X113167377Y-39343192D01*
X113262615Y-39390811D01*
X113453092Y-39390811D01*
X113548330Y-39343192D01*
X113595949Y-39295573D01*
X113643568Y-39200335D01*
X57391187Y-62526525D02*
X57343568Y-62574144D01*
X57200711Y-62621763D01*
X57105473Y-62621763D01*
X56962615Y-62574144D01*
X56867377Y-62478906D01*
X56819758Y-62383668D01*
X56772139Y-62193192D01*
X56772139Y-62050335D01*
X56819758Y-61859859D01*
X56867377Y-61764621D01*
X56962615Y-61669383D01*
X57105473Y-61621763D01*
X57200711Y-61621763D01*
X57343568Y-61669383D01*
X57391187Y-61717002D01*
X57962615Y-62050335D02*
X57867377Y-62002716D01*
X57819758Y-61955097D01*
X57772139Y-61859859D01*
X57772139Y-61812240D01*
X57819758Y-61717002D01*
X57867377Y-61669383D01*
X57962615Y-61621763D01*
X58153092Y-61621763D01*
X58248330Y-61669383D01*
X58295949Y-61717002D01*
X58343568Y-61812240D01*
X58343568Y-61859859D01*
X58295949Y-61955097D01*
X58248330Y-62002716D01*
X58153092Y-62050335D01*
X57962615Y-62050335D01*
X57867377Y-62097954D01*
X57819758Y-62145573D01*
X57772139Y-62240811D01*
X57772139Y-62431287D01*
X57819758Y-62526525D01*
X57867377Y-62574144D01*
X57962615Y-62621763D01*
X58153092Y-62621763D01*
X58248330Y-62574144D01*
X58295949Y-62526525D01*
X58343568Y-62431287D01*
X58343568Y-62240811D01*
X58295949Y-62145573D01*
X58248330Y-62097954D01*
X58153092Y-62050335D01*
X81791187Y-45076525D02*
X81743568Y-45124144D01*
X81600711Y-45171763D01*
X81505473Y-45171763D01*
X81362615Y-45124144D01*
X81267377Y-45028906D01*
X81219758Y-44933668D01*
X81172139Y-44743192D01*
X81172139Y-44600335D01*
X81219758Y-44409859D01*
X81267377Y-44314621D01*
X81362615Y-44219383D01*
X81505473Y-44171763D01*
X81600711Y-44171763D01*
X81743568Y-44219383D01*
X81791187Y-44267002D01*
X82124520Y-44171763D02*
X82791187Y-44171763D01*
X82362615Y-45171763D01*
X53591187Y-62526525D02*
X53543568Y-62574144D01*
X53400711Y-62621763D01*
X53305473Y-62621763D01*
X53162615Y-62574144D01*
X53067377Y-62478906D01*
X53019758Y-62383668D01*
X52972139Y-62193192D01*
X52972139Y-62050335D01*
X53019758Y-61859859D01*
X53067377Y-61764621D01*
X53162615Y-61669383D01*
X53305473Y-61621763D01*
X53400711Y-61621763D01*
X53543568Y-61669383D01*
X53591187Y-61717002D01*
X54448330Y-61621763D02*
X54257854Y-61621763D01*
X54162615Y-61669383D01*
X54114996Y-61717002D01*
X54019758Y-61859859D01*
X53972139Y-62050335D01*
X53972139Y-62431287D01*
X54019758Y-62526525D01*
X54067377Y-62574144D01*
X54162615Y-62621763D01*
X54353092Y-62621763D01*
X54448330Y-62574144D01*
X54495949Y-62526525D01*
X54543568Y-62431287D01*
X54543568Y-62193192D01*
X54495949Y-62097954D01*
X54448330Y-62050335D01*
X54353092Y-62002716D01*
X54162615Y-62002716D01*
X54067377Y-62050335D01*
X54019758Y-62097954D01*
X53972139Y-62193192D01*
X64691187Y-35026525D02*
X64643568Y-35074144D01*
X64500711Y-35121763D01*
X64405473Y-35121763D01*
X64262615Y-35074144D01*
X64167377Y-34978906D01*
X64119758Y-34883668D01*
X64072139Y-34693192D01*
X64072139Y-34550335D01*
X64119758Y-34359859D01*
X64167377Y-34264621D01*
X64262615Y-34169383D01*
X64405473Y-34121763D01*
X64500711Y-34121763D01*
X64643568Y-34169383D01*
X64691187Y-34217002D01*
X65595949Y-34121763D02*
X65119758Y-34121763D01*
X65072139Y-34597954D01*
X65119758Y-34550335D01*
X65214996Y-34502716D01*
X65453092Y-34502716D01*
X65548330Y-34550335D01*
X65595949Y-34597954D01*
X65643568Y-34693192D01*
X65643568Y-34931287D01*
X65595949Y-35026525D01*
X65548330Y-35074144D01*
X65453092Y-35121763D01*
X65214996Y-35121763D01*
X65119758Y-35074144D01*
X65072139Y-35026525D01*
X140741187Y-66576525D02*
X140693568Y-66624144D01*
X140550711Y-66671763D01*
X140455473Y-66671763D01*
X140312615Y-66624144D01*
X140217377Y-66528906D01*
X140169758Y-66433668D01*
X140122139Y-66243192D01*
X140122139Y-66100335D01*
X140169758Y-65909859D01*
X140217377Y-65814621D01*
X140312615Y-65719383D01*
X140455473Y-65671763D01*
X140550711Y-65671763D01*
X140693568Y-65719383D01*
X140741187Y-65767002D01*
X141598330Y-66005097D02*
X141598330Y-66671763D01*
X141360234Y-65624144D02*
X141122139Y-66338430D01*
X141741187Y-66338430D01*
X86530667Y-58434845D02*
X86483048Y-58482464D01*
X86340191Y-58530083D01*
X86244953Y-58530083D01*
X86102095Y-58482464D01*
X86006857Y-58387226D01*
X85959238Y-58291988D01*
X85911619Y-58101512D01*
X85911619Y-57958655D01*
X85959238Y-57768179D01*
X86006857Y-57672941D01*
X86102095Y-57577703D01*
X86244953Y-57530083D01*
X86340191Y-57530083D01*
X86483048Y-57577703D01*
X86530667Y-57625322D01*
X86864000Y-57530083D02*
X87483048Y-57530083D01*
X87149714Y-57911036D01*
X87292572Y-57911036D01*
X87387810Y-57958655D01*
X87435429Y-58006274D01*
X87483048Y-58101512D01*
X87483048Y-58339607D01*
X87435429Y-58434845D01*
X87387810Y-58482464D01*
X87292572Y-58530083D01*
X87006857Y-58530083D01*
X86911619Y-58482464D01*
X86864000Y-58434845D01*
X41141187Y-56776525D02*
X41093568Y-56824144D01*
X40950711Y-56871763D01*
X40855473Y-56871763D01*
X40712615Y-56824144D01*
X40617377Y-56728906D01*
X40569758Y-56633668D01*
X40522139Y-56443192D01*
X40522139Y-56300335D01*
X40569758Y-56109859D01*
X40617377Y-56014621D01*
X40712615Y-55919383D01*
X40855473Y-55871763D01*
X40950711Y-55871763D01*
X41093568Y-55919383D01*
X41141187Y-55967002D01*
X41522139Y-55967002D02*
X41569758Y-55919383D01*
X41664996Y-55871763D01*
X41903092Y-55871763D01*
X41998330Y-55919383D01*
X42045949Y-55967002D01*
X42093568Y-56062240D01*
X42093568Y-56157478D01*
X42045949Y-56300335D01*
X41474520Y-56871763D01*
X42093568Y-56871763D01*
X160841187Y-61176525D02*
X160793568Y-61224144D01*
X160650711Y-61271763D01*
X160555473Y-61271763D01*
X160412615Y-61224144D01*
X160317377Y-61128906D01*
X160269758Y-61033668D01*
X160222139Y-60843192D01*
X160222139Y-60700335D01*
X160269758Y-60509859D01*
X160317377Y-60414621D01*
X160412615Y-60319383D01*
X160555473Y-60271763D01*
X160650711Y-60271763D01*
X160793568Y-60319383D01*
X160841187Y-60367002D01*
X161793568Y-61271763D02*
X161222139Y-61271763D01*
X161507854Y-61271763D02*
X161507854Y-60271763D01*
X161412615Y-60414621D01*
X161317377Y-60509859D01*
X161222139Y-60557478D01*
X116333949Y-33281763D02*
X116333949Y-34091287D01*
X116381568Y-34186525D01*
X116429187Y-34234144D01*
X116524425Y-34281763D01*
X116714901Y-34281763D01*
X116810139Y-34234144D01*
X116857758Y-34186525D01*
X116905377Y-34091287D01*
X116905377Y-33281763D01*
X117286330Y-33281763D02*
X117952996Y-33281763D01*
X117524425Y-34281763D01*
X30295949Y-33321763D02*
X30867377Y-33321763D01*
X30581663Y-34321763D02*
X30581663Y-33321763D01*
X31200711Y-34321763D02*
X31200711Y-33321763D01*
X31581663Y-33321763D01*
X31676901Y-33369383D01*
X31724520Y-33417002D01*
X31772139Y-33512240D01*
X31772139Y-33655097D01*
X31724520Y-33750335D01*
X31676901Y-33797954D01*
X31581663Y-33845573D01*
X31200711Y-33845573D01*
X32105473Y-33321763D02*
X32724520Y-33321763D01*
X32391187Y-33702716D01*
X32534044Y-33702716D01*
X32629282Y-33750335D01*
X32676901Y-33797954D01*
X32724520Y-33893192D01*
X32724520Y-34131287D01*
X32676901Y-34226525D01*
X32629282Y-34274144D01*
X32534044Y-34321763D01*
X32248330Y-34321763D01*
X32153092Y-34274144D01*
X32105473Y-34226525D01*
X30295949Y-123321763D02*
X30867377Y-123321763D01*
X30581663Y-124321763D02*
X30581663Y-123321763D01*
X31200711Y-124321763D02*
X31200711Y-123321763D01*
X31581663Y-123321763D01*
X31676901Y-123369383D01*
X31724520Y-123417002D01*
X31772139Y-123512240D01*
X31772139Y-123655097D01*
X31724520Y-123750335D01*
X31676901Y-123797954D01*
X31581663Y-123845573D01*
X31200711Y-123845573D01*
X32153092Y-123417002D02*
X32200711Y-123369383D01*
X32295949Y-123321763D01*
X32534044Y-123321763D01*
X32629282Y-123369383D01*
X32676901Y-123417002D01*
X32724520Y-123512240D01*
X32724520Y-123607478D01*
X32676901Y-123750335D01*
X32105473Y-124321763D01*
X32724520Y-124321763D01*
M02*
