G04 #@! TF.GenerationSoftware,KiCad,Pcbnew,(5.1.5-0-10_14)*
G04 #@! TF.CreationDate,2020-05-11T17:30:39+02:00*
G04 #@! TF.ProjectId,Main_Board_v1_1_smd,4d61696e-5f42-46f6-9172-645f76315f31,rev?*
G04 #@! TF.SameCoordinates,Original*
G04 #@! TF.FileFunction,Legend,Bot*
G04 #@! TF.FilePolarity,Positive*
%FSLAX46Y46*%
G04 Gerber Fmt 4.6, Leading zero omitted, Abs format (unit mm)*
G04 Created by KiCad (PCBNEW (5.1.5-0-10_14)) date 2020-05-11 17:30:39*
%MOMM*%
%LPD*%
G04 APERTURE LIST*
%ADD10C,0.120000*%
%ADD11C,0.100000*%
%ADD12C,0.150000*%
G04 APERTURE END LIST*
D10*
X73157854Y-127969383D02*
X68657854Y-127969383D01*
X74407854Y-123969383D02*
X74407854Y-125469383D01*
X68657854Y-121469383D02*
X73157854Y-121469383D01*
X67407854Y-125469383D02*
X67407854Y-123969383D01*
X30707854Y-84669383D02*
X30707854Y-83169383D01*
X31957854Y-80669383D02*
X36457854Y-80669383D01*
X37707854Y-83169383D02*
X37707854Y-84669383D01*
X36457854Y-87169383D02*
X31957854Y-87169383D01*
X98307854Y-125469383D02*
X98307854Y-123969383D01*
X99557854Y-121469383D02*
X104057854Y-121469383D01*
X105307854Y-123969383D02*
X105307854Y-125469383D01*
X104057854Y-127969383D02*
X99557854Y-127969383D01*
X30707854Y-73069383D02*
X30707854Y-71569383D01*
X31957854Y-69069383D02*
X36457854Y-69069383D01*
X37707854Y-71569383D02*
X37707854Y-73069383D01*
X36457854Y-75569383D02*
X31957854Y-75569383D01*
X51807854Y-125469383D02*
X51807854Y-123969383D01*
X53057854Y-121469383D02*
X57557854Y-121469383D01*
X58807854Y-123969383D02*
X58807854Y-125469383D01*
X57557854Y-127969383D02*
X53057854Y-127969383D01*
X30907854Y-108269383D02*
X30907854Y-106769383D01*
X32157854Y-104269383D02*
X36657854Y-104269383D01*
X37907854Y-106769383D02*
X37907854Y-108269383D01*
X36657854Y-110769383D02*
X32157854Y-110769383D01*
X30807854Y-96469383D02*
X30807854Y-94969383D01*
X32057854Y-92469383D02*
X36557854Y-92469383D01*
X37807854Y-94969383D02*
X37807854Y-96469383D01*
X36557854Y-98969383D02*
X32057854Y-98969383D01*
X82807854Y-125469383D02*
X82807854Y-123969383D01*
X84057854Y-121469383D02*
X88557854Y-121469383D01*
X89807854Y-123969383D02*
X89807854Y-125469383D01*
X88557854Y-127969383D02*
X84057854Y-127969383D01*
X113807854Y-125469383D02*
X113807854Y-123969383D01*
X115057854Y-121469383D02*
X119557854Y-121469383D01*
X120807854Y-123969383D02*
X120807854Y-125469383D01*
X119557854Y-127969383D02*
X115057854Y-127969383D01*
X37907854Y-118469383D02*
X37907854Y-119969383D01*
X36657854Y-122469383D02*
X32157854Y-122469383D01*
X30907854Y-119969383D02*
X30907854Y-118469383D01*
X32157854Y-115969383D02*
X36657854Y-115969383D01*
X32667854Y-64989383D02*
X32667854Y-64833383D01*
X32667854Y-67305383D02*
X32667854Y-67149383D01*
X35268984Y-64989546D02*
G75*
G03X33186893Y-64989383I-1041130J-1079837D01*
G01*
X35268984Y-67149220D02*
G75*
G02X33186893Y-67149383I-1041130J1079837D01*
G01*
X35900189Y-64990775D02*
G75*
G03X32667854Y-64833867I-1672335J-1078608D01*
G01*
X35900189Y-67147991D02*
G75*
G02X32667854Y-67304899I-1672335J1078608D01*
G01*
X145080454Y-60207143D02*
X145080454Y-61707143D01*
X143830454Y-64207143D02*
X139330454Y-64207143D01*
X138080454Y-61707143D02*
X138080454Y-60207143D01*
X139330454Y-57707143D02*
X143830454Y-57707143D01*
X145327854Y-41379383D02*
X145327854Y-42879383D01*
X144077854Y-45379383D02*
X139577854Y-45379383D01*
X138327854Y-42879383D02*
X138327854Y-41379383D01*
X139577854Y-38879383D02*
X144077854Y-38879383D01*
X143380414Y-37017703D02*
X143380414Y-37173703D01*
X143380414Y-34701703D02*
X143380414Y-34857703D01*
X140779284Y-37017540D02*
G75*
G03X142861375Y-37017703I1041130J1079837D01*
G01*
X140779284Y-34857866D02*
G75*
G02X142861375Y-34857703I1041130J-1079837D01*
G01*
X140148079Y-37016311D02*
G75*
G03X143380414Y-37173219I1672335J1078608D01*
G01*
X140148079Y-34859095D02*
G75*
G02X143380414Y-34702187I1672335J-1078608D01*
G01*
D11*
G36*
X117397854Y-104607383D02*
G01*
X117797854Y-104607383D01*
X117797854Y-94307383D01*
X117397854Y-94307383D01*
X117397854Y-104607383D01*
G37*
X117397854Y-104607383D02*
X117797854Y-104607383D01*
X117797854Y-94307383D01*
X117397854Y-94307383D01*
X117397854Y-104607383D01*
G36*
X117497854Y-104507383D02*
G01*
X117697854Y-104507383D01*
X117697854Y-94307383D01*
X117497854Y-94307383D01*
X117497854Y-104507383D01*
G37*
X117497854Y-104507383D02*
X117697854Y-104507383D01*
X117697854Y-94307383D01*
X117497854Y-94307383D01*
X117497854Y-104507383D01*
D10*
X120127854Y-94277383D02*
X118797854Y-94277383D01*
X120127854Y-95607383D02*
X120127854Y-94277383D01*
X120127854Y-96877383D02*
X117467854Y-96877383D01*
X117467854Y-96877383D02*
X117467854Y-104557383D01*
X120127854Y-96877383D02*
X120127854Y-104557383D01*
X120127854Y-104557383D02*
X117467854Y-104557383D01*
D11*
G36*
X126600000Y-52000000D02*
G01*
X127000000Y-52000000D01*
X127000000Y-41700000D01*
X126600000Y-41700000D01*
X126600000Y-52000000D01*
G37*
X126600000Y-52000000D02*
X127000000Y-52000000D01*
X127000000Y-41700000D01*
X126600000Y-41700000D01*
X126600000Y-52000000D01*
G36*
X126700000Y-51900000D02*
G01*
X126900000Y-51900000D01*
X126900000Y-41700000D01*
X126700000Y-41700000D01*
X126700000Y-51900000D01*
G37*
X126700000Y-51900000D02*
X126900000Y-51900000D01*
X126900000Y-41700000D01*
X126700000Y-41700000D01*
X126700000Y-51900000D01*
D10*
X129330000Y-41670000D02*
X128000000Y-41670000D01*
X129330000Y-43000000D02*
X129330000Y-41670000D01*
X129330000Y-44270000D02*
X126670000Y-44270000D01*
X126670000Y-44270000D02*
X126670000Y-51950000D01*
X129330000Y-44270000D02*
X129330000Y-51950000D01*
X129330000Y-51950000D02*
X126670000Y-51950000D01*
D12*
X72241187Y-120874144D02*
X72098330Y-120921763D01*
X71860234Y-120921763D01*
X71764996Y-120874144D01*
X71717377Y-120826525D01*
X71669758Y-120731287D01*
X71669758Y-120636049D01*
X71717377Y-120540811D01*
X71764996Y-120493192D01*
X71860234Y-120445573D01*
X72050711Y-120397954D01*
X72145949Y-120350335D01*
X72193568Y-120302716D01*
X72241187Y-120207478D01*
X72241187Y-120112240D01*
X72193568Y-120017002D01*
X72145949Y-119969383D01*
X72050711Y-119921763D01*
X71812615Y-119921763D01*
X71669758Y-119969383D01*
X71336425Y-119921763D02*
X71098330Y-120921763D01*
X70907854Y-120207478D01*
X70717377Y-120921763D01*
X70479282Y-119921763D01*
X69669758Y-120255097D02*
X69669758Y-120921763D01*
X69907854Y-119874144D02*
X70145949Y-120588430D01*
X69526901Y-120588430D01*
X36017377Y-80074144D02*
X35874520Y-80121763D01*
X35636425Y-80121763D01*
X35541187Y-80074144D01*
X35493568Y-80026525D01*
X35445949Y-79931287D01*
X35445949Y-79836049D01*
X35493568Y-79740811D01*
X35541187Y-79693192D01*
X35636425Y-79645573D01*
X35826901Y-79597954D01*
X35922139Y-79550335D01*
X35969758Y-79502716D01*
X36017377Y-79407478D01*
X36017377Y-79312240D01*
X35969758Y-79217002D01*
X35922139Y-79169383D01*
X35826901Y-79121763D01*
X35588806Y-79121763D01*
X35445949Y-79169383D01*
X35112615Y-79121763D02*
X34874520Y-80121763D01*
X34684044Y-79407478D01*
X34493568Y-80121763D01*
X34255473Y-79121763D01*
X33350711Y-80121763D02*
X33922139Y-80121763D01*
X33636425Y-80121763D02*
X33636425Y-79121763D01*
X33731663Y-79264621D01*
X33826901Y-79359859D01*
X33922139Y-79407478D01*
X32969758Y-79217002D02*
X32922139Y-79169383D01*
X32826901Y-79121763D01*
X32588806Y-79121763D01*
X32493568Y-79169383D01*
X32445949Y-79217002D01*
X32398330Y-79312240D01*
X32398330Y-79407478D01*
X32445949Y-79550335D01*
X33017377Y-80121763D01*
X32398330Y-80121763D01*
X103617377Y-120874144D02*
X103474520Y-120921763D01*
X103236425Y-120921763D01*
X103141187Y-120874144D01*
X103093568Y-120826525D01*
X103045949Y-120731287D01*
X103045949Y-120636049D01*
X103093568Y-120540811D01*
X103141187Y-120493192D01*
X103236425Y-120445573D01*
X103426901Y-120397954D01*
X103522139Y-120350335D01*
X103569758Y-120302716D01*
X103617377Y-120207478D01*
X103617377Y-120112240D01*
X103569758Y-120017002D01*
X103522139Y-119969383D01*
X103426901Y-119921763D01*
X103188806Y-119921763D01*
X103045949Y-119969383D01*
X102712615Y-119921763D02*
X102474520Y-120921763D01*
X102284044Y-120207478D01*
X102093568Y-120921763D01*
X101855473Y-119921763D01*
X100950711Y-120921763D02*
X101522139Y-120921763D01*
X101236425Y-120921763D02*
X101236425Y-119921763D01*
X101331663Y-120064621D01*
X101426901Y-120159859D01*
X101522139Y-120207478D01*
X99998330Y-120921763D02*
X100569758Y-120921763D01*
X100284044Y-120921763D02*
X100284044Y-119921763D01*
X100379282Y-120064621D01*
X100474520Y-120159859D01*
X100569758Y-120207478D01*
X36017377Y-68474144D02*
X35874520Y-68521763D01*
X35636425Y-68521763D01*
X35541187Y-68474144D01*
X35493568Y-68426525D01*
X35445949Y-68331287D01*
X35445949Y-68236049D01*
X35493568Y-68140811D01*
X35541187Y-68093192D01*
X35636425Y-68045573D01*
X35826901Y-67997954D01*
X35922139Y-67950335D01*
X35969758Y-67902716D01*
X36017377Y-67807478D01*
X36017377Y-67712240D01*
X35969758Y-67617002D01*
X35922139Y-67569383D01*
X35826901Y-67521763D01*
X35588806Y-67521763D01*
X35445949Y-67569383D01*
X35112615Y-67521763D02*
X34874520Y-68521763D01*
X34684044Y-67807478D01*
X34493568Y-68521763D01*
X34255473Y-67521763D01*
X33350711Y-68521763D02*
X33922139Y-68521763D01*
X33636425Y-68521763D02*
X33636425Y-67521763D01*
X33731663Y-67664621D01*
X33826901Y-67759859D01*
X33922139Y-67807478D01*
X32731663Y-67521763D02*
X32636425Y-67521763D01*
X32541187Y-67569383D01*
X32493568Y-67617002D01*
X32445949Y-67712240D01*
X32398330Y-67902716D01*
X32398330Y-68140811D01*
X32445949Y-68331287D01*
X32493568Y-68426525D01*
X32541187Y-68474144D01*
X32636425Y-68521763D01*
X32731663Y-68521763D01*
X32826901Y-68474144D01*
X32874520Y-68426525D01*
X32922139Y-68331287D01*
X32969758Y-68140811D01*
X32969758Y-67902716D01*
X32922139Y-67712240D01*
X32874520Y-67617002D01*
X32826901Y-67569383D01*
X32731663Y-67521763D01*
X56641187Y-120874144D02*
X56498330Y-120921763D01*
X56260234Y-120921763D01*
X56164996Y-120874144D01*
X56117377Y-120826525D01*
X56069758Y-120731287D01*
X56069758Y-120636049D01*
X56117377Y-120540811D01*
X56164996Y-120493192D01*
X56260234Y-120445573D01*
X56450711Y-120397954D01*
X56545949Y-120350335D01*
X56593568Y-120302716D01*
X56641187Y-120207478D01*
X56641187Y-120112240D01*
X56593568Y-120017002D01*
X56545949Y-119969383D01*
X56450711Y-119921763D01*
X56212615Y-119921763D01*
X56069758Y-119969383D01*
X55736425Y-119921763D02*
X55498330Y-120921763D01*
X55307854Y-120207478D01*
X55117377Y-120921763D01*
X54879282Y-119921763D01*
X54450711Y-120921763D02*
X54260234Y-120921763D01*
X54164996Y-120874144D01*
X54117377Y-120826525D01*
X54022139Y-120683668D01*
X53974520Y-120493192D01*
X53974520Y-120112240D01*
X54022139Y-120017002D01*
X54069758Y-119969383D01*
X54164996Y-119921763D01*
X54355473Y-119921763D01*
X54450711Y-119969383D01*
X54498330Y-120017002D01*
X54545949Y-120112240D01*
X54545949Y-120350335D01*
X54498330Y-120445573D01*
X54450711Y-120493192D01*
X54355473Y-120540811D01*
X54164996Y-120540811D01*
X54069758Y-120493192D01*
X54022139Y-120445573D01*
X53974520Y-120350335D01*
X35741187Y-103674144D02*
X35598330Y-103721763D01*
X35360234Y-103721763D01*
X35264996Y-103674144D01*
X35217377Y-103626525D01*
X35169758Y-103531287D01*
X35169758Y-103436049D01*
X35217377Y-103340811D01*
X35264996Y-103293192D01*
X35360234Y-103245573D01*
X35550711Y-103197954D01*
X35645949Y-103150335D01*
X35693568Y-103102716D01*
X35741187Y-103007478D01*
X35741187Y-102912240D01*
X35693568Y-102817002D01*
X35645949Y-102769383D01*
X35550711Y-102721763D01*
X35312615Y-102721763D01*
X35169758Y-102769383D01*
X34836425Y-102721763D02*
X34598330Y-103721763D01*
X34407854Y-103007478D01*
X34217377Y-103721763D01*
X33979282Y-102721763D01*
X33455473Y-103150335D02*
X33550711Y-103102716D01*
X33598330Y-103055097D01*
X33645949Y-102959859D01*
X33645949Y-102912240D01*
X33598330Y-102817002D01*
X33550711Y-102769383D01*
X33455473Y-102721763D01*
X33264996Y-102721763D01*
X33169758Y-102769383D01*
X33122139Y-102817002D01*
X33074520Y-102912240D01*
X33074520Y-102959859D01*
X33122139Y-103055097D01*
X33169758Y-103102716D01*
X33264996Y-103150335D01*
X33455473Y-103150335D01*
X33550711Y-103197954D01*
X33598330Y-103245573D01*
X33645949Y-103340811D01*
X33645949Y-103531287D01*
X33598330Y-103626525D01*
X33550711Y-103674144D01*
X33455473Y-103721763D01*
X33264996Y-103721763D01*
X33169758Y-103674144D01*
X33122139Y-103626525D01*
X33074520Y-103531287D01*
X33074520Y-103340811D01*
X33122139Y-103245573D01*
X33169758Y-103197954D01*
X33264996Y-103150335D01*
X35641187Y-91874144D02*
X35498330Y-91921763D01*
X35260234Y-91921763D01*
X35164996Y-91874144D01*
X35117377Y-91826525D01*
X35069758Y-91731287D01*
X35069758Y-91636049D01*
X35117377Y-91540811D01*
X35164996Y-91493192D01*
X35260234Y-91445573D01*
X35450711Y-91397954D01*
X35545949Y-91350335D01*
X35593568Y-91302716D01*
X35641187Y-91207478D01*
X35641187Y-91112240D01*
X35593568Y-91017002D01*
X35545949Y-90969383D01*
X35450711Y-90921763D01*
X35212615Y-90921763D01*
X35069758Y-90969383D01*
X34736425Y-90921763D02*
X34498330Y-91921763D01*
X34307854Y-91207478D01*
X34117377Y-91921763D01*
X33879282Y-90921763D01*
X33593568Y-90921763D02*
X32926901Y-90921763D01*
X33355473Y-91921763D01*
X87641187Y-120874144D02*
X87498330Y-120921763D01*
X87260234Y-120921763D01*
X87164996Y-120874144D01*
X87117377Y-120826525D01*
X87069758Y-120731287D01*
X87069758Y-120636049D01*
X87117377Y-120540811D01*
X87164996Y-120493192D01*
X87260234Y-120445573D01*
X87450711Y-120397954D01*
X87545949Y-120350335D01*
X87593568Y-120302716D01*
X87641187Y-120207478D01*
X87641187Y-120112240D01*
X87593568Y-120017002D01*
X87545949Y-119969383D01*
X87450711Y-119921763D01*
X87212615Y-119921763D01*
X87069758Y-119969383D01*
X86736425Y-119921763D02*
X86498330Y-120921763D01*
X86307854Y-120207478D01*
X86117377Y-120921763D01*
X85879282Y-119921763D01*
X85069758Y-119921763D02*
X85260234Y-119921763D01*
X85355473Y-119969383D01*
X85403092Y-120017002D01*
X85498330Y-120159859D01*
X85545949Y-120350335D01*
X85545949Y-120731287D01*
X85498330Y-120826525D01*
X85450711Y-120874144D01*
X85355473Y-120921763D01*
X85164996Y-120921763D01*
X85069758Y-120874144D01*
X85022139Y-120826525D01*
X84974520Y-120731287D01*
X84974520Y-120493192D01*
X85022139Y-120397954D01*
X85069758Y-120350335D01*
X85164996Y-120302716D01*
X85355473Y-120302716D01*
X85450711Y-120350335D01*
X85498330Y-120397954D01*
X85545949Y-120493192D01*
X118641187Y-120874144D02*
X118498330Y-120921763D01*
X118260234Y-120921763D01*
X118164996Y-120874144D01*
X118117377Y-120826525D01*
X118069758Y-120731287D01*
X118069758Y-120636049D01*
X118117377Y-120540811D01*
X118164996Y-120493192D01*
X118260234Y-120445573D01*
X118450711Y-120397954D01*
X118545949Y-120350335D01*
X118593568Y-120302716D01*
X118641187Y-120207478D01*
X118641187Y-120112240D01*
X118593568Y-120017002D01*
X118545949Y-119969383D01*
X118450711Y-119921763D01*
X118212615Y-119921763D01*
X118069758Y-119969383D01*
X117736425Y-119921763D02*
X117498330Y-120921763D01*
X117307854Y-120207478D01*
X117117377Y-120921763D01*
X116879282Y-119921763D01*
X116022139Y-119921763D02*
X116498330Y-119921763D01*
X116545949Y-120397954D01*
X116498330Y-120350335D01*
X116403092Y-120302716D01*
X116164996Y-120302716D01*
X116069758Y-120350335D01*
X116022139Y-120397954D01*
X115974520Y-120493192D01*
X115974520Y-120731287D01*
X116022139Y-120826525D01*
X116069758Y-120874144D01*
X116164996Y-120921763D01*
X116403092Y-120921763D01*
X116498330Y-120874144D01*
X116545949Y-120826525D01*
X35741187Y-123874144D02*
X35598330Y-123921763D01*
X35360234Y-123921763D01*
X35264996Y-123874144D01*
X35217377Y-123826525D01*
X35169758Y-123731287D01*
X35169758Y-123636049D01*
X35217377Y-123540811D01*
X35264996Y-123493192D01*
X35360234Y-123445573D01*
X35550711Y-123397954D01*
X35645949Y-123350335D01*
X35693568Y-123302716D01*
X35741187Y-123207478D01*
X35741187Y-123112240D01*
X35693568Y-123017002D01*
X35645949Y-122969383D01*
X35550711Y-122921763D01*
X35312615Y-122921763D01*
X35169758Y-122969383D01*
X34836425Y-122921763D02*
X34598330Y-123921763D01*
X34407854Y-123207478D01*
X34217377Y-123921763D01*
X33979282Y-122921763D01*
X33693568Y-122921763D02*
X33074520Y-122921763D01*
X33407854Y-123302716D01*
X33264996Y-123302716D01*
X33169758Y-123350335D01*
X33122139Y-123397954D01*
X33074520Y-123493192D01*
X33074520Y-123731287D01*
X33122139Y-123826525D01*
X33169758Y-123874144D01*
X33264996Y-123921763D01*
X33550711Y-123921763D01*
X33645949Y-123874144D01*
X33693568Y-123826525D01*
X34965949Y-69481763D02*
X34965949Y-68481763D01*
X34727854Y-68481763D01*
X34584996Y-68529383D01*
X34489758Y-68624621D01*
X34442139Y-68719859D01*
X34394520Y-68910335D01*
X34394520Y-69053192D01*
X34442139Y-69243668D01*
X34489758Y-69338906D01*
X34584996Y-69434144D01*
X34727854Y-69481763D01*
X34965949Y-69481763D01*
X33537377Y-68481763D02*
X33727854Y-68481763D01*
X33823092Y-68529383D01*
X33870711Y-68577002D01*
X33965949Y-68719859D01*
X34013568Y-68910335D01*
X34013568Y-69291287D01*
X33965949Y-69386525D01*
X33918330Y-69434144D01*
X33823092Y-69481763D01*
X33632615Y-69481763D01*
X33537377Y-69434144D01*
X33489758Y-69386525D01*
X33442139Y-69291287D01*
X33442139Y-69053192D01*
X33489758Y-68957954D01*
X33537377Y-68910335D01*
X33632615Y-68862716D01*
X33823092Y-68862716D01*
X33918330Y-68910335D01*
X33965949Y-68957954D01*
X34013568Y-69053192D01*
X142913787Y-65611904D02*
X142770930Y-65659523D01*
X142532834Y-65659523D01*
X142437596Y-65611904D01*
X142389977Y-65564285D01*
X142342358Y-65469047D01*
X142342358Y-65373809D01*
X142389977Y-65278571D01*
X142437596Y-65230952D01*
X142532834Y-65183333D01*
X142723311Y-65135714D01*
X142818549Y-65088095D01*
X142866168Y-65040476D01*
X142913787Y-64945238D01*
X142913787Y-64850000D01*
X142866168Y-64754762D01*
X142818549Y-64707143D01*
X142723311Y-64659523D01*
X142485215Y-64659523D01*
X142342358Y-64707143D01*
X142009025Y-64659523D02*
X141770930Y-65659523D01*
X141580454Y-64945238D01*
X141389977Y-65659523D01*
X141151882Y-64659523D01*
X140818549Y-64754762D02*
X140770930Y-64707143D01*
X140675692Y-64659523D01*
X140437596Y-64659523D01*
X140342358Y-64707143D01*
X140294739Y-64754762D01*
X140247120Y-64850000D01*
X140247120Y-64945238D01*
X140294739Y-65088095D01*
X140866168Y-65659523D01*
X140247120Y-65659523D01*
X143161187Y-46784144D02*
X143018330Y-46831763D01*
X142780234Y-46831763D01*
X142684996Y-46784144D01*
X142637377Y-46736525D01*
X142589758Y-46641287D01*
X142589758Y-46546049D01*
X142637377Y-46450811D01*
X142684996Y-46403192D01*
X142780234Y-46355573D01*
X142970711Y-46307954D01*
X143065949Y-46260335D01*
X143113568Y-46212716D01*
X143161187Y-46117478D01*
X143161187Y-46022240D01*
X143113568Y-45927002D01*
X143065949Y-45879383D01*
X142970711Y-45831763D01*
X142732615Y-45831763D01*
X142589758Y-45879383D01*
X142256425Y-45831763D02*
X142018330Y-46831763D01*
X141827854Y-46117478D01*
X141637377Y-46831763D01*
X141399282Y-45831763D01*
X140494520Y-46831763D02*
X141065949Y-46831763D01*
X140780234Y-46831763D02*
X140780234Y-45831763D01*
X140875473Y-45974621D01*
X140970711Y-46069859D01*
X141065949Y-46117478D01*
X142558509Y-33430083D02*
X142558509Y-32430083D01*
X142320414Y-32430083D01*
X142177556Y-32477703D01*
X142082318Y-32572941D01*
X142034699Y-32668179D01*
X141987080Y-32858655D01*
X141987080Y-33001512D01*
X142034699Y-33191988D01*
X142082318Y-33287226D01*
X142177556Y-33382464D01*
X142320414Y-33430083D01*
X142558509Y-33430083D01*
X141082318Y-32430083D02*
X141558509Y-32430083D01*
X141606128Y-32906274D01*
X141558509Y-32858655D01*
X141463271Y-32811036D01*
X141225175Y-32811036D01*
X141129937Y-32858655D01*
X141082318Y-32906274D01*
X141034699Y-33001512D01*
X141034699Y-33239607D01*
X141082318Y-33334845D01*
X141129937Y-33382464D01*
X141225175Y-33430083D01*
X141463271Y-33430083D01*
X141558509Y-33382464D01*
X141606128Y-33334845D01*
X119607377Y-92729763D02*
X119607377Y-93444049D01*
X119654996Y-93586906D01*
X119750234Y-93682144D01*
X119893092Y-93729763D01*
X119988330Y-93729763D01*
X118607377Y-93729763D02*
X119178806Y-93729763D01*
X118893092Y-93729763D02*
X118893092Y-92729763D01*
X118988330Y-92872621D01*
X119083568Y-92967859D01*
X119178806Y-93015478D01*
X118226425Y-92825002D02*
X118178806Y-92777383D01*
X118083568Y-92729763D01*
X117845473Y-92729763D01*
X117750234Y-92777383D01*
X117702615Y-92825002D01*
X117654996Y-92920240D01*
X117654996Y-93015478D01*
X117702615Y-93158335D01*
X118274044Y-93729763D01*
X117654996Y-93729763D01*
X128333333Y-40122380D02*
X128333333Y-40836666D01*
X128380952Y-40979523D01*
X128476190Y-41074761D01*
X128619047Y-41122380D01*
X128714285Y-41122380D01*
X127428571Y-40122380D02*
X127619047Y-40122380D01*
X127714285Y-40170000D01*
X127761904Y-40217619D01*
X127857142Y-40360476D01*
X127904761Y-40550952D01*
X127904761Y-40931904D01*
X127857142Y-41027142D01*
X127809523Y-41074761D01*
X127714285Y-41122380D01*
X127523809Y-41122380D01*
X127428571Y-41074761D01*
X127380952Y-41027142D01*
X127333333Y-40931904D01*
X127333333Y-40693809D01*
X127380952Y-40598571D01*
X127428571Y-40550952D01*
X127523809Y-40503333D01*
X127714285Y-40503333D01*
X127809523Y-40550952D01*
X127857142Y-40598571D01*
X127904761Y-40693809D01*
M02*
