M48
; DRILL file {KiCad (5.1.5-0-10_14)} date Monday, 11 May 2020 at 17:30:38
; FORMAT={-:-/ absolute / metric / decimal}
; #@! TF.CreationDate,2020-05-11T17:30:38+02:00
; #@! TF.GenerationSoftware,Kicad,Pcbnew,(5.1.5-0-10_14)
; #@! TF.FileFunction,Plated,1,2,PTH
FMAT,2
METRIC
T1C0.600
T2C0.800
T3C0.900
T4C1.000
T5C1.100
T6C2.500
%
G90
G05
T1
X33.008Y-79.419
X33.008Y-88.519
X33.008Y-99.869
X33.008Y-111.669
X33.308Y-123.619
X34.608Y-77.219
X35.008Y-89.969
X35.908Y-101.369
X40.758Y-119.419
X42.858Y-114.219
X46.958Y-105.069
X48.526Y-60.611
X48.547Y-55.105
X49.508Y-125.269
X51.958Y-59.369
X52.626Y-64.934
X54.958Y-68.169
X55.058Y-105.069
X59.358Y-90.069
X59.708Y-117.819
X60.647Y-64.787
X61.358Y-105.069
X62.708Y-116.819
X65.308Y-125.219
X69.558Y-105.069
X71.308Y-70.819
X73.997Y-66.728
X75.858Y-105.069
X76.512Y-51.381
X76.558Y-116.994
X77.609Y-63.954
X77.655Y-52.281
X77.658Y-55.769
X78.879Y-42.293
X79.008Y-80.119
X79.021Y-58.645
X79.158Y-86.519
X79.458Y-66.669
X81.108Y-125.269
X82.044Y-56.979
X84.058Y-105.069
X84.708Y-83.719
X86.626Y-50.146
X86.7Y-53.436
X86.774Y-52.138
X87.358Y-66.569
X87.758Y-116.669
X88.633Y-115.669
X89.008Y-62.169
X89.308Y-100.019
X90.258Y-82.669
X91.158Y-101.669
X91.208Y-93.219
X91.508Y-81.819
X91.708Y-62.619
X91.908Y-61.119
X92.058Y-57.369
X92.058Y-100.519
X92.379Y-52.991
X92.691Y-98.869
X92.958Y-102.419
X93.358Y-104.369
X93.458Y-60.369
X93.719Y-98.251
X94.108Y-59.069
X94.37Y-102.389
X94.458Y-61.119
X94.658Y-81.019
X95.008Y-98.019
X95.108Y-59.869
X95.433Y-117.419
X95.608Y-102.869
X95.758Y-55.269
X95.958Y-96.019
X96.158Y-80.569
X96.508Y-98.569
X96.658Y-125.169
X97.358Y-60.469
X97.558Y-96.219
X98.008Y-94.719
X99.192Y-95.012
X99.608Y-106.047
X100.308Y-94.319
X100.658Y-60.469
X100.808Y-105.469
X101.308Y-95.019
X101.358Y-65.469
X101.458Y-49.369
X101.532Y-64.132
X102.058Y-51.069
X102.471Y-107.597
X103.428Y-106.874
X103.558Y-53.519
X103.808Y-105.569
X103.958Y-56.919
X104.358Y-95.369
X104.432Y-98.73
X105.108Y-55.069
X105.508Y-103.769
X105.592Y-106.634
X105.608Y-66.344
X105.658Y-99.119
X105.844Y-58.676
X105.844Y-61.78
X106.158Y-105.119
X106.168Y-90.411
X106.458Y-88.519
X107.208Y-99.419
X107.358Y-66.619
X107.408Y-89.569
X107.408Y-102.319
X107.472Y-100.864
X107.508Y-106.219
X108.008Y-105.069
X108.108Y-109.369
X109.708Y-91.269
X109.808Y-109.269
X110.385Y-71.832
X110.408Y-59.569
X111.408Y-70.519
X111.408Y-88.969
X111.808Y-101.169
X112.308Y-125.269
X112.508Y-87.869
X112.649Y-62.979
X115.508Y-92.419
X116.258Y-113.069
X117.808Y-113.369
X118.308Y-49.819
X118.708Y-90.519
X119.108Y-78.469
X121.858Y-41.669
X123.408Y-104.919
X125.063Y-105.992
X125.208Y-49.819
X127.528Y-59.599
X130.406Y-62.394
X130.548Y-104.106
X130.708Y-105.769
X132.864Y-62.11
X134.078Y-48.125
X135.176Y-58.955
X136.908Y-115.969
X140.642Y-112.085
X142.75Y-47.408
X143.208Y-106.519
X147.158Y-89.519
X149.872Y-47.408
T2
X62.664Y-37.949
X64.664Y-37.949
X47.958Y-77.269
X47.958Y-79.269
T3
X140.55Y-35.938
X143.09Y-35.938
X32.958Y-66.069
X35.498Y-66.069
T4
X48.567Y-47.583
X52.067Y-52.783
X87.268Y-96.619
X89.808Y-96.619
X118.798Y-95.607
X118.798Y-98.147
X118.798Y-100.687
X118.798Y-103.227
X38.788Y-43.791
X38.788Y-46.331
X38.788Y-48.871
X38.788Y-51.411
X38.788Y-53.951
X38.788Y-56.491
X38.788Y-59.031
X38.788Y-61.571
X104.965Y-48.653
X107.505Y-48.653
X127.942Y-119.737
X130.482Y-119.737
X133.022Y-119.737
X135.562Y-119.737
X138.102Y-119.737
X140.642Y-119.737
X143.182Y-119.737
X145.722Y-119.737
X80.758Y-85.369
X83.298Y-85.369
X85.838Y-85.369
X88.378Y-85.369
X90.918Y-85.369
X93.458Y-85.369
X95.998Y-85.369
X98.538Y-85.369
X101.078Y-85.369
X103.618Y-85.369
X106.158Y-85.369
X108.698Y-85.369
X111.238Y-85.369
X113.778Y-85.369
X116.318Y-85.369
X118.858Y-85.369
X128.0Y-43.0
X128.0Y-45.54
X128.0Y-48.08
X128.0Y-50.62
X60.251Y-47.583
X63.751Y-52.783
X112.453Y-56.695
X114.993Y-56.695
X117.533Y-56.695
X74.729Y-47.855
X74.729Y-49.755
X79.758Y-36.369
X82.298Y-36.369
X84.838Y-36.369
X87.378Y-36.369
X89.918Y-36.369
X92.458Y-36.369
X94.998Y-36.369
X97.538Y-36.369
X100.078Y-36.369
X102.618Y-36.369
X105.158Y-36.369
X107.698Y-36.369
X110.238Y-36.369
X112.778Y-36.369
X115.318Y-36.369
X117.858Y-36.369
X54.158Y-84.669
X59.358Y-81.169
X51.058Y-94.219
X54.558Y-99.419
X79.91Y-94.219
X83.41Y-99.419
X65.484Y-94.219
X68.984Y-99.419
X90.308Y-90.269
X92.848Y-90.269
X96.958Y-90.269
X99.498Y-90.269
X102.038Y-90.269
T5
X138.578Y-39.879
X138.578Y-44.379
X145.078Y-39.879
X145.078Y-44.379
X114.058Y-122.469
X114.058Y-126.969
X120.558Y-122.469
X120.558Y-126.969
X30.958Y-70.069
X30.958Y-74.569
X37.458Y-70.069
X37.458Y-74.569
X98.558Y-122.469
X98.558Y-126.969
X105.058Y-122.469
X105.058Y-126.969
X138.33Y-58.707
X138.33Y-63.207
X144.83Y-58.707
X144.83Y-63.207
X31.158Y-116.969
X31.158Y-121.469
X37.658Y-116.969
X37.658Y-121.469
X30.958Y-81.669
X30.958Y-86.169
X37.458Y-81.669
X37.458Y-86.169
X83.058Y-122.469
X83.058Y-126.969
X89.558Y-122.469
X89.558Y-126.969
X31.158Y-105.269
X31.158Y-109.769
X37.658Y-105.269
X37.658Y-109.769
X31.058Y-93.469
X31.058Y-97.969
X37.558Y-93.469
X37.558Y-97.969
X67.658Y-122.469
X67.658Y-126.969
X74.158Y-122.469
X74.158Y-126.969
X52.058Y-122.469
X52.058Y-126.969
X58.558Y-122.469
X58.558Y-126.969
T6
X31.358Y-126.869
X31.358Y-36.869
X48.858Y-85.869
X48.858Y-116.869
X123.858Y-85.869
X123.858Y-116.869
X47.858Y-36.869
X47.858Y-67.869
X122.858Y-36.869
X122.858Y-67.869
X161.358Y-36.869
X161.358Y-126.869
T0
M30
