%FSLAX45Y45*%
G04 Gerber Fmt 4.5, Leading zero omitted, Abs format (unit mm)*
G04 Created by KiCad (PCBNEW (5.1.5-0-10_14)) date 2020-05-11 12:12:46*
%MOMM*%
%LPD*%
G04 APERTURE LIST*
%TA.AperFunction,Profile*%
%ADD10C,0.050000*%
%TD*%
%ADD11C,0.200000*%
%ADD12C,0.300000*%
G04 APERTURE END LIST*
D10*
X2735785Y-13086938D02*
X2735785Y-3286938D01*
X11835785Y-3286938D02*
X20735785Y-3286938D01*
X2735785Y-3286938D02*
X11835785Y-3286938D01*
X20735785Y-13086938D02*
X2735785Y-13086938D01*
X20735785Y-3286938D02*
X20735785Y-13086938D01*
D11*
D12*
X3019714Y-13555153D02*
X3019714Y-13255153D01*
X3091142Y-13255153D01*
X3133999Y-13269438D01*
X3162571Y-13298010D01*
X3176857Y-13326581D01*
X3191142Y-13383724D01*
X3191142Y-13426581D01*
X3176857Y-13483724D01*
X3162571Y-13512295D01*
X3133999Y-13540867D01*
X3091142Y-13555153D01*
X3019714Y-13555153D01*
X3319714Y-13555153D02*
X3319714Y-13355153D01*
X3319714Y-13412295D02*
X3333999Y-13383724D01*
X3348285Y-13369438D01*
X3376857Y-13355153D01*
X3405428Y-13355153D01*
X3505428Y-13555153D02*
X3505428Y-13355153D01*
X3505428Y-13255153D02*
X3491142Y-13269438D01*
X3505428Y-13283724D01*
X3519714Y-13269438D01*
X3505428Y-13255153D01*
X3505428Y-13283724D01*
X3691142Y-13555153D02*
X3662571Y-13540867D01*
X3648285Y-13512295D01*
X3648285Y-13255153D01*
X3848285Y-13555153D02*
X3819714Y-13540867D01*
X3805428Y-13512295D01*
X3805428Y-13255153D01*
X4191142Y-13555153D02*
X4191142Y-13255153D01*
X4291142Y-13469438D01*
X4391142Y-13255153D01*
X4391142Y-13555153D01*
X4662571Y-13555153D02*
X4662571Y-13398010D01*
X4648285Y-13369438D01*
X4619714Y-13355153D01*
X4562571Y-13355153D01*
X4534000Y-13369438D01*
X4662571Y-13540867D02*
X4634000Y-13555153D01*
X4562571Y-13555153D01*
X4534000Y-13540867D01*
X4519714Y-13512295D01*
X4519714Y-13483724D01*
X4534000Y-13455153D01*
X4562571Y-13440867D01*
X4634000Y-13440867D01*
X4662571Y-13426581D01*
X4805428Y-13355153D02*
X4805428Y-13655153D01*
X4805428Y-13369438D02*
X4834000Y-13355153D01*
X4891142Y-13355153D01*
X4919714Y-13369438D01*
X4934000Y-13383724D01*
X4948285Y-13412295D01*
X4948285Y-13498010D01*
X4934000Y-13526581D01*
X4919714Y-13540867D01*
X4891142Y-13555153D01*
X4834000Y-13555153D01*
X4805428Y-13540867D01*
X5076857Y-13526581D02*
X5091142Y-13540867D01*
X5076857Y-13555153D01*
X5062571Y-13540867D01*
X5076857Y-13526581D01*
X5076857Y-13555153D01*
X5076857Y-13369438D02*
X5091142Y-13383724D01*
X5076857Y-13398010D01*
X5062571Y-13383724D01*
X5076857Y-13369438D01*
X5076857Y-13398010D01*
M02*
