M48
; DRILL file {KiCad (5.1.5-0-10_14)} date Monday, 11 May 2020 at 12:26:45
; FORMAT={-:-/ absolute / metric / decimal}
; #@! TF.CreationDate,2020-05-11T12:26:46+02:00
; #@! TF.GenerationSoftware,Kicad,Pcbnew,(5.1.5-0-10_14)
; #@! TF.FileFunction,Plated,1,2,PTH
FMAT,2
METRIC
T1C0.600
T2C0.700
T3C0.800
T4C1.000
T5C1.100
T6C1.200
T7C2.500
%
G90
G05
T1
X35.156Y-54.561
X37.706Y-66.727
X45.9Y-77.573
X51.829Y-97.398
X52.478Y-54.904
X53.088Y-46.369
X53.858Y-114.022
X54.538Y-48.109
X54.538Y-55.643
X57.358Y-117.369
X57.546Y-57.863
X58.854Y-115.927
X60.492Y-62.27
X60.581Y-64.111
X63.172Y-98.773
X63.616Y-62.854
X65.331Y-96.115
X66.22Y-55.657
X67.426Y-49.151
X67.858Y-115.869
X69.496Y-50.929
X73.332Y-87.116
X80.698Y-100.052
X85.397Y-68.175
X85.778Y-105.513
X85.985Y-51.369
X86.159Y-95.353
X92.348Y-105.386
X94.858Y-51.369
X94.858Y-56.369
X95.684Y-102.084
X103.304Y-96.242
X108.13Y-95.869
X109.857Y-109.628
X109.858Y-103.869
X110.924Y-95.607
X112.702Y-94.083
X115.737Y-100.217
X115.75Y-92.305
X117.007Y-77.383
X118.858Y-58.369
X119.814Y-109.704
X119.858Y-37.869
X121.211Y-83.034
X121.846Y-70.844
X122.354Y-108.561
X124.386Y-80.875
X125.656Y-104.37
X126.38Y-64.886
X143.055Y-115.038
T2
X62.054Y-37.365
X62.054Y-39.905
X63.324Y-38.635
X71.033Y-80.19
X72.303Y-78.92
X73.573Y-80.19
T3
X114.358Y-104.209
X114.358Y-114.369
X79.858Y-117.709
X79.858Y-127.869
X191.708Y-113.309
X191.708Y-123.469
X43.598Y-57.869
X53.758Y-57.869
X113.358Y-39.869
X118.358Y-39.869
X45.9Y-42.013
X56.06Y-42.013
X70.858Y-84.869
X75.858Y-84.869
X90.858Y-81.637
X101.018Y-81.637
X45.392Y-61.825
X55.552Y-61.825
X55.598Y-92.869
X55.598Y-108.109
X58.138Y-92.869
X58.138Y-108.109
X60.678Y-92.869
X60.678Y-108.109
X63.218Y-92.869
X63.218Y-108.109
X65.758Y-92.869
X65.758Y-108.109
X68.298Y-92.869
X68.298Y-108.109
X70.838Y-92.869
X70.838Y-108.109
X73.378Y-92.869
X73.378Y-108.109
X75.918Y-92.869
X75.918Y-108.109
X78.458Y-92.869
X78.458Y-108.109
X80.998Y-92.869
X80.998Y-108.109
X83.538Y-92.869
X83.538Y-108.109
X86.078Y-92.869
X86.078Y-108.109
X88.618Y-92.869
X88.618Y-108.109
X91.158Y-92.869
X91.158Y-108.109
X93.698Y-92.869
X93.698Y-108.109
X96.238Y-92.869
X96.238Y-108.109
X98.778Y-92.869
X98.778Y-108.109
X101.318Y-92.869
X101.318Y-108.109
X103.858Y-92.869
X103.858Y-108.109
X90.358Y-67.869
X95.358Y-67.869
X128.698Y-110.869
X138.858Y-110.869
X41.358Y-80.869
X41.358Y-91.029
X137.998Y-50.319
X148.158Y-50.319
X51.568Y-38.711
X56.568Y-38.711
X61.902Y-43.029
X61.902Y-53.189
X180.901Y-100.386
X180.901Y-105.386
X172.358Y-95.869
X177.358Y-95.869
X164.518Y-67.039
X174.678Y-67.039
X44.858Y-88.369
X44.858Y-98.529
X131.808Y-35.519
X141.968Y-35.519
X46.408Y-44.807
X46.408Y-54.967
X169.358Y-48.869
X174.358Y-48.869
X64.358Y-117.709
X64.358Y-127.869
X127.434Y-83.923
X127.434Y-88.923
X82.858Y-39.869
X87.858Y-39.869
X90.858Y-78.081
X101.018Y-78.081
X41.358Y-99.209
X41.358Y-109.369
X164.668Y-63.239
X174.828Y-63.239
X125.858Y-98.709
X125.858Y-108.869
X130.358Y-40.869
X130.358Y-51.029
X66.858Y-45.629
X66.858Y-60.869
X69.398Y-45.629
X69.398Y-60.869
X71.938Y-45.629
X71.938Y-60.869
X74.478Y-45.629
X74.478Y-60.869
X77.018Y-45.629
X77.018Y-60.869
X79.558Y-45.629
X79.558Y-60.869
X82.098Y-45.629
X82.098Y-60.869
X84.638Y-45.629
X84.638Y-60.869
X87.178Y-45.629
X87.178Y-60.869
X89.718Y-45.629
X89.718Y-60.869
X92.258Y-45.629
X92.258Y-60.869
X94.798Y-45.629
X94.798Y-60.869
X97.338Y-45.629
X97.338Y-60.869
X99.878Y-45.629
X99.878Y-60.869
X102.418Y-45.629
X102.418Y-60.869
X104.958Y-45.629
X104.958Y-60.869
X107.498Y-45.629
X107.498Y-60.869
X110.038Y-45.629
X110.038Y-60.869
X112.578Y-45.629
X112.578Y-60.869
X115.118Y-45.629
X115.118Y-60.869
X196.508Y-84.519
X201.508Y-84.519
X69.698Y-39.869
X79.858Y-39.869
X39.358Y-127.369
X49.518Y-127.369
X50.218Y-45.569
X50.218Y-48.109
X50.218Y-50.649
X50.218Y-53.189
X57.838Y-45.569
X57.838Y-48.109
X57.838Y-50.649
X57.838Y-53.189
X41.358Y-112.709
X41.358Y-122.869
X41.198Y-72.869
X51.358Y-72.869
X41.358Y-77.369
X51.518Y-77.369
X137.858Y-54.369
X148.018Y-54.369
X155.882Y-111.101
X166.042Y-111.101
X196.508Y-35.119
X201.508Y-35.119
X180.358Y-54.869
X180.358Y-59.869
X134.358Y-40.869
X134.358Y-51.029
X153.308Y-119.009
X153.308Y-129.169
X66.198Y-35.869
X76.358Y-35.869
X191.708Y-89.609
X191.708Y-99.769
X110.858Y-117.869
X110.858Y-128.029
X121.858Y-102.709
X121.858Y-112.869
X196.858Y-108.869
X201.858Y-108.869
X196.508Y-58.919
X201.508Y-58.919
X48.858Y-91.369
X48.858Y-101.529
X191.708Y-42.209
X191.708Y-52.369
X180.858Y-35.569
X180.858Y-37.569
X31.65Y-63.692
X41.81Y-63.692
X117.858Y-106.869
X117.858Y-117.029
X95.358Y-117.709
X95.358Y-127.869
X141.698Y-110.869
X151.858Y-110.869
X191.708Y-65.909
X191.708Y-76.069
X142.848Y-68.429
X153.008Y-68.429
X183.358Y-82.369
X183.358Y-84.369
X78.158Y-81.637
X88.318Y-81.637
X79.358Y-114.869
X84.358Y-114.869
T4
X164.32Y-118.728
X167.82Y-123.928
X186.358Y-89.536
X186.358Y-99.536
X152.158Y-96.469
X162.158Y-96.469
X186.058Y-41.869
X186.058Y-51.869
X167.283Y-81.519
X167.283Y-91.519
X121.458Y-42.019
X121.458Y-44.559
X121.458Y-47.099
X121.458Y-49.639
X102.358Y-67.869
X104.898Y-67.869
X107.438Y-67.869
X60.858Y-80.869
X63.398Y-80.869
X65.938Y-80.869
X156.608Y-85.669
X160.108Y-90.869
X69.858Y-68.369
X79.858Y-68.369
X174.17Y-115.198
X174.17Y-125.198
X58.358Y-84.869
X60.898Y-84.869
X92.034Y-114.149
X102.034Y-114.149
X179.504Y-115.325
X179.504Y-125.325
X38.666Y-37.568
X40.566Y-37.568
X135.308Y-96.369
X145.308Y-96.369
X121.858Y-90.569
X121.858Y-93.109
X121.858Y-95.649
X121.858Y-98.189
X186.058Y-65.703
X186.058Y-75.703
X80.758Y-85.369
X83.298Y-85.369
X85.838Y-85.369
X88.378Y-85.369
X90.918Y-85.369
X93.458Y-85.369
X95.998Y-85.369
X98.538Y-85.369
X101.078Y-85.369
X103.618Y-85.369
X106.158Y-85.369
X108.698Y-85.369
X111.238Y-85.369
X113.778Y-85.369
X116.318Y-85.369
X118.858Y-85.369
X185.358Y-113.369
X185.358Y-123.369
X55.598Y-90.329
X55.598Y-110.649
X58.138Y-90.329
X58.138Y-110.649
X60.678Y-90.329
X60.678Y-110.649
X63.218Y-90.329
X63.218Y-110.649
X65.758Y-90.329
X65.758Y-110.649
X68.298Y-90.329
X68.298Y-110.649
X70.838Y-90.329
X70.838Y-110.649
X73.378Y-90.329
X73.378Y-110.649
X75.918Y-90.329
X75.918Y-110.649
X78.458Y-90.329
X78.458Y-110.649
X80.998Y-90.329
X80.998Y-110.649
X83.538Y-90.329
X83.538Y-110.649
X86.078Y-90.329
X86.078Y-110.649
X88.618Y-90.329
X88.618Y-110.649
X91.158Y-90.329
X91.158Y-110.649
X93.698Y-90.329
X93.698Y-110.649
X96.238Y-90.329
X96.238Y-110.649
X98.778Y-90.329
X98.778Y-110.649
X101.318Y-90.329
X101.318Y-110.649
X103.858Y-90.329
X103.858Y-110.649
X151.898Y-50.649
X161.898Y-50.649
X152.758Y-38.219
X156.258Y-43.419
X42.09Y-42.013
X42.09Y-52.013
X130.428Y-119.819
X132.968Y-119.819
X135.508Y-119.819
X138.048Y-119.819
X140.588Y-119.819
X143.128Y-119.819
X145.668Y-119.819
X148.208Y-119.819
X172.858Y-85.669
X176.358Y-90.869
X135.633Y-85.669
X139.133Y-90.869
X112.358Y-68.369
X114.898Y-68.369
X146.308Y-81.519
X146.308Y-91.519
X47.858Y-105.869
X47.858Y-108.409
X163.168Y-35.119
X163.168Y-45.119
X66.858Y-43.089
X66.858Y-63.409
X69.398Y-43.089
X69.398Y-63.409
X71.938Y-43.089
X71.938Y-63.409
X74.478Y-43.089
X74.478Y-63.409
X77.018Y-43.089
X77.018Y-63.409
X79.558Y-43.089
X79.558Y-63.409
X82.098Y-43.089
X82.098Y-63.409
X84.638Y-43.089
X84.638Y-63.409
X87.178Y-43.089
X87.178Y-63.409
X89.718Y-43.089
X89.718Y-63.409
X92.258Y-43.089
X92.258Y-63.409
X94.798Y-43.089
X94.798Y-63.409
X97.338Y-43.089
X97.338Y-63.409
X99.878Y-43.089
X99.878Y-63.409
X102.418Y-43.089
X102.418Y-63.409
X104.958Y-43.089
X104.958Y-63.409
X107.498Y-43.089
X107.498Y-63.409
X110.038Y-43.089
X110.038Y-63.409
X112.578Y-43.089
X112.578Y-63.409
X115.118Y-43.089
X115.118Y-63.409
X37.858Y-42.089
X37.858Y-44.629
X37.858Y-47.169
X37.858Y-49.709
X37.858Y-52.249
X37.858Y-54.789
X37.858Y-57.329
X37.858Y-59.869
X170.808Y-38.219
X174.308Y-43.419
X79.758Y-36.369
X82.298Y-36.369
X84.838Y-36.369
X87.378Y-36.369
X89.918Y-36.369
X92.458Y-36.369
X94.998Y-36.369
X97.538Y-36.369
X100.078Y-36.369
X102.618Y-36.369
X105.158Y-36.369
X107.698Y-36.369
X110.238Y-36.369
X112.778Y-36.369
X115.318Y-36.369
X117.858Y-36.369
T5
X159.819Y-114.784
X159.819Y-124.944
X164.318Y-71.389
X174.478Y-71.389
X171.884Y-111.101
X174.424Y-111.101
X176.964Y-111.101
X134.008Y-104.409
X136.548Y-104.409
X139.088Y-104.409
X155.008Y-57.409
X157.548Y-57.409
X160.088Y-57.409
X147.928Y-35.409
X147.928Y-45.569
X171.008Y-104.409
X173.548Y-104.409
X176.088Y-104.409
X151.683Y-81.759
X151.683Y-91.919
X130.708Y-81.759
X130.708Y-91.919
X169.458Y-57.509
X171.998Y-57.509
X174.538Y-57.509
X154.008Y-104.409
X156.548Y-104.409
X159.088Y-104.409
T6
X103.926Y-78.375
X114.226Y-75.795
X114.226Y-80.875
X123.624Y-55.475
X123.624Y-60.555
X133.924Y-57.975
T7
X48.858Y-116.869
X189.858Y-36.869
X31.358Y-126.869
X122.858Y-36.869
X31.358Y-36.869
X123.858Y-85.869
X47.858Y-36.869
X47.858Y-67.869
X122.858Y-67.869
X189.858Y-126.869
X48.858Y-85.869
X123.858Y-116.869
T2
G00X56.008Y-122.869
M15
G01X54.708Y-122.869
M16
G05
G00X56.008Y-126.569
M15
G01X54.708Y-126.569
M16
G05
G00X71.508Y-122.869
M15
G01X70.208Y-122.869
M16
G05
G00X71.508Y-126.569
M15
G01X70.208Y-126.569
M16
G05
G00X87.008Y-122.869
M15
G01X85.708Y-122.869
M16
G05
G00X87.008Y-126.569
M15
G01X85.708Y-126.569
M16
G05
G00X139.783Y-42.819
M15
G01X139.783Y-41.519
M16
G05
G00X142.458Y-40.319
M15
G01X141.158Y-40.319
M16
G05
G00X142.458Y-44.019
M15
G01X141.158Y-44.019
M16
G05
G00X143.833Y-42.769
M15
G01X143.833Y-41.469
M16
G05
G00X33.508Y-82.132
M15
G01X34.808Y-82.132
M16
G05
G00X33.508Y-85.832
M15
G01X34.808Y-85.832
M16
G05
G00X35.008Y-93.944
M15
G01X33.708Y-93.944
M16
G05
G00X35.008Y-97.644
M15
G01X33.708Y-97.644
M16
G05
G00X35.008Y-117.369
M15
G01X33.708Y-117.369
M16
G05
G00X35.008Y-121.069
M15
G01X33.708Y-121.069
M16
G05
G00X35.008Y-105.657
M15
G01X33.708Y-105.657
M16
G05
G00X35.008Y-109.357
M15
G01X33.708Y-109.357
M16
G05
G00X140.958Y-59.169
M15
G01X142.258Y-59.169
M16
G05
G00X140.958Y-62.869
M15
G01X142.258Y-62.869
M16
G05
G00X102.508Y-122.869
M15
G01X101.208Y-122.869
M16
G05
G00X102.508Y-126.569
M15
G01X101.208Y-126.569
M16
G05
G00X32.133Y-71.669
M15
G01X32.133Y-72.969
M16
G05
G00X33.508Y-70.419
M15
G01X34.808Y-70.419
M16
G05
G00X33.508Y-74.119
M15
G01X34.808Y-74.119
M16
G05
G00X36.183Y-71.619
M15
G01X36.183Y-72.919
M16
G05
G00X118.008Y-122.869
M15
G01X116.708Y-122.869
M16
G05
G00X118.008Y-126.569
M15
G01X116.708Y-126.569
M16
G05
T0
M30
