%FSLAX45Y45*%
G04 Gerber Fmt 4.5, Leading zero omitted, Abs format (unit mm)*
G04 Created by KiCad (PCBNEW (5.1.5-0-10_14)) date 2020-05-09 23:20:58*
%MOMM*%
%LPD*%
G04 APERTURE LIST*
%TA.AperFunction,Profile*%
%ADD10C,0.050000*%
%TD*%
%ADD11C,0.200000*%
%ADD12C,0.300000*%
G04 APERTURE END LIST*
D10*
X2735785Y-13086938D02*
X2735785Y-3286938D01*
X11835785Y-3286938D02*
X20735785Y-3286938D01*
X2735785Y-3286938D02*
X11835785Y-3286938D01*
X20735785Y-13086938D02*
X2735785Y-13086938D01*
X20735785Y-3286938D02*
X20735785Y-13086938D01*
D11*
X3485565Y-5426098D02*
X3545565Y-5486098D01*
X3545565Y-5426098D02*
X3485565Y-5486098D01*
X3740553Y-6642654D02*
X3800553Y-6702654D01*
X3800553Y-6642654D02*
X3740553Y-6702654D01*
X4559985Y-7727338D02*
X4619985Y-7787338D01*
X4619985Y-7727338D02*
X4559985Y-7787338D01*
X5152906Y-9709818D02*
X5212906Y-9769818D01*
X5212906Y-9709818D02*
X5152906Y-9769818D01*
X5217845Y-5460388D02*
X5277845Y-5520388D01*
X5277845Y-5460388D02*
X5217845Y-5520388D01*
X5278805Y-4606948D02*
X5338805Y-4666948D01*
X5338805Y-4606948D02*
X5278805Y-4666948D01*
X5355785Y-11372238D02*
X5415785Y-11432238D01*
X5415785Y-11372238D02*
X5355785Y-11432238D01*
X5423805Y-4780938D02*
X5483805Y-4840938D01*
X5483805Y-4780938D02*
X5423805Y-4840938D01*
X5423805Y-5534268D02*
X5483805Y-5594268D01*
X5483805Y-5534268D02*
X5423805Y-5594268D01*
X5705785Y-11706938D02*
X5765785Y-11766938D01*
X5765785Y-11706938D02*
X5705785Y-11766938D01*
X5724575Y-5756298D02*
X5784575Y-5816298D01*
X5784575Y-5756298D02*
X5724575Y-5816298D01*
X5855385Y-11562738D02*
X5915385Y-11622738D01*
X5915385Y-11562738D02*
X5855385Y-11622738D01*
X6019215Y-6196988D02*
X6079215Y-6256988D01*
X6079215Y-6196988D02*
X6019215Y-6256988D01*
X6028105Y-6381138D02*
X6088105Y-6441138D01*
X6088105Y-6381138D02*
X6028105Y-6441138D01*
X6287185Y-9847337D02*
X6347185Y-9907337D01*
X6347185Y-9847337D02*
X6287185Y-9907337D01*
X6331635Y-6255408D02*
X6391635Y-6315408D01*
X6391635Y-6255408D02*
X6331635Y-6315408D01*
X6503085Y-9581538D02*
X6563085Y-9641538D01*
X6563085Y-9581538D02*
X6503085Y-9641538D01*
X6591985Y-5535688D02*
X6651985Y-5595688D01*
X6651985Y-5535688D02*
X6591985Y-5595688D01*
X6712635Y-4885078D02*
X6772635Y-4945078D01*
X6772635Y-4885078D02*
X6712635Y-4945078D01*
X6755785Y-11556938D02*
X6815785Y-11616938D01*
X6815785Y-11556938D02*
X6755785Y-11616938D01*
X6919645Y-5062878D02*
X6979645Y-5122878D01*
X6979645Y-5062878D02*
X6919645Y-5122878D01*
X7303185Y-8681637D02*
X7363185Y-8741637D01*
X7363185Y-8681637D02*
X7303185Y-8741637D01*
X8039785Y-9975238D02*
X8099785Y-10035238D01*
X8099785Y-9975238D02*
X8039785Y-10035238D01*
X8509685Y-6787538D02*
X8569685Y-6847538D01*
X8569685Y-6787538D02*
X8509685Y-6847538D01*
X8547785Y-10521338D02*
X8607785Y-10581338D01*
X8607785Y-10521338D02*
X8547785Y-10581338D01*
X8568495Y-5106938D02*
X8628495Y-5166938D01*
X8628495Y-5106938D02*
X8568495Y-5166938D01*
X8585885Y-9505338D02*
X8645885Y-9565338D01*
X8645885Y-9505338D02*
X8585885Y-9565338D01*
X9204785Y-10508638D02*
X9264785Y-10568638D01*
X9264785Y-10508638D02*
X9204785Y-10568638D01*
X9455785Y-5106938D02*
X9515785Y-5166938D01*
X9515785Y-5106938D02*
X9455785Y-5166938D01*
X9455785Y-5606938D02*
X9515785Y-5666938D01*
X9515785Y-5606938D02*
X9455785Y-5666938D01*
X9538385Y-10178438D02*
X9598385Y-10238438D01*
X9598385Y-10178438D02*
X9538385Y-10238438D01*
X10300385Y-9594238D02*
X10360385Y-9654238D01*
X10360385Y-9594238D02*
X10300385Y-9654238D01*
X10782985Y-9556938D02*
X10842985Y-9616938D01*
X10842985Y-9556938D02*
X10782985Y-9616938D01*
X10955705Y-10932818D02*
X11015705Y-10992818D01*
X11015705Y-10932818D02*
X10955705Y-10992818D01*
X10955785Y-10356938D02*
X11015785Y-10416938D01*
X11015785Y-10356938D02*
X10955785Y-10416938D01*
X11062385Y-9530738D02*
X11122385Y-9590738D01*
X11122385Y-9530738D02*
X11062385Y-9590738D01*
X11240185Y-9378338D02*
X11300185Y-9438338D01*
X11300185Y-9378338D02*
X11240185Y-9438338D01*
X11543715Y-9991748D02*
X11603715Y-10051748D01*
X11603715Y-9991748D02*
X11543715Y-10051748D01*
X11544985Y-9200538D02*
X11604985Y-9260538D01*
X11604985Y-9200538D02*
X11544985Y-9260538D01*
X11670715Y-7708288D02*
X11730715Y-7768288D01*
X11730715Y-7708288D02*
X11670715Y-7768288D01*
X11855785Y-5806938D02*
X11915785Y-5866938D01*
X11915785Y-5806938D02*
X11855785Y-5866938D01*
X11951385Y-10940438D02*
X12011385Y-11000438D01*
X12011385Y-10940438D02*
X11951385Y-11000438D01*
X11955785Y-3756938D02*
X12015785Y-3816938D01*
X12015785Y-3756938D02*
X11955785Y-3816938D01*
X12091085Y-8273438D02*
X12151085Y-8333438D01*
X12151085Y-8273438D02*
X12091085Y-8333438D01*
X12154585Y-7054437D02*
X12214585Y-7114437D01*
X12214585Y-7054437D02*
X12154585Y-7114437D01*
X12205385Y-10826138D02*
X12265385Y-10886138D01*
X12265385Y-10826138D02*
X12205385Y-10886138D01*
X12408585Y-8057538D02*
X12468585Y-8117538D01*
X12468585Y-8057538D02*
X12408585Y-8117538D01*
X12535585Y-10407038D02*
X12595585Y-10467038D01*
X12595585Y-10407038D02*
X12535585Y-10467038D01*
X12607975Y-6458608D02*
X12667975Y-6518608D01*
X12667975Y-6458608D02*
X12607975Y-6518608D01*
X14275485Y-11473838D02*
X14335485Y-11533838D01*
X14335485Y-11473838D02*
X14275485Y-11533838D01*
X6240425Y-3736518D02*
G75*
G03X6240425Y-3736518I-35000J0D01*
G01*
X6240425Y-3990518D02*
G75*
G03X6240425Y-3990518I-35000J0D01*
G01*
X6367425Y-3863518D02*
G75*
G03X6367425Y-3863518I-35000J0D01*
G01*
X3450785Y-8213188D02*
G75*
G03X3450785Y-8213188I-35000J0D01*
G01*
X3350785Y-8238188D02*
X3480785Y-8238188D01*
X3350785Y-8188188D02*
X3480785Y-8188188D01*
X3480785Y-8238188D02*
G75*
G03X3480785Y-8188188I0J25000D01*
G01*
X3350785Y-8188188D02*
G75*
G03X3350785Y-8238188I0J-25000D01*
G01*
X3450785Y-8583188D02*
G75*
G03X3450785Y-8583188I-35000J0D01*
G01*
X3350785Y-8608188D02*
X3480785Y-8608188D01*
X3350785Y-8558188D02*
X3480785Y-8558188D01*
X3480785Y-8608188D02*
G75*
G03X3480785Y-8558188I0J25000D01*
G01*
X3350785Y-8558188D02*
G75*
G03X3350785Y-8608188I0J-25000D01*
G01*
X10220785Y-12286938D02*
G75*
G03X10220785Y-12286938I-35000J0D01*
G01*
X10250785Y-12261938D02*
X10120785Y-12261938D01*
X10250785Y-12311938D02*
X10120785Y-12311938D01*
X10120785Y-12261938D02*
G75*
G03X10120785Y-12311938I0J-25000D01*
G01*
X10250785Y-12311938D02*
G75*
G03X10250785Y-12261938I0J25000D01*
G01*
X10220785Y-12656938D02*
G75*
G03X10220785Y-12656938I-35000J0D01*
G01*
X10250785Y-12631938D02*
X10120785Y-12631938D01*
X10250785Y-12681938D02*
X10120785Y-12681938D01*
X10120785Y-12631938D02*
G75*
G03X10120785Y-12681938I0J-25000D01*
G01*
X10250785Y-12681938D02*
G75*
G03X10250785Y-12631938I0J25000D01*
G01*
X7138315Y-8018958D02*
G75*
G03X7138315Y-8018958I-35000J0D01*
G01*
X7265315Y-7891958D02*
G75*
G03X7265315Y-7891958I-35000J0D01*
G01*
X7392315Y-8018958D02*
G75*
G03X7392315Y-8018958I-35000J0D01*
G01*
X14195785Y-5916938D02*
G75*
G03X14195785Y-5916938I-35000J0D01*
G01*
X14095785Y-5941938D02*
X14225785Y-5941938D01*
X14095785Y-5891938D02*
X14225785Y-5891938D01*
X14225785Y-5941938D02*
G75*
G03X14225785Y-5891938I0J25000D01*
G01*
X14095785Y-5891938D02*
G75*
G03X14095785Y-5941938I0J-25000D01*
G01*
X14195785Y-6286938D02*
G75*
G03X14195785Y-6286938I-35000J0D01*
G01*
X14095785Y-6311938D02*
X14225785Y-6311938D01*
X14095785Y-6261938D02*
X14225785Y-6261938D01*
X14225785Y-6311938D02*
G75*
G03X14225785Y-6261938I0J25000D01*
G01*
X14095785Y-6261938D02*
G75*
G03X14095785Y-6311938I0J-25000D01*
G01*
X5570785Y-12286938D02*
G75*
G03X5570785Y-12286938I-35000J0D01*
G01*
X5600785Y-12261938D02*
X5470785Y-12261938D01*
X5600785Y-12311938D02*
X5470785Y-12311938D01*
X5470785Y-12261938D02*
G75*
G03X5470785Y-12311938I0J-25000D01*
G01*
X5600785Y-12311938D02*
G75*
G03X5600785Y-12261938I0J25000D01*
G01*
X5570785Y-12656938D02*
G75*
G03X5570785Y-12656938I-35000J0D01*
G01*
X5600785Y-12631938D02*
X5470785Y-12631938D01*
X5600785Y-12681938D02*
X5470785Y-12681938D01*
X5470785Y-12631938D02*
G75*
G03X5470785Y-12681938I0J-25000D01*
G01*
X5600785Y-12681938D02*
G75*
G03X5600785Y-12631938I0J25000D01*
G01*
X8670785Y-12286938D02*
G75*
G03X8670785Y-12286938I-35000J0D01*
G01*
X8700785Y-12261938D02*
X8570785Y-12261938D01*
X8700785Y-12311938D02*
X8570785Y-12311938D01*
X8570785Y-12261938D02*
G75*
G03X8570785Y-12311938I0J-25000D01*
G01*
X8700785Y-12311938D02*
G75*
G03X8700785Y-12261938I0J25000D01*
G01*
X8670785Y-12656938D02*
G75*
G03X8670785Y-12656938I-35000J0D01*
G01*
X8700785Y-12631938D02*
X8570785Y-12631938D01*
X8700785Y-12681938D02*
X8570785Y-12681938D01*
X8570785Y-12631938D02*
G75*
G03X8570785Y-12681938I0J-25000D01*
G01*
X8700785Y-12681938D02*
G75*
G03X8700785Y-12631938I0J25000D01*
G01*
X3470785Y-9394438D02*
G75*
G03X3470785Y-9394438I-35000J0D01*
G01*
X3500785Y-9369438D02*
X3370785Y-9369438D01*
X3500785Y-9419438D02*
X3370785Y-9419438D01*
X3370785Y-9369438D02*
G75*
G03X3370785Y-9419438I0J-25000D01*
G01*
X3500785Y-9419438D02*
G75*
G03X3500785Y-9369438I0J25000D01*
G01*
X3470785Y-9764438D02*
G75*
G03X3470785Y-9764438I-35000J0D01*
G01*
X3500785Y-9739438D02*
X3370785Y-9739438D01*
X3500785Y-9789438D02*
X3370785Y-9789438D01*
X3370785Y-9739438D02*
G75*
G03X3370785Y-9789438I0J-25000D01*
G01*
X3500785Y-9789438D02*
G75*
G03X3500785Y-9739438I0J25000D01*
G01*
X7120785Y-12286938D02*
G75*
G03X7120785Y-12286938I-35000J0D01*
G01*
X7150785Y-12261938D02*
X7020785Y-12261938D01*
X7150785Y-12311938D02*
X7020785Y-12311938D01*
X7020785Y-12261938D02*
G75*
G03X7020785Y-12311938I0J-25000D01*
G01*
X7150785Y-12311938D02*
G75*
G03X7150785Y-12261938I0J25000D01*
G01*
X7120785Y-12656938D02*
G75*
G03X7120785Y-12656938I-35000J0D01*
G01*
X7150785Y-12631938D02*
X7020785Y-12631938D01*
X7150785Y-12681938D02*
X7020785Y-12681938D01*
X7020785Y-12631938D02*
G75*
G03X7020785Y-12681938I0J-25000D01*
G01*
X7150785Y-12681938D02*
G75*
G03X7150785Y-12631938I0J25000D01*
G01*
X3470785Y-11736938D02*
G75*
G03X3470785Y-11736938I-35000J0D01*
G01*
X3500785Y-11711938D02*
X3370785Y-11711938D01*
X3500785Y-11761938D02*
X3370785Y-11761938D01*
X3370785Y-11711938D02*
G75*
G03X3370785Y-11761938I0J-25000D01*
G01*
X3500785Y-11761938D02*
G75*
G03X3500785Y-11711938I0J25000D01*
G01*
X3470785Y-12106938D02*
G75*
G03X3470785Y-12106938I-35000J0D01*
G01*
X3500785Y-12081938D02*
X3370785Y-12081938D01*
X3500785Y-12131938D02*
X3370785Y-12131938D01*
X3370785Y-12081938D02*
G75*
G03X3370785Y-12131938I0J-25000D01*
G01*
X3500785Y-12131938D02*
G75*
G03X3500785Y-12081938I0J25000D01*
G01*
X11770785Y-12286938D02*
G75*
G03X11770785Y-12286938I-35000J0D01*
G01*
X11800785Y-12261938D02*
X11670785Y-12261938D01*
X11800785Y-12311938D02*
X11670785Y-12311938D01*
X11670785Y-12261938D02*
G75*
G03X11670785Y-12311938I0J-25000D01*
G01*
X11800785Y-12311938D02*
G75*
G03X11800785Y-12261938I0J25000D01*
G01*
X11770785Y-12656938D02*
G75*
G03X11770785Y-12656938I-35000J0D01*
G01*
X11800785Y-12631938D02*
X11670785Y-12631938D01*
X11800785Y-12681938D02*
X11670785Y-12681938D01*
X11670785Y-12631938D02*
G75*
G03X11670785Y-12681938I0J-25000D01*
G01*
X11800785Y-12681938D02*
G75*
G03X11800785Y-12631938I0J25000D01*
G01*
X3470785Y-10565688D02*
G75*
G03X3470785Y-10565688I-35000J0D01*
G01*
X3500785Y-10540688D02*
X3370785Y-10540688D01*
X3500785Y-10590688D02*
X3370785Y-10590688D01*
X3370785Y-10540688D02*
G75*
G03X3370785Y-10590688I0J-25000D01*
G01*
X3500785Y-10590688D02*
G75*
G03X3500785Y-10540688I0J25000D01*
G01*
X3470785Y-10935688D02*
G75*
G03X3470785Y-10935688I-35000J0D01*
G01*
X3500785Y-10910688D02*
X3370785Y-10910688D01*
X3500785Y-10960688D02*
X3370785Y-10960688D01*
X3370785Y-10910688D02*
G75*
G03X3370785Y-10960688I0J-25000D01*
G01*
X3500785Y-10960688D02*
G75*
G03X3500785Y-10910688I0J25000D01*
G01*
X3248285Y-7231938D02*
G75*
G03X3248285Y-7231938I-35000J0D01*
G01*
X3188285Y-7166938D02*
X3188285Y-7296938D01*
X3238285Y-7166938D02*
X3238285Y-7296938D01*
X3188285Y-7296938D02*
G75*
G03X3238285Y-7296938I25000J0D01*
G01*
X3238285Y-7166938D02*
G75*
G03X3188285Y-7166938I-25000J0D01*
G01*
X3450785Y-7041938D02*
G75*
G03X3450785Y-7041938I-35000J0D01*
G01*
X3350785Y-7066938D02*
X3480785Y-7066938D01*
X3350785Y-7016938D02*
X3480785Y-7016938D01*
X3480785Y-7066938D02*
G75*
G03X3480785Y-7016938I0J25000D01*
G01*
X3350785Y-7016938D02*
G75*
G03X3350785Y-7066938I0J-25000D01*
G01*
X3450785Y-7411938D02*
G75*
G03X3450785Y-7411938I-35000J0D01*
G01*
X3350785Y-7436938D02*
X3480785Y-7436938D01*
X3350785Y-7386938D02*
X3480785Y-7386938D01*
X3480785Y-7436938D02*
G75*
G03X3480785Y-7386938I0J25000D01*
G01*
X3350785Y-7386938D02*
G75*
G03X3350785Y-7436938I0J-25000D01*
G01*
X3653285Y-7226938D02*
G75*
G03X3653285Y-7226938I-35000J0D01*
G01*
X3593285Y-7161938D02*
X3593285Y-7291938D01*
X3643285Y-7161938D02*
X3643285Y-7291938D01*
X3593285Y-7291938D02*
G75*
G03X3643285Y-7291938I25000J0D01*
G01*
X3643285Y-7161938D02*
G75*
G03X3593285Y-7161938I-25000J0D01*
G01*
X14013285Y-4216938D02*
G75*
G03X14013285Y-4216938I-35000J0D01*
G01*
X14003285Y-4281938D02*
X14003285Y-4151938D01*
X13953285Y-4281938D02*
X13953285Y-4151938D01*
X14003285Y-4151938D02*
G75*
G03X13953285Y-4151938I-25000J0D01*
G01*
X13953285Y-4281938D02*
G75*
G03X14003285Y-4281938I25000J0D01*
G01*
X14215785Y-4031938D02*
G75*
G03X14215785Y-4031938I-35000J0D01*
G01*
X14245785Y-4006938D02*
X14115785Y-4006938D01*
X14245785Y-4056938D02*
X14115785Y-4056938D01*
X14115785Y-4006938D02*
G75*
G03X14115785Y-4056938I0J-25000D01*
G01*
X14245785Y-4056938D02*
G75*
G03X14245785Y-4006938I0J25000D01*
G01*
X14215785Y-4401938D02*
G75*
G03X14215785Y-4401938I-35000J0D01*
G01*
X14245785Y-4376938D02*
X14115785Y-4376938D01*
X14245785Y-4426938D02*
X14115785Y-4426938D01*
X14115785Y-4376938D02*
G75*
G03X14115785Y-4426938I0J-25000D01*
G01*
X14245785Y-4426938D02*
G75*
G03X14245785Y-4376938I0J25000D01*
G01*
X14418285Y-4211938D02*
G75*
G03X14418285Y-4211938I-35000J0D01*
G01*
X14408285Y-4276938D02*
X14408285Y-4146938D01*
X14358285Y-4276938D02*
X14358285Y-4146938D01*
X14408285Y-4146938D02*
G75*
G03X14358285Y-4146938I-25000J0D01*
G01*
X14358285Y-4276938D02*
G75*
G03X14408285Y-4276938I25000J0D01*
G01*
X19170785Y-6550938D02*
X19170785Y-6630938D01*
X19130785Y-6590938D02*
X19210785Y-6590938D01*
X19170785Y-7566938D02*
X19170785Y-7646938D01*
X19130785Y-7606938D02*
X19210785Y-7606938D01*
X4539185Y-6142538D02*
X4539185Y-6222538D01*
X4499185Y-6182538D02*
X4579185Y-6182538D01*
X5555185Y-6142538D02*
X5555185Y-6222538D01*
X5515185Y-6182538D02*
X5595185Y-6182538D01*
X6190185Y-4262938D02*
X6190185Y-4342938D01*
X6150185Y-4302938D02*
X6230185Y-4302938D01*
X6190185Y-5278938D02*
X6190185Y-5358938D01*
X6150185Y-5318938D02*
X6230185Y-5318938D01*
X11435785Y-10380938D02*
X11435785Y-10460938D01*
X11395785Y-10420938D02*
X11475785Y-10420938D01*
X11435785Y-11396938D02*
X11435785Y-11476938D01*
X11395785Y-11436938D02*
X11475785Y-11436938D01*
X12585785Y-9830938D02*
X12585785Y-9910938D01*
X12545785Y-9870938D02*
X12625785Y-9870938D01*
X12585785Y-10846938D02*
X12585785Y-10926938D01*
X12545785Y-10886938D02*
X12625785Y-10886938D01*
X16466785Y-6283938D02*
X16466785Y-6363938D01*
X16426785Y-6323938D02*
X16506785Y-6323938D01*
X17482785Y-6283938D02*
X17482785Y-6363938D01*
X17442785Y-6323938D02*
X17522785Y-6323938D01*
X7935785Y-11446938D02*
X7935785Y-11526938D01*
X7895785Y-11486938D02*
X7975785Y-11486938D01*
X8435785Y-11446938D02*
X8435785Y-11526938D01*
X8395785Y-11486938D02*
X8475785Y-11486938D01*
X4135785Y-9880938D02*
X4135785Y-9960938D01*
X4095785Y-9920938D02*
X4175785Y-9920938D01*
X4135785Y-10896938D02*
X4135785Y-10976938D01*
X4095785Y-10936938D02*
X4175785Y-10936938D01*
X19170785Y-4180938D02*
X19170785Y-4260938D01*
X19130785Y-4220938D02*
X19210785Y-4220938D01*
X19170785Y-5196938D02*
X19170785Y-5276938D01*
X19130785Y-5236938D02*
X19210785Y-5236938D01*
X19685785Y-10846938D02*
X19685785Y-10926938D01*
X19645785Y-10886938D02*
X19725785Y-10886938D01*
X20185785Y-10846938D02*
X20185785Y-10926938D01*
X20145785Y-10886938D02*
X20225785Y-10886938D01*
X15330785Y-11860938D02*
X15330785Y-11940938D01*
X15290785Y-11900938D02*
X15370785Y-11900938D01*
X15330785Y-12876938D02*
X15330785Y-12956938D01*
X15290785Y-12916938D02*
X15370785Y-12916938D01*
X18335785Y-8196938D02*
X18335785Y-8276938D01*
X18295785Y-8236938D02*
X18375785Y-8236938D01*
X18335785Y-8396938D02*
X18335785Y-8476938D01*
X18295785Y-8436938D02*
X18375785Y-8436938D01*
X16935785Y-4846938D02*
X16935785Y-4926938D01*
X16895785Y-4886938D02*
X16975785Y-4886938D01*
X17435785Y-4846938D02*
X17435785Y-4926938D01*
X17395785Y-4886938D02*
X17475785Y-4886938D01*
X4589985Y-4161338D02*
X4589985Y-4241338D01*
X4549985Y-4201338D02*
X4629985Y-4201338D01*
X5605985Y-4161338D02*
X5605985Y-4241338D01*
X5565985Y-4201338D02*
X5645985Y-4201338D01*
X14169785Y-11046938D02*
X14169785Y-11126938D01*
X14129785Y-11086938D02*
X14209785Y-11086938D01*
X15185785Y-11046938D02*
X15185785Y-11126938D01*
X15145785Y-11086938D02*
X15225785Y-11086938D01*
X11085785Y-11746938D02*
X11085785Y-11826938D01*
X11045785Y-11786938D02*
X11125785Y-11786938D01*
X11085785Y-12762938D02*
X11085785Y-12842938D01*
X11045785Y-12802938D02*
X11125785Y-12802938D01*
X18090085Y-9998638D02*
X18090085Y-10078638D01*
X18050085Y-10038638D02*
X18130085Y-10038638D01*
X18090085Y-10498638D02*
X18090085Y-10578638D01*
X18050085Y-10538638D02*
X18130085Y-10538638D01*
X9035785Y-6746938D02*
X9035785Y-6826938D01*
X8995785Y-6786938D02*
X9075785Y-6786938D01*
X9535785Y-6746938D02*
X9535785Y-6826938D01*
X9495785Y-6786938D02*
X9575785Y-6786938D01*
X6685785Y-4522938D02*
X6685785Y-4602938D01*
X6645785Y-4562938D02*
X6725785Y-4562938D01*
X6685785Y-6046938D02*
X6685785Y-6126938D01*
X6645785Y-6086938D02*
X6725785Y-6086938D01*
X6939785Y-4522938D02*
X6939785Y-4602938D01*
X6899785Y-4562938D02*
X6979785Y-4562938D01*
X6939785Y-6046938D02*
X6939785Y-6126938D01*
X6899785Y-6086938D02*
X6979785Y-6086938D01*
X7193785Y-4522938D02*
X7193785Y-4602938D01*
X7153785Y-4562938D02*
X7233785Y-4562938D01*
X7193785Y-6046938D02*
X7193785Y-6126938D01*
X7153785Y-6086938D02*
X7233785Y-6086938D01*
X7447785Y-4522938D02*
X7447785Y-4602938D01*
X7407785Y-4562938D02*
X7487785Y-4562938D01*
X7447785Y-6046938D02*
X7447785Y-6126938D01*
X7407785Y-6086938D02*
X7487785Y-6086938D01*
X7701785Y-4522938D02*
X7701785Y-4602938D01*
X7661785Y-4562938D02*
X7741785Y-4562938D01*
X7701785Y-6046938D02*
X7701785Y-6126938D01*
X7661785Y-6086938D02*
X7741785Y-6086938D01*
X7955785Y-4522938D02*
X7955785Y-4602938D01*
X7915785Y-4562938D02*
X7995785Y-4562938D01*
X7955785Y-6046938D02*
X7955785Y-6126938D01*
X7915785Y-6086938D02*
X7995785Y-6086938D01*
X8209785Y-4522938D02*
X8209785Y-4602938D01*
X8169785Y-4562938D02*
X8249785Y-4562938D01*
X8209785Y-6046938D02*
X8209785Y-6126938D01*
X8169785Y-6086938D02*
X8249785Y-6086938D01*
X8463785Y-4522938D02*
X8463785Y-4602938D01*
X8423785Y-4562938D02*
X8503785Y-4562938D01*
X8463785Y-6046938D02*
X8463785Y-6126938D01*
X8423785Y-6086938D02*
X8503785Y-6086938D01*
X8717785Y-4522938D02*
X8717785Y-4602938D01*
X8677785Y-4562938D02*
X8757785Y-4562938D01*
X8717785Y-6046938D02*
X8717785Y-6126938D01*
X8677785Y-6086938D02*
X8757785Y-6086938D01*
X8971785Y-4522938D02*
X8971785Y-4602938D01*
X8931785Y-4562938D02*
X9011785Y-4562938D01*
X8971785Y-6046938D02*
X8971785Y-6126938D01*
X8931785Y-6086938D02*
X9011785Y-6086938D01*
X9225785Y-4522938D02*
X9225785Y-4602938D01*
X9185785Y-4562938D02*
X9265785Y-4562938D01*
X9225785Y-6046938D02*
X9225785Y-6126938D01*
X9185785Y-6086938D02*
X9265785Y-6086938D01*
X9479785Y-4522938D02*
X9479785Y-4602938D01*
X9439785Y-4562938D02*
X9519785Y-4562938D01*
X9479785Y-6046938D02*
X9479785Y-6126938D01*
X9439785Y-6086938D02*
X9519785Y-6086938D01*
X9733785Y-4522938D02*
X9733785Y-4602938D01*
X9693785Y-4562938D02*
X9773785Y-4562938D01*
X9733785Y-6046938D02*
X9733785Y-6126938D01*
X9693785Y-6086938D02*
X9773785Y-6086938D01*
X9987785Y-4522938D02*
X9987785Y-4602938D01*
X9947785Y-4562938D02*
X10027785Y-4562938D01*
X9987785Y-6046938D02*
X9987785Y-6126938D01*
X9947785Y-6086938D02*
X10027785Y-6086938D01*
X10241785Y-4522938D02*
X10241785Y-4602938D01*
X10201785Y-4562938D02*
X10281785Y-4562938D01*
X10241785Y-6046938D02*
X10241785Y-6126938D01*
X10201785Y-6086938D02*
X10281785Y-6086938D01*
X10495785Y-4522938D02*
X10495785Y-4602938D01*
X10455785Y-4562938D02*
X10535785Y-4562938D01*
X10495785Y-6046938D02*
X10495785Y-6126938D01*
X10455785Y-6086938D02*
X10535785Y-6086938D01*
X10749785Y-4522938D02*
X10749785Y-4602938D01*
X10709785Y-4562938D02*
X10789785Y-4562938D01*
X10749785Y-6046938D02*
X10749785Y-6126938D01*
X10709785Y-6086938D02*
X10789785Y-6086938D01*
X11003785Y-4522938D02*
X11003785Y-4602938D01*
X10963785Y-4562938D02*
X11043785Y-4562938D01*
X11003785Y-6046938D02*
X11003785Y-6126938D01*
X10963785Y-6086938D02*
X11043785Y-6086938D01*
X11257785Y-4522938D02*
X11257785Y-4602938D01*
X11217785Y-4562938D02*
X11297785Y-4562938D01*
X11257785Y-6046938D02*
X11257785Y-6126938D01*
X11217785Y-6086938D02*
X11297785Y-6086938D01*
X11511785Y-4522938D02*
X11511785Y-4602938D01*
X11471785Y-4562938D02*
X11551785Y-4562938D01*
X11511785Y-6046938D02*
X11511785Y-6126938D01*
X11471785Y-6086938D02*
X11551785Y-6086938D01*
X12185785Y-10230938D02*
X12185785Y-10310938D01*
X12145785Y-10270938D02*
X12225785Y-10270938D01*
X12185785Y-11246938D02*
X12185785Y-11326938D01*
X12145785Y-11286938D02*
X12225785Y-11286938D01*
X13785785Y-5396938D02*
X13785785Y-5476938D01*
X13745785Y-5436938D02*
X13825785Y-5436938D01*
X14801785Y-5396938D02*
X14801785Y-5476938D01*
X14761785Y-5436938D02*
X14841785Y-5436938D01*
X4119785Y-7246938D02*
X4119785Y-7326938D01*
X4079785Y-7286938D02*
X4159785Y-7286938D01*
X5135785Y-7246938D02*
X5135785Y-7326938D01*
X5095785Y-7286938D02*
X5175785Y-7286938D01*
X11785785Y-10646938D02*
X11785785Y-10726938D01*
X11745785Y-10686938D02*
X11825785Y-10686938D01*
X11785785Y-11662938D02*
X11785785Y-11742938D01*
X11745785Y-11702938D02*
X11825785Y-11702938D01*
X12869785Y-11046938D02*
X12869785Y-11126938D01*
X12829785Y-11086938D02*
X12909785Y-11086938D01*
X13885785Y-11046938D02*
X13885785Y-11126938D01*
X13845785Y-11086938D02*
X13925785Y-11086938D01*
X18085785Y-3516938D02*
X18085785Y-3596938D01*
X18045785Y-3556938D02*
X18125785Y-3556938D01*
X18085785Y-3716938D02*
X18085785Y-3796938D01*
X18045785Y-3756938D02*
X18125785Y-3756938D01*
X4135785Y-11230938D02*
X4135785Y-11310938D01*
X4095785Y-11270938D02*
X4175785Y-11270938D01*
X4135785Y-12246938D02*
X4135785Y-12326938D01*
X4095785Y-12286938D02*
X4175785Y-12286938D01*
X9085785Y-7768138D02*
X9085785Y-7848138D01*
X9045785Y-7808138D02*
X9125785Y-7808138D01*
X10101785Y-7768138D02*
X10101785Y-7848138D01*
X10061785Y-7808138D02*
X10141785Y-7808138D01*
X16451785Y-6663938D02*
X16451785Y-6743938D01*
X16411785Y-6703938D02*
X16491785Y-6703938D01*
X17467785Y-6663938D02*
X17467785Y-6743938D01*
X17427785Y-6703938D02*
X17507785Y-6703938D01*
X19650785Y-5851938D02*
X19650785Y-5931938D01*
X19610785Y-5891938D02*
X19690785Y-5891938D01*
X20150785Y-5851938D02*
X20150785Y-5931938D01*
X20110785Y-5891938D02*
X20190785Y-5891938D01*
X5021785Y-4516938D02*
X5021785Y-4596938D01*
X4981785Y-4556938D02*
X5061785Y-4556938D01*
X5021785Y-4770938D02*
X5021785Y-4850938D01*
X4981785Y-4810938D02*
X5061785Y-4810938D01*
X5021785Y-5024938D02*
X5021785Y-5104938D01*
X4981785Y-5064938D02*
X5061785Y-5064938D01*
X5021785Y-5278938D02*
X5021785Y-5358938D01*
X4981785Y-5318938D02*
X5061785Y-5318938D01*
X5783785Y-4516938D02*
X5783785Y-4596938D01*
X5743785Y-4556938D02*
X5823785Y-4556938D01*
X5783785Y-4770938D02*
X5783785Y-4850938D01*
X5743785Y-4810938D02*
X5823785Y-4810938D01*
X5783785Y-5024938D02*
X5783785Y-5104938D01*
X5743785Y-5064938D02*
X5823785Y-5064938D01*
X5783785Y-5278938D02*
X5783785Y-5358938D01*
X5743785Y-5318938D02*
X5823785Y-5318938D01*
X7815785Y-8123738D02*
X7815785Y-8203738D01*
X7775785Y-8163738D02*
X7855785Y-8163738D01*
X8831785Y-8123738D02*
X8831785Y-8203738D01*
X8791785Y-8163738D02*
X8871785Y-8163738D01*
X9535785Y-11730938D02*
X9535785Y-11810938D01*
X9495785Y-11770938D02*
X9575785Y-11770938D01*
X9535785Y-12746938D02*
X9535785Y-12826938D01*
X9495785Y-12786938D02*
X9575785Y-12786938D01*
X13180785Y-3511938D02*
X13180785Y-3591938D01*
X13140785Y-3551938D02*
X13220785Y-3551938D01*
X14196785Y-3511938D02*
X14196785Y-3591938D01*
X14156785Y-3551938D02*
X14236785Y-3551938D01*
X9085785Y-8123738D02*
X9085785Y-8203738D01*
X9045785Y-8163738D02*
X9125785Y-8163738D01*
X10101785Y-8123738D02*
X10101785Y-8203738D01*
X10061785Y-8163738D02*
X10141785Y-8163738D01*
X4485785Y-8796938D02*
X4485785Y-8876938D01*
X4445785Y-8836938D02*
X4525785Y-8836938D01*
X4485785Y-9812938D02*
X4485785Y-9892938D01*
X4445785Y-9852938D02*
X4525785Y-9852938D01*
X4135785Y-8046938D02*
X4135785Y-8126938D01*
X4095785Y-8086938D02*
X4175785Y-8086938D01*
X4135785Y-9062938D02*
X4135785Y-9142938D01*
X4095785Y-9102938D02*
X4175785Y-9102938D01*
X13435785Y-4046938D02*
X13435785Y-4126938D01*
X13395785Y-4086938D02*
X13475785Y-4086938D01*
X13435785Y-5062938D02*
X13435785Y-5142938D01*
X13395785Y-5102938D02*
X13475785Y-5102938D01*
X8285785Y-3946938D02*
X8285785Y-4026938D01*
X8245785Y-3986938D02*
X8325785Y-3986938D01*
X8785785Y-3946938D02*
X8785785Y-4026938D01*
X8745785Y-3986938D02*
X8825785Y-3986938D01*
X5156785Y-3831138D02*
X5156785Y-3911138D01*
X5116785Y-3871138D02*
X5196785Y-3871138D01*
X5656785Y-3831138D02*
X5656785Y-3911138D01*
X5616785Y-3871138D02*
X5696785Y-3871138D01*
X13799785Y-4991938D02*
X13799785Y-5071938D01*
X13759785Y-5031938D02*
X13839785Y-5031938D01*
X14815785Y-4991938D02*
X14815785Y-5071938D01*
X14775785Y-5031938D02*
X14855785Y-5031938D01*
X19170785Y-8920938D02*
X19170785Y-9000938D01*
X19130785Y-8960938D02*
X19210785Y-8960938D01*
X19170785Y-9936938D02*
X19170785Y-10016938D01*
X19130785Y-9976938D02*
X19210785Y-9976938D01*
X7985785Y-11730938D02*
X7985785Y-11810938D01*
X7945785Y-11770938D02*
X8025785Y-11770938D01*
X7985785Y-12746938D02*
X7985785Y-12826938D01*
X7945785Y-12786938D02*
X8025785Y-12786938D01*
X6969785Y-3946938D02*
X6969785Y-4026938D01*
X6929785Y-3986938D02*
X7009785Y-3986938D01*
X7985785Y-3946938D02*
X7985785Y-4026938D01*
X7945785Y-3986938D02*
X8025785Y-3986938D01*
X19650785Y-8411938D02*
X19650785Y-8491938D01*
X19610785Y-8451938D02*
X19690785Y-8451938D01*
X20150785Y-8411938D02*
X20150785Y-8491938D01*
X20110785Y-8451938D02*
X20190785Y-8451938D01*
X7085785Y-8446938D02*
X7085785Y-8526938D01*
X7045785Y-8486938D02*
X7125785Y-8486938D01*
X7585785Y-8446938D02*
X7585785Y-8526938D01*
X7545785Y-8486938D02*
X7625785Y-8486938D01*
X19650785Y-3471938D02*
X19650785Y-3551938D01*
X19610785Y-3511938D02*
X19690785Y-3511938D01*
X20150785Y-3471938D02*
X20150785Y-3551938D01*
X20110785Y-3511938D02*
X20190785Y-3511938D01*
X4640785Y-4440738D02*
X4640785Y-4520738D01*
X4600785Y-4480738D02*
X4680785Y-4480738D01*
X4640785Y-5456738D02*
X4640785Y-5536738D01*
X4600785Y-5496738D02*
X4680785Y-5496738D01*
X6435785Y-11730938D02*
X6435785Y-11810938D01*
X6395785Y-11770938D02*
X6475785Y-11770938D01*
X6435785Y-12746938D02*
X6435785Y-12826938D01*
X6395785Y-12786938D02*
X6475785Y-12786938D01*
X19170785Y-11290938D02*
X19170785Y-11370938D01*
X19130785Y-11330938D02*
X19210785Y-11330938D01*
X19170785Y-12306938D02*
X19170785Y-12386938D01*
X19130785Y-12346938D02*
X19210785Y-12346938D01*
X5559785Y-9246938D02*
X5559785Y-9326938D01*
X5519785Y-9286938D02*
X5599785Y-9286938D01*
X5559785Y-10770938D02*
X5559785Y-10850938D01*
X5519785Y-10810938D02*
X5599785Y-10810938D01*
X5813785Y-9246938D02*
X5813785Y-9326938D01*
X5773785Y-9286938D02*
X5853785Y-9286938D01*
X5813785Y-10770938D02*
X5813785Y-10850938D01*
X5773785Y-10810938D02*
X5853785Y-10810938D01*
X6067785Y-9246938D02*
X6067785Y-9326938D01*
X6027785Y-9286938D02*
X6107785Y-9286938D01*
X6067785Y-10770938D02*
X6067785Y-10850938D01*
X6027785Y-10810938D02*
X6107785Y-10810938D01*
X6321785Y-9246938D02*
X6321785Y-9326938D01*
X6281785Y-9286938D02*
X6361785Y-9286938D01*
X6321785Y-10770938D02*
X6321785Y-10850938D01*
X6281785Y-10810938D02*
X6361785Y-10810938D01*
X6575785Y-9246938D02*
X6575785Y-9326938D01*
X6535785Y-9286938D02*
X6615785Y-9286938D01*
X6575785Y-10770938D02*
X6575785Y-10850938D01*
X6535785Y-10810938D02*
X6615785Y-10810938D01*
X6829785Y-9246938D02*
X6829785Y-9326938D01*
X6789785Y-9286938D02*
X6869785Y-9286938D01*
X6829785Y-10770938D02*
X6829785Y-10850938D01*
X6789785Y-10810938D02*
X6869785Y-10810938D01*
X7083785Y-9246938D02*
X7083785Y-9326938D01*
X7043785Y-9286938D02*
X7123785Y-9286938D01*
X7083785Y-10770938D02*
X7083785Y-10850938D01*
X7043785Y-10810938D02*
X7123785Y-10810938D01*
X7337785Y-9246938D02*
X7337785Y-9326938D01*
X7297785Y-9286938D02*
X7377785Y-9286938D01*
X7337785Y-10770938D02*
X7337785Y-10850938D01*
X7297785Y-10810938D02*
X7377785Y-10810938D01*
X7591785Y-9246938D02*
X7591785Y-9326938D01*
X7551785Y-9286938D02*
X7631785Y-9286938D01*
X7591785Y-10770938D02*
X7591785Y-10850938D01*
X7551785Y-10810938D02*
X7631785Y-10810938D01*
X7845785Y-9246938D02*
X7845785Y-9326938D01*
X7805785Y-9286938D02*
X7885785Y-9286938D01*
X7845785Y-10770938D02*
X7845785Y-10850938D01*
X7805785Y-10810938D02*
X7885785Y-10810938D01*
X8099785Y-9246938D02*
X8099785Y-9326938D01*
X8059785Y-9286938D02*
X8139785Y-9286938D01*
X8099785Y-10770938D02*
X8099785Y-10850938D01*
X8059785Y-10810938D02*
X8139785Y-10810938D01*
X8353785Y-9246938D02*
X8353785Y-9326938D01*
X8313785Y-9286938D02*
X8393785Y-9286938D01*
X8353785Y-10770938D02*
X8353785Y-10850938D01*
X8313785Y-10810938D02*
X8393785Y-10810938D01*
X8607785Y-9246938D02*
X8607785Y-9326938D01*
X8567785Y-9286938D02*
X8647785Y-9286938D01*
X8607785Y-10770938D02*
X8607785Y-10850938D01*
X8567785Y-10810938D02*
X8647785Y-10810938D01*
X8861785Y-9246938D02*
X8861785Y-9326938D01*
X8821785Y-9286938D02*
X8901785Y-9286938D01*
X8861785Y-10770938D02*
X8861785Y-10850938D01*
X8821785Y-10810938D02*
X8901785Y-10810938D01*
X9115785Y-9246938D02*
X9115785Y-9326938D01*
X9075785Y-9286938D02*
X9155785Y-9286938D01*
X9115785Y-10770938D02*
X9115785Y-10850938D01*
X9075785Y-10810938D02*
X9155785Y-10810938D01*
X9369785Y-9246938D02*
X9369785Y-9326938D01*
X9329785Y-9286938D02*
X9409785Y-9286938D01*
X9369785Y-10770938D02*
X9369785Y-10850938D01*
X9329785Y-10810938D02*
X9409785Y-10810938D01*
X9623785Y-9246938D02*
X9623785Y-9326938D01*
X9583785Y-9286938D02*
X9663785Y-9286938D01*
X9623785Y-10770938D02*
X9623785Y-10850938D01*
X9583785Y-10810938D02*
X9663785Y-10810938D01*
X9877785Y-9246938D02*
X9877785Y-9326938D01*
X9837785Y-9286938D02*
X9917785Y-9286938D01*
X9877785Y-10770938D02*
X9877785Y-10850938D01*
X9837785Y-10810938D02*
X9917785Y-10810938D01*
X10131785Y-9246938D02*
X10131785Y-9326938D01*
X10091785Y-9286938D02*
X10171785Y-9286938D01*
X10131785Y-10770938D02*
X10131785Y-10850938D01*
X10091785Y-10810938D02*
X10171785Y-10810938D01*
X10385785Y-9246938D02*
X10385785Y-9326938D01*
X10345785Y-9286938D02*
X10425785Y-9286938D01*
X10385785Y-10770938D02*
X10385785Y-10850938D01*
X10345785Y-10810938D02*
X10425785Y-10810938D01*
X12743385Y-8352338D02*
X12743385Y-8432338D01*
X12703385Y-8392338D02*
X12783385Y-8392338D01*
X12743385Y-8852338D02*
X12743385Y-8932338D01*
X12703385Y-8892338D02*
X12783385Y-8892338D01*
X13035785Y-4046938D02*
X13035785Y-4126938D01*
X12995785Y-4086938D02*
X13075785Y-4086938D01*
X13035785Y-5062938D02*
X13035785Y-5142938D01*
X12995785Y-5102938D02*
X13075785Y-5102938D01*
X3935785Y-12696938D02*
X3935785Y-12776938D01*
X3895785Y-12736938D02*
X3975785Y-12736938D01*
X4951785Y-12696938D02*
X4951785Y-12776938D01*
X4911785Y-12736938D02*
X4991785Y-12736938D01*
X18035785Y-5446938D02*
X18035785Y-5526938D01*
X17995785Y-5486938D02*
X18075785Y-5486938D01*
X18035785Y-5946938D02*
X18035785Y-6026938D01*
X17995785Y-5986938D02*
X18075785Y-5986938D01*
X15588185Y-11070138D02*
X15588185Y-11150138D01*
X15548185Y-11110138D02*
X15628185Y-11110138D01*
X16604185Y-11070138D02*
X16604185Y-11150138D01*
X16564185Y-11110138D02*
X16644185Y-11110138D01*
X4359785Y-5746938D02*
X4359785Y-5826938D01*
X4319785Y-5786938D02*
X4399785Y-5786938D01*
X5375785Y-5746938D02*
X5375785Y-5826938D01*
X5335785Y-5786938D02*
X5415785Y-5786938D01*
X4885785Y-9096938D02*
X4885785Y-9176938D01*
X4845785Y-9136938D02*
X4925785Y-9136938D01*
X4885785Y-10112938D02*
X4885785Y-10192938D01*
X4845785Y-10152938D02*
X4925785Y-10152938D01*
X14284785Y-6802938D02*
X14284785Y-6882938D01*
X14244785Y-6842938D02*
X14324785Y-6842938D01*
X15300785Y-6802938D02*
X15300785Y-6882938D01*
X15260785Y-6842938D02*
X15340785Y-6842938D01*
X17235785Y-9546938D02*
X17235785Y-9626938D01*
X17195785Y-9586938D02*
X17275785Y-9586938D01*
X17735785Y-9546938D02*
X17735785Y-9626938D01*
X17695785Y-9586938D02*
X17775785Y-9586938D01*
X3165045Y-6329228D02*
X3165045Y-6409228D01*
X3125045Y-6369228D02*
X3205045Y-6369228D01*
X4181045Y-6329228D02*
X4181045Y-6409228D01*
X4141045Y-6369228D02*
X4221045Y-6369228D01*
X4135785Y-7696938D02*
X4135785Y-7776938D01*
X4095785Y-7736938D02*
X4175785Y-7736938D01*
X5151785Y-7696938D02*
X5151785Y-7776938D01*
X5111785Y-7736938D02*
X5191785Y-7736938D01*
X6619785Y-3546938D02*
X6619785Y-3626938D01*
X6579785Y-3586938D02*
X6659785Y-3586938D01*
X7635785Y-3546938D02*
X7635785Y-3626938D01*
X7595785Y-3586938D02*
X7675785Y-3586938D01*
X11335785Y-3946938D02*
X11335785Y-4026938D01*
X11295785Y-3986938D02*
X11375785Y-3986938D01*
X11835785Y-3946938D02*
X11835785Y-4026938D01*
X11795785Y-3986938D02*
X11875785Y-3986938D01*
X9238741Y-11450294D02*
X9238741Y-11379583D01*
X9168030Y-11379583D01*
X9168030Y-11450294D01*
X9238741Y-11450294D01*
X10238741Y-11450294D02*
X10238741Y-11379583D01*
X10168030Y-11379583D01*
X10168030Y-11450294D01*
X10238741Y-11450294D01*
X5595141Y-9068294D02*
X5595141Y-8997583D01*
X5524430Y-8997583D01*
X5524430Y-9068294D01*
X5595141Y-9068294D01*
X5595141Y-11100294D02*
X5595141Y-11029583D01*
X5524430Y-11029583D01*
X5524430Y-11100294D01*
X5595141Y-11100294D01*
X5849141Y-9068294D02*
X5849141Y-8997583D01*
X5778430Y-8997583D01*
X5778430Y-9068294D01*
X5849141Y-9068294D01*
X5849141Y-11100294D02*
X5849141Y-11029583D01*
X5778430Y-11029583D01*
X5778430Y-11100294D01*
X5849141Y-11100294D01*
X6103141Y-9068294D02*
X6103141Y-8997583D01*
X6032430Y-8997583D01*
X6032430Y-9068294D01*
X6103141Y-9068294D01*
X6103141Y-11100294D02*
X6103141Y-11029583D01*
X6032430Y-11029583D01*
X6032430Y-11100294D01*
X6103141Y-11100294D01*
X6357141Y-9068294D02*
X6357141Y-8997583D01*
X6286430Y-8997583D01*
X6286430Y-9068294D01*
X6357141Y-9068294D01*
X6357141Y-11100294D02*
X6357141Y-11029583D01*
X6286430Y-11029583D01*
X6286430Y-11100294D01*
X6357141Y-11100294D01*
X6611141Y-9068294D02*
X6611141Y-8997583D01*
X6540430Y-8997583D01*
X6540430Y-9068294D01*
X6611141Y-9068294D01*
X6611141Y-11100294D02*
X6611141Y-11029583D01*
X6540430Y-11029583D01*
X6540430Y-11100294D01*
X6611141Y-11100294D01*
X6865141Y-9068294D02*
X6865141Y-8997583D01*
X6794430Y-8997583D01*
X6794430Y-9068294D01*
X6865141Y-9068294D01*
X6865141Y-11100294D02*
X6865141Y-11029583D01*
X6794430Y-11029583D01*
X6794430Y-11100294D01*
X6865141Y-11100294D01*
X7119141Y-9068294D02*
X7119141Y-8997583D01*
X7048430Y-8997583D01*
X7048430Y-9068294D01*
X7119141Y-9068294D01*
X7119141Y-11100294D02*
X7119141Y-11029583D01*
X7048430Y-11029583D01*
X7048430Y-11100294D01*
X7119141Y-11100294D01*
X7373141Y-9068294D02*
X7373141Y-8997583D01*
X7302430Y-8997583D01*
X7302430Y-9068294D01*
X7373141Y-9068294D01*
X7373141Y-11100294D02*
X7373141Y-11029583D01*
X7302430Y-11029583D01*
X7302430Y-11100294D01*
X7373141Y-11100294D01*
X7627141Y-9068294D02*
X7627141Y-8997583D01*
X7556430Y-8997583D01*
X7556430Y-9068294D01*
X7627141Y-9068294D01*
X7627141Y-11100294D02*
X7627141Y-11029583D01*
X7556430Y-11029583D01*
X7556430Y-11100294D01*
X7627141Y-11100294D01*
X7881141Y-9068294D02*
X7881141Y-8997583D01*
X7810430Y-8997583D01*
X7810430Y-9068294D01*
X7881141Y-9068294D01*
X7881141Y-11100294D02*
X7881141Y-11029583D01*
X7810430Y-11029583D01*
X7810430Y-11100294D01*
X7881141Y-11100294D01*
X8135141Y-9068294D02*
X8135141Y-8997583D01*
X8064430Y-8997583D01*
X8064430Y-9068294D01*
X8135141Y-9068294D01*
X8135141Y-11100294D02*
X8135141Y-11029583D01*
X8064430Y-11029583D01*
X8064430Y-11100294D01*
X8135141Y-11100294D01*
X8389141Y-9068294D02*
X8389141Y-8997583D01*
X8318430Y-8997583D01*
X8318430Y-9068294D01*
X8389141Y-9068294D01*
X8389141Y-11100294D02*
X8389141Y-11029583D01*
X8318430Y-11029583D01*
X8318430Y-11100294D01*
X8389141Y-11100294D01*
X8643141Y-9068294D02*
X8643141Y-8997583D01*
X8572430Y-8997583D01*
X8572430Y-9068294D01*
X8643141Y-9068294D01*
X8643141Y-11100294D02*
X8643141Y-11029583D01*
X8572430Y-11029583D01*
X8572430Y-11100294D01*
X8643141Y-11100294D01*
X8897141Y-9068294D02*
X8897141Y-8997583D01*
X8826430Y-8997583D01*
X8826430Y-9068294D01*
X8897141Y-9068294D01*
X8897141Y-11100294D02*
X8897141Y-11029583D01*
X8826430Y-11029583D01*
X8826430Y-11100294D01*
X8897141Y-11100294D01*
X9151141Y-9068294D02*
X9151141Y-8997583D01*
X9080430Y-8997583D01*
X9080430Y-9068294D01*
X9151141Y-9068294D01*
X9151141Y-11100294D02*
X9151141Y-11029583D01*
X9080430Y-11029583D01*
X9080430Y-11100294D01*
X9151141Y-11100294D01*
X9405141Y-9068294D02*
X9405141Y-8997583D01*
X9334430Y-8997583D01*
X9334430Y-9068294D01*
X9405141Y-9068294D01*
X9405141Y-11100294D02*
X9405141Y-11029583D01*
X9334430Y-11029583D01*
X9334430Y-11100294D01*
X9405141Y-11100294D01*
X9659141Y-9068294D02*
X9659141Y-8997583D01*
X9588430Y-8997583D01*
X9588430Y-9068294D01*
X9659141Y-9068294D01*
X9659141Y-11100294D02*
X9659141Y-11029583D01*
X9588430Y-11029583D01*
X9588430Y-11100294D01*
X9659141Y-11100294D01*
X9913141Y-9068294D02*
X9913141Y-8997583D01*
X9842430Y-8997583D01*
X9842430Y-9068294D01*
X9913141Y-9068294D01*
X9913141Y-11100294D02*
X9913141Y-11029583D01*
X9842430Y-11029583D01*
X9842430Y-11100294D01*
X9913141Y-11100294D01*
X10167141Y-9068294D02*
X10167141Y-8997583D01*
X10096430Y-8997583D01*
X10096430Y-9068294D01*
X10167141Y-9068294D01*
X10167141Y-11100294D02*
X10167141Y-11029583D01*
X10096430Y-11029583D01*
X10096430Y-11100294D01*
X10167141Y-11100294D01*
X10421141Y-9068294D02*
X10421141Y-8997583D01*
X10350430Y-8997583D01*
X10350430Y-9068294D01*
X10421141Y-9068294D01*
X10421141Y-11100294D02*
X10421141Y-11029583D01*
X10350430Y-11029583D01*
X10350430Y-11100294D01*
X10421141Y-11100294D01*
X14666141Y-8187294D02*
X14666141Y-8116583D01*
X14595430Y-8116583D01*
X14595430Y-8187294D01*
X14666141Y-8187294D01*
X14666141Y-9187294D02*
X14666141Y-9116583D01*
X14595430Y-9116583D01*
X14595430Y-9187294D01*
X14666141Y-9187294D01*
X8111141Y-8572294D02*
X8111141Y-8501583D01*
X8040430Y-8501583D01*
X8040430Y-8572294D01*
X8111141Y-8572294D01*
X8365141Y-8572294D02*
X8365141Y-8501583D01*
X8294430Y-8501583D01*
X8294430Y-8572294D01*
X8365141Y-8572294D01*
X8619141Y-8572294D02*
X8619141Y-8501583D01*
X8548430Y-8501583D01*
X8548430Y-8572294D01*
X8619141Y-8572294D01*
X8873141Y-8572294D02*
X8873141Y-8501583D01*
X8802430Y-8501583D01*
X8802430Y-8572294D01*
X8873141Y-8572294D01*
X9127141Y-8572294D02*
X9127141Y-8501583D01*
X9056430Y-8501583D01*
X9056430Y-8572294D01*
X9127141Y-8572294D01*
X9381141Y-8572294D02*
X9381141Y-8501583D01*
X9310430Y-8501583D01*
X9310430Y-8572294D01*
X9381141Y-8572294D01*
X9635141Y-8572294D02*
X9635141Y-8501583D01*
X9564430Y-8501583D01*
X9564430Y-8572294D01*
X9635141Y-8572294D01*
X9889141Y-8572294D02*
X9889141Y-8501583D01*
X9818430Y-8501583D01*
X9818430Y-8572294D01*
X9889141Y-8572294D01*
X10143141Y-8572294D02*
X10143141Y-8501583D01*
X10072430Y-8501583D01*
X10072430Y-8572294D01*
X10143141Y-8572294D01*
X10397141Y-8572294D02*
X10397141Y-8501583D01*
X10326430Y-8501583D01*
X10326430Y-8572294D01*
X10397141Y-8572294D01*
X10651141Y-8572294D02*
X10651141Y-8501583D01*
X10580430Y-8501583D01*
X10580430Y-8572294D01*
X10651141Y-8572294D01*
X10905141Y-8572294D02*
X10905141Y-8501583D01*
X10834430Y-8501583D01*
X10834430Y-8572294D01*
X10905141Y-8572294D01*
X11159141Y-8572294D02*
X11159141Y-8501583D01*
X11088430Y-8501583D01*
X11088430Y-8572294D01*
X11159141Y-8572294D01*
X11413141Y-8572294D02*
X11413141Y-8501583D01*
X11342430Y-8501583D01*
X11342430Y-8572294D01*
X11413141Y-8572294D01*
X11667141Y-8572294D02*
X11667141Y-8501583D01*
X11596430Y-8501583D01*
X11596430Y-8572294D01*
X11667141Y-8572294D01*
X11921141Y-8572294D02*
X11921141Y-8501583D01*
X11850430Y-8501583D01*
X11850430Y-8572294D01*
X11921141Y-8572294D01*
X3901941Y-3792194D02*
X3901941Y-3721483D01*
X3831230Y-3721483D01*
X3831230Y-3792194D01*
X3901941Y-3792194D01*
X4091941Y-3792194D02*
X4091941Y-3721483D01*
X4021230Y-3721483D01*
X4021230Y-3792194D01*
X4091941Y-3792194D01*
X17116141Y-3857294D02*
X17116141Y-3786583D01*
X17045430Y-3786583D01*
X17045430Y-3857294D01*
X17116141Y-3857294D01*
X17466141Y-4377294D02*
X17466141Y-4306583D01*
X17395430Y-4306583D01*
X17395430Y-4377294D01*
X17466141Y-4377294D01*
X4821141Y-10622294D02*
X4821141Y-10551583D01*
X4750430Y-10551583D01*
X4750430Y-10622294D01*
X4821141Y-10622294D01*
X4821141Y-10876294D02*
X4821141Y-10805583D01*
X4750430Y-10805583D01*
X4750430Y-10876294D01*
X4821141Y-10876294D01*
X12181141Y-4237294D02*
X12181141Y-4166583D01*
X12110430Y-4166583D01*
X12110430Y-4237294D01*
X12181141Y-4237294D01*
X12181141Y-4491294D02*
X12181141Y-4420583D01*
X12110430Y-4420583D01*
X12110430Y-4491294D01*
X12181141Y-4491294D01*
X12181141Y-4745294D02*
X12181141Y-4674583D01*
X12110430Y-4674583D01*
X12110430Y-4745294D01*
X12181141Y-4745294D01*
X12181141Y-4999294D02*
X12181141Y-4928583D01*
X12110430Y-4928583D01*
X12110430Y-4999294D01*
X12181141Y-4999294D01*
X17321141Y-8602294D02*
X17321141Y-8531583D01*
X17250430Y-8531583D01*
X17250430Y-8602294D01*
X17321141Y-8602294D01*
X17671141Y-9122294D02*
X17671141Y-9051583D01*
X17600430Y-9051583D01*
X17600430Y-9122294D01*
X17671141Y-9122294D01*
X5871141Y-8522294D02*
X5871141Y-8451583D01*
X5800430Y-8451583D01*
X5800430Y-8522294D01*
X5871141Y-8522294D01*
X6125141Y-8522294D02*
X6125141Y-8451583D01*
X6054430Y-8451583D01*
X6054430Y-8522294D01*
X6125141Y-8522294D01*
X6121141Y-8122294D02*
X6121141Y-8051583D01*
X6050430Y-8051583D01*
X6050430Y-8122294D01*
X6121141Y-8122294D01*
X6375141Y-8122294D02*
X6375141Y-8051583D01*
X6304430Y-8051583D01*
X6304430Y-8122294D01*
X6375141Y-8122294D01*
X6629141Y-8122294D02*
X6629141Y-8051583D01*
X6558430Y-8051583D01*
X6558430Y-8122294D01*
X6629141Y-8122294D01*
X17452341Y-11555194D02*
X17452341Y-11484483D01*
X17381630Y-11484483D01*
X17381630Y-11555194D01*
X17452341Y-11555194D01*
X17452341Y-12555194D02*
X17452341Y-12484483D01*
X17381630Y-12484483D01*
X17381630Y-12555194D01*
X17452341Y-12555194D01*
X4244341Y-4236694D02*
X4244341Y-4165983D01*
X4173630Y-4165983D01*
X4173630Y-4236694D01*
X4244341Y-4236694D01*
X4244341Y-5236694D02*
X4244341Y-5165983D01*
X4173630Y-5165983D01*
X4173630Y-5236694D01*
X4244341Y-5236694D01*
X16467341Y-11908194D02*
X16467341Y-11837483D01*
X16396630Y-11837483D01*
X16396630Y-11908194D01*
X16467341Y-11908194D01*
X16817341Y-12428194D02*
X16817341Y-12357483D01*
X16746630Y-12357483D01*
X16746630Y-12428194D01*
X16817341Y-12428194D01*
X18641141Y-4222294D02*
X18641141Y-4151583D01*
X18570430Y-4151583D01*
X18570430Y-4222294D01*
X18641141Y-4222294D01*
X18641141Y-5222294D02*
X18641141Y-5151583D01*
X18570430Y-5151583D01*
X18570430Y-5222294D01*
X18641141Y-5222294D01*
X18641141Y-6605627D02*
X18641141Y-6534916D01*
X18570430Y-6534916D01*
X18570430Y-6605627D01*
X18641141Y-6605627D01*
X18641141Y-7605627D02*
X18641141Y-7534916D01*
X18570430Y-7534916D01*
X18570430Y-7605627D01*
X18641141Y-7605627D01*
X8011141Y-3672294D02*
X8011141Y-3601583D01*
X7940430Y-3601583D01*
X7940430Y-3672294D01*
X8011141Y-3672294D01*
X8265141Y-3672294D02*
X8265141Y-3601583D01*
X8194430Y-3601583D01*
X8194430Y-3672294D01*
X8265141Y-3672294D01*
X8519141Y-3672294D02*
X8519141Y-3601583D01*
X8448430Y-3601583D01*
X8448430Y-3672294D01*
X8519141Y-3672294D01*
X8773141Y-3672294D02*
X8773141Y-3601583D01*
X8702430Y-3601583D01*
X8702430Y-3672294D01*
X8773141Y-3672294D01*
X9027141Y-3672294D02*
X9027141Y-3601583D01*
X8956430Y-3601583D01*
X8956430Y-3672294D01*
X9027141Y-3672294D01*
X9281141Y-3672294D02*
X9281141Y-3601583D01*
X9210430Y-3601583D01*
X9210430Y-3672294D01*
X9281141Y-3672294D01*
X9535141Y-3672294D02*
X9535141Y-3601583D01*
X9464430Y-3601583D01*
X9464430Y-3672294D01*
X9535141Y-3672294D01*
X9789141Y-3672294D02*
X9789141Y-3601583D01*
X9718430Y-3601583D01*
X9718430Y-3672294D01*
X9789141Y-3672294D01*
X10043141Y-3672294D02*
X10043141Y-3601583D01*
X9972430Y-3601583D01*
X9972430Y-3672294D01*
X10043141Y-3672294D01*
X10297141Y-3672294D02*
X10297141Y-3601583D01*
X10226430Y-3601583D01*
X10226430Y-3672294D01*
X10297141Y-3672294D01*
X10551141Y-3672294D02*
X10551141Y-3601583D01*
X10480430Y-3601583D01*
X10480430Y-3672294D01*
X10551141Y-3672294D01*
X10805141Y-3672294D02*
X10805141Y-3601583D01*
X10734430Y-3601583D01*
X10734430Y-3672294D01*
X10805141Y-3672294D01*
X11059141Y-3672294D02*
X11059141Y-3601583D01*
X10988430Y-3601583D01*
X10988430Y-3672294D01*
X11059141Y-3672294D01*
X11313141Y-3672294D02*
X11313141Y-3601583D01*
X11242430Y-3601583D01*
X11242430Y-3672294D01*
X11313141Y-3672294D01*
X11567141Y-3672294D02*
X11567141Y-3601583D01*
X11496430Y-3601583D01*
X11496430Y-3672294D01*
X11567141Y-3672294D01*
X11821141Y-3672294D02*
X11821141Y-3601583D01*
X11750430Y-3601583D01*
X11750430Y-3672294D01*
X11821141Y-3672294D01*
X6721141Y-4344294D02*
X6721141Y-4273583D01*
X6650430Y-4273583D01*
X6650430Y-4344294D01*
X6721141Y-4344294D01*
X6721141Y-6376294D02*
X6721141Y-6305583D01*
X6650430Y-6305583D01*
X6650430Y-6376294D01*
X6721141Y-6376294D01*
X6975141Y-4344294D02*
X6975141Y-4273583D01*
X6904430Y-4273583D01*
X6904430Y-4344294D01*
X6975141Y-4344294D01*
X6975141Y-6376294D02*
X6975141Y-6305583D01*
X6904430Y-6305583D01*
X6904430Y-6376294D01*
X6975141Y-6376294D01*
X7229141Y-4344294D02*
X7229141Y-4273583D01*
X7158430Y-4273583D01*
X7158430Y-4344294D01*
X7229141Y-4344294D01*
X7229141Y-6376294D02*
X7229141Y-6305583D01*
X7158430Y-6305583D01*
X7158430Y-6376294D01*
X7229141Y-6376294D01*
X7483141Y-4344294D02*
X7483141Y-4273583D01*
X7412430Y-4273583D01*
X7412430Y-4344294D01*
X7483141Y-4344294D01*
X7483141Y-6376294D02*
X7483141Y-6305583D01*
X7412430Y-6305583D01*
X7412430Y-6376294D01*
X7483141Y-6376294D01*
X7737141Y-4344294D02*
X7737141Y-4273583D01*
X7666430Y-4273583D01*
X7666430Y-4344294D01*
X7737141Y-4344294D01*
X7737141Y-6376294D02*
X7737141Y-6305583D01*
X7666430Y-6305583D01*
X7666430Y-6376294D01*
X7737141Y-6376294D01*
X7991141Y-4344294D02*
X7991141Y-4273583D01*
X7920430Y-4273583D01*
X7920430Y-4344294D01*
X7991141Y-4344294D01*
X7991141Y-6376294D02*
X7991141Y-6305583D01*
X7920430Y-6305583D01*
X7920430Y-6376294D01*
X7991141Y-6376294D01*
X8245141Y-4344294D02*
X8245141Y-4273583D01*
X8174430Y-4273583D01*
X8174430Y-4344294D01*
X8245141Y-4344294D01*
X8245141Y-6376294D02*
X8245141Y-6305583D01*
X8174430Y-6305583D01*
X8174430Y-6376294D01*
X8245141Y-6376294D01*
X8499141Y-4344294D02*
X8499141Y-4273583D01*
X8428430Y-4273583D01*
X8428430Y-4344294D01*
X8499141Y-4344294D01*
X8499141Y-6376294D02*
X8499141Y-6305583D01*
X8428430Y-6305583D01*
X8428430Y-6376294D01*
X8499141Y-6376294D01*
X8753141Y-4344294D02*
X8753141Y-4273583D01*
X8682430Y-4273583D01*
X8682430Y-4344294D01*
X8753141Y-4344294D01*
X8753141Y-6376294D02*
X8753141Y-6305583D01*
X8682430Y-6305583D01*
X8682430Y-6376294D01*
X8753141Y-6376294D01*
X9007141Y-4344294D02*
X9007141Y-4273583D01*
X8936430Y-4273583D01*
X8936430Y-4344294D01*
X9007141Y-4344294D01*
X9007141Y-6376294D02*
X9007141Y-6305583D01*
X8936430Y-6305583D01*
X8936430Y-6376294D01*
X9007141Y-6376294D01*
X9261141Y-4344294D02*
X9261141Y-4273583D01*
X9190430Y-4273583D01*
X9190430Y-4344294D01*
X9261141Y-4344294D01*
X9261141Y-6376294D02*
X9261141Y-6305583D01*
X9190430Y-6305583D01*
X9190430Y-6376294D01*
X9261141Y-6376294D01*
X9515141Y-4344294D02*
X9515141Y-4273583D01*
X9444430Y-4273583D01*
X9444430Y-4344294D01*
X9515141Y-4344294D01*
X9515141Y-6376294D02*
X9515141Y-6305583D01*
X9444430Y-6305583D01*
X9444430Y-6376294D01*
X9515141Y-6376294D01*
X9769141Y-4344294D02*
X9769141Y-4273583D01*
X9698430Y-4273583D01*
X9698430Y-4344294D01*
X9769141Y-4344294D01*
X9769141Y-6376294D02*
X9769141Y-6305583D01*
X9698430Y-6305583D01*
X9698430Y-6376294D01*
X9769141Y-6376294D01*
X10023141Y-4344294D02*
X10023141Y-4273583D01*
X9952430Y-4273583D01*
X9952430Y-4344294D01*
X10023141Y-4344294D01*
X10023141Y-6376294D02*
X10023141Y-6305583D01*
X9952430Y-6305583D01*
X9952430Y-6376294D01*
X10023141Y-6376294D01*
X10277141Y-4344294D02*
X10277141Y-4273583D01*
X10206430Y-4273583D01*
X10206430Y-4344294D01*
X10277141Y-4344294D01*
X10277141Y-6376294D02*
X10277141Y-6305583D01*
X10206430Y-6305583D01*
X10206430Y-6376294D01*
X10277141Y-6376294D01*
X10531141Y-4344294D02*
X10531141Y-4273583D01*
X10460430Y-4273583D01*
X10460430Y-4344294D01*
X10531141Y-4344294D01*
X10531141Y-6376294D02*
X10531141Y-6305583D01*
X10460430Y-6305583D01*
X10460430Y-6376294D01*
X10531141Y-6376294D01*
X10785141Y-4344294D02*
X10785141Y-4273583D01*
X10714430Y-4273583D01*
X10714430Y-4344294D01*
X10785141Y-4344294D01*
X10785141Y-6376294D02*
X10785141Y-6305583D01*
X10714430Y-6305583D01*
X10714430Y-6376294D01*
X10785141Y-6376294D01*
X11039141Y-4344294D02*
X11039141Y-4273583D01*
X10968430Y-4273583D01*
X10968430Y-4344294D01*
X11039141Y-4344294D01*
X11039141Y-6376294D02*
X11039141Y-6305583D01*
X10968430Y-6305583D01*
X10968430Y-6376294D01*
X11039141Y-6376294D01*
X11293141Y-4344294D02*
X11293141Y-4273583D01*
X11222430Y-4273583D01*
X11222430Y-4344294D01*
X11293141Y-4344294D01*
X11293141Y-6376294D02*
X11293141Y-6305583D01*
X11222430Y-6305583D01*
X11222430Y-6376294D01*
X11293141Y-6376294D01*
X11547141Y-4344294D02*
X11547141Y-4273583D01*
X11476430Y-4273583D01*
X11476430Y-4344294D01*
X11547141Y-4344294D01*
X11547141Y-6376294D02*
X11547141Y-6305583D01*
X11476430Y-6305583D01*
X11476430Y-6376294D01*
X11547141Y-6376294D01*
X15225141Y-5100294D02*
X15225141Y-5029583D01*
X15154430Y-5029583D01*
X15154430Y-5100294D01*
X15225141Y-5100294D01*
X16225141Y-5100294D02*
X16225141Y-5029583D01*
X16154430Y-5029583D01*
X16154430Y-5100294D01*
X16225141Y-5100294D01*
X15311141Y-3857294D02*
X15311141Y-3786583D01*
X15240430Y-3786583D01*
X15240430Y-3857294D01*
X15311141Y-3857294D01*
X15661141Y-4377294D02*
X15661141Y-4306583D01*
X15590430Y-4306583D01*
X15590430Y-4377294D01*
X15661141Y-4377294D01*
X17985741Y-11567894D02*
X17985741Y-11497183D01*
X17915030Y-11497183D01*
X17915030Y-11567894D01*
X17985741Y-11567894D01*
X17985741Y-12567894D02*
X17985741Y-12497183D01*
X17915030Y-12497183D01*
X17915030Y-12567894D01*
X17985741Y-12567894D01*
X16352141Y-3547294D02*
X16352141Y-3476583D01*
X16281430Y-3476583D01*
X16281430Y-3547294D01*
X16352141Y-3547294D01*
X16352141Y-4547294D02*
X16352141Y-4476583D01*
X16281430Y-4476583D01*
X16281430Y-4547294D01*
X16352141Y-4547294D01*
X16763641Y-8187294D02*
X16763641Y-8116583D01*
X16692930Y-8116583D01*
X16692930Y-8187294D01*
X16763641Y-8187294D01*
X16763641Y-9187294D02*
X16763641Y-9116583D01*
X16692930Y-9116583D01*
X16692930Y-9187294D01*
X16763641Y-9187294D01*
X11271141Y-6872294D02*
X11271141Y-6801583D01*
X11200430Y-6801583D01*
X11200430Y-6872294D01*
X11271141Y-6872294D01*
X11525141Y-6872294D02*
X11525141Y-6801583D01*
X11454430Y-6801583D01*
X11454430Y-6872294D01*
X11525141Y-6872294D01*
X3821141Y-4244294D02*
X3821141Y-4173583D01*
X3750430Y-4173583D01*
X3750430Y-4244294D01*
X3821141Y-4244294D01*
X3821141Y-4498294D02*
X3821141Y-4427583D01*
X3750430Y-4427583D01*
X3750430Y-4498294D01*
X3821141Y-4498294D01*
X3821141Y-4752294D02*
X3821141Y-4681583D01*
X3750430Y-4681583D01*
X3750430Y-4752294D01*
X3821141Y-4752294D01*
X3821141Y-5006294D02*
X3821141Y-4935583D01*
X3750430Y-4935583D01*
X3750430Y-5006294D01*
X3821141Y-5006294D01*
X3821141Y-5260294D02*
X3821141Y-5189583D01*
X3750430Y-5189583D01*
X3750430Y-5260294D01*
X3821141Y-5260294D01*
X3821141Y-5514294D02*
X3821141Y-5443583D01*
X3750430Y-5443583D01*
X3750430Y-5514294D01*
X3821141Y-5514294D01*
X3821141Y-5768294D02*
X3821141Y-5697583D01*
X3750430Y-5697583D01*
X3750430Y-5768294D01*
X3821141Y-5768294D01*
X3821141Y-6022294D02*
X3821141Y-5951583D01*
X3750430Y-5951583D01*
X3750430Y-6022294D01*
X3821141Y-6022294D01*
X18571141Y-11372294D02*
X18571141Y-11301583D01*
X18500430Y-11301583D01*
X18500430Y-11372294D01*
X18571141Y-11372294D01*
X18571141Y-12372294D02*
X18571141Y-12301583D01*
X18500430Y-12301583D01*
X18500430Y-12372294D01*
X18571141Y-12372294D01*
X15251141Y-9682294D02*
X15251141Y-9611583D01*
X15180430Y-9611583D01*
X15180430Y-9682294D01*
X15251141Y-9682294D01*
X16251141Y-9682294D02*
X16251141Y-9611583D01*
X16180430Y-9611583D01*
X16180430Y-9682294D01*
X16251141Y-9682294D01*
X13078141Y-12017294D02*
X13078141Y-11946583D01*
X13007430Y-11946583D01*
X13007430Y-12017294D01*
X13078141Y-12017294D01*
X13332141Y-12017294D02*
X13332141Y-11946583D01*
X13261430Y-11946583D01*
X13261430Y-12017294D01*
X13332141Y-12017294D01*
X13586141Y-12017294D02*
X13586141Y-11946583D01*
X13515430Y-11946583D01*
X13515430Y-12017294D01*
X13586141Y-12017294D01*
X13840141Y-12017294D02*
X13840141Y-11946583D01*
X13769430Y-11946583D01*
X13769430Y-12017294D01*
X13840141Y-12017294D01*
X14094141Y-12017294D02*
X14094141Y-11946583D01*
X14023430Y-11946583D01*
X14023430Y-12017294D01*
X14094141Y-12017294D01*
X14348141Y-12017294D02*
X14348141Y-11946583D01*
X14277430Y-11946583D01*
X14277430Y-12017294D01*
X14348141Y-12017294D01*
X14602141Y-12017294D02*
X14602141Y-11946583D01*
X14531430Y-11946583D01*
X14531430Y-12017294D01*
X14602141Y-12017294D01*
X14856141Y-12017294D02*
X14856141Y-11946583D01*
X14785430Y-11946583D01*
X14785430Y-12017294D01*
X14856141Y-12017294D01*
X7021141Y-6872294D02*
X7021141Y-6801583D01*
X6950430Y-6801583D01*
X6950430Y-6872294D01*
X7021141Y-6872294D01*
X8021141Y-6872294D02*
X8021141Y-6801583D01*
X7950430Y-6801583D01*
X7950430Y-6872294D01*
X8021141Y-6872294D01*
X13566141Y-9672294D02*
X13566141Y-9601583D01*
X13495430Y-9601583D01*
X13495430Y-9672294D01*
X13566141Y-9672294D01*
X14566141Y-9672294D02*
X14566141Y-9601583D01*
X14495430Y-9601583D01*
X14495430Y-9672294D01*
X14566141Y-9672294D01*
X12221141Y-9092294D02*
X12221141Y-9021583D01*
X12150430Y-9021583D01*
X12150430Y-9092294D01*
X12221141Y-9092294D01*
X12221141Y-9346294D02*
X12221141Y-9275583D01*
X12150430Y-9275583D01*
X12150430Y-9346294D01*
X12221141Y-9346294D01*
X12221141Y-9600294D02*
X12221141Y-9529583D01*
X12150430Y-9529583D01*
X12150430Y-9600294D01*
X12221141Y-9600294D01*
X12221141Y-9854294D02*
X12221141Y-9783583D01*
X12150430Y-9783583D01*
X12150430Y-9854294D01*
X12221141Y-9854294D01*
X18671141Y-8988961D02*
X18671141Y-8918249D01*
X18600430Y-8918249D01*
X18600430Y-8988961D01*
X18671141Y-8988961D01*
X18671141Y-9988961D02*
X18671141Y-9918249D01*
X18600430Y-9918249D01*
X18600430Y-9988961D01*
X18671141Y-9988961D01*
X15696141Y-8602294D02*
X15696141Y-8531583D01*
X15625430Y-8531583D01*
X15625430Y-8602294D01*
X15696141Y-8602294D01*
X16046141Y-9122294D02*
X16046141Y-9051583D01*
X15975430Y-9051583D01*
X15975430Y-9122294D01*
X16046141Y-9122294D01*
X13598641Y-8602294D02*
X13598641Y-8531583D01*
X13527930Y-8531583D01*
X13527930Y-8602294D01*
X13598641Y-8602294D01*
X13948641Y-9122294D02*
X13948641Y-9051583D01*
X13877930Y-9051583D01*
X13877930Y-9122294D01*
X13948641Y-9122294D01*
X10271141Y-6822294D02*
X10271141Y-6751583D01*
X10200430Y-6751583D01*
X10200430Y-6822294D01*
X10271141Y-6822294D01*
X10525141Y-6822294D02*
X10525141Y-6751583D01*
X10454430Y-6751583D01*
X10454430Y-6822294D01*
X10525141Y-6822294D01*
X10779141Y-6822294D02*
X10779141Y-6751583D01*
X10708430Y-6751583D01*
X10708430Y-6822294D01*
X10779141Y-6822294D01*
X16431785Y-7193938D02*
X16486785Y-7138938D01*
X16431785Y-7083938D01*
X16376785Y-7138938D01*
X16431785Y-7193938D01*
X17447785Y-7193938D02*
X17502785Y-7138938D01*
X17447785Y-7083938D01*
X17392785Y-7138938D01*
X17447785Y-7193938D01*
X15168285Y-8230938D02*
X15223285Y-8175938D01*
X15168285Y-8120938D01*
X15113285Y-8175938D01*
X15168285Y-8230938D01*
X15168285Y-9246938D02*
X15223285Y-9191938D01*
X15168285Y-9136938D01*
X15113285Y-9191938D01*
X15168285Y-9246938D01*
X13070785Y-8230938D02*
X13125785Y-8175938D01*
X13070785Y-8120938D01*
X13015785Y-8175938D01*
X13070785Y-8230938D01*
X13070785Y-9246938D02*
X13125785Y-9191938D01*
X13070785Y-9136938D01*
X13015785Y-9191938D01*
X13070785Y-9246938D01*
X15981885Y-11533438D02*
X16036885Y-11478438D01*
X15981885Y-11423438D01*
X15926885Y-11478438D01*
X15981885Y-11533438D01*
X15981885Y-12549438D02*
X16036885Y-12494438D01*
X15981885Y-12439438D01*
X15926885Y-12494438D01*
X15981885Y-12549438D01*
X15400785Y-10495938D02*
X15455785Y-10440938D01*
X15400785Y-10385938D01*
X15345785Y-10440938D01*
X15400785Y-10495938D01*
X15654785Y-10495938D02*
X15709785Y-10440938D01*
X15654785Y-10385938D01*
X15599785Y-10440938D01*
X15654785Y-10495938D01*
X15908785Y-10495938D02*
X15963785Y-10440938D01*
X15908785Y-10385938D01*
X15853785Y-10440938D01*
X15908785Y-10495938D01*
X14792785Y-3595938D02*
X14847785Y-3540938D01*
X14792785Y-3485938D01*
X14737785Y-3540938D01*
X14792785Y-3595938D01*
X14792785Y-4611938D02*
X14847785Y-4556938D01*
X14792785Y-4501938D01*
X14737785Y-4556938D01*
X14792785Y-4611938D01*
X13400785Y-10495938D02*
X13455785Y-10440938D01*
X13400785Y-10385938D01*
X13345785Y-10440938D01*
X13400785Y-10495938D01*
X13654785Y-10495938D02*
X13709785Y-10440938D01*
X13654785Y-10385938D01*
X13599785Y-10440938D01*
X13654785Y-10495938D01*
X13908785Y-10495938D02*
X13963785Y-10440938D01*
X13908785Y-10385938D01*
X13853785Y-10440938D01*
X13908785Y-10495938D01*
X17100785Y-10495938D02*
X17155785Y-10440938D01*
X17100785Y-10385938D01*
X17045785Y-10440938D01*
X17100785Y-10495938D01*
X17354785Y-10495938D02*
X17409785Y-10440938D01*
X17354785Y-10385938D01*
X17299785Y-10440938D01*
X17354785Y-10495938D01*
X17608785Y-10495938D02*
X17663785Y-10440938D01*
X17608785Y-10385938D01*
X17553785Y-10440938D01*
X17608785Y-10495938D01*
X15500785Y-5795938D02*
X15555785Y-5740938D01*
X15500785Y-5685938D01*
X15445785Y-5740938D01*
X15500785Y-5795938D01*
X15754785Y-5795938D02*
X15809785Y-5740938D01*
X15754785Y-5685938D01*
X15699785Y-5740938D01*
X15754785Y-5795938D01*
X16008785Y-5795938D02*
X16063785Y-5740938D01*
X16008785Y-5685938D01*
X15953785Y-5740938D01*
X16008785Y-5795938D01*
X16945785Y-5805938D02*
X17000785Y-5750938D01*
X16945785Y-5695938D01*
X16890785Y-5750938D01*
X16945785Y-5805938D01*
X17199785Y-5805938D02*
X17254785Y-5750938D01*
X17199785Y-5695938D01*
X17144785Y-5750938D01*
X17199785Y-5805938D01*
X17453785Y-5805938D02*
X17508785Y-5750938D01*
X17453785Y-5695938D01*
X17398785Y-5750938D01*
X17453785Y-5805938D01*
X17188385Y-11165138D02*
X17243385Y-11110138D01*
X17188385Y-11055138D01*
X17133385Y-11110138D01*
X17188385Y-11165138D01*
X17442385Y-11165138D02*
X17497385Y-11110138D01*
X17442385Y-11055138D01*
X17387385Y-11110138D01*
X17442385Y-11165138D01*
X17696385Y-11165138D02*
X17751385Y-11110138D01*
X17696385Y-11055138D01*
X17641385Y-11110138D01*
X17696385Y-11165138D01*
X12302385Y-5487538D02*
X12422385Y-5607538D01*
X12422385Y-5487538D02*
X12302385Y-5607538D01*
X12422385Y-5547538D02*
G75*
G03X12422385Y-5547538I-60000J0D01*
G01*
X12302385Y-5995538D02*
X12422385Y-6115538D01*
X12422385Y-5995538D02*
X12302385Y-6115538D01*
X12422385Y-6055538D02*
G75*
G03X12422385Y-6055538I-60000J0D01*
G01*
X13332385Y-5737538D02*
X13452385Y-5857538D01*
X13452385Y-5737538D02*
X13332385Y-5857538D01*
X13452385Y-5797538D02*
G75*
G03X13452385Y-5797538I-60000J0D01*
G01*
X10332585Y-7777538D02*
X10452585Y-7897538D01*
X10452585Y-7777538D02*
X10332585Y-7897538D01*
X10452585Y-7837538D02*
G75*
G03X10452585Y-7837538I-60000J0D01*
G01*
X11362585Y-7519538D02*
X11482585Y-7639538D01*
X11482585Y-7519538D02*
X11362585Y-7639538D01*
X11482585Y-7579538D02*
G75*
G03X11482585Y-7579538I-60000J0D01*
G01*
X11362585Y-8027538D02*
X11482585Y-8147538D01*
X11482585Y-8027538D02*
X11362585Y-8147538D01*
X11482585Y-8087538D02*
G75*
G03X11482585Y-8087538I-60000J0D01*
G01*
X18860785Y-12561938D02*
X19110785Y-12811938D01*
X19110785Y-12561938D02*
X18860785Y-12811938D01*
X18985785Y-12561938D02*
X18985785Y-12811938D01*
X18860785Y-12686938D02*
X19110785Y-12686938D01*
X3010785Y-3561938D02*
X3260785Y-3811938D01*
X3260785Y-3561938D02*
X3010785Y-3811938D01*
X3135785Y-3561938D02*
X3135785Y-3811938D01*
X3010785Y-3686938D02*
X3260785Y-3686938D01*
X4760785Y-8461938D02*
X5010785Y-8711938D01*
X5010785Y-8461938D02*
X4760785Y-8711938D01*
X4885785Y-8461938D02*
X4885785Y-8711938D01*
X4760785Y-8586938D02*
X5010785Y-8586938D01*
X4760785Y-11561938D02*
X5010785Y-11811938D01*
X5010785Y-11561938D02*
X4760785Y-11811938D01*
X4885785Y-11561938D02*
X4885785Y-11811938D01*
X4760785Y-11686938D02*
X5010785Y-11686938D01*
X12260785Y-8461938D02*
X12510785Y-8711938D01*
X12510785Y-8461938D02*
X12260785Y-8711938D01*
X12385785Y-8461938D02*
X12385785Y-8711938D01*
X12260785Y-8586938D02*
X12510785Y-8586938D01*
X12260785Y-11561938D02*
X12510785Y-11811938D01*
X12510785Y-11561938D02*
X12260785Y-11811938D01*
X12385785Y-11561938D02*
X12385785Y-11811938D01*
X12260785Y-11686938D02*
X12510785Y-11686938D01*
X18860785Y-3561938D02*
X19110785Y-3811938D01*
X19110785Y-3561938D02*
X18860785Y-3811938D01*
X18985785Y-3561938D02*
X18985785Y-3811938D01*
X18860785Y-3686938D02*
X19110785Y-3686938D01*
X4660785Y-3561938D02*
X4910785Y-3811938D01*
X4910785Y-3561938D02*
X4660785Y-3811938D01*
X4785785Y-3561938D02*
X4785785Y-3811938D01*
X4660785Y-3686938D02*
X4910785Y-3686938D01*
X4660785Y-6661938D02*
X4910785Y-6911938D01*
X4910785Y-6661938D02*
X4660785Y-6911938D01*
X4785785Y-6661938D02*
X4785785Y-6911938D01*
X4660785Y-6786938D02*
X4910785Y-6786938D01*
X12160785Y-3561938D02*
X12410785Y-3811938D01*
X12410785Y-3561938D02*
X12160785Y-3811938D01*
X12285785Y-3561938D02*
X12285785Y-3811938D01*
X12160785Y-3686938D02*
X12410785Y-3686938D01*
X12160785Y-6661938D02*
X12410785Y-6911938D01*
X12410785Y-6661938D02*
X12160785Y-6911938D01*
X12285785Y-6661938D02*
X12285785Y-6911938D01*
X12160785Y-6786938D02*
X12410785Y-6786938D01*
X3010785Y-12561938D02*
X3260785Y-12811938D01*
X3260785Y-12561938D02*
X3010785Y-12811938D01*
X3135785Y-12561938D02*
X3135785Y-12811938D01*
X3010785Y-12686938D02*
X3260785Y-12686938D01*
D12*
X3019714Y-13555153D02*
X3019714Y-13255153D01*
X3091142Y-13255153D01*
X3133999Y-13269438D01*
X3162571Y-13298010D01*
X3176857Y-13326581D01*
X3191142Y-13383724D01*
X3191142Y-13426581D01*
X3176857Y-13483724D01*
X3162571Y-13512295D01*
X3133999Y-13540867D01*
X3091142Y-13555153D01*
X3019714Y-13555153D01*
X3319714Y-13555153D02*
X3319714Y-13355153D01*
X3319714Y-13412295D02*
X3333999Y-13383724D01*
X3348285Y-13369438D01*
X3376857Y-13355153D01*
X3405428Y-13355153D01*
X3505428Y-13555153D02*
X3505428Y-13355153D01*
X3505428Y-13255153D02*
X3491142Y-13269438D01*
X3505428Y-13283724D01*
X3519714Y-13269438D01*
X3505428Y-13255153D01*
X3505428Y-13283724D01*
X3691142Y-13555153D02*
X3662571Y-13540867D01*
X3648285Y-13512295D01*
X3648285Y-13255153D01*
X3848285Y-13555153D02*
X3819714Y-13540867D01*
X3805428Y-13512295D01*
X3805428Y-13255153D01*
X4191142Y-13555153D02*
X4191142Y-13255153D01*
X4291142Y-13469438D01*
X4391142Y-13255153D01*
X4391142Y-13555153D01*
X4662571Y-13555153D02*
X4662571Y-13398010D01*
X4648285Y-13369438D01*
X4619714Y-13355153D01*
X4562571Y-13355153D01*
X4534000Y-13369438D01*
X4662571Y-13540867D02*
X4634000Y-13555153D01*
X4562571Y-13555153D01*
X4534000Y-13540867D01*
X4519714Y-13512295D01*
X4519714Y-13483724D01*
X4534000Y-13455153D01*
X4562571Y-13440867D01*
X4634000Y-13440867D01*
X4662571Y-13426581D01*
X4805428Y-13355153D02*
X4805428Y-13655153D01*
X4805428Y-13369438D02*
X4834000Y-13355153D01*
X4891142Y-13355153D01*
X4919714Y-13369438D01*
X4934000Y-13383724D01*
X4948285Y-13412295D01*
X4948285Y-13498010D01*
X4934000Y-13526581D01*
X4919714Y-13540867D01*
X4891142Y-13555153D01*
X4834000Y-13555153D01*
X4805428Y-13540867D01*
X5076857Y-13526581D02*
X5091142Y-13540867D01*
X5076857Y-13555153D01*
X5062571Y-13540867D01*
X5076857Y-13526581D01*
X5076857Y-13555153D01*
X5076857Y-13369438D02*
X5091142Y-13383724D01*
X5076857Y-13398010D01*
X5062571Y-13383724D01*
X5076857Y-13369438D01*
X5076857Y-13398010D01*
X2673285Y-14019438D02*
X2733285Y-14079438D01*
X2733285Y-14019438D02*
X2673285Y-14079438D01*
X3076857Y-13885153D02*
X3105428Y-13885153D01*
X3133999Y-13899438D01*
X3148285Y-13913724D01*
X3162571Y-13942295D01*
X3176857Y-13999438D01*
X3176857Y-14070867D01*
X3162571Y-14128010D01*
X3148285Y-14156581D01*
X3133999Y-14170867D01*
X3105428Y-14185153D01*
X3076857Y-14185153D01*
X3048285Y-14170867D01*
X3033999Y-14156581D01*
X3019714Y-14128010D01*
X3005428Y-14070867D01*
X3005428Y-13999438D01*
X3019714Y-13942295D01*
X3033999Y-13913724D01*
X3048285Y-13899438D01*
X3076857Y-13885153D01*
X3305428Y-14156581D02*
X3319714Y-14170867D01*
X3305428Y-14185153D01*
X3291142Y-14170867D01*
X3305428Y-14156581D01*
X3305428Y-14185153D01*
X3576857Y-13885153D02*
X3519714Y-13885153D01*
X3491142Y-13899438D01*
X3476857Y-13913724D01*
X3448285Y-13956581D01*
X3433999Y-14013724D01*
X3433999Y-14128010D01*
X3448285Y-14156581D01*
X3462571Y-14170867D01*
X3491142Y-14185153D01*
X3548285Y-14185153D01*
X3576857Y-14170867D01*
X3591142Y-14156581D01*
X3605428Y-14128010D01*
X3605428Y-14056581D01*
X3591142Y-14028010D01*
X3576857Y-14013724D01*
X3548285Y-13999438D01*
X3491142Y-13999438D01*
X3462571Y-14013724D01*
X3448285Y-14028010D01*
X3433999Y-14056581D01*
X3791142Y-13885153D02*
X3819714Y-13885153D01*
X3848285Y-13899438D01*
X3862571Y-13913724D01*
X3876857Y-13942295D01*
X3891142Y-13999438D01*
X3891142Y-14070867D01*
X3876857Y-14128010D01*
X3862571Y-14156581D01*
X3848285Y-14170867D01*
X3819714Y-14185153D01*
X3791142Y-14185153D01*
X3762571Y-14170867D01*
X3748285Y-14156581D01*
X3733999Y-14128010D01*
X3719714Y-14070867D01*
X3719714Y-13999438D01*
X3733999Y-13942295D01*
X3748285Y-13913724D01*
X3762571Y-13899438D01*
X3791142Y-13885153D01*
X4019714Y-14185153D02*
X4019714Y-13985153D01*
X4019714Y-14013724D02*
X4033999Y-13999438D01*
X4062571Y-13985153D01*
X4105428Y-13985153D01*
X4133999Y-13999438D01*
X4148285Y-14028010D01*
X4148285Y-14185153D01*
X4148285Y-14028010D02*
X4162571Y-13999438D01*
X4191142Y-13985153D01*
X4234000Y-13985153D01*
X4262571Y-13999438D01*
X4276857Y-14028010D01*
X4276857Y-14185153D01*
X4419714Y-14185153D02*
X4419714Y-13985153D01*
X4419714Y-14013724D02*
X4434000Y-13999438D01*
X4462571Y-13985153D01*
X4505428Y-13985153D01*
X4534000Y-13999438D01*
X4548285Y-14028010D01*
X4548285Y-14185153D01*
X4548285Y-14028010D02*
X4562571Y-13999438D01*
X4591142Y-13985153D01*
X4634000Y-13985153D01*
X4662571Y-13999438D01*
X4676857Y-14028010D01*
X4676857Y-14185153D01*
X5262571Y-13870867D02*
X5005428Y-14256581D01*
X5648285Y-13885153D02*
X5676857Y-13885153D01*
X5705428Y-13899438D01*
X5719714Y-13913724D01*
X5733999Y-13942295D01*
X5748285Y-13999438D01*
X5748285Y-14070867D01*
X5733999Y-14128010D01*
X5719714Y-14156581D01*
X5705428Y-14170867D01*
X5676857Y-14185153D01*
X5648285Y-14185153D01*
X5619714Y-14170867D01*
X5605428Y-14156581D01*
X5591142Y-14128010D01*
X5576857Y-14070867D01*
X5576857Y-13999438D01*
X5591142Y-13942295D01*
X5605428Y-13913724D01*
X5619714Y-13899438D01*
X5648285Y-13885153D01*
X5876857Y-14156581D02*
X5891142Y-14170867D01*
X5876857Y-14185153D01*
X5862571Y-14170867D01*
X5876857Y-14156581D01*
X5876857Y-14185153D01*
X6076857Y-13885153D02*
X6105428Y-13885153D01*
X6133999Y-13899438D01*
X6148285Y-13913724D01*
X6162571Y-13942295D01*
X6176857Y-13999438D01*
X6176857Y-14070867D01*
X6162571Y-14128010D01*
X6148285Y-14156581D01*
X6133999Y-14170867D01*
X6105428Y-14185153D01*
X6076857Y-14185153D01*
X6048285Y-14170867D01*
X6033999Y-14156581D01*
X6019714Y-14128010D01*
X6005428Y-14070867D01*
X6005428Y-13999438D01*
X6019714Y-13942295D01*
X6033999Y-13913724D01*
X6048285Y-13899438D01*
X6076857Y-13885153D01*
X6291142Y-13913724D02*
X6305428Y-13899438D01*
X6333999Y-13885153D01*
X6405428Y-13885153D01*
X6433999Y-13899438D01*
X6448285Y-13913724D01*
X6462571Y-13942295D01*
X6462571Y-13970867D01*
X6448285Y-14013724D01*
X6276857Y-14185153D01*
X6462571Y-14185153D01*
X6719714Y-13985153D02*
X6719714Y-14185153D01*
X6648285Y-13870867D02*
X6576857Y-14085153D01*
X6762571Y-14085153D01*
X6862571Y-13885153D02*
X6862571Y-13942295D01*
X6976857Y-13885153D02*
X6976857Y-13942295D01*
X7419714Y-14299438D02*
X7405428Y-14285153D01*
X7376857Y-14242295D01*
X7362571Y-14213724D01*
X7348285Y-14170867D01*
X7333999Y-14099438D01*
X7333999Y-14042295D01*
X7348285Y-13970867D01*
X7362571Y-13928010D01*
X7376857Y-13899438D01*
X7405428Y-13856581D01*
X7419714Y-13842295D01*
X7676857Y-13885153D02*
X7533999Y-13885153D01*
X7519714Y-14028010D01*
X7533999Y-14013724D01*
X7562571Y-13999438D01*
X7633999Y-13999438D01*
X7662571Y-14013724D01*
X7676857Y-14028010D01*
X7691142Y-14056581D01*
X7691142Y-14128010D01*
X7676857Y-14156581D01*
X7662571Y-14170867D01*
X7633999Y-14185153D01*
X7562571Y-14185153D01*
X7533999Y-14170867D01*
X7519714Y-14156581D01*
X7876857Y-13885153D02*
X7905428Y-13885153D01*
X7933999Y-13899438D01*
X7948285Y-13913724D01*
X7962571Y-13942295D01*
X7976857Y-13999438D01*
X7976857Y-14070867D01*
X7962571Y-14128010D01*
X7948285Y-14156581D01*
X7933999Y-14170867D01*
X7905428Y-14185153D01*
X7876857Y-14185153D01*
X7848285Y-14170867D01*
X7833999Y-14156581D01*
X7819714Y-14128010D01*
X7805428Y-14070867D01*
X7805428Y-13999438D01*
X7819714Y-13942295D01*
X7833999Y-13913724D01*
X7848285Y-13899438D01*
X7876857Y-13885153D01*
X8333999Y-14185153D02*
X8333999Y-13885153D01*
X8462571Y-14185153D02*
X8462571Y-14028010D01*
X8448285Y-13999438D01*
X8419714Y-13985153D01*
X8376857Y-13985153D01*
X8348285Y-13999438D01*
X8333999Y-14013724D01*
X8648285Y-14185153D02*
X8619714Y-14170867D01*
X8605428Y-14156581D01*
X8591142Y-14128010D01*
X8591142Y-14042295D01*
X8605428Y-14013724D01*
X8619714Y-13999438D01*
X8648285Y-13985153D01*
X8691142Y-13985153D01*
X8719714Y-13999438D01*
X8734000Y-14013724D01*
X8748285Y-14042295D01*
X8748285Y-14128010D01*
X8734000Y-14156581D01*
X8719714Y-14170867D01*
X8691142Y-14185153D01*
X8648285Y-14185153D01*
X8919714Y-14185153D02*
X8891142Y-14170867D01*
X8876857Y-14142295D01*
X8876857Y-13885153D01*
X9148285Y-14170867D02*
X9119714Y-14185153D01*
X9062571Y-14185153D01*
X9034000Y-14170867D01*
X9019714Y-14142295D01*
X9019714Y-14028010D01*
X9034000Y-13999438D01*
X9062571Y-13985153D01*
X9119714Y-13985153D01*
X9148285Y-13999438D01*
X9162571Y-14028010D01*
X9162571Y-14056581D01*
X9019714Y-14085153D01*
X9276857Y-14170867D02*
X9305428Y-14185153D01*
X9362571Y-14185153D01*
X9391142Y-14170867D01*
X9405428Y-14142295D01*
X9405428Y-14128010D01*
X9391142Y-14099438D01*
X9362571Y-14085153D01*
X9319714Y-14085153D01*
X9291142Y-14070867D01*
X9276857Y-14042295D01*
X9276857Y-14028010D01*
X9291142Y-13999438D01*
X9319714Y-13985153D01*
X9362571Y-13985153D01*
X9391142Y-13999438D01*
X9505428Y-14299438D02*
X9519714Y-14285153D01*
X9548285Y-14242295D01*
X9562571Y-14213724D01*
X9576857Y-14170867D01*
X9591142Y-14099438D01*
X9591142Y-14042295D01*
X9576857Y-13970867D01*
X9562571Y-13928010D01*
X9548285Y-13899438D01*
X9519714Y-13856581D01*
X9505428Y-13842295D01*
X2733285Y-14445438D02*
G75*
G03X2733285Y-14445438I-35000J0D01*
G01*
X3076857Y-14281153D02*
X3105428Y-14281153D01*
X3133999Y-14295438D01*
X3148285Y-14309724D01*
X3162571Y-14338295D01*
X3176857Y-14395438D01*
X3176857Y-14466867D01*
X3162571Y-14524010D01*
X3148285Y-14552581D01*
X3133999Y-14566867D01*
X3105428Y-14581153D01*
X3076857Y-14581153D01*
X3048285Y-14566867D01*
X3033999Y-14552581D01*
X3019714Y-14524010D01*
X3005428Y-14466867D01*
X3005428Y-14395438D01*
X3019714Y-14338295D01*
X3033999Y-14309724D01*
X3048285Y-14295438D01*
X3076857Y-14281153D01*
X3305428Y-14552581D02*
X3319714Y-14566867D01*
X3305428Y-14581153D01*
X3291142Y-14566867D01*
X3305428Y-14552581D01*
X3305428Y-14581153D01*
X3419714Y-14281153D02*
X3619714Y-14281153D01*
X3491142Y-14581153D01*
X3791142Y-14281153D02*
X3819714Y-14281153D01*
X3848285Y-14295438D01*
X3862571Y-14309724D01*
X3876857Y-14338295D01*
X3891142Y-14395438D01*
X3891142Y-14466867D01*
X3876857Y-14524010D01*
X3862571Y-14552581D01*
X3848285Y-14566867D01*
X3819714Y-14581153D01*
X3791142Y-14581153D01*
X3762571Y-14566867D01*
X3748285Y-14552581D01*
X3733999Y-14524010D01*
X3719714Y-14466867D01*
X3719714Y-14395438D01*
X3733999Y-14338295D01*
X3748285Y-14309724D01*
X3762571Y-14295438D01*
X3791142Y-14281153D01*
X4019714Y-14581153D02*
X4019714Y-14381153D01*
X4019714Y-14409724D02*
X4033999Y-14395438D01*
X4062571Y-14381153D01*
X4105428Y-14381153D01*
X4133999Y-14395438D01*
X4148285Y-14424010D01*
X4148285Y-14581153D01*
X4148285Y-14424010D02*
X4162571Y-14395438D01*
X4191142Y-14381153D01*
X4234000Y-14381153D01*
X4262571Y-14395438D01*
X4276857Y-14424010D01*
X4276857Y-14581153D01*
X4419714Y-14581153D02*
X4419714Y-14381153D01*
X4419714Y-14409724D02*
X4434000Y-14395438D01*
X4462571Y-14381153D01*
X4505428Y-14381153D01*
X4534000Y-14395438D01*
X4548285Y-14424010D01*
X4548285Y-14581153D01*
X4548285Y-14424010D02*
X4562571Y-14395438D01*
X4591142Y-14381153D01*
X4634000Y-14381153D01*
X4662571Y-14395438D01*
X4676857Y-14424010D01*
X4676857Y-14581153D01*
X5262571Y-14266867D02*
X5005428Y-14652581D01*
X5648285Y-14281153D02*
X5676857Y-14281153D01*
X5705428Y-14295438D01*
X5719714Y-14309724D01*
X5733999Y-14338295D01*
X5748285Y-14395438D01*
X5748285Y-14466867D01*
X5733999Y-14524010D01*
X5719714Y-14552581D01*
X5705428Y-14566867D01*
X5676857Y-14581153D01*
X5648285Y-14581153D01*
X5619714Y-14566867D01*
X5605428Y-14552581D01*
X5591142Y-14524010D01*
X5576857Y-14466867D01*
X5576857Y-14395438D01*
X5591142Y-14338295D01*
X5605428Y-14309724D01*
X5619714Y-14295438D01*
X5648285Y-14281153D01*
X5876857Y-14552581D02*
X5891142Y-14566867D01*
X5876857Y-14581153D01*
X5862571Y-14566867D01*
X5876857Y-14552581D01*
X5876857Y-14581153D01*
X6076857Y-14281153D02*
X6105428Y-14281153D01*
X6133999Y-14295438D01*
X6148285Y-14309724D01*
X6162571Y-14338295D01*
X6176857Y-14395438D01*
X6176857Y-14466867D01*
X6162571Y-14524010D01*
X6148285Y-14552581D01*
X6133999Y-14566867D01*
X6105428Y-14581153D01*
X6076857Y-14581153D01*
X6048285Y-14566867D01*
X6033999Y-14552581D01*
X6019714Y-14524010D01*
X6005428Y-14466867D01*
X6005428Y-14395438D01*
X6019714Y-14338295D01*
X6033999Y-14309724D01*
X6048285Y-14295438D01*
X6076857Y-14281153D01*
X6291142Y-14309724D02*
X6305428Y-14295438D01*
X6333999Y-14281153D01*
X6405428Y-14281153D01*
X6433999Y-14295438D01*
X6448285Y-14309724D01*
X6462571Y-14338295D01*
X6462571Y-14366867D01*
X6448285Y-14409724D01*
X6276857Y-14581153D01*
X6462571Y-14581153D01*
X6633999Y-14409724D02*
X6605428Y-14395438D01*
X6591142Y-14381153D01*
X6576857Y-14352581D01*
X6576857Y-14338295D01*
X6591142Y-14309724D01*
X6605428Y-14295438D01*
X6633999Y-14281153D01*
X6691142Y-14281153D01*
X6719714Y-14295438D01*
X6733999Y-14309724D01*
X6748285Y-14338295D01*
X6748285Y-14352581D01*
X6733999Y-14381153D01*
X6719714Y-14395438D01*
X6691142Y-14409724D01*
X6633999Y-14409724D01*
X6605428Y-14424010D01*
X6591142Y-14438295D01*
X6576857Y-14466867D01*
X6576857Y-14524010D01*
X6591142Y-14552581D01*
X6605428Y-14566867D01*
X6633999Y-14581153D01*
X6691142Y-14581153D01*
X6719714Y-14566867D01*
X6733999Y-14552581D01*
X6748285Y-14524010D01*
X6748285Y-14466867D01*
X6733999Y-14438295D01*
X6719714Y-14424010D01*
X6691142Y-14409724D01*
X6862571Y-14281153D02*
X6862571Y-14338295D01*
X6976857Y-14281153D02*
X6976857Y-14338295D01*
X7419714Y-14695438D02*
X7405428Y-14681153D01*
X7376857Y-14638295D01*
X7362571Y-14609724D01*
X7348285Y-14566867D01*
X7333999Y-14495438D01*
X7333999Y-14438295D01*
X7348285Y-14366867D01*
X7362571Y-14324010D01*
X7376857Y-14295438D01*
X7405428Y-14252581D01*
X7419714Y-14238295D01*
X7662571Y-14281153D02*
X7605428Y-14281153D01*
X7576857Y-14295438D01*
X7562571Y-14309724D01*
X7533999Y-14352581D01*
X7519714Y-14409724D01*
X7519714Y-14524010D01*
X7533999Y-14552581D01*
X7548285Y-14566867D01*
X7576857Y-14581153D01*
X7633999Y-14581153D01*
X7662571Y-14566867D01*
X7676857Y-14552581D01*
X7691142Y-14524010D01*
X7691142Y-14452581D01*
X7676857Y-14424010D01*
X7662571Y-14409724D01*
X7633999Y-14395438D01*
X7576857Y-14395438D01*
X7548285Y-14409724D01*
X7533999Y-14424010D01*
X7519714Y-14452581D01*
X8048285Y-14581153D02*
X8048285Y-14281153D01*
X8176857Y-14581153D02*
X8176857Y-14424010D01*
X8162571Y-14395438D01*
X8133999Y-14381153D01*
X8091142Y-14381153D01*
X8062571Y-14395438D01*
X8048285Y-14409724D01*
X8362571Y-14581153D02*
X8333999Y-14566867D01*
X8319714Y-14552581D01*
X8305428Y-14524010D01*
X8305428Y-14438295D01*
X8319714Y-14409724D01*
X8333999Y-14395438D01*
X8362571Y-14381153D01*
X8405428Y-14381153D01*
X8434000Y-14395438D01*
X8448285Y-14409724D01*
X8462571Y-14438295D01*
X8462571Y-14524010D01*
X8448285Y-14552581D01*
X8434000Y-14566867D01*
X8405428Y-14581153D01*
X8362571Y-14581153D01*
X8634000Y-14581153D02*
X8605428Y-14566867D01*
X8591142Y-14538295D01*
X8591142Y-14281153D01*
X8862571Y-14566867D02*
X8834000Y-14581153D01*
X8776857Y-14581153D01*
X8748285Y-14566867D01*
X8734000Y-14538295D01*
X8734000Y-14424010D01*
X8748285Y-14395438D01*
X8776857Y-14381153D01*
X8834000Y-14381153D01*
X8862571Y-14395438D01*
X8876857Y-14424010D01*
X8876857Y-14452581D01*
X8734000Y-14481153D01*
X8991142Y-14566867D02*
X9019714Y-14581153D01*
X9076857Y-14581153D01*
X9105428Y-14566867D01*
X9119714Y-14538295D01*
X9119714Y-14524010D01*
X9105428Y-14495438D01*
X9076857Y-14481153D01*
X9034000Y-14481153D01*
X9005428Y-14466867D01*
X8991142Y-14438295D01*
X8991142Y-14424010D01*
X9005428Y-14395438D01*
X9034000Y-14381153D01*
X9076857Y-14381153D01*
X9105428Y-14395438D01*
X9476857Y-14466867D02*
X9705428Y-14466867D01*
X9591142Y-14581153D02*
X9591142Y-14352581D01*
X10062571Y-14309724D02*
X10076857Y-14295438D01*
X10105428Y-14281153D01*
X10176857Y-14281153D01*
X10205428Y-14295438D01*
X10219714Y-14309724D01*
X10234000Y-14338295D01*
X10234000Y-14366867D01*
X10219714Y-14409724D01*
X10048285Y-14581153D01*
X10234000Y-14581153D01*
X10405428Y-14409724D02*
X10376857Y-14395438D01*
X10362571Y-14381153D01*
X10348285Y-14352581D01*
X10348285Y-14338295D01*
X10362571Y-14309724D01*
X10376857Y-14295438D01*
X10405428Y-14281153D01*
X10462571Y-14281153D01*
X10491142Y-14295438D01*
X10505428Y-14309724D01*
X10519714Y-14338295D01*
X10519714Y-14352581D01*
X10505428Y-14381153D01*
X10491142Y-14395438D01*
X10462571Y-14409724D01*
X10405428Y-14409724D01*
X10376857Y-14424010D01*
X10362571Y-14438295D01*
X10348285Y-14466867D01*
X10348285Y-14524010D01*
X10362571Y-14552581D01*
X10376857Y-14566867D01*
X10405428Y-14581153D01*
X10462571Y-14581153D01*
X10491142Y-14566867D01*
X10505428Y-14552581D01*
X10519714Y-14524010D01*
X10519714Y-14466867D01*
X10505428Y-14438295D01*
X10491142Y-14424010D01*
X10462571Y-14409724D01*
X10862571Y-14566867D02*
X10891142Y-14581153D01*
X10948285Y-14581153D01*
X10976857Y-14566867D01*
X10991142Y-14538295D01*
X10991142Y-14524010D01*
X10976857Y-14495438D01*
X10948285Y-14481153D01*
X10905428Y-14481153D01*
X10876857Y-14466867D01*
X10862571Y-14438295D01*
X10862571Y-14424010D01*
X10876857Y-14395438D01*
X10905428Y-14381153D01*
X10948285Y-14381153D01*
X10976857Y-14395438D01*
X11162571Y-14581153D02*
X11134000Y-14566867D01*
X11119714Y-14538295D01*
X11119714Y-14281153D01*
X11319714Y-14581153D02*
X11291142Y-14566867D01*
X11276857Y-14552581D01*
X11262571Y-14524010D01*
X11262571Y-14438295D01*
X11276857Y-14409724D01*
X11291142Y-14395438D01*
X11319714Y-14381153D01*
X11362571Y-14381153D01*
X11391142Y-14395438D01*
X11405428Y-14409724D01*
X11419714Y-14438295D01*
X11419714Y-14524010D01*
X11405428Y-14552581D01*
X11391142Y-14566867D01*
X11362571Y-14581153D01*
X11319714Y-14581153D01*
X11505428Y-14381153D02*
X11619714Y-14381153D01*
X11548285Y-14281153D02*
X11548285Y-14538295D01*
X11562571Y-14566867D01*
X11591142Y-14581153D01*
X11619714Y-14581153D01*
X11705428Y-14566867D02*
X11733999Y-14581153D01*
X11791142Y-14581153D01*
X11819714Y-14566867D01*
X11833999Y-14538295D01*
X11833999Y-14524010D01*
X11819714Y-14495438D01*
X11791142Y-14481153D01*
X11748285Y-14481153D01*
X11719714Y-14466867D01*
X11705428Y-14438295D01*
X11705428Y-14424010D01*
X11719714Y-14395438D01*
X11748285Y-14381153D01*
X11791142Y-14381153D01*
X11819714Y-14395438D01*
X11933999Y-14695438D02*
X11948285Y-14681153D01*
X11976857Y-14638295D01*
X11991142Y-14609724D01*
X12005428Y-14566867D01*
X12019714Y-14495438D01*
X12019714Y-14438295D01*
X12005428Y-14366867D01*
X11991142Y-14324010D01*
X11976857Y-14295438D01*
X11948285Y-14252581D01*
X11933999Y-14238295D01*
X2693285Y-14801438D02*
X2693285Y-14881438D01*
X2653285Y-14841438D02*
X2733285Y-14841438D01*
X3076857Y-14677153D02*
X3105428Y-14677153D01*
X3133999Y-14691438D01*
X3148285Y-14705724D01*
X3162571Y-14734295D01*
X3176857Y-14791438D01*
X3176857Y-14862867D01*
X3162571Y-14920010D01*
X3148285Y-14948581D01*
X3133999Y-14962867D01*
X3105428Y-14977153D01*
X3076857Y-14977153D01*
X3048285Y-14962867D01*
X3033999Y-14948581D01*
X3019714Y-14920010D01*
X3005428Y-14862867D01*
X3005428Y-14791438D01*
X3019714Y-14734295D01*
X3033999Y-14705724D01*
X3048285Y-14691438D01*
X3076857Y-14677153D01*
X3305428Y-14948581D02*
X3319714Y-14962867D01*
X3305428Y-14977153D01*
X3291142Y-14962867D01*
X3305428Y-14948581D01*
X3305428Y-14977153D01*
X3491142Y-14805724D02*
X3462571Y-14791438D01*
X3448285Y-14777153D01*
X3433999Y-14748581D01*
X3433999Y-14734295D01*
X3448285Y-14705724D01*
X3462571Y-14691438D01*
X3491142Y-14677153D01*
X3548285Y-14677153D01*
X3576857Y-14691438D01*
X3591142Y-14705724D01*
X3605428Y-14734295D01*
X3605428Y-14748581D01*
X3591142Y-14777153D01*
X3576857Y-14791438D01*
X3548285Y-14805724D01*
X3491142Y-14805724D01*
X3462571Y-14820010D01*
X3448285Y-14834295D01*
X3433999Y-14862867D01*
X3433999Y-14920010D01*
X3448285Y-14948581D01*
X3462571Y-14962867D01*
X3491142Y-14977153D01*
X3548285Y-14977153D01*
X3576857Y-14962867D01*
X3591142Y-14948581D01*
X3605428Y-14920010D01*
X3605428Y-14862867D01*
X3591142Y-14834295D01*
X3576857Y-14820010D01*
X3548285Y-14805724D01*
X3791142Y-14677153D02*
X3819714Y-14677153D01*
X3848285Y-14691438D01*
X3862571Y-14705724D01*
X3876857Y-14734295D01*
X3891142Y-14791438D01*
X3891142Y-14862867D01*
X3876857Y-14920010D01*
X3862571Y-14948581D01*
X3848285Y-14962867D01*
X3819714Y-14977153D01*
X3791142Y-14977153D01*
X3762571Y-14962867D01*
X3748285Y-14948581D01*
X3733999Y-14920010D01*
X3719714Y-14862867D01*
X3719714Y-14791438D01*
X3733999Y-14734295D01*
X3748285Y-14705724D01*
X3762571Y-14691438D01*
X3791142Y-14677153D01*
X4019714Y-14977153D02*
X4019714Y-14777153D01*
X4019714Y-14805724D02*
X4033999Y-14791438D01*
X4062571Y-14777153D01*
X4105428Y-14777153D01*
X4133999Y-14791438D01*
X4148285Y-14820010D01*
X4148285Y-14977153D01*
X4148285Y-14820010D02*
X4162571Y-14791438D01*
X4191142Y-14777153D01*
X4234000Y-14777153D01*
X4262571Y-14791438D01*
X4276857Y-14820010D01*
X4276857Y-14977153D01*
X4419714Y-14977153D02*
X4419714Y-14777153D01*
X4419714Y-14805724D02*
X4434000Y-14791438D01*
X4462571Y-14777153D01*
X4505428Y-14777153D01*
X4534000Y-14791438D01*
X4548285Y-14820010D01*
X4548285Y-14977153D01*
X4548285Y-14820010D02*
X4562571Y-14791438D01*
X4591142Y-14777153D01*
X4634000Y-14777153D01*
X4662571Y-14791438D01*
X4676857Y-14820010D01*
X4676857Y-14977153D01*
X5262571Y-14662867D02*
X5005428Y-15048581D01*
X5648285Y-14677153D02*
X5676857Y-14677153D01*
X5705428Y-14691438D01*
X5719714Y-14705724D01*
X5733999Y-14734295D01*
X5748285Y-14791438D01*
X5748285Y-14862867D01*
X5733999Y-14920010D01*
X5719714Y-14948581D01*
X5705428Y-14962867D01*
X5676857Y-14977153D01*
X5648285Y-14977153D01*
X5619714Y-14962867D01*
X5605428Y-14948581D01*
X5591142Y-14920010D01*
X5576857Y-14862867D01*
X5576857Y-14791438D01*
X5591142Y-14734295D01*
X5605428Y-14705724D01*
X5619714Y-14691438D01*
X5648285Y-14677153D01*
X5876857Y-14948581D02*
X5891142Y-14962867D01*
X5876857Y-14977153D01*
X5862571Y-14962867D01*
X5876857Y-14948581D01*
X5876857Y-14977153D01*
X6076857Y-14677153D02*
X6105428Y-14677153D01*
X6133999Y-14691438D01*
X6148285Y-14705724D01*
X6162571Y-14734295D01*
X6176857Y-14791438D01*
X6176857Y-14862867D01*
X6162571Y-14920010D01*
X6148285Y-14948581D01*
X6133999Y-14962867D01*
X6105428Y-14977153D01*
X6076857Y-14977153D01*
X6048285Y-14962867D01*
X6033999Y-14948581D01*
X6019714Y-14920010D01*
X6005428Y-14862867D01*
X6005428Y-14791438D01*
X6019714Y-14734295D01*
X6033999Y-14705724D01*
X6048285Y-14691438D01*
X6076857Y-14677153D01*
X6276857Y-14677153D02*
X6462571Y-14677153D01*
X6362571Y-14791438D01*
X6405428Y-14791438D01*
X6433999Y-14805724D01*
X6448285Y-14820010D01*
X6462571Y-14848581D01*
X6462571Y-14920010D01*
X6448285Y-14948581D01*
X6433999Y-14962867D01*
X6405428Y-14977153D01*
X6319714Y-14977153D01*
X6291142Y-14962867D01*
X6276857Y-14948581D01*
X6748285Y-14977153D02*
X6576857Y-14977153D01*
X6662571Y-14977153D02*
X6662571Y-14677153D01*
X6633999Y-14720010D01*
X6605428Y-14748581D01*
X6576857Y-14762867D01*
X6862571Y-14677153D02*
X6862571Y-14734295D01*
X6976857Y-14677153D02*
X6976857Y-14734295D01*
X7419714Y-15091438D02*
X7405428Y-15077153D01*
X7376857Y-15034295D01*
X7362571Y-15005724D01*
X7348285Y-14962867D01*
X7333999Y-14891438D01*
X7333999Y-14834295D01*
X7348285Y-14762867D01*
X7362571Y-14720010D01*
X7376857Y-14691438D01*
X7405428Y-14648581D01*
X7419714Y-14634295D01*
X7519714Y-14705724D02*
X7533999Y-14691438D01*
X7562571Y-14677153D01*
X7633999Y-14677153D01*
X7662571Y-14691438D01*
X7676857Y-14705724D01*
X7691142Y-14734295D01*
X7691142Y-14762867D01*
X7676857Y-14805724D01*
X7505428Y-14977153D01*
X7691142Y-14977153D01*
X7876857Y-14677153D02*
X7905428Y-14677153D01*
X7933999Y-14691438D01*
X7948285Y-14705724D01*
X7962571Y-14734295D01*
X7976857Y-14791438D01*
X7976857Y-14862867D01*
X7962571Y-14920010D01*
X7948285Y-14948581D01*
X7933999Y-14962867D01*
X7905428Y-14977153D01*
X7876857Y-14977153D01*
X7848285Y-14962867D01*
X7833999Y-14948581D01*
X7819714Y-14920010D01*
X7805428Y-14862867D01*
X7805428Y-14791438D01*
X7819714Y-14734295D01*
X7833999Y-14705724D01*
X7848285Y-14691438D01*
X7876857Y-14677153D01*
X8148285Y-14805724D02*
X8119714Y-14791438D01*
X8105428Y-14777153D01*
X8091142Y-14748581D01*
X8091142Y-14734295D01*
X8105428Y-14705724D01*
X8119714Y-14691438D01*
X8148285Y-14677153D01*
X8205428Y-14677153D01*
X8233999Y-14691438D01*
X8248285Y-14705724D01*
X8262571Y-14734295D01*
X8262571Y-14748581D01*
X8248285Y-14777153D01*
X8233999Y-14791438D01*
X8205428Y-14805724D01*
X8148285Y-14805724D01*
X8119714Y-14820010D01*
X8105428Y-14834295D01*
X8091142Y-14862867D01*
X8091142Y-14920010D01*
X8105428Y-14948581D01*
X8119714Y-14962867D01*
X8148285Y-14977153D01*
X8205428Y-14977153D01*
X8233999Y-14962867D01*
X8248285Y-14948581D01*
X8262571Y-14920010D01*
X8262571Y-14862867D01*
X8248285Y-14834295D01*
X8233999Y-14820010D01*
X8205428Y-14805724D01*
X8619714Y-14977153D02*
X8619714Y-14677153D01*
X8748285Y-14977153D02*
X8748285Y-14820010D01*
X8734000Y-14791438D01*
X8705428Y-14777153D01*
X8662571Y-14777153D01*
X8634000Y-14791438D01*
X8619714Y-14805724D01*
X8934000Y-14977153D02*
X8905428Y-14962867D01*
X8891142Y-14948581D01*
X8876857Y-14920010D01*
X8876857Y-14834295D01*
X8891142Y-14805724D01*
X8905428Y-14791438D01*
X8934000Y-14777153D01*
X8976857Y-14777153D01*
X9005428Y-14791438D01*
X9019714Y-14805724D01*
X9034000Y-14834295D01*
X9034000Y-14920010D01*
X9019714Y-14948581D01*
X9005428Y-14962867D01*
X8976857Y-14977153D01*
X8934000Y-14977153D01*
X9205428Y-14977153D02*
X9176857Y-14962867D01*
X9162571Y-14934295D01*
X9162571Y-14677153D01*
X9434000Y-14962867D02*
X9405428Y-14977153D01*
X9348285Y-14977153D01*
X9319714Y-14962867D01*
X9305428Y-14934295D01*
X9305428Y-14820010D01*
X9319714Y-14791438D01*
X9348285Y-14777153D01*
X9405428Y-14777153D01*
X9434000Y-14791438D01*
X9448285Y-14820010D01*
X9448285Y-14848581D01*
X9305428Y-14877153D01*
X9562571Y-14962867D02*
X9591142Y-14977153D01*
X9648285Y-14977153D01*
X9676857Y-14962867D01*
X9691142Y-14934295D01*
X9691142Y-14920010D01*
X9676857Y-14891438D01*
X9648285Y-14877153D01*
X9605428Y-14877153D01*
X9576857Y-14862867D01*
X9562571Y-14834295D01*
X9562571Y-14820010D01*
X9576857Y-14791438D01*
X9605428Y-14777153D01*
X9648285Y-14777153D01*
X9676857Y-14791438D01*
X9791142Y-15091438D02*
X9805428Y-15077153D01*
X9834000Y-15034295D01*
X9848285Y-15005724D01*
X9862571Y-14962867D01*
X9876857Y-14891438D01*
X9876857Y-14834295D01*
X9862571Y-14762867D01*
X9848285Y-14720010D01*
X9834000Y-14691438D01*
X9805428Y-14648581D01*
X9791142Y-14634295D01*
X2718641Y-15272794D02*
X2718641Y-15202083D01*
X2647930Y-15202083D01*
X2647930Y-15272794D01*
X2718641Y-15272794D01*
X3176857Y-15373153D02*
X3005428Y-15373153D01*
X3091142Y-15373153D02*
X3091142Y-15073153D01*
X3062571Y-15116010D01*
X3033999Y-15144581D01*
X3005428Y-15158867D01*
X3305428Y-15344581D02*
X3319714Y-15358867D01*
X3305428Y-15373153D01*
X3291142Y-15358867D01*
X3305428Y-15344581D01*
X3305428Y-15373153D01*
X3505428Y-15073153D02*
X3533999Y-15073153D01*
X3562571Y-15087438D01*
X3576857Y-15101724D01*
X3591142Y-15130295D01*
X3605428Y-15187438D01*
X3605428Y-15258867D01*
X3591142Y-15316010D01*
X3576857Y-15344581D01*
X3562571Y-15358867D01*
X3533999Y-15373153D01*
X3505428Y-15373153D01*
X3476857Y-15358867D01*
X3462571Y-15344581D01*
X3448285Y-15316010D01*
X3433999Y-15258867D01*
X3433999Y-15187438D01*
X3448285Y-15130295D01*
X3462571Y-15101724D01*
X3476857Y-15087438D01*
X3505428Y-15073153D01*
X3791142Y-15073153D02*
X3819714Y-15073153D01*
X3848285Y-15087438D01*
X3862571Y-15101724D01*
X3876857Y-15130295D01*
X3891142Y-15187438D01*
X3891142Y-15258867D01*
X3876857Y-15316010D01*
X3862571Y-15344581D01*
X3848285Y-15358867D01*
X3819714Y-15373153D01*
X3791142Y-15373153D01*
X3762571Y-15358867D01*
X3748285Y-15344581D01*
X3733999Y-15316010D01*
X3719714Y-15258867D01*
X3719714Y-15187438D01*
X3733999Y-15130295D01*
X3748285Y-15101724D01*
X3762571Y-15087438D01*
X3791142Y-15073153D01*
X4019714Y-15373153D02*
X4019714Y-15173153D01*
X4019714Y-15201724D02*
X4033999Y-15187438D01*
X4062571Y-15173153D01*
X4105428Y-15173153D01*
X4133999Y-15187438D01*
X4148285Y-15216010D01*
X4148285Y-15373153D01*
X4148285Y-15216010D02*
X4162571Y-15187438D01*
X4191142Y-15173153D01*
X4234000Y-15173153D01*
X4262571Y-15187438D01*
X4276857Y-15216010D01*
X4276857Y-15373153D01*
X4419714Y-15373153D02*
X4419714Y-15173153D01*
X4419714Y-15201724D02*
X4434000Y-15187438D01*
X4462571Y-15173153D01*
X4505428Y-15173153D01*
X4534000Y-15187438D01*
X4548285Y-15216010D01*
X4548285Y-15373153D01*
X4548285Y-15216010D02*
X4562571Y-15187438D01*
X4591142Y-15173153D01*
X4634000Y-15173153D01*
X4662571Y-15187438D01*
X4676857Y-15216010D01*
X4676857Y-15373153D01*
X5262571Y-15058867D02*
X5005428Y-15444581D01*
X5648285Y-15073153D02*
X5676857Y-15073153D01*
X5705428Y-15087438D01*
X5719714Y-15101724D01*
X5733999Y-15130295D01*
X5748285Y-15187438D01*
X5748285Y-15258867D01*
X5733999Y-15316010D01*
X5719714Y-15344581D01*
X5705428Y-15358867D01*
X5676857Y-15373153D01*
X5648285Y-15373153D01*
X5619714Y-15358867D01*
X5605428Y-15344581D01*
X5591142Y-15316010D01*
X5576857Y-15258867D01*
X5576857Y-15187438D01*
X5591142Y-15130295D01*
X5605428Y-15101724D01*
X5619714Y-15087438D01*
X5648285Y-15073153D01*
X5876857Y-15344581D02*
X5891142Y-15358867D01*
X5876857Y-15373153D01*
X5862571Y-15358867D01*
X5876857Y-15344581D01*
X5876857Y-15373153D01*
X6076857Y-15073153D02*
X6105428Y-15073153D01*
X6133999Y-15087438D01*
X6148285Y-15101724D01*
X6162571Y-15130295D01*
X6176857Y-15187438D01*
X6176857Y-15258867D01*
X6162571Y-15316010D01*
X6148285Y-15344581D01*
X6133999Y-15358867D01*
X6105428Y-15373153D01*
X6076857Y-15373153D01*
X6048285Y-15358867D01*
X6033999Y-15344581D01*
X6019714Y-15316010D01*
X6005428Y-15258867D01*
X6005428Y-15187438D01*
X6019714Y-15130295D01*
X6033999Y-15101724D01*
X6048285Y-15087438D01*
X6076857Y-15073153D01*
X6276857Y-15073153D02*
X6462571Y-15073153D01*
X6362571Y-15187438D01*
X6405428Y-15187438D01*
X6433999Y-15201724D01*
X6448285Y-15216010D01*
X6462571Y-15244581D01*
X6462571Y-15316010D01*
X6448285Y-15344581D01*
X6433999Y-15358867D01*
X6405428Y-15373153D01*
X6319714Y-15373153D01*
X6291142Y-15358867D01*
X6276857Y-15344581D01*
X6605428Y-15373153D02*
X6662571Y-15373153D01*
X6691142Y-15358867D01*
X6705428Y-15344581D01*
X6733999Y-15301724D01*
X6748285Y-15244581D01*
X6748285Y-15130295D01*
X6733999Y-15101724D01*
X6719714Y-15087438D01*
X6691142Y-15073153D01*
X6633999Y-15073153D01*
X6605428Y-15087438D01*
X6591142Y-15101724D01*
X6576857Y-15130295D01*
X6576857Y-15201724D01*
X6591142Y-15230295D01*
X6605428Y-15244581D01*
X6633999Y-15258867D01*
X6691142Y-15258867D01*
X6719714Y-15244581D01*
X6733999Y-15230295D01*
X6748285Y-15201724D01*
X6862571Y-15073153D02*
X6862571Y-15130295D01*
X6976857Y-15073153D02*
X6976857Y-15130295D01*
X7419714Y-15487438D02*
X7405428Y-15473153D01*
X7376857Y-15430295D01*
X7362571Y-15401724D01*
X7348285Y-15358867D01*
X7333999Y-15287438D01*
X7333999Y-15230295D01*
X7348285Y-15158867D01*
X7362571Y-15116010D01*
X7376857Y-15087438D01*
X7405428Y-15044581D01*
X7419714Y-15030295D01*
X7691142Y-15373153D02*
X7519714Y-15373153D01*
X7605428Y-15373153D02*
X7605428Y-15073153D01*
X7576857Y-15116010D01*
X7548285Y-15144581D01*
X7519714Y-15158867D01*
X7833999Y-15373153D02*
X7891142Y-15373153D01*
X7919714Y-15358867D01*
X7933999Y-15344581D01*
X7962571Y-15301724D01*
X7976857Y-15244581D01*
X7976857Y-15130295D01*
X7962571Y-15101724D01*
X7948285Y-15087438D01*
X7919714Y-15073153D01*
X7862571Y-15073153D01*
X7833999Y-15087438D01*
X7819714Y-15101724D01*
X7805428Y-15130295D01*
X7805428Y-15201724D01*
X7819714Y-15230295D01*
X7833999Y-15244581D01*
X7862571Y-15258867D01*
X7919714Y-15258867D01*
X7948285Y-15244581D01*
X7962571Y-15230295D01*
X7976857Y-15201724D01*
X8091142Y-15101724D02*
X8105428Y-15087438D01*
X8133999Y-15073153D01*
X8205428Y-15073153D01*
X8233999Y-15087438D01*
X8248285Y-15101724D01*
X8262571Y-15130295D01*
X8262571Y-15158867D01*
X8248285Y-15201724D01*
X8076857Y-15373153D01*
X8262571Y-15373153D01*
X8619714Y-15373153D02*
X8619714Y-15073153D01*
X8748285Y-15373153D02*
X8748285Y-15216010D01*
X8734000Y-15187438D01*
X8705428Y-15173153D01*
X8662571Y-15173153D01*
X8634000Y-15187438D01*
X8619714Y-15201724D01*
X8934000Y-15373153D02*
X8905428Y-15358867D01*
X8891142Y-15344581D01*
X8876857Y-15316010D01*
X8876857Y-15230295D01*
X8891142Y-15201724D01*
X8905428Y-15187438D01*
X8934000Y-15173153D01*
X8976857Y-15173153D01*
X9005428Y-15187438D01*
X9019714Y-15201724D01*
X9034000Y-15230295D01*
X9034000Y-15316010D01*
X9019714Y-15344581D01*
X9005428Y-15358867D01*
X8976857Y-15373153D01*
X8934000Y-15373153D01*
X9205428Y-15373153D02*
X9176857Y-15358867D01*
X9162571Y-15330295D01*
X9162571Y-15073153D01*
X9434000Y-15358867D02*
X9405428Y-15373153D01*
X9348285Y-15373153D01*
X9319714Y-15358867D01*
X9305428Y-15330295D01*
X9305428Y-15216010D01*
X9319714Y-15187438D01*
X9348285Y-15173153D01*
X9405428Y-15173153D01*
X9434000Y-15187438D01*
X9448285Y-15216010D01*
X9448285Y-15244581D01*
X9305428Y-15273153D01*
X9562571Y-15358867D02*
X9591142Y-15373153D01*
X9648285Y-15373153D01*
X9676857Y-15358867D01*
X9691142Y-15330295D01*
X9691142Y-15316010D01*
X9676857Y-15287438D01*
X9648285Y-15273153D01*
X9605428Y-15273153D01*
X9576857Y-15258867D01*
X9562571Y-15230295D01*
X9562571Y-15216010D01*
X9576857Y-15187438D01*
X9605428Y-15173153D01*
X9648285Y-15173153D01*
X9676857Y-15187438D01*
X9791142Y-15487438D02*
X9805428Y-15473153D01*
X9834000Y-15430295D01*
X9848285Y-15401724D01*
X9862571Y-15358867D01*
X9876857Y-15287438D01*
X9876857Y-15230295D01*
X9862571Y-15158867D01*
X9848285Y-15116010D01*
X9834000Y-15087438D01*
X9805428Y-15044581D01*
X9791142Y-15030295D01*
X2678285Y-15688438D02*
X2733285Y-15633438D01*
X2678285Y-15578438D01*
X2623285Y-15633438D01*
X2678285Y-15688438D01*
X3176857Y-15769153D02*
X3005428Y-15769153D01*
X3091142Y-15769153D02*
X3091142Y-15469153D01*
X3062571Y-15512010D01*
X3033999Y-15540581D01*
X3005428Y-15554867D01*
X3305428Y-15740581D02*
X3319714Y-15754867D01*
X3305428Y-15769153D01*
X3291142Y-15754867D01*
X3305428Y-15740581D01*
X3305428Y-15769153D01*
X3605428Y-15769153D02*
X3433999Y-15769153D01*
X3519714Y-15769153D02*
X3519714Y-15469153D01*
X3491142Y-15512010D01*
X3462571Y-15540581D01*
X3433999Y-15554867D01*
X3791142Y-15469153D02*
X3819714Y-15469153D01*
X3848285Y-15483438D01*
X3862571Y-15497724D01*
X3876857Y-15526295D01*
X3891142Y-15583438D01*
X3891142Y-15654867D01*
X3876857Y-15712010D01*
X3862571Y-15740581D01*
X3848285Y-15754867D01*
X3819714Y-15769153D01*
X3791142Y-15769153D01*
X3762571Y-15754867D01*
X3748285Y-15740581D01*
X3733999Y-15712010D01*
X3719714Y-15654867D01*
X3719714Y-15583438D01*
X3733999Y-15526295D01*
X3748285Y-15497724D01*
X3762571Y-15483438D01*
X3791142Y-15469153D01*
X4019714Y-15769153D02*
X4019714Y-15569153D01*
X4019714Y-15597724D02*
X4033999Y-15583438D01*
X4062571Y-15569153D01*
X4105428Y-15569153D01*
X4133999Y-15583438D01*
X4148285Y-15612010D01*
X4148285Y-15769153D01*
X4148285Y-15612010D02*
X4162571Y-15583438D01*
X4191142Y-15569153D01*
X4234000Y-15569153D01*
X4262571Y-15583438D01*
X4276857Y-15612010D01*
X4276857Y-15769153D01*
X4419714Y-15769153D02*
X4419714Y-15569153D01*
X4419714Y-15597724D02*
X4434000Y-15583438D01*
X4462571Y-15569153D01*
X4505428Y-15569153D01*
X4534000Y-15583438D01*
X4548285Y-15612010D01*
X4548285Y-15769153D01*
X4548285Y-15612010D02*
X4562571Y-15583438D01*
X4591142Y-15569153D01*
X4634000Y-15569153D01*
X4662571Y-15583438D01*
X4676857Y-15612010D01*
X4676857Y-15769153D01*
X5262571Y-15454867D02*
X5005428Y-15840581D01*
X5648285Y-15469153D02*
X5676857Y-15469153D01*
X5705428Y-15483438D01*
X5719714Y-15497724D01*
X5733999Y-15526295D01*
X5748285Y-15583438D01*
X5748285Y-15654867D01*
X5733999Y-15712010D01*
X5719714Y-15740581D01*
X5705428Y-15754867D01*
X5676857Y-15769153D01*
X5648285Y-15769153D01*
X5619714Y-15754867D01*
X5605428Y-15740581D01*
X5591142Y-15712010D01*
X5576857Y-15654867D01*
X5576857Y-15583438D01*
X5591142Y-15526295D01*
X5605428Y-15497724D01*
X5619714Y-15483438D01*
X5648285Y-15469153D01*
X5876857Y-15740581D02*
X5891142Y-15754867D01*
X5876857Y-15769153D01*
X5862571Y-15754867D01*
X5876857Y-15740581D01*
X5876857Y-15769153D01*
X6076857Y-15469153D02*
X6105428Y-15469153D01*
X6133999Y-15483438D01*
X6148285Y-15497724D01*
X6162571Y-15526295D01*
X6176857Y-15583438D01*
X6176857Y-15654867D01*
X6162571Y-15712010D01*
X6148285Y-15740581D01*
X6133999Y-15754867D01*
X6105428Y-15769153D01*
X6076857Y-15769153D01*
X6048285Y-15754867D01*
X6033999Y-15740581D01*
X6019714Y-15712010D01*
X6005428Y-15654867D01*
X6005428Y-15583438D01*
X6019714Y-15526295D01*
X6033999Y-15497724D01*
X6048285Y-15483438D01*
X6076857Y-15469153D01*
X6433999Y-15569153D02*
X6433999Y-15769153D01*
X6362571Y-15454867D02*
X6291142Y-15669153D01*
X6476857Y-15669153D01*
X6562571Y-15469153D02*
X6748285Y-15469153D01*
X6648285Y-15583438D01*
X6691142Y-15583438D01*
X6719714Y-15597724D01*
X6733999Y-15612010D01*
X6748285Y-15640581D01*
X6748285Y-15712010D01*
X6733999Y-15740581D01*
X6719714Y-15754867D01*
X6691142Y-15769153D01*
X6605428Y-15769153D01*
X6576857Y-15754867D01*
X6562571Y-15740581D01*
X6862571Y-15469153D02*
X6862571Y-15526295D01*
X6976857Y-15469153D02*
X6976857Y-15526295D01*
X7419714Y-15883438D02*
X7405428Y-15869153D01*
X7376857Y-15826295D01*
X7362571Y-15797724D01*
X7348285Y-15754867D01*
X7333999Y-15683438D01*
X7333999Y-15626295D01*
X7348285Y-15554867D01*
X7362571Y-15512010D01*
X7376857Y-15483438D01*
X7405428Y-15440581D01*
X7419714Y-15426295D01*
X7519714Y-15497724D02*
X7533999Y-15483438D01*
X7562571Y-15469153D01*
X7633999Y-15469153D01*
X7662571Y-15483438D01*
X7676857Y-15497724D01*
X7691142Y-15526295D01*
X7691142Y-15554867D01*
X7676857Y-15597724D01*
X7505428Y-15769153D01*
X7691142Y-15769153D01*
X7862571Y-15597724D02*
X7833999Y-15583438D01*
X7819714Y-15569153D01*
X7805428Y-15540581D01*
X7805428Y-15526295D01*
X7819714Y-15497724D01*
X7833999Y-15483438D01*
X7862571Y-15469153D01*
X7919714Y-15469153D01*
X7948285Y-15483438D01*
X7962571Y-15497724D01*
X7976857Y-15526295D01*
X7976857Y-15540581D01*
X7962571Y-15569153D01*
X7948285Y-15583438D01*
X7919714Y-15597724D01*
X7862571Y-15597724D01*
X7833999Y-15612010D01*
X7819714Y-15626295D01*
X7805428Y-15654867D01*
X7805428Y-15712010D01*
X7819714Y-15740581D01*
X7833999Y-15754867D01*
X7862571Y-15769153D01*
X7919714Y-15769153D01*
X7948285Y-15754867D01*
X7962571Y-15740581D01*
X7976857Y-15712010D01*
X7976857Y-15654867D01*
X7962571Y-15626295D01*
X7948285Y-15612010D01*
X7919714Y-15597724D01*
X8333999Y-15769153D02*
X8333999Y-15469153D01*
X8462571Y-15769153D02*
X8462571Y-15612010D01*
X8448285Y-15583438D01*
X8419714Y-15569153D01*
X8376857Y-15569153D01*
X8348285Y-15583438D01*
X8333999Y-15597724D01*
X8648285Y-15769153D02*
X8619714Y-15754867D01*
X8605428Y-15740581D01*
X8591142Y-15712010D01*
X8591142Y-15626295D01*
X8605428Y-15597724D01*
X8619714Y-15583438D01*
X8648285Y-15569153D01*
X8691142Y-15569153D01*
X8719714Y-15583438D01*
X8734000Y-15597724D01*
X8748285Y-15626295D01*
X8748285Y-15712010D01*
X8734000Y-15740581D01*
X8719714Y-15754867D01*
X8691142Y-15769153D01*
X8648285Y-15769153D01*
X8919714Y-15769153D02*
X8891142Y-15754867D01*
X8876857Y-15726295D01*
X8876857Y-15469153D01*
X9148285Y-15754867D02*
X9119714Y-15769153D01*
X9062571Y-15769153D01*
X9034000Y-15754867D01*
X9019714Y-15726295D01*
X9019714Y-15612010D01*
X9034000Y-15583438D01*
X9062571Y-15569153D01*
X9119714Y-15569153D01*
X9148285Y-15583438D01*
X9162571Y-15612010D01*
X9162571Y-15640581D01*
X9019714Y-15669153D01*
X9276857Y-15754867D02*
X9305428Y-15769153D01*
X9362571Y-15769153D01*
X9391142Y-15754867D01*
X9405428Y-15726295D01*
X9405428Y-15712010D01*
X9391142Y-15683438D01*
X9362571Y-15669153D01*
X9319714Y-15669153D01*
X9291142Y-15654867D01*
X9276857Y-15626295D01*
X9276857Y-15612010D01*
X9291142Y-15583438D01*
X9319714Y-15569153D01*
X9362571Y-15569153D01*
X9391142Y-15583438D01*
X9505428Y-15883438D02*
X9519714Y-15869153D01*
X9548285Y-15826295D01*
X9562571Y-15797724D01*
X9576857Y-15754867D01*
X9591142Y-15683438D01*
X9591142Y-15626295D01*
X9576857Y-15554867D01*
X9562571Y-15512010D01*
X9548285Y-15483438D01*
X9519714Y-15440581D01*
X9505428Y-15426295D01*
X2613285Y-15969438D02*
X2733285Y-16089438D01*
X2733285Y-15969438D02*
X2613285Y-16089438D01*
X2733285Y-16029438D02*
G75*
G03X2733285Y-16029438I-60000J0D01*
G01*
X3176857Y-16165153D02*
X3005428Y-16165153D01*
X3091142Y-16165153D02*
X3091142Y-15865153D01*
X3062571Y-15908010D01*
X3033999Y-15936581D01*
X3005428Y-15950867D01*
X3305428Y-16136581D02*
X3319714Y-16150867D01*
X3305428Y-16165153D01*
X3291142Y-16150867D01*
X3305428Y-16136581D01*
X3305428Y-16165153D01*
X3433999Y-15893724D02*
X3448285Y-15879438D01*
X3476857Y-15865153D01*
X3548285Y-15865153D01*
X3576857Y-15879438D01*
X3591142Y-15893724D01*
X3605428Y-15922295D01*
X3605428Y-15950867D01*
X3591142Y-15993724D01*
X3419714Y-16165153D01*
X3605428Y-16165153D01*
X3791142Y-15865153D02*
X3819714Y-15865153D01*
X3848285Y-15879438D01*
X3862571Y-15893724D01*
X3876857Y-15922295D01*
X3891142Y-15979438D01*
X3891142Y-16050867D01*
X3876857Y-16108010D01*
X3862571Y-16136581D01*
X3848285Y-16150867D01*
X3819714Y-16165153D01*
X3791142Y-16165153D01*
X3762571Y-16150867D01*
X3748285Y-16136581D01*
X3733999Y-16108010D01*
X3719714Y-16050867D01*
X3719714Y-15979438D01*
X3733999Y-15922295D01*
X3748285Y-15893724D01*
X3762571Y-15879438D01*
X3791142Y-15865153D01*
X4019714Y-16165153D02*
X4019714Y-15965153D01*
X4019714Y-15993724D02*
X4033999Y-15979438D01*
X4062571Y-15965153D01*
X4105428Y-15965153D01*
X4133999Y-15979438D01*
X4148285Y-16008010D01*
X4148285Y-16165153D01*
X4148285Y-16008010D02*
X4162571Y-15979438D01*
X4191142Y-15965153D01*
X4234000Y-15965153D01*
X4262571Y-15979438D01*
X4276857Y-16008010D01*
X4276857Y-16165153D01*
X4419714Y-16165153D02*
X4419714Y-15965153D01*
X4419714Y-15993724D02*
X4434000Y-15979438D01*
X4462571Y-15965153D01*
X4505428Y-15965153D01*
X4534000Y-15979438D01*
X4548285Y-16008010D01*
X4548285Y-16165153D01*
X4548285Y-16008010D02*
X4562571Y-15979438D01*
X4591142Y-15965153D01*
X4634000Y-15965153D01*
X4662571Y-15979438D01*
X4676857Y-16008010D01*
X4676857Y-16165153D01*
X5262571Y-15850867D02*
X5005428Y-16236581D01*
X5648285Y-15865153D02*
X5676857Y-15865153D01*
X5705428Y-15879438D01*
X5719714Y-15893724D01*
X5733999Y-15922295D01*
X5748285Y-15979438D01*
X5748285Y-16050867D01*
X5733999Y-16108010D01*
X5719714Y-16136581D01*
X5705428Y-16150867D01*
X5676857Y-16165153D01*
X5648285Y-16165153D01*
X5619714Y-16150867D01*
X5605428Y-16136581D01*
X5591142Y-16108010D01*
X5576857Y-16050867D01*
X5576857Y-15979438D01*
X5591142Y-15922295D01*
X5605428Y-15893724D01*
X5619714Y-15879438D01*
X5648285Y-15865153D01*
X5876857Y-16136581D02*
X5891142Y-16150867D01*
X5876857Y-16165153D01*
X5862571Y-16150867D01*
X5876857Y-16136581D01*
X5876857Y-16165153D01*
X6076857Y-15865153D02*
X6105428Y-15865153D01*
X6133999Y-15879438D01*
X6148285Y-15893724D01*
X6162571Y-15922295D01*
X6176857Y-15979438D01*
X6176857Y-16050867D01*
X6162571Y-16108010D01*
X6148285Y-16136581D01*
X6133999Y-16150867D01*
X6105428Y-16165153D01*
X6076857Y-16165153D01*
X6048285Y-16150867D01*
X6033999Y-16136581D01*
X6019714Y-16108010D01*
X6005428Y-16050867D01*
X6005428Y-15979438D01*
X6019714Y-15922295D01*
X6033999Y-15893724D01*
X6048285Y-15879438D01*
X6076857Y-15865153D01*
X6433999Y-15965153D02*
X6433999Y-16165153D01*
X6362571Y-15850867D02*
X6291142Y-16065153D01*
X6476857Y-16065153D01*
X6562571Y-15865153D02*
X6762571Y-15865153D01*
X6633999Y-16165153D01*
X6862571Y-15865153D02*
X6862571Y-15922295D01*
X6976857Y-15865153D02*
X6976857Y-15922295D01*
X7419714Y-16279438D02*
X7405428Y-16265153D01*
X7376857Y-16222295D01*
X7362571Y-16193724D01*
X7348285Y-16150867D01*
X7333999Y-16079438D01*
X7333999Y-16022295D01*
X7348285Y-15950867D01*
X7362571Y-15908010D01*
X7376857Y-15879438D01*
X7405428Y-15836581D01*
X7419714Y-15822295D01*
X7662571Y-15865153D02*
X7605428Y-15865153D01*
X7576857Y-15879438D01*
X7562571Y-15893724D01*
X7533999Y-15936581D01*
X7519714Y-15993724D01*
X7519714Y-16108010D01*
X7533999Y-16136581D01*
X7548285Y-16150867D01*
X7576857Y-16165153D01*
X7633999Y-16165153D01*
X7662571Y-16150867D01*
X7676857Y-16136581D01*
X7691142Y-16108010D01*
X7691142Y-16036581D01*
X7676857Y-16008010D01*
X7662571Y-15993724D01*
X7633999Y-15979438D01*
X7576857Y-15979438D01*
X7548285Y-15993724D01*
X7533999Y-16008010D01*
X7519714Y-16036581D01*
X8048285Y-16165153D02*
X8048285Y-15865153D01*
X8176857Y-16165153D02*
X8176857Y-16008010D01*
X8162571Y-15979438D01*
X8133999Y-15965153D01*
X8091142Y-15965153D01*
X8062571Y-15979438D01*
X8048285Y-15993724D01*
X8362571Y-16165153D02*
X8333999Y-16150867D01*
X8319714Y-16136581D01*
X8305428Y-16108010D01*
X8305428Y-16022295D01*
X8319714Y-15993724D01*
X8333999Y-15979438D01*
X8362571Y-15965153D01*
X8405428Y-15965153D01*
X8434000Y-15979438D01*
X8448285Y-15993724D01*
X8462571Y-16022295D01*
X8462571Y-16108010D01*
X8448285Y-16136581D01*
X8434000Y-16150867D01*
X8405428Y-16165153D01*
X8362571Y-16165153D01*
X8634000Y-16165153D02*
X8605428Y-16150867D01*
X8591142Y-16122295D01*
X8591142Y-15865153D01*
X8862571Y-16150867D02*
X8834000Y-16165153D01*
X8776857Y-16165153D01*
X8748285Y-16150867D01*
X8734000Y-16122295D01*
X8734000Y-16008010D01*
X8748285Y-15979438D01*
X8776857Y-15965153D01*
X8834000Y-15965153D01*
X8862571Y-15979438D01*
X8876857Y-16008010D01*
X8876857Y-16036581D01*
X8734000Y-16065153D01*
X8991142Y-16150867D02*
X9019714Y-16165153D01*
X9076857Y-16165153D01*
X9105428Y-16150867D01*
X9119714Y-16122295D01*
X9119714Y-16108010D01*
X9105428Y-16079438D01*
X9076857Y-16065153D01*
X9034000Y-16065153D01*
X9005428Y-16050867D01*
X8991142Y-16022295D01*
X8991142Y-16008010D01*
X9005428Y-15979438D01*
X9034000Y-15965153D01*
X9076857Y-15965153D01*
X9105428Y-15979438D01*
X9219714Y-16279438D02*
X9234000Y-16265153D01*
X9262571Y-16222295D01*
X9276857Y-16193724D01*
X9291142Y-16150867D01*
X9305428Y-16079438D01*
X9305428Y-16022295D01*
X9291142Y-15950867D01*
X9276857Y-15908010D01*
X9262571Y-15879438D01*
X9234000Y-15836581D01*
X9219714Y-15822295D01*
X2483285Y-16300438D02*
X2733285Y-16550438D01*
X2733285Y-16300438D02*
X2483285Y-16550438D01*
X2608285Y-16300438D02*
X2608285Y-16550438D01*
X2483285Y-16425438D02*
X2733285Y-16425438D01*
X3005428Y-16289724D02*
X3019714Y-16275438D01*
X3048285Y-16261153D01*
X3119714Y-16261153D01*
X3148285Y-16275438D01*
X3162571Y-16289724D01*
X3176857Y-16318295D01*
X3176857Y-16346867D01*
X3162571Y-16389724D01*
X2991142Y-16561153D01*
X3176857Y-16561153D01*
X3305428Y-16532581D02*
X3319714Y-16546867D01*
X3305428Y-16561153D01*
X3291142Y-16546867D01*
X3305428Y-16532581D01*
X3305428Y-16561153D01*
X3591142Y-16261153D02*
X3448285Y-16261153D01*
X3433999Y-16404010D01*
X3448285Y-16389724D01*
X3476857Y-16375438D01*
X3548285Y-16375438D01*
X3576857Y-16389724D01*
X3591142Y-16404010D01*
X3605428Y-16432581D01*
X3605428Y-16504010D01*
X3591142Y-16532581D01*
X3576857Y-16546867D01*
X3548285Y-16561153D01*
X3476857Y-16561153D01*
X3448285Y-16546867D01*
X3433999Y-16532581D01*
X3791142Y-16261153D02*
X3819714Y-16261153D01*
X3848285Y-16275438D01*
X3862571Y-16289724D01*
X3876857Y-16318295D01*
X3891142Y-16375438D01*
X3891142Y-16446867D01*
X3876857Y-16504010D01*
X3862571Y-16532581D01*
X3848285Y-16546867D01*
X3819714Y-16561153D01*
X3791142Y-16561153D01*
X3762571Y-16546867D01*
X3748285Y-16532581D01*
X3733999Y-16504010D01*
X3719714Y-16446867D01*
X3719714Y-16375438D01*
X3733999Y-16318295D01*
X3748285Y-16289724D01*
X3762571Y-16275438D01*
X3791142Y-16261153D01*
X4019714Y-16561153D02*
X4019714Y-16361153D01*
X4019714Y-16389724D02*
X4033999Y-16375438D01*
X4062571Y-16361153D01*
X4105428Y-16361153D01*
X4133999Y-16375438D01*
X4148285Y-16404010D01*
X4148285Y-16561153D01*
X4148285Y-16404010D02*
X4162571Y-16375438D01*
X4191142Y-16361153D01*
X4234000Y-16361153D01*
X4262571Y-16375438D01*
X4276857Y-16404010D01*
X4276857Y-16561153D01*
X4419714Y-16561153D02*
X4419714Y-16361153D01*
X4419714Y-16389724D02*
X4434000Y-16375438D01*
X4462571Y-16361153D01*
X4505428Y-16361153D01*
X4534000Y-16375438D01*
X4548285Y-16404010D01*
X4548285Y-16561153D01*
X4548285Y-16404010D02*
X4562571Y-16375438D01*
X4591142Y-16361153D01*
X4634000Y-16361153D01*
X4662571Y-16375438D01*
X4676857Y-16404010D01*
X4676857Y-16561153D01*
X5262571Y-16246867D02*
X5005428Y-16632581D01*
X5648285Y-16261153D02*
X5676857Y-16261153D01*
X5705428Y-16275438D01*
X5719714Y-16289724D01*
X5733999Y-16318295D01*
X5748285Y-16375438D01*
X5748285Y-16446867D01*
X5733999Y-16504010D01*
X5719714Y-16532581D01*
X5705428Y-16546867D01*
X5676857Y-16561153D01*
X5648285Y-16561153D01*
X5619714Y-16546867D01*
X5605428Y-16532581D01*
X5591142Y-16504010D01*
X5576857Y-16446867D01*
X5576857Y-16375438D01*
X5591142Y-16318295D01*
X5605428Y-16289724D01*
X5619714Y-16275438D01*
X5648285Y-16261153D01*
X5876857Y-16532581D02*
X5891142Y-16546867D01*
X5876857Y-16561153D01*
X5862571Y-16546867D01*
X5876857Y-16532581D01*
X5876857Y-16561153D01*
X6076857Y-16261153D02*
X6105428Y-16261153D01*
X6133999Y-16275438D01*
X6148285Y-16289724D01*
X6162571Y-16318295D01*
X6176857Y-16375438D01*
X6176857Y-16446867D01*
X6162571Y-16504010D01*
X6148285Y-16532581D01*
X6133999Y-16546867D01*
X6105428Y-16561153D01*
X6076857Y-16561153D01*
X6048285Y-16546867D01*
X6033999Y-16532581D01*
X6019714Y-16504010D01*
X6005428Y-16446867D01*
X6005428Y-16375438D01*
X6019714Y-16318295D01*
X6033999Y-16289724D01*
X6048285Y-16275438D01*
X6076857Y-16261153D01*
X6319714Y-16561153D02*
X6376857Y-16561153D01*
X6405428Y-16546867D01*
X6419714Y-16532581D01*
X6448285Y-16489724D01*
X6462571Y-16432581D01*
X6462571Y-16318295D01*
X6448285Y-16289724D01*
X6433999Y-16275438D01*
X6405428Y-16261153D01*
X6348285Y-16261153D01*
X6319714Y-16275438D01*
X6305428Y-16289724D01*
X6291142Y-16318295D01*
X6291142Y-16389724D01*
X6305428Y-16418295D01*
X6319714Y-16432581D01*
X6348285Y-16446867D01*
X6405428Y-16446867D01*
X6433999Y-16432581D01*
X6448285Y-16418295D01*
X6462571Y-16389724D01*
X6633999Y-16389724D02*
X6605428Y-16375438D01*
X6591142Y-16361153D01*
X6576857Y-16332581D01*
X6576857Y-16318295D01*
X6591142Y-16289724D01*
X6605428Y-16275438D01*
X6633999Y-16261153D01*
X6691142Y-16261153D01*
X6719714Y-16275438D01*
X6733999Y-16289724D01*
X6748285Y-16318295D01*
X6748285Y-16332581D01*
X6733999Y-16361153D01*
X6719714Y-16375438D01*
X6691142Y-16389724D01*
X6633999Y-16389724D01*
X6605428Y-16404010D01*
X6591142Y-16418295D01*
X6576857Y-16446867D01*
X6576857Y-16504010D01*
X6591142Y-16532581D01*
X6605428Y-16546867D01*
X6633999Y-16561153D01*
X6691142Y-16561153D01*
X6719714Y-16546867D01*
X6733999Y-16532581D01*
X6748285Y-16504010D01*
X6748285Y-16446867D01*
X6733999Y-16418295D01*
X6719714Y-16404010D01*
X6691142Y-16389724D01*
X6862571Y-16261153D02*
X6862571Y-16318295D01*
X6976857Y-16261153D02*
X6976857Y-16318295D01*
X7419714Y-16675438D02*
X7405428Y-16661153D01*
X7376857Y-16618295D01*
X7362571Y-16589724D01*
X7348285Y-16546867D01*
X7333999Y-16475438D01*
X7333999Y-16418295D01*
X7348285Y-16346867D01*
X7362571Y-16304010D01*
X7376857Y-16275438D01*
X7405428Y-16232581D01*
X7419714Y-16218295D01*
X7691142Y-16561153D02*
X7519714Y-16561153D01*
X7605428Y-16561153D02*
X7605428Y-16261153D01*
X7576857Y-16304010D01*
X7548285Y-16332581D01*
X7519714Y-16346867D01*
X7805428Y-16289724D02*
X7819714Y-16275438D01*
X7848285Y-16261153D01*
X7919714Y-16261153D01*
X7948285Y-16275438D01*
X7962571Y-16289724D01*
X7976857Y-16318295D01*
X7976857Y-16346867D01*
X7962571Y-16389724D01*
X7791142Y-16561153D01*
X7976857Y-16561153D01*
X8333999Y-16561153D02*
X8333999Y-16261153D01*
X8462571Y-16561153D02*
X8462571Y-16404010D01*
X8448285Y-16375438D01*
X8419714Y-16361153D01*
X8376857Y-16361153D01*
X8348285Y-16375438D01*
X8333999Y-16389724D01*
X8648285Y-16561153D02*
X8619714Y-16546867D01*
X8605428Y-16532581D01*
X8591142Y-16504010D01*
X8591142Y-16418295D01*
X8605428Y-16389724D01*
X8619714Y-16375438D01*
X8648285Y-16361153D01*
X8691142Y-16361153D01*
X8719714Y-16375438D01*
X8734000Y-16389724D01*
X8748285Y-16418295D01*
X8748285Y-16504010D01*
X8734000Y-16532581D01*
X8719714Y-16546867D01*
X8691142Y-16561153D01*
X8648285Y-16561153D01*
X8919714Y-16561153D02*
X8891142Y-16546867D01*
X8876857Y-16518295D01*
X8876857Y-16261153D01*
X9148285Y-16546867D02*
X9119714Y-16561153D01*
X9062571Y-16561153D01*
X9034000Y-16546867D01*
X9019714Y-16518295D01*
X9019714Y-16404010D01*
X9034000Y-16375438D01*
X9062571Y-16361153D01*
X9119714Y-16361153D01*
X9148285Y-16375438D01*
X9162571Y-16404010D01*
X9162571Y-16432581D01*
X9019714Y-16461153D01*
X9276857Y-16546867D02*
X9305428Y-16561153D01*
X9362571Y-16561153D01*
X9391142Y-16546867D01*
X9405428Y-16518295D01*
X9405428Y-16504010D01*
X9391142Y-16475438D01*
X9362571Y-16461153D01*
X9319714Y-16461153D01*
X9291142Y-16446867D01*
X9276857Y-16418295D01*
X9276857Y-16404010D01*
X9291142Y-16375438D01*
X9319714Y-16361153D01*
X9362571Y-16361153D01*
X9391142Y-16375438D01*
X9505428Y-16675438D02*
X9519714Y-16661153D01*
X9548285Y-16618295D01*
X9562571Y-16589724D01*
X9576857Y-16546867D01*
X9591142Y-16475438D01*
X9591142Y-16418295D01*
X9576857Y-16346867D01*
X9562571Y-16304010D01*
X9548285Y-16275438D01*
X9519714Y-16232581D01*
X9505428Y-16218295D01*
M02*
