M48
; DRILL file {KiCad (5.1.5-0-10_14)} date Monday, 01 June 2020 at 11:01:49
; FORMAT={-:-/ absolute / metric / decimal}
; #@! TF.CreationDate,2020-06-01T11:01:49+02:00
; #@! TF.GenerationSoftware,Kicad,Pcbnew,(5.1.5-0-10_14)
; #@! TF.FileFunction,Plated,1,2,PTH
FMAT,2
METRIC
T1C0.200
T2C0.600
T3C0.800
T4C0.900
T5C1.000
T6C1.100
T7C2.500
T8C3.500
%
G90
G05
T1
X97.626Y-98.768
X97.626Y-99.768
X97.626Y-100.768
X97.626Y-101.768
X98.626Y-98.768
X98.626Y-99.768
X98.626Y-100.768
X98.626Y-101.768
X99.626Y-98.768
X99.626Y-99.768
X99.626Y-100.768
X99.626Y-101.768
X100.626Y-98.768
X100.626Y-99.768
X100.626Y-100.768
X100.626Y-101.768
X98.324Y-54.699
X98.324Y-55.699
X98.324Y-56.699
X98.324Y-57.699
X99.324Y-54.699
X99.324Y-55.699
X99.324Y-56.699
X99.324Y-57.699
X100.324Y-54.699
X100.324Y-55.699
X100.324Y-56.699
X100.324Y-57.699
X101.324Y-54.699
X101.324Y-55.699
X101.324Y-56.699
X101.324Y-57.699
T2
X28.358Y-39.369
X28.358Y-129.369
X28.858Y-34.369
X28.858Y-42.369
X28.858Y-45.869
X28.858Y-49.369
X28.858Y-54.369
X28.858Y-60.369
X28.858Y-67.369
X28.858Y-123.869
X28.878Y-118.889
X28.884Y-73.343
X28.907Y-76.52
X28.909Y-115.02
X28.929Y-112.441
X28.941Y-81.286
X28.958Y-85.169
X28.958Y-89.269
X28.958Y-93.269
X28.958Y-99.769
X28.958Y-105.869
X29.658Y-57.869
X30.958Y-47.569
X30.958Y-51.269
X31.058Y-43.069
X31.058Y-111.069
X31.158Y-61.069
X31.358Y-40.869
X31.458Y-118.769
X31.558Y-77.369
X31.658Y-114.869
X31.858Y-54.369
X32.758Y-61.269
X33.008Y-86.669
X33.008Y-79.419
X33.008Y-99.869
X33.008Y-111.669
X33.758Y-124.069
X33.858Y-63.869
X33.858Y-65.869
X33.958Y-73.969
X34.858Y-33.869
X34.858Y-55.869
X34.858Y-71.869
X35.008Y-87.269
X35.258Y-126.669
X35.358Y-54.369
X35.358Y-75.869
X35.358Y-79.369
X35.358Y-129.869
X35.908Y-101.369
X36.758Y-60.569
X36.858Y-66.869
X36.858Y-118.869
X36.958Y-111.169
X36.958Y-114.969
X37.358Y-77.369
X37.358Y-89.869
X37.358Y-93.869
X37.358Y-98.869
X37.358Y-101.869
X37.358Y-106.369
X37.758Y-59.069
X37.858Y-56.869
X37.858Y-62.869
X37.858Y-81.369
X37.858Y-111.869
X37.858Y-114.369
X37.958Y-86.869
X37.958Y-126.769
X38.358Y-41.869
X38.658Y-90.169
X38.658Y-100.269
X38.758Y-85.669
X38.758Y-93.169
X38.758Y-102.969
X38.858Y-74.769
X38.858Y-98.369
X39.058Y-72.069
X39.458Y-129.869
X39.888Y-117.069
X40.358Y-37.869
X40.358Y-43.869
X40.398Y-34.329
X40.458Y-126.769
X40.858Y-121.869
X40.958Y-76.269
X41.058Y-84.869
X41.058Y-89.769
X41.058Y-100.469
X41.258Y-80.769
X41.258Y-93.569
X41.258Y-113.869
X41.358Y-74.069
X41.358Y-105.469
X41.358Y-110.169
X42.058Y-117.269
X42.358Y-41.369
X42.358Y-64.369
X42.358Y-64.369
X42.358Y-95.969
X42.458Y-66.369
X42.858Y-50.369
X43.158Y-108.069
X43.258Y-78.169
X43.458Y-92.769
X43.558Y-69.169
X43.858Y-43.869
X43.858Y-83.069
X43.858Y-88.469
X44.158Y-119.269
X44.458Y-126.769
X44.458Y-129.869
X44.558Y-105.169
X44.758Y-113.769
X45.158Y-77.369
X45.458Y-63.369
X45.558Y-74.369
X45.658Y-81.669
X45.658Y-117.669
X45.858Y-50.369
X45.858Y-121.214
X45.958Y-87.869
X46.158Y-68.969
X46.158Y-83.969
X46.258Y-91.169
X46.358Y-39.869
X46.39Y-60.161
X46.758Y-65.569
X46.958Y-105.069
X46.958Y-107.969
X47.058Y-111.269
X47.758Y-126.669
X47.858Y-44.869
X48.258Y-113.669
X48.358Y-82.069
X48.526Y-60.611
X48.547Y-55.105
X48.758Y-119.669
X48.858Y-40.869
X48.858Y-89.369
X48.858Y-91.369
X48.858Y-103.869
X49.308Y-129.719
X49.508Y-125.269
X49.558Y-73.969
X49.558Y-126.869
X50.358Y-49.869
X50.458Y-83.269
X50.658Y-110.969
X50.758Y-106.969
X50.858Y-78.869
X51.058Y-114.269
X51.358Y-69.169
X51.758Y-81.269
X51.858Y-46.869
X51.858Y-117.169
X51.958Y-59.369
X51.958Y-86.669
X52.058Y-75.869
X52.626Y-64.934
X52.758Y-107.769
X52.858Y-38.869
X52.958Y-105.069
X53.058Y-129.969
X53.258Y-33.969
X53.358Y-111.069
X53.858Y-42.869
X54.258Y-113.569
X54.358Y-81.369
X54.358Y-102.369
X54.358Y-116.669
X54.458Y-74.069
X54.658Y-126.969
X54.858Y-78.869
X54.958Y-68.169
X55.058Y-105.069
X55.358Y-94.869
X55.858Y-45.869
X55.858Y-89.869
X55.858Y-101.569
X56.258Y-126.969
X56.358Y-35.369
X56.858Y-40.369
X57.058Y-129.769
X57.358Y-86.369
X57.358Y-92.369
X57.358Y-95.869
X57.458Y-81.769
X57.458Y-108.069
X57.458Y-111.669
X57.858Y-58.369
X57.858Y-75.169
X58.458Y-114.969
X58.658Y-67.969
X58.858Y-44.369
X59.158Y-105.069
X59.358Y-78.369
X59.358Y-90.069
X59.708Y-117.819
X59.758Y-33.969
X59.858Y-37.869
X59.958Y-74.069
X60.358Y-41.369
X60.558Y-123.969
X60.647Y-64.787
X60.858Y-55.869
X61.058Y-113.869
X61.058Y-117.469
X61.258Y-111.669
X61.258Y-129.569
X61.358Y-105.069
X61.458Y-126.969
X61.658Y-82.469
X61.658Y-86.269
X61.858Y-48.869
X62.41Y-64.517
X62.41Y-68.117
X62.458Y-77.469
X62.658Y-123.869
X62.708Y-116.819
X63.331Y-35.396
X63.358Y-74.069
X63.658Y-114.969
X63.858Y-82.369
X63.858Y-86.369
X63.958Y-112.669
X64.258Y-123.969
X64.558Y-126.969
X64.664Y-42.063
X64.664Y-46.563
X64.758Y-129.569
X65.358Y-106.869
X65.358Y-111.069
X65.558Y-77.469
X65.858Y-55.869
X66.058Y-64.969
X66.258Y-75.469
X66.622Y-71.144
X66.658Y-114.869
X66.758Y-60.669
X66.858Y-103.869
X66.988Y-57.999
X67.358Y-68.269
X67.758Y-110.969
X67.758Y-112.969
X67.858Y-33.869
X67.858Y-36.869
X67.858Y-40.869
X67.858Y-44.869
X67.858Y-48.869
X67.858Y-78.069
X68.758Y-74.269
X69.303Y-56.424
X69.358Y-51.869
X69.358Y-114.369
X69.558Y-101.769
X69.558Y-105.069
X69.658Y-129.869
X69.858Y-61.369
X69.858Y-64.869
X69.858Y-77.069
X70.158Y-126.969
X70.358Y-91.869
X70.358Y-96.369
X70.658Y-99.769
X71.258Y-114.669
X71.358Y-38.869
X71.358Y-42.369
X71.358Y-62.369
X71.658Y-112.069
X71.658Y-126.969
X71.858Y-52.369
X71.858Y-109.869
X71.958Y-107.969
X72.358Y-93.869
X72.558Y-74.169
X72.658Y-68.169
X72.858Y-33.869
X72.858Y-43.869
X73.029Y-55.698
X73.058Y-129.869
X73.358Y-78.369
X73.458Y-114.969
X73.858Y-60.869
X73.858Y-99.369
X73.858Y-105.069
X73.958Y-111.869
X73.997Y-66.728
X74.358Y-63.869
X74.433Y-91.144
X74.858Y-53.369
X74.858Y-56.869
X75.258Y-73.069
X75.858Y-40.869
X75.858Y-44.869
X75.858Y-100.369
X75.858Y-105.069
X75.858Y-106.569
X75.858Y-108.369
X75.858Y-111.669
X75.958Y-115.469
X76.058Y-77.569
X76.158Y-113.269
X76.258Y-123.869
X76.358Y-95.369
X76.512Y-51.381
X76.558Y-129.969
X76.629Y-117.482
X76.758Y-126.969
X76.833Y-91.144
X77.358Y-46.869
X77.358Y-60.369
X77.458Y-97.869
X77.609Y-63.954
X77.655Y-52.281
X77.658Y-55.769
X77.758Y-88.269
X77.858Y-65.869
X77.858Y-67.369
X77.858Y-75.569
X78.158Y-78.569
X78.358Y-91.869
X78.358Y-102.369
X78.358Y-123.869
X78.858Y-33.869
X78.879Y-42.293
X78.958Y-99.269
X78.983Y-72.194
X79.008Y-80.119
X79.021Y-58.645
X79.158Y-86.519
X79.358Y-40.369
X79.358Y-96.369
X79.658Y-110.869
X79.858Y-44.369
X80.058Y-123.869
X80.133Y-88.394
X80.158Y-105.069
X80.158Y-107.469
X80.258Y-100.569
X80.358Y-59.869
X80.358Y-62.869
X80.358Y-126.969
X80.858Y-77.069
X81.058Y-66.569
X81.258Y-129.869
X81.358Y-49.069
X81.358Y-95.869
X81.358Y-98.869
X81.658Y-92.169
X81.658Y-103.569
X81.658Y-107.469
X81.933Y-88.394
X82.044Y-56.979
X82.058Y-86.769
X82.058Y-110.869
X82.058Y-115.469
X82.158Y-105.069
X82.258Y-72.469
X82.258Y-113.169
X82.358Y-39.869
X82.358Y-44.869
X82.358Y-47.869
X82.858Y-61.869
X83.158Y-101.969
X83.358Y-48.869
X83.533Y-88.394
X84.058Y-105.069
X84.158Y-78.569
X84.358Y-74.169
X84.558Y-83.569
X84.758Y-97.269
X84.858Y-38.369
X84.858Y-64.869
X84.858Y-91.669
X84.858Y-94.269
X85.158Y-100.769
X85.233Y-89.294
X85.358Y-44.369
X85.358Y-67.869
X85.358Y-103.369
X85.44Y-115.414
X85.558Y-126.969
X85.658Y-40.169
X85.658Y-98.669
X85.858Y-58.869
X86.258Y-93.069
X86.283Y-90.344
X86.358Y-33.869
X86.458Y-129.869
X86.558Y-72.369
X86.626Y-50.146
X86.7Y-53.436
X86.774Y-52.138
X86.858Y-54.869
X87.158Y-126.969
X87.258Y-92.069
X87.258Y-94.169
X87.258Y-100.969
X87.358Y-66.569
X87.508Y-103.819
X87.558Y-43.869
X87.558Y-76.069
X87.558Y-106.569
X87.558Y-110.069
X87.558Y-111.969
X87.658Y-90.769
X87.658Y-107.969
X87.758Y-116.669
X88.158Y-88.969
X88.358Y-40.869
X88.678Y-94.789
X88.858Y-65.369
X89.008Y-62.169
X89.058Y-92.769
X89.058Y-98.569
X89.059Y-115.647
X89.158Y-78.569
X89.558Y-72.669
X90.258Y-82.669
X90.358Y-44.369
X90.358Y-47.369
X90.458Y-75.269
X90.908Y-94.619
X90.958Y-55.269
X91.208Y-93.219
X91.358Y-33.869
X91.358Y-52.869
X91.508Y-81.814
X91.558Y-96.569
X91.752Y-102.196
X91.958Y-72.369
X92.033Y-65.194
X92.558Y-76.769
X92.558Y-126.969
X92.658Y-96.369
X92.712Y-100.87
X92.955Y-99.381
X92.958Y-129.669
X92.976Y-103.862
X93.058Y-63.969
X93.41Y-102.022
X93.658Y-97.569
X93.858Y-68.869
X94.058Y-74.869
X94.358Y-99.569
X94.458Y-50.269
X94.508Y-94.619
X94.632Y-57.043
X94.658Y-40.769
X94.658Y-43.969
X94.708Y-105.757
X94.758Y-37.869
X94.869Y-102.76
X95.058Y-78.869
X95.258Y-46.169
X95.295Y-118.056
X95.298Y-103.903
X95.394Y-95.953
X95.658Y-72.269
X95.658Y-92.369
X95.733Y-97.772
X95.758Y-126.969
X95.858Y-66.869
X95.945Y-58.753
X95.958Y-129.869
X96.158Y-80.569
X96.258Y-48.169
X96.358Y-52.169
X96.558Y-76.669
X96.71Y-59.645
X96.758Y-110.169
X96.758Y-112.269
X96.758Y-96.569
X96.858Y-41.069
X96.937Y-104.078
X96.946Y-61.494
X96.958Y-46.669
X97.158Y-94.669
X97.258Y-37.869
X97.258Y-64.244
X97.502Y-105.247
X98.085Y-60.769
X98.358Y-33.869
X98.358Y-78.969
X98.558Y-64.569
X98.758Y-68.869
X98.758Y-93.669
X98.858Y-43.169
X99.158Y-39.869
X99.166Y-63.504
X99.258Y-66.769
X99.258Y-72.569
X99.258Y-112.169
X99.358Y-109.369
X99.858Y-37.869
X99.945Y-47.723
X100.004Y-49.402
X100.358Y-65.569
X100.358Y-74.369
X100.358Y-76.669
X100.558Y-51.627
X100.558Y-63.212
X100.758Y-41.569
X100.958Y-129.769
X101.058Y-126.969
X101.158Y-64.369
X101.158Y-110.769
X101.193Y-61.302
X101.258Y-66.769
X101.352Y-104.237
X101.458Y-93.969
X101.558Y-38.769
X101.958Y-79.169
X101.958Y-114.869
X102.213Y-63.451
X102.358Y-37.769
X102.428Y-52.605
X102.458Y-104.769
X102.558Y-72.369
X102.558Y-128.469
X102.658Y-61.294
X102.665Y-102.118
X103.058Y-40.369
X103.091Y-59.069
X103.263Y-103.486
X103.71Y-95.894
X103.758Y-113.969
X103.761Y-53.456
X104.358Y-115.269
X104.454Y-87.756
X104.458Y-76.769
X104.475Y-103.034
X104.724Y-98.214
X104.745Y-91.682
X104.843Y-93.784
X105.003Y-95.935
X105.158Y-74.169
X105.258Y-129.869
X105.358Y-68.869
X105.547Y-104.002
X105.558Y-45.669
X105.558Y-72.569
X105.656Y-100.39
X105.858Y-33.869
X105.872Y-101.747
X105.943Y-97.048
X105.958Y-62.969
X106.158Y-114.969
X106.358Y-78.969
X106.542Y-89.969
X106.618Y-98.209
X106.883Y-106.606
X107.078Y-103.796
X107.658Y-109.569
X107.658Y-128.069
X107.661Y-89.054
X107.758Y-87.869
X108.022Y-91.305
X108.058Y-70.369
X108.13Y-103.034
X108.157Y-67.515
X108.258Y-76.469
X108.358Y-54.869
X108.458Y-42.869
X108.558Y-40.369
X108.558Y-78.769
X108.718Y-92.709
X108.758Y-115.169
X108.85Y-106.0
X108.858Y-72.369
X108.858Y-126.969
X109.334Y-93.945
X109.358Y-45.769
X109.824Y-91.335
X110.058Y-75.869
X110.358Y-107.869
X110.408Y-59.569
X110.458Y-40.469
X110.458Y-105.869
X110.458Y-129.969
X110.471Y-92.783
X110.558Y-38.269
X111.158Y-64.469
X111.258Y-77.169
X111.258Y-78.369
X111.258Y-115.169
X111.275Y-67.786
X111.358Y-72.169
X111.358Y-109.469
X111.408Y-88.969
X111.411Y-66.016
X111.558Y-126.969
X111.758Y-128.669
X111.808Y-101.169
X112.047Y-42.839
X112.158Y-38.069
X112.158Y-46.569
X112.258Y-40.369
X112.508Y-87.869
X112.558Y-75.869
X112.658Y-108.169
X112.858Y-62.869
X113.258Y-96.969
X113.558Y-91.969
X113.658Y-70.369
X113.758Y-48.569
X113.758Y-93.369
X113.758Y-109.869
X113.958Y-115.169
X114.058Y-77.169
X114.058Y-78.869
X114.158Y-129.769
X114.358Y-52.869
X114.358Y-52.869
X114.747Y-64.175
X114.84Y-88.451
X114.858Y-45.869
X114.858Y-86.869
X114.858Y-86.869
X114.858Y-86.869
X115.407Y-100.906
X115.508Y-92.419
X115.758Y-93.869
X115.958Y-67.869
X116.265Y-113.253
X116.42Y-95.607
X116.458Y-90.469
X116.458Y-114.969
X116.728Y-101.284
X116.758Y-62.769
X117.058Y-78.769
X117.058Y-126.969
X117.258Y-71.669
X117.258Y-128.769
X117.566Y-113.992
X117.658Y-75.269
X117.758Y-66.269
X118.128Y-59.599
X118.358Y-115.269
X118.458Y-46.269
X118.458Y-47.969
X118.46Y-49.212
X118.558Y-121.169
X118.558Y-129.669
X118.708Y-90.519
X119.108Y-78.469
X119.158Y-113.569
X119.358Y-64.569
X119.358Y-110.069
X119.558Y-93.369
X119.658Y-43.869
X119.758Y-57.669
X119.958Y-68.569
X119.958Y-118.269
X120.258Y-72.969
X120.358Y-47.969
X120.358Y-87.669
X120.358Y-90.069
X120.458Y-104.269
X120.958Y-45.969
X121.058Y-115.569
X121.158Y-84.569
X121.258Y-38.169
X121.258Y-53.969
X121.325Y-56.517
X121.325Y-62.918
X121.358Y-110.169
X121.358Y-120.369
X121.658Y-104.469
X121.758Y-77.869
X121.858Y-41.669
X121.858Y-113.369
X122.058Y-123.669
X122.327Y-43.0
X122.358Y-33.869
X122.458Y-64.569
X122.658Y-92.469
X122.658Y-96.669
X122.758Y-88.669
X122.758Y-105.569
X122.858Y-90.569
X122.858Y-94.469
X122.958Y-44.969
X122.958Y-73.869
X122.958Y-129.669
X123.058Y-57.569
X123.133Y-47.944
X123.158Y-110.169
X123.198Y-126.91
X123.728Y-59.599
X123.958Y-54.869
X123.958Y-123.669
X124.058Y-78.969
X124.158Y-120.169
X124.313Y-106.327
X124.419Y-39.626
X124.46Y-109.981
X125.058Y-93.569
X125.058Y-96.669
X125.133Y-45.944
X125.158Y-64.669
X125.158Y-113.269
X125.258Y-51.969
X125.258Y-88.669
X125.258Y-90.669
X125.46Y-49.336
X125.501Y-110.901
X125.858Y-56.869
X126.858Y-35.869
X126.858Y-116.469
X126.858Y-119.669
X126.958Y-113.669
X127.058Y-121.669
X127.084Y-126.896
X127.158Y-53.969
X127.158Y-64.569
X127.158Y-79.769
X127.158Y-129.669
X127.528Y-59.599
X127.858Y-33.869
X128.158Y-73.269
X128.258Y-55.769
X128.258Y-76.269
X128.558Y-117.769
X128.658Y-81.569
X128.758Y-69.769
X128.806Y-40.521
X129.058Y-66.269
X129.058Y-108.769
X129.158Y-111.169
X129.258Y-84.169
X129.258Y-115.969
X129.519Y-61.508
X129.658Y-120.569
X129.675Y-126.886
X129.788Y-105.569
X129.858Y-107.769
X129.958Y-37.269
X130.158Y-129.669
X130.258Y-57.669
X130.406Y-62.394
X130.558Y-81.769
X130.558Y-108.869
X130.758Y-90.269
X130.758Y-106.469
X130.858Y-71.669
X131.258Y-95.769
X131.358Y-78.669
X131.508Y-92.419
X131.558Y-68.769
X131.819Y-63.808
X132.058Y-99.269
X132.158Y-54.469
X132.258Y-59.369
X132.358Y-113.669
X132.758Y-74.569
X132.858Y-33.869
X132.864Y-62.11
X133.158Y-124.669
X133.258Y-38.269
X133.358Y-42.769
X133.358Y-70.569
X133.358Y-120.169
X133.658Y-79.169
X133.758Y-60.569
X133.758Y-63.469
X133.758Y-90.669
X133.858Y-82.769
X133.958Y-57.569
X133.958Y-85.569
X134.058Y-53.869
X134.058Y-101.269
X134.058Y-103.869
X134.058Y-108.469
X134.078Y-48.125
X134.158Y-129.669
X134.358Y-113.669
X134.438Y-125.389
X135.008Y-127.519
X135.176Y-59.969
X135.258Y-95.269
X135.358Y-37.369
X135.458Y-73.669
X135.69Y-67.037
X136.158Y-85.369
X136.258Y-39.669
X136.258Y-42.669
X136.358Y-82.469
X136.458Y-116.769
X136.558Y-54.869
X136.558Y-56.769
X136.558Y-63.969
X136.558Y-74.469
X136.658Y-61.569
X136.658Y-90.669
X136.758Y-51.169
X136.758Y-99.769
X136.858Y-103.869
X136.858Y-107.869
X136.958Y-60.069
X137.058Y-71.269
X137.408Y-112.019
X137.858Y-33.869
X137.958Y-119.169
X137.958Y-125.469
X137.99Y-67.037
X138.058Y-76.869
X138.258Y-95.869
X138.458Y-121.269
X138.558Y-129.669
X138.658Y-37.169
X138.858Y-79.769
X139.158Y-73.169
X139.258Y-40.969
X139.258Y-52.069
X139.358Y-115.869
X139.558Y-109.669
X139.858Y-45.869
X139.858Y-55.469
X140.058Y-100.969
X140.058Y-127.569
X140.158Y-49.369
X140.258Y-61.669
X140.258Y-92.869
X140.29Y-67.037
X140.358Y-39.169
X140.558Y-63.969
X140.642Y-112.085
X140.658Y-82.769
X140.858Y-124.469
X140.958Y-103.669
X140.958Y-121.269
X141.158Y-43.369
X141.158Y-85.869
X141.658Y-71.469
X141.758Y-89.469
X141.758Y-107.869
X141.858Y-75.369
X141.858Y-77.569
X141.858Y-96.369
X141.958Y-58.369
X142.258Y-115.769
X142.358Y-129.669
X142.558Y-53.669
X142.558Y-56.169
X142.658Y-64.069
X142.658Y-101.169
X142.858Y-33.869
X142.858Y-92.469
X142.858Y-126.769
X142.958Y-39.469
X143.058Y-43.369
X143.208Y-106.519
X143.358Y-49.369
X143.358Y-61.569
X143.358Y-86.069
X143.358Y-98.069
X143.458Y-46.569
X143.758Y-52.069
X144.058Y-75.769
X144.058Y-83.669
X144.058Y-107.569
X144.158Y-72.369
X144.358Y-118.769
X144.558Y-104.269
X144.658Y-80.469
X144.758Y-91.469
X145.058Y-124.769
X145.158Y-121.869
X145.258Y-40.769
X145.258Y-115.369
X145.558Y-92.869
X145.758Y-36.469
X145.758Y-54.769
X145.858Y-65.169
X145.858Y-96.469
X145.858Y-99.769
X145.858Y-102.869
X146.158Y-45.769
X146.158Y-61.169
X146.158Y-129.669
X146.258Y-71.469
X146.358Y-77.669
X146.558Y-75.269
X146.558Y-87.169
X146.658Y-41.069
X146.958Y-107.569
X147.058Y-73.369
X147.058Y-126.969
X147.108Y-112.019
X147.158Y-89.519
X147.158Y-105.269
X147.458Y-38.269
X147.458Y-122.869
X147.858Y-33.869
X147.858Y-67.969
X147.958Y-85.469
X147.958Y-88.069
X148.058Y-79.769
X148.058Y-83.469
X148.158Y-90.569
X148.158Y-108.769
X148.458Y-58.569
X148.458Y-115.369
X148.558Y-63.669
X148.658Y-43.369
X148.758Y-104.969
X148.958Y-77.569
X149.058Y-118.769
X149.358Y-96.069
X149.358Y-100.669
X149.458Y-40.469
X149.458Y-73.469
X149.458Y-75.769
X149.87Y-52.257
X149.872Y-47.408
X149.958Y-82.069
X150.058Y-80.069
X150.158Y-109.169
X150.658Y-71.369
X150.758Y-129.669
X150.858Y-54.769
X150.858Y-57.469
X150.858Y-122.369
X150.908Y-102.219
X150.958Y-87.869
X151.258Y-90.269
X151.358Y-40.369
X151.458Y-68.069
X151.458Y-86.569
X151.458Y-94.769
X151.458Y-125.469
X151.558Y-61.369
X151.558Y-64.369
X151.558Y-77.069
X151.558Y-96.869
X151.558Y-107.869
X151.658Y-83.669
X151.758Y-115.769
X151.858Y-38.369
X152.058Y-104.969
X152.358Y-36.869
X152.658Y-72.769
X152.658Y-74.869
X152.729Y-111.641
X153.283Y-91.094
X153.358Y-33.869
X153.658Y-58.769
X153.758Y-60.969
X153.758Y-80.769
X153.758Y-82.669
X153.808Y-45.819
X153.858Y-65.669
X153.858Y-67.969
X153.958Y-102.669
X154.158Y-71.369
X154.158Y-87.469
X154.358Y-115.569
X154.558Y-51.769
X154.558Y-54.569
X154.658Y-98.269
X154.658Y-120.269
X154.679Y-109.691
X154.758Y-76.169
X154.858Y-127.169
X155.058Y-129.669
X155.458Y-39.269
X155.458Y-94.369
X155.958Y-88.419
X156.158Y-67.969
X156.258Y-73.669
X156.358Y-89.969
X156.858Y-113.969
X156.958Y-44.269
X157.058Y-65.769
X157.158Y-76.269
X157.358Y-120.569
X157.458Y-34.769
X157.458Y-98.269
X157.558Y-71.669
X157.758Y-124.769
X158.258Y-48.869
X158.258Y-51.969
X158.358Y-92.969
X158.458Y-96.269
X158.608Y-129.619
X159.258Y-111.569
X159.758Y-54.369
X159.758Y-76.069
X159.858Y-43.169
X159.858Y-70.069
X159.958Y-73.169
X159.958Y-108.969
X159.958Y-120.169
X160.058Y-65.569
X160.258Y-87.569
X160.358Y-61.069
X160.458Y-90.169
X160.458Y-105.169
X160.658Y-80.869
X160.658Y-82.869
X160.958Y-95.569
X161.158Y-97.969
X161.558Y-45.969
X161.858Y-91.669
X162.058Y-72.569
X162.158Y-66.869
X162.458Y-51.069
X162.558Y-56.869
X162.858Y-40.669
X163.158Y-89.569
X163.558Y-83.769
X163.658Y-43.669
X163.658Y-76.969
X163.658Y-80.769
X163.658Y-87.469
X163.658Y-93.369
X163.658Y-119.669
X163.758Y-34.169
X163.758Y-74.369
X163.758Y-129.769
X163.858Y-48.269
X163.858Y-59.669
X163.858Y-104.669
X163.858Y-112.169
X163.858Y-115.669
X163.958Y-39.669
X163.958Y-63.369
X163.958Y-68.369
X163.958Y-109.469
X163.958Y-123.569
T3
X47.958Y-77.269
X47.958Y-79.269
X62.664Y-37.949
X64.664Y-37.949
T4
X140.718Y-36.669
X143.258Y-36.669
X32.858Y-57.869
X35.398Y-57.869
T5
X128.0Y-43.0
X128.0Y-45.54
X128.0Y-48.08
X128.0Y-50.62
X60.251Y-47.583
X63.751Y-52.783
X112.453Y-56.695
X114.993Y-56.695
X117.533Y-56.695
X96.958Y-90.269
X99.498Y-90.269
X102.038Y-90.269
X87.268Y-96.619
X89.808Y-96.619
X118.798Y-95.607
X118.798Y-98.147
X118.798Y-100.687
X118.798Y-103.227
X54.158Y-84.669
X59.358Y-81.169
X129.358Y-122.869
X131.898Y-122.869
X134.438Y-122.869
X136.978Y-122.869
X139.518Y-122.869
X142.058Y-122.869
X80.758Y-36.369
X83.298Y-36.369
X85.838Y-36.369
X88.378Y-36.369
X90.918Y-36.369
X93.458Y-36.369
X95.998Y-36.369
X98.538Y-36.369
X101.078Y-36.369
X103.618Y-36.369
X106.158Y-36.369
X108.698Y-36.369
X111.238Y-36.369
X113.778Y-36.369
X116.318Y-36.369
X118.858Y-36.369
X51.058Y-94.219
X54.558Y-99.419
X79.91Y-94.219
X83.41Y-99.419
X104.965Y-48.653
X107.505Y-48.653
X48.567Y-47.583
X52.067Y-52.783
X65.484Y-94.219
X68.984Y-99.419
X90.308Y-90.269
X92.848Y-90.269
X33.708Y-40.869
X33.708Y-43.409
X33.708Y-45.949
X33.708Y-48.489
X33.708Y-51.029
X33.708Y-53.569
X72.94Y-47.955
X72.94Y-49.855
X80.758Y-85.369
X83.298Y-85.369
X85.838Y-85.369
X88.378Y-85.369
X90.918Y-85.369
X93.458Y-85.369
X95.998Y-85.369
X98.538Y-85.369
X101.078Y-85.369
X103.618Y-85.369
X106.158Y-85.369
X108.698Y-85.369
X111.238Y-85.369
X113.778Y-85.369
X116.318Y-85.369
X118.858Y-85.369
T6
X138.648Y-43.369
X138.648Y-47.869
X145.148Y-43.369
X145.148Y-47.869
X52.058Y-122.469
X52.058Y-126.969
X58.558Y-122.469
X58.558Y-126.969
X138.648Y-58.369
X138.648Y-62.869
X145.148Y-58.369
X145.148Y-62.869
X30.858Y-116.869
X30.858Y-121.369
X37.358Y-116.869
X37.358Y-121.369
X30.858Y-64.869
X30.858Y-69.369
X37.358Y-64.869
X37.358Y-69.369
X67.558Y-122.469
X67.558Y-126.969
X74.058Y-122.469
X74.058Y-126.969
X37.33Y-35.329
X37.33Y-39.829
X43.83Y-35.329
X43.83Y-39.829
X114.058Y-122.469
X114.058Y-126.969
X120.558Y-122.469
X120.558Y-126.969
X83.058Y-122.469
X83.058Y-126.969
X89.558Y-122.469
X89.558Y-126.969
X98.558Y-122.469
X98.558Y-126.969
X105.058Y-122.469
X105.058Y-126.969
X30.858Y-104.369
X30.858Y-108.869
X37.358Y-104.369
X37.358Y-108.869
X30.858Y-91.869
X30.858Y-96.369
X37.358Y-91.869
X37.358Y-96.369
X30.858Y-79.369
X30.858Y-83.869
X37.358Y-79.369
X37.358Y-83.869
X131.858Y-83.369
X131.858Y-87.869
X138.358Y-83.369
X138.358Y-87.869
T7
X48.858Y-36.869
X48.858Y-67.869
X123.858Y-36.869
X123.858Y-67.869
X48.858Y-85.869
X48.858Y-116.869
X123.858Y-85.869
X123.858Y-116.869
T8
X31.358Y-126.869
X161.358Y-126.869
X161.358Y-36.869
X31.358Y-36.869
T0
M30
