G04 #@! TF.GenerationSoftware,KiCad,Pcbnew,(5.1.5-0-10_14)*
G04 #@! TF.CreationDate,2020-06-01T11:02:14+02:00*
G04 #@! TF.ProjectId,Main_Board_v1_2_smd,4d61696e-5f42-46f6-9172-645f76315f32,rev?*
G04 #@! TF.SameCoordinates,Original*
G04 #@! TF.FileFunction,Soldermask,Bot*
G04 #@! TF.FilePolarity,Negative*
%FSLAX46Y46*%
G04 Gerber Fmt 4.6, Leading zero omitted, Abs format (unit mm)*
G04 Created by KiCad (PCBNEW (5.1.5-0-10_14)) date 2020-06-01 11:02:14*
%MOMM*%
%LPD*%
G04 APERTURE LIST*
%ADD10C,0.100000*%
G04 APERTURE END LIST*
D10*
G36*
X162101952Y-124416416D02*
G01*
X162566204Y-124608715D01*
X162566206Y-124608716D01*
X162984022Y-124887892D01*
X163339345Y-125243215D01*
X163618521Y-125661031D01*
X163618522Y-125661033D01*
X163810821Y-126125285D01*
X163908854Y-126618130D01*
X163908854Y-127120636D01*
X163810821Y-127613481D01*
X163621167Y-128071347D01*
X163618521Y-128077735D01*
X163339345Y-128495551D01*
X162984022Y-128850874D01*
X162566206Y-129130050D01*
X162566205Y-129130051D01*
X162566204Y-129130051D01*
X162101952Y-129322350D01*
X161609107Y-129420383D01*
X161106601Y-129420383D01*
X160613756Y-129322350D01*
X160149504Y-129130051D01*
X160149503Y-129130051D01*
X160149502Y-129130050D01*
X159731686Y-128850874D01*
X159376363Y-128495551D01*
X159097187Y-128077735D01*
X159094541Y-128071347D01*
X158904887Y-127613481D01*
X158806854Y-127120636D01*
X158806854Y-126618130D01*
X158904887Y-126125285D01*
X159097186Y-125661033D01*
X159097187Y-125661031D01*
X159376363Y-125243215D01*
X159731686Y-124887892D01*
X160149502Y-124608716D01*
X160149504Y-124608715D01*
X160613756Y-124416416D01*
X161106601Y-124318383D01*
X161609107Y-124318383D01*
X162101952Y-124416416D01*
G37*
G36*
X32101952Y-124416416D02*
G01*
X32566204Y-124608715D01*
X32566206Y-124608716D01*
X32984022Y-124887892D01*
X33339345Y-125243215D01*
X33618521Y-125661031D01*
X33618522Y-125661033D01*
X33810821Y-126125285D01*
X33908854Y-126618130D01*
X33908854Y-127120636D01*
X33810821Y-127613481D01*
X33621167Y-128071347D01*
X33618521Y-128077735D01*
X33339345Y-128495551D01*
X32984022Y-128850874D01*
X32566206Y-129130050D01*
X32566205Y-129130051D01*
X32566204Y-129130051D01*
X32101952Y-129322350D01*
X31609107Y-129420383D01*
X31106601Y-129420383D01*
X30613756Y-129322350D01*
X30149504Y-129130051D01*
X30149503Y-129130051D01*
X30149502Y-129130050D01*
X29731686Y-128850874D01*
X29376363Y-128495551D01*
X29097187Y-128077735D01*
X29094541Y-128071347D01*
X28904887Y-127613481D01*
X28806854Y-127120636D01*
X28806854Y-126618130D01*
X28904887Y-126125285D01*
X29097186Y-125661033D01*
X29097187Y-125661031D01*
X29376363Y-125243215D01*
X29731686Y-124887892D01*
X30149502Y-124608716D01*
X30149504Y-124608715D01*
X30613756Y-124416416D01*
X31106601Y-124318383D01*
X31609107Y-124318383D01*
X32101952Y-124416416D01*
G37*
G36*
X42722464Y-125667419D02*
G01*
X42949949Y-125761647D01*
X42949951Y-125761648D01*
X43154682Y-125898445D01*
X43328792Y-126072555D01*
X43465590Y-126277288D01*
X43559818Y-126504773D01*
X43607854Y-126746267D01*
X43607854Y-126992499D01*
X43559818Y-127233993D01*
X43465590Y-127461478D01*
X43465589Y-127461480D01*
X43328792Y-127666211D01*
X43154682Y-127840321D01*
X42949951Y-127977118D01*
X42949950Y-127977119D01*
X42949949Y-127977119D01*
X42722464Y-128071347D01*
X42480970Y-128119383D01*
X42234738Y-128119383D01*
X41993244Y-128071347D01*
X41765759Y-127977119D01*
X41765758Y-127977119D01*
X41765757Y-127977118D01*
X41561026Y-127840321D01*
X41386916Y-127666211D01*
X41250119Y-127461480D01*
X41250118Y-127461478D01*
X41155890Y-127233993D01*
X41107854Y-126992499D01*
X41107854Y-126746267D01*
X41155890Y-126504773D01*
X41250118Y-126277288D01*
X41386916Y-126072555D01*
X41561026Y-125898445D01*
X41765757Y-125761648D01*
X41765759Y-125761647D01*
X41993244Y-125667419D01*
X42234738Y-125619383D01*
X42480970Y-125619383D01*
X42722464Y-125667419D01*
G37*
G36*
X149722464Y-125667419D02*
G01*
X149949949Y-125761647D01*
X149949951Y-125761648D01*
X150154682Y-125898445D01*
X150328792Y-126072555D01*
X150465590Y-126277288D01*
X150559818Y-126504773D01*
X150607854Y-126746267D01*
X150607854Y-126992499D01*
X150559818Y-127233993D01*
X150465590Y-127461478D01*
X150465589Y-127461480D01*
X150328792Y-127666211D01*
X150154682Y-127840321D01*
X149949951Y-127977118D01*
X149949950Y-127977119D01*
X149949949Y-127977119D01*
X149722464Y-128071347D01*
X149480970Y-128119383D01*
X149234738Y-128119383D01*
X148993244Y-128071347D01*
X148765759Y-127977119D01*
X148765758Y-127977119D01*
X148765757Y-127977118D01*
X148561026Y-127840321D01*
X148386916Y-127666211D01*
X148250119Y-127461480D01*
X148250118Y-127461478D01*
X148155890Y-127233993D01*
X148107854Y-126992499D01*
X148107854Y-126746267D01*
X148155890Y-126504773D01*
X148250118Y-126277288D01*
X148386916Y-126072555D01*
X148561026Y-125898445D01*
X148765757Y-125761648D01*
X148765759Y-125761647D01*
X148993244Y-125667419D01*
X149234738Y-125619383D01*
X149480970Y-125619383D01*
X149722464Y-125667419D01*
G37*
G36*
X89864418Y-125958772D02*
G01*
X90055687Y-126037998D01*
X90055689Y-126037999D01*
X90186320Y-126125284D01*
X90227827Y-126153018D01*
X90374219Y-126299410D01*
X90489239Y-126471550D01*
X90568465Y-126662819D01*
X90608854Y-126865867D01*
X90608854Y-127072899D01*
X90568465Y-127275947D01*
X90491616Y-127461478D01*
X90489238Y-127467218D01*
X90374219Y-127639356D01*
X90227827Y-127785748D01*
X90055689Y-127900767D01*
X90055688Y-127900768D01*
X90055687Y-127900768D01*
X89864418Y-127979994D01*
X89661370Y-128020383D01*
X89454338Y-128020383D01*
X89251290Y-127979994D01*
X89060021Y-127900768D01*
X89060020Y-127900768D01*
X89060019Y-127900767D01*
X88887881Y-127785748D01*
X88741489Y-127639356D01*
X88626470Y-127467218D01*
X88624092Y-127461478D01*
X88547243Y-127275947D01*
X88506854Y-127072899D01*
X88506854Y-126865867D01*
X88547243Y-126662819D01*
X88626469Y-126471550D01*
X88741489Y-126299410D01*
X88887881Y-126153018D01*
X88929388Y-126125284D01*
X89060019Y-126037999D01*
X89060021Y-126037998D01*
X89251290Y-125958772D01*
X89454338Y-125918383D01*
X89661370Y-125918383D01*
X89864418Y-125958772D01*
G37*
G36*
X83364418Y-125958772D02*
G01*
X83555687Y-126037998D01*
X83555689Y-126037999D01*
X83686320Y-126125284D01*
X83727827Y-126153018D01*
X83874219Y-126299410D01*
X83989239Y-126471550D01*
X84068465Y-126662819D01*
X84108854Y-126865867D01*
X84108854Y-127072899D01*
X84068465Y-127275947D01*
X83991616Y-127461478D01*
X83989238Y-127467218D01*
X83874219Y-127639356D01*
X83727827Y-127785748D01*
X83555689Y-127900767D01*
X83555688Y-127900768D01*
X83555687Y-127900768D01*
X83364418Y-127979994D01*
X83161370Y-128020383D01*
X82954338Y-128020383D01*
X82751290Y-127979994D01*
X82560021Y-127900768D01*
X82560020Y-127900768D01*
X82560019Y-127900767D01*
X82387881Y-127785748D01*
X82241489Y-127639356D01*
X82126470Y-127467218D01*
X82124092Y-127461478D01*
X82047243Y-127275947D01*
X82006854Y-127072899D01*
X82006854Y-126865867D01*
X82047243Y-126662819D01*
X82126469Y-126471550D01*
X82241489Y-126299410D01*
X82387881Y-126153018D01*
X82429388Y-126125284D01*
X82560019Y-126037999D01*
X82560021Y-126037998D01*
X82751290Y-125958772D01*
X82954338Y-125918383D01*
X83161370Y-125918383D01*
X83364418Y-125958772D01*
G37*
G36*
X74364418Y-125958772D02*
G01*
X74555687Y-126037998D01*
X74555689Y-126037999D01*
X74686320Y-126125284D01*
X74727827Y-126153018D01*
X74874219Y-126299410D01*
X74989239Y-126471550D01*
X75068465Y-126662819D01*
X75108854Y-126865867D01*
X75108854Y-127072899D01*
X75068465Y-127275947D01*
X74991616Y-127461478D01*
X74989238Y-127467218D01*
X74874219Y-127639356D01*
X74727827Y-127785748D01*
X74555689Y-127900767D01*
X74555688Y-127900768D01*
X74555687Y-127900768D01*
X74364418Y-127979994D01*
X74161370Y-128020383D01*
X73954338Y-128020383D01*
X73751290Y-127979994D01*
X73560021Y-127900768D01*
X73560020Y-127900768D01*
X73560019Y-127900767D01*
X73387881Y-127785748D01*
X73241489Y-127639356D01*
X73126470Y-127467218D01*
X73124092Y-127461478D01*
X73047243Y-127275947D01*
X73006854Y-127072899D01*
X73006854Y-126865867D01*
X73047243Y-126662819D01*
X73126469Y-126471550D01*
X73241489Y-126299410D01*
X73387881Y-126153018D01*
X73429388Y-126125284D01*
X73560019Y-126037999D01*
X73560021Y-126037998D01*
X73751290Y-125958772D01*
X73954338Y-125918383D01*
X74161370Y-125918383D01*
X74364418Y-125958772D01*
G37*
G36*
X67864418Y-125958772D02*
G01*
X68055687Y-126037998D01*
X68055689Y-126037999D01*
X68186320Y-126125284D01*
X68227827Y-126153018D01*
X68374219Y-126299410D01*
X68489239Y-126471550D01*
X68568465Y-126662819D01*
X68608854Y-126865867D01*
X68608854Y-127072899D01*
X68568465Y-127275947D01*
X68491616Y-127461478D01*
X68489238Y-127467218D01*
X68374219Y-127639356D01*
X68227827Y-127785748D01*
X68055689Y-127900767D01*
X68055688Y-127900768D01*
X68055687Y-127900768D01*
X67864418Y-127979994D01*
X67661370Y-128020383D01*
X67454338Y-128020383D01*
X67251290Y-127979994D01*
X67060021Y-127900768D01*
X67060020Y-127900768D01*
X67060019Y-127900767D01*
X66887881Y-127785748D01*
X66741489Y-127639356D01*
X66626470Y-127467218D01*
X66624092Y-127461478D01*
X66547243Y-127275947D01*
X66506854Y-127072899D01*
X66506854Y-126865867D01*
X66547243Y-126662819D01*
X66626469Y-126471550D01*
X66741489Y-126299410D01*
X66887881Y-126153018D01*
X66929388Y-126125284D01*
X67060019Y-126037999D01*
X67060021Y-126037998D01*
X67251290Y-125958772D01*
X67454338Y-125918383D01*
X67661370Y-125918383D01*
X67864418Y-125958772D01*
G37*
G36*
X58864418Y-125958772D02*
G01*
X59055687Y-126037998D01*
X59055689Y-126037999D01*
X59186320Y-126125284D01*
X59227827Y-126153018D01*
X59374219Y-126299410D01*
X59489239Y-126471550D01*
X59568465Y-126662819D01*
X59608854Y-126865867D01*
X59608854Y-127072899D01*
X59568465Y-127275947D01*
X59491616Y-127461478D01*
X59489238Y-127467218D01*
X59374219Y-127639356D01*
X59227827Y-127785748D01*
X59055689Y-127900767D01*
X59055688Y-127900768D01*
X59055687Y-127900768D01*
X58864418Y-127979994D01*
X58661370Y-128020383D01*
X58454338Y-128020383D01*
X58251290Y-127979994D01*
X58060021Y-127900768D01*
X58060020Y-127900768D01*
X58060019Y-127900767D01*
X57887881Y-127785748D01*
X57741489Y-127639356D01*
X57626470Y-127467218D01*
X57624092Y-127461478D01*
X57547243Y-127275947D01*
X57506854Y-127072899D01*
X57506854Y-126865867D01*
X57547243Y-126662819D01*
X57626469Y-126471550D01*
X57741489Y-126299410D01*
X57887881Y-126153018D01*
X57929388Y-126125284D01*
X58060019Y-126037999D01*
X58060021Y-126037998D01*
X58251290Y-125958772D01*
X58454338Y-125918383D01*
X58661370Y-125918383D01*
X58864418Y-125958772D01*
G37*
G36*
X52364418Y-125958772D02*
G01*
X52555687Y-126037998D01*
X52555689Y-126037999D01*
X52686320Y-126125284D01*
X52727827Y-126153018D01*
X52874219Y-126299410D01*
X52989239Y-126471550D01*
X53068465Y-126662819D01*
X53108854Y-126865867D01*
X53108854Y-127072899D01*
X53068465Y-127275947D01*
X52991616Y-127461478D01*
X52989238Y-127467218D01*
X52874219Y-127639356D01*
X52727827Y-127785748D01*
X52555689Y-127900767D01*
X52555688Y-127900768D01*
X52555687Y-127900768D01*
X52364418Y-127979994D01*
X52161370Y-128020383D01*
X51954338Y-128020383D01*
X51751290Y-127979994D01*
X51560021Y-127900768D01*
X51560020Y-127900768D01*
X51560019Y-127900767D01*
X51387881Y-127785748D01*
X51241489Y-127639356D01*
X51126470Y-127467218D01*
X51124092Y-127461478D01*
X51047243Y-127275947D01*
X51006854Y-127072899D01*
X51006854Y-126865867D01*
X51047243Y-126662819D01*
X51126469Y-126471550D01*
X51241489Y-126299410D01*
X51387881Y-126153018D01*
X51429388Y-126125284D01*
X51560019Y-126037999D01*
X51560021Y-126037998D01*
X51751290Y-125958772D01*
X51954338Y-125918383D01*
X52161370Y-125918383D01*
X52364418Y-125958772D01*
G37*
G36*
X120864418Y-125958772D02*
G01*
X121055687Y-126037998D01*
X121055689Y-126037999D01*
X121186320Y-126125284D01*
X121227827Y-126153018D01*
X121374219Y-126299410D01*
X121489239Y-126471550D01*
X121568465Y-126662819D01*
X121608854Y-126865867D01*
X121608854Y-127072899D01*
X121568465Y-127275947D01*
X121491616Y-127461478D01*
X121489238Y-127467218D01*
X121374219Y-127639356D01*
X121227827Y-127785748D01*
X121055689Y-127900767D01*
X121055688Y-127900768D01*
X121055687Y-127900768D01*
X120864418Y-127979994D01*
X120661370Y-128020383D01*
X120454338Y-128020383D01*
X120251290Y-127979994D01*
X120060021Y-127900768D01*
X120060020Y-127900768D01*
X120060019Y-127900767D01*
X119887881Y-127785748D01*
X119741489Y-127639356D01*
X119626470Y-127467218D01*
X119624092Y-127461478D01*
X119547243Y-127275947D01*
X119506854Y-127072899D01*
X119506854Y-126865867D01*
X119547243Y-126662819D01*
X119626469Y-126471550D01*
X119741489Y-126299410D01*
X119887881Y-126153018D01*
X119929388Y-126125284D01*
X120060019Y-126037999D01*
X120060021Y-126037998D01*
X120251290Y-125958772D01*
X120454338Y-125918383D01*
X120661370Y-125918383D01*
X120864418Y-125958772D01*
G37*
G36*
X114364418Y-125958772D02*
G01*
X114555687Y-126037998D01*
X114555689Y-126037999D01*
X114686320Y-126125284D01*
X114727827Y-126153018D01*
X114874219Y-126299410D01*
X114989239Y-126471550D01*
X115068465Y-126662819D01*
X115108854Y-126865867D01*
X115108854Y-127072899D01*
X115068465Y-127275947D01*
X114991616Y-127461478D01*
X114989238Y-127467218D01*
X114874219Y-127639356D01*
X114727827Y-127785748D01*
X114555689Y-127900767D01*
X114555688Y-127900768D01*
X114555687Y-127900768D01*
X114364418Y-127979994D01*
X114161370Y-128020383D01*
X113954338Y-128020383D01*
X113751290Y-127979994D01*
X113560021Y-127900768D01*
X113560020Y-127900768D01*
X113560019Y-127900767D01*
X113387881Y-127785748D01*
X113241489Y-127639356D01*
X113126470Y-127467218D01*
X113124092Y-127461478D01*
X113047243Y-127275947D01*
X113006854Y-127072899D01*
X113006854Y-126865867D01*
X113047243Y-126662819D01*
X113126469Y-126471550D01*
X113241489Y-126299410D01*
X113387881Y-126153018D01*
X113429388Y-126125284D01*
X113560019Y-126037999D01*
X113560021Y-126037998D01*
X113751290Y-125958772D01*
X113954338Y-125918383D01*
X114161370Y-125918383D01*
X114364418Y-125958772D01*
G37*
G36*
X105364418Y-125958772D02*
G01*
X105555687Y-126037998D01*
X105555689Y-126037999D01*
X105686320Y-126125284D01*
X105727827Y-126153018D01*
X105874219Y-126299410D01*
X105989239Y-126471550D01*
X106068465Y-126662819D01*
X106108854Y-126865867D01*
X106108854Y-127072899D01*
X106068465Y-127275947D01*
X105991616Y-127461478D01*
X105989238Y-127467218D01*
X105874219Y-127639356D01*
X105727827Y-127785748D01*
X105555689Y-127900767D01*
X105555688Y-127900768D01*
X105555687Y-127900768D01*
X105364418Y-127979994D01*
X105161370Y-128020383D01*
X104954338Y-128020383D01*
X104751290Y-127979994D01*
X104560021Y-127900768D01*
X104560020Y-127900768D01*
X104560019Y-127900767D01*
X104387881Y-127785748D01*
X104241489Y-127639356D01*
X104126470Y-127467218D01*
X104124092Y-127461478D01*
X104047243Y-127275947D01*
X104006854Y-127072899D01*
X104006854Y-126865867D01*
X104047243Y-126662819D01*
X104126469Y-126471550D01*
X104241489Y-126299410D01*
X104387881Y-126153018D01*
X104429388Y-126125284D01*
X104560019Y-126037999D01*
X104560021Y-126037998D01*
X104751290Y-125958772D01*
X104954338Y-125918383D01*
X105161370Y-125918383D01*
X105364418Y-125958772D01*
G37*
G36*
X98864418Y-125958772D02*
G01*
X99055687Y-126037998D01*
X99055689Y-126037999D01*
X99186320Y-126125284D01*
X99227827Y-126153018D01*
X99374219Y-126299410D01*
X99489239Y-126471550D01*
X99568465Y-126662819D01*
X99608854Y-126865867D01*
X99608854Y-127072899D01*
X99568465Y-127275947D01*
X99491616Y-127461478D01*
X99489238Y-127467218D01*
X99374219Y-127639356D01*
X99227827Y-127785748D01*
X99055689Y-127900767D01*
X99055688Y-127900768D01*
X99055687Y-127900768D01*
X98864418Y-127979994D01*
X98661370Y-128020383D01*
X98454338Y-128020383D01*
X98251290Y-127979994D01*
X98060021Y-127900768D01*
X98060020Y-127900768D01*
X98060019Y-127900767D01*
X97887881Y-127785748D01*
X97741489Y-127639356D01*
X97626470Y-127467218D01*
X97624092Y-127461478D01*
X97547243Y-127275947D01*
X97506854Y-127072899D01*
X97506854Y-126865867D01*
X97547243Y-126662819D01*
X97626469Y-126471550D01*
X97741489Y-126299410D01*
X97887881Y-126153018D01*
X97929388Y-126125284D01*
X98060019Y-126037999D01*
X98060021Y-126037998D01*
X98251290Y-125958772D01*
X98454338Y-125918383D01*
X98661370Y-125918383D01*
X98864418Y-125958772D01*
G37*
G36*
X142162507Y-121971548D02*
G01*
X142320666Y-122003007D01*
X142484638Y-122070927D01*
X142632208Y-122169530D01*
X142757707Y-122295029D01*
X142856310Y-122442599D01*
X142924230Y-122606571D01*
X142958854Y-122780642D01*
X142958854Y-122958124D01*
X142924230Y-123132195D01*
X142856310Y-123296167D01*
X142757707Y-123443737D01*
X142632208Y-123569236D01*
X142484638Y-123667839D01*
X142320666Y-123735759D01*
X142171366Y-123765456D01*
X142146596Y-123770383D01*
X141969112Y-123770383D01*
X141944342Y-123765456D01*
X141795042Y-123735759D01*
X141631070Y-123667839D01*
X141483500Y-123569236D01*
X141358001Y-123443737D01*
X141259398Y-123296167D01*
X141191478Y-123132195D01*
X141156854Y-122958124D01*
X141156854Y-122780642D01*
X141191478Y-122606571D01*
X141259398Y-122442599D01*
X141358001Y-122295029D01*
X141483500Y-122169530D01*
X141631070Y-122070927D01*
X141795042Y-122003007D01*
X141953201Y-121971548D01*
X141969112Y-121968383D01*
X142146596Y-121968383D01*
X142162507Y-121971548D01*
G37*
G36*
X139622507Y-121971548D02*
G01*
X139780666Y-122003007D01*
X139944638Y-122070927D01*
X140092208Y-122169530D01*
X140217707Y-122295029D01*
X140316310Y-122442599D01*
X140384230Y-122606571D01*
X140418854Y-122780642D01*
X140418854Y-122958124D01*
X140384230Y-123132195D01*
X140316310Y-123296167D01*
X140217707Y-123443737D01*
X140092208Y-123569236D01*
X139944638Y-123667839D01*
X139780666Y-123735759D01*
X139631366Y-123765456D01*
X139606596Y-123770383D01*
X139429112Y-123770383D01*
X139404342Y-123765456D01*
X139255042Y-123735759D01*
X139091070Y-123667839D01*
X138943500Y-123569236D01*
X138818001Y-123443737D01*
X138719398Y-123296167D01*
X138651478Y-123132195D01*
X138616854Y-122958124D01*
X138616854Y-122780642D01*
X138651478Y-122606571D01*
X138719398Y-122442599D01*
X138818001Y-122295029D01*
X138943500Y-122169530D01*
X139091070Y-122070927D01*
X139255042Y-122003007D01*
X139413201Y-121971548D01*
X139429112Y-121968383D01*
X139606596Y-121968383D01*
X139622507Y-121971548D01*
G37*
G36*
X137082507Y-121971548D02*
G01*
X137240666Y-122003007D01*
X137404638Y-122070927D01*
X137552208Y-122169530D01*
X137677707Y-122295029D01*
X137776310Y-122442599D01*
X137844230Y-122606571D01*
X137878854Y-122780642D01*
X137878854Y-122958124D01*
X137844230Y-123132195D01*
X137776310Y-123296167D01*
X137677707Y-123443737D01*
X137552208Y-123569236D01*
X137404638Y-123667839D01*
X137240666Y-123735759D01*
X137091366Y-123765456D01*
X137066596Y-123770383D01*
X136889112Y-123770383D01*
X136864342Y-123765456D01*
X136715042Y-123735759D01*
X136551070Y-123667839D01*
X136403500Y-123569236D01*
X136278001Y-123443737D01*
X136179398Y-123296167D01*
X136111478Y-123132195D01*
X136076854Y-122958124D01*
X136076854Y-122780642D01*
X136111478Y-122606571D01*
X136179398Y-122442599D01*
X136278001Y-122295029D01*
X136403500Y-122169530D01*
X136551070Y-122070927D01*
X136715042Y-122003007D01*
X136873201Y-121971548D01*
X136889112Y-121968383D01*
X137066596Y-121968383D01*
X137082507Y-121971548D01*
G37*
G36*
X134542507Y-121971548D02*
G01*
X134700666Y-122003007D01*
X134864638Y-122070927D01*
X135012208Y-122169530D01*
X135137707Y-122295029D01*
X135236310Y-122442599D01*
X135304230Y-122606571D01*
X135338854Y-122780642D01*
X135338854Y-122958124D01*
X135304230Y-123132195D01*
X135236310Y-123296167D01*
X135137707Y-123443737D01*
X135012208Y-123569236D01*
X134864638Y-123667839D01*
X134700666Y-123735759D01*
X134551366Y-123765456D01*
X134526596Y-123770383D01*
X134349112Y-123770383D01*
X134324342Y-123765456D01*
X134175042Y-123735759D01*
X134011070Y-123667839D01*
X133863500Y-123569236D01*
X133738001Y-123443737D01*
X133639398Y-123296167D01*
X133571478Y-123132195D01*
X133536854Y-122958124D01*
X133536854Y-122780642D01*
X133571478Y-122606571D01*
X133639398Y-122442599D01*
X133738001Y-122295029D01*
X133863500Y-122169530D01*
X134011070Y-122070927D01*
X134175042Y-122003007D01*
X134333201Y-121971548D01*
X134349112Y-121968383D01*
X134526596Y-121968383D01*
X134542507Y-121971548D01*
G37*
G36*
X132002507Y-121971548D02*
G01*
X132160666Y-122003007D01*
X132324638Y-122070927D01*
X132472208Y-122169530D01*
X132597707Y-122295029D01*
X132696310Y-122442599D01*
X132764230Y-122606571D01*
X132798854Y-122780642D01*
X132798854Y-122958124D01*
X132764230Y-123132195D01*
X132696310Y-123296167D01*
X132597707Y-123443737D01*
X132472208Y-123569236D01*
X132324638Y-123667839D01*
X132160666Y-123735759D01*
X132011366Y-123765456D01*
X131986596Y-123770383D01*
X131809112Y-123770383D01*
X131784342Y-123765456D01*
X131635042Y-123735759D01*
X131471070Y-123667839D01*
X131323500Y-123569236D01*
X131198001Y-123443737D01*
X131099398Y-123296167D01*
X131031478Y-123132195D01*
X130996854Y-122958124D01*
X130996854Y-122780642D01*
X131031478Y-122606571D01*
X131099398Y-122442599D01*
X131198001Y-122295029D01*
X131323500Y-122169530D01*
X131471070Y-122070927D01*
X131635042Y-122003007D01*
X131793201Y-121971548D01*
X131809112Y-121968383D01*
X131986596Y-121968383D01*
X132002507Y-121971548D01*
G37*
G36*
X130258854Y-123770383D02*
G01*
X128456854Y-123770383D01*
X128456854Y-121968383D01*
X130258854Y-121968383D01*
X130258854Y-123770383D01*
G37*
G36*
X58864418Y-121458772D02*
G01*
X59055687Y-121537998D01*
X59055689Y-121537999D01*
X59227827Y-121653018D01*
X59374219Y-121799410D01*
X59419526Y-121867216D01*
X59489239Y-121971550D01*
X59568465Y-122162819D01*
X59608854Y-122365867D01*
X59608854Y-122572899D01*
X59568465Y-122775947D01*
X59489239Y-122967216D01*
X59489238Y-122967218D01*
X59374219Y-123139356D01*
X59227827Y-123285748D01*
X59055689Y-123400767D01*
X59055688Y-123400768D01*
X59055687Y-123400768D01*
X58864418Y-123479994D01*
X58661370Y-123520383D01*
X58454338Y-123520383D01*
X58251290Y-123479994D01*
X58060021Y-123400768D01*
X58060020Y-123400768D01*
X58060019Y-123400767D01*
X57887881Y-123285748D01*
X57741489Y-123139356D01*
X57626470Y-122967218D01*
X57626469Y-122967216D01*
X57547243Y-122775947D01*
X57506854Y-122572899D01*
X57506854Y-122365867D01*
X57547243Y-122162819D01*
X57626469Y-121971550D01*
X57696183Y-121867216D01*
X57741489Y-121799410D01*
X57887881Y-121653018D01*
X58060019Y-121537999D01*
X58060021Y-121537998D01*
X58251290Y-121458772D01*
X58454338Y-121418383D01*
X58661370Y-121418383D01*
X58864418Y-121458772D01*
G37*
G36*
X89864418Y-121458772D02*
G01*
X90055687Y-121537998D01*
X90055689Y-121537999D01*
X90227827Y-121653018D01*
X90374219Y-121799410D01*
X90419526Y-121867216D01*
X90489239Y-121971550D01*
X90568465Y-122162819D01*
X90608854Y-122365867D01*
X90608854Y-122572899D01*
X90568465Y-122775947D01*
X90489239Y-122967216D01*
X90489238Y-122967218D01*
X90374219Y-123139356D01*
X90227827Y-123285748D01*
X90055689Y-123400767D01*
X90055688Y-123400768D01*
X90055687Y-123400768D01*
X89864418Y-123479994D01*
X89661370Y-123520383D01*
X89454338Y-123520383D01*
X89251290Y-123479994D01*
X89060021Y-123400768D01*
X89060020Y-123400768D01*
X89060019Y-123400767D01*
X88887881Y-123285748D01*
X88741489Y-123139356D01*
X88626470Y-122967218D01*
X88626469Y-122967216D01*
X88547243Y-122775947D01*
X88506854Y-122572899D01*
X88506854Y-122365867D01*
X88547243Y-122162819D01*
X88626469Y-121971550D01*
X88696183Y-121867216D01*
X88741489Y-121799410D01*
X88887881Y-121653018D01*
X89060019Y-121537999D01*
X89060021Y-121537998D01*
X89251290Y-121458772D01*
X89454338Y-121418383D01*
X89661370Y-121418383D01*
X89864418Y-121458772D01*
G37*
G36*
X67864418Y-121458772D02*
G01*
X68055687Y-121537998D01*
X68055689Y-121537999D01*
X68227827Y-121653018D01*
X68374219Y-121799410D01*
X68419526Y-121867216D01*
X68489239Y-121971550D01*
X68568465Y-122162819D01*
X68608854Y-122365867D01*
X68608854Y-122572899D01*
X68568465Y-122775947D01*
X68489239Y-122967216D01*
X68489238Y-122967218D01*
X68374219Y-123139356D01*
X68227827Y-123285748D01*
X68055689Y-123400767D01*
X68055688Y-123400768D01*
X68055687Y-123400768D01*
X67864418Y-123479994D01*
X67661370Y-123520383D01*
X67454338Y-123520383D01*
X67251290Y-123479994D01*
X67060021Y-123400768D01*
X67060020Y-123400768D01*
X67060019Y-123400767D01*
X66887881Y-123285748D01*
X66741489Y-123139356D01*
X66626470Y-122967218D01*
X66626469Y-122967216D01*
X66547243Y-122775947D01*
X66506854Y-122572899D01*
X66506854Y-122365867D01*
X66547243Y-122162819D01*
X66626469Y-121971550D01*
X66696183Y-121867216D01*
X66741489Y-121799410D01*
X66887881Y-121653018D01*
X67060019Y-121537999D01*
X67060021Y-121537998D01*
X67251290Y-121458772D01*
X67454338Y-121418383D01*
X67661370Y-121418383D01*
X67864418Y-121458772D01*
G37*
G36*
X98864418Y-121458772D02*
G01*
X99055687Y-121537998D01*
X99055689Y-121537999D01*
X99227827Y-121653018D01*
X99374219Y-121799410D01*
X99419526Y-121867216D01*
X99489239Y-121971550D01*
X99568465Y-122162819D01*
X99608854Y-122365867D01*
X99608854Y-122572899D01*
X99568465Y-122775947D01*
X99489239Y-122967216D01*
X99489238Y-122967218D01*
X99374219Y-123139356D01*
X99227827Y-123285748D01*
X99055689Y-123400767D01*
X99055688Y-123400768D01*
X99055687Y-123400768D01*
X98864418Y-123479994D01*
X98661370Y-123520383D01*
X98454338Y-123520383D01*
X98251290Y-123479994D01*
X98060021Y-123400768D01*
X98060020Y-123400768D01*
X98060019Y-123400767D01*
X97887881Y-123285748D01*
X97741489Y-123139356D01*
X97626470Y-122967218D01*
X97626469Y-122967216D01*
X97547243Y-122775947D01*
X97506854Y-122572899D01*
X97506854Y-122365867D01*
X97547243Y-122162819D01*
X97626469Y-121971550D01*
X97696183Y-121867216D01*
X97741489Y-121799410D01*
X97887881Y-121653018D01*
X98060019Y-121537999D01*
X98060021Y-121537998D01*
X98251290Y-121458772D01*
X98454338Y-121418383D01*
X98661370Y-121418383D01*
X98864418Y-121458772D01*
G37*
G36*
X74364418Y-121458772D02*
G01*
X74555687Y-121537998D01*
X74555689Y-121537999D01*
X74727827Y-121653018D01*
X74874219Y-121799410D01*
X74919526Y-121867216D01*
X74989239Y-121971550D01*
X75068465Y-122162819D01*
X75108854Y-122365867D01*
X75108854Y-122572899D01*
X75068465Y-122775947D01*
X74989239Y-122967216D01*
X74989238Y-122967218D01*
X74874219Y-123139356D01*
X74727827Y-123285748D01*
X74555689Y-123400767D01*
X74555688Y-123400768D01*
X74555687Y-123400768D01*
X74364418Y-123479994D01*
X74161370Y-123520383D01*
X73954338Y-123520383D01*
X73751290Y-123479994D01*
X73560021Y-123400768D01*
X73560020Y-123400768D01*
X73560019Y-123400767D01*
X73387881Y-123285748D01*
X73241489Y-123139356D01*
X73126470Y-122967218D01*
X73126469Y-122967216D01*
X73047243Y-122775947D01*
X73006854Y-122572899D01*
X73006854Y-122365867D01*
X73047243Y-122162819D01*
X73126469Y-121971550D01*
X73196183Y-121867216D01*
X73241489Y-121799410D01*
X73387881Y-121653018D01*
X73560019Y-121537999D01*
X73560021Y-121537998D01*
X73751290Y-121458772D01*
X73954338Y-121418383D01*
X74161370Y-121418383D01*
X74364418Y-121458772D01*
G37*
G36*
X105364418Y-121458772D02*
G01*
X105555687Y-121537998D01*
X105555689Y-121537999D01*
X105727827Y-121653018D01*
X105874219Y-121799410D01*
X105919526Y-121867216D01*
X105989239Y-121971550D01*
X106068465Y-122162819D01*
X106108854Y-122365867D01*
X106108854Y-122572899D01*
X106068465Y-122775947D01*
X105989239Y-122967216D01*
X105989238Y-122967218D01*
X105874219Y-123139356D01*
X105727827Y-123285748D01*
X105555689Y-123400767D01*
X105555688Y-123400768D01*
X105555687Y-123400768D01*
X105364418Y-123479994D01*
X105161370Y-123520383D01*
X104954338Y-123520383D01*
X104751290Y-123479994D01*
X104560021Y-123400768D01*
X104560020Y-123400768D01*
X104560019Y-123400767D01*
X104387881Y-123285748D01*
X104241489Y-123139356D01*
X104126470Y-122967218D01*
X104126469Y-122967216D01*
X104047243Y-122775947D01*
X104006854Y-122572899D01*
X104006854Y-122365867D01*
X104047243Y-122162819D01*
X104126469Y-121971550D01*
X104196183Y-121867216D01*
X104241489Y-121799410D01*
X104387881Y-121653018D01*
X104560019Y-121537999D01*
X104560021Y-121537998D01*
X104751290Y-121458772D01*
X104954338Y-121418383D01*
X105161370Y-121418383D01*
X105364418Y-121458772D01*
G37*
G36*
X114364418Y-121458772D02*
G01*
X114555687Y-121537998D01*
X114555689Y-121537999D01*
X114727827Y-121653018D01*
X114874219Y-121799410D01*
X114919526Y-121867216D01*
X114989239Y-121971550D01*
X115068465Y-122162819D01*
X115108854Y-122365867D01*
X115108854Y-122572899D01*
X115068465Y-122775947D01*
X114989239Y-122967216D01*
X114989238Y-122967218D01*
X114874219Y-123139356D01*
X114727827Y-123285748D01*
X114555689Y-123400767D01*
X114555688Y-123400768D01*
X114555687Y-123400768D01*
X114364418Y-123479994D01*
X114161370Y-123520383D01*
X113954338Y-123520383D01*
X113751290Y-123479994D01*
X113560021Y-123400768D01*
X113560020Y-123400768D01*
X113560019Y-123400767D01*
X113387881Y-123285748D01*
X113241489Y-123139356D01*
X113126470Y-122967218D01*
X113126469Y-122967216D01*
X113047243Y-122775947D01*
X113006854Y-122572899D01*
X113006854Y-122365867D01*
X113047243Y-122162819D01*
X113126469Y-121971550D01*
X113196183Y-121867216D01*
X113241489Y-121799410D01*
X113387881Y-121653018D01*
X113560019Y-121537999D01*
X113560021Y-121537998D01*
X113751290Y-121458772D01*
X113954338Y-121418383D01*
X114161370Y-121418383D01*
X114364418Y-121458772D01*
G37*
G36*
X120864418Y-121458772D02*
G01*
X121055687Y-121537998D01*
X121055689Y-121537999D01*
X121227827Y-121653018D01*
X121374219Y-121799410D01*
X121419526Y-121867216D01*
X121489239Y-121971550D01*
X121568465Y-122162819D01*
X121608854Y-122365867D01*
X121608854Y-122572899D01*
X121568465Y-122775947D01*
X121489239Y-122967216D01*
X121489238Y-122967218D01*
X121374219Y-123139356D01*
X121227827Y-123285748D01*
X121055689Y-123400767D01*
X121055688Y-123400768D01*
X121055687Y-123400768D01*
X120864418Y-123479994D01*
X120661370Y-123520383D01*
X120454338Y-123520383D01*
X120251290Y-123479994D01*
X120060021Y-123400768D01*
X120060020Y-123400768D01*
X120060019Y-123400767D01*
X119887881Y-123285748D01*
X119741489Y-123139356D01*
X119626470Y-122967218D01*
X119626469Y-122967216D01*
X119547243Y-122775947D01*
X119506854Y-122572899D01*
X119506854Y-122365867D01*
X119547243Y-122162819D01*
X119626469Y-121971550D01*
X119696183Y-121867216D01*
X119741489Y-121799410D01*
X119887881Y-121653018D01*
X120060019Y-121537999D01*
X120060021Y-121537998D01*
X120251290Y-121458772D01*
X120454338Y-121418383D01*
X120661370Y-121418383D01*
X120864418Y-121458772D01*
G37*
G36*
X52364418Y-121458772D02*
G01*
X52555687Y-121537998D01*
X52555689Y-121537999D01*
X52727827Y-121653018D01*
X52874219Y-121799410D01*
X52919526Y-121867216D01*
X52989239Y-121971550D01*
X53068465Y-122162819D01*
X53108854Y-122365867D01*
X53108854Y-122572899D01*
X53068465Y-122775947D01*
X52989239Y-122967216D01*
X52989238Y-122967218D01*
X52874219Y-123139356D01*
X52727827Y-123285748D01*
X52555689Y-123400767D01*
X52555688Y-123400768D01*
X52555687Y-123400768D01*
X52364418Y-123479994D01*
X52161370Y-123520383D01*
X51954338Y-123520383D01*
X51751290Y-123479994D01*
X51560021Y-123400768D01*
X51560020Y-123400768D01*
X51560019Y-123400767D01*
X51387881Y-123285748D01*
X51241489Y-123139356D01*
X51126470Y-122967218D01*
X51126469Y-122967216D01*
X51047243Y-122775947D01*
X51006854Y-122572899D01*
X51006854Y-122365867D01*
X51047243Y-122162819D01*
X51126469Y-121971550D01*
X51196183Y-121867216D01*
X51241489Y-121799410D01*
X51387881Y-121653018D01*
X51560019Y-121537999D01*
X51560021Y-121537998D01*
X51751290Y-121458772D01*
X51954338Y-121418383D01*
X52161370Y-121418383D01*
X52364418Y-121458772D01*
G37*
G36*
X83364418Y-121458772D02*
G01*
X83555687Y-121537998D01*
X83555689Y-121537999D01*
X83727827Y-121653018D01*
X83874219Y-121799410D01*
X83919526Y-121867216D01*
X83989239Y-121971550D01*
X84068465Y-122162819D01*
X84108854Y-122365867D01*
X84108854Y-122572899D01*
X84068465Y-122775947D01*
X83989239Y-122967216D01*
X83989238Y-122967218D01*
X83874219Y-123139356D01*
X83727827Y-123285748D01*
X83555689Y-123400767D01*
X83555688Y-123400768D01*
X83555687Y-123400768D01*
X83364418Y-123479994D01*
X83161370Y-123520383D01*
X82954338Y-123520383D01*
X82751290Y-123479994D01*
X82560021Y-123400768D01*
X82560020Y-123400768D01*
X82560019Y-123400767D01*
X82387881Y-123285748D01*
X82241489Y-123139356D01*
X82126470Y-122967218D01*
X82126469Y-122967216D01*
X82047243Y-122775947D01*
X82006854Y-122572899D01*
X82006854Y-122365867D01*
X82047243Y-122162819D01*
X82126469Y-121971550D01*
X82196183Y-121867216D01*
X82241489Y-121799410D01*
X82387881Y-121653018D01*
X82560019Y-121537999D01*
X82560021Y-121537998D01*
X82751290Y-121458772D01*
X82954338Y-121418383D01*
X83161370Y-121418383D01*
X83364418Y-121458772D01*
G37*
G36*
X31164418Y-120358772D02*
G01*
X31355687Y-120437998D01*
X31355689Y-120437999D01*
X31527827Y-120553018D01*
X31674219Y-120699410D01*
X31789239Y-120871550D01*
X31868465Y-121062819D01*
X31908854Y-121265867D01*
X31908854Y-121472899D01*
X31868465Y-121675947D01*
X31817325Y-121799410D01*
X31789238Y-121867218D01*
X31674219Y-122039356D01*
X31527827Y-122185748D01*
X31355689Y-122300767D01*
X31355688Y-122300768D01*
X31355687Y-122300768D01*
X31164418Y-122379994D01*
X30961370Y-122420383D01*
X30754338Y-122420383D01*
X30551290Y-122379994D01*
X30360021Y-122300768D01*
X30360020Y-122300768D01*
X30360019Y-122300767D01*
X30187881Y-122185748D01*
X30041489Y-122039356D01*
X29926470Y-121867218D01*
X29898383Y-121799410D01*
X29847243Y-121675947D01*
X29806854Y-121472899D01*
X29806854Y-121265867D01*
X29847243Y-121062819D01*
X29926469Y-120871550D01*
X30041489Y-120699410D01*
X30187881Y-120553018D01*
X30360019Y-120437999D01*
X30360021Y-120437998D01*
X30551290Y-120358772D01*
X30754338Y-120318383D01*
X30961370Y-120318383D01*
X31164418Y-120358772D01*
G37*
G36*
X37664418Y-120358772D02*
G01*
X37855687Y-120437998D01*
X37855689Y-120437999D01*
X38027827Y-120553018D01*
X38174219Y-120699410D01*
X38289239Y-120871550D01*
X38368465Y-121062819D01*
X38408854Y-121265867D01*
X38408854Y-121472899D01*
X38368465Y-121675947D01*
X38317325Y-121799410D01*
X38289238Y-121867218D01*
X38174219Y-122039356D01*
X38027827Y-122185748D01*
X37855689Y-122300767D01*
X37855688Y-122300768D01*
X37855687Y-122300768D01*
X37664418Y-122379994D01*
X37461370Y-122420383D01*
X37254338Y-122420383D01*
X37051290Y-122379994D01*
X36860021Y-122300768D01*
X36860020Y-122300768D01*
X36860019Y-122300767D01*
X36687881Y-122185748D01*
X36541489Y-122039356D01*
X36426470Y-121867218D01*
X36398383Y-121799410D01*
X36347243Y-121675947D01*
X36306854Y-121472899D01*
X36306854Y-121265867D01*
X36347243Y-121062819D01*
X36426469Y-120871550D01*
X36541489Y-120699410D01*
X36687881Y-120553018D01*
X36860019Y-120437999D01*
X36860021Y-120437998D01*
X37051290Y-120358772D01*
X37254338Y-120318383D01*
X37461370Y-120318383D01*
X37664418Y-120358772D01*
G37*
G36*
X49456108Y-114897201D02*
G01*
X49829365Y-115051809D01*
X49829367Y-115051810D01*
X50165290Y-115276267D01*
X50450970Y-115561947D01*
X50649303Y-115858772D01*
X50675428Y-115897872D01*
X50830036Y-116271129D01*
X50908854Y-116667376D01*
X50908854Y-117071390D01*
X50830036Y-117467637D01*
X50692049Y-117800767D01*
X50675427Y-117840896D01*
X50450970Y-118176819D01*
X50165290Y-118462499D01*
X49829367Y-118686956D01*
X49829366Y-118686957D01*
X49829365Y-118686957D01*
X49456108Y-118841565D01*
X49059861Y-118920383D01*
X48655847Y-118920383D01*
X48259600Y-118841565D01*
X47886343Y-118686957D01*
X47886342Y-118686957D01*
X47886341Y-118686956D01*
X47550418Y-118462499D01*
X47264738Y-118176819D01*
X47040281Y-117840896D01*
X47023659Y-117800767D01*
X46885672Y-117467637D01*
X46806854Y-117071390D01*
X46806854Y-116667376D01*
X46885672Y-116271129D01*
X47040280Y-115897872D01*
X47066406Y-115858772D01*
X47264738Y-115561947D01*
X47550418Y-115276267D01*
X47886341Y-115051810D01*
X47886343Y-115051809D01*
X48259600Y-114897201D01*
X48655847Y-114818383D01*
X49059861Y-114818383D01*
X49456108Y-114897201D01*
G37*
G36*
X124456108Y-114897201D02*
G01*
X124829365Y-115051809D01*
X124829367Y-115051810D01*
X125165290Y-115276267D01*
X125450970Y-115561947D01*
X125649303Y-115858772D01*
X125675428Y-115897872D01*
X125830036Y-116271129D01*
X125908854Y-116667376D01*
X125908854Y-117071390D01*
X125830036Y-117467637D01*
X125692049Y-117800767D01*
X125675427Y-117840896D01*
X125450970Y-118176819D01*
X125165290Y-118462499D01*
X124829367Y-118686956D01*
X124829366Y-118686957D01*
X124829365Y-118686957D01*
X124456108Y-118841565D01*
X124059861Y-118920383D01*
X123655847Y-118920383D01*
X123259600Y-118841565D01*
X122886343Y-118686957D01*
X122886342Y-118686957D01*
X122886341Y-118686956D01*
X122550418Y-118462499D01*
X122264738Y-118176819D01*
X122040281Y-117840896D01*
X122023659Y-117800767D01*
X121885672Y-117467637D01*
X121806854Y-117071390D01*
X121806854Y-116667376D01*
X121885672Y-116271129D01*
X122040280Y-115897872D01*
X122066406Y-115858772D01*
X122264738Y-115561947D01*
X122550418Y-115276267D01*
X122886341Y-115051810D01*
X122886343Y-115051809D01*
X123259600Y-114897201D01*
X123655847Y-114818383D01*
X124059861Y-114818383D01*
X124456108Y-114897201D01*
G37*
G36*
X37664418Y-115858772D02*
G01*
X37855687Y-115937998D01*
X37855689Y-115937999D01*
X38027827Y-116053018D01*
X38174219Y-116199410D01*
X38289239Y-116371550D01*
X38368465Y-116562819D01*
X38408854Y-116765867D01*
X38408854Y-116972899D01*
X38368465Y-117175947D01*
X38289239Y-117367216D01*
X38289238Y-117367218D01*
X38174219Y-117539356D01*
X38027827Y-117685748D01*
X37855689Y-117800767D01*
X37855688Y-117800768D01*
X37855687Y-117800768D01*
X37664418Y-117879994D01*
X37461370Y-117920383D01*
X37254338Y-117920383D01*
X37051290Y-117879994D01*
X36860021Y-117800768D01*
X36860020Y-117800768D01*
X36860019Y-117800767D01*
X36687881Y-117685748D01*
X36541489Y-117539356D01*
X36426470Y-117367218D01*
X36426469Y-117367216D01*
X36347243Y-117175947D01*
X36306854Y-116972899D01*
X36306854Y-116765867D01*
X36347243Y-116562819D01*
X36426469Y-116371550D01*
X36541489Y-116199410D01*
X36687881Y-116053018D01*
X36860019Y-115937999D01*
X36860021Y-115937998D01*
X37051290Y-115858772D01*
X37254338Y-115818383D01*
X37461370Y-115818383D01*
X37664418Y-115858772D01*
G37*
G36*
X31164418Y-115858772D02*
G01*
X31355687Y-115937998D01*
X31355689Y-115937999D01*
X31527827Y-116053018D01*
X31674219Y-116199410D01*
X31789239Y-116371550D01*
X31868465Y-116562819D01*
X31908854Y-116765867D01*
X31908854Y-116972899D01*
X31868465Y-117175947D01*
X31789239Y-117367216D01*
X31789238Y-117367218D01*
X31674219Y-117539356D01*
X31527827Y-117685748D01*
X31355689Y-117800767D01*
X31355688Y-117800768D01*
X31355687Y-117800768D01*
X31164418Y-117879994D01*
X30961370Y-117920383D01*
X30754338Y-117920383D01*
X30551290Y-117879994D01*
X30360021Y-117800768D01*
X30360020Y-117800768D01*
X30360019Y-117800767D01*
X30187881Y-117685748D01*
X30041489Y-117539356D01*
X29926470Y-117367218D01*
X29926469Y-117367216D01*
X29847243Y-117175947D01*
X29806854Y-116972899D01*
X29806854Y-116765867D01*
X29847243Y-116562819D01*
X29926469Y-116371550D01*
X30041489Y-116199410D01*
X30187881Y-116053018D01*
X30360019Y-115937999D01*
X30360021Y-115937998D01*
X30551290Y-115858772D01*
X30754338Y-115818383D01*
X30961370Y-115818383D01*
X31164418Y-115858772D01*
G37*
G36*
X37664418Y-107858772D02*
G01*
X37855687Y-107937998D01*
X37855689Y-107937999D01*
X38027827Y-108053018D01*
X38174219Y-108199410D01*
X38289239Y-108371550D01*
X38368465Y-108562819D01*
X38408854Y-108765867D01*
X38408854Y-108972899D01*
X38368465Y-109175947D01*
X38289239Y-109367216D01*
X38289238Y-109367218D01*
X38174219Y-109539356D01*
X38027827Y-109685748D01*
X37855689Y-109800767D01*
X37855688Y-109800768D01*
X37855687Y-109800768D01*
X37664418Y-109879994D01*
X37461370Y-109920383D01*
X37254338Y-109920383D01*
X37051290Y-109879994D01*
X36860021Y-109800768D01*
X36860020Y-109800768D01*
X36860019Y-109800767D01*
X36687881Y-109685748D01*
X36541489Y-109539356D01*
X36426470Y-109367218D01*
X36426469Y-109367216D01*
X36347243Y-109175947D01*
X36306854Y-108972899D01*
X36306854Y-108765867D01*
X36347243Y-108562819D01*
X36426469Y-108371550D01*
X36541489Y-108199410D01*
X36687881Y-108053018D01*
X36860019Y-107937999D01*
X36860021Y-107937998D01*
X37051290Y-107858772D01*
X37254338Y-107818383D01*
X37461370Y-107818383D01*
X37664418Y-107858772D01*
G37*
G36*
X31164418Y-107858772D02*
G01*
X31355687Y-107937998D01*
X31355689Y-107937999D01*
X31527827Y-108053018D01*
X31674219Y-108199410D01*
X31789239Y-108371550D01*
X31868465Y-108562819D01*
X31908854Y-108765867D01*
X31908854Y-108972899D01*
X31868465Y-109175947D01*
X31789239Y-109367216D01*
X31789238Y-109367218D01*
X31674219Y-109539356D01*
X31527827Y-109685748D01*
X31355689Y-109800767D01*
X31355688Y-109800768D01*
X31355687Y-109800768D01*
X31164418Y-109879994D01*
X30961370Y-109920383D01*
X30754338Y-109920383D01*
X30551290Y-109879994D01*
X30360021Y-109800768D01*
X30360020Y-109800768D01*
X30360019Y-109800767D01*
X30187881Y-109685748D01*
X30041489Y-109539356D01*
X29926470Y-109367218D01*
X29926469Y-109367216D01*
X29847243Y-109175947D01*
X29806854Y-108972899D01*
X29806854Y-108765867D01*
X29847243Y-108562819D01*
X29926469Y-108371550D01*
X30041489Y-108199410D01*
X30187881Y-108053018D01*
X30360019Y-107937999D01*
X30360021Y-107937998D01*
X30551290Y-107858772D01*
X30754338Y-107818383D01*
X30961370Y-107818383D01*
X31164418Y-107858772D01*
G37*
G36*
X37664418Y-103358772D02*
G01*
X37855687Y-103437998D01*
X37855689Y-103437999D01*
X37933804Y-103490194D01*
X38027827Y-103553018D01*
X38174219Y-103699410D01*
X38289239Y-103871550D01*
X38368465Y-104062819D01*
X38408854Y-104265867D01*
X38408854Y-104472899D01*
X38368465Y-104675947D01*
X38289239Y-104867216D01*
X38289238Y-104867218D01*
X38174219Y-105039356D01*
X38027827Y-105185748D01*
X37855689Y-105300767D01*
X37855688Y-105300768D01*
X37855687Y-105300768D01*
X37664418Y-105379994D01*
X37461370Y-105420383D01*
X37254338Y-105420383D01*
X37051290Y-105379994D01*
X36860021Y-105300768D01*
X36860020Y-105300768D01*
X36860019Y-105300767D01*
X36687881Y-105185748D01*
X36541489Y-105039356D01*
X36426470Y-104867218D01*
X36426469Y-104867216D01*
X36347243Y-104675947D01*
X36306854Y-104472899D01*
X36306854Y-104265867D01*
X36347243Y-104062819D01*
X36426469Y-103871550D01*
X36541489Y-103699410D01*
X36687881Y-103553018D01*
X36781904Y-103490194D01*
X36860019Y-103437999D01*
X36860021Y-103437998D01*
X37051290Y-103358772D01*
X37254338Y-103318383D01*
X37461370Y-103318383D01*
X37664418Y-103358772D01*
G37*
G36*
X31164418Y-103358772D02*
G01*
X31355687Y-103437998D01*
X31355689Y-103437999D01*
X31433804Y-103490194D01*
X31527827Y-103553018D01*
X31674219Y-103699410D01*
X31789239Y-103871550D01*
X31868465Y-104062819D01*
X31908854Y-104265867D01*
X31908854Y-104472899D01*
X31868465Y-104675947D01*
X31789239Y-104867216D01*
X31789238Y-104867218D01*
X31674219Y-105039356D01*
X31527827Y-105185748D01*
X31355689Y-105300767D01*
X31355688Y-105300768D01*
X31355687Y-105300768D01*
X31164418Y-105379994D01*
X30961370Y-105420383D01*
X30754338Y-105420383D01*
X30551290Y-105379994D01*
X30360021Y-105300768D01*
X30360020Y-105300768D01*
X30360019Y-105300767D01*
X30187881Y-105185748D01*
X30041489Y-105039356D01*
X29926470Y-104867218D01*
X29926469Y-104867216D01*
X29847243Y-104675947D01*
X29806854Y-104472899D01*
X29806854Y-104265867D01*
X29847243Y-104062819D01*
X29926469Y-103871550D01*
X30041489Y-103699410D01*
X30187881Y-103553018D01*
X30281904Y-103490194D01*
X30360019Y-103437999D01*
X30360021Y-103437998D01*
X30551290Y-103358772D01*
X30754338Y-103318383D01*
X30961370Y-103318383D01*
X31164418Y-103358772D01*
G37*
G36*
X118911366Y-102331310D02*
G01*
X119060666Y-102361007D01*
X119224638Y-102428927D01*
X119372208Y-102527530D01*
X119497707Y-102653029D01*
X119596310Y-102800599D01*
X119664230Y-102964571D01*
X119698854Y-103138642D01*
X119698854Y-103316124D01*
X119664230Y-103490195D01*
X119596310Y-103654167D01*
X119497707Y-103801737D01*
X119372208Y-103927236D01*
X119224638Y-104025839D01*
X119060666Y-104093759D01*
X118911366Y-104123456D01*
X118886596Y-104128383D01*
X118709112Y-104128383D01*
X118684342Y-104123456D01*
X118535042Y-104093759D01*
X118371070Y-104025839D01*
X118223500Y-103927236D01*
X118098001Y-103801737D01*
X117999398Y-103654167D01*
X117931478Y-103490195D01*
X117896854Y-103316124D01*
X117896854Y-103138642D01*
X117931478Y-102964571D01*
X117999398Y-102800599D01*
X118098001Y-102653029D01*
X118223500Y-102527530D01*
X118371070Y-102428927D01*
X118535042Y-102361007D01*
X118684342Y-102331310D01*
X118709112Y-102326383D01*
X118886596Y-102326383D01*
X118911366Y-102331310D01*
G37*
G36*
X118911366Y-99791310D02*
G01*
X119060666Y-99821007D01*
X119224638Y-99888927D01*
X119372208Y-99987530D01*
X119497707Y-100113029D01*
X119596310Y-100260599D01*
X119664230Y-100424571D01*
X119698854Y-100598642D01*
X119698854Y-100776124D01*
X119664230Y-100950195D01*
X119596310Y-101114167D01*
X119497707Y-101261737D01*
X119372208Y-101387236D01*
X119224638Y-101485839D01*
X119060666Y-101553759D01*
X118911366Y-101583456D01*
X118886596Y-101588383D01*
X118709112Y-101588383D01*
X118684342Y-101583456D01*
X118535042Y-101553759D01*
X118371070Y-101485839D01*
X118223500Y-101387236D01*
X118098001Y-101261737D01*
X117999398Y-101114167D01*
X117931478Y-100950195D01*
X117896854Y-100776124D01*
X117896854Y-100598642D01*
X117931478Y-100424571D01*
X117999398Y-100260599D01*
X118098001Y-100113029D01*
X118223500Y-99987530D01*
X118371070Y-99888927D01*
X118535042Y-99821007D01*
X118684342Y-99791310D01*
X118709112Y-99786383D01*
X118886596Y-99786383D01*
X118911366Y-99791310D01*
G37*
G36*
X69097366Y-98523310D02*
G01*
X69246666Y-98553007D01*
X69410638Y-98620927D01*
X69558208Y-98719530D01*
X69683707Y-98845029D01*
X69782310Y-98992599D01*
X69850230Y-99156571D01*
X69884854Y-99330642D01*
X69884854Y-99508124D01*
X69850230Y-99682195D01*
X69782310Y-99846167D01*
X69683707Y-99993737D01*
X69558208Y-100119236D01*
X69410638Y-100217839D01*
X69246666Y-100285759D01*
X69097366Y-100315456D01*
X69072596Y-100320383D01*
X68895112Y-100320383D01*
X68870342Y-100315456D01*
X68721042Y-100285759D01*
X68557070Y-100217839D01*
X68409500Y-100119236D01*
X68284001Y-99993737D01*
X68185398Y-99846167D01*
X68117478Y-99682195D01*
X68082854Y-99508124D01*
X68082854Y-99330642D01*
X68117478Y-99156571D01*
X68185398Y-98992599D01*
X68284001Y-98845029D01*
X68409500Y-98719530D01*
X68557070Y-98620927D01*
X68721042Y-98553007D01*
X68870342Y-98523310D01*
X68895112Y-98518383D01*
X69072596Y-98518383D01*
X69097366Y-98523310D01*
G37*
G36*
X83523366Y-98523310D02*
G01*
X83672666Y-98553007D01*
X83836638Y-98620927D01*
X83984208Y-98719530D01*
X84109707Y-98845029D01*
X84208310Y-98992599D01*
X84276230Y-99156571D01*
X84310854Y-99330642D01*
X84310854Y-99508124D01*
X84276230Y-99682195D01*
X84208310Y-99846167D01*
X84109707Y-99993737D01*
X83984208Y-100119236D01*
X83836638Y-100217839D01*
X83672666Y-100285759D01*
X83523366Y-100315456D01*
X83498596Y-100320383D01*
X83321112Y-100320383D01*
X83296342Y-100315456D01*
X83147042Y-100285759D01*
X82983070Y-100217839D01*
X82835500Y-100119236D01*
X82710001Y-99993737D01*
X82611398Y-99846167D01*
X82543478Y-99682195D01*
X82508854Y-99508124D01*
X82508854Y-99330642D01*
X82543478Y-99156571D01*
X82611398Y-98992599D01*
X82710001Y-98845029D01*
X82835500Y-98719530D01*
X82983070Y-98620927D01*
X83147042Y-98553007D01*
X83296342Y-98523310D01*
X83321112Y-98518383D01*
X83498596Y-98518383D01*
X83523366Y-98523310D01*
G37*
G36*
X54671366Y-98523310D02*
G01*
X54820666Y-98553007D01*
X54984638Y-98620927D01*
X55132208Y-98719530D01*
X55257707Y-98845029D01*
X55356310Y-98992599D01*
X55424230Y-99156571D01*
X55458854Y-99330642D01*
X55458854Y-99508124D01*
X55424230Y-99682195D01*
X55356310Y-99846167D01*
X55257707Y-99993737D01*
X55132208Y-100119236D01*
X54984638Y-100217839D01*
X54820666Y-100285759D01*
X54671366Y-100315456D01*
X54646596Y-100320383D01*
X54469112Y-100320383D01*
X54444342Y-100315456D01*
X54295042Y-100285759D01*
X54131070Y-100217839D01*
X53983500Y-100119236D01*
X53858001Y-99993737D01*
X53759398Y-99846167D01*
X53691478Y-99682195D01*
X53656854Y-99508124D01*
X53656854Y-99330642D01*
X53691478Y-99156571D01*
X53759398Y-98992599D01*
X53858001Y-98845029D01*
X53983500Y-98719530D01*
X54131070Y-98620927D01*
X54295042Y-98553007D01*
X54444342Y-98523310D01*
X54469112Y-98518383D01*
X54646596Y-98518383D01*
X54671366Y-98523310D01*
G37*
G36*
X118911366Y-97251310D02*
G01*
X119060666Y-97281007D01*
X119224638Y-97348927D01*
X119372208Y-97447530D01*
X119497707Y-97573029D01*
X119596310Y-97720599D01*
X119664230Y-97884571D01*
X119698854Y-98058642D01*
X119698854Y-98236124D01*
X119664230Y-98410195D01*
X119596310Y-98574167D01*
X119497707Y-98721737D01*
X119372208Y-98847236D01*
X119224638Y-98945839D01*
X119060666Y-99013759D01*
X118911366Y-99043456D01*
X118886596Y-99048383D01*
X118709112Y-99048383D01*
X118684342Y-99043456D01*
X118535042Y-99013759D01*
X118371070Y-98945839D01*
X118223500Y-98847236D01*
X118098001Y-98721737D01*
X117999398Y-98574167D01*
X117931478Y-98410195D01*
X117896854Y-98236124D01*
X117896854Y-98058642D01*
X117931478Y-97884571D01*
X117999398Y-97720599D01*
X118098001Y-97573029D01*
X118223500Y-97447530D01*
X118371070Y-97348927D01*
X118535042Y-97281007D01*
X118684342Y-97251310D01*
X118709112Y-97246383D01*
X118886596Y-97246383D01*
X118911366Y-97251310D01*
G37*
G36*
X90708854Y-97520383D02*
G01*
X88906854Y-97520383D01*
X88906854Y-95718383D01*
X90708854Y-95718383D01*
X90708854Y-97520383D01*
G37*
G36*
X87381366Y-95723310D02*
G01*
X87530666Y-95753007D01*
X87694638Y-95820927D01*
X87842208Y-95919530D01*
X87967707Y-96045029D01*
X88066310Y-96192599D01*
X88134230Y-96356571D01*
X88168854Y-96530642D01*
X88168854Y-96708124D01*
X88134230Y-96882195D01*
X88066310Y-97046167D01*
X87967707Y-97193737D01*
X87842208Y-97319236D01*
X87694638Y-97417839D01*
X87530666Y-97485759D01*
X87381366Y-97515456D01*
X87356596Y-97520383D01*
X87179112Y-97520383D01*
X87154342Y-97515456D01*
X87005042Y-97485759D01*
X86841070Y-97417839D01*
X86693500Y-97319236D01*
X86568001Y-97193737D01*
X86469398Y-97046167D01*
X86401478Y-96882195D01*
X86366854Y-96708124D01*
X86366854Y-96530642D01*
X86401478Y-96356571D01*
X86469398Y-96192599D01*
X86568001Y-96045029D01*
X86693500Y-95919530D01*
X86841070Y-95820927D01*
X87005042Y-95753007D01*
X87154342Y-95723310D01*
X87179112Y-95718383D01*
X87356596Y-95718383D01*
X87381366Y-95723310D01*
G37*
G36*
X37664418Y-95358772D02*
G01*
X37855687Y-95437998D01*
X37855689Y-95437999D01*
X38027827Y-95553018D01*
X38174219Y-95699410D01*
X38289239Y-95871550D01*
X38368465Y-96062819D01*
X38408854Y-96265867D01*
X38408854Y-96472899D01*
X38368465Y-96675947D01*
X38355136Y-96708125D01*
X38289238Y-96867218D01*
X38174219Y-97039356D01*
X38027827Y-97185748D01*
X37855689Y-97300767D01*
X37855688Y-97300768D01*
X37855687Y-97300768D01*
X37664418Y-97379994D01*
X37461370Y-97420383D01*
X37254338Y-97420383D01*
X37051290Y-97379994D01*
X36860021Y-97300768D01*
X36860020Y-97300768D01*
X36860019Y-97300767D01*
X36687881Y-97185748D01*
X36541489Y-97039356D01*
X36426470Y-96867218D01*
X36360572Y-96708125D01*
X36347243Y-96675947D01*
X36306854Y-96472899D01*
X36306854Y-96265867D01*
X36347243Y-96062819D01*
X36426469Y-95871550D01*
X36541489Y-95699410D01*
X36687881Y-95553018D01*
X36860019Y-95437999D01*
X36860021Y-95437998D01*
X37051290Y-95358772D01*
X37254338Y-95318383D01*
X37461370Y-95318383D01*
X37664418Y-95358772D01*
G37*
G36*
X31164418Y-95358772D02*
G01*
X31355687Y-95437998D01*
X31355689Y-95437999D01*
X31527827Y-95553018D01*
X31674219Y-95699410D01*
X31789239Y-95871550D01*
X31868465Y-96062819D01*
X31908854Y-96265867D01*
X31908854Y-96472899D01*
X31868465Y-96675947D01*
X31855136Y-96708125D01*
X31789238Y-96867218D01*
X31674219Y-97039356D01*
X31527827Y-97185748D01*
X31355689Y-97300767D01*
X31355688Y-97300768D01*
X31355687Y-97300768D01*
X31164418Y-97379994D01*
X30961370Y-97420383D01*
X30754338Y-97420383D01*
X30551290Y-97379994D01*
X30360021Y-97300768D01*
X30360020Y-97300768D01*
X30360019Y-97300767D01*
X30187881Y-97185748D01*
X30041489Y-97039356D01*
X29926470Y-96867218D01*
X29860572Y-96708125D01*
X29847243Y-96675947D01*
X29806854Y-96472899D01*
X29806854Y-96265867D01*
X29847243Y-96062819D01*
X29926469Y-95871550D01*
X30041489Y-95699410D01*
X30187881Y-95553018D01*
X30360019Y-95437999D01*
X30360021Y-95437998D01*
X30551290Y-95358772D01*
X30754338Y-95318383D01*
X30961370Y-95318383D01*
X31164418Y-95358772D01*
G37*
G36*
X119698854Y-96508383D02*
G01*
X117896854Y-96508383D01*
X117896854Y-94706383D01*
X119698854Y-94706383D01*
X119698854Y-96508383D01*
G37*
G36*
X66384854Y-95120383D02*
G01*
X64582854Y-95120383D01*
X64582854Y-93318383D01*
X66384854Y-93318383D01*
X66384854Y-95120383D01*
G37*
G36*
X51958854Y-95120383D02*
G01*
X50156854Y-95120383D01*
X50156854Y-93318383D01*
X51958854Y-93318383D01*
X51958854Y-95120383D01*
G37*
G36*
X80810854Y-95120383D02*
G01*
X79008854Y-95120383D01*
X79008854Y-93318383D01*
X80810854Y-93318383D01*
X80810854Y-95120383D01*
G37*
G36*
X37664418Y-90858772D02*
G01*
X37855687Y-90937998D01*
X37855689Y-90937999D01*
X37902437Y-90969235D01*
X38027827Y-91053018D01*
X38174219Y-91199410D01*
X38289239Y-91371550D01*
X38368465Y-91562819D01*
X38408854Y-91765867D01*
X38408854Y-91972899D01*
X38368465Y-92175947D01*
X38289239Y-92367216D01*
X38289238Y-92367218D01*
X38174219Y-92539356D01*
X38027827Y-92685748D01*
X37855689Y-92800767D01*
X37855688Y-92800768D01*
X37855687Y-92800768D01*
X37664418Y-92879994D01*
X37461370Y-92920383D01*
X37254338Y-92920383D01*
X37051290Y-92879994D01*
X36860021Y-92800768D01*
X36860020Y-92800768D01*
X36860019Y-92800767D01*
X36687881Y-92685748D01*
X36541489Y-92539356D01*
X36426470Y-92367218D01*
X36426469Y-92367216D01*
X36347243Y-92175947D01*
X36306854Y-91972899D01*
X36306854Y-91765867D01*
X36347243Y-91562819D01*
X36426469Y-91371550D01*
X36541489Y-91199410D01*
X36687881Y-91053018D01*
X36813271Y-90969235D01*
X36860019Y-90937999D01*
X36860021Y-90937998D01*
X37051290Y-90858772D01*
X37254338Y-90818383D01*
X37461370Y-90818383D01*
X37664418Y-90858772D01*
G37*
G36*
X31164418Y-90858772D02*
G01*
X31355687Y-90937998D01*
X31355689Y-90937999D01*
X31402437Y-90969235D01*
X31527827Y-91053018D01*
X31674219Y-91199410D01*
X31789239Y-91371550D01*
X31868465Y-91562819D01*
X31908854Y-91765867D01*
X31908854Y-91972899D01*
X31868465Y-92175947D01*
X31789239Y-92367216D01*
X31789238Y-92367218D01*
X31674219Y-92539356D01*
X31527827Y-92685748D01*
X31355689Y-92800767D01*
X31355688Y-92800768D01*
X31355687Y-92800768D01*
X31164418Y-92879994D01*
X30961370Y-92920383D01*
X30754338Y-92920383D01*
X30551290Y-92879994D01*
X30360021Y-92800768D01*
X30360020Y-92800768D01*
X30360019Y-92800767D01*
X30187881Y-92685748D01*
X30041489Y-92539356D01*
X29926470Y-92367218D01*
X29926469Y-92367216D01*
X29847243Y-92175947D01*
X29806854Y-91972899D01*
X29806854Y-91765867D01*
X29847243Y-91562819D01*
X29926469Y-91371550D01*
X30041489Y-91199410D01*
X30187881Y-91053018D01*
X30313271Y-90969235D01*
X30360019Y-90937999D01*
X30360021Y-90937998D01*
X30551290Y-90858772D01*
X30754338Y-90818383D01*
X30961370Y-90818383D01*
X31164418Y-90858772D01*
G37*
G36*
X92961366Y-89373310D02*
G01*
X93110666Y-89403007D01*
X93274638Y-89470927D01*
X93422208Y-89569530D01*
X93547707Y-89695029D01*
X93646310Y-89842599D01*
X93714230Y-90006571D01*
X93748854Y-90180642D01*
X93748854Y-90358124D01*
X93714230Y-90532195D01*
X93646310Y-90696167D01*
X93547707Y-90843737D01*
X93422208Y-90969236D01*
X93274638Y-91067839D01*
X93110666Y-91135759D01*
X92961366Y-91165456D01*
X92936596Y-91170383D01*
X92759112Y-91170383D01*
X92734342Y-91165456D01*
X92585042Y-91135759D01*
X92421070Y-91067839D01*
X92273500Y-90969236D01*
X92148001Y-90843737D01*
X92049398Y-90696167D01*
X91981478Y-90532195D01*
X91946854Y-90358124D01*
X91946854Y-90180642D01*
X91981478Y-90006571D01*
X92049398Y-89842599D01*
X92148001Y-89695029D01*
X92273500Y-89569530D01*
X92421070Y-89470927D01*
X92585042Y-89403007D01*
X92734342Y-89373310D01*
X92759112Y-89368383D01*
X92936596Y-89368383D01*
X92961366Y-89373310D01*
G37*
G36*
X91208854Y-91170383D02*
G01*
X89406854Y-91170383D01*
X89406854Y-89368383D01*
X91208854Y-89368383D01*
X91208854Y-91170383D01*
G37*
G36*
X102151366Y-89373310D02*
G01*
X102300666Y-89403007D01*
X102464638Y-89470927D01*
X102612208Y-89569530D01*
X102737707Y-89695029D01*
X102836310Y-89842599D01*
X102904230Y-90006571D01*
X102938854Y-90180642D01*
X102938854Y-90358124D01*
X102904230Y-90532195D01*
X102836310Y-90696167D01*
X102737707Y-90843737D01*
X102612208Y-90969236D01*
X102464638Y-91067839D01*
X102300666Y-91135759D01*
X102151366Y-91165456D01*
X102126596Y-91170383D01*
X101949112Y-91170383D01*
X101924342Y-91165456D01*
X101775042Y-91135759D01*
X101611070Y-91067839D01*
X101463500Y-90969236D01*
X101338001Y-90843737D01*
X101239398Y-90696167D01*
X101171478Y-90532195D01*
X101136854Y-90358124D01*
X101136854Y-90180642D01*
X101171478Y-90006571D01*
X101239398Y-89842599D01*
X101338001Y-89695029D01*
X101463500Y-89569530D01*
X101611070Y-89470927D01*
X101775042Y-89403007D01*
X101924342Y-89373310D01*
X101949112Y-89368383D01*
X102126596Y-89368383D01*
X102151366Y-89373310D01*
G37*
G36*
X99611366Y-89373310D02*
G01*
X99760666Y-89403007D01*
X99924638Y-89470927D01*
X100072208Y-89569530D01*
X100197707Y-89695029D01*
X100296310Y-89842599D01*
X100364230Y-90006571D01*
X100398854Y-90180642D01*
X100398854Y-90358124D01*
X100364230Y-90532195D01*
X100296310Y-90696167D01*
X100197707Y-90843737D01*
X100072208Y-90969236D01*
X99924638Y-91067839D01*
X99760666Y-91135759D01*
X99611366Y-91165456D01*
X99586596Y-91170383D01*
X99409112Y-91170383D01*
X99384342Y-91165456D01*
X99235042Y-91135759D01*
X99071070Y-91067839D01*
X98923500Y-90969236D01*
X98798001Y-90843737D01*
X98699398Y-90696167D01*
X98631478Y-90532195D01*
X98596854Y-90358124D01*
X98596854Y-90180642D01*
X98631478Y-90006571D01*
X98699398Y-89842599D01*
X98798001Y-89695029D01*
X98923500Y-89569530D01*
X99071070Y-89470927D01*
X99235042Y-89403007D01*
X99384342Y-89373310D01*
X99409112Y-89368383D01*
X99586596Y-89368383D01*
X99611366Y-89373310D01*
G37*
G36*
X97858854Y-91170383D02*
G01*
X96056854Y-91170383D01*
X96056854Y-89368383D01*
X97858854Y-89368383D01*
X97858854Y-91170383D01*
G37*
G36*
X132164418Y-86858772D02*
G01*
X132355687Y-86937998D01*
X132355689Y-86937999D01*
X132527827Y-87053018D01*
X132674219Y-87199410D01*
X132789239Y-87371550D01*
X132868465Y-87562819D01*
X132908854Y-87765867D01*
X132908854Y-87972899D01*
X132868465Y-88175947D01*
X132789239Y-88367216D01*
X132789238Y-88367218D01*
X132674219Y-88539356D01*
X132527827Y-88685748D01*
X132355689Y-88800767D01*
X132355688Y-88800768D01*
X132355687Y-88800768D01*
X132164418Y-88879994D01*
X131961370Y-88920383D01*
X131754338Y-88920383D01*
X131551290Y-88879994D01*
X131360021Y-88800768D01*
X131360020Y-88800768D01*
X131360019Y-88800767D01*
X131187881Y-88685748D01*
X131041489Y-88539356D01*
X130926470Y-88367218D01*
X130926469Y-88367216D01*
X130847243Y-88175947D01*
X130806854Y-87972899D01*
X130806854Y-87765867D01*
X130847243Y-87562819D01*
X130926469Y-87371550D01*
X131041489Y-87199410D01*
X131187881Y-87053018D01*
X131360019Y-86937999D01*
X131360021Y-86937998D01*
X131551290Y-86858772D01*
X131754338Y-86818383D01*
X131961370Y-86818383D01*
X132164418Y-86858772D01*
G37*
G36*
X138664418Y-86858772D02*
G01*
X138855687Y-86937998D01*
X138855689Y-86937999D01*
X139027827Y-87053018D01*
X139174219Y-87199410D01*
X139289239Y-87371550D01*
X139368465Y-87562819D01*
X139408854Y-87765867D01*
X139408854Y-87972899D01*
X139368465Y-88175947D01*
X139289239Y-88367216D01*
X139289238Y-88367218D01*
X139174219Y-88539356D01*
X139027827Y-88685748D01*
X138855689Y-88800767D01*
X138855688Y-88800768D01*
X138855687Y-88800768D01*
X138664418Y-88879994D01*
X138461370Y-88920383D01*
X138254338Y-88920383D01*
X138051290Y-88879994D01*
X137860021Y-88800768D01*
X137860020Y-88800768D01*
X137860019Y-88800767D01*
X137687881Y-88685748D01*
X137541489Y-88539356D01*
X137426470Y-88367218D01*
X137426469Y-88367216D01*
X137347243Y-88175947D01*
X137306854Y-87972899D01*
X137306854Y-87765867D01*
X137347243Y-87562819D01*
X137426469Y-87371550D01*
X137541489Y-87199410D01*
X137687881Y-87053018D01*
X137860019Y-86937999D01*
X137860021Y-86937998D01*
X138051290Y-86858772D01*
X138254338Y-86818383D01*
X138461370Y-86818383D01*
X138664418Y-86858772D01*
G37*
G36*
X49456108Y-83897201D02*
G01*
X49829365Y-84051809D01*
X49829367Y-84051810D01*
X50165290Y-84276267D01*
X50450970Y-84561947D01*
X50663483Y-84879994D01*
X50675428Y-84897872D01*
X50830036Y-85271129D01*
X50908854Y-85667376D01*
X50908854Y-86071390D01*
X50830036Y-86467637D01*
X50684752Y-86818383D01*
X50675427Y-86840896D01*
X50450970Y-87176819D01*
X50165290Y-87462499D01*
X49829367Y-87686956D01*
X49829366Y-87686957D01*
X49829365Y-87686957D01*
X49456108Y-87841565D01*
X49059861Y-87920383D01*
X48655847Y-87920383D01*
X48259600Y-87841565D01*
X47886343Y-87686957D01*
X47886342Y-87686957D01*
X47886341Y-87686956D01*
X47550418Y-87462499D01*
X47264738Y-87176819D01*
X47040281Y-86840896D01*
X47030956Y-86818383D01*
X46885672Y-86467637D01*
X46806854Y-86071390D01*
X46806854Y-85667376D01*
X46885672Y-85271129D01*
X47040280Y-84897872D01*
X47052226Y-84879994D01*
X47264738Y-84561947D01*
X47550418Y-84276267D01*
X47886341Y-84051810D01*
X47886343Y-84051809D01*
X48259600Y-83897201D01*
X48655847Y-83818383D01*
X49059861Y-83818383D01*
X49456108Y-83897201D01*
G37*
G36*
X124456108Y-83897201D02*
G01*
X124829365Y-84051809D01*
X124829367Y-84051810D01*
X125165290Y-84276267D01*
X125450970Y-84561947D01*
X125663483Y-84879994D01*
X125675428Y-84897872D01*
X125830036Y-85271129D01*
X125908854Y-85667376D01*
X125908854Y-86071390D01*
X125830036Y-86467637D01*
X125684752Y-86818383D01*
X125675427Y-86840896D01*
X125450970Y-87176819D01*
X125165290Y-87462499D01*
X124829367Y-87686956D01*
X124829366Y-87686957D01*
X124829365Y-87686957D01*
X124456108Y-87841565D01*
X124059861Y-87920383D01*
X123655847Y-87920383D01*
X123259600Y-87841565D01*
X122886343Y-87686957D01*
X122886342Y-87686957D01*
X122886341Y-87686956D01*
X122550418Y-87462499D01*
X122264738Y-87176819D01*
X122040281Y-86840896D01*
X122030956Y-86818383D01*
X121885672Y-86467637D01*
X121806854Y-86071390D01*
X121806854Y-85667376D01*
X121885672Y-85271129D01*
X122040280Y-84897872D01*
X122052226Y-84879994D01*
X122264738Y-84561947D01*
X122550418Y-84276267D01*
X122886341Y-84051810D01*
X122886343Y-84051809D01*
X123259600Y-83897201D01*
X123655847Y-83818383D01*
X124059861Y-83818383D01*
X124456108Y-83897201D01*
G37*
G36*
X85951366Y-84473310D02*
G01*
X86100666Y-84503007D01*
X86264638Y-84570927D01*
X86412208Y-84669530D01*
X86537707Y-84795029D01*
X86636310Y-84942599D01*
X86704230Y-85106571D01*
X86738854Y-85280642D01*
X86738854Y-85458124D01*
X86704230Y-85632195D01*
X86636310Y-85796167D01*
X86537707Y-85943737D01*
X86412208Y-86069236D01*
X86264638Y-86167839D01*
X86100666Y-86235759D01*
X85951366Y-86265456D01*
X85926596Y-86270383D01*
X85749112Y-86270383D01*
X85724342Y-86265456D01*
X85575042Y-86235759D01*
X85411070Y-86167839D01*
X85263500Y-86069236D01*
X85138001Y-85943737D01*
X85039398Y-85796167D01*
X84971478Y-85632195D01*
X84936854Y-85458124D01*
X84936854Y-85280642D01*
X84971478Y-85106571D01*
X85039398Y-84942599D01*
X85138001Y-84795029D01*
X85263500Y-84669530D01*
X85411070Y-84570927D01*
X85575042Y-84503007D01*
X85724342Y-84473310D01*
X85749112Y-84468383D01*
X85926596Y-84468383D01*
X85951366Y-84473310D01*
G37*
G36*
X91031366Y-84473310D02*
G01*
X91180666Y-84503007D01*
X91344638Y-84570927D01*
X91492208Y-84669530D01*
X91617707Y-84795029D01*
X91716310Y-84942599D01*
X91784230Y-85106571D01*
X91818854Y-85280642D01*
X91818854Y-85458124D01*
X91784230Y-85632195D01*
X91716310Y-85796167D01*
X91617707Y-85943737D01*
X91492208Y-86069236D01*
X91344638Y-86167839D01*
X91180666Y-86235759D01*
X91031366Y-86265456D01*
X91006596Y-86270383D01*
X90829112Y-86270383D01*
X90804342Y-86265456D01*
X90655042Y-86235759D01*
X90491070Y-86167839D01*
X90343500Y-86069236D01*
X90218001Y-85943737D01*
X90119398Y-85796167D01*
X90051478Y-85632195D01*
X90016854Y-85458124D01*
X90016854Y-85280642D01*
X90051478Y-85106571D01*
X90119398Y-84942599D01*
X90218001Y-84795029D01*
X90343500Y-84669530D01*
X90491070Y-84570927D01*
X90655042Y-84503007D01*
X90804342Y-84473310D01*
X90829112Y-84468383D01*
X91006596Y-84468383D01*
X91031366Y-84473310D01*
G37*
G36*
X88491366Y-84473310D02*
G01*
X88640666Y-84503007D01*
X88804638Y-84570927D01*
X88952208Y-84669530D01*
X89077707Y-84795029D01*
X89176310Y-84942599D01*
X89244230Y-85106571D01*
X89278854Y-85280642D01*
X89278854Y-85458124D01*
X89244230Y-85632195D01*
X89176310Y-85796167D01*
X89077707Y-85943737D01*
X88952208Y-86069236D01*
X88804638Y-86167839D01*
X88640666Y-86235759D01*
X88491366Y-86265456D01*
X88466596Y-86270383D01*
X88289112Y-86270383D01*
X88264342Y-86265456D01*
X88115042Y-86235759D01*
X87951070Y-86167839D01*
X87803500Y-86069236D01*
X87678001Y-85943737D01*
X87579398Y-85796167D01*
X87511478Y-85632195D01*
X87476854Y-85458124D01*
X87476854Y-85280642D01*
X87511478Y-85106571D01*
X87579398Y-84942599D01*
X87678001Y-84795029D01*
X87803500Y-84669530D01*
X87951070Y-84570927D01*
X88115042Y-84503007D01*
X88264342Y-84473310D01*
X88289112Y-84468383D01*
X88466596Y-84468383D01*
X88491366Y-84473310D01*
G37*
G36*
X83411366Y-84473310D02*
G01*
X83560666Y-84503007D01*
X83724638Y-84570927D01*
X83872208Y-84669530D01*
X83997707Y-84795029D01*
X84096310Y-84942599D01*
X84164230Y-85106571D01*
X84198854Y-85280642D01*
X84198854Y-85458124D01*
X84164230Y-85632195D01*
X84096310Y-85796167D01*
X83997707Y-85943737D01*
X83872208Y-86069236D01*
X83724638Y-86167839D01*
X83560666Y-86235759D01*
X83411366Y-86265456D01*
X83386596Y-86270383D01*
X83209112Y-86270383D01*
X83184342Y-86265456D01*
X83035042Y-86235759D01*
X82871070Y-86167839D01*
X82723500Y-86069236D01*
X82598001Y-85943737D01*
X82499398Y-85796167D01*
X82431478Y-85632195D01*
X82396854Y-85458124D01*
X82396854Y-85280642D01*
X82431478Y-85106571D01*
X82499398Y-84942599D01*
X82598001Y-84795029D01*
X82723500Y-84669530D01*
X82871070Y-84570927D01*
X83035042Y-84503007D01*
X83184342Y-84473310D01*
X83209112Y-84468383D01*
X83386596Y-84468383D01*
X83411366Y-84473310D01*
G37*
G36*
X80871366Y-84473310D02*
G01*
X81020666Y-84503007D01*
X81184638Y-84570927D01*
X81332208Y-84669530D01*
X81457707Y-84795029D01*
X81556310Y-84942599D01*
X81624230Y-85106571D01*
X81658854Y-85280642D01*
X81658854Y-85458124D01*
X81624230Y-85632195D01*
X81556310Y-85796167D01*
X81457707Y-85943737D01*
X81332208Y-86069236D01*
X81184638Y-86167839D01*
X81020666Y-86235759D01*
X80871366Y-86265456D01*
X80846596Y-86270383D01*
X80669112Y-86270383D01*
X80644342Y-86265456D01*
X80495042Y-86235759D01*
X80331070Y-86167839D01*
X80183500Y-86069236D01*
X80058001Y-85943737D01*
X79959398Y-85796167D01*
X79891478Y-85632195D01*
X79856854Y-85458124D01*
X79856854Y-85280642D01*
X79891478Y-85106571D01*
X79959398Y-84942599D01*
X80058001Y-84795029D01*
X80183500Y-84669530D01*
X80331070Y-84570927D01*
X80495042Y-84503007D01*
X80644342Y-84473310D01*
X80669112Y-84468383D01*
X80846596Y-84468383D01*
X80871366Y-84473310D01*
G37*
G36*
X119758854Y-86270383D02*
G01*
X117956854Y-86270383D01*
X117956854Y-84468383D01*
X119758854Y-84468383D01*
X119758854Y-86270383D01*
G37*
G36*
X116431366Y-84473310D02*
G01*
X116580666Y-84503007D01*
X116744638Y-84570927D01*
X116892208Y-84669530D01*
X117017707Y-84795029D01*
X117116310Y-84942599D01*
X117184230Y-85106571D01*
X117218854Y-85280642D01*
X117218854Y-85458124D01*
X117184230Y-85632195D01*
X117116310Y-85796167D01*
X117017707Y-85943737D01*
X116892208Y-86069236D01*
X116744638Y-86167839D01*
X116580666Y-86235759D01*
X116431366Y-86265456D01*
X116406596Y-86270383D01*
X116229112Y-86270383D01*
X116204342Y-86265456D01*
X116055042Y-86235759D01*
X115891070Y-86167839D01*
X115743500Y-86069236D01*
X115618001Y-85943737D01*
X115519398Y-85796167D01*
X115451478Y-85632195D01*
X115416854Y-85458124D01*
X115416854Y-85280642D01*
X115451478Y-85106571D01*
X115519398Y-84942599D01*
X115618001Y-84795029D01*
X115743500Y-84669530D01*
X115891070Y-84570927D01*
X116055042Y-84503007D01*
X116204342Y-84473310D01*
X116229112Y-84468383D01*
X116406596Y-84468383D01*
X116431366Y-84473310D01*
G37*
G36*
X113891366Y-84473310D02*
G01*
X114040666Y-84503007D01*
X114204638Y-84570927D01*
X114352208Y-84669530D01*
X114477707Y-84795029D01*
X114576310Y-84942599D01*
X114644230Y-85106571D01*
X114678854Y-85280642D01*
X114678854Y-85458124D01*
X114644230Y-85632195D01*
X114576310Y-85796167D01*
X114477707Y-85943737D01*
X114352208Y-86069236D01*
X114204638Y-86167839D01*
X114040666Y-86235759D01*
X113891366Y-86265456D01*
X113866596Y-86270383D01*
X113689112Y-86270383D01*
X113664342Y-86265456D01*
X113515042Y-86235759D01*
X113351070Y-86167839D01*
X113203500Y-86069236D01*
X113078001Y-85943737D01*
X112979398Y-85796167D01*
X112911478Y-85632195D01*
X112876854Y-85458124D01*
X112876854Y-85280642D01*
X112911478Y-85106571D01*
X112979398Y-84942599D01*
X113078001Y-84795029D01*
X113203500Y-84669530D01*
X113351070Y-84570927D01*
X113515042Y-84503007D01*
X113664342Y-84473310D01*
X113689112Y-84468383D01*
X113866596Y-84468383D01*
X113891366Y-84473310D01*
G37*
G36*
X111351366Y-84473310D02*
G01*
X111500666Y-84503007D01*
X111664638Y-84570927D01*
X111812208Y-84669530D01*
X111937707Y-84795029D01*
X112036310Y-84942599D01*
X112104230Y-85106571D01*
X112138854Y-85280642D01*
X112138854Y-85458124D01*
X112104230Y-85632195D01*
X112036310Y-85796167D01*
X111937707Y-85943737D01*
X111812208Y-86069236D01*
X111664638Y-86167839D01*
X111500666Y-86235759D01*
X111351366Y-86265456D01*
X111326596Y-86270383D01*
X111149112Y-86270383D01*
X111124342Y-86265456D01*
X110975042Y-86235759D01*
X110811070Y-86167839D01*
X110663500Y-86069236D01*
X110538001Y-85943737D01*
X110439398Y-85796167D01*
X110371478Y-85632195D01*
X110336854Y-85458124D01*
X110336854Y-85280642D01*
X110371478Y-85106571D01*
X110439398Y-84942599D01*
X110538001Y-84795029D01*
X110663500Y-84669530D01*
X110811070Y-84570927D01*
X110975042Y-84503007D01*
X111124342Y-84473310D01*
X111149112Y-84468383D01*
X111326596Y-84468383D01*
X111351366Y-84473310D01*
G37*
G36*
X108811366Y-84473310D02*
G01*
X108960666Y-84503007D01*
X109124638Y-84570927D01*
X109272208Y-84669530D01*
X109397707Y-84795029D01*
X109496310Y-84942599D01*
X109564230Y-85106571D01*
X109598854Y-85280642D01*
X109598854Y-85458124D01*
X109564230Y-85632195D01*
X109496310Y-85796167D01*
X109397707Y-85943737D01*
X109272208Y-86069236D01*
X109124638Y-86167839D01*
X108960666Y-86235759D01*
X108811366Y-86265456D01*
X108786596Y-86270383D01*
X108609112Y-86270383D01*
X108584342Y-86265456D01*
X108435042Y-86235759D01*
X108271070Y-86167839D01*
X108123500Y-86069236D01*
X107998001Y-85943737D01*
X107899398Y-85796167D01*
X107831478Y-85632195D01*
X107796854Y-85458124D01*
X107796854Y-85280642D01*
X107831478Y-85106571D01*
X107899398Y-84942599D01*
X107998001Y-84795029D01*
X108123500Y-84669530D01*
X108271070Y-84570927D01*
X108435042Y-84503007D01*
X108584342Y-84473310D01*
X108609112Y-84468383D01*
X108786596Y-84468383D01*
X108811366Y-84473310D01*
G37*
G36*
X106271366Y-84473310D02*
G01*
X106420666Y-84503007D01*
X106584638Y-84570927D01*
X106732208Y-84669530D01*
X106857707Y-84795029D01*
X106956310Y-84942599D01*
X107024230Y-85106571D01*
X107058854Y-85280642D01*
X107058854Y-85458124D01*
X107024230Y-85632195D01*
X106956310Y-85796167D01*
X106857707Y-85943737D01*
X106732208Y-86069236D01*
X106584638Y-86167839D01*
X106420666Y-86235759D01*
X106271366Y-86265456D01*
X106246596Y-86270383D01*
X106069112Y-86270383D01*
X106044342Y-86265456D01*
X105895042Y-86235759D01*
X105731070Y-86167839D01*
X105583500Y-86069236D01*
X105458001Y-85943737D01*
X105359398Y-85796167D01*
X105291478Y-85632195D01*
X105256854Y-85458124D01*
X105256854Y-85280642D01*
X105291478Y-85106571D01*
X105359398Y-84942599D01*
X105458001Y-84795029D01*
X105583500Y-84669530D01*
X105731070Y-84570927D01*
X105895042Y-84503007D01*
X106044342Y-84473310D01*
X106069112Y-84468383D01*
X106246596Y-84468383D01*
X106271366Y-84473310D01*
G37*
G36*
X103731366Y-84473310D02*
G01*
X103880666Y-84503007D01*
X104044638Y-84570927D01*
X104192208Y-84669530D01*
X104317707Y-84795029D01*
X104416310Y-84942599D01*
X104484230Y-85106571D01*
X104518854Y-85280642D01*
X104518854Y-85458124D01*
X104484230Y-85632195D01*
X104416310Y-85796167D01*
X104317707Y-85943737D01*
X104192208Y-86069236D01*
X104044638Y-86167839D01*
X103880666Y-86235759D01*
X103731366Y-86265456D01*
X103706596Y-86270383D01*
X103529112Y-86270383D01*
X103504342Y-86265456D01*
X103355042Y-86235759D01*
X103191070Y-86167839D01*
X103043500Y-86069236D01*
X102918001Y-85943737D01*
X102819398Y-85796167D01*
X102751478Y-85632195D01*
X102716854Y-85458124D01*
X102716854Y-85280642D01*
X102751478Y-85106571D01*
X102819398Y-84942599D01*
X102918001Y-84795029D01*
X103043500Y-84669530D01*
X103191070Y-84570927D01*
X103355042Y-84503007D01*
X103504342Y-84473310D01*
X103529112Y-84468383D01*
X103706596Y-84468383D01*
X103731366Y-84473310D01*
G37*
G36*
X101191366Y-84473310D02*
G01*
X101340666Y-84503007D01*
X101504638Y-84570927D01*
X101652208Y-84669530D01*
X101777707Y-84795029D01*
X101876310Y-84942599D01*
X101944230Y-85106571D01*
X101978854Y-85280642D01*
X101978854Y-85458124D01*
X101944230Y-85632195D01*
X101876310Y-85796167D01*
X101777707Y-85943737D01*
X101652208Y-86069236D01*
X101504638Y-86167839D01*
X101340666Y-86235759D01*
X101191366Y-86265456D01*
X101166596Y-86270383D01*
X100989112Y-86270383D01*
X100964342Y-86265456D01*
X100815042Y-86235759D01*
X100651070Y-86167839D01*
X100503500Y-86069236D01*
X100378001Y-85943737D01*
X100279398Y-85796167D01*
X100211478Y-85632195D01*
X100176854Y-85458124D01*
X100176854Y-85280642D01*
X100211478Y-85106571D01*
X100279398Y-84942599D01*
X100378001Y-84795029D01*
X100503500Y-84669530D01*
X100651070Y-84570927D01*
X100815042Y-84503007D01*
X100964342Y-84473310D01*
X100989112Y-84468383D01*
X101166596Y-84468383D01*
X101191366Y-84473310D01*
G37*
G36*
X98651366Y-84473310D02*
G01*
X98800666Y-84503007D01*
X98964638Y-84570927D01*
X99112208Y-84669530D01*
X99237707Y-84795029D01*
X99336310Y-84942599D01*
X99404230Y-85106571D01*
X99438854Y-85280642D01*
X99438854Y-85458124D01*
X99404230Y-85632195D01*
X99336310Y-85796167D01*
X99237707Y-85943737D01*
X99112208Y-86069236D01*
X98964638Y-86167839D01*
X98800666Y-86235759D01*
X98651366Y-86265456D01*
X98626596Y-86270383D01*
X98449112Y-86270383D01*
X98424342Y-86265456D01*
X98275042Y-86235759D01*
X98111070Y-86167839D01*
X97963500Y-86069236D01*
X97838001Y-85943737D01*
X97739398Y-85796167D01*
X97671478Y-85632195D01*
X97636854Y-85458124D01*
X97636854Y-85280642D01*
X97671478Y-85106571D01*
X97739398Y-84942599D01*
X97838001Y-84795029D01*
X97963500Y-84669530D01*
X98111070Y-84570927D01*
X98275042Y-84503007D01*
X98424342Y-84473310D01*
X98449112Y-84468383D01*
X98626596Y-84468383D01*
X98651366Y-84473310D01*
G37*
G36*
X96111366Y-84473310D02*
G01*
X96260666Y-84503007D01*
X96424638Y-84570927D01*
X96572208Y-84669530D01*
X96697707Y-84795029D01*
X96796310Y-84942599D01*
X96864230Y-85106571D01*
X96898854Y-85280642D01*
X96898854Y-85458124D01*
X96864230Y-85632195D01*
X96796310Y-85796167D01*
X96697707Y-85943737D01*
X96572208Y-86069236D01*
X96424638Y-86167839D01*
X96260666Y-86235759D01*
X96111366Y-86265456D01*
X96086596Y-86270383D01*
X95909112Y-86270383D01*
X95884342Y-86265456D01*
X95735042Y-86235759D01*
X95571070Y-86167839D01*
X95423500Y-86069236D01*
X95298001Y-85943737D01*
X95199398Y-85796167D01*
X95131478Y-85632195D01*
X95096854Y-85458124D01*
X95096854Y-85280642D01*
X95131478Y-85106571D01*
X95199398Y-84942599D01*
X95298001Y-84795029D01*
X95423500Y-84669530D01*
X95571070Y-84570927D01*
X95735042Y-84503007D01*
X95884342Y-84473310D01*
X95909112Y-84468383D01*
X96086596Y-84468383D01*
X96111366Y-84473310D01*
G37*
G36*
X93571366Y-84473310D02*
G01*
X93720666Y-84503007D01*
X93884638Y-84570927D01*
X94032208Y-84669530D01*
X94157707Y-84795029D01*
X94256310Y-84942599D01*
X94324230Y-85106571D01*
X94358854Y-85280642D01*
X94358854Y-85458124D01*
X94324230Y-85632195D01*
X94256310Y-85796167D01*
X94157707Y-85943737D01*
X94032208Y-86069236D01*
X93884638Y-86167839D01*
X93720666Y-86235759D01*
X93571366Y-86265456D01*
X93546596Y-86270383D01*
X93369112Y-86270383D01*
X93344342Y-86265456D01*
X93195042Y-86235759D01*
X93031070Y-86167839D01*
X92883500Y-86069236D01*
X92758001Y-85943737D01*
X92659398Y-85796167D01*
X92591478Y-85632195D01*
X92556854Y-85458124D01*
X92556854Y-85280642D01*
X92591478Y-85106571D01*
X92659398Y-84942599D01*
X92758001Y-84795029D01*
X92883500Y-84669530D01*
X93031070Y-84570927D01*
X93195042Y-84503007D01*
X93344342Y-84473310D01*
X93369112Y-84468383D01*
X93546596Y-84468383D01*
X93571366Y-84473310D01*
G37*
G36*
X55058854Y-85570383D02*
G01*
X53256854Y-85570383D01*
X53256854Y-83768383D01*
X55058854Y-83768383D01*
X55058854Y-85570383D01*
G37*
G36*
X37664418Y-82858772D02*
G01*
X37855687Y-82937998D01*
X37855689Y-82937999D01*
X38027827Y-83053018D01*
X38174219Y-83199410D01*
X38218626Y-83265869D01*
X38289239Y-83371550D01*
X38368465Y-83562819D01*
X38408854Y-83765867D01*
X38408854Y-83972899D01*
X38368465Y-84175947D01*
X38289239Y-84367216D01*
X38289238Y-84367218D01*
X38174219Y-84539356D01*
X38027827Y-84685748D01*
X37855689Y-84800767D01*
X37855688Y-84800768D01*
X37855687Y-84800768D01*
X37664418Y-84879994D01*
X37461370Y-84920383D01*
X37254338Y-84920383D01*
X37051290Y-84879994D01*
X36860021Y-84800768D01*
X36860020Y-84800768D01*
X36860019Y-84800767D01*
X36687881Y-84685748D01*
X36541489Y-84539356D01*
X36426470Y-84367218D01*
X36426469Y-84367216D01*
X36347243Y-84175947D01*
X36306854Y-83972899D01*
X36306854Y-83765867D01*
X36347243Y-83562819D01*
X36426469Y-83371550D01*
X36497083Y-83265869D01*
X36541489Y-83199410D01*
X36687881Y-83053018D01*
X36860019Y-82937999D01*
X36860021Y-82937998D01*
X37051290Y-82858772D01*
X37254338Y-82818383D01*
X37461370Y-82818383D01*
X37664418Y-82858772D01*
G37*
G36*
X31164418Y-82858772D02*
G01*
X31355687Y-82937998D01*
X31355689Y-82937999D01*
X31527827Y-83053018D01*
X31674219Y-83199410D01*
X31718626Y-83265869D01*
X31789239Y-83371550D01*
X31868465Y-83562819D01*
X31908854Y-83765867D01*
X31908854Y-83972899D01*
X31868465Y-84175947D01*
X31789239Y-84367216D01*
X31789238Y-84367218D01*
X31674219Y-84539356D01*
X31527827Y-84685748D01*
X31355689Y-84800767D01*
X31355688Y-84800768D01*
X31355687Y-84800768D01*
X31164418Y-84879994D01*
X30961370Y-84920383D01*
X30754338Y-84920383D01*
X30551290Y-84879994D01*
X30360021Y-84800768D01*
X30360020Y-84800768D01*
X30360019Y-84800767D01*
X30187881Y-84685748D01*
X30041489Y-84539356D01*
X29926470Y-84367218D01*
X29926469Y-84367216D01*
X29847243Y-84175947D01*
X29806854Y-83972899D01*
X29806854Y-83765867D01*
X29847243Y-83562819D01*
X29926469Y-83371550D01*
X29997083Y-83265869D01*
X30041489Y-83199410D01*
X30187881Y-83053018D01*
X30360019Y-82937999D01*
X30360021Y-82937998D01*
X30551290Y-82858772D01*
X30754338Y-82818383D01*
X30961370Y-82818383D01*
X31164418Y-82858772D01*
G37*
G36*
X138664418Y-82358772D02*
G01*
X138855687Y-82437998D01*
X138855689Y-82437999D01*
X139027827Y-82553018D01*
X139174219Y-82699410D01*
X139289239Y-82871550D01*
X139368465Y-83062819D01*
X139408854Y-83265867D01*
X139408854Y-83472899D01*
X139368465Y-83675947D01*
X139309466Y-83818383D01*
X139289238Y-83867218D01*
X139174219Y-84039356D01*
X139027827Y-84185748D01*
X138855689Y-84300767D01*
X138855688Y-84300768D01*
X138855687Y-84300768D01*
X138664418Y-84379994D01*
X138461370Y-84420383D01*
X138254338Y-84420383D01*
X138051290Y-84379994D01*
X137860021Y-84300768D01*
X137860020Y-84300768D01*
X137860019Y-84300767D01*
X137687881Y-84185748D01*
X137541489Y-84039356D01*
X137426470Y-83867218D01*
X137406242Y-83818383D01*
X137347243Y-83675947D01*
X137306854Y-83472899D01*
X137306854Y-83265867D01*
X137347243Y-83062819D01*
X137426469Y-82871550D01*
X137541489Y-82699410D01*
X137687881Y-82553018D01*
X137860019Y-82437999D01*
X137860021Y-82437998D01*
X138051290Y-82358772D01*
X138254338Y-82318383D01*
X138461370Y-82318383D01*
X138664418Y-82358772D01*
G37*
G36*
X132164418Y-82358772D02*
G01*
X132355687Y-82437998D01*
X132355689Y-82437999D01*
X132527827Y-82553018D01*
X132674219Y-82699410D01*
X132789239Y-82871550D01*
X132868465Y-83062819D01*
X132908854Y-83265867D01*
X132908854Y-83472899D01*
X132868465Y-83675947D01*
X132809466Y-83818383D01*
X132789238Y-83867218D01*
X132674219Y-84039356D01*
X132527827Y-84185748D01*
X132355689Y-84300767D01*
X132355688Y-84300768D01*
X132355687Y-84300768D01*
X132164418Y-84379994D01*
X131961370Y-84420383D01*
X131754338Y-84420383D01*
X131551290Y-84379994D01*
X131360021Y-84300768D01*
X131360020Y-84300768D01*
X131360019Y-84300767D01*
X131187881Y-84185748D01*
X131041489Y-84039356D01*
X130926470Y-83867218D01*
X130906242Y-83818383D01*
X130847243Y-83675947D01*
X130806854Y-83472899D01*
X130806854Y-83265867D01*
X130847243Y-83062819D01*
X130926469Y-82871550D01*
X131041489Y-82699410D01*
X131187881Y-82553018D01*
X131360019Y-82437999D01*
X131360021Y-82437998D01*
X131551290Y-82358772D01*
X131754338Y-82318383D01*
X131961370Y-82318383D01*
X132164418Y-82358772D01*
G37*
G36*
X59471366Y-80273310D02*
G01*
X59620666Y-80303007D01*
X59784638Y-80370927D01*
X59932208Y-80469530D01*
X60057707Y-80595029D01*
X60156310Y-80742599D01*
X60224230Y-80906571D01*
X60258854Y-81080642D01*
X60258854Y-81258124D01*
X60224230Y-81432195D01*
X60156310Y-81596167D01*
X60057707Y-81743737D01*
X59932208Y-81869236D01*
X59784638Y-81967839D01*
X59620666Y-82035759D01*
X59471366Y-82065456D01*
X59446596Y-82070383D01*
X59269112Y-82070383D01*
X59244342Y-82065456D01*
X59095042Y-82035759D01*
X58931070Y-81967839D01*
X58783500Y-81869236D01*
X58658001Y-81743737D01*
X58559398Y-81596167D01*
X58491478Y-81432195D01*
X58456854Y-81258124D01*
X58456854Y-81080642D01*
X58491478Y-80906571D01*
X58559398Y-80742599D01*
X58658001Y-80595029D01*
X58783500Y-80469530D01*
X58931070Y-80370927D01*
X59095042Y-80303007D01*
X59244342Y-80273310D01*
X59269112Y-80268383D01*
X59446596Y-80268383D01*
X59471366Y-80273310D01*
G37*
G36*
X37664418Y-78358772D02*
G01*
X37855687Y-78437998D01*
X37855689Y-78437999D01*
X37875275Y-78451086D01*
X38027827Y-78553018D01*
X38174219Y-78699410D01*
X38289239Y-78871550D01*
X38368465Y-79062819D01*
X38408854Y-79265867D01*
X38408854Y-79472899D01*
X38368465Y-79675947D01*
X38312167Y-79811863D01*
X38289238Y-79867218D01*
X38174219Y-80039356D01*
X38027827Y-80185748D01*
X37855689Y-80300767D01*
X37855688Y-80300768D01*
X37855687Y-80300768D01*
X37664418Y-80379994D01*
X37461370Y-80420383D01*
X37254338Y-80420383D01*
X37051290Y-80379994D01*
X36860021Y-80300768D01*
X36860020Y-80300768D01*
X36860019Y-80300767D01*
X36687881Y-80185748D01*
X36541489Y-80039356D01*
X36426470Y-79867218D01*
X36403541Y-79811863D01*
X36347243Y-79675947D01*
X36306854Y-79472899D01*
X36306854Y-79265867D01*
X36347243Y-79062819D01*
X36426469Y-78871550D01*
X36541489Y-78699410D01*
X36687881Y-78553018D01*
X36840433Y-78451086D01*
X36860019Y-78437999D01*
X36860021Y-78437998D01*
X37051290Y-78358772D01*
X37254338Y-78318383D01*
X37461370Y-78318383D01*
X37664418Y-78358772D01*
G37*
G36*
X31164418Y-78358772D02*
G01*
X31355687Y-78437998D01*
X31355689Y-78437999D01*
X31375275Y-78451086D01*
X31527827Y-78553018D01*
X31674219Y-78699410D01*
X31789239Y-78871550D01*
X31868465Y-79062819D01*
X31908854Y-79265867D01*
X31908854Y-79472899D01*
X31868465Y-79675947D01*
X31812167Y-79811863D01*
X31789238Y-79867218D01*
X31674219Y-80039356D01*
X31527827Y-80185748D01*
X31355689Y-80300767D01*
X31355688Y-80300768D01*
X31355687Y-80300768D01*
X31164418Y-80379994D01*
X30961370Y-80420383D01*
X30754338Y-80420383D01*
X30551290Y-80379994D01*
X30360021Y-80300768D01*
X30360020Y-80300768D01*
X30360019Y-80300767D01*
X30187881Y-80185748D01*
X30041489Y-80039356D01*
X29926470Y-79867218D01*
X29903541Y-79811863D01*
X29847243Y-79675947D01*
X29806854Y-79472899D01*
X29806854Y-79265867D01*
X29847243Y-79062819D01*
X29926469Y-78871550D01*
X30041489Y-78699410D01*
X30187881Y-78553018D01*
X30340433Y-78451086D01*
X30360019Y-78437999D01*
X30360021Y-78437998D01*
X30551290Y-78358772D01*
X30754338Y-78318383D01*
X30961370Y-78318383D01*
X31164418Y-78358772D01*
G37*
G36*
X48206082Y-78451086D02*
G01*
X48360954Y-78515236D01*
X48500335Y-78608368D01*
X48618869Y-78726902D01*
X48712001Y-78866283D01*
X48776151Y-79021155D01*
X48808854Y-79185567D01*
X48808854Y-79353199D01*
X48776151Y-79517611D01*
X48712001Y-79672483D01*
X48618869Y-79811864D01*
X48500335Y-79930398D01*
X48360954Y-80023530D01*
X48206082Y-80087680D01*
X48041670Y-80120383D01*
X47874038Y-80120383D01*
X47709626Y-80087680D01*
X47554754Y-80023530D01*
X47415373Y-79930398D01*
X47296839Y-79811864D01*
X47203707Y-79672483D01*
X47139557Y-79517611D01*
X47106854Y-79353199D01*
X47106854Y-79185567D01*
X47139557Y-79021155D01*
X47203707Y-78866283D01*
X47296839Y-78726902D01*
X47415373Y-78608368D01*
X47554754Y-78515236D01*
X47709626Y-78451086D01*
X47874038Y-78418383D01*
X48041670Y-78418383D01*
X48206082Y-78451086D01*
G37*
G36*
X48808854Y-78120383D02*
G01*
X47106854Y-78120383D01*
X47106854Y-76418383D01*
X48808854Y-76418383D01*
X48808854Y-78120383D01*
G37*
G36*
X31164418Y-68358772D02*
G01*
X31355687Y-68437998D01*
X31355689Y-68437999D01*
X31527827Y-68553018D01*
X31674219Y-68699410D01*
X31768756Y-68840894D01*
X31789239Y-68871550D01*
X31868465Y-69062819D01*
X31908854Y-69265867D01*
X31908854Y-69472899D01*
X31868465Y-69675947D01*
X31799864Y-69841564D01*
X31789238Y-69867218D01*
X31674219Y-70039356D01*
X31527827Y-70185748D01*
X31355689Y-70300767D01*
X31355688Y-70300768D01*
X31355687Y-70300768D01*
X31164418Y-70379994D01*
X30961370Y-70420383D01*
X30754338Y-70420383D01*
X30551290Y-70379994D01*
X30360021Y-70300768D01*
X30360020Y-70300768D01*
X30360019Y-70300767D01*
X30187881Y-70185748D01*
X30041489Y-70039356D01*
X29926470Y-69867218D01*
X29915844Y-69841564D01*
X29847243Y-69675947D01*
X29806854Y-69472899D01*
X29806854Y-69265867D01*
X29847243Y-69062819D01*
X29926469Y-68871550D01*
X29946953Y-68840894D01*
X30041489Y-68699410D01*
X30187881Y-68553018D01*
X30360019Y-68437999D01*
X30360021Y-68437998D01*
X30551290Y-68358772D01*
X30754338Y-68318383D01*
X30961370Y-68318383D01*
X31164418Y-68358772D01*
G37*
G36*
X37664418Y-68358772D02*
G01*
X37855687Y-68437998D01*
X37855689Y-68437999D01*
X38027827Y-68553018D01*
X38174219Y-68699410D01*
X38268756Y-68840894D01*
X38289239Y-68871550D01*
X38368465Y-69062819D01*
X38408854Y-69265867D01*
X38408854Y-69472899D01*
X38368465Y-69675947D01*
X38299864Y-69841564D01*
X38289238Y-69867218D01*
X38174219Y-70039356D01*
X38027827Y-70185748D01*
X37855689Y-70300767D01*
X37855688Y-70300768D01*
X37855687Y-70300768D01*
X37664418Y-70379994D01*
X37461370Y-70420383D01*
X37254338Y-70420383D01*
X37051290Y-70379994D01*
X36860021Y-70300768D01*
X36860020Y-70300768D01*
X36860019Y-70300767D01*
X36687881Y-70185748D01*
X36541489Y-70039356D01*
X36426470Y-69867218D01*
X36415844Y-69841564D01*
X36347243Y-69675947D01*
X36306854Y-69472899D01*
X36306854Y-69265867D01*
X36347243Y-69062819D01*
X36426469Y-68871550D01*
X36446953Y-68840894D01*
X36541489Y-68699410D01*
X36687881Y-68553018D01*
X36860019Y-68437999D01*
X36860021Y-68437998D01*
X37051290Y-68358772D01*
X37254338Y-68318383D01*
X37461370Y-68318383D01*
X37664418Y-68358772D01*
G37*
G36*
X124456108Y-65897201D02*
G01*
X124829365Y-66051809D01*
X124829367Y-66051810D01*
X125165290Y-66276267D01*
X125450970Y-66561947D01*
X125675428Y-66897872D01*
X125830036Y-67271129D01*
X125908854Y-67667376D01*
X125908854Y-68071390D01*
X125830036Y-68467637D01*
X125675428Y-68840894D01*
X125675427Y-68840896D01*
X125450970Y-69176819D01*
X125165290Y-69462499D01*
X124829367Y-69686956D01*
X124829366Y-69686957D01*
X124829365Y-69686957D01*
X124456108Y-69841565D01*
X124059861Y-69920383D01*
X123655847Y-69920383D01*
X123259600Y-69841565D01*
X122886343Y-69686957D01*
X122886342Y-69686957D01*
X122886341Y-69686956D01*
X122550418Y-69462499D01*
X122264738Y-69176819D01*
X122040281Y-68840896D01*
X122040280Y-68840894D01*
X121885672Y-68467637D01*
X121806854Y-68071390D01*
X121806854Y-67667376D01*
X121885672Y-67271129D01*
X122040280Y-66897872D01*
X122264738Y-66561947D01*
X122550418Y-66276267D01*
X122886341Y-66051810D01*
X122886343Y-66051809D01*
X123259600Y-65897201D01*
X123655847Y-65818383D01*
X124059861Y-65818383D01*
X124456108Y-65897201D01*
G37*
G36*
X49456108Y-65897201D02*
G01*
X49829365Y-66051809D01*
X49829367Y-66051810D01*
X50165290Y-66276267D01*
X50450970Y-66561947D01*
X50675428Y-66897872D01*
X50830036Y-67271129D01*
X50908854Y-67667376D01*
X50908854Y-68071390D01*
X50830036Y-68467637D01*
X50675428Y-68840894D01*
X50675427Y-68840896D01*
X50450970Y-69176819D01*
X50165290Y-69462499D01*
X49829367Y-69686956D01*
X49829366Y-69686957D01*
X49829365Y-69686957D01*
X49456108Y-69841565D01*
X49059861Y-69920383D01*
X48655847Y-69920383D01*
X48259600Y-69841565D01*
X47886343Y-69686957D01*
X47886342Y-69686957D01*
X47886341Y-69686956D01*
X47550418Y-69462499D01*
X47264738Y-69176819D01*
X47040281Y-68840896D01*
X47040280Y-68840894D01*
X46885672Y-68467637D01*
X46806854Y-68071390D01*
X46806854Y-67667376D01*
X46885672Y-67271129D01*
X47040280Y-66897872D01*
X47264738Y-66561947D01*
X47550418Y-66276267D01*
X47886341Y-66051810D01*
X47886343Y-66051809D01*
X48259600Y-65897201D01*
X48655847Y-65818383D01*
X49059861Y-65818383D01*
X49456108Y-65897201D01*
G37*
G36*
X37664418Y-63858772D02*
G01*
X37855687Y-63937998D01*
X37855689Y-63937999D01*
X38027827Y-64053018D01*
X38174219Y-64199410D01*
X38289239Y-64371550D01*
X38368465Y-64562819D01*
X38408854Y-64765867D01*
X38408854Y-64972899D01*
X38368465Y-65175947D01*
X38289239Y-65367216D01*
X38289238Y-65367218D01*
X38174219Y-65539356D01*
X38027827Y-65685748D01*
X37855689Y-65800767D01*
X37855688Y-65800768D01*
X37855687Y-65800768D01*
X37664418Y-65879994D01*
X37461370Y-65920383D01*
X37254338Y-65920383D01*
X37051290Y-65879994D01*
X36860021Y-65800768D01*
X36860020Y-65800768D01*
X36860019Y-65800767D01*
X36687881Y-65685748D01*
X36541489Y-65539356D01*
X36426470Y-65367218D01*
X36426469Y-65367216D01*
X36347243Y-65175947D01*
X36306854Y-64972899D01*
X36306854Y-64765867D01*
X36347243Y-64562819D01*
X36426469Y-64371550D01*
X36541489Y-64199410D01*
X36687881Y-64053018D01*
X36860019Y-63937999D01*
X36860021Y-63937998D01*
X37051290Y-63858772D01*
X37254338Y-63818383D01*
X37461370Y-63818383D01*
X37664418Y-63858772D01*
G37*
G36*
X31164418Y-63858772D02*
G01*
X31355687Y-63937998D01*
X31355689Y-63937999D01*
X31527827Y-64053018D01*
X31674219Y-64199410D01*
X31789239Y-64371550D01*
X31868465Y-64562819D01*
X31908854Y-64765867D01*
X31908854Y-64972899D01*
X31868465Y-65175947D01*
X31789239Y-65367216D01*
X31789238Y-65367218D01*
X31674219Y-65539356D01*
X31527827Y-65685748D01*
X31355689Y-65800767D01*
X31355688Y-65800768D01*
X31355687Y-65800768D01*
X31164418Y-65879994D01*
X30961370Y-65920383D01*
X30754338Y-65920383D01*
X30551290Y-65879994D01*
X30360021Y-65800768D01*
X30360020Y-65800768D01*
X30360019Y-65800767D01*
X30187881Y-65685748D01*
X30041489Y-65539356D01*
X29926470Y-65367218D01*
X29926469Y-65367216D01*
X29847243Y-65175947D01*
X29806854Y-64972899D01*
X29806854Y-64765867D01*
X29847243Y-64562819D01*
X29926469Y-64371550D01*
X30041489Y-64199410D01*
X30187881Y-64053018D01*
X30360019Y-63937999D01*
X30360021Y-63937998D01*
X30551290Y-63858772D01*
X30754338Y-63818383D01*
X30961370Y-63818383D01*
X31164418Y-63858772D01*
G37*
G36*
X145454518Y-61858772D02*
G01*
X145645787Y-61937998D01*
X145645789Y-61937999D01*
X145817927Y-62053018D01*
X145964319Y-62199410D01*
X146079339Y-62371550D01*
X146158565Y-62562819D01*
X146198954Y-62765867D01*
X146198954Y-62972899D01*
X146158565Y-63175947D01*
X146079339Y-63367216D01*
X146079338Y-63367218D01*
X145964319Y-63539356D01*
X145817927Y-63685748D01*
X145645789Y-63800767D01*
X145645788Y-63800768D01*
X145645787Y-63800768D01*
X145454518Y-63879994D01*
X145251470Y-63920383D01*
X145044438Y-63920383D01*
X144841390Y-63879994D01*
X144650121Y-63800768D01*
X144650120Y-63800768D01*
X144650119Y-63800767D01*
X144477981Y-63685748D01*
X144331589Y-63539356D01*
X144216570Y-63367218D01*
X144216569Y-63367216D01*
X144137343Y-63175947D01*
X144096954Y-62972899D01*
X144096954Y-62765867D01*
X144137343Y-62562819D01*
X144216569Y-62371550D01*
X144331589Y-62199410D01*
X144477981Y-62053018D01*
X144650119Y-61937999D01*
X144650121Y-61937998D01*
X144841390Y-61858772D01*
X145044438Y-61818383D01*
X145251470Y-61818383D01*
X145454518Y-61858772D01*
G37*
G36*
X138954518Y-61858772D02*
G01*
X139145787Y-61937998D01*
X139145789Y-61937999D01*
X139317927Y-62053018D01*
X139464319Y-62199410D01*
X139579339Y-62371550D01*
X139658565Y-62562819D01*
X139698954Y-62765867D01*
X139698954Y-62972899D01*
X139658565Y-63175947D01*
X139579339Y-63367216D01*
X139579338Y-63367218D01*
X139464319Y-63539356D01*
X139317927Y-63685748D01*
X139145789Y-63800767D01*
X139145788Y-63800768D01*
X139145787Y-63800768D01*
X138954518Y-63879994D01*
X138751470Y-63920383D01*
X138544438Y-63920383D01*
X138341390Y-63879994D01*
X138150121Y-63800768D01*
X138150120Y-63800768D01*
X138150119Y-63800767D01*
X137977981Y-63685748D01*
X137831589Y-63539356D01*
X137716570Y-63367218D01*
X137716569Y-63367216D01*
X137637343Y-63175947D01*
X137596954Y-62972899D01*
X137596954Y-62765867D01*
X137637343Y-62562819D01*
X137716569Y-62371550D01*
X137831589Y-62199410D01*
X137977981Y-62053018D01*
X138150119Y-61937999D01*
X138150121Y-61937998D01*
X138341390Y-61858772D01*
X138544438Y-61818383D01*
X138751470Y-61818383D01*
X138954518Y-61858772D01*
G37*
G36*
X145454518Y-57358772D02*
G01*
X145599721Y-57418917D01*
X145645789Y-57437999D01*
X145728162Y-57493039D01*
X145817927Y-57553018D01*
X145964319Y-57699410D01*
X146079339Y-57871550D01*
X146158565Y-58062819D01*
X146198954Y-58265867D01*
X146198954Y-58472899D01*
X146158565Y-58675947D01*
X146098738Y-58820383D01*
X146079338Y-58867218D01*
X145964319Y-59039356D01*
X145817927Y-59185748D01*
X145645789Y-59300767D01*
X145645788Y-59300768D01*
X145645787Y-59300768D01*
X145454518Y-59379994D01*
X145251470Y-59420383D01*
X145044438Y-59420383D01*
X144841390Y-59379994D01*
X144650121Y-59300768D01*
X144650120Y-59300768D01*
X144650119Y-59300767D01*
X144477981Y-59185748D01*
X144331589Y-59039356D01*
X144216570Y-58867218D01*
X144197170Y-58820383D01*
X144137343Y-58675947D01*
X144096954Y-58472899D01*
X144096954Y-58265867D01*
X144137343Y-58062819D01*
X144216569Y-57871550D01*
X144331589Y-57699410D01*
X144477981Y-57553018D01*
X144567746Y-57493039D01*
X144650119Y-57437999D01*
X144696187Y-57418917D01*
X144841390Y-57358772D01*
X145044438Y-57318383D01*
X145251470Y-57318383D01*
X145454518Y-57358772D01*
G37*
G36*
X138954518Y-57358772D02*
G01*
X139099721Y-57418917D01*
X139145789Y-57437999D01*
X139228162Y-57493039D01*
X139317927Y-57553018D01*
X139464319Y-57699410D01*
X139579339Y-57871550D01*
X139658565Y-58062819D01*
X139698954Y-58265867D01*
X139698954Y-58472899D01*
X139658565Y-58675947D01*
X139598738Y-58820383D01*
X139579338Y-58867218D01*
X139464319Y-59039356D01*
X139317927Y-59185748D01*
X139145789Y-59300767D01*
X139145788Y-59300768D01*
X139145787Y-59300768D01*
X138954518Y-59379994D01*
X138751470Y-59420383D01*
X138544438Y-59420383D01*
X138341390Y-59379994D01*
X138150121Y-59300768D01*
X138150120Y-59300768D01*
X138150119Y-59300767D01*
X137977981Y-59185748D01*
X137831589Y-59039356D01*
X137716570Y-58867218D01*
X137697170Y-58820383D01*
X137637343Y-58675947D01*
X137596954Y-58472899D01*
X137596954Y-58265867D01*
X137637343Y-58062819D01*
X137716569Y-57871550D01*
X137831589Y-57699410D01*
X137977981Y-57553018D01*
X138067746Y-57493039D01*
X138150119Y-57437999D01*
X138196187Y-57418917D01*
X138341390Y-57358772D01*
X138544438Y-57318383D01*
X138751470Y-57318383D01*
X138954518Y-57358772D01*
G37*
G36*
X33808854Y-58820383D02*
G01*
X31906854Y-58820383D01*
X31906854Y-56918383D01*
X33808854Y-56918383D01*
X33808854Y-58820383D01*
G37*
G36*
X35675249Y-56954929D02*
G01*
X35848320Y-57026617D01*
X35848321Y-57026618D01*
X36004081Y-57130693D01*
X36136544Y-57263156D01*
X36173445Y-57318383D01*
X36240620Y-57418917D01*
X36312308Y-57591988D01*
X36348854Y-57775716D01*
X36348854Y-57963050D01*
X36312308Y-58146778D01*
X36240620Y-58319849D01*
X36240619Y-58319850D01*
X36136544Y-58475610D01*
X36004081Y-58608073D01*
X35925672Y-58660464D01*
X35848320Y-58712149D01*
X35675249Y-58783837D01*
X35491521Y-58820383D01*
X35304187Y-58820383D01*
X35120459Y-58783837D01*
X34947388Y-58712149D01*
X34870036Y-58660464D01*
X34791627Y-58608073D01*
X34659164Y-58475610D01*
X34555089Y-58319850D01*
X34555088Y-58319849D01*
X34483400Y-58146778D01*
X34446854Y-57963050D01*
X34446854Y-57775716D01*
X34483400Y-57591988D01*
X34555088Y-57418917D01*
X34622263Y-57318383D01*
X34659164Y-57263156D01*
X34791627Y-57130693D01*
X34947387Y-57026618D01*
X34947388Y-57026617D01*
X35120459Y-56954929D01*
X35304187Y-56918383D01*
X35491521Y-56918383D01*
X35675249Y-56954929D01*
G37*
G36*
X115106446Y-55798510D02*
G01*
X115255746Y-55828207D01*
X115419718Y-55896127D01*
X115567288Y-55994730D01*
X115692787Y-56120229D01*
X115791390Y-56267799D01*
X115859310Y-56431771D01*
X115893934Y-56605842D01*
X115893934Y-56783324D01*
X115859310Y-56957395D01*
X115791390Y-57121367D01*
X115692787Y-57268937D01*
X115567288Y-57394436D01*
X115419718Y-57493039D01*
X115255746Y-57560959D01*
X115106446Y-57590656D01*
X115081676Y-57595583D01*
X114904192Y-57595583D01*
X114879422Y-57590656D01*
X114730122Y-57560959D01*
X114566150Y-57493039D01*
X114418580Y-57394436D01*
X114293081Y-57268937D01*
X114194478Y-57121367D01*
X114126558Y-56957395D01*
X114091934Y-56783324D01*
X114091934Y-56605842D01*
X114126558Y-56431771D01*
X114194478Y-56267799D01*
X114293081Y-56120229D01*
X114418580Y-55994730D01*
X114566150Y-55896127D01*
X114730122Y-55828207D01*
X114879422Y-55798510D01*
X114904192Y-55793583D01*
X115081676Y-55793583D01*
X115106446Y-55798510D01*
G37*
G36*
X117646446Y-55798510D02*
G01*
X117795746Y-55828207D01*
X117959718Y-55896127D01*
X118107288Y-55994730D01*
X118232787Y-56120229D01*
X118331390Y-56267799D01*
X118399310Y-56431771D01*
X118433934Y-56605842D01*
X118433934Y-56783324D01*
X118399310Y-56957395D01*
X118331390Y-57121367D01*
X118232787Y-57268937D01*
X118107288Y-57394436D01*
X117959718Y-57493039D01*
X117795746Y-57560959D01*
X117646446Y-57590656D01*
X117621676Y-57595583D01*
X117444192Y-57595583D01*
X117419422Y-57590656D01*
X117270122Y-57560959D01*
X117106150Y-57493039D01*
X116958580Y-57394436D01*
X116833081Y-57268937D01*
X116734478Y-57121367D01*
X116666558Y-56957395D01*
X116631934Y-56783324D01*
X116631934Y-56605842D01*
X116666558Y-56431771D01*
X116734478Y-56267799D01*
X116833081Y-56120229D01*
X116958580Y-55994730D01*
X117106150Y-55896127D01*
X117270122Y-55828207D01*
X117419422Y-55798510D01*
X117444192Y-55793583D01*
X117621676Y-55793583D01*
X117646446Y-55798510D01*
G37*
G36*
X113353934Y-57595583D02*
G01*
X111551934Y-57595583D01*
X111551934Y-55793583D01*
X113353934Y-55793583D01*
X113353934Y-57595583D01*
G37*
G36*
X33821366Y-52673310D02*
G01*
X33970666Y-52703007D01*
X34134638Y-52770927D01*
X34282208Y-52869530D01*
X34407707Y-52995029D01*
X34506310Y-53142599D01*
X34574230Y-53306571D01*
X34608854Y-53480642D01*
X34608854Y-53658124D01*
X34574230Y-53832195D01*
X34506310Y-53996167D01*
X34407707Y-54143737D01*
X34282208Y-54269236D01*
X34134638Y-54367839D01*
X33970666Y-54435759D01*
X33821366Y-54465456D01*
X33796596Y-54470383D01*
X33619112Y-54470383D01*
X33594342Y-54465456D01*
X33445042Y-54435759D01*
X33281070Y-54367839D01*
X33133500Y-54269236D01*
X33008001Y-54143737D01*
X32909398Y-53996167D01*
X32841478Y-53832195D01*
X32806854Y-53658124D01*
X32806854Y-53480642D01*
X32841478Y-53306571D01*
X32909398Y-53142599D01*
X33008001Y-52995029D01*
X33133500Y-52869530D01*
X33281070Y-52770927D01*
X33445042Y-52703007D01*
X33594342Y-52673310D01*
X33619112Y-52668383D01*
X33796596Y-52668383D01*
X33821366Y-52673310D01*
G37*
G36*
X64651974Y-53683983D02*
G01*
X62849974Y-53683983D01*
X62849974Y-51881983D01*
X64651974Y-51881983D01*
X64651974Y-53683983D01*
G37*
G36*
X52967974Y-53683983D02*
G01*
X51165974Y-53683983D01*
X51165974Y-51881983D01*
X52967974Y-51881983D01*
X52967974Y-53683983D01*
G37*
G36*
X33821366Y-50133310D02*
G01*
X33970666Y-50163007D01*
X34134638Y-50230927D01*
X34282208Y-50329530D01*
X34407707Y-50455029D01*
X34506310Y-50602599D01*
X34574230Y-50766571D01*
X34608854Y-50940642D01*
X34608854Y-51118124D01*
X34574230Y-51292195D01*
X34506310Y-51456167D01*
X34407707Y-51603737D01*
X34282208Y-51729236D01*
X34134638Y-51827839D01*
X33970666Y-51895759D01*
X33821366Y-51925456D01*
X33796596Y-51930383D01*
X33619112Y-51930383D01*
X33594342Y-51925456D01*
X33445042Y-51895759D01*
X33281070Y-51827839D01*
X33133500Y-51729236D01*
X33008001Y-51603737D01*
X32909398Y-51456167D01*
X32841478Y-51292195D01*
X32806854Y-51118124D01*
X32806854Y-50940642D01*
X32841478Y-50766571D01*
X32909398Y-50602599D01*
X33008001Y-50455029D01*
X33133500Y-50329530D01*
X33281070Y-50230927D01*
X33445042Y-50163007D01*
X33594342Y-50133310D01*
X33619112Y-50128383D01*
X33796596Y-50128383D01*
X33821366Y-50133310D01*
G37*
G36*
X128113512Y-49723927D02*
G01*
X128262812Y-49753624D01*
X128426784Y-49821544D01*
X128574354Y-49920147D01*
X128699853Y-50045646D01*
X128798456Y-50193216D01*
X128866376Y-50357188D01*
X128901000Y-50531259D01*
X128901000Y-50708741D01*
X128866376Y-50882812D01*
X128798456Y-51046784D01*
X128699853Y-51194354D01*
X128574354Y-51319853D01*
X128426784Y-51418456D01*
X128262812Y-51486376D01*
X128113512Y-51516073D01*
X128088742Y-51521000D01*
X127911258Y-51521000D01*
X127886488Y-51516073D01*
X127737188Y-51486376D01*
X127573216Y-51418456D01*
X127425646Y-51319853D01*
X127300147Y-51194354D01*
X127201544Y-51046784D01*
X127133624Y-50882812D01*
X127099000Y-50708741D01*
X127099000Y-50531259D01*
X127133624Y-50357188D01*
X127201544Y-50193216D01*
X127300147Y-50045646D01*
X127425646Y-49920147D01*
X127573216Y-49821544D01*
X127737188Y-49753624D01*
X127886488Y-49723927D01*
X127911258Y-49719000D01*
X128088742Y-49719000D01*
X128113512Y-49723927D01*
G37*
G36*
X73113519Y-49108005D02*
G01*
X73187076Y-49115250D01*
X73328640Y-49158193D01*
X73459106Y-49227929D01*
X73488894Y-49252375D01*
X73573461Y-49321776D01*
X73629764Y-49390383D01*
X73667308Y-49436131D01*
X73737044Y-49566597D01*
X73779987Y-49708161D01*
X73794487Y-49855383D01*
X73779987Y-50002605D01*
X73737044Y-50144169D01*
X73667308Y-50274635D01*
X73642862Y-50304423D01*
X73573461Y-50388990D01*
X73492990Y-50455029D01*
X73459106Y-50482837D01*
X73328640Y-50552573D01*
X73187076Y-50595516D01*
X73115161Y-50602599D01*
X73076742Y-50606383D01*
X72802966Y-50606383D01*
X72764547Y-50602599D01*
X72692632Y-50595516D01*
X72551068Y-50552573D01*
X72420602Y-50482837D01*
X72386718Y-50455029D01*
X72306247Y-50388990D01*
X72236846Y-50304423D01*
X72212400Y-50274635D01*
X72142664Y-50144169D01*
X72099721Y-50002605D01*
X72085221Y-49855383D01*
X72099721Y-49708161D01*
X72142664Y-49566597D01*
X72212400Y-49436131D01*
X72249944Y-49390383D01*
X72306247Y-49321776D01*
X72390814Y-49252375D01*
X72420602Y-49227929D01*
X72551068Y-49158193D01*
X72692632Y-49115250D01*
X72766189Y-49108005D01*
X72802966Y-49104383D01*
X73076742Y-49104383D01*
X73113519Y-49108005D01*
G37*
G36*
X105866014Y-49553943D02*
G01*
X104064014Y-49553943D01*
X104064014Y-47751943D01*
X105866014Y-47751943D01*
X105866014Y-49553943D01*
G37*
G36*
X107618526Y-47756870D02*
G01*
X107767826Y-47786567D01*
X107931798Y-47854487D01*
X108079368Y-47953090D01*
X108204867Y-48078589D01*
X108303470Y-48226159D01*
X108371390Y-48390131D01*
X108394593Y-48506784D01*
X108406014Y-48564201D01*
X108406014Y-48741685D01*
X108403923Y-48752195D01*
X108371390Y-48915755D01*
X108303470Y-49079727D01*
X108204867Y-49227297D01*
X108079368Y-49352796D01*
X107931798Y-49451399D01*
X107767826Y-49519319D01*
X107618526Y-49549016D01*
X107593756Y-49553943D01*
X107416272Y-49553943D01*
X107391502Y-49549016D01*
X107242202Y-49519319D01*
X107078230Y-49451399D01*
X106930660Y-49352796D01*
X106805161Y-49227297D01*
X106706558Y-49079727D01*
X106638638Y-48915755D01*
X106606105Y-48752195D01*
X106604014Y-48741685D01*
X106604014Y-48564201D01*
X106615435Y-48506784D01*
X106638638Y-48390131D01*
X106706558Y-48226159D01*
X106805161Y-48078589D01*
X106930660Y-47953090D01*
X107078230Y-47854487D01*
X107242202Y-47786567D01*
X107391502Y-47756870D01*
X107416272Y-47751943D01*
X107593756Y-47751943D01*
X107618526Y-47756870D01*
G37*
G36*
X33821366Y-47593310D02*
G01*
X33970666Y-47623007D01*
X34134638Y-47690927D01*
X34282208Y-47789530D01*
X34407707Y-47915029D01*
X34506310Y-48062599D01*
X34574230Y-48226571D01*
X34597351Y-48342811D01*
X34606764Y-48390132D01*
X34608854Y-48400642D01*
X34608854Y-48578124D01*
X34574230Y-48752195D01*
X34506310Y-48916167D01*
X34407707Y-49063737D01*
X34282208Y-49189236D01*
X34134638Y-49287839D01*
X33970666Y-49355759D01*
X33821366Y-49385456D01*
X33796596Y-49390383D01*
X33619112Y-49390383D01*
X33594342Y-49385456D01*
X33445042Y-49355759D01*
X33281070Y-49287839D01*
X33133500Y-49189236D01*
X33008001Y-49063737D01*
X32909398Y-48916167D01*
X32841478Y-48752195D01*
X32806854Y-48578124D01*
X32806854Y-48400642D01*
X32808945Y-48390132D01*
X32818357Y-48342811D01*
X32841478Y-48226571D01*
X32909398Y-48062599D01*
X33008001Y-47915029D01*
X33133500Y-47789530D01*
X33281070Y-47690927D01*
X33445042Y-47623007D01*
X33594342Y-47593310D01*
X33619112Y-47588383D01*
X33796596Y-47588383D01*
X33821366Y-47593310D01*
G37*
G36*
X128113512Y-47183927D02*
G01*
X128262812Y-47213624D01*
X128426784Y-47281544D01*
X128574354Y-47380147D01*
X128699853Y-47505646D01*
X128798456Y-47653216D01*
X128866376Y-47817188D01*
X128885837Y-47915029D01*
X128901000Y-47991258D01*
X128901000Y-48168742D01*
X128896073Y-48193512D01*
X128866376Y-48342812D01*
X128798456Y-48506784D01*
X128699853Y-48654354D01*
X128574354Y-48779853D01*
X128426784Y-48878456D01*
X128262812Y-48946376D01*
X128113512Y-48976073D01*
X128088742Y-48981000D01*
X127911258Y-48981000D01*
X127886488Y-48976073D01*
X127737188Y-48946376D01*
X127573216Y-48878456D01*
X127425646Y-48779853D01*
X127300147Y-48654354D01*
X127201544Y-48506784D01*
X127133624Y-48342812D01*
X127103927Y-48193512D01*
X127099000Y-48168742D01*
X127099000Y-47991258D01*
X127114163Y-47915029D01*
X127133624Y-47817188D01*
X127201544Y-47653216D01*
X127300147Y-47505646D01*
X127425646Y-47380147D01*
X127573216Y-47281544D01*
X127737188Y-47213624D01*
X127886488Y-47183927D01*
X127911258Y-47179000D01*
X128088742Y-47179000D01*
X128113512Y-47183927D01*
G37*
G36*
X145454518Y-46858772D02*
G01*
X145645787Y-46937998D01*
X145645789Y-46937999D01*
X145817927Y-47053018D01*
X145964319Y-47199410D01*
X146045010Y-47320172D01*
X146079339Y-47371550D01*
X146158565Y-47562819D01*
X146198954Y-47765867D01*
X146198954Y-47972899D01*
X146158565Y-48175947D01*
X146114290Y-48282836D01*
X146079338Y-48367218D01*
X145964319Y-48539356D01*
X145817927Y-48685748D01*
X145645789Y-48800767D01*
X145645788Y-48800768D01*
X145645787Y-48800768D01*
X145454518Y-48879994D01*
X145251470Y-48920383D01*
X145044438Y-48920383D01*
X144841390Y-48879994D01*
X144650121Y-48800768D01*
X144650120Y-48800768D01*
X144650119Y-48800767D01*
X144477981Y-48685748D01*
X144331589Y-48539356D01*
X144216570Y-48367218D01*
X144181618Y-48282836D01*
X144137343Y-48175947D01*
X144096954Y-47972899D01*
X144096954Y-47765867D01*
X144137343Y-47562819D01*
X144216569Y-47371550D01*
X144250899Y-47320172D01*
X144331589Y-47199410D01*
X144477981Y-47053018D01*
X144650119Y-46937999D01*
X144650121Y-46937998D01*
X144841390Y-46858772D01*
X145044438Y-46818383D01*
X145251470Y-46818383D01*
X145454518Y-46858772D01*
G37*
G36*
X138954518Y-46858772D02*
G01*
X139145787Y-46937998D01*
X139145789Y-46937999D01*
X139317927Y-47053018D01*
X139464319Y-47199410D01*
X139545010Y-47320172D01*
X139579339Y-47371550D01*
X139658565Y-47562819D01*
X139698954Y-47765867D01*
X139698954Y-47972899D01*
X139658565Y-48175947D01*
X139614290Y-48282836D01*
X139579338Y-48367218D01*
X139464319Y-48539356D01*
X139317927Y-48685748D01*
X139145789Y-48800767D01*
X139145788Y-48800768D01*
X139145787Y-48800768D01*
X138954518Y-48879994D01*
X138751470Y-48920383D01*
X138544438Y-48920383D01*
X138341390Y-48879994D01*
X138150121Y-48800768D01*
X138150120Y-48800768D01*
X138150119Y-48800767D01*
X137977981Y-48685748D01*
X137831589Y-48539356D01*
X137716570Y-48367218D01*
X137681618Y-48282836D01*
X137637343Y-48175947D01*
X137596954Y-47972899D01*
X137596954Y-47765867D01*
X137637343Y-47562819D01*
X137716569Y-47371550D01*
X137750899Y-47320172D01*
X137831589Y-47199410D01*
X137977981Y-47053018D01*
X138150119Y-46937999D01*
X138150121Y-46937998D01*
X138341390Y-46858772D01*
X138544438Y-46818383D01*
X138751470Y-46818383D01*
X138954518Y-46858772D01*
G37*
G36*
X73940854Y-48706383D02*
G01*
X71938854Y-48706383D01*
X71938854Y-47204383D01*
X73940854Y-47204383D01*
X73940854Y-48706383D01*
G37*
G36*
X60364486Y-46686910D02*
G01*
X60513786Y-46716607D01*
X60677758Y-46784527D01*
X60825328Y-46883130D01*
X60950827Y-47008629D01*
X61049430Y-47156199D01*
X61117350Y-47320171D01*
X61151974Y-47494242D01*
X61151974Y-47671724D01*
X61117350Y-47845795D01*
X61049430Y-48009767D01*
X60950827Y-48157337D01*
X60825328Y-48282836D01*
X60677758Y-48381439D01*
X60513786Y-48449359D01*
X60364486Y-48479056D01*
X60339716Y-48483983D01*
X60162232Y-48483983D01*
X60137462Y-48479056D01*
X59988162Y-48449359D01*
X59824190Y-48381439D01*
X59676620Y-48282836D01*
X59551121Y-48157337D01*
X59452518Y-48009767D01*
X59384598Y-47845795D01*
X59349974Y-47671724D01*
X59349974Y-47494242D01*
X59384598Y-47320171D01*
X59452518Y-47156199D01*
X59551121Y-47008629D01*
X59676620Y-46883130D01*
X59824190Y-46784527D01*
X59988162Y-46716607D01*
X60137462Y-46686910D01*
X60162232Y-46681983D01*
X60339716Y-46681983D01*
X60364486Y-46686910D01*
G37*
G36*
X48680486Y-46686910D02*
G01*
X48829786Y-46716607D01*
X48993758Y-46784527D01*
X49141328Y-46883130D01*
X49266827Y-47008629D01*
X49365430Y-47156199D01*
X49433350Y-47320171D01*
X49467974Y-47494242D01*
X49467974Y-47671724D01*
X49433350Y-47845795D01*
X49365430Y-48009767D01*
X49266827Y-48157337D01*
X49141328Y-48282836D01*
X48993758Y-48381439D01*
X48829786Y-48449359D01*
X48680486Y-48479056D01*
X48655716Y-48483983D01*
X48478232Y-48483983D01*
X48453462Y-48479056D01*
X48304162Y-48449359D01*
X48140190Y-48381439D01*
X47992620Y-48282836D01*
X47867121Y-48157337D01*
X47768518Y-48009767D01*
X47700598Y-47845795D01*
X47665974Y-47671724D01*
X47665974Y-47494242D01*
X47700598Y-47320171D01*
X47768518Y-47156199D01*
X47867121Y-47008629D01*
X47992620Y-46883130D01*
X48140190Y-46784527D01*
X48304162Y-46716607D01*
X48453462Y-46686910D01*
X48478232Y-46681983D01*
X48655716Y-46681983D01*
X48680486Y-46686910D01*
G37*
G36*
X33821366Y-45053310D02*
G01*
X33970666Y-45083007D01*
X34134638Y-45150927D01*
X34282208Y-45249530D01*
X34407707Y-45375029D01*
X34506310Y-45522599D01*
X34574230Y-45686571D01*
X34608854Y-45860642D01*
X34608854Y-46038124D01*
X34574230Y-46212195D01*
X34506310Y-46376167D01*
X34407707Y-46523737D01*
X34282208Y-46649236D01*
X34134638Y-46747839D01*
X33970666Y-46815759D01*
X33821366Y-46845456D01*
X33796596Y-46850383D01*
X33619112Y-46850383D01*
X33594342Y-46845456D01*
X33445042Y-46815759D01*
X33281070Y-46747839D01*
X33133500Y-46649236D01*
X33008001Y-46523737D01*
X32909398Y-46376167D01*
X32841478Y-46212195D01*
X32806854Y-46038124D01*
X32806854Y-45860642D01*
X32841478Y-45686571D01*
X32909398Y-45522599D01*
X33008001Y-45375029D01*
X33133500Y-45249530D01*
X33281070Y-45150927D01*
X33445042Y-45083007D01*
X33594342Y-45053310D01*
X33619112Y-45048383D01*
X33796596Y-45048383D01*
X33821366Y-45053310D01*
G37*
G36*
X128113512Y-44643927D02*
G01*
X128262812Y-44673624D01*
X128426784Y-44741544D01*
X128574354Y-44840147D01*
X128699853Y-44965646D01*
X128798456Y-45113216D01*
X128866376Y-45277188D01*
X128901000Y-45451259D01*
X128901000Y-45628741D01*
X128866376Y-45802812D01*
X128798456Y-45966784D01*
X128699853Y-46114354D01*
X128574354Y-46239853D01*
X128426784Y-46338456D01*
X128262812Y-46406376D01*
X128113512Y-46436073D01*
X128088742Y-46441000D01*
X127911258Y-46441000D01*
X127886488Y-46436073D01*
X127737188Y-46406376D01*
X127573216Y-46338456D01*
X127425646Y-46239853D01*
X127300147Y-46114354D01*
X127201544Y-45966784D01*
X127133624Y-45802812D01*
X127099000Y-45628741D01*
X127099000Y-45451259D01*
X127133624Y-45277188D01*
X127201544Y-45113216D01*
X127300147Y-44965646D01*
X127425646Y-44840147D01*
X127573216Y-44741544D01*
X127737188Y-44673624D01*
X127886488Y-44643927D01*
X127911258Y-44639000D01*
X128088742Y-44639000D01*
X128113512Y-44643927D01*
G37*
G36*
X138954518Y-42358772D02*
G01*
X139145787Y-42437998D01*
X139145789Y-42437999D01*
X139251126Y-42508383D01*
X139317927Y-42553018D01*
X139464319Y-42699410D01*
X139579339Y-42871550D01*
X139658565Y-43062819D01*
X139698954Y-43265867D01*
X139698954Y-43472899D01*
X139658565Y-43675947D01*
X139592200Y-43836167D01*
X139579338Y-43867218D01*
X139464319Y-44039356D01*
X139317927Y-44185748D01*
X139145789Y-44300767D01*
X139145788Y-44300768D01*
X139145787Y-44300768D01*
X138954518Y-44379994D01*
X138751470Y-44420383D01*
X138544438Y-44420383D01*
X138341390Y-44379994D01*
X138150121Y-44300768D01*
X138150120Y-44300768D01*
X138150119Y-44300767D01*
X137977981Y-44185748D01*
X137831589Y-44039356D01*
X137716570Y-43867218D01*
X137703708Y-43836167D01*
X137637343Y-43675947D01*
X137596954Y-43472899D01*
X137596954Y-43265867D01*
X137637343Y-43062819D01*
X137716569Y-42871550D01*
X137831589Y-42699410D01*
X137977981Y-42553018D01*
X138044782Y-42508383D01*
X138150119Y-42437999D01*
X138150121Y-42437998D01*
X138341390Y-42358772D01*
X138544438Y-42318383D01*
X138751470Y-42318383D01*
X138954518Y-42358772D01*
G37*
G36*
X145454518Y-42358772D02*
G01*
X145645787Y-42437998D01*
X145645789Y-42437999D01*
X145751126Y-42508383D01*
X145817927Y-42553018D01*
X145964319Y-42699410D01*
X146079339Y-42871550D01*
X146158565Y-43062819D01*
X146198954Y-43265867D01*
X146198954Y-43472899D01*
X146158565Y-43675947D01*
X146092200Y-43836167D01*
X146079338Y-43867218D01*
X145964319Y-44039356D01*
X145817927Y-44185748D01*
X145645789Y-44300767D01*
X145645788Y-44300768D01*
X145645787Y-44300768D01*
X145454518Y-44379994D01*
X145251470Y-44420383D01*
X145044438Y-44420383D01*
X144841390Y-44379994D01*
X144650121Y-44300768D01*
X144650120Y-44300768D01*
X144650119Y-44300767D01*
X144477981Y-44185748D01*
X144331589Y-44039356D01*
X144216570Y-43867218D01*
X144203708Y-43836167D01*
X144137343Y-43675947D01*
X144096954Y-43472899D01*
X144096954Y-43265867D01*
X144137343Y-43062819D01*
X144216569Y-42871550D01*
X144331589Y-42699410D01*
X144477981Y-42553018D01*
X144544782Y-42508383D01*
X144650119Y-42437999D01*
X144650121Y-42437998D01*
X144841390Y-42358772D01*
X145044438Y-42318383D01*
X145251470Y-42318383D01*
X145454518Y-42358772D01*
G37*
G36*
X33821366Y-42513310D02*
G01*
X33970666Y-42543007D01*
X34134638Y-42610927D01*
X34282208Y-42709530D01*
X34407707Y-42835029D01*
X34506310Y-42982599D01*
X34574230Y-43146571D01*
X34608854Y-43320642D01*
X34608854Y-43498124D01*
X34574230Y-43672195D01*
X34506310Y-43836167D01*
X34407707Y-43983737D01*
X34282208Y-44109236D01*
X34134638Y-44207839D01*
X33970666Y-44275759D01*
X33821366Y-44305456D01*
X33796596Y-44310383D01*
X33619112Y-44310383D01*
X33594342Y-44305456D01*
X33445042Y-44275759D01*
X33281070Y-44207839D01*
X33133500Y-44109236D01*
X33008001Y-43983737D01*
X32909398Y-43836167D01*
X32841478Y-43672195D01*
X32806854Y-43498124D01*
X32806854Y-43320642D01*
X32841478Y-43146571D01*
X32909398Y-42982599D01*
X33008001Y-42835029D01*
X33133500Y-42709530D01*
X33281070Y-42610927D01*
X33445042Y-42543007D01*
X33594342Y-42513310D01*
X33619112Y-42508383D01*
X33796596Y-42508383D01*
X33821366Y-42513310D01*
G37*
G36*
X128901000Y-43901000D02*
G01*
X127099000Y-43901000D01*
X127099000Y-42099000D01*
X128901000Y-42099000D01*
X128901000Y-43901000D01*
G37*
G36*
X34608854Y-41770383D02*
G01*
X32806854Y-41770383D01*
X32806854Y-39968383D01*
X34608854Y-39968383D01*
X34608854Y-41770383D01*
G37*
G36*
X44136318Y-38818372D02*
G01*
X44327587Y-38897598D01*
X44327589Y-38897599D01*
X44499727Y-39012618D01*
X44646119Y-39159010D01*
X44755259Y-39322349D01*
X44761139Y-39331150D01*
X44840365Y-39522419D01*
X44880754Y-39725467D01*
X44880754Y-39932499D01*
X44840365Y-40135547D01*
X44761139Y-40326816D01*
X44761138Y-40326818D01*
X44646119Y-40498956D01*
X44499727Y-40645348D01*
X44327589Y-40760367D01*
X44327588Y-40760368D01*
X44327587Y-40760368D01*
X44136318Y-40839594D01*
X43933270Y-40879983D01*
X43726238Y-40879983D01*
X43523190Y-40839594D01*
X43331921Y-40760368D01*
X43331920Y-40760368D01*
X43331919Y-40760367D01*
X43159781Y-40645348D01*
X43013389Y-40498956D01*
X42898370Y-40326818D01*
X42898369Y-40326816D01*
X42819143Y-40135547D01*
X42778754Y-39932499D01*
X42778754Y-39725467D01*
X42819143Y-39522419D01*
X42898369Y-39331150D01*
X42904250Y-39322349D01*
X43013389Y-39159010D01*
X43159781Y-39012618D01*
X43331919Y-38897599D01*
X43331921Y-38897598D01*
X43523190Y-38818372D01*
X43726238Y-38777983D01*
X43933270Y-38777983D01*
X44136318Y-38818372D01*
G37*
G36*
X37636318Y-38818372D02*
G01*
X37827587Y-38897598D01*
X37827589Y-38897599D01*
X37999727Y-39012618D01*
X38146119Y-39159010D01*
X38255259Y-39322349D01*
X38261139Y-39331150D01*
X38340365Y-39522419D01*
X38380754Y-39725467D01*
X38380754Y-39932499D01*
X38340365Y-40135547D01*
X38261139Y-40326816D01*
X38261138Y-40326818D01*
X38146119Y-40498956D01*
X37999727Y-40645348D01*
X37827589Y-40760367D01*
X37827588Y-40760368D01*
X37827587Y-40760368D01*
X37636318Y-40839594D01*
X37433270Y-40879983D01*
X37226238Y-40879983D01*
X37023190Y-40839594D01*
X36831921Y-40760368D01*
X36831920Y-40760368D01*
X36831919Y-40760367D01*
X36659781Y-40645348D01*
X36513389Y-40498956D01*
X36398370Y-40326818D01*
X36398369Y-40326816D01*
X36319143Y-40135547D01*
X36278754Y-39932499D01*
X36278754Y-39725467D01*
X36319143Y-39522419D01*
X36398369Y-39331150D01*
X36404250Y-39322349D01*
X36513389Y-39159010D01*
X36659781Y-39012618D01*
X36831919Y-38897599D01*
X36831921Y-38897598D01*
X37023190Y-38818372D01*
X37226238Y-38777983D01*
X37433270Y-38777983D01*
X37636318Y-38818372D01*
G37*
G36*
X162101952Y-34416416D02*
G01*
X162566204Y-34608715D01*
X162566206Y-34608716D01*
X162984022Y-34887892D01*
X163339345Y-35243215D01*
X163618521Y-35661031D01*
X163618522Y-35661033D01*
X163810821Y-36125285D01*
X163908854Y-36618130D01*
X163908854Y-37120636D01*
X163810821Y-37613481D01*
X163621167Y-38071347D01*
X163618521Y-38077735D01*
X163339345Y-38495551D01*
X162984022Y-38850874D01*
X162566206Y-39130050D01*
X162566205Y-39130051D01*
X162566204Y-39130051D01*
X162101952Y-39322350D01*
X161609107Y-39420383D01*
X161106601Y-39420383D01*
X160613756Y-39322350D01*
X160149504Y-39130051D01*
X160149503Y-39130051D01*
X160149502Y-39130050D01*
X159731686Y-38850874D01*
X159376363Y-38495551D01*
X159097187Y-38077735D01*
X159094541Y-38071347D01*
X158904887Y-37613481D01*
X158806854Y-37120636D01*
X158806854Y-36618130D01*
X158904887Y-36125285D01*
X159097186Y-35661033D01*
X159097187Y-35661031D01*
X159376363Y-35243215D01*
X159731686Y-34887892D01*
X160149502Y-34608716D01*
X160149504Y-34608715D01*
X160613756Y-34416416D01*
X161106601Y-34318383D01*
X161609107Y-34318383D01*
X162101952Y-34416416D01*
G37*
G36*
X32101952Y-34416416D02*
G01*
X32566204Y-34608715D01*
X32566206Y-34608716D01*
X32984022Y-34887892D01*
X33339345Y-35243215D01*
X33618521Y-35661031D01*
X33618522Y-35661033D01*
X33810821Y-36125285D01*
X33908854Y-36618130D01*
X33908854Y-37120636D01*
X33810821Y-37613481D01*
X33621167Y-38071347D01*
X33618521Y-38077735D01*
X33339345Y-38495551D01*
X32984022Y-38850874D01*
X32566206Y-39130050D01*
X32566205Y-39130051D01*
X32566204Y-39130051D01*
X32101952Y-39322350D01*
X31609107Y-39420383D01*
X31106601Y-39420383D01*
X30613756Y-39322350D01*
X30149504Y-39130051D01*
X30149503Y-39130051D01*
X30149502Y-39130050D01*
X29731686Y-38850874D01*
X29376363Y-38495551D01*
X29097187Y-38077735D01*
X29094541Y-38071347D01*
X28904887Y-37613481D01*
X28806854Y-37120636D01*
X28806854Y-36618130D01*
X28904887Y-36125285D01*
X29097186Y-35661033D01*
X29097187Y-35661031D01*
X29376363Y-35243215D01*
X29731686Y-34887892D01*
X30149502Y-34608716D01*
X30149504Y-34608715D01*
X30613756Y-34416416D01*
X31106601Y-34318383D01*
X31609107Y-34318383D01*
X32101952Y-34416416D01*
G37*
G36*
X124456108Y-34897201D02*
G01*
X124758411Y-35022419D01*
X124829367Y-35051810D01*
X125165290Y-35276267D01*
X125450970Y-35561947D01*
X125606711Y-35795029D01*
X125675428Y-35897872D01*
X125830036Y-36271129D01*
X125908854Y-36667376D01*
X125908854Y-37071390D01*
X125830036Y-37467637D01*
X125675665Y-37840321D01*
X125675427Y-37840896D01*
X125450970Y-38176819D01*
X125165290Y-38462499D01*
X124829367Y-38686956D01*
X124829366Y-38686957D01*
X124829365Y-38686957D01*
X124456108Y-38841565D01*
X124059861Y-38920383D01*
X123655847Y-38920383D01*
X123259600Y-38841565D01*
X122886343Y-38686957D01*
X122886342Y-38686957D01*
X122886341Y-38686956D01*
X122550418Y-38462499D01*
X122264738Y-38176819D01*
X122040281Y-37840896D01*
X122040043Y-37840321D01*
X121885672Y-37467637D01*
X121806854Y-37071390D01*
X121806854Y-36667376D01*
X121885672Y-36271129D01*
X122040280Y-35897872D01*
X122108998Y-35795029D01*
X122264738Y-35561947D01*
X122550418Y-35276267D01*
X122886341Y-35051810D01*
X122957297Y-35022419D01*
X123259600Y-34897201D01*
X123655847Y-34818383D01*
X124059861Y-34818383D01*
X124456108Y-34897201D01*
G37*
G36*
X49456108Y-34897201D02*
G01*
X49758411Y-35022419D01*
X49829367Y-35051810D01*
X50165290Y-35276267D01*
X50450970Y-35561947D01*
X50606711Y-35795029D01*
X50675428Y-35897872D01*
X50830036Y-36271129D01*
X50908854Y-36667376D01*
X50908854Y-37071390D01*
X50830036Y-37467637D01*
X50675665Y-37840321D01*
X50675427Y-37840896D01*
X50450970Y-38176819D01*
X50165290Y-38462499D01*
X49829367Y-38686956D01*
X49829366Y-38686957D01*
X49829365Y-38686957D01*
X49456108Y-38841565D01*
X49059861Y-38920383D01*
X48655847Y-38920383D01*
X48259600Y-38841565D01*
X47886343Y-38686957D01*
X47886342Y-38686957D01*
X47886341Y-38686956D01*
X47550418Y-38462499D01*
X47264738Y-38176819D01*
X47040281Y-37840896D01*
X47040043Y-37840321D01*
X46885672Y-37467637D01*
X46806854Y-37071390D01*
X46806854Y-36667376D01*
X46885672Y-36271129D01*
X47040280Y-35897872D01*
X47108998Y-35795029D01*
X47264738Y-35561947D01*
X47550418Y-35276267D01*
X47886341Y-35051810D01*
X47957297Y-35022419D01*
X48259600Y-34897201D01*
X48655847Y-34818383D01*
X49059861Y-34818383D01*
X49456108Y-34897201D01*
G37*
G36*
X63514854Y-38800383D02*
G01*
X61812854Y-38800383D01*
X61812854Y-37098383D01*
X63514854Y-37098383D01*
X63514854Y-38800383D01*
G37*
G36*
X64912082Y-37131086D02*
G01*
X65066954Y-37195236D01*
X65206335Y-37288368D01*
X65324869Y-37406902D01*
X65418001Y-37546283D01*
X65482151Y-37701155D01*
X65514854Y-37865567D01*
X65514854Y-38033199D01*
X65482151Y-38197611D01*
X65418001Y-38352483D01*
X65324869Y-38491864D01*
X65206335Y-38610398D01*
X65066954Y-38703530D01*
X64912082Y-38767680D01*
X64747670Y-38800383D01*
X64580038Y-38800383D01*
X64415626Y-38767680D01*
X64260754Y-38703530D01*
X64121373Y-38610398D01*
X64002839Y-38491864D01*
X63909707Y-38352483D01*
X63845557Y-38197611D01*
X63812854Y-38033199D01*
X63812854Y-37865567D01*
X63845557Y-37701155D01*
X63909707Y-37546283D01*
X64002839Y-37406902D01*
X64121373Y-37288368D01*
X64260754Y-37195236D01*
X64415626Y-37131086D01*
X64580038Y-37098383D01*
X64747670Y-37098383D01*
X64912082Y-37131086D01*
G37*
G36*
X149722464Y-35667419D02*
G01*
X149949949Y-35761647D01*
X149949951Y-35761648D01*
X150154682Y-35898445D01*
X150328792Y-36072555D01*
X150454285Y-36260368D01*
X150465590Y-36277288D01*
X150559818Y-36504773D01*
X150607854Y-36746267D01*
X150607854Y-36992499D01*
X150559818Y-37233993D01*
X150537295Y-37288368D01*
X150465589Y-37461480D01*
X150328792Y-37666211D01*
X150154682Y-37840321D01*
X149949951Y-37977118D01*
X149949950Y-37977119D01*
X149949949Y-37977119D01*
X149722464Y-38071347D01*
X149480970Y-38119383D01*
X149234738Y-38119383D01*
X148993244Y-38071347D01*
X148765759Y-37977119D01*
X148765758Y-37977119D01*
X148765757Y-37977118D01*
X148561026Y-37840321D01*
X148386916Y-37666211D01*
X148250119Y-37461480D01*
X148178413Y-37288368D01*
X148155890Y-37233993D01*
X148107854Y-36992499D01*
X148107854Y-36746267D01*
X148155890Y-36504773D01*
X148250118Y-36277288D01*
X148261424Y-36260368D01*
X148386916Y-36072555D01*
X148561026Y-35898445D01*
X148765757Y-35761648D01*
X148765759Y-35761647D01*
X148993244Y-35667419D01*
X149234738Y-35619383D01*
X149480970Y-35619383D01*
X149722464Y-35667419D01*
G37*
G36*
X54722464Y-35667419D02*
G01*
X54949949Y-35761647D01*
X54949951Y-35761648D01*
X55154682Y-35898445D01*
X55328792Y-36072555D01*
X55454285Y-36260368D01*
X55465590Y-36277288D01*
X55559818Y-36504773D01*
X55607854Y-36746267D01*
X55607854Y-36992499D01*
X55559818Y-37233993D01*
X55537295Y-37288368D01*
X55465589Y-37461480D01*
X55328792Y-37666211D01*
X55154682Y-37840321D01*
X54949951Y-37977118D01*
X54949950Y-37977119D01*
X54949949Y-37977119D01*
X54722464Y-38071347D01*
X54480970Y-38119383D01*
X54234738Y-38119383D01*
X53993244Y-38071347D01*
X53765759Y-37977119D01*
X53765758Y-37977119D01*
X53765757Y-37977118D01*
X53561026Y-37840321D01*
X53386916Y-37666211D01*
X53250119Y-37461480D01*
X53178413Y-37288368D01*
X53155890Y-37233993D01*
X53107854Y-36992499D01*
X53107854Y-36746267D01*
X53155890Y-36504773D01*
X53250118Y-36277288D01*
X53261424Y-36260368D01*
X53386916Y-36072555D01*
X53561026Y-35898445D01*
X53765757Y-35761648D01*
X53765759Y-35761647D01*
X53993244Y-35667419D01*
X54234738Y-35619383D01*
X54480970Y-35619383D01*
X54722464Y-35667419D01*
G37*
G36*
X144208854Y-37620383D02*
G01*
X142306854Y-37620383D01*
X142306854Y-35718383D01*
X144208854Y-35718383D01*
X144208854Y-37620383D01*
G37*
G36*
X140995249Y-35754929D02*
G01*
X141168320Y-35826617D01*
X141245672Y-35878302D01*
X141324081Y-35930693D01*
X141456544Y-36063156D01*
X141498056Y-36125284D01*
X141560620Y-36218917D01*
X141632308Y-36391988D01*
X141668854Y-36575716D01*
X141668854Y-36763050D01*
X141632308Y-36946778D01*
X141560620Y-37119849D01*
X141553110Y-37131088D01*
X141456544Y-37275610D01*
X141324081Y-37408073D01*
X141245672Y-37460464D01*
X141168320Y-37512149D01*
X140995249Y-37583837D01*
X140811521Y-37620383D01*
X140624187Y-37620383D01*
X140440459Y-37583837D01*
X140267388Y-37512149D01*
X140190036Y-37460464D01*
X140111627Y-37408073D01*
X139979164Y-37275610D01*
X139882598Y-37131088D01*
X139875088Y-37119849D01*
X139803400Y-36946778D01*
X139766854Y-36763050D01*
X139766854Y-36575716D01*
X139803400Y-36391988D01*
X139875088Y-36218917D01*
X139937652Y-36125284D01*
X139979164Y-36063156D01*
X140111627Y-35930693D01*
X140190036Y-35878302D01*
X140267388Y-35826617D01*
X140440459Y-35754929D01*
X140624187Y-35718383D01*
X140811521Y-35718383D01*
X140995249Y-35754929D01*
G37*
G36*
X111351366Y-35473310D02*
G01*
X111500666Y-35503007D01*
X111664638Y-35570927D01*
X111812208Y-35669530D01*
X111937707Y-35795029D01*
X112036310Y-35942599D01*
X112104230Y-36106571D01*
X112126576Y-36218916D01*
X112138187Y-36277286D01*
X112138854Y-36280642D01*
X112138854Y-36458124D01*
X112104230Y-36632195D01*
X112036310Y-36796167D01*
X111937707Y-36943737D01*
X111812208Y-37069236D01*
X111664638Y-37167839D01*
X111500666Y-37235759D01*
X111351366Y-37265456D01*
X111326596Y-37270383D01*
X111149112Y-37270383D01*
X111124342Y-37265456D01*
X110975042Y-37235759D01*
X110811070Y-37167839D01*
X110663500Y-37069236D01*
X110538001Y-36943737D01*
X110439398Y-36796167D01*
X110371478Y-36632195D01*
X110336854Y-36458124D01*
X110336854Y-36280642D01*
X110337522Y-36277286D01*
X110349132Y-36218916D01*
X110371478Y-36106571D01*
X110439398Y-35942599D01*
X110538001Y-35795029D01*
X110663500Y-35669530D01*
X110811070Y-35570927D01*
X110975042Y-35503007D01*
X111124342Y-35473310D01*
X111149112Y-35468383D01*
X111326596Y-35468383D01*
X111351366Y-35473310D01*
G37*
G36*
X113891366Y-35473310D02*
G01*
X114040666Y-35503007D01*
X114204638Y-35570927D01*
X114352208Y-35669530D01*
X114477707Y-35795029D01*
X114576310Y-35942599D01*
X114644230Y-36106571D01*
X114666576Y-36218916D01*
X114678187Y-36277286D01*
X114678854Y-36280642D01*
X114678854Y-36458124D01*
X114644230Y-36632195D01*
X114576310Y-36796167D01*
X114477707Y-36943737D01*
X114352208Y-37069236D01*
X114204638Y-37167839D01*
X114040666Y-37235759D01*
X113891366Y-37265456D01*
X113866596Y-37270383D01*
X113689112Y-37270383D01*
X113664342Y-37265456D01*
X113515042Y-37235759D01*
X113351070Y-37167839D01*
X113203500Y-37069236D01*
X113078001Y-36943737D01*
X112979398Y-36796167D01*
X112911478Y-36632195D01*
X112876854Y-36458124D01*
X112876854Y-36280642D01*
X112877522Y-36277286D01*
X112889132Y-36218916D01*
X112911478Y-36106571D01*
X112979398Y-35942599D01*
X113078001Y-35795029D01*
X113203500Y-35669530D01*
X113351070Y-35570927D01*
X113515042Y-35503007D01*
X113664342Y-35473310D01*
X113689112Y-35468383D01*
X113866596Y-35468383D01*
X113891366Y-35473310D01*
G37*
G36*
X116431366Y-35473310D02*
G01*
X116580666Y-35503007D01*
X116744638Y-35570927D01*
X116892208Y-35669530D01*
X117017707Y-35795029D01*
X117116310Y-35942599D01*
X117184230Y-36106571D01*
X117206576Y-36218916D01*
X117218187Y-36277286D01*
X117218854Y-36280642D01*
X117218854Y-36458124D01*
X117184230Y-36632195D01*
X117116310Y-36796167D01*
X117017707Y-36943737D01*
X116892208Y-37069236D01*
X116744638Y-37167839D01*
X116580666Y-37235759D01*
X116431366Y-37265456D01*
X116406596Y-37270383D01*
X116229112Y-37270383D01*
X116204342Y-37265456D01*
X116055042Y-37235759D01*
X115891070Y-37167839D01*
X115743500Y-37069236D01*
X115618001Y-36943737D01*
X115519398Y-36796167D01*
X115451478Y-36632195D01*
X115416854Y-36458124D01*
X115416854Y-36280642D01*
X115417522Y-36277286D01*
X115429132Y-36218916D01*
X115451478Y-36106571D01*
X115519398Y-35942599D01*
X115618001Y-35795029D01*
X115743500Y-35669530D01*
X115891070Y-35570927D01*
X116055042Y-35503007D01*
X116204342Y-35473310D01*
X116229112Y-35468383D01*
X116406596Y-35468383D01*
X116431366Y-35473310D01*
G37*
G36*
X119758854Y-37270383D02*
G01*
X117956854Y-37270383D01*
X117956854Y-35468383D01*
X119758854Y-35468383D01*
X119758854Y-37270383D01*
G37*
G36*
X108811366Y-35473310D02*
G01*
X108960666Y-35503007D01*
X109124638Y-35570927D01*
X109272208Y-35669530D01*
X109397707Y-35795029D01*
X109496310Y-35942599D01*
X109564230Y-36106571D01*
X109586576Y-36218916D01*
X109598187Y-36277286D01*
X109598854Y-36280642D01*
X109598854Y-36458124D01*
X109564230Y-36632195D01*
X109496310Y-36796167D01*
X109397707Y-36943737D01*
X109272208Y-37069236D01*
X109124638Y-37167839D01*
X108960666Y-37235759D01*
X108811366Y-37265456D01*
X108786596Y-37270383D01*
X108609112Y-37270383D01*
X108584342Y-37265456D01*
X108435042Y-37235759D01*
X108271070Y-37167839D01*
X108123500Y-37069236D01*
X107998001Y-36943737D01*
X107899398Y-36796167D01*
X107831478Y-36632195D01*
X107796854Y-36458124D01*
X107796854Y-36280642D01*
X107797522Y-36277286D01*
X107809132Y-36218916D01*
X107831478Y-36106571D01*
X107899398Y-35942599D01*
X107998001Y-35795029D01*
X108123500Y-35669530D01*
X108271070Y-35570927D01*
X108435042Y-35503007D01*
X108584342Y-35473310D01*
X108609112Y-35468383D01*
X108786596Y-35468383D01*
X108811366Y-35473310D01*
G37*
G36*
X101191366Y-35473310D02*
G01*
X101340666Y-35503007D01*
X101504638Y-35570927D01*
X101652208Y-35669530D01*
X101777707Y-35795029D01*
X101876310Y-35942599D01*
X101944230Y-36106571D01*
X101966576Y-36218916D01*
X101978187Y-36277286D01*
X101978854Y-36280642D01*
X101978854Y-36458124D01*
X101944230Y-36632195D01*
X101876310Y-36796167D01*
X101777707Y-36943737D01*
X101652208Y-37069236D01*
X101504638Y-37167839D01*
X101340666Y-37235759D01*
X101191366Y-37265456D01*
X101166596Y-37270383D01*
X100989112Y-37270383D01*
X100964342Y-37265456D01*
X100815042Y-37235759D01*
X100651070Y-37167839D01*
X100503500Y-37069236D01*
X100378001Y-36943737D01*
X100279398Y-36796167D01*
X100211478Y-36632195D01*
X100176854Y-36458124D01*
X100176854Y-36280642D01*
X100177522Y-36277286D01*
X100189132Y-36218916D01*
X100211478Y-36106571D01*
X100279398Y-35942599D01*
X100378001Y-35795029D01*
X100503500Y-35669530D01*
X100651070Y-35570927D01*
X100815042Y-35503007D01*
X100964342Y-35473310D01*
X100989112Y-35468383D01*
X101166596Y-35468383D01*
X101191366Y-35473310D01*
G37*
G36*
X98651366Y-35473310D02*
G01*
X98800666Y-35503007D01*
X98964638Y-35570927D01*
X99112208Y-35669530D01*
X99237707Y-35795029D01*
X99336310Y-35942599D01*
X99404230Y-36106571D01*
X99426576Y-36218916D01*
X99438187Y-36277286D01*
X99438854Y-36280642D01*
X99438854Y-36458124D01*
X99404230Y-36632195D01*
X99336310Y-36796167D01*
X99237707Y-36943737D01*
X99112208Y-37069236D01*
X98964638Y-37167839D01*
X98800666Y-37235759D01*
X98651366Y-37265456D01*
X98626596Y-37270383D01*
X98449112Y-37270383D01*
X98424342Y-37265456D01*
X98275042Y-37235759D01*
X98111070Y-37167839D01*
X97963500Y-37069236D01*
X97838001Y-36943737D01*
X97739398Y-36796167D01*
X97671478Y-36632195D01*
X97636854Y-36458124D01*
X97636854Y-36280642D01*
X97637522Y-36277286D01*
X97649132Y-36218916D01*
X97671478Y-36106571D01*
X97739398Y-35942599D01*
X97838001Y-35795029D01*
X97963500Y-35669530D01*
X98111070Y-35570927D01*
X98275042Y-35503007D01*
X98424342Y-35473310D01*
X98449112Y-35468383D01*
X98626596Y-35468383D01*
X98651366Y-35473310D01*
G37*
G36*
X96111366Y-35473310D02*
G01*
X96260666Y-35503007D01*
X96424638Y-35570927D01*
X96572208Y-35669530D01*
X96697707Y-35795029D01*
X96796310Y-35942599D01*
X96864230Y-36106571D01*
X96886576Y-36218916D01*
X96898187Y-36277286D01*
X96898854Y-36280642D01*
X96898854Y-36458124D01*
X96864230Y-36632195D01*
X96796310Y-36796167D01*
X96697707Y-36943737D01*
X96572208Y-37069236D01*
X96424638Y-37167839D01*
X96260666Y-37235759D01*
X96111366Y-37265456D01*
X96086596Y-37270383D01*
X95909112Y-37270383D01*
X95884342Y-37265456D01*
X95735042Y-37235759D01*
X95571070Y-37167839D01*
X95423500Y-37069236D01*
X95298001Y-36943737D01*
X95199398Y-36796167D01*
X95131478Y-36632195D01*
X95096854Y-36458124D01*
X95096854Y-36280642D01*
X95097522Y-36277286D01*
X95109132Y-36218916D01*
X95131478Y-36106571D01*
X95199398Y-35942599D01*
X95298001Y-35795029D01*
X95423500Y-35669530D01*
X95571070Y-35570927D01*
X95735042Y-35503007D01*
X95884342Y-35473310D01*
X95909112Y-35468383D01*
X96086596Y-35468383D01*
X96111366Y-35473310D01*
G37*
G36*
X93571366Y-35473310D02*
G01*
X93720666Y-35503007D01*
X93884638Y-35570927D01*
X94032208Y-35669530D01*
X94157707Y-35795029D01*
X94256310Y-35942599D01*
X94324230Y-36106571D01*
X94346576Y-36218916D01*
X94358187Y-36277286D01*
X94358854Y-36280642D01*
X94358854Y-36458124D01*
X94324230Y-36632195D01*
X94256310Y-36796167D01*
X94157707Y-36943737D01*
X94032208Y-37069236D01*
X93884638Y-37167839D01*
X93720666Y-37235759D01*
X93571366Y-37265456D01*
X93546596Y-37270383D01*
X93369112Y-37270383D01*
X93344342Y-37265456D01*
X93195042Y-37235759D01*
X93031070Y-37167839D01*
X92883500Y-37069236D01*
X92758001Y-36943737D01*
X92659398Y-36796167D01*
X92591478Y-36632195D01*
X92556854Y-36458124D01*
X92556854Y-36280642D01*
X92557522Y-36277286D01*
X92569132Y-36218916D01*
X92591478Y-36106571D01*
X92659398Y-35942599D01*
X92758001Y-35795029D01*
X92883500Y-35669530D01*
X93031070Y-35570927D01*
X93195042Y-35503007D01*
X93344342Y-35473310D01*
X93369112Y-35468383D01*
X93546596Y-35468383D01*
X93571366Y-35473310D01*
G37*
G36*
X91031366Y-35473310D02*
G01*
X91180666Y-35503007D01*
X91344638Y-35570927D01*
X91492208Y-35669530D01*
X91617707Y-35795029D01*
X91716310Y-35942599D01*
X91784230Y-36106571D01*
X91806576Y-36218916D01*
X91818187Y-36277286D01*
X91818854Y-36280642D01*
X91818854Y-36458124D01*
X91784230Y-36632195D01*
X91716310Y-36796167D01*
X91617707Y-36943737D01*
X91492208Y-37069236D01*
X91344638Y-37167839D01*
X91180666Y-37235759D01*
X91031366Y-37265456D01*
X91006596Y-37270383D01*
X90829112Y-37270383D01*
X90804342Y-37265456D01*
X90655042Y-37235759D01*
X90491070Y-37167839D01*
X90343500Y-37069236D01*
X90218001Y-36943737D01*
X90119398Y-36796167D01*
X90051478Y-36632195D01*
X90016854Y-36458124D01*
X90016854Y-36280642D01*
X90017522Y-36277286D01*
X90029132Y-36218916D01*
X90051478Y-36106571D01*
X90119398Y-35942599D01*
X90218001Y-35795029D01*
X90343500Y-35669530D01*
X90491070Y-35570927D01*
X90655042Y-35503007D01*
X90804342Y-35473310D01*
X90829112Y-35468383D01*
X91006596Y-35468383D01*
X91031366Y-35473310D01*
G37*
G36*
X88491366Y-35473310D02*
G01*
X88640666Y-35503007D01*
X88804638Y-35570927D01*
X88952208Y-35669530D01*
X89077707Y-35795029D01*
X89176310Y-35942599D01*
X89244230Y-36106571D01*
X89266576Y-36218916D01*
X89278187Y-36277286D01*
X89278854Y-36280642D01*
X89278854Y-36458124D01*
X89244230Y-36632195D01*
X89176310Y-36796167D01*
X89077707Y-36943737D01*
X88952208Y-37069236D01*
X88804638Y-37167839D01*
X88640666Y-37235759D01*
X88491366Y-37265456D01*
X88466596Y-37270383D01*
X88289112Y-37270383D01*
X88264342Y-37265456D01*
X88115042Y-37235759D01*
X87951070Y-37167839D01*
X87803500Y-37069236D01*
X87678001Y-36943737D01*
X87579398Y-36796167D01*
X87511478Y-36632195D01*
X87476854Y-36458124D01*
X87476854Y-36280642D01*
X87477522Y-36277286D01*
X87489132Y-36218916D01*
X87511478Y-36106571D01*
X87579398Y-35942599D01*
X87678001Y-35795029D01*
X87803500Y-35669530D01*
X87951070Y-35570927D01*
X88115042Y-35503007D01*
X88264342Y-35473310D01*
X88289112Y-35468383D01*
X88466596Y-35468383D01*
X88491366Y-35473310D01*
G37*
G36*
X85951366Y-35473310D02*
G01*
X86100666Y-35503007D01*
X86264638Y-35570927D01*
X86412208Y-35669530D01*
X86537707Y-35795029D01*
X86636310Y-35942599D01*
X86704230Y-36106571D01*
X86726576Y-36218916D01*
X86738187Y-36277286D01*
X86738854Y-36280642D01*
X86738854Y-36458124D01*
X86704230Y-36632195D01*
X86636310Y-36796167D01*
X86537707Y-36943737D01*
X86412208Y-37069236D01*
X86264638Y-37167839D01*
X86100666Y-37235759D01*
X85951366Y-37265456D01*
X85926596Y-37270383D01*
X85749112Y-37270383D01*
X85724342Y-37265456D01*
X85575042Y-37235759D01*
X85411070Y-37167839D01*
X85263500Y-37069236D01*
X85138001Y-36943737D01*
X85039398Y-36796167D01*
X84971478Y-36632195D01*
X84936854Y-36458124D01*
X84936854Y-36280642D01*
X84937522Y-36277286D01*
X84949132Y-36218916D01*
X84971478Y-36106571D01*
X85039398Y-35942599D01*
X85138001Y-35795029D01*
X85263500Y-35669530D01*
X85411070Y-35570927D01*
X85575042Y-35503007D01*
X85724342Y-35473310D01*
X85749112Y-35468383D01*
X85926596Y-35468383D01*
X85951366Y-35473310D01*
G37*
G36*
X83411366Y-35473310D02*
G01*
X83560666Y-35503007D01*
X83724638Y-35570927D01*
X83872208Y-35669530D01*
X83997707Y-35795029D01*
X84096310Y-35942599D01*
X84164230Y-36106571D01*
X84186576Y-36218916D01*
X84198187Y-36277286D01*
X84198854Y-36280642D01*
X84198854Y-36458124D01*
X84164230Y-36632195D01*
X84096310Y-36796167D01*
X83997707Y-36943737D01*
X83872208Y-37069236D01*
X83724638Y-37167839D01*
X83560666Y-37235759D01*
X83411366Y-37265456D01*
X83386596Y-37270383D01*
X83209112Y-37270383D01*
X83184342Y-37265456D01*
X83035042Y-37235759D01*
X82871070Y-37167839D01*
X82723500Y-37069236D01*
X82598001Y-36943737D01*
X82499398Y-36796167D01*
X82431478Y-36632195D01*
X82396854Y-36458124D01*
X82396854Y-36280642D01*
X82397522Y-36277286D01*
X82409132Y-36218916D01*
X82431478Y-36106571D01*
X82499398Y-35942599D01*
X82598001Y-35795029D01*
X82723500Y-35669530D01*
X82871070Y-35570927D01*
X83035042Y-35503007D01*
X83184342Y-35473310D01*
X83209112Y-35468383D01*
X83386596Y-35468383D01*
X83411366Y-35473310D01*
G37*
G36*
X80871366Y-35473310D02*
G01*
X81020666Y-35503007D01*
X81184638Y-35570927D01*
X81332208Y-35669530D01*
X81457707Y-35795029D01*
X81556310Y-35942599D01*
X81624230Y-36106571D01*
X81646576Y-36218916D01*
X81658187Y-36277286D01*
X81658854Y-36280642D01*
X81658854Y-36458124D01*
X81624230Y-36632195D01*
X81556310Y-36796167D01*
X81457707Y-36943737D01*
X81332208Y-37069236D01*
X81184638Y-37167839D01*
X81020666Y-37235759D01*
X80871366Y-37265456D01*
X80846596Y-37270383D01*
X80669112Y-37270383D01*
X80644342Y-37265456D01*
X80495042Y-37235759D01*
X80331070Y-37167839D01*
X80183500Y-37069236D01*
X80058001Y-36943737D01*
X79959398Y-36796167D01*
X79891478Y-36632195D01*
X79856854Y-36458124D01*
X79856854Y-36280642D01*
X79857522Y-36277286D01*
X79869132Y-36218916D01*
X79891478Y-36106571D01*
X79959398Y-35942599D01*
X80058001Y-35795029D01*
X80183500Y-35669530D01*
X80331070Y-35570927D01*
X80495042Y-35503007D01*
X80644342Y-35473310D01*
X80669112Y-35468383D01*
X80846596Y-35468383D01*
X80871366Y-35473310D01*
G37*
G36*
X103731366Y-35473310D02*
G01*
X103880666Y-35503007D01*
X104044638Y-35570927D01*
X104192208Y-35669530D01*
X104317707Y-35795029D01*
X104416310Y-35942599D01*
X104484230Y-36106571D01*
X104506576Y-36218916D01*
X104518187Y-36277286D01*
X104518854Y-36280642D01*
X104518854Y-36458124D01*
X104484230Y-36632195D01*
X104416310Y-36796167D01*
X104317707Y-36943737D01*
X104192208Y-37069236D01*
X104044638Y-37167839D01*
X103880666Y-37235759D01*
X103731366Y-37265456D01*
X103706596Y-37270383D01*
X103529112Y-37270383D01*
X103504342Y-37265456D01*
X103355042Y-37235759D01*
X103191070Y-37167839D01*
X103043500Y-37069236D01*
X102918001Y-36943737D01*
X102819398Y-36796167D01*
X102751478Y-36632195D01*
X102716854Y-36458124D01*
X102716854Y-36280642D01*
X102717522Y-36277286D01*
X102729132Y-36218916D01*
X102751478Y-36106571D01*
X102819398Y-35942599D01*
X102918001Y-35795029D01*
X103043500Y-35669530D01*
X103191070Y-35570927D01*
X103355042Y-35503007D01*
X103504342Y-35473310D01*
X103529112Y-35468383D01*
X103706596Y-35468383D01*
X103731366Y-35473310D01*
G37*
G36*
X106271366Y-35473310D02*
G01*
X106420666Y-35503007D01*
X106584638Y-35570927D01*
X106732208Y-35669530D01*
X106857707Y-35795029D01*
X106956310Y-35942599D01*
X107024230Y-36106571D01*
X107046576Y-36218916D01*
X107058187Y-36277286D01*
X107058854Y-36280642D01*
X107058854Y-36458124D01*
X107024230Y-36632195D01*
X106956310Y-36796167D01*
X106857707Y-36943737D01*
X106732208Y-37069236D01*
X106584638Y-37167839D01*
X106420666Y-37235759D01*
X106271366Y-37265456D01*
X106246596Y-37270383D01*
X106069112Y-37270383D01*
X106044342Y-37265456D01*
X105895042Y-37235759D01*
X105731070Y-37167839D01*
X105583500Y-37069236D01*
X105458001Y-36943737D01*
X105359398Y-36796167D01*
X105291478Y-36632195D01*
X105256854Y-36458124D01*
X105256854Y-36280642D01*
X105257522Y-36277286D01*
X105269132Y-36218916D01*
X105291478Y-36106571D01*
X105359398Y-35942599D01*
X105458001Y-35795029D01*
X105583500Y-35669530D01*
X105731070Y-35570927D01*
X105895042Y-35503007D01*
X106044342Y-35473310D01*
X106069112Y-35468383D01*
X106246596Y-35468383D01*
X106271366Y-35473310D01*
G37*
G36*
X44136318Y-34318372D02*
G01*
X44327587Y-34397598D01*
X44327589Y-34397599D01*
X44499727Y-34512618D01*
X44646119Y-34659010D01*
X44752609Y-34818383D01*
X44761139Y-34831150D01*
X44840365Y-35022419D01*
X44880754Y-35225467D01*
X44880754Y-35432499D01*
X44840365Y-35635547D01*
X44774305Y-35795030D01*
X44761138Y-35826818D01*
X44646119Y-35998956D01*
X44499727Y-36145348D01*
X44327589Y-36260367D01*
X44327588Y-36260368D01*
X44327587Y-36260368D01*
X44136318Y-36339594D01*
X43933270Y-36379983D01*
X43726238Y-36379983D01*
X43523190Y-36339594D01*
X43331921Y-36260368D01*
X43331920Y-36260368D01*
X43331919Y-36260367D01*
X43159781Y-36145348D01*
X43013389Y-35998956D01*
X42898370Y-35826818D01*
X42885203Y-35795030D01*
X42819143Y-35635547D01*
X42778754Y-35432499D01*
X42778754Y-35225467D01*
X42819143Y-35022419D01*
X42898369Y-34831150D01*
X42906900Y-34818383D01*
X43013389Y-34659010D01*
X43159781Y-34512618D01*
X43331919Y-34397599D01*
X43331921Y-34397598D01*
X43523190Y-34318372D01*
X43726238Y-34277983D01*
X43933270Y-34277983D01*
X44136318Y-34318372D01*
G37*
G36*
X37636318Y-34318372D02*
G01*
X37827587Y-34397598D01*
X37827589Y-34397599D01*
X37999727Y-34512618D01*
X38146119Y-34659010D01*
X38252609Y-34818383D01*
X38261139Y-34831150D01*
X38340365Y-35022419D01*
X38380754Y-35225467D01*
X38380754Y-35432499D01*
X38340365Y-35635547D01*
X38274305Y-35795030D01*
X38261138Y-35826818D01*
X38146119Y-35998956D01*
X37999727Y-36145348D01*
X37827589Y-36260367D01*
X37827588Y-36260368D01*
X37827587Y-36260368D01*
X37636318Y-36339594D01*
X37433270Y-36379983D01*
X37226238Y-36379983D01*
X37023190Y-36339594D01*
X36831921Y-36260368D01*
X36831920Y-36260368D01*
X36831919Y-36260367D01*
X36659781Y-36145348D01*
X36513389Y-35998956D01*
X36398370Y-35826818D01*
X36385203Y-35795030D01*
X36319143Y-35635547D01*
X36278754Y-35432499D01*
X36278754Y-35225467D01*
X36319143Y-35022419D01*
X36398369Y-34831150D01*
X36406900Y-34818383D01*
X36513389Y-34659010D01*
X36659781Y-34512618D01*
X36831919Y-34397599D01*
X36831921Y-34397598D01*
X37023190Y-34318372D01*
X37226238Y-34277983D01*
X37433270Y-34277983D01*
X37636318Y-34318372D01*
G37*
M02*
