G04 #@! TF.GenerationSoftware,KiCad,Pcbnew,(5.1.5-0-10_14)*
G04 #@! TF.CreationDate,2020-06-01T11:02:14+02:00*
G04 #@! TF.ProjectId,Main_Board_v1_2_smd,4d61696e-5f42-46f6-9172-645f76315f32,rev?*
G04 #@! TF.SameCoordinates,Original*
G04 #@! TF.FileFunction,Legend,Top*
G04 #@! TF.FilePolarity,Positive*
%FSLAX46Y46*%
G04 Gerber Fmt 4.6, Leading zero omitted, Abs format (unit mm)*
G04 Created by KiCad (PCBNEW (5.1.5-0-10_14)) date 2020-06-01 11:02:14*
%MOMM*%
%LPD*%
G04 APERTURE LIST*
%ADD10C,0.300000*%
%ADD11C,0.120000*%
%ADD12C,0.100000*%
%ADD13C,0.150000*%
G04 APERTURE END LIST*
D10*
X113586425Y-72297954D02*
X113872139Y-72297954D01*
X114014996Y-72369383D01*
X114157854Y-72512240D01*
X114229282Y-72797954D01*
X114229282Y-73297954D01*
X114157854Y-73583668D01*
X114014996Y-73726525D01*
X113872139Y-73797954D01*
X113586425Y-73797954D01*
X113443568Y-73726525D01*
X113300711Y-73583668D01*
X113229282Y-73297954D01*
X113229282Y-72797954D01*
X113300711Y-72512240D01*
X113443568Y-72369383D01*
X113586425Y-72297954D01*
X114872139Y-73797954D02*
X114872139Y-72297954D01*
X115443568Y-72297954D01*
X115586425Y-72369383D01*
X115657854Y-72440811D01*
X115729282Y-72583668D01*
X115729282Y-72797954D01*
X115657854Y-72940811D01*
X115586425Y-73012240D01*
X115443568Y-73083668D01*
X114872139Y-73083668D01*
X116372139Y-73012240D02*
X116872139Y-73012240D01*
X117086425Y-73797954D02*
X116372139Y-73797954D01*
X116372139Y-72297954D01*
X117086425Y-72297954D01*
X117729282Y-73797954D02*
X117729282Y-72297954D01*
X118586425Y-73797954D01*
X118586425Y-72297954D01*
X121300711Y-73797954D02*
X120800711Y-73083668D01*
X120443568Y-73797954D02*
X120443568Y-72297954D01*
X121014996Y-72297954D01*
X121157854Y-72369383D01*
X121229282Y-72440811D01*
X121300711Y-72583668D01*
X121300711Y-72797954D01*
X121229282Y-72940811D01*
X121157854Y-73012240D01*
X121014996Y-73083668D01*
X120443568Y-73083668D01*
X122514996Y-73726525D02*
X122372139Y-73797954D01*
X122086425Y-73797954D01*
X121943568Y-73726525D01*
X121872139Y-73583668D01*
X121872139Y-73012240D01*
X121943568Y-72869383D01*
X122086425Y-72797954D01*
X122372139Y-72797954D01*
X122514996Y-72869383D01*
X122586425Y-73012240D01*
X122586425Y-73155097D01*
X121872139Y-73297954D01*
X123157854Y-73726525D02*
X123300711Y-73797954D01*
X123586425Y-73797954D01*
X123729282Y-73726525D01*
X123800711Y-73583668D01*
X123800711Y-73512240D01*
X123729282Y-73369383D01*
X123586425Y-73297954D01*
X123372139Y-73297954D01*
X123229282Y-73226525D01*
X123157854Y-73083668D01*
X123157854Y-73012240D01*
X123229282Y-72869383D01*
X123372139Y-72797954D01*
X123586425Y-72797954D01*
X123729282Y-72869383D01*
X124443568Y-72797954D02*
X124443568Y-74297954D01*
X124443568Y-72869383D02*
X124586425Y-72797954D01*
X124872139Y-72797954D01*
X125014996Y-72869383D01*
X125086425Y-72940811D01*
X125157854Y-73083668D01*
X125157854Y-73512240D01*
X125086425Y-73655097D01*
X125014996Y-73726525D01*
X124872139Y-73797954D01*
X124586425Y-73797954D01*
X124443568Y-73726525D01*
X125800711Y-73797954D02*
X125800711Y-72797954D01*
X125800711Y-72297954D02*
X125729282Y-72369383D01*
X125800711Y-72440811D01*
X125872139Y-72369383D01*
X125800711Y-72297954D01*
X125800711Y-72440811D01*
X126514996Y-73797954D02*
X126514996Y-72797954D01*
X126514996Y-73083668D02*
X126586425Y-72940811D01*
X126657854Y-72869383D01*
X126800711Y-72797954D01*
X126943568Y-72797954D01*
X128086425Y-73797954D02*
X128086425Y-73012240D01*
X128014996Y-72869383D01*
X127872139Y-72797954D01*
X127586425Y-72797954D01*
X127443568Y-72869383D01*
X128086425Y-73726525D02*
X127943568Y-73797954D01*
X127586425Y-73797954D01*
X127443568Y-73726525D01*
X127372139Y-73583668D01*
X127372139Y-73440811D01*
X127443568Y-73297954D01*
X127586425Y-73226525D01*
X127943568Y-73226525D01*
X128086425Y-73155097D01*
X128586425Y-72797954D02*
X129157854Y-72797954D01*
X128800711Y-72297954D02*
X128800711Y-73583668D01*
X128872139Y-73726525D01*
X129014996Y-73797954D01*
X129157854Y-73797954D01*
X129872139Y-73797954D02*
X129729282Y-73726525D01*
X129657854Y-73655097D01*
X129586425Y-73512240D01*
X129586425Y-73083668D01*
X129657854Y-72940811D01*
X129729282Y-72869383D01*
X129872139Y-72797954D01*
X130086425Y-72797954D01*
X130229282Y-72869383D01*
X130300711Y-72940811D01*
X130372139Y-73083668D01*
X130372139Y-73512240D01*
X130300711Y-73655097D01*
X130229282Y-73726525D01*
X130086425Y-73797954D01*
X129872139Y-73797954D01*
X131014996Y-73797954D02*
X131014996Y-72797954D01*
X131014996Y-73083668D02*
X131086425Y-72940811D01*
X131157854Y-72869383D01*
X131300711Y-72797954D01*
X131443568Y-72797954D01*
X132872139Y-72297954D02*
X133372139Y-73797954D01*
X133872139Y-72297954D01*
X135157854Y-73797954D02*
X134300711Y-73797954D01*
X134729282Y-73797954D02*
X134729282Y-72297954D01*
X134586425Y-72512240D01*
X134443568Y-72655097D01*
X134300711Y-72726525D01*
X135800711Y-73655097D02*
X135872139Y-73726525D01*
X135800711Y-73797954D01*
X135729282Y-73726525D01*
X135800711Y-73655097D01*
X135800711Y-73797954D01*
X136443568Y-72440811D02*
X136514996Y-72369383D01*
X136657854Y-72297954D01*
X137014996Y-72297954D01*
X137157854Y-72369383D01*
X137229282Y-72440811D01*
X137300711Y-72583668D01*
X137300711Y-72726525D01*
X137229282Y-72940811D01*
X136372139Y-73797954D01*
X137300711Y-73797954D01*
X137586425Y-73940811D02*
X138729282Y-73940811D01*
X139014996Y-73726525D02*
X139229282Y-73797954D01*
X139586425Y-73797954D01*
X139729282Y-73726525D01*
X139800711Y-73655097D01*
X139872139Y-73512240D01*
X139872139Y-73369383D01*
X139800711Y-73226525D01*
X139729282Y-73155097D01*
X139586425Y-73083668D01*
X139300711Y-73012240D01*
X139157854Y-72940811D01*
X139086425Y-72869383D01*
X139014996Y-72726525D01*
X139014996Y-72583668D01*
X139086425Y-72440811D01*
X139157854Y-72369383D01*
X139300711Y-72297954D01*
X139657854Y-72297954D01*
X139872139Y-72369383D01*
X140514996Y-73797954D02*
X140514996Y-72297954D01*
X141014996Y-73369383D01*
X141514996Y-72297954D01*
X141514996Y-73797954D01*
X142229282Y-73797954D02*
X142229282Y-72297954D01*
X142586425Y-72297954D01*
X142800711Y-72369383D01*
X142943568Y-72512240D01*
X143014996Y-72655097D01*
X143086425Y-72940811D01*
X143086425Y-73155097D01*
X143014996Y-73440811D01*
X142943568Y-73583668D01*
X142800711Y-73726525D01*
X142586425Y-73797954D01*
X142229282Y-73797954D01*
X124800711Y-74847954D02*
X125086425Y-74847954D01*
X125229282Y-74919383D01*
X125372139Y-75062240D01*
X125443568Y-75347954D01*
X125443568Y-75847954D01*
X125372139Y-76133668D01*
X125229282Y-76276525D01*
X125086425Y-76347954D01*
X124800711Y-76347954D01*
X124657854Y-76276525D01*
X124514996Y-76133668D01*
X124443568Y-75847954D01*
X124443568Y-75347954D01*
X124514996Y-75062240D01*
X124657854Y-74919383D01*
X124800711Y-74847954D01*
X125943568Y-76347954D02*
X126729282Y-75347954D01*
X125943568Y-75347954D02*
X126729282Y-76347954D01*
X127157854Y-75347954D02*
X127514996Y-76347954D01*
X127872139Y-75347954D02*
X127514996Y-76347954D01*
X127372139Y-76705097D01*
X127300711Y-76776525D01*
X127157854Y-76847954D01*
X128300711Y-75347954D02*
X128657854Y-76347954D01*
X129014996Y-75347954D01*
X129586425Y-76347954D02*
X129586425Y-75347954D01*
X129586425Y-74847954D02*
X129514996Y-74919383D01*
X129586425Y-74990811D01*
X129657854Y-74919383D01*
X129586425Y-74847954D01*
X129586425Y-74990811D01*
X130086425Y-75347954D02*
X130657854Y-75347954D01*
X130300711Y-74847954D02*
X130300711Y-76133668D01*
X130372139Y-76276525D01*
X130514996Y-76347954D01*
X130657854Y-76347954D01*
X131800711Y-76347954D02*
X131800711Y-75562240D01*
X131729282Y-75419383D01*
X131586425Y-75347954D01*
X131300711Y-75347954D01*
X131157854Y-75419383D01*
X131800711Y-76276525D02*
X131657854Y-76347954D01*
X131300711Y-76347954D01*
X131157854Y-76276525D01*
X131086425Y-76133668D01*
X131086425Y-75990811D01*
X131157854Y-75847954D01*
X131300711Y-75776525D01*
X131657854Y-75776525D01*
X131800711Y-75705097D01*
X123229282Y-77469383D02*
X123086425Y-77397954D01*
X122872139Y-77397954D01*
X122657854Y-77469383D01*
X122514996Y-77612240D01*
X122443568Y-77755097D01*
X122372139Y-78040811D01*
X122372139Y-78255097D01*
X122443568Y-78540811D01*
X122514996Y-78683668D01*
X122657854Y-78826525D01*
X122872139Y-78897954D01*
X123014996Y-78897954D01*
X123229282Y-78826525D01*
X123300711Y-78755097D01*
X123300711Y-78255097D01*
X123014996Y-78255097D01*
X123943568Y-78897954D02*
X123943568Y-77397954D01*
X124800711Y-78897954D01*
X124800711Y-77397954D01*
X125514996Y-77397954D02*
X125514996Y-78612240D01*
X125586425Y-78755097D01*
X125657854Y-78826525D01*
X125800711Y-78897954D01*
X126086425Y-78897954D01*
X126229282Y-78826525D01*
X126300711Y-78755097D01*
X126372139Y-78612240D01*
X126372139Y-77397954D01*
X127086425Y-78326525D02*
X128229282Y-78326525D01*
X129729282Y-77469383D02*
X129586425Y-77397954D01*
X129372139Y-77397954D01*
X129157854Y-77469383D01*
X129014996Y-77612240D01*
X128943568Y-77755097D01*
X128872139Y-78040811D01*
X128872139Y-78255097D01*
X128943568Y-78540811D01*
X129014996Y-78683668D01*
X129157854Y-78826525D01*
X129372139Y-78897954D01*
X129514996Y-78897954D01*
X129729282Y-78826525D01*
X129800711Y-78755097D01*
X129800711Y-78255097D01*
X129514996Y-78255097D01*
X130443568Y-78897954D02*
X130443568Y-77397954D01*
X131014996Y-77397954D01*
X131157854Y-77469383D01*
X131229282Y-77540811D01*
X131300711Y-77683668D01*
X131300711Y-77897954D01*
X131229282Y-78040811D01*
X131157854Y-78112240D01*
X131014996Y-78183668D01*
X130443568Y-78183668D01*
X132657854Y-78897954D02*
X131943568Y-78897954D01*
X131943568Y-77397954D01*
X133086425Y-77540811D02*
X133157854Y-77469383D01*
X133300711Y-77397954D01*
X133657854Y-77397954D01*
X133800711Y-77469383D01*
X133872139Y-77540811D01*
X133943568Y-77683668D01*
X133943568Y-77826525D01*
X133872139Y-78040811D01*
X133014996Y-78897954D01*
X133943568Y-78897954D01*
X141429282Y-45847954D02*
X141429282Y-44347954D01*
X142000711Y-44347954D01*
X142143568Y-44419383D01*
X142214996Y-44490811D01*
X142286425Y-44633668D01*
X142286425Y-44847954D01*
X142214996Y-44990811D01*
X142143568Y-45062240D01*
X142000711Y-45133668D01*
X141429282Y-45133668D01*
X142929282Y-45847954D02*
X142929282Y-44847954D01*
X142929282Y-45133668D02*
X143000711Y-44990811D01*
X143072139Y-44919383D01*
X143214996Y-44847954D01*
X143357854Y-44847954D01*
X144429282Y-45776525D02*
X144286425Y-45847954D01*
X144000711Y-45847954D01*
X143857854Y-45776525D01*
X143786425Y-45633668D01*
X143786425Y-45062240D01*
X143857854Y-44919383D01*
X144000711Y-44847954D01*
X144286425Y-44847954D01*
X144429282Y-44919383D01*
X144500711Y-45062240D01*
X144500711Y-45205097D01*
X143786425Y-45347954D01*
X145072139Y-45776525D02*
X145214996Y-45847954D01*
X145500711Y-45847954D01*
X145643568Y-45776525D01*
X145714996Y-45633668D01*
X145714996Y-45562240D01*
X145643568Y-45419383D01*
X145500711Y-45347954D01*
X145286425Y-45347954D01*
X145143568Y-45276525D01*
X145072139Y-45133668D01*
X145072139Y-45062240D01*
X145143568Y-44919383D01*
X145286425Y-44847954D01*
X145500711Y-44847954D01*
X145643568Y-44919383D01*
X146286425Y-45776525D02*
X146429282Y-45847954D01*
X146714996Y-45847954D01*
X146857854Y-45776525D01*
X146929282Y-45633668D01*
X146929282Y-45562240D01*
X146857854Y-45419383D01*
X146714996Y-45347954D01*
X146500711Y-45347954D01*
X146357854Y-45276525D01*
X146286425Y-45133668D01*
X146286425Y-45062240D01*
X146357854Y-44919383D01*
X146500711Y-44847954D01*
X146714996Y-44847954D01*
X146857854Y-44919383D01*
X147572139Y-45062240D02*
X148072139Y-45062240D01*
X148286425Y-45847954D02*
X147572139Y-45847954D01*
X147572139Y-44347954D01*
X148286425Y-44347954D01*
X148786425Y-45847954D02*
X149572139Y-44847954D01*
X148786425Y-44847954D02*
X149572139Y-45847954D01*
X149929282Y-44847954D02*
X150500711Y-44847954D01*
X150143568Y-44347954D02*
X150143568Y-45633668D01*
X150214996Y-45776525D01*
X150357854Y-45847954D01*
X150500711Y-45847954D01*
X141779282Y-112347954D02*
X141779282Y-110847954D01*
X142350711Y-110847954D01*
X142493568Y-110919383D01*
X142564996Y-110990811D01*
X142636425Y-111133668D01*
X142636425Y-111347954D01*
X142564996Y-111490811D01*
X142493568Y-111562240D01*
X142350711Y-111633668D01*
X141779282Y-111633668D01*
X143279282Y-112347954D02*
X143279282Y-111347954D01*
X143279282Y-111633668D02*
X143350711Y-111490811D01*
X143422139Y-111419383D01*
X143564996Y-111347954D01*
X143707854Y-111347954D01*
X144779282Y-112276525D02*
X144636425Y-112347954D01*
X144350711Y-112347954D01*
X144207854Y-112276525D01*
X144136425Y-112133668D01*
X144136425Y-111562240D01*
X144207854Y-111419383D01*
X144350711Y-111347954D01*
X144636425Y-111347954D01*
X144779282Y-111419383D01*
X144850711Y-111562240D01*
X144850711Y-111705097D01*
X144136425Y-111847954D01*
X145422139Y-112276525D02*
X145564996Y-112347954D01*
X145850711Y-112347954D01*
X145993568Y-112276525D01*
X146064996Y-112133668D01*
X146064996Y-112062240D01*
X145993568Y-111919383D01*
X145850711Y-111847954D01*
X145636425Y-111847954D01*
X145493568Y-111776525D01*
X145422139Y-111633668D01*
X145422139Y-111562240D01*
X145493568Y-111419383D01*
X145636425Y-111347954D01*
X145850711Y-111347954D01*
X145993568Y-111419383D01*
X146636425Y-112276525D02*
X146779282Y-112347954D01*
X147064996Y-112347954D01*
X147207854Y-112276525D01*
X147279282Y-112133668D01*
X147279282Y-112062240D01*
X147207854Y-111919383D01*
X147064996Y-111847954D01*
X146850711Y-111847954D01*
X146707854Y-111776525D01*
X146636425Y-111633668D01*
X146636425Y-111562240D01*
X146707854Y-111419383D01*
X146850711Y-111347954D01*
X147064996Y-111347954D01*
X147207854Y-111419383D01*
X147922139Y-112347954D02*
X147922139Y-110847954D01*
X148636425Y-111347954D02*
X148636425Y-112347954D01*
X148636425Y-111490811D02*
X148707854Y-111419383D01*
X148850711Y-111347954D01*
X149064996Y-111347954D01*
X149207854Y-111419383D01*
X149279282Y-111562240D01*
X149279282Y-112347954D01*
X149779282Y-111347954D02*
X150350711Y-111347954D01*
X149993568Y-110847954D02*
X149993568Y-112133668D01*
X150064996Y-112276525D01*
X150207854Y-112347954D01*
X150350711Y-112347954D01*
X144664996Y-96062240D02*
X144164996Y-96062240D01*
X144164996Y-96847954D02*
X144164996Y-95347954D01*
X144879282Y-95347954D01*
X145664996Y-96847954D02*
X145522139Y-96776525D01*
X145450711Y-96633668D01*
X145450711Y-95347954D01*
X146450711Y-96847954D02*
X146307854Y-96776525D01*
X146236425Y-96705097D01*
X146164996Y-96562240D01*
X146164996Y-96133668D01*
X146236425Y-95990811D01*
X146307854Y-95919383D01*
X146450711Y-95847954D01*
X146664996Y-95847954D01*
X146807854Y-95919383D01*
X146879282Y-95990811D01*
X146950711Y-96133668D01*
X146950711Y-96562240D01*
X146879282Y-96705097D01*
X146807854Y-96776525D01*
X146664996Y-96847954D01*
X146450711Y-96847954D01*
X147450711Y-95847954D02*
X147736425Y-96847954D01*
X148022139Y-96133668D01*
X148307854Y-96847954D01*
X148593568Y-95847954D01*
X144664996Y-75062240D02*
X144164996Y-75062240D01*
X144164996Y-75847954D02*
X144164996Y-74347954D01*
X144879282Y-74347954D01*
X145664996Y-75847954D02*
X145522139Y-75776525D01*
X145450711Y-75633668D01*
X145450711Y-74347954D01*
X146450711Y-75847954D02*
X146307854Y-75776525D01*
X146236425Y-75705097D01*
X146164996Y-75562240D01*
X146164996Y-75133668D01*
X146236425Y-74990811D01*
X146307854Y-74919383D01*
X146450711Y-74847954D01*
X146664996Y-74847954D01*
X146807854Y-74919383D01*
X146879282Y-74990811D01*
X146950711Y-75133668D01*
X146950711Y-75562240D01*
X146879282Y-75705097D01*
X146807854Y-75776525D01*
X146664996Y-75847954D01*
X146450711Y-75847954D01*
X147450711Y-74847954D02*
X147736425Y-75847954D01*
X148022139Y-75133668D01*
X148307854Y-75847954D01*
X148593568Y-74847954D01*
X44972139Y-42376525D02*
X45186425Y-42447954D01*
X45543568Y-42447954D01*
X45686425Y-42376525D01*
X45757854Y-42305097D01*
X45829282Y-42162240D01*
X45829282Y-42019383D01*
X45757854Y-41876525D01*
X45686425Y-41805097D01*
X45543568Y-41733668D01*
X45257854Y-41662240D01*
X45114996Y-41590811D01*
X45043568Y-41519383D01*
X44972139Y-41376525D01*
X44972139Y-41233668D01*
X45043568Y-41090811D01*
X45114996Y-41019383D01*
X45257854Y-40947954D01*
X45614996Y-40947954D01*
X45829282Y-41019383D01*
X46257854Y-40947954D02*
X46757854Y-42447954D01*
X47257854Y-40947954D01*
X48543568Y-42447954D02*
X47686425Y-42447954D01*
X48114996Y-42447954D02*
X48114996Y-40947954D01*
X47972139Y-41162240D01*
X47829282Y-41305097D01*
X47686425Y-41376525D01*
X85722139Y-93876525D02*
X85936425Y-93947954D01*
X86293568Y-93947954D01*
X86436425Y-93876525D01*
X86507854Y-93805097D01*
X86579282Y-93662240D01*
X86579282Y-93519383D01*
X86507854Y-93376525D01*
X86436425Y-93305097D01*
X86293568Y-93233668D01*
X86007854Y-93162240D01*
X85864996Y-93090811D01*
X85793568Y-93019383D01*
X85722139Y-92876525D01*
X85722139Y-92733668D01*
X85793568Y-92590811D01*
X85864996Y-92519383D01*
X86007854Y-92447954D01*
X86364996Y-92447954D01*
X86579282Y-92519383D01*
X87007854Y-92447954D02*
X87507854Y-93947954D01*
X88007854Y-92447954D01*
X88436425Y-92590811D02*
X88507854Y-92519383D01*
X88650711Y-92447954D01*
X89007854Y-92447954D01*
X89150711Y-92519383D01*
X89222139Y-92590811D01*
X89293568Y-92733668D01*
X89293568Y-92876525D01*
X89222139Y-93090811D01*
X88364996Y-93947954D01*
X89293568Y-93947954D01*
X58672139Y-92426525D02*
X58886425Y-92497954D01*
X59243568Y-92497954D01*
X59386425Y-92426525D01*
X59457854Y-92355097D01*
X59529282Y-92212240D01*
X59529282Y-92069383D01*
X59457854Y-91926525D01*
X59386425Y-91855097D01*
X59243568Y-91783668D01*
X58957854Y-91712240D01*
X58814996Y-91640811D01*
X58743568Y-91569383D01*
X58672139Y-91426525D01*
X58672139Y-91283668D01*
X58743568Y-91140811D01*
X58814996Y-91069383D01*
X58957854Y-90997954D01*
X59314996Y-90997954D01*
X59529282Y-91069383D01*
X59957854Y-90997954D02*
X60457854Y-92497954D01*
X60957854Y-90997954D01*
X61314996Y-90997954D02*
X62243568Y-90997954D01*
X61743568Y-91569383D01*
X61957854Y-91569383D01*
X62100711Y-91640811D01*
X62172139Y-91712240D01*
X62243568Y-91855097D01*
X62243568Y-92212240D01*
X62172139Y-92355097D01*
X62100711Y-92426525D01*
X61957854Y-92497954D01*
X61529282Y-92497954D01*
X61386425Y-92426525D01*
X61314996Y-92355097D01*
X43772139Y-91576525D02*
X43986425Y-91647954D01*
X44343568Y-91647954D01*
X44486425Y-91576525D01*
X44557854Y-91505097D01*
X44629282Y-91362240D01*
X44629282Y-91219383D01*
X44557854Y-91076525D01*
X44486425Y-91005097D01*
X44343568Y-90933668D01*
X44057854Y-90862240D01*
X43914996Y-90790811D01*
X43843568Y-90719383D01*
X43772139Y-90576525D01*
X43772139Y-90433668D01*
X43843568Y-90290811D01*
X43914996Y-90219383D01*
X44057854Y-90147954D01*
X44414996Y-90147954D01*
X44629282Y-90219383D01*
X45057854Y-90147954D02*
X45557854Y-91647954D01*
X46057854Y-90147954D01*
X47200711Y-90647954D02*
X47200711Y-91647954D01*
X46843568Y-90076525D02*
X46486425Y-91147954D01*
X47414996Y-91147954D01*
X48236425Y-91076525D02*
X49379282Y-91076525D01*
X48807854Y-91647954D02*
X48807854Y-90505097D01*
X62936425Y-91176525D02*
X64079282Y-91176525D01*
X63507854Y-91747954D02*
X63507854Y-90605097D01*
X77536425Y-91226525D02*
X78679282Y-91226525D01*
X78107854Y-91797954D02*
X78107854Y-90655097D01*
X59529282Y-78947954D02*
X58672139Y-78947954D01*
X59100711Y-78947954D02*
X59100711Y-77447954D01*
X58957854Y-77662240D01*
X58814996Y-77805097D01*
X58672139Y-77876525D01*
X60100711Y-77590811D02*
X60172139Y-77519383D01*
X60314996Y-77447954D01*
X60672139Y-77447954D01*
X60814996Y-77519383D01*
X60886425Y-77590811D01*
X60957854Y-77733668D01*
X60957854Y-77876525D01*
X60886425Y-78090811D01*
X60029282Y-78947954D01*
X60957854Y-78947954D01*
X61386425Y-77447954D02*
X61886425Y-78947954D01*
X62386425Y-77447954D01*
X55836425Y-78326525D02*
X56979282Y-78326525D01*
X56407854Y-78897954D02*
X56407854Y-77755097D01*
X59386425Y-41776525D02*
X60529282Y-41776525D01*
X59957854Y-42347954D02*
X59957854Y-41205097D01*
X52436425Y-41776525D02*
X53579282Y-41776525D01*
X53007854Y-42347954D02*
X53007854Y-41205097D01*
D11*
X96515554Y-102453283D02*
X96515554Y-102878283D01*
X101735554Y-97658283D02*
X101310554Y-97658283D01*
X101735554Y-98083283D02*
X101735554Y-97658283D01*
X101735554Y-102878283D02*
X101310554Y-102878283D01*
X101735554Y-102453283D02*
X101735554Y-102878283D01*
X96515554Y-97658283D02*
X96940554Y-97658283D01*
X96515554Y-98083283D02*
X96515554Y-97658283D01*
X97639054Y-53589283D02*
X97214054Y-53589283D01*
X102434054Y-58809283D02*
X102434054Y-58384283D01*
X102009054Y-58809283D02*
X102434054Y-58809283D01*
X97214054Y-58809283D02*
X97214054Y-58384283D01*
X97639054Y-58809283D02*
X97214054Y-58809283D01*
X102434054Y-53589283D02*
X102434054Y-54014283D01*
X102009054Y-53589283D02*
X102434054Y-53589283D01*
X120187854Y-84039383D02*
X120187854Y-85369383D01*
X118857854Y-84039383D02*
X120187854Y-84039383D01*
X117587854Y-84039383D02*
X117587854Y-86699383D01*
X117587854Y-86699383D02*
X79427854Y-86699383D01*
X117587854Y-84039383D02*
X79427854Y-84039383D01*
X79427854Y-84039383D02*
X79427854Y-86699383D01*
X71839854Y-48455383D02*
X71839854Y-47125383D01*
X71839854Y-47125383D02*
X73169854Y-47125383D01*
X76839854Y-48805383D02*
G75*
G03X76839854Y-48805383I-3000000J0D01*
G01*
X71089854Y-45755383D02*
X71089854Y-46355383D01*
X71089854Y-46055383D02*
X71389854Y-46055383D01*
X71389854Y-46055383D02*
X70789854Y-46055383D01*
X102565254Y-66175316D02*
X102565254Y-66517850D01*
X103585254Y-66175316D02*
X103585254Y-66517850D01*
X131607854Y-84869383D02*
X131607854Y-86369383D01*
X132857854Y-88869383D02*
X137357854Y-88869383D01*
X138607854Y-86369383D02*
X138607854Y-84869383D01*
X137357854Y-82369383D02*
X132857854Y-82369383D01*
X37079754Y-36828983D02*
X37079754Y-38328983D01*
X38329754Y-40828983D02*
X42829754Y-40828983D01*
X44079754Y-38328983D02*
X44079754Y-36828983D01*
X42829754Y-34328983D02*
X38329754Y-34328983D01*
X105248954Y-66517850D02*
X105248954Y-66175316D01*
X104228954Y-66517850D02*
X104228954Y-66175316D01*
X107807190Y-66926383D02*
X109011318Y-66926383D01*
X107807190Y-65106383D02*
X109011318Y-65106383D01*
X90974154Y-78419083D02*
X92434154Y-78419083D01*
X90974154Y-81579083D02*
X93134154Y-81579083D01*
X90974154Y-81579083D02*
X90974154Y-80649083D01*
X90974154Y-78419083D02*
X90974154Y-79349083D01*
X72354494Y-37893623D02*
X70894494Y-37893623D01*
X72354494Y-34733623D02*
X70194494Y-34733623D01*
X72354494Y-34733623D02*
X72354494Y-35663623D01*
X72354494Y-37893623D02*
X72354494Y-36963623D01*
X94107854Y-88969383D02*
X91507854Y-88969383D01*
X94107854Y-89269383D02*
X94107854Y-88969383D01*
X89007854Y-89269383D02*
X94107854Y-89269383D01*
X89007854Y-89169383D02*
X89007854Y-89269383D01*
X91607854Y-88969383D02*
X91907854Y-89069383D01*
X89007854Y-88969383D02*
X91607854Y-88969383D01*
X89007854Y-89069383D02*
X89007854Y-88969383D01*
X94107854Y-89069383D02*
X89007854Y-89069383D01*
X94107854Y-88869383D02*
X94107854Y-89069383D01*
X89007854Y-88869383D02*
X94107854Y-88869383D01*
X89007854Y-89169383D02*
X89007854Y-88869383D01*
X94107854Y-89169383D02*
X89007854Y-89169383D01*
X88977854Y-91599383D02*
X88977854Y-90269383D01*
X90307854Y-91599383D02*
X88977854Y-91599383D01*
X91577854Y-91599383D02*
X91577854Y-88939383D01*
X91577854Y-88939383D02*
X94177854Y-88939383D01*
X91577854Y-91599383D02*
X94177854Y-91599383D01*
X94177854Y-91599383D02*
X94177854Y-88939383D01*
X73527854Y-80789383D02*
X74627854Y-80789383D01*
X73527854Y-80519383D02*
X73527854Y-80789383D01*
X72027854Y-80519383D02*
X73527854Y-80519383D01*
X73527854Y-87149383D02*
X76357854Y-87149383D01*
X73527854Y-87419383D02*
X73527854Y-87149383D01*
X72027854Y-87419383D02*
X73527854Y-87419383D01*
X58186587Y-114179383D02*
X58529121Y-114179383D01*
X58186587Y-113159383D02*
X58529121Y-113159383D01*
X56057854Y-112879383D02*
X50047854Y-112879383D01*
X53807854Y-106059383D02*
X50047854Y-106059383D01*
X50047854Y-112879383D02*
X50047854Y-111619383D01*
X50047854Y-106059383D02*
X50047854Y-107319383D01*
X53457854Y-100489383D02*
X55657854Y-100489383D01*
X53457854Y-98319383D02*
X53457854Y-100489383D01*
X55657854Y-98319383D02*
X55657854Y-100489383D01*
X53457854Y-98319383D02*
X55657854Y-98319383D01*
X49927854Y-94419383D02*
X49927854Y-93089383D01*
X49927854Y-93089383D02*
X51257854Y-93089383D01*
D12*
G36*
X55657854Y-94219383D02*
G01*
X53457854Y-94219383D01*
X53457854Y-93319383D01*
X55657854Y-93319383D01*
X55657854Y-94219383D01*
G37*
X55657854Y-94219383D02*
X53457854Y-94219383D01*
X53457854Y-93319383D01*
X55657854Y-93319383D01*
X55657854Y-94219383D01*
D11*
X52189225Y-98119383D02*
G75*
G03X52189225Y-98119383I-1131371J0D01*
G01*
X48060654Y-92669983D02*
X48619454Y-92136583D01*
X48619454Y-92136583D02*
X56061654Y-92136583D01*
X56061654Y-92136583D02*
X56061654Y-103896783D01*
X56061654Y-103896783D02*
X48060654Y-103896783D01*
X48060654Y-103896783D02*
X48060654Y-92669983D01*
X47407854Y-94519383D02*
X47407854Y-102069383D01*
X43107854Y-94519383D02*
X43107854Y-102069383D01*
X47407854Y-94519383D02*
X43107854Y-94519383D01*
X51955790Y-91079383D02*
X53159918Y-91079383D01*
X51955790Y-89259383D02*
X53159918Y-89259383D01*
X44247854Y-107867319D02*
X44247854Y-109071447D01*
X46067854Y-107867319D02*
X46067854Y-109071447D01*
X81988174Y-49191743D02*
X78538174Y-49191743D01*
X81988174Y-49191743D02*
X83938174Y-49191743D01*
X81988174Y-54311743D02*
X80038174Y-54311743D01*
X81988174Y-54311743D02*
X83938174Y-54311743D01*
X119597854Y-87849383D02*
X120177854Y-87849383D01*
X117297854Y-87849383D02*
X117817854Y-87849383D01*
X114937854Y-87849383D02*
X115518854Y-87849383D01*
X118797854Y-93089383D02*
X120177854Y-93089383D01*
X114937854Y-93089383D02*
X116317854Y-93089383D01*
X120177854Y-93089383D02*
X120177854Y-87849383D01*
X114937854Y-93089383D02*
X114937854Y-87849383D01*
X118397854Y-43249383D02*
X118977854Y-43249383D01*
X116097854Y-43249383D02*
X116617854Y-43249383D01*
X113737854Y-43249383D02*
X114318854Y-43249383D01*
X117597854Y-48489383D02*
X118977854Y-48489383D01*
X113737854Y-48489383D02*
X115117854Y-48489383D01*
X118977854Y-48489383D02*
X118977854Y-43249383D01*
X113737854Y-48489383D02*
X113737854Y-43249383D01*
X75893627Y-36859183D02*
X76236161Y-36859183D01*
X75893627Y-35839183D02*
X76236161Y-35839183D01*
X108765014Y-47352943D02*
X106165014Y-47352943D01*
X108765014Y-47652943D02*
X108765014Y-47352943D01*
X103665014Y-47652943D02*
X108765014Y-47652943D01*
X103665014Y-47552943D02*
X103665014Y-47652943D01*
X106265014Y-47352943D02*
X106565014Y-47452943D01*
X103665014Y-47352943D02*
X106265014Y-47352943D01*
X103665014Y-47452943D02*
X103665014Y-47352943D01*
X108765014Y-47452943D02*
X103665014Y-47452943D01*
X108765014Y-47252943D02*
X108765014Y-47452943D01*
X103665014Y-47252943D02*
X108765014Y-47252943D01*
X103665014Y-47552943D02*
X103665014Y-47252943D01*
X108765014Y-47552943D02*
X103665014Y-47552943D01*
X103635014Y-49982943D02*
X103635014Y-48652943D01*
X104965014Y-49982943D02*
X103635014Y-49982943D01*
X106235014Y-49982943D02*
X106235014Y-47322943D01*
X106235014Y-47322943D02*
X108835014Y-47322943D01*
X106235014Y-49982943D02*
X108835014Y-49982943D01*
X108835014Y-49982943D02*
X108835014Y-47322943D01*
X70541854Y-112879383D02*
X64531854Y-112879383D01*
X68291854Y-106059383D02*
X64531854Y-106059383D01*
X64531854Y-112879383D02*
X64531854Y-111619383D01*
X64531854Y-106059383D02*
X64531854Y-107319383D01*
X85025854Y-112879383D02*
X79015854Y-112879383D01*
X82775854Y-106059383D02*
X79015854Y-106059383D01*
X79015854Y-112879383D02*
X79015854Y-111619383D01*
X79015854Y-106059383D02*
X79015854Y-107319383D01*
X52002254Y-56399503D02*
X52002254Y-62409503D01*
X45182254Y-58649503D02*
X45182254Y-62409503D01*
X52002254Y-62409503D02*
X50742254Y-62409503D01*
X45182254Y-62409503D02*
X46442254Y-62409503D01*
X65589854Y-65057383D02*
X65589854Y-66157383D01*
X65859854Y-65057383D02*
X65589854Y-65057383D01*
X65859854Y-63557383D02*
X65859854Y-65057383D01*
X59229854Y-65057383D02*
X59229854Y-67887383D01*
X58959854Y-65057383D02*
X59229854Y-65057383D01*
X58959854Y-63557383D02*
X58959854Y-65057383D01*
X163281854Y-86940383D02*
X163295854Y-87947383D01*
X162279854Y-86931383D02*
X163281854Y-86940383D01*
X163295854Y-87947383D02*
X162279854Y-86931383D01*
X169976054Y-91579583D02*
X169976054Y-88531583D01*
X169976054Y-88531583D02*
X163626054Y-88531583D01*
X163626054Y-91579583D02*
X169976054Y-91579583D01*
X169950654Y-93941783D02*
X163600654Y-93941783D01*
X169950654Y-96989783D02*
X169950654Y-93941783D01*
X163600654Y-96989783D02*
X169950654Y-96989783D01*
X151498854Y-95313383D02*
X151498854Y-98733383D01*
X151498854Y-98733383D02*
X151788854Y-98733383D01*
X151498854Y-90360383D02*
X151498854Y-86940383D01*
X151498854Y-86940383D02*
X151788854Y-86940383D01*
X163281854Y-95313383D02*
X163281854Y-98733383D01*
X163281854Y-98733383D02*
X162991854Y-98733383D01*
X163281854Y-90360383D02*
X163281854Y-86940383D01*
X163281854Y-86940383D02*
X162991854Y-86940383D01*
X163281854Y-108940383D02*
X163295854Y-109947383D01*
X162279854Y-108931383D02*
X163281854Y-108940383D01*
X163295854Y-109947383D02*
X162279854Y-108931383D01*
X169976054Y-113579583D02*
X169976054Y-110531583D01*
X169976054Y-110531583D02*
X163626054Y-110531583D01*
X163626054Y-113579583D02*
X169976054Y-113579583D01*
X169950654Y-115941783D02*
X163600654Y-115941783D01*
X169950654Y-118989783D02*
X169950654Y-115941783D01*
X163600654Y-118989783D02*
X169950654Y-118989783D01*
X151498854Y-117313383D02*
X151498854Y-120733383D01*
X151498854Y-120733383D02*
X151788854Y-120733383D01*
X151498854Y-112360383D02*
X151498854Y-108940383D01*
X151498854Y-108940383D02*
X151788854Y-108940383D01*
X163281854Y-117313383D02*
X163281854Y-120733383D01*
X163281854Y-120733383D02*
X162991854Y-120733383D01*
X163281854Y-112360383D02*
X163281854Y-108940383D01*
X163281854Y-108940383D02*
X162991854Y-108940383D01*
X163281854Y-42940383D02*
X163295854Y-43947383D01*
X162279854Y-42931383D02*
X163281854Y-42940383D01*
X163295854Y-43947383D02*
X162279854Y-42931383D01*
X169976054Y-47579583D02*
X169976054Y-44531583D01*
X169976054Y-44531583D02*
X163626054Y-44531583D01*
X163626054Y-47579583D02*
X169976054Y-47579583D01*
X169950654Y-49941783D02*
X163600654Y-49941783D01*
X169950654Y-52989783D02*
X169950654Y-49941783D01*
X163600654Y-52989783D02*
X169950654Y-52989783D01*
X151498854Y-51313383D02*
X151498854Y-54733383D01*
X151498854Y-54733383D02*
X151788854Y-54733383D01*
X151498854Y-46360383D02*
X151498854Y-42940383D01*
X151498854Y-42940383D02*
X151788854Y-42940383D01*
X163281854Y-51313383D02*
X163281854Y-54733383D01*
X163281854Y-54733383D02*
X162991854Y-54733383D01*
X163281854Y-46360383D02*
X163281854Y-42940383D01*
X163281854Y-42940383D02*
X162991854Y-42940383D01*
X163281854Y-64940383D02*
X163295854Y-65947383D01*
X162279854Y-64931383D02*
X163281854Y-64940383D01*
X163295854Y-65947383D02*
X162279854Y-64931383D01*
X169976054Y-69579583D02*
X169976054Y-66531583D01*
X169976054Y-66531583D02*
X163626054Y-66531583D01*
X163626054Y-69579583D02*
X169976054Y-69579583D01*
X169950654Y-71941783D02*
X163600654Y-71941783D01*
X169950654Y-74989783D02*
X169950654Y-71941783D01*
X163600654Y-74989783D02*
X169950654Y-74989783D01*
X151498854Y-73313383D02*
X151498854Y-76733383D01*
X151498854Y-76733383D02*
X151788854Y-76733383D01*
X151498854Y-68360383D02*
X151498854Y-64940383D01*
X151498854Y-64940383D02*
X151788854Y-64940383D01*
X163281854Y-73313383D02*
X163281854Y-76733383D01*
X163281854Y-76733383D02*
X162991854Y-76733383D01*
X163281854Y-68360383D02*
X163281854Y-64940383D01*
X163281854Y-64940383D02*
X162991854Y-64940383D01*
X81386587Y-80579383D02*
X81729121Y-80579383D01*
X81386587Y-79559383D02*
X81729121Y-79559383D01*
X87836587Y-82679383D02*
X88179121Y-82679383D01*
X87836587Y-81659383D02*
X88179121Y-81659383D01*
X83986587Y-82679383D02*
X84329121Y-82679383D01*
X83986587Y-81659383D02*
X84329121Y-81659383D01*
X73797761Y-38917663D02*
X73455227Y-38917663D01*
X73797761Y-39937663D02*
X73455227Y-39937663D01*
X77724601Y-38943063D02*
X77382067Y-38943063D01*
X77724601Y-39963063D02*
X77382067Y-39963063D01*
X54787854Y-118550116D02*
X54787854Y-118892650D01*
X55807854Y-118550116D02*
X55807854Y-118892650D01*
X93829121Y-92709383D02*
X93486587Y-92709383D01*
X93829121Y-93729383D02*
X93486587Y-93729383D01*
X125867854Y-123040650D02*
X125867854Y-122698116D01*
X124847854Y-123040650D02*
X124847854Y-122698116D01*
X35367854Y-37540650D02*
X35367854Y-37198116D01*
X34347854Y-37540650D02*
X34347854Y-37198116D01*
X70281854Y-118550116D02*
X70281854Y-118892650D01*
X71301854Y-118550116D02*
X71301854Y-118892650D01*
X31886587Y-113829383D02*
X32229121Y-113829383D01*
X31886587Y-112809383D02*
X32229121Y-112809383D01*
X36136587Y-125829383D02*
X36479121Y-125829383D01*
X36136587Y-124809383D02*
X36479121Y-124809383D01*
X149867854Y-85915650D02*
X149867854Y-85573116D01*
X148847854Y-85915650D02*
X148847854Y-85573116D01*
X111139121Y-97479383D02*
X110796587Y-97479383D01*
X111139121Y-98499383D02*
X110796587Y-98499383D01*
X110796587Y-100277383D02*
X111139121Y-100277383D01*
X110796587Y-99257383D02*
X111139121Y-99257383D01*
X73186587Y-114079383D02*
X73529121Y-114079383D01*
X73186587Y-113059383D02*
X73529121Y-113059383D01*
X76427574Y-63266650D02*
X76427574Y-62924116D01*
X75407574Y-63266650D02*
X75407574Y-62924116D01*
X76407254Y-67315410D02*
X76407254Y-66972876D01*
X75387254Y-67315410D02*
X75387254Y-66972876D01*
X32186587Y-73279383D02*
X32529121Y-73279383D01*
X32186587Y-72259383D02*
X32529121Y-72259383D01*
X116763854Y-118550116D02*
X116763854Y-118892650D01*
X117783854Y-118550116D02*
X117783854Y-118892650D01*
X101269854Y-118550116D02*
X101269854Y-118892650D01*
X102289854Y-118550116D02*
X102289854Y-118892650D01*
X85775854Y-118296116D02*
X85775854Y-118638650D01*
X86795854Y-118296116D02*
X86795854Y-118638650D01*
X31786587Y-88879383D02*
X32129121Y-88879383D01*
X31786587Y-87859383D02*
X32129121Y-87859383D01*
X31786587Y-101929383D02*
X32129121Y-101929383D01*
X31786587Y-100909383D02*
X32129121Y-100909383D01*
X115586587Y-100179383D02*
X115929121Y-100179383D01*
X115586587Y-99159383D02*
X115929121Y-99159383D01*
X35947854Y-73398116D02*
X35947854Y-73740650D01*
X36967854Y-73398116D02*
X36967854Y-73740650D01*
X121947854Y-102298116D02*
X121947854Y-102640650D01*
X122967854Y-102298116D02*
X122967854Y-102640650D01*
X87286587Y-114079383D02*
X87629121Y-114079383D01*
X87286587Y-113059383D02*
X87629121Y-113059383D01*
X149186587Y-107379383D02*
X149529121Y-107379383D01*
X149186587Y-106359383D02*
X149529121Y-106359383D01*
X135528681Y-35427703D02*
X135186147Y-35427703D01*
X135528681Y-36447703D02*
X135186147Y-36447703D01*
X134638747Y-44880503D02*
X134981281Y-44880503D01*
X134638747Y-43860503D02*
X134981281Y-43860503D01*
X132222294Y-47104996D02*
X132222294Y-47447530D01*
X133242294Y-47104996D02*
X133242294Y-47447530D01*
X134665774Y-62151956D02*
X134665774Y-62494490D01*
X135685774Y-62151956D02*
X135685774Y-62494490D01*
X130337614Y-49650076D02*
X130337614Y-49992610D01*
X131357614Y-49650076D02*
X131357614Y-49992610D01*
X149186587Y-42379383D02*
X149529121Y-42379383D01*
X149186587Y-41359383D02*
X149529121Y-41359383D01*
X52171654Y-67628196D02*
X52171654Y-67970730D01*
X53191654Y-67628196D02*
X53191654Y-67970730D01*
X78511454Y-56238836D02*
X78511454Y-56581370D01*
X79531454Y-56238836D02*
X79531454Y-56581370D01*
X82220401Y-55310823D02*
X81877867Y-55310823D01*
X82220401Y-56330823D02*
X81877867Y-56330823D01*
X82179761Y-57866063D02*
X81837227Y-57866063D01*
X82179761Y-58886063D02*
X81837227Y-58886063D01*
X87696094Y-50574636D02*
X87696094Y-50917170D01*
X88716094Y-50574636D02*
X88716094Y-50917170D01*
X148070267Y-56935343D02*
X148412801Y-56935343D01*
X148070267Y-55915343D02*
X148412801Y-55915343D01*
X91137854Y-95289383D02*
X91137854Y-96619383D01*
X89807854Y-95289383D02*
X91137854Y-95289383D01*
X88537854Y-95289383D02*
X88537854Y-97949383D01*
X88537854Y-97949383D02*
X85937854Y-97949383D01*
X88537854Y-95289383D02*
X85937854Y-95289383D01*
X85937854Y-95289383D02*
X85937854Y-97949383D01*
X95627854Y-91599383D02*
X95627854Y-90269383D01*
X96957854Y-91599383D02*
X95627854Y-91599383D01*
X98227854Y-91599383D02*
X98227854Y-88939383D01*
X98227854Y-88939383D02*
X103367854Y-88939383D01*
X98227854Y-91599383D02*
X103367854Y-91599383D01*
X103367854Y-91599383D02*
X103367854Y-88939383D01*
X67883854Y-100489383D02*
X70083854Y-100489383D01*
X67883854Y-98319383D02*
X67883854Y-100489383D01*
X70083854Y-98319383D02*
X70083854Y-100489383D01*
X67883854Y-98319383D02*
X70083854Y-98319383D01*
X64353854Y-94419383D02*
X64353854Y-93089383D01*
X64353854Y-93089383D02*
X65683854Y-93089383D01*
D12*
G36*
X70083854Y-94219383D02*
G01*
X67883854Y-94219383D01*
X67883854Y-93319383D01*
X70083854Y-93319383D01*
X70083854Y-94219383D01*
G37*
X70083854Y-94219383D02*
X67883854Y-94219383D01*
X67883854Y-93319383D01*
X70083854Y-93319383D01*
X70083854Y-94219383D01*
D11*
X66615225Y-98119383D02*
G75*
G03X66615225Y-98119383I-1131371J0D01*
G01*
X62486654Y-92669983D02*
X63045454Y-92136583D01*
X63045454Y-92136583D02*
X70487654Y-92136583D01*
X70487654Y-92136583D02*
X70487654Y-103896783D01*
X70487654Y-103896783D02*
X62486654Y-103896783D01*
X62486654Y-103896783D02*
X62486654Y-92669983D01*
X82309854Y-100489383D02*
X84509854Y-100489383D01*
X82309854Y-98319383D02*
X82309854Y-100489383D01*
X84509854Y-98319383D02*
X84509854Y-100489383D01*
X82309854Y-98319383D02*
X84509854Y-98319383D01*
X78779854Y-94419383D02*
X78779854Y-93089383D01*
X78779854Y-93089383D02*
X80109854Y-93089383D01*
D12*
G36*
X84509854Y-94219383D02*
G01*
X82309854Y-94219383D01*
X82309854Y-93319383D01*
X84509854Y-93319383D01*
X84509854Y-94219383D01*
G37*
X84509854Y-94219383D02*
X82309854Y-94219383D01*
X82309854Y-93319383D01*
X84509854Y-93319383D01*
X84509854Y-94219383D01*
D11*
X81041225Y-98119383D02*
G75*
G03X81041225Y-98119383I-1131371J0D01*
G01*
X76912654Y-92669983D02*
X77471454Y-92136583D01*
X77471454Y-92136583D02*
X84913654Y-92136583D01*
X84913654Y-92136583D02*
X84913654Y-103896783D01*
X84913654Y-103896783D02*
X76912654Y-103896783D01*
X76912654Y-103896783D02*
X76912654Y-92669983D01*
X60427854Y-82269383D02*
X60427854Y-80069383D01*
X58257854Y-82269383D02*
X60427854Y-82269383D01*
X58257854Y-80069383D02*
X60427854Y-80069383D01*
X58257854Y-82269383D02*
X58257854Y-80069383D01*
X54357854Y-85799383D02*
X53027854Y-85799383D01*
X53027854Y-85799383D02*
X53027854Y-84469383D01*
D12*
G36*
X54157854Y-80069383D02*
G01*
X54157854Y-82269383D01*
X53257854Y-82269383D01*
X53257854Y-80069383D01*
X54157854Y-80069383D01*
G37*
X54157854Y-80069383D02*
X54157854Y-82269383D01*
X53257854Y-82269383D01*
X53257854Y-80069383D01*
X54157854Y-80069383D01*
D11*
X59189225Y-84669383D02*
G75*
G03X59189225Y-84669383I-1131371J0D01*
G01*
X52608454Y-87666583D02*
X52075054Y-87107783D01*
X52075054Y-87107783D02*
X52075054Y-79665583D01*
X52075054Y-79665583D02*
X63835254Y-79665583D01*
X63835254Y-79665583D02*
X63835254Y-87666583D01*
X63835254Y-87666583D02*
X52608454Y-87666583D01*
X111122934Y-58024583D02*
X111122934Y-56694583D01*
X112452934Y-58024583D02*
X111122934Y-58024583D01*
X113722934Y-58024583D02*
X113722934Y-55364583D01*
X113722934Y-55364583D02*
X118862934Y-55364583D01*
X113722934Y-58024583D02*
X118862934Y-58024583D01*
X118862934Y-58024583D02*
X118862934Y-55364583D01*
X61350974Y-46512983D02*
X59150974Y-46512983D01*
X61350974Y-48682983D02*
X61350974Y-46512983D01*
X59150974Y-48682983D02*
X59150974Y-46512983D01*
X61350974Y-48682983D02*
X59150974Y-48682983D01*
X64880974Y-52582983D02*
X64880974Y-53912983D01*
X64880974Y-53912983D02*
X63550974Y-53912983D01*
D12*
G36*
X59150974Y-52782983D02*
G01*
X61350974Y-52782983D01*
X61350974Y-53682983D01*
X59150974Y-53682983D01*
X59150974Y-52782983D01*
G37*
X59150974Y-52782983D02*
X61350974Y-52782983D01*
X61350974Y-53682983D01*
X59150974Y-53682983D01*
X59150974Y-52782983D01*
D11*
X64882345Y-48882983D02*
G75*
G03X64882345Y-48882983I-1131371J0D01*
G01*
X66748174Y-54332383D02*
X66189374Y-54865783D01*
X66189374Y-54865783D02*
X58747174Y-54865783D01*
X58747174Y-54865783D02*
X58747174Y-43105583D01*
X58747174Y-43105583D02*
X66748174Y-43105583D01*
X66748174Y-43105583D02*
X66748174Y-54332383D01*
X49666974Y-46512983D02*
X47466974Y-46512983D01*
X49666974Y-48682983D02*
X49666974Y-46512983D01*
X47466974Y-48682983D02*
X47466974Y-46512983D01*
X49666974Y-48682983D02*
X47466974Y-48682983D01*
X53196974Y-52582983D02*
X53196974Y-53912983D01*
X53196974Y-53912983D02*
X51866974Y-53912983D01*
D12*
G36*
X47466974Y-52782983D02*
G01*
X49666974Y-52782983D01*
X49666974Y-53682983D01*
X47466974Y-53682983D01*
X47466974Y-52782983D01*
G37*
X47466974Y-52782983D02*
X49666974Y-52782983D01*
X49666974Y-53682983D01*
X47466974Y-53682983D01*
X47466974Y-52782983D01*
D11*
X53198345Y-48882983D02*
G75*
G03X53198345Y-48882983I-1131371J0D01*
G01*
X55064174Y-54332383D02*
X54505374Y-54865783D01*
X54505374Y-54865783D02*
X47063174Y-54865783D01*
X47063174Y-54865783D02*
X47063174Y-43105583D01*
X47063174Y-43105583D02*
X55064174Y-43105583D01*
X55064174Y-43105583D02*
X55064174Y-54332383D01*
X73703854Y-57483383D02*
X73703854Y-65033383D01*
X69403854Y-57483383D02*
X69403854Y-65033383D01*
X73703854Y-57483383D02*
X69403854Y-57483383D01*
X61812854Y-94519383D02*
X61812854Y-102069383D01*
X57512854Y-94519383D02*
X57512854Y-102069383D01*
X61812854Y-94519383D02*
X57512854Y-94519383D01*
X76217854Y-94519383D02*
X76217854Y-102069383D01*
X71917854Y-94519383D02*
X71917854Y-102069383D01*
X76217854Y-94519383D02*
X71917854Y-94519383D01*
X41275894Y-55235223D02*
X41275894Y-47685223D01*
X45575894Y-55235223D02*
X45575894Y-47685223D01*
X41275894Y-55235223D02*
X45575894Y-55235223D01*
X99659918Y-106759383D02*
X98455790Y-106759383D01*
X99659918Y-108579383D02*
X98455790Y-108579383D01*
X105359918Y-92559383D02*
X104155790Y-92559383D01*
X105359918Y-94379383D02*
X104155790Y-94379383D01*
X76897854Y-82967319D02*
X76897854Y-84171447D01*
X78717854Y-82967319D02*
X78717854Y-84171447D01*
X148447854Y-90267319D02*
X148447854Y-91471447D01*
X150267854Y-90267319D02*
X150267854Y-91471447D01*
X110807918Y-94539383D02*
X109603790Y-94539383D01*
X110807918Y-96359383D02*
X109603790Y-96359383D01*
X66455790Y-91079383D02*
X67659918Y-91079383D01*
X66455790Y-89259383D02*
X67659918Y-89259383D01*
X81055790Y-91079383D02*
X82259918Y-91079383D01*
X81055790Y-89259383D02*
X82259918Y-89259383D01*
X58647854Y-107667319D02*
X58647854Y-108871447D01*
X60467854Y-107667319D02*
X60467854Y-108871447D01*
X73147854Y-107767319D02*
X73147854Y-108971447D01*
X74967854Y-107767319D02*
X74967854Y-108971447D01*
X93967854Y-57271447D02*
X93967854Y-56067319D01*
X92147854Y-57271447D02*
X92147854Y-56067319D01*
X106880090Y-62176583D02*
X108084218Y-62176583D01*
X106880090Y-60356583D02*
X108084218Y-60356583D01*
X157959918Y-102959383D02*
X156755790Y-102959383D01*
X157959918Y-104779383D02*
X156755790Y-104779383D01*
X144447854Y-107267319D02*
X144447854Y-108471447D01*
X146267854Y-107267319D02*
X146267854Y-108471447D01*
X157959918Y-80959383D02*
X156755790Y-80959383D01*
X157959918Y-82779383D02*
X156755790Y-82779383D01*
X117055790Y-82379383D02*
X118259918Y-82379383D01*
X117055790Y-80559383D02*
X118259918Y-80559383D01*
X49682854Y-75714608D02*
X49182854Y-75714608D01*
X49432854Y-75464608D02*
X49432854Y-75964608D01*
X48241854Y-80870383D02*
X47673854Y-80870383D01*
X48475854Y-80830383D02*
X47439854Y-80830383D01*
X48634854Y-80790383D02*
X47280854Y-80790383D01*
X48762854Y-80750383D02*
X47152854Y-80750383D01*
X48872854Y-80710383D02*
X47042854Y-80710383D01*
X48968854Y-80670383D02*
X46946854Y-80670383D01*
X49055854Y-80630383D02*
X46859854Y-80630383D01*
X49135854Y-80590383D02*
X46779854Y-80590383D01*
X49208854Y-80550383D02*
X46706854Y-80550383D01*
X49276854Y-80510383D02*
X46638854Y-80510383D01*
X49340854Y-80470383D02*
X46574854Y-80470383D01*
X49400854Y-80430383D02*
X46514854Y-80430383D01*
X49457854Y-80390383D02*
X46457854Y-80390383D01*
X49511854Y-80350383D02*
X46403854Y-80350383D01*
X49562854Y-80310383D02*
X46352854Y-80310383D01*
X46917854Y-80270383D02*
X46304854Y-80270383D01*
X49610854Y-80270383D02*
X48997854Y-80270383D01*
X46917854Y-80230383D02*
X46258854Y-80230383D01*
X49656854Y-80230383D02*
X48997854Y-80230383D01*
X46917854Y-80190383D02*
X46214854Y-80190383D01*
X49700854Y-80190383D02*
X48997854Y-80190383D01*
X46917854Y-80150383D02*
X46172854Y-80150383D01*
X49742854Y-80150383D02*
X48997854Y-80150383D01*
X46917854Y-80110383D02*
X46131854Y-80110383D01*
X49783854Y-80110383D02*
X48997854Y-80110383D01*
X46917854Y-80070383D02*
X46093854Y-80070383D01*
X49821854Y-80070383D02*
X48997854Y-80070383D01*
X46917854Y-80030383D02*
X46056854Y-80030383D01*
X49858854Y-80030383D02*
X48997854Y-80030383D01*
X46917854Y-79990383D02*
X46020854Y-79990383D01*
X49894854Y-79990383D02*
X48997854Y-79990383D01*
X46917854Y-79950383D02*
X45986854Y-79950383D01*
X49928854Y-79950383D02*
X48997854Y-79950383D01*
X46917854Y-79910383D02*
X45953854Y-79910383D01*
X49961854Y-79910383D02*
X48997854Y-79910383D01*
X46917854Y-79870383D02*
X45922854Y-79870383D01*
X49992854Y-79870383D02*
X48997854Y-79870383D01*
X46917854Y-79830383D02*
X45892854Y-79830383D01*
X50022854Y-79830383D02*
X48997854Y-79830383D01*
X46917854Y-79790383D02*
X45862854Y-79790383D01*
X50052854Y-79790383D02*
X48997854Y-79790383D01*
X46917854Y-79750383D02*
X45835854Y-79750383D01*
X50079854Y-79750383D02*
X48997854Y-79750383D01*
X46917854Y-79710383D02*
X45808854Y-79710383D01*
X50106854Y-79710383D02*
X48997854Y-79710383D01*
X46917854Y-79670383D02*
X45782854Y-79670383D01*
X50132854Y-79670383D02*
X48997854Y-79670383D01*
X46917854Y-79630383D02*
X45757854Y-79630383D01*
X50157854Y-79630383D02*
X48997854Y-79630383D01*
X46917854Y-79590383D02*
X45733854Y-79590383D01*
X50181854Y-79590383D02*
X48997854Y-79590383D01*
X46917854Y-79550383D02*
X45710854Y-79550383D01*
X50204854Y-79550383D02*
X48997854Y-79550383D01*
X46917854Y-79510383D02*
X45689854Y-79510383D01*
X50225854Y-79510383D02*
X48997854Y-79510383D01*
X46917854Y-79470383D02*
X45667854Y-79470383D01*
X50247854Y-79470383D02*
X48997854Y-79470383D01*
X46917854Y-79430383D02*
X45647854Y-79430383D01*
X50267854Y-79430383D02*
X48997854Y-79430383D01*
X46917854Y-79390383D02*
X45628854Y-79390383D01*
X50286854Y-79390383D02*
X48997854Y-79390383D01*
X46917854Y-79350383D02*
X45609854Y-79350383D01*
X50305854Y-79350383D02*
X48997854Y-79350383D01*
X46917854Y-79310383D02*
X45592854Y-79310383D01*
X50322854Y-79310383D02*
X48997854Y-79310383D01*
X46917854Y-79270383D02*
X45575854Y-79270383D01*
X50339854Y-79270383D02*
X48997854Y-79270383D01*
X46917854Y-79230383D02*
X45559854Y-79230383D01*
X50355854Y-79230383D02*
X48997854Y-79230383D01*
X46917854Y-79190383D02*
X45543854Y-79190383D01*
X50371854Y-79190383D02*
X48997854Y-79190383D01*
X46917854Y-79150383D02*
X45529854Y-79150383D01*
X50385854Y-79150383D02*
X48997854Y-79150383D01*
X46917854Y-79110383D02*
X45515854Y-79110383D01*
X50399854Y-79110383D02*
X48997854Y-79110383D01*
X46917854Y-79070383D02*
X45502854Y-79070383D01*
X50412854Y-79070383D02*
X48997854Y-79070383D01*
X46917854Y-79030383D02*
X45489854Y-79030383D01*
X50425854Y-79030383D02*
X48997854Y-79030383D01*
X46917854Y-78990383D02*
X45477854Y-78990383D01*
X50437854Y-78990383D02*
X48997854Y-78990383D01*
X46917854Y-78949383D02*
X45466854Y-78949383D01*
X50448854Y-78949383D02*
X48997854Y-78949383D01*
X46917854Y-78909383D02*
X45456854Y-78909383D01*
X50458854Y-78909383D02*
X48997854Y-78909383D01*
X46917854Y-78869383D02*
X45446854Y-78869383D01*
X50468854Y-78869383D02*
X48997854Y-78869383D01*
X46917854Y-78829383D02*
X45437854Y-78829383D01*
X50477854Y-78829383D02*
X48997854Y-78829383D01*
X46917854Y-78789383D02*
X45429854Y-78789383D01*
X50485854Y-78789383D02*
X48997854Y-78789383D01*
X46917854Y-78749383D02*
X45421854Y-78749383D01*
X50493854Y-78749383D02*
X48997854Y-78749383D01*
X46917854Y-78709383D02*
X45414854Y-78709383D01*
X50500854Y-78709383D02*
X48997854Y-78709383D01*
X46917854Y-78669383D02*
X45407854Y-78669383D01*
X50507854Y-78669383D02*
X48997854Y-78669383D01*
X46917854Y-78629383D02*
X45401854Y-78629383D01*
X50513854Y-78629383D02*
X48997854Y-78629383D01*
X46917854Y-78589383D02*
X45396854Y-78589383D01*
X50518854Y-78589383D02*
X48997854Y-78589383D01*
X46917854Y-78549383D02*
X45392854Y-78549383D01*
X50522854Y-78549383D02*
X48997854Y-78549383D01*
X46917854Y-78509383D02*
X45388854Y-78509383D01*
X50526854Y-78509383D02*
X48997854Y-78509383D01*
X46917854Y-78469383D02*
X45384854Y-78469383D01*
X50530854Y-78469383D02*
X48997854Y-78469383D01*
X46917854Y-78429383D02*
X45381854Y-78429383D01*
X50533854Y-78429383D02*
X48997854Y-78429383D01*
X46917854Y-78389383D02*
X45379854Y-78389383D01*
X50535854Y-78389383D02*
X48997854Y-78389383D01*
X46917854Y-78349383D02*
X45378854Y-78349383D01*
X50536854Y-78349383D02*
X48997854Y-78349383D01*
X50537854Y-78309383D02*
X48997854Y-78309383D01*
X46917854Y-78309383D02*
X45377854Y-78309383D01*
X50537854Y-78269383D02*
X48997854Y-78269383D01*
X46917854Y-78269383D02*
X45377854Y-78269383D01*
X50577854Y-78269383D02*
G75*
G03X50577854Y-78269383I-2620000J0D01*
G01*
X74759918Y-88459383D02*
X73555790Y-88459383D01*
X74759918Y-90279383D02*
X73555790Y-90279383D01*
X156959918Y-35959383D02*
X155755790Y-35959383D01*
X156959918Y-37779383D02*
X155755790Y-37779383D01*
X132306254Y-42610367D02*
X132306254Y-41406239D01*
X130486254Y-42610367D02*
X130486254Y-41406239D01*
X107045954Y-56915647D02*
X107045954Y-55711519D01*
X105225954Y-56915647D02*
X105225954Y-55711519D01*
X148359054Y-52496047D02*
X148359054Y-51291919D01*
X146539054Y-52496047D02*
X146539054Y-51291919D01*
X115655790Y-41145383D02*
X116859918Y-41145383D01*
X115655790Y-39325383D02*
X116859918Y-39325383D01*
X58102694Y-65810727D02*
X58102694Y-64606599D01*
X56282694Y-65810727D02*
X56282694Y-64606599D01*
X82590238Y-45573783D02*
X81386110Y-45573783D01*
X82590238Y-47393783D02*
X81386110Y-47393783D01*
X53295654Y-58363279D02*
X53295654Y-59567407D01*
X55115654Y-58363279D02*
X55115654Y-59567407D01*
X61109079Y-36224383D02*
X61109079Y-36724383D01*
X60859079Y-36474383D02*
X61359079Y-36474383D01*
X66264854Y-37665383D02*
X66264854Y-38233383D01*
X66224854Y-37431383D02*
X66224854Y-38467383D01*
X66184854Y-37272383D02*
X66184854Y-38626383D01*
X66144854Y-37144383D02*
X66144854Y-38754383D01*
X66104854Y-37034383D02*
X66104854Y-38864383D01*
X66064854Y-36938383D02*
X66064854Y-38960383D01*
X66024854Y-36851383D02*
X66024854Y-39047383D01*
X65984854Y-36771383D02*
X65984854Y-39127383D01*
X65944854Y-36698383D02*
X65944854Y-39200383D01*
X65904854Y-36630383D02*
X65904854Y-39268383D01*
X65864854Y-36566383D02*
X65864854Y-39332383D01*
X65824854Y-36506383D02*
X65824854Y-39392383D01*
X65784854Y-36449383D02*
X65784854Y-39449383D01*
X65744854Y-36395383D02*
X65744854Y-39503383D01*
X65704854Y-36344383D02*
X65704854Y-39554383D01*
X65664854Y-38989383D02*
X65664854Y-39602383D01*
X65664854Y-36296383D02*
X65664854Y-36909383D01*
X65624854Y-38989383D02*
X65624854Y-39648383D01*
X65624854Y-36250383D02*
X65624854Y-36909383D01*
X65584854Y-38989383D02*
X65584854Y-39692383D01*
X65584854Y-36206383D02*
X65584854Y-36909383D01*
X65544854Y-38989383D02*
X65544854Y-39734383D01*
X65544854Y-36164383D02*
X65544854Y-36909383D01*
X65504854Y-38989383D02*
X65504854Y-39775383D01*
X65504854Y-36123383D02*
X65504854Y-36909383D01*
X65464854Y-38989383D02*
X65464854Y-39813383D01*
X65464854Y-36085383D02*
X65464854Y-36909383D01*
X65424854Y-38989383D02*
X65424854Y-39850383D01*
X65424854Y-36048383D02*
X65424854Y-36909383D01*
X65384854Y-38989383D02*
X65384854Y-39886383D01*
X65384854Y-36012383D02*
X65384854Y-36909383D01*
X65344854Y-38989383D02*
X65344854Y-39920383D01*
X65344854Y-35978383D02*
X65344854Y-36909383D01*
X65304854Y-38989383D02*
X65304854Y-39953383D01*
X65304854Y-35945383D02*
X65304854Y-36909383D01*
X65264854Y-38989383D02*
X65264854Y-39984383D01*
X65264854Y-35914383D02*
X65264854Y-36909383D01*
X65224854Y-38989383D02*
X65224854Y-40014383D01*
X65224854Y-35884383D02*
X65224854Y-36909383D01*
X65184854Y-38989383D02*
X65184854Y-40044383D01*
X65184854Y-35854383D02*
X65184854Y-36909383D01*
X65144854Y-38989383D02*
X65144854Y-40071383D01*
X65144854Y-35827383D02*
X65144854Y-36909383D01*
X65104854Y-38989383D02*
X65104854Y-40098383D01*
X65104854Y-35800383D02*
X65104854Y-36909383D01*
X65064854Y-38989383D02*
X65064854Y-40124383D01*
X65064854Y-35774383D02*
X65064854Y-36909383D01*
X65024854Y-38989383D02*
X65024854Y-40149383D01*
X65024854Y-35749383D02*
X65024854Y-36909383D01*
X64984854Y-38989383D02*
X64984854Y-40173383D01*
X64984854Y-35725383D02*
X64984854Y-36909383D01*
X64944854Y-38989383D02*
X64944854Y-40196383D01*
X64944854Y-35702383D02*
X64944854Y-36909383D01*
X64904854Y-38989383D02*
X64904854Y-40217383D01*
X64904854Y-35681383D02*
X64904854Y-36909383D01*
X64864854Y-38989383D02*
X64864854Y-40239383D01*
X64864854Y-35659383D02*
X64864854Y-36909383D01*
X64824854Y-38989383D02*
X64824854Y-40259383D01*
X64824854Y-35639383D02*
X64824854Y-36909383D01*
X64784854Y-38989383D02*
X64784854Y-40278383D01*
X64784854Y-35620383D02*
X64784854Y-36909383D01*
X64744854Y-38989383D02*
X64744854Y-40297383D01*
X64744854Y-35601383D02*
X64744854Y-36909383D01*
X64704854Y-38989383D02*
X64704854Y-40314383D01*
X64704854Y-35584383D02*
X64704854Y-36909383D01*
X64664854Y-38989383D02*
X64664854Y-40331383D01*
X64664854Y-35567383D02*
X64664854Y-36909383D01*
X64624854Y-38989383D02*
X64624854Y-40347383D01*
X64624854Y-35551383D02*
X64624854Y-36909383D01*
X64584854Y-38989383D02*
X64584854Y-40363383D01*
X64584854Y-35535383D02*
X64584854Y-36909383D01*
X64544854Y-38989383D02*
X64544854Y-40377383D01*
X64544854Y-35521383D02*
X64544854Y-36909383D01*
X64504854Y-38989383D02*
X64504854Y-40391383D01*
X64504854Y-35507383D02*
X64504854Y-36909383D01*
X64464854Y-38989383D02*
X64464854Y-40404383D01*
X64464854Y-35494383D02*
X64464854Y-36909383D01*
X64424854Y-38989383D02*
X64424854Y-40417383D01*
X64424854Y-35481383D02*
X64424854Y-36909383D01*
X64384854Y-38989383D02*
X64384854Y-40429383D01*
X64384854Y-35469383D02*
X64384854Y-36909383D01*
X64343854Y-38989383D02*
X64343854Y-40440383D01*
X64343854Y-35458383D02*
X64343854Y-36909383D01*
X64303854Y-38989383D02*
X64303854Y-40450383D01*
X64303854Y-35448383D02*
X64303854Y-36909383D01*
X64263854Y-38989383D02*
X64263854Y-40460383D01*
X64263854Y-35438383D02*
X64263854Y-36909383D01*
X64223854Y-38989383D02*
X64223854Y-40469383D01*
X64223854Y-35429383D02*
X64223854Y-36909383D01*
X64183854Y-38989383D02*
X64183854Y-40477383D01*
X64183854Y-35421383D02*
X64183854Y-36909383D01*
X64143854Y-38989383D02*
X64143854Y-40485383D01*
X64143854Y-35413383D02*
X64143854Y-36909383D01*
X64103854Y-38989383D02*
X64103854Y-40492383D01*
X64103854Y-35406383D02*
X64103854Y-36909383D01*
X64063854Y-38989383D02*
X64063854Y-40499383D01*
X64063854Y-35399383D02*
X64063854Y-36909383D01*
X64023854Y-38989383D02*
X64023854Y-40505383D01*
X64023854Y-35393383D02*
X64023854Y-36909383D01*
X63983854Y-38989383D02*
X63983854Y-40510383D01*
X63983854Y-35388383D02*
X63983854Y-36909383D01*
X63943854Y-38989383D02*
X63943854Y-40514383D01*
X63943854Y-35384383D02*
X63943854Y-36909383D01*
X63903854Y-38989383D02*
X63903854Y-40518383D01*
X63903854Y-35380383D02*
X63903854Y-36909383D01*
X63863854Y-38989383D02*
X63863854Y-40522383D01*
X63863854Y-35376383D02*
X63863854Y-36909383D01*
X63823854Y-38989383D02*
X63823854Y-40525383D01*
X63823854Y-35373383D02*
X63823854Y-36909383D01*
X63783854Y-38989383D02*
X63783854Y-40527383D01*
X63783854Y-35371383D02*
X63783854Y-36909383D01*
X63743854Y-38989383D02*
X63743854Y-40528383D01*
X63743854Y-35370383D02*
X63743854Y-36909383D01*
X63703854Y-35369383D02*
X63703854Y-36909383D01*
X63703854Y-38989383D02*
X63703854Y-40529383D01*
X63663854Y-35369383D02*
X63663854Y-36909383D01*
X63663854Y-38989383D02*
X63663854Y-40529383D01*
X66283854Y-37949383D02*
G75*
G03X66283854Y-37949383I-2620000J0D01*
G01*
X145008198Y-66127463D02*
X143804070Y-66127463D01*
X145008198Y-67947463D02*
X143804070Y-67947463D01*
X87299398Y-55347703D02*
X86095270Y-55347703D01*
X87299398Y-57167703D02*
X86095270Y-57167703D01*
X42206014Y-58083879D02*
X42206014Y-59288007D01*
X44026014Y-58083879D02*
X44026014Y-59288007D01*
X157959918Y-58959383D02*
X156755790Y-58959383D01*
X157959918Y-60779383D02*
X156755790Y-60779383D01*
X120187854Y-35039383D02*
X120187854Y-36369383D01*
X118857854Y-35039383D02*
X120187854Y-35039383D01*
X117587854Y-35039383D02*
X117587854Y-37699383D01*
X117587854Y-37699383D02*
X79427854Y-37699383D01*
X117587854Y-35039383D02*
X79427854Y-35039383D01*
X79427854Y-35039383D02*
X79427854Y-37699383D01*
D13*
X94777934Y-101030187D02*
X95587458Y-101030187D01*
X95682696Y-100982568D01*
X95730315Y-100934949D01*
X95777934Y-100839711D01*
X95777934Y-100649235D01*
X95730315Y-100553997D01*
X95682696Y-100506378D01*
X95587458Y-100458759D01*
X94777934Y-100458759D01*
X94777934Y-99506378D02*
X94777934Y-99982568D01*
X95254125Y-100030187D01*
X95206506Y-99982568D01*
X95158887Y-99887330D01*
X95158887Y-99649235D01*
X95206506Y-99553997D01*
X95254125Y-99506378D01*
X95349363Y-99458759D01*
X95587458Y-99458759D01*
X95682696Y-99506378D01*
X95730315Y-99553997D01*
X95777934Y-99649235D01*
X95777934Y-99887330D01*
X95730315Y-99982568D01*
X95682696Y-100030187D01*
X99062149Y-51851663D02*
X99062149Y-52661187D01*
X99109768Y-52756425D01*
X99157387Y-52804044D01*
X99252625Y-52851663D01*
X99443101Y-52851663D01*
X99538339Y-52804044D01*
X99585958Y-52756425D01*
X99633577Y-52661187D01*
X99633577Y-51851663D01*
X100014530Y-51851663D02*
X100633577Y-51851663D01*
X100300244Y-52232616D01*
X100443101Y-52232616D01*
X100538339Y-52280235D01*
X100585958Y-52327854D01*
X100633577Y-52423092D01*
X100633577Y-52661187D01*
X100585958Y-52756425D01*
X100538339Y-52804044D01*
X100443101Y-52851663D01*
X100157387Y-52851663D01*
X100062149Y-52804044D01*
X100014530Y-52756425D01*
X117333949Y-82281763D02*
X117333949Y-83091287D01*
X117381568Y-83186525D01*
X117429187Y-83234144D01*
X117524425Y-83281763D01*
X117714901Y-83281763D01*
X117810139Y-83234144D01*
X117857758Y-83186525D01*
X117905377Y-83091287D01*
X117905377Y-82281763D01*
X118810139Y-82281763D02*
X118619663Y-82281763D01*
X118524425Y-82329383D01*
X118476806Y-82377002D01*
X118381568Y-82519859D01*
X118333949Y-82710335D01*
X118333949Y-83091287D01*
X118381568Y-83186525D01*
X118429187Y-83234144D01*
X118524425Y-83281763D01*
X118714901Y-83281763D01*
X118810139Y-83234144D01*
X118857758Y-83186525D01*
X118905377Y-83091287D01*
X118905377Y-82853192D01*
X118857758Y-82757954D01*
X118810139Y-82710335D01*
X118714901Y-82662716D01*
X118524425Y-82662716D01*
X118429187Y-82710335D01*
X118381568Y-82757954D01*
X118333949Y-82853192D01*
X72880330Y-45157763D02*
X72880330Y-44157763D01*
X73213663Y-44872049D01*
X73546996Y-44157763D01*
X73546996Y-45157763D01*
X74023187Y-45157763D02*
X74023187Y-44157763D01*
X74594615Y-45157763D02*
X74166044Y-44586335D01*
X74594615Y-44157763D02*
X74023187Y-44729192D01*
X75546996Y-45157763D02*
X74975568Y-45157763D01*
X75261282Y-45157763D02*
X75261282Y-44157763D01*
X75166044Y-44300621D01*
X75070806Y-44395859D01*
X74975568Y-44443478D01*
X160295949Y-123321763D02*
X160867377Y-123321763D01*
X160581663Y-124321763D02*
X160581663Y-123321763D01*
X161200711Y-124321763D02*
X161200711Y-123321763D01*
X161581663Y-123321763D01*
X161676901Y-123369383D01*
X161724520Y-123417002D01*
X161772139Y-123512240D01*
X161772139Y-123655097D01*
X161724520Y-123750335D01*
X161676901Y-123797954D01*
X161581663Y-123845573D01*
X161200711Y-123845573D01*
X162629282Y-123655097D02*
X162629282Y-124321763D01*
X162391187Y-123274144D02*
X162153092Y-123988430D01*
X162772139Y-123988430D01*
X30295949Y-33321763D02*
X30867377Y-33321763D01*
X30581663Y-34321763D02*
X30581663Y-33321763D01*
X31200711Y-34321763D02*
X31200711Y-33321763D01*
X31581663Y-33321763D01*
X31676901Y-33369383D01*
X31724520Y-33417002D01*
X31772139Y-33512240D01*
X31772139Y-33655097D01*
X31724520Y-33750335D01*
X31676901Y-33797954D01*
X31581663Y-33845573D01*
X31200711Y-33845573D01*
X32105473Y-33321763D02*
X32724520Y-33321763D01*
X32391187Y-33702716D01*
X32534044Y-33702716D01*
X32629282Y-33750335D01*
X32676901Y-33797954D01*
X32724520Y-33893192D01*
X32724520Y-34131287D01*
X32676901Y-34226525D01*
X32629282Y-34274144D01*
X32534044Y-34321763D01*
X32248330Y-34321763D01*
X32153092Y-34274144D01*
X32105473Y-34226525D01*
X30295949Y-123321763D02*
X30867377Y-123321763D01*
X30581663Y-124321763D02*
X30581663Y-123321763D01*
X31200711Y-124321763D02*
X31200711Y-123321763D01*
X31581663Y-123321763D01*
X31676901Y-123369383D01*
X31724520Y-123417002D01*
X31772139Y-123512240D01*
X31772139Y-123655097D01*
X31724520Y-123750335D01*
X31676901Y-123797954D01*
X31581663Y-123845573D01*
X31200711Y-123845573D01*
X32153092Y-123417002D02*
X32200711Y-123369383D01*
X32295949Y-123321763D01*
X32534044Y-123321763D01*
X32629282Y-123369383D01*
X32676901Y-123417002D01*
X32724520Y-123512240D01*
X32724520Y-123607478D01*
X32676901Y-123750335D01*
X32105473Y-124321763D01*
X32724520Y-124321763D01*
X160295949Y-33321763D02*
X160867377Y-33321763D01*
X160581663Y-34321763D02*
X160581663Y-33321763D01*
X161200711Y-34321763D02*
X161200711Y-33321763D01*
X161581663Y-33321763D01*
X161676901Y-33369383D01*
X161724520Y-33417002D01*
X161772139Y-33512240D01*
X161772139Y-33655097D01*
X161724520Y-33750335D01*
X161676901Y-33797954D01*
X161581663Y-33845573D01*
X161200711Y-33845573D01*
X162724520Y-34321763D02*
X162153092Y-34321763D01*
X162438806Y-34321763D02*
X162438806Y-33321763D01*
X162343568Y-33464621D01*
X162248330Y-33559859D01*
X162153092Y-33607478D01*
X105114996Y-69421763D02*
X104781663Y-68945573D01*
X104543568Y-69421763D02*
X104543568Y-68421763D01*
X104924520Y-68421763D01*
X105019758Y-68469383D01*
X105067377Y-68517002D01*
X105114996Y-68612240D01*
X105114996Y-68755097D01*
X105067377Y-68850335D01*
X105019758Y-68897954D01*
X104924520Y-68945573D01*
X104543568Y-68945573D01*
X105448330Y-68421763D02*
X106067377Y-68421763D01*
X105734044Y-68802716D01*
X105876901Y-68802716D01*
X105972139Y-68850335D01*
X106019758Y-68897954D01*
X106067377Y-68993192D01*
X106067377Y-69231287D01*
X106019758Y-69326525D01*
X105972139Y-69374144D01*
X105876901Y-69421763D01*
X105591187Y-69421763D01*
X105495949Y-69374144D01*
X105448330Y-69326525D01*
X106924520Y-68755097D02*
X106924520Y-69421763D01*
X106686425Y-68374144D02*
X106448330Y-69088430D01*
X107067377Y-69088430D01*
X133298330Y-90274144D02*
X133441187Y-90321763D01*
X133679282Y-90321763D01*
X133774520Y-90274144D01*
X133822139Y-90226525D01*
X133869758Y-90131287D01*
X133869758Y-90036049D01*
X133822139Y-89940811D01*
X133774520Y-89893192D01*
X133679282Y-89845573D01*
X133488806Y-89797954D01*
X133393568Y-89750335D01*
X133345949Y-89702716D01*
X133298330Y-89607478D01*
X133298330Y-89512240D01*
X133345949Y-89417002D01*
X133393568Y-89369383D01*
X133488806Y-89321763D01*
X133726901Y-89321763D01*
X133869758Y-89369383D01*
X134203092Y-89321763D02*
X134441187Y-90321763D01*
X134631663Y-89607478D01*
X134822139Y-90321763D01*
X135060234Y-89321763D01*
X135964996Y-90321763D02*
X135393568Y-90321763D01*
X135679282Y-90321763D02*
X135679282Y-89321763D01*
X135584044Y-89464621D01*
X135488806Y-89559859D01*
X135393568Y-89607478D01*
X136822139Y-89655097D02*
X136822139Y-90321763D01*
X136584044Y-89274144D02*
X136345949Y-89988430D01*
X136964996Y-89988430D01*
X132824520Y-81321763D02*
X132491187Y-80845573D01*
X132253092Y-81321763D02*
X132253092Y-80321763D01*
X132634044Y-80321763D01*
X132729282Y-80369383D01*
X132776901Y-80417002D01*
X132824520Y-80512240D01*
X132824520Y-80655097D01*
X132776901Y-80750335D01*
X132729282Y-80797954D01*
X132634044Y-80845573D01*
X132253092Y-80845573D01*
X133253092Y-80797954D02*
X133586425Y-80797954D01*
X133729282Y-81321763D02*
X133253092Y-81321763D01*
X133253092Y-80321763D01*
X133729282Y-80321763D01*
X134110234Y-81274144D02*
X134253092Y-81321763D01*
X134491187Y-81321763D01*
X134586425Y-81274144D01*
X134634044Y-81226525D01*
X134681663Y-81131287D01*
X134681663Y-81036049D01*
X134634044Y-80940811D01*
X134586425Y-80893192D01*
X134491187Y-80845573D01*
X134300711Y-80797954D01*
X134205473Y-80750335D01*
X134157854Y-80702716D01*
X134110234Y-80607478D01*
X134110234Y-80512240D01*
X134157854Y-80417002D01*
X134205473Y-80369383D01*
X134300711Y-80321763D01*
X134538806Y-80321763D01*
X134681663Y-80369383D01*
X135110234Y-80797954D02*
X135443568Y-80797954D01*
X135586425Y-81321763D02*
X135110234Y-81321763D01*
X135110234Y-80321763D01*
X135586425Y-80321763D01*
X135872139Y-80321763D02*
X136443568Y-80321763D01*
X136157854Y-81321763D02*
X136157854Y-80321763D01*
X136538806Y-81417002D02*
X137300711Y-81417002D01*
X138110234Y-81226525D02*
X138062615Y-81274144D01*
X137919758Y-81321763D01*
X137824520Y-81321763D01*
X137681663Y-81274144D01*
X137586425Y-81178906D01*
X137538806Y-81083668D01*
X137491187Y-80893192D01*
X137491187Y-80750335D01*
X137538806Y-80559859D01*
X137586425Y-80464621D01*
X137681663Y-80369383D01*
X137824520Y-80321763D01*
X137919758Y-80321763D01*
X138062615Y-80369383D01*
X138110234Y-80417002D01*
X45548330Y-40074144D02*
X45691187Y-40121763D01*
X45929282Y-40121763D01*
X46024520Y-40074144D01*
X46072139Y-40026525D01*
X46119758Y-39931287D01*
X46119758Y-39836049D01*
X46072139Y-39740811D01*
X46024520Y-39693192D01*
X45929282Y-39645573D01*
X45738806Y-39597954D01*
X45643568Y-39550335D01*
X45595949Y-39502716D01*
X45548330Y-39407478D01*
X45548330Y-39312240D01*
X45595949Y-39217002D01*
X45643568Y-39169383D01*
X45738806Y-39121763D01*
X45976901Y-39121763D01*
X46119758Y-39169383D01*
X46453092Y-39121763D02*
X46691187Y-40121763D01*
X46881663Y-39407478D01*
X47072139Y-40121763D01*
X47310234Y-39121763D01*
X48214996Y-40121763D02*
X47643568Y-40121763D01*
X47929282Y-40121763D02*
X47929282Y-39121763D01*
X47834044Y-39264621D01*
X47738806Y-39359859D01*
X47643568Y-39407478D01*
X48548330Y-39121763D02*
X49167377Y-39121763D01*
X48834044Y-39502716D01*
X48976901Y-39502716D01*
X49072139Y-39550335D01*
X49119758Y-39597954D01*
X49167377Y-39693192D01*
X49167377Y-39931287D01*
X49119758Y-40026525D01*
X49072139Y-40074144D01*
X48976901Y-40121763D01*
X48691187Y-40121763D01*
X48595949Y-40074144D01*
X48548330Y-40026525D01*
X38153092Y-42621763D02*
X37819758Y-42145573D01*
X37581663Y-42621763D02*
X37581663Y-41621763D01*
X37962615Y-41621763D01*
X38057854Y-41669383D01*
X38105473Y-41717002D01*
X38153092Y-41812240D01*
X38153092Y-41955097D01*
X38105473Y-42050335D01*
X38057854Y-42097954D01*
X37962615Y-42145573D01*
X37581663Y-42145573D01*
X38581663Y-42097954D02*
X38914996Y-42097954D01*
X39057854Y-42621763D02*
X38581663Y-42621763D01*
X38581663Y-41621763D01*
X39057854Y-41621763D01*
X39438806Y-42574144D02*
X39581663Y-42621763D01*
X39819758Y-42621763D01*
X39914996Y-42574144D01*
X39962615Y-42526525D01*
X40010234Y-42431287D01*
X40010234Y-42336049D01*
X39962615Y-42240811D01*
X39914996Y-42193192D01*
X39819758Y-42145573D01*
X39629282Y-42097954D01*
X39534044Y-42050335D01*
X39486425Y-42002716D01*
X39438806Y-41907478D01*
X39438806Y-41812240D01*
X39486425Y-41717002D01*
X39534044Y-41669383D01*
X39629282Y-41621763D01*
X39867377Y-41621763D01*
X40010234Y-41669383D01*
X40438806Y-42097954D02*
X40772139Y-42097954D01*
X40914996Y-42621763D02*
X40438806Y-42621763D01*
X40438806Y-41621763D01*
X40914996Y-41621763D01*
X41200711Y-41621763D02*
X41772139Y-41621763D01*
X41486425Y-42621763D02*
X41486425Y-41621763D01*
X41867377Y-42717002D02*
X42629282Y-42717002D01*
X42867377Y-42621763D02*
X42867377Y-41621763D01*
X43200711Y-42336049D01*
X43534044Y-41621763D01*
X43534044Y-42621763D01*
X100114996Y-67821763D02*
X99781663Y-67345573D01*
X99543568Y-67821763D02*
X99543568Y-66821763D01*
X99924520Y-66821763D01*
X100019758Y-66869383D01*
X100067377Y-66917002D01*
X100114996Y-67012240D01*
X100114996Y-67155097D01*
X100067377Y-67250335D01*
X100019758Y-67297954D01*
X99924520Y-67345573D01*
X99543568Y-67345573D01*
X100448330Y-66821763D02*
X101067377Y-66821763D01*
X100734044Y-67202716D01*
X100876901Y-67202716D01*
X100972139Y-67250335D01*
X101019758Y-67297954D01*
X101067377Y-67393192D01*
X101067377Y-67631287D01*
X101019758Y-67726525D01*
X100972139Y-67774144D01*
X100876901Y-67821763D01*
X100591187Y-67821763D01*
X100495949Y-67774144D01*
X100448330Y-67726525D01*
X101400711Y-66821763D02*
X102019758Y-66821763D01*
X101686425Y-67202716D01*
X101829282Y-67202716D01*
X101924520Y-67250335D01*
X101972139Y-67297954D01*
X102019758Y-67393192D01*
X102019758Y-67631287D01*
X101972139Y-67726525D01*
X101924520Y-67774144D01*
X101829282Y-67821763D01*
X101543568Y-67821763D01*
X101448330Y-67774144D01*
X101400711Y-67726525D01*
X107766396Y-64553525D02*
X107718777Y-64601144D01*
X107575920Y-64648763D01*
X107480682Y-64648763D01*
X107337825Y-64601144D01*
X107242587Y-64505906D01*
X107194968Y-64410668D01*
X107147349Y-64220192D01*
X107147349Y-64077335D01*
X107194968Y-63886859D01*
X107242587Y-63791621D01*
X107337825Y-63696383D01*
X107480682Y-63648763D01*
X107575920Y-63648763D01*
X107718777Y-63696383D01*
X107766396Y-63744002D01*
X108099730Y-63648763D02*
X108718777Y-63648763D01*
X108385444Y-64029716D01*
X108528301Y-64029716D01*
X108623539Y-64077335D01*
X108671158Y-64124954D01*
X108718777Y-64220192D01*
X108718777Y-64458287D01*
X108671158Y-64553525D01*
X108623539Y-64601144D01*
X108528301Y-64648763D01*
X108242587Y-64648763D01*
X108147349Y-64601144D01*
X108099730Y-64553525D01*
X109052111Y-63648763D02*
X109671158Y-63648763D01*
X109337825Y-64029716D01*
X109480682Y-64029716D01*
X109575920Y-64077335D01*
X109623539Y-64124954D01*
X109671158Y-64220192D01*
X109671158Y-64458287D01*
X109623539Y-64553525D01*
X109575920Y-64601144D01*
X109480682Y-64648763D01*
X109194968Y-64648763D01*
X109099730Y-64601144D01*
X109052111Y-64553525D01*
X94162615Y-80517002D02*
X94067377Y-80469383D01*
X93972139Y-80374144D01*
X93829282Y-80231287D01*
X93734044Y-80183668D01*
X93638806Y-80183668D01*
X93686425Y-80421763D02*
X93591187Y-80374144D01*
X93495949Y-80278906D01*
X93448330Y-80088430D01*
X93448330Y-79755097D01*
X93495949Y-79564621D01*
X93591187Y-79469383D01*
X93686425Y-79421763D01*
X93876901Y-79421763D01*
X93972139Y-79469383D01*
X94067377Y-79564621D01*
X94114996Y-79755097D01*
X94114996Y-80088430D01*
X94067377Y-80278906D01*
X93972139Y-80374144D01*
X93876901Y-80421763D01*
X93686425Y-80421763D01*
X95019758Y-79421763D02*
X94543568Y-79421763D01*
X94495949Y-79897954D01*
X94543568Y-79850335D01*
X94638806Y-79802716D01*
X94876901Y-79802716D01*
X94972139Y-79850335D01*
X95019758Y-79897954D01*
X95067377Y-79993192D01*
X95067377Y-80231287D01*
X95019758Y-80326525D01*
X94972139Y-80374144D01*
X94876901Y-80421763D01*
X94638806Y-80421763D01*
X94543568Y-80374144D01*
X94495949Y-80326525D01*
X71499255Y-34361242D02*
X71404017Y-34313623D01*
X71308779Y-34218384D01*
X71165922Y-34075527D01*
X71070684Y-34027908D01*
X70975446Y-34027908D01*
X71023065Y-34266003D02*
X70927827Y-34218384D01*
X70832589Y-34123146D01*
X70784970Y-33932670D01*
X70784970Y-33599337D01*
X70832589Y-33408861D01*
X70927827Y-33313623D01*
X71023065Y-33266003D01*
X71213541Y-33266003D01*
X71308779Y-33313623D01*
X71404017Y-33408861D01*
X71451636Y-33599337D01*
X71451636Y-33932670D01*
X71404017Y-34123146D01*
X71308779Y-34218384D01*
X71213541Y-34266003D01*
X71023065Y-34266003D01*
X72308779Y-33599337D02*
X72308779Y-34266003D01*
X72070684Y-33218384D02*
X71832589Y-33932670D01*
X72451636Y-33932670D01*
X86298330Y-88571763D02*
X86298330Y-89286049D01*
X86250711Y-89428906D01*
X86155473Y-89524144D01*
X86012615Y-89571763D01*
X85917377Y-89571763D01*
X86726901Y-88667002D02*
X86774520Y-88619383D01*
X86869758Y-88571763D01*
X87107854Y-88571763D01*
X87203092Y-88619383D01*
X87250711Y-88667002D01*
X87298330Y-88762240D01*
X87298330Y-88857478D01*
X87250711Y-89000335D01*
X86679282Y-89571763D01*
X87298330Y-89571763D01*
X88203092Y-88571763D02*
X87726901Y-88571763D01*
X87679282Y-89047954D01*
X87726901Y-89000335D01*
X87822139Y-88952716D01*
X88060234Y-88952716D01*
X88155473Y-89000335D01*
X88203092Y-89047954D01*
X88250711Y-89143192D01*
X88250711Y-89381287D01*
X88203092Y-89476525D01*
X88155473Y-89524144D01*
X88060234Y-89571763D01*
X87822139Y-89571763D01*
X87726901Y-89524144D01*
X87679282Y-89476525D01*
X87517377Y-88271763D02*
X87517377Y-87271763D01*
X87898330Y-87271763D01*
X87993568Y-87319383D01*
X88041187Y-87367002D01*
X88088806Y-87462240D01*
X88088806Y-87605097D01*
X88041187Y-87700335D01*
X87993568Y-87747954D01*
X87898330Y-87795573D01*
X87517377Y-87795573D01*
X88707854Y-87271763D02*
X88898330Y-87271763D01*
X88993568Y-87319383D01*
X89088806Y-87414621D01*
X89136425Y-87605097D01*
X89136425Y-87938430D01*
X89088806Y-88128906D01*
X88993568Y-88224144D01*
X88898330Y-88271763D01*
X88707854Y-88271763D01*
X88612615Y-88224144D01*
X88517377Y-88128906D01*
X88469758Y-87938430D01*
X88469758Y-87605097D01*
X88517377Y-87414621D01*
X88612615Y-87319383D01*
X88707854Y-87271763D01*
X89469758Y-87271763D02*
X89707854Y-88271763D01*
X89898330Y-87557478D01*
X90088806Y-88271763D01*
X90326901Y-87271763D01*
X90707854Y-87747954D02*
X91041187Y-87747954D01*
X91184044Y-88271763D02*
X90707854Y-88271763D01*
X90707854Y-87271763D01*
X91184044Y-87271763D01*
X92184044Y-88271763D02*
X91850711Y-87795573D01*
X91612615Y-88271763D02*
X91612615Y-87271763D01*
X91993568Y-87271763D01*
X92088806Y-87319383D01*
X92136425Y-87367002D01*
X92184044Y-87462240D01*
X92184044Y-87605097D01*
X92136425Y-87700335D01*
X92088806Y-87747954D01*
X91993568Y-87795573D01*
X91612615Y-87795573D01*
X92803092Y-87271763D02*
X92993568Y-87271763D01*
X93088806Y-87319383D01*
X93184044Y-87414621D01*
X93231663Y-87605097D01*
X93231663Y-87938430D01*
X93184044Y-88128906D01*
X93088806Y-88224144D01*
X92993568Y-88271763D01*
X92803092Y-88271763D01*
X92707854Y-88224144D01*
X92612615Y-88128906D01*
X92564996Y-87938430D01*
X92564996Y-87605097D01*
X92612615Y-87414621D01*
X92707854Y-87319383D01*
X92803092Y-87271763D01*
X93993568Y-87747954D02*
X93660234Y-87747954D01*
X93660234Y-88271763D02*
X93660234Y-87271763D01*
X94136425Y-87271763D01*
X94850711Y-87747954D02*
X94517377Y-87747954D01*
X94517377Y-88271763D02*
X94517377Y-87271763D01*
X94993568Y-87271763D01*
X69295949Y-78321763D02*
X69295949Y-79131287D01*
X69343568Y-79226525D01*
X69391187Y-79274144D01*
X69486425Y-79321763D01*
X69676901Y-79321763D01*
X69772139Y-79274144D01*
X69819758Y-79226525D01*
X69867377Y-79131287D01*
X69867377Y-78321763D01*
X70772139Y-78655097D02*
X70772139Y-79321763D01*
X70534044Y-78274144D02*
X70295949Y-78988430D01*
X70914996Y-78988430D01*
X57714996Y-112691763D02*
X57381663Y-112215573D01*
X57143568Y-112691763D02*
X57143568Y-111691763D01*
X57524520Y-111691763D01*
X57619758Y-111739383D01*
X57667377Y-111787002D01*
X57714996Y-111882240D01*
X57714996Y-112025097D01*
X57667377Y-112120335D01*
X57619758Y-112167954D01*
X57524520Y-112215573D01*
X57143568Y-112215573D01*
X58572139Y-112025097D02*
X58572139Y-112691763D01*
X58334044Y-111644144D02*
X58095949Y-112358430D01*
X58714996Y-112358430D01*
X59572139Y-111691763D02*
X59095949Y-111691763D01*
X59048330Y-112167954D01*
X59095949Y-112120335D01*
X59191187Y-112072716D01*
X59429282Y-112072716D01*
X59524520Y-112120335D01*
X59572139Y-112167954D01*
X59619758Y-112263192D01*
X59619758Y-112501287D01*
X59572139Y-112596525D01*
X59524520Y-112644144D01*
X59429282Y-112691763D01*
X59191187Y-112691763D01*
X59095949Y-112644144D01*
X59048330Y-112596525D01*
X51862615Y-114517002D02*
X51767377Y-114469383D01*
X51672139Y-114374144D01*
X51529282Y-114231287D01*
X51434044Y-114183668D01*
X51338806Y-114183668D01*
X51386425Y-114421763D02*
X51291187Y-114374144D01*
X51195949Y-114278906D01*
X51148330Y-114088430D01*
X51148330Y-113755097D01*
X51195949Y-113564621D01*
X51291187Y-113469383D01*
X51386425Y-113421763D01*
X51576901Y-113421763D01*
X51672139Y-113469383D01*
X51767377Y-113564621D01*
X51814996Y-113755097D01*
X51814996Y-114088430D01*
X51767377Y-114278906D01*
X51672139Y-114374144D01*
X51576901Y-114421763D01*
X51386425Y-114421763D01*
X52672139Y-113421763D02*
X52481663Y-113421763D01*
X52386425Y-113469383D01*
X52338806Y-113517002D01*
X52243568Y-113659859D01*
X52195949Y-113850335D01*
X52195949Y-114231287D01*
X52243568Y-114326525D01*
X52291187Y-114374144D01*
X52386425Y-114421763D01*
X52576901Y-114421763D01*
X52672139Y-114374144D01*
X52719758Y-114326525D01*
X52767377Y-114231287D01*
X52767377Y-113993192D01*
X52719758Y-113897954D01*
X52672139Y-113850335D01*
X52576901Y-113802716D01*
X52386425Y-113802716D01*
X52291187Y-113850335D01*
X52243568Y-113897954D01*
X52195949Y-113993192D01*
X55448330Y-90721763D02*
X55448330Y-91436049D01*
X55400711Y-91578906D01*
X55305473Y-91674144D01*
X55162615Y-91721763D01*
X55067377Y-91721763D01*
X55876901Y-90817002D02*
X55924520Y-90769383D01*
X56019758Y-90721763D01*
X56257854Y-90721763D01*
X56353092Y-90769383D01*
X56400711Y-90817002D01*
X56448330Y-90912240D01*
X56448330Y-91007478D01*
X56400711Y-91150335D01*
X55829282Y-91721763D01*
X56448330Y-91721763D01*
X56781663Y-90721763D02*
X57448330Y-90721763D01*
X57019758Y-91721763D01*
X42719758Y-94071763D02*
X42719758Y-93071763D01*
X42957854Y-93071763D01*
X43100711Y-93119383D01*
X43195949Y-93214621D01*
X43243568Y-93309859D01*
X43291187Y-93500335D01*
X43291187Y-93643192D01*
X43243568Y-93833668D01*
X43195949Y-93928906D01*
X43100711Y-94024144D01*
X42957854Y-94071763D01*
X42719758Y-94071763D01*
X43624520Y-93071763D02*
X44291187Y-93071763D01*
X43862615Y-94071763D01*
X48014996Y-89126525D02*
X47967377Y-89174144D01*
X47824520Y-89221763D01*
X47729282Y-89221763D01*
X47586425Y-89174144D01*
X47491187Y-89078906D01*
X47443568Y-88983668D01*
X47395949Y-88793192D01*
X47395949Y-88650335D01*
X47443568Y-88459859D01*
X47491187Y-88364621D01*
X47586425Y-88269383D01*
X47729282Y-88221763D01*
X47824520Y-88221763D01*
X47967377Y-88269383D01*
X48014996Y-88317002D01*
X48348330Y-88221763D02*
X48967377Y-88221763D01*
X48634044Y-88602716D01*
X48776901Y-88602716D01*
X48872139Y-88650335D01*
X48919758Y-88697954D01*
X48967377Y-88793192D01*
X48967377Y-89031287D01*
X48919758Y-89126525D01*
X48872139Y-89174144D01*
X48776901Y-89221763D01*
X48491187Y-89221763D01*
X48395949Y-89174144D01*
X48348330Y-89126525D01*
X49348330Y-88317002D02*
X49395949Y-88269383D01*
X49491187Y-88221763D01*
X49729282Y-88221763D01*
X49824520Y-88269383D01*
X49872139Y-88317002D01*
X49919758Y-88412240D01*
X49919758Y-88507478D01*
X49872139Y-88650335D01*
X49300711Y-89221763D01*
X49919758Y-89221763D01*
X43564996Y-105526525D02*
X43517377Y-105574144D01*
X43374520Y-105621763D01*
X43279282Y-105621763D01*
X43136425Y-105574144D01*
X43041187Y-105478906D01*
X42993568Y-105383668D01*
X42945949Y-105193192D01*
X42945949Y-105050335D01*
X42993568Y-104859859D01*
X43041187Y-104764621D01*
X43136425Y-104669383D01*
X43279282Y-104621763D01*
X43374520Y-104621763D01*
X43517377Y-104669383D01*
X43564996Y-104717002D01*
X43898330Y-104621763D02*
X44517377Y-104621763D01*
X44184044Y-105002716D01*
X44326901Y-105002716D01*
X44422139Y-105050335D01*
X44469758Y-105097954D01*
X44517377Y-105193192D01*
X44517377Y-105431287D01*
X44469758Y-105526525D01*
X44422139Y-105574144D01*
X44326901Y-105621763D01*
X44041187Y-105621763D01*
X43945949Y-105574144D01*
X43898330Y-105526525D01*
X45469758Y-105621763D02*
X44898330Y-105621763D01*
X45184044Y-105621763D02*
X45184044Y-104621763D01*
X45088806Y-104764621D01*
X44993568Y-104859859D01*
X44898330Y-104907478D01*
X78445949Y-47871763D02*
X78445949Y-48681287D01*
X78493568Y-48776525D01*
X78541187Y-48824144D01*
X78636425Y-48871763D01*
X78826901Y-48871763D01*
X78922139Y-48824144D01*
X78969758Y-48776525D01*
X79017377Y-48681287D01*
X79017377Y-47871763D01*
X80017377Y-48871763D02*
X79445949Y-48871763D01*
X79731663Y-48871763D02*
X79731663Y-47871763D01*
X79636425Y-48014621D01*
X79541187Y-48109859D01*
X79445949Y-48157478D01*
X121012615Y-89571763D02*
X120679282Y-89095573D01*
X120441187Y-89571763D02*
X120441187Y-88571763D01*
X120822139Y-88571763D01*
X120917377Y-88619383D01*
X120964996Y-88667002D01*
X121012615Y-88762240D01*
X121012615Y-88905097D01*
X120964996Y-89000335D01*
X120917377Y-89047954D01*
X120822139Y-89095573D01*
X120441187Y-89095573D01*
X121298330Y-88571763D02*
X121631663Y-89571763D01*
X121964996Y-88571763D01*
X122250711Y-88667002D02*
X122298330Y-88619383D01*
X122393568Y-88571763D01*
X122631663Y-88571763D01*
X122726901Y-88619383D01*
X122774520Y-88667002D01*
X122822139Y-88762240D01*
X122822139Y-88857478D01*
X122774520Y-89000335D01*
X122203092Y-89571763D01*
X122822139Y-89571763D01*
X111262615Y-44571763D02*
X110929282Y-44095573D01*
X110691187Y-44571763D02*
X110691187Y-43571763D01*
X111072139Y-43571763D01*
X111167377Y-43619383D01*
X111214996Y-43667002D01*
X111262615Y-43762240D01*
X111262615Y-43905097D01*
X111214996Y-44000335D01*
X111167377Y-44047954D01*
X111072139Y-44095573D01*
X110691187Y-44095573D01*
X111548330Y-43571763D02*
X111881663Y-44571763D01*
X112214996Y-43571763D01*
X113072139Y-44571763D02*
X112500711Y-44571763D01*
X112786425Y-44571763D02*
X112786425Y-43571763D01*
X112691187Y-43714621D01*
X112595949Y-43809859D01*
X112500711Y-43857478D01*
X75422036Y-35371563D02*
X75088703Y-34895373D01*
X74850608Y-35371563D02*
X74850608Y-34371563D01*
X75231560Y-34371563D01*
X75326798Y-34419183D01*
X75374417Y-34466802D01*
X75422036Y-34562040D01*
X75422036Y-34704897D01*
X75374417Y-34800135D01*
X75326798Y-34847754D01*
X75231560Y-34895373D01*
X74850608Y-34895373D01*
X76279179Y-34704897D02*
X76279179Y-35371563D01*
X76041084Y-34323944D02*
X75802989Y-35038230D01*
X76422036Y-35038230D01*
X77231560Y-34704897D02*
X77231560Y-35371563D01*
X76993465Y-34323944D02*
X76755370Y-35038230D01*
X77374417Y-35038230D01*
X101874520Y-46221763D02*
X101874520Y-46936049D01*
X101826901Y-47078906D01*
X101731663Y-47174144D01*
X101588806Y-47221763D01*
X101493568Y-47221763D01*
X102826901Y-46221763D02*
X102350711Y-46221763D01*
X102303092Y-46697954D01*
X102350711Y-46650335D01*
X102445949Y-46602716D01*
X102684044Y-46602716D01*
X102779282Y-46650335D01*
X102826901Y-46697954D01*
X102874520Y-46793192D01*
X102874520Y-47031287D01*
X102826901Y-47126525D01*
X102779282Y-47174144D01*
X102684044Y-47221763D01*
X102445949Y-47221763D01*
X102350711Y-47174144D01*
X102303092Y-47126525D01*
X103798330Y-45847954D02*
X103941187Y-45895573D01*
X103988806Y-45943192D01*
X104036425Y-46038430D01*
X104036425Y-46181287D01*
X103988806Y-46276525D01*
X103941187Y-46324144D01*
X103845949Y-46371763D01*
X103464996Y-46371763D01*
X103464996Y-45371763D01*
X103798330Y-45371763D01*
X103893568Y-45419383D01*
X103941187Y-45467002D01*
X103988806Y-45562240D01*
X103988806Y-45657478D01*
X103941187Y-45752716D01*
X103893568Y-45800335D01*
X103798330Y-45847954D01*
X103464996Y-45847954D01*
X104464996Y-45371763D02*
X104464996Y-46181287D01*
X104512615Y-46276525D01*
X104560234Y-46324144D01*
X104655473Y-46371763D01*
X104845949Y-46371763D01*
X104941187Y-46324144D01*
X104988806Y-46276525D01*
X105036425Y-46181287D01*
X105036425Y-45371763D01*
X105417377Y-45371763D02*
X106084044Y-45371763D01*
X105417377Y-46371763D01*
X106084044Y-46371763D01*
X106369758Y-45371763D02*
X107036425Y-45371763D01*
X106369758Y-46371763D01*
X107036425Y-46371763D01*
X107417377Y-45847954D02*
X107750711Y-45847954D01*
X107893568Y-46371763D02*
X107417377Y-46371763D01*
X107417377Y-45371763D01*
X107893568Y-45371763D01*
X108893568Y-46371763D02*
X108560234Y-45895573D01*
X108322139Y-46371763D02*
X108322139Y-45371763D01*
X108703092Y-45371763D01*
X108798330Y-45419383D01*
X108845949Y-45467002D01*
X108893568Y-45562240D01*
X108893568Y-45705097D01*
X108845949Y-45800335D01*
X108798330Y-45847954D01*
X108703092Y-45895573D01*
X108322139Y-45895573D01*
X109084044Y-46467002D02*
X109845949Y-46467002D01*
X110084044Y-46371763D02*
X110084044Y-45371763D01*
X110417377Y-46086049D01*
X110750711Y-45371763D01*
X110750711Y-46371763D01*
X66346615Y-114517002D02*
X66251377Y-114469383D01*
X66156139Y-114374144D01*
X66013282Y-114231287D01*
X65918044Y-114183668D01*
X65822806Y-114183668D01*
X65870425Y-114421763D02*
X65775187Y-114374144D01*
X65679949Y-114278906D01*
X65632330Y-114088430D01*
X65632330Y-113755097D01*
X65679949Y-113564621D01*
X65775187Y-113469383D01*
X65870425Y-113421763D01*
X66060901Y-113421763D01*
X66156139Y-113469383D01*
X66251377Y-113564621D01*
X66298996Y-113755097D01*
X66298996Y-114088430D01*
X66251377Y-114278906D01*
X66156139Y-114374144D01*
X66060901Y-114421763D01*
X65870425Y-114421763D01*
X66632330Y-113421763D02*
X67251377Y-113421763D01*
X66918044Y-113802716D01*
X67060901Y-113802716D01*
X67156139Y-113850335D01*
X67203758Y-113897954D01*
X67251377Y-113993192D01*
X67251377Y-114231287D01*
X67203758Y-114326525D01*
X67156139Y-114374144D01*
X67060901Y-114421763D01*
X66775187Y-114421763D01*
X66679949Y-114374144D01*
X66632330Y-114326525D01*
X80830615Y-114517002D02*
X80735377Y-114469383D01*
X80640139Y-114374144D01*
X80497282Y-114231287D01*
X80402044Y-114183668D01*
X80306806Y-114183668D01*
X80354425Y-114421763D02*
X80259187Y-114374144D01*
X80163949Y-114278906D01*
X80116330Y-114088430D01*
X80116330Y-113755097D01*
X80163949Y-113564621D01*
X80259187Y-113469383D01*
X80354425Y-113421763D01*
X80544901Y-113421763D01*
X80640139Y-113469383D01*
X80735377Y-113564621D01*
X80782996Y-113755097D01*
X80782996Y-114088430D01*
X80735377Y-114278906D01*
X80640139Y-114374144D01*
X80544901Y-114421763D01*
X80354425Y-114421763D01*
X81163949Y-113517002D02*
X81211568Y-113469383D01*
X81306806Y-113421763D01*
X81544901Y-113421763D01*
X81640139Y-113469383D01*
X81687758Y-113517002D01*
X81735377Y-113612240D01*
X81735377Y-113707478D01*
X81687758Y-113850335D01*
X81116330Y-114421763D01*
X81735377Y-114421763D01*
X45462615Y-64217002D02*
X45367377Y-64169383D01*
X45272139Y-64074144D01*
X45129282Y-63931287D01*
X45034044Y-63883668D01*
X44938806Y-63883668D01*
X44986425Y-64121763D02*
X44891187Y-64074144D01*
X44795949Y-63978906D01*
X44748330Y-63788430D01*
X44748330Y-63455097D01*
X44795949Y-63264621D01*
X44891187Y-63169383D01*
X44986425Y-63121763D01*
X45176901Y-63121763D01*
X45272139Y-63169383D01*
X45367377Y-63264621D01*
X45414996Y-63455097D01*
X45414996Y-63788430D01*
X45367377Y-63978906D01*
X45272139Y-64074144D01*
X45176901Y-64121763D01*
X44986425Y-64121763D01*
X46367377Y-64121763D02*
X45795949Y-64121763D01*
X46081663Y-64121763D02*
X46081663Y-63121763D01*
X45986425Y-63264621D01*
X45891187Y-63359859D01*
X45795949Y-63407478D01*
X61045949Y-55771763D02*
X61045949Y-56581287D01*
X61093568Y-56676525D01*
X61141187Y-56724144D01*
X61236425Y-56771763D01*
X61426901Y-56771763D01*
X61522139Y-56724144D01*
X61569758Y-56676525D01*
X61617377Y-56581287D01*
X61617377Y-55771763D01*
X62045949Y-55867002D02*
X62093568Y-55819383D01*
X62188806Y-55771763D01*
X62426901Y-55771763D01*
X62522139Y-55819383D01*
X62569758Y-55867002D01*
X62617377Y-55962240D01*
X62617377Y-56057478D01*
X62569758Y-56200335D01*
X61998330Y-56771763D01*
X62617377Y-56771763D01*
X149445949Y-95474144D02*
X149588806Y-95521763D01*
X149826901Y-95521763D01*
X149922139Y-95474144D01*
X149969758Y-95426525D01*
X150017377Y-95331287D01*
X150017377Y-95236049D01*
X149969758Y-95140811D01*
X149922139Y-95093192D01*
X149826901Y-95045573D01*
X149636425Y-94997954D01*
X149541187Y-94950335D01*
X149493568Y-94902716D01*
X149445949Y-94807478D01*
X149445949Y-94712240D01*
X149493568Y-94617002D01*
X149541187Y-94569383D01*
X149636425Y-94521763D01*
X149874520Y-94521763D01*
X150017377Y-94569383D01*
X150874520Y-94855097D02*
X150874520Y-95521763D01*
X150636425Y-94474144D02*
X150398330Y-95188430D01*
X151017377Y-95188430D01*
X149245949Y-116374144D02*
X149388806Y-116421763D01*
X149626901Y-116421763D01*
X149722139Y-116374144D01*
X149769758Y-116326525D01*
X149817377Y-116231287D01*
X149817377Y-116136049D01*
X149769758Y-116040811D01*
X149722139Y-115993192D01*
X149626901Y-115945573D01*
X149436425Y-115897954D01*
X149341187Y-115850335D01*
X149293568Y-115802716D01*
X149245949Y-115707478D01*
X149245949Y-115612240D01*
X149293568Y-115517002D01*
X149341187Y-115469383D01*
X149436425Y-115421763D01*
X149674520Y-115421763D01*
X149817377Y-115469383D01*
X150150711Y-115421763D02*
X150769758Y-115421763D01*
X150436425Y-115802716D01*
X150579282Y-115802716D01*
X150674520Y-115850335D01*
X150722139Y-115897954D01*
X150769758Y-115993192D01*
X150769758Y-116231287D01*
X150722139Y-116326525D01*
X150674520Y-116374144D01*
X150579282Y-116421763D01*
X150293568Y-116421763D01*
X150198330Y-116374144D01*
X150150711Y-116326525D01*
X149395949Y-50674144D02*
X149538806Y-50721763D01*
X149776901Y-50721763D01*
X149872139Y-50674144D01*
X149919758Y-50626525D01*
X149967377Y-50531287D01*
X149967377Y-50436049D01*
X149919758Y-50340811D01*
X149872139Y-50293192D01*
X149776901Y-50245573D01*
X149586425Y-50197954D01*
X149491187Y-50150335D01*
X149443568Y-50102716D01*
X149395949Y-50007478D01*
X149395949Y-49912240D01*
X149443568Y-49817002D01*
X149491187Y-49769383D01*
X149586425Y-49721763D01*
X149824520Y-49721763D01*
X149967377Y-49769383D01*
X150348330Y-49817002D02*
X150395949Y-49769383D01*
X150491187Y-49721763D01*
X150729282Y-49721763D01*
X150824520Y-49769383D01*
X150872139Y-49817002D01*
X150919758Y-49912240D01*
X150919758Y-50007478D01*
X150872139Y-50150335D01*
X150300711Y-50721763D01*
X150919758Y-50721763D01*
X149095949Y-67174144D02*
X149238806Y-67221763D01*
X149476901Y-67221763D01*
X149572139Y-67174144D01*
X149619758Y-67126525D01*
X149667377Y-67031287D01*
X149667377Y-66936049D01*
X149619758Y-66840811D01*
X149572139Y-66793192D01*
X149476901Y-66745573D01*
X149286425Y-66697954D01*
X149191187Y-66650335D01*
X149143568Y-66602716D01*
X149095949Y-66507478D01*
X149095949Y-66412240D01*
X149143568Y-66317002D01*
X149191187Y-66269383D01*
X149286425Y-66221763D01*
X149524520Y-66221763D01*
X149667377Y-66269383D01*
X150619758Y-67221763D02*
X150048330Y-67221763D01*
X150334044Y-67221763D02*
X150334044Y-66221763D01*
X150238806Y-66364621D01*
X150143568Y-66459859D01*
X150048330Y-66507478D01*
X80914996Y-79091763D02*
X80581663Y-78615573D01*
X80343568Y-79091763D02*
X80343568Y-78091763D01*
X80724520Y-78091763D01*
X80819758Y-78139383D01*
X80867377Y-78187002D01*
X80914996Y-78282240D01*
X80914996Y-78425097D01*
X80867377Y-78520335D01*
X80819758Y-78567954D01*
X80724520Y-78615573D01*
X80343568Y-78615573D01*
X81772139Y-78425097D02*
X81772139Y-79091763D01*
X81534044Y-78044144D02*
X81295949Y-78758430D01*
X81914996Y-78758430D01*
X82200711Y-78091763D02*
X82819758Y-78091763D01*
X82486425Y-78472716D01*
X82629282Y-78472716D01*
X82724520Y-78520335D01*
X82772139Y-78567954D01*
X82819758Y-78663192D01*
X82819758Y-78901287D01*
X82772139Y-78996525D01*
X82724520Y-79044144D01*
X82629282Y-79091763D01*
X82343568Y-79091763D01*
X82248330Y-79044144D01*
X82200711Y-78996525D01*
X87364996Y-81191763D02*
X87031663Y-80715573D01*
X86793568Y-81191763D02*
X86793568Y-80191763D01*
X87174520Y-80191763D01*
X87269758Y-80239383D01*
X87317377Y-80287002D01*
X87364996Y-80382240D01*
X87364996Y-80525097D01*
X87317377Y-80620335D01*
X87269758Y-80667954D01*
X87174520Y-80715573D01*
X86793568Y-80715573D01*
X88222139Y-80525097D02*
X88222139Y-81191763D01*
X87984044Y-80144144D02*
X87745949Y-80858430D01*
X88364996Y-80858430D01*
X88698330Y-80287002D02*
X88745949Y-80239383D01*
X88841187Y-80191763D01*
X89079282Y-80191763D01*
X89174520Y-80239383D01*
X89222139Y-80287002D01*
X89269758Y-80382240D01*
X89269758Y-80477478D01*
X89222139Y-80620335D01*
X88650711Y-81191763D01*
X89269758Y-81191763D01*
X83914996Y-81371763D02*
X83581663Y-80895573D01*
X83343568Y-81371763D02*
X83343568Y-80371763D01*
X83724520Y-80371763D01*
X83819758Y-80419383D01*
X83867377Y-80467002D01*
X83914996Y-80562240D01*
X83914996Y-80705097D01*
X83867377Y-80800335D01*
X83819758Y-80847954D01*
X83724520Y-80895573D01*
X83343568Y-80895573D01*
X84772139Y-80705097D02*
X84772139Y-81371763D01*
X84534044Y-80324144D02*
X84295949Y-81038430D01*
X84914996Y-81038430D01*
X85819758Y-81371763D02*
X85248330Y-81371763D01*
X85534044Y-81371763D02*
X85534044Y-80371763D01*
X85438806Y-80514621D01*
X85343568Y-80609859D01*
X85248330Y-80657478D01*
X72983636Y-41310043D02*
X72650303Y-40833853D01*
X72412208Y-41310043D02*
X72412208Y-40310043D01*
X72793160Y-40310043D01*
X72888398Y-40357663D01*
X72936017Y-40405282D01*
X72983636Y-40500520D01*
X72983636Y-40643377D01*
X72936017Y-40738615D01*
X72888398Y-40786234D01*
X72793160Y-40833853D01*
X72412208Y-40833853D01*
X73840779Y-40643377D02*
X73840779Y-41310043D01*
X73602684Y-40262424D02*
X73364589Y-40976710D01*
X73983636Y-40976710D01*
X74555065Y-40310043D02*
X74650303Y-40310043D01*
X74745541Y-40357663D01*
X74793160Y-40405282D01*
X74840779Y-40500520D01*
X74888398Y-40690996D01*
X74888398Y-40929091D01*
X74840779Y-41119567D01*
X74793160Y-41214805D01*
X74745541Y-41262424D01*
X74650303Y-41310043D01*
X74555065Y-41310043D01*
X74459827Y-41262424D01*
X74412208Y-41214805D01*
X74364589Y-41119567D01*
X74316970Y-40929091D01*
X74316970Y-40690996D01*
X74364589Y-40500520D01*
X74412208Y-40405282D01*
X74459827Y-40357663D01*
X74555065Y-40310043D01*
X76910476Y-41335443D02*
X76577143Y-40859253D01*
X76339048Y-41335443D02*
X76339048Y-40335443D01*
X76720000Y-40335443D01*
X76815238Y-40383063D01*
X76862857Y-40430682D01*
X76910476Y-40525920D01*
X76910476Y-40668777D01*
X76862857Y-40764015D01*
X76815238Y-40811634D01*
X76720000Y-40859253D01*
X76339048Y-40859253D01*
X77243810Y-40335443D02*
X77862857Y-40335443D01*
X77529524Y-40716396D01*
X77672381Y-40716396D01*
X77767619Y-40764015D01*
X77815238Y-40811634D01*
X77862857Y-40906872D01*
X77862857Y-41144967D01*
X77815238Y-41240205D01*
X77767619Y-41287824D01*
X77672381Y-41335443D01*
X77386667Y-41335443D01*
X77291429Y-41287824D01*
X77243810Y-41240205D01*
X78339048Y-41335443D02*
X78529524Y-41335443D01*
X78624762Y-41287824D01*
X78672381Y-41240205D01*
X78767619Y-41097348D01*
X78815238Y-40906872D01*
X78815238Y-40525920D01*
X78767619Y-40430682D01*
X78720000Y-40383063D01*
X78624762Y-40335443D01*
X78434286Y-40335443D01*
X78339048Y-40383063D01*
X78291429Y-40430682D01*
X78243810Y-40525920D01*
X78243810Y-40764015D01*
X78291429Y-40859253D01*
X78339048Y-40906872D01*
X78434286Y-40954491D01*
X78624762Y-40954491D01*
X78720000Y-40906872D01*
X78767619Y-40859253D01*
X78815238Y-40764015D01*
X55514996Y-117021763D02*
X55181663Y-116545573D01*
X54943568Y-117021763D02*
X54943568Y-116021763D01*
X55324520Y-116021763D01*
X55419758Y-116069383D01*
X55467377Y-116117002D01*
X55514996Y-116212240D01*
X55514996Y-116355097D01*
X55467377Y-116450335D01*
X55419758Y-116497954D01*
X55324520Y-116545573D01*
X54943568Y-116545573D01*
X55848330Y-116021763D02*
X56467377Y-116021763D01*
X56134044Y-116402716D01*
X56276901Y-116402716D01*
X56372139Y-116450335D01*
X56419758Y-116497954D01*
X56467377Y-116593192D01*
X56467377Y-116831287D01*
X56419758Y-116926525D01*
X56372139Y-116974144D01*
X56276901Y-117021763D01*
X55991187Y-117021763D01*
X55895949Y-116974144D01*
X55848330Y-116926525D01*
X57038806Y-116450335D02*
X56943568Y-116402716D01*
X56895949Y-116355097D01*
X56848330Y-116259859D01*
X56848330Y-116212240D01*
X56895949Y-116117002D01*
X56943568Y-116069383D01*
X57038806Y-116021763D01*
X57229282Y-116021763D01*
X57324520Y-116069383D01*
X57372139Y-116117002D01*
X57419758Y-116212240D01*
X57419758Y-116259859D01*
X57372139Y-116355097D01*
X57324520Y-116402716D01*
X57229282Y-116450335D01*
X57038806Y-116450335D01*
X56943568Y-116497954D01*
X56895949Y-116545573D01*
X56848330Y-116640811D01*
X56848330Y-116831287D01*
X56895949Y-116926525D01*
X56943568Y-116974144D01*
X57038806Y-117021763D01*
X57229282Y-117021763D01*
X57324520Y-116974144D01*
X57372139Y-116926525D01*
X57419758Y-116831287D01*
X57419758Y-116640811D01*
X57372139Y-116545573D01*
X57324520Y-116497954D01*
X57229282Y-116450335D01*
X93014996Y-95101763D02*
X92681663Y-94625573D01*
X92443568Y-95101763D02*
X92443568Y-94101763D01*
X92824520Y-94101763D01*
X92919758Y-94149383D01*
X92967377Y-94197002D01*
X93014996Y-94292240D01*
X93014996Y-94435097D01*
X92967377Y-94530335D01*
X92919758Y-94577954D01*
X92824520Y-94625573D01*
X92443568Y-94625573D01*
X93348330Y-94101763D02*
X93967377Y-94101763D01*
X93634044Y-94482716D01*
X93776901Y-94482716D01*
X93872139Y-94530335D01*
X93919758Y-94577954D01*
X93967377Y-94673192D01*
X93967377Y-94911287D01*
X93919758Y-95006525D01*
X93872139Y-95054144D01*
X93776901Y-95101763D01*
X93491187Y-95101763D01*
X93395949Y-95054144D01*
X93348330Y-95006525D01*
X94300711Y-94101763D02*
X94967377Y-94101763D01*
X94538806Y-95101763D01*
X124914996Y-120721763D02*
X124581663Y-120245573D01*
X124343568Y-120721763D02*
X124343568Y-119721763D01*
X124724520Y-119721763D01*
X124819758Y-119769383D01*
X124867377Y-119817002D01*
X124914996Y-119912240D01*
X124914996Y-120055097D01*
X124867377Y-120150335D01*
X124819758Y-120197954D01*
X124724520Y-120245573D01*
X124343568Y-120245573D01*
X125248330Y-119721763D02*
X125867377Y-119721763D01*
X125534044Y-120102716D01*
X125676901Y-120102716D01*
X125772139Y-120150335D01*
X125819758Y-120197954D01*
X125867377Y-120293192D01*
X125867377Y-120531287D01*
X125819758Y-120626525D01*
X125772139Y-120674144D01*
X125676901Y-120721763D01*
X125391187Y-120721763D01*
X125295949Y-120674144D01*
X125248330Y-120626525D01*
X126724520Y-119721763D02*
X126534044Y-119721763D01*
X126438806Y-119769383D01*
X126391187Y-119817002D01*
X126295949Y-119959859D01*
X126248330Y-120150335D01*
X126248330Y-120531287D01*
X126295949Y-120626525D01*
X126343568Y-120674144D01*
X126438806Y-120721763D01*
X126629282Y-120721763D01*
X126724520Y-120674144D01*
X126772139Y-120626525D01*
X126819758Y-120531287D01*
X126819758Y-120293192D01*
X126772139Y-120197954D01*
X126724520Y-120150335D01*
X126629282Y-120102716D01*
X126438806Y-120102716D01*
X126343568Y-120150335D01*
X126295949Y-120197954D01*
X126248330Y-120293192D01*
X33714996Y-35492923D02*
X33381663Y-35016733D01*
X33143568Y-35492923D02*
X33143568Y-34492923D01*
X33524520Y-34492923D01*
X33619758Y-34540543D01*
X33667377Y-34588162D01*
X33714996Y-34683400D01*
X33714996Y-34826257D01*
X33667377Y-34921495D01*
X33619758Y-34969114D01*
X33524520Y-35016733D01*
X33143568Y-35016733D01*
X34048330Y-34492923D02*
X34667377Y-34492923D01*
X34334044Y-34873876D01*
X34476901Y-34873876D01*
X34572139Y-34921495D01*
X34619758Y-34969114D01*
X34667377Y-35064352D01*
X34667377Y-35302447D01*
X34619758Y-35397685D01*
X34572139Y-35445304D01*
X34476901Y-35492923D01*
X34191187Y-35492923D01*
X34095949Y-35445304D01*
X34048330Y-35397685D01*
X35572139Y-34492923D02*
X35095949Y-34492923D01*
X35048330Y-34969114D01*
X35095949Y-34921495D01*
X35191187Y-34873876D01*
X35429282Y-34873876D01*
X35524520Y-34921495D01*
X35572139Y-34969114D01*
X35619758Y-35064352D01*
X35619758Y-35302447D01*
X35572139Y-35397685D01*
X35524520Y-35445304D01*
X35429282Y-35492923D01*
X35191187Y-35492923D01*
X35095949Y-35445304D01*
X35048330Y-35397685D01*
X68864996Y-116771763D02*
X68531663Y-116295573D01*
X68293568Y-116771763D02*
X68293568Y-115771763D01*
X68674520Y-115771763D01*
X68769758Y-115819383D01*
X68817377Y-115867002D01*
X68864996Y-115962240D01*
X68864996Y-116105097D01*
X68817377Y-116200335D01*
X68769758Y-116247954D01*
X68674520Y-116295573D01*
X68293568Y-116295573D01*
X69198330Y-115771763D02*
X69817377Y-115771763D01*
X69484044Y-116152716D01*
X69626901Y-116152716D01*
X69722139Y-116200335D01*
X69769758Y-116247954D01*
X69817377Y-116343192D01*
X69817377Y-116581287D01*
X69769758Y-116676525D01*
X69722139Y-116724144D01*
X69626901Y-116771763D01*
X69341187Y-116771763D01*
X69245949Y-116724144D01*
X69198330Y-116676525D01*
X70198330Y-115867002D02*
X70245949Y-115819383D01*
X70341187Y-115771763D01*
X70579282Y-115771763D01*
X70674520Y-115819383D01*
X70722139Y-115867002D01*
X70769758Y-115962240D01*
X70769758Y-116057478D01*
X70722139Y-116200335D01*
X70150711Y-116771763D01*
X70769758Y-116771763D01*
X30014996Y-112341763D02*
X29681663Y-111865573D01*
X29443568Y-112341763D02*
X29443568Y-111341763D01*
X29824520Y-111341763D01*
X29919758Y-111389383D01*
X29967377Y-111437002D01*
X30014996Y-111532240D01*
X30014996Y-111675097D01*
X29967377Y-111770335D01*
X29919758Y-111817954D01*
X29824520Y-111865573D01*
X29443568Y-111865573D01*
X30348330Y-111341763D02*
X30967377Y-111341763D01*
X30634044Y-111722716D01*
X30776901Y-111722716D01*
X30872139Y-111770335D01*
X30919758Y-111817954D01*
X30967377Y-111913192D01*
X30967377Y-112151287D01*
X30919758Y-112246525D01*
X30872139Y-112294144D01*
X30776901Y-112341763D01*
X30491187Y-112341763D01*
X30395949Y-112294144D01*
X30348330Y-112246525D01*
X31919758Y-112341763D02*
X31348330Y-112341763D01*
X31634044Y-112341763D02*
X31634044Y-111341763D01*
X31538806Y-111484621D01*
X31443568Y-111579859D01*
X31348330Y-111627478D01*
X38714996Y-126521763D02*
X38381663Y-126045573D01*
X38143568Y-126521763D02*
X38143568Y-125521763D01*
X38524520Y-125521763D01*
X38619758Y-125569383D01*
X38667377Y-125617002D01*
X38714996Y-125712240D01*
X38714996Y-125855097D01*
X38667377Y-125950335D01*
X38619758Y-125997954D01*
X38524520Y-126045573D01*
X38143568Y-126045573D01*
X39048330Y-125521763D02*
X39667377Y-125521763D01*
X39334044Y-125902716D01*
X39476901Y-125902716D01*
X39572139Y-125950335D01*
X39619758Y-125997954D01*
X39667377Y-126093192D01*
X39667377Y-126331287D01*
X39619758Y-126426525D01*
X39572139Y-126474144D01*
X39476901Y-126521763D01*
X39191187Y-126521763D01*
X39095949Y-126474144D01*
X39048330Y-126426525D01*
X40286425Y-125521763D02*
X40381663Y-125521763D01*
X40476901Y-125569383D01*
X40524520Y-125617002D01*
X40572139Y-125712240D01*
X40619758Y-125902716D01*
X40619758Y-126140811D01*
X40572139Y-126331287D01*
X40524520Y-126426525D01*
X40476901Y-126474144D01*
X40381663Y-126521763D01*
X40286425Y-126521763D01*
X40191187Y-126474144D01*
X40143568Y-126426525D01*
X40095949Y-126331287D01*
X40048330Y-126140811D01*
X40048330Y-125902716D01*
X40095949Y-125712240D01*
X40143568Y-125617002D01*
X40191187Y-125569383D01*
X40286425Y-125521763D01*
X146364996Y-85021763D02*
X146031663Y-84545573D01*
X145793568Y-85021763D02*
X145793568Y-84021763D01*
X146174520Y-84021763D01*
X146269758Y-84069383D01*
X146317377Y-84117002D01*
X146364996Y-84212240D01*
X146364996Y-84355097D01*
X146317377Y-84450335D01*
X146269758Y-84497954D01*
X146174520Y-84545573D01*
X145793568Y-84545573D01*
X146745949Y-84117002D02*
X146793568Y-84069383D01*
X146888806Y-84021763D01*
X147126901Y-84021763D01*
X147222139Y-84069383D01*
X147269758Y-84117002D01*
X147317377Y-84212240D01*
X147317377Y-84307478D01*
X147269758Y-84450335D01*
X146698330Y-85021763D01*
X147317377Y-85021763D01*
X147793568Y-85021763D02*
X147984044Y-85021763D01*
X148079282Y-84974144D01*
X148126901Y-84926525D01*
X148222139Y-84783668D01*
X148269758Y-84593192D01*
X148269758Y-84212240D01*
X148222139Y-84117002D01*
X148174520Y-84069383D01*
X148079282Y-84021763D01*
X147888806Y-84021763D01*
X147793568Y-84069383D01*
X147745949Y-84117002D01*
X147698330Y-84212240D01*
X147698330Y-84450335D01*
X147745949Y-84545573D01*
X147793568Y-84593192D01*
X147888806Y-84640811D01*
X148079282Y-84640811D01*
X148174520Y-84593192D01*
X148222139Y-84545573D01*
X148269758Y-84450335D01*
X113614996Y-98021763D02*
X113281663Y-97545573D01*
X113043568Y-98021763D02*
X113043568Y-97021763D01*
X113424520Y-97021763D01*
X113519758Y-97069383D01*
X113567377Y-97117002D01*
X113614996Y-97212240D01*
X113614996Y-97355097D01*
X113567377Y-97450335D01*
X113519758Y-97497954D01*
X113424520Y-97545573D01*
X113043568Y-97545573D01*
X113995949Y-97117002D02*
X114043568Y-97069383D01*
X114138806Y-97021763D01*
X114376901Y-97021763D01*
X114472139Y-97069383D01*
X114519758Y-97117002D01*
X114567377Y-97212240D01*
X114567377Y-97307478D01*
X114519758Y-97450335D01*
X113948330Y-98021763D01*
X114567377Y-98021763D01*
X115138806Y-97450335D02*
X115043568Y-97402716D01*
X114995949Y-97355097D01*
X114948330Y-97259859D01*
X114948330Y-97212240D01*
X114995949Y-97117002D01*
X115043568Y-97069383D01*
X115138806Y-97021763D01*
X115329282Y-97021763D01*
X115424520Y-97069383D01*
X115472139Y-97117002D01*
X115519758Y-97212240D01*
X115519758Y-97259859D01*
X115472139Y-97355097D01*
X115424520Y-97402716D01*
X115329282Y-97450335D01*
X115138806Y-97450335D01*
X115043568Y-97497954D01*
X114995949Y-97545573D01*
X114948330Y-97640811D01*
X114948330Y-97831287D01*
X114995949Y-97926525D01*
X115043568Y-97974144D01*
X115138806Y-98021763D01*
X115329282Y-98021763D01*
X115424520Y-97974144D01*
X115472139Y-97926525D01*
X115519758Y-97831287D01*
X115519758Y-97640811D01*
X115472139Y-97545573D01*
X115424520Y-97497954D01*
X115329282Y-97450335D01*
X109614996Y-102721763D02*
X109281663Y-102245573D01*
X109043568Y-102721763D02*
X109043568Y-101721763D01*
X109424520Y-101721763D01*
X109519758Y-101769383D01*
X109567377Y-101817002D01*
X109614996Y-101912240D01*
X109614996Y-102055097D01*
X109567377Y-102150335D01*
X109519758Y-102197954D01*
X109424520Y-102245573D01*
X109043568Y-102245573D01*
X109995949Y-101817002D02*
X110043568Y-101769383D01*
X110138806Y-101721763D01*
X110376901Y-101721763D01*
X110472139Y-101769383D01*
X110519758Y-101817002D01*
X110567377Y-101912240D01*
X110567377Y-102007478D01*
X110519758Y-102150335D01*
X109948330Y-102721763D01*
X110567377Y-102721763D01*
X110900711Y-101721763D02*
X111567377Y-101721763D01*
X111138806Y-102721763D01*
X72714996Y-112591763D02*
X72381663Y-112115573D01*
X72143568Y-112591763D02*
X72143568Y-111591763D01*
X72524520Y-111591763D01*
X72619758Y-111639383D01*
X72667377Y-111687002D01*
X72714996Y-111782240D01*
X72714996Y-111925097D01*
X72667377Y-112020335D01*
X72619758Y-112067954D01*
X72524520Y-112115573D01*
X72143568Y-112115573D01*
X73095949Y-111687002D02*
X73143568Y-111639383D01*
X73238806Y-111591763D01*
X73476901Y-111591763D01*
X73572139Y-111639383D01*
X73619758Y-111687002D01*
X73667377Y-111782240D01*
X73667377Y-111877478D01*
X73619758Y-112020335D01*
X73048330Y-112591763D01*
X73667377Y-112591763D01*
X74524520Y-111591763D02*
X74334044Y-111591763D01*
X74238806Y-111639383D01*
X74191187Y-111687002D01*
X74095949Y-111829859D01*
X74048330Y-112020335D01*
X74048330Y-112401287D01*
X74095949Y-112496525D01*
X74143568Y-112544144D01*
X74238806Y-112591763D01*
X74429282Y-112591763D01*
X74524520Y-112544144D01*
X74572139Y-112496525D01*
X74619758Y-112401287D01*
X74619758Y-112163192D01*
X74572139Y-112067954D01*
X74524520Y-112020335D01*
X74429282Y-111972716D01*
X74238806Y-111972716D01*
X74143568Y-112020335D01*
X74095949Y-112067954D01*
X74048330Y-112163192D01*
X77514996Y-61921763D02*
X77181663Y-61445573D01*
X76943568Y-61921763D02*
X76943568Y-60921763D01*
X77324520Y-60921763D01*
X77419758Y-60969383D01*
X77467377Y-61017002D01*
X77514996Y-61112240D01*
X77514996Y-61255097D01*
X77467377Y-61350335D01*
X77419758Y-61397954D01*
X77324520Y-61445573D01*
X76943568Y-61445573D01*
X77895949Y-61017002D02*
X77943568Y-60969383D01*
X78038806Y-60921763D01*
X78276901Y-60921763D01*
X78372139Y-60969383D01*
X78419758Y-61017002D01*
X78467377Y-61112240D01*
X78467377Y-61207478D01*
X78419758Y-61350335D01*
X77848330Y-61921763D01*
X78467377Y-61921763D01*
X79372139Y-60921763D02*
X78895949Y-60921763D01*
X78848330Y-61397954D01*
X78895949Y-61350335D01*
X78991187Y-61302716D01*
X79229282Y-61302716D01*
X79324520Y-61350335D01*
X79372139Y-61397954D01*
X79419758Y-61493192D01*
X79419758Y-61731287D01*
X79372139Y-61826525D01*
X79324520Y-61874144D01*
X79229282Y-61921763D01*
X78991187Y-61921763D01*
X78895949Y-61874144D01*
X78848330Y-61826525D01*
X77414996Y-65871763D02*
X77081663Y-65395573D01*
X76843568Y-65871763D02*
X76843568Y-64871763D01*
X77224520Y-64871763D01*
X77319758Y-64919383D01*
X77367377Y-64967002D01*
X77414996Y-65062240D01*
X77414996Y-65205097D01*
X77367377Y-65300335D01*
X77319758Y-65347954D01*
X77224520Y-65395573D01*
X76843568Y-65395573D01*
X77795949Y-64967002D02*
X77843568Y-64919383D01*
X77938806Y-64871763D01*
X78176901Y-64871763D01*
X78272139Y-64919383D01*
X78319758Y-64967002D01*
X78367377Y-65062240D01*
X78367377Y-65157478D01*
X78319758Y-65300335D01*
X77748330Y-65871763D01*
X78367377Y-65871763D01*
X79224520Y-65205097D02*
X79224520Y-65871763D01*
X78986425Y-64824144D02*
X78748330Y-65538430D01*
X79367377Y-65538430D01*
X28564996Y-72521763D02*
X28231663Y-72045573D01*
X27993568Y-72521763D02*
X27993568Y-71521763D01*
X28374520Y-71521763D01*
X28469758Y-71569383D01*
X28517377Y-71617002D01*
X28564996Y-71712240D01*
X28564996Y-71855097D01*
X28517377Y-71950335D01*
X28469758Y-71997954D01*
X28374520Y-72045573D01*
X27993568Y-72045573D01*
X28945949Y-71617002D02*
X28993568Y-71569383D01*
X29088806Y-71521763D01*
X29326901Y-71521763D01*
X29422139Y-71569383D01*
X29469758Y-71617002D01*
X29517377Y-71712240D01*
X29517377Y-71807478D01*
X29469758Y-71950335D01*
X28898330Y-72521763D01*
X29517377Y-72521763D01*
X29850711Y-71521763D02*
X30469758Y-71521763D01*
X30136425Y-71902716D01*
X30279282Y-71902716D01*
X30374520Y-71950335D01*
X30422139Y-71997954D01*
X30469758Y-72093192D01*
X30469758Y-72331287D01*
X30422139Y-72426525D01*
X30374520Y-72474144D01*
X30279282Y-72521763D01*
X29993568Y-72521763D01*
X29898330Y-72474144D01*
X29850711Y-72426525D01*
X118964996Y-120121763D02*
X118631663Y-119645573D01*
X118393568Y-120121763D02*
X118393568Y-119121763D01*
X118774520Y-119121763D01*
X118869758Y-119169383D01*
X118917377Y-119217002D01*
X118964996Y-119312240D01*
X118964996Y-119455097D01*
X118917377Y-119550335D01*
X118869758Y-119597954D01*
X118774520Y-119645573D01*
X118393568Y-119645573D01*
X119345949Y-119217002D02*
X119393568Y-119169383D01*
X119488806Y-119121763D01*
X119726901Y-119121763D01*
X119822139Y-119169383D01*
X119869758Y-119217002D01*
X119917377Y-119312240D01*
X119917377Y-119407478D01*
X119869758Y-119550335D01*
X119298330Y-120121763D01*
X119917377Y-120121763D01*
X120298330Y-119217002D02*
X120345949Y-119169383D01*
X120441187Y-119121763D01*
X120679282Y-119121763D01*
X120774520Y-119169383D01*
X120822139Y-119217002D01*
X120869758Y-119312240D01*
X120869758Y-119407478D01*
X120822139Y-119550335D01*
X120250711Y-120121763D01*
X120869758Y-120121763D01*
X103664996Y-120571763D02*
X103331663Y-120095573D01*
X103093568Y-120571763D02*
X103093568Y-119571763D01*
X103474520Y-119571763D01*
X103569758Y-119619383D01*
X103617377Y-119667002D01*
X103664996Y-119762240D01*
X103664996Y-119905097D01*
X103617377Y-120000335D01*
X103569758Y-120047954D01*
X103474520Y-120095573D01*
X103093568Y-120095573D01*
X104045949Y-119667002D02*
X104093568Y-119619383D01*
X104188806Y-119571763D01*
X104426901Y-119571763D01*
X104522139Y-119619383D01*
X104569758Y-119667002D01*
X104617377Y-119762240D01*
X104617377Y-119857478D01*
X104569758Y-120000335D01*
X103998330Y-120571763D01*
X104617377Y-120571763D01*
X105569758Y-120571763D02*
X104998330Y-120571763D01*
X105284044Y-120571763D02*
X105284044Y-119571763D01*
X105188806Y-119714621D01*
X105093568Y-119809859D01*
X104998330Y-119857478D01*
X83414996Y-116921763D02*
X83081663Y-116445573D01*
X82843568Y-116921763D02*
X82843568Y-115921763D01*
X83224520Y-115921763D01*
X83319758Y-115969383D01*
X83367377Y-116017002D01*
X83414996Y-116112240D01*
X83414996Y-116255097D01*
X83367377Y-116350335D01*
X83319758Y-116397954D01*
X83224520Y-116445573D01*
X82843568Y-116445573D01*
X83795949Y-116017002D02*
X83843568Y-115969383D01*
X83938806Y-115921763D01*
X84176901Y-115921763D01*
X84272139Y-115969383D01*
X84319758Y-116017002D01*
X84367377Y-116112240D01*
X84367377Y-116207478D01*
X84319758Y-116350335D01*
X83748330Y-116921763D01*
X84367377Y-116921763D01*
X84986425Y-115921763D02*
X85081663Y-115921763D01*
X85176901Y-115969383D01*
X85224520Y-116017002D01*
X85272139Y-116112240D01*
X85319758Y-116302716D01*
X85319758Y-116540811D01*
X85272139Y-116731287D01*
X85224520Y-116826525D01*
X85176901Y-116874144D01*
X85081663Y-116921763D01*
X84986425Y-116921763D01*
X84891187Y-116874144D01*
X84843568Y-116826525D01*
X84795949Y-116731287D01*
X84748330Y-116540811D01*
X84748330Y-116302716D01*
X84795949Y-116112240D01*
X84843568Y-116017002D01*
X84891187Y-115969383D01*
X84986425Y-115921763D01*
X29114996Y-87271763D02*
X28781663Y-86795573D01*
X28543568Y-87271763D02*
X28543568Y-86271763D01*
X28924520Y-86271763D01*
X29019758Y-86319383D01*
X29067377Y-86367002D01*
X29114996Y-86462240D01*
X29114996Y-86605097D01*
X29067377Y-86700335D01*
X29019758Y-86747954D01*
X28924520Y-86795573D01*
X28543568Y-86795573D01*
X30067377Y-87271763D02*
X29495949Y-87271763D01*
X29781663Y-87271763D02*
X29781663Y-86271763D01*
X29686425Y-86414621D01*
X29591187Y-86509859D01*
X29495949Y-86557478D01*
X30543568Y-87271763D02*
X30734044Y-87271763D01*
X30829282Y-87224144D01*
X30876901Y-87176525D01*
X30972139Y-87033668D01*
X31019758Y-86843192D01*
X31019758Y-86462240D01*
X30972139Y-86367002D01*
X30924520Y-86319383D01*
X30829282Y-86271763D01*
X30638806Y-86271763D01*
X30543568Y-86319383D01*
X30495949Y-86367002D01*
X30448330Y-86462240D01*
X30448330Y-86700335D01*
X30495949Y-86795573D01*
X30543568Y-86843192D01*
X30638806Y-86890811D01*
X30829282Y-86890811D01*
X30924520Y-86843192D01*
X30972139Y-86795573D01*
X31019758Y-86700335D01*
X29164996Y-100441763D02*
X28831663Y-99965573D01*
X28593568Y-100441763D02*
X28593568Y-99441763D01*
X28974520Y-99441763D01*
X29069758Y-99489383D01*
X29117377Y-99537002D01*
X29164996Y-99632240D01*
X29164996Y-99775097D01*
X29117377Y-99870335D01*
X29069758Y-99917954D01*
X28974520Y-99965573D01*
X28593568Y-99965573D01*
X30117377Y-100441763D02*
X29545949Y-100441763D01*
X29831663Y-100441763D02*
X29831663Y-99441763D01*
X29736425Y-99584621D01*
X29641187Y-99679859D01*
X29545949Y-99727478D01*
X30688806Y-99870335D02*
X30593568Y-99822716D01*
X30545949Y-99775097D01*
X30498330Y-99679859D01*
X30498330Y-99632240D01*
X30545949Y-99537002D01*
X30593568Y-99489383D01*
X30688806Y-99441763D01*
X30879282Y-99441763D01*
X30974520Y-99489383D01*
X31022139Y-99537002D01*
X31069758Y-99632240D01*
X31069758Y-99679859D01*
X31022139Y-99775097D01*
X30974520Y-99822716D01*
X30879282Y-99870335D01*
X30688806Y-99870335D01*
X30593568Y-99917954D01*
X30545949Y-99965573D01*
X30498330Y-100060811D01*
X30498330Y-100251287D01*
X30545949Y-100346525D01*
X30593568Y-100394144D01*
X30688806Y-100441763D01*
X30879282Y-100441763D01*
X30974520Y-100394144D01*
X31022139Y-100346525D01*
X31069758Y-100251287D01*
X31069758Y-100060811D01*
X31022139Y-99965573D01*
X30974520Y-99917954D01*
X30879282Y-99870335D01*
X115114996Y-98691763D02*
X114781663Y-98215573D01*
X114543568Y-98691763D02*
X114543568Y-97691763D01*
X114924520Y-97691763D01*
X115019758Y-97739383D01*
X115067377Y-97787002D01*
X115114996Y-97882240D01*
X115114996Y-98025097D01*
X115067377Y-98120335D01*
X115019758Y-98167954D01*
X114924520Y-98215573D01*
X114543568Y-98215573D01*
X116067377Y-98691763D02*
X115495949Y-98691763D01*
X115781663Y-98691763D02*
X115781663Y-97691763D01*
X115686425Y-97834621D01*
X115591187Y-97929859D01*
X115495949Y-97977478D01*
X116400711Y-97691763D02*
X117067377Y-97691763D01*
X116638806Y-98691763D01*
X34514996Y-76421763D02*
X34181663Y-75945573D01*
X33943568Y-76421763D02*
X33943568Y-75421763D01*
X34324520Y-75421763D01*
X34419758Y-75469383D01*
X34467377Y-75517002D01*
X34514996Y-75612240D01*
X34514996Y-75755097D01*
X34467377Y-75850335D01*
X34419758Y-75897954D01*
X34324520Y-75945573D01*
X33943568Y-75945573D01*
X35467377Y-76421763D02*
X34895949Y-76421763D01*
X35181663Y-76421763D02*
X35181663Y-75421763D01*
X35086425Y-75564621D01*
X34991187Y-75659859D01*
X34895949Y-75707478D01*
X36324520Y-75421763D02*
X36134044Y-75421763D01*
X36038806Y-75469383D01*
X35991187Y-75517002D01*
X35895949Y-75659859D01*
X35848330Y-75850335D01*
X35848330Y-76231287D01*
X35895949Y-76326525D01*
X35943568Y-76374144D01*
X36038806Y-76421763D01*
X36229282Y-76421763D01*
X36324520Y-76374144D01*
X36372139Y-76326525D01*
X36419758Y-76231287D01*
X36419758Y-75993192D01*
X36372139Y-75897954D01*
X36324520Y-75850335D01*
X36229282Y-75802716D01*
X36038806Y-75802716D01*
X35943568Y-75850335D01*
X35895949Y-75897954D01*
X35848330Y-75993192D01*
X123614996Y-100521763D02*
X123281663Y-100045573D01*
X123043568Y-100521763D02*
X123043568Y-99521763D01*
X123424520Y-99521763D01*
X123519758Y-99569383D01*
X123567377Y-99617002D01*
X123614996Y-99712240D01*
X123614996Y-99855097D01*
X123567377Y-99950335D01*
X123519758Y-99997954D01*
X123424520Y-100045573D01*
X123043568Y-100045573D01*
X124567377Y-100521763D02*
X123995949Y-100521763D01*
X124281663Y-100521763D02*
X124281663Y-99521763D01*
X124186425Y-99664621D01*
X124091187Y-99759859D01*
X123995949Y-99807478D01*
X125472139Y-99521763D02*
X124995949Y-99521763D01*
X124948330Y-99997954D01*
X124995949Y-99950335D01*
X125091187Y-99902716D01*
X125329282Y-99902716D01*
X125424520Y-99950335D01*
X125472139Y-99997954D01*
X125519758Y-100093192D01*
X125519758Y-100331287D01*
X125472139Y-100426525D01*
X125424520Y-100474144D01*
X125329282Y-100521763D01*
X125091187Y-100521763D01*
X124995949Y-100474144D01*
X124948330Y-100426525D01*
X86814996Y-112591763D02*
X86481663Y-112115573D01*
X86243568Y-112591763D02*
X86243568Y-111591763D01*
X86624520Y-111591763D01*
X86719758Y-111639383D01*
X86767377Y-111687002D01*
X86814996Y-111782240D01*
X86814996Y-111925097D01*
X86767377Y-112020335D01*
X86719758Y-112067954D01*
X86624520Y-112115573D01*
X86243568Y-112115573D01*
X87767377Y-112591763D02*
X87195949Y-112591763D01*
X87481663Y-112591763D02*
X87481663Y-111591763D01*
X87386425Y-111734621D01*
X87291187Y-111829859D01*
X87195949Y-111877478D01*
X88624520Y-111925097D02*
X88624520Y-112591763D01*
X88386425Y-111544144D02*
X88148330Y-112258430D01*
X88767377Y-112258430D01*
X148714996Y-105891763D02*
X148381663Y-105415573D01*
X148143568Y-105891763D02*
X148143568Y-104891763D01*
X148524520Y-104891763D01*
X148619758Y-104939383D01*
X148667377Y-104987002D01*
X148714996Y-105082240D01*
X148714996Y-105225097D01*
X148667377Y-105320335D01*
X148619758Y-105367954D01*
X148524520Y-105415573D01*
X148143568Y-105415573D01*
X149667377Y-105891763D02*
X149095949Y-105891763D01*
X149381663Y-105891763D02*
X149381663Y-104891763D01*
X149286425Y-105034621D01*
X149191187Y-105129859D01*
X149095949Y-105177478D01*
X150000711Y-104891763D02*
X150619758Y-104891763D01*
X150286425Y-105272716D01*
X150429282Y-105272716D01*
X150524520Y-105320335D01*
X150572139Y-105367954D01*
X150619758Y-105463192D01*
X150619758Y-105701287D01*
X150572139Y-105796525D01*
X150524520Y-105844144D01*
X150429282Y-105891763D01*
X150143568Y-105891763D01*
X150048330Y-105844144D01*
X150000711Y-105796525D01*
X134714556Y-37820083D02*
X134381223Y-37343893D01*
X134143128Y-37820083D02*
X134143128Y-36820083D01*
X134524080Y-36820083D01*
X134619318Y-36867703D01*
X134666937Y-36915322D01*
X134714556Y-37010560D01*
X134714556Y-37153417D01*
X134666937Y-37248655D01*
X134619318Y-37296274D01*
X134524080Y-37343893D01*
X134143128Y-37343893D01*
X135666937Y-37820083D02*
X135095509Y-37820083D01*
X135381223Y-37820083D02*
X135381223Y-36820083D01*
X135285985Y-36962941D01*
X135190747Y-37058179D01*
X135095509Y-37105798D01*
X136047890Y-36915322D02*
X136095509Y-36867703D01*
X136190747Y-36820083D01*
X136428842Y-36820083D01*
X136524080Y-36867703D01*
X136571699Y-36915322D01*
X136619318Y-37010560D01*
X136619318Y-37105798D01*
X136571699Y-37248655D01*
X136000271Y-37820083D01*
X136619318Y-37820083D01*
X134167156Y-43392883D02*
X133833823Y-42916693D01*
X133595728Y-43392883D02*
X133595728Y-42392883D01*
X133976680Y-42392883D01*
X134071918Y-42440503D01*
X134119537Y-42488122D01*
X134167156Y-42583360D01*
X134167156Y-42726217D01*
X134119537Y-42821455D01*
X134071918Y-42869074D01*
X133976680Y-42916693D01*
X133595728Y-42916693D01*
X135119537Y-43392883D02*
X134548109Y-43392883D01*
X134833823Y-43392883D02*
X134833823Y-42392883D01*
X134738585Y-42535741D01*
X134643347Y-42630979D01*
X134548109Y-42678598D01*
X136071918Y-43392883D02*
X135500490Y-43392883D01*
X135786204Y-43392883D02*
X135786204Y-42392883D01*
X135690966Y-42535741D01*
X135595728Y-42630979D01*
X135500490Y-42678598D01*
X134364996Y-47521763D02*
X134031663Y-47045573D01*
X133793568Y-47521763D02*
X133793568Y-46521763D01*
X134174520Y-46521763D01*
X134269758Y-46569383D01*
X134317377Y-46617002D01*
X134364996Y-46712240D01*
X134364996Y-46855097D01*
X134317377Y-46950335D01*
X134269758Y-46997954D01*
X134174520Y-47045573D01*
X133793568Y-47045573D01*
X135317377Y-47521763D02*
X134745949Y-47521763D01*
X135031663Y-47521763D02*
X135031663Y-46521763D01*
X134936425Y-46664621D01*
X134841187Y-46759859D01*
X134745949Y-46807478D01*
X135936425Y-46521763D02*
X136031663Y-46521763D01*
X136126901Y-46569383D01*
X136174520Y-46617002D01*
X136222139Y-46712240D01*
X136269758Y-46902716D01*
X136269758Y-47140811D01*
X136222139Y-47331287D01*
X136174520Y-47426525D01*
X136126901Y-47474144D01*
X136031663Y-47521763D01*
X135936425Y-47521763D01*
X135841187Y-47474144D01*
X135793568Y-47426525D01*
X135745949Y-47331287D01*
X135698330Y-47140811D01*
X135698330Y-46902716D01*
X135745949Y-46712240D01*
X135793568Y-46617002D01*
X135841187Y-46569383D01*
X135936425Y-46521763D01*
X133341187Y-60571763D02*
X133007854Y-60095573D01*
X132769758Y-60571763D02*
X132769758Y-59571763D01*
X133150711Y-59571763D01*
X133245949Y-59619383D01*
X133293568Y-59667002D01*
X133341187Y-59762240D01*
X133341187Y-59905097D01*
X133293568Y-60000335D01*
X133245949Y-60047954D01*
X133150711Y-60095573D01*
X132769758Y-60095573D01*
X133817377Y-60571763D02*
X134007854Y-60571763D01*
X134103092Y-60524144D01*
X134150711Y-60476525D01*
X134245949Y-60333668D01*
X134293568Y-60143192D01*
X134293568Y-59762240D01*
X134245949Y-59667002D01*
X134198330Y-59619383D01*
X134103092Y-59571763D01*
X133912615Y-59571763D01*
X133817377Y-59619383D01*
X133769758Y-59667002D01*
X133722139Y-59762240D01*
X133722139Y-60000335D01*
X133769758Y-60095573D01*
X133817377Y-60143192D01*
X133912615Y-60190811D01*
X134103092Y-60190811D01*
X134198330Y-60143192D01*
X134245949Y-60095573D01*
X134293568Y-60000335D01*
X132291187Y-50771763D02*
X131957854Y-50295573D01*
X131719758Y-50771763D02*
X131719758Y-49771763D01*
X132100711Y-49771763D01*
X132195949Y-49819383D01*
X132243568Y-49867002D01*
X132291187Y-49962240D01*
X132291187Y-50105097D01*
X132243568Y-50200335D01*
X132195949Y-50247954D01*
X132100711Y-50295573D01*
X131719758Y-50295573D01*
X132862615Y-50200335D02*
X132767377Y-50152716D01*
X132719758Y-50105097D01*
X132672139Y-50009859D01*
X132672139Y-49962240D01*
X132719758Y-49867002D01*
X132767377Y-49819383D01*
X132862615Y-49771763D01*
X133053092Y-49771763D01*
X133148330Y-49819383D01*
X133195949Y-49867002D01*
X133243568Y-49962240D01*
X133243568Y-50009859D01*
X133195949Y-50105097D01*
X133148330Y-50152716D01*
X133053092Y-50200335D01*
X132862615Y-50200335D01*
X132767377Y-50247954D01*
X132719758Y-50295573D01*
X132672139Y-50390811D01*
X132672139Y-50581287D01*
X132719758Y-50676525D01*
X132767377Y-50724144D01*
X132862615Y-50771763D01*
X133053092Y-50771763D01*
X133148330Y-50724144D01*
X133195949Y-50676525D01*
X133243568Y-50581287D01*
X133243568Y-50390811D01*
X133195949Y-50295573D01*
X133148330Y-50247954D01*
X133053092Y-50200335D01*
X149191187Y-40891763D02*
X148857854Y-40415573D01*
X148619758Y-40891763D02*
X148619758Y-39891763D01*
X149000711Y-39891763D01*
X149095949Y-39939383D01*
X149143568Y-39987002D01*
X149191187Y-40082240D01*
X149191187Y-40225097D01*
X149143568Y-40320335D01*
X149095949Y-40367954D01*
X149000711Y-40415573D01*
X148619758Y-40415573D01*
X149524520Y-39891763D02*
X150191187Y-39891763D01*
X149762615Y-40891763D01*
X53791187Y-66321763D02*
X53457854Y-65845573D01*
X53219758Y-66321763D02*
X53219758Y-65321763D01*
X53600711Y-65321763D01*
X53695949Y-65369383D01*
X53743568Y-65417002D01*
X53791187Y-65512240D01*
X53791187Y-65655097D01*
X53743568Y-65750335D01*
X53695949Y-65797954D01*
X53600711Y-65845573D01*
X53219758Y-65845573D01*
X54648330Y-65321763D02*
X54457854Y-65321763D01*
X54362615Y-65369383D01*
X54314996Y-65417002D01*
X54219758Y-65559859D01*
X54172139Y-65750335D01*
X54172139Y-66131287D01*
X54219758Y-66226525D01*
X54267377Y-66274144D01*
X54362615Y-66321763D01*
X54553092Y-66321763D01*
X54648330Y-66274144D01*
X54695949Y-66226525D01*
X54743568Y-66131287D01*
X54743568Y-65893192D01*
X54695949Y-65797954D01*
X54648330Y-65750335D01*
X54553092Y-65702716D01*
X54362615Y-65702716D01*
X54267377Y-65750335D01*
X54219758Y-65797954D01*
X54172139Y-65893192D01*
X77091187Y-57771763D02*
X76757854Y-57295573D01*
X76519758Y-57771763D02*
X76519758Y-56771763D01*
X76900711Y-56771763D01*
X76995949Y-56819383D01*
X77043568Y-56867002D01*
X77091187Y-56962240D01*
X77091187Y-57105097D01*
X77043568Y-57200335D01*
X76995949Y-57247954D01*
X76900711Y-57295573D01*
X76519758Y-57295573D01*
X77995949Y-56771763D02*
X77519758Y-56771763D01*
X77472139Y-57247954D01*
X77519758Y-57200335D01*
X77614996Y-57152716D01*
X77853092Y-57152716D01*
X77948330Y-57200335D01*
X77995949Y-57247954D01*
X78043568Y-57343192D01*
X78043568Y-57581287D01*
X77995949Y-57676525D01*
X77948330Y-57724144D01*
X77853092Y-57771763D01*
X77614996Y-57771763D01*
X77519758Y-57724144D01*
X77472139Y-57676525D01*
X83291187Y-57621763D02*
X82957854Y-57145573D01*
X82719758Y-57621763D02*
X82719758Y-56621763D01*
X83100711Y-56621763D01*
X83195949Y-56669383D01*
X83243568Y-56717002D01*
X83291187Y-56812240D01*
X83291187Y-56955097D01*
X83243568Y-57050335D01*
X83195949Y-57097954D01*
X83100711Y-57145573D01*
X82719758Y-57145573D01*
X84148330Y-56955097D02*
X84148330Y-57621763D01*
X83910234Y-56574144D02*
X83672139Y-57288430D01*
X84291187Y-57288430D01*
X80991187Y-60321763D02*
X80657854Y-59845573D01*
X80419758Y-60321763D02*
X80419758Y-59321763D01*
X80800711Y-59321763D01*
X80895949Y-59369383D01*
X80943568Y-59417002D01*
X80991187Y-59512240D01*
X80991187Y-59655097D01*
X80943568Y-59750335D01*
X80895949Y-59797954D01*
X80800711Y-59845573D01*
X80419758Y-59845573D01*
X81324520Y-59321763D02*
X81943568Y-59321763D01*
X81610234Y-59702716D01*
X81753092Y-59702716D01*
X81848330Y-59750335D01*
X81895949Y-59797954D01*
X81943568Y-59893192D01*
X81943568Y-60131287D01*
X81895949Y-60226525D01*
X81848330Y-60274144D01*
X81753092Y-60321763D01*
X81467377Y-60321763D01*
X81372139Y-60274144D01*
X81324520Y-60226525D01*
X88591187Y-53621763D02*
X88257854Y-53145573D01*
X88019758Y-53621763D02*
X88019758Y-52621763D01*
X88400711Y-52621763D01*
X88495949Y-52669383D01*
X88543568Y-52717002D01*
X88591187Y-52812240D01*
X88591187Y-52955097D01*
X88543568Y-53050335D01*
X88495949Y-53097954D01*
X88400711Y-53145573D01*
X88019758Y-53145573D01*
X88972139Y-52717002D02*
X89019758Y-52669383D01*
X89114996Y-52621763D01*
X89353092Y-52621763D01*
X89448330Y-52669383D01*
X89495949Y-52717002D01*
X89543568Y-52812240D01*
X89543568Y-52907478D01*
X89495949Y-53050335D01*
X88924520Y-53621763D01*
X89543568Y-53621763D01*
X148074867Y-55447723D02*
X147741534Y-54971533D01*
X147503438Y-55447723D02*
X147503438Y-54447723D01*
X147884391Y-54447723D01*
X147979629Y-54495343D01*
X148027248Y-54542962D01*
X148074867Y-54638200D01*
X148074867Y-54781057D01*
X148027248Y-54876295D01*
X147979629Y-54923914D01*
X147884391Y-54971533D01*
X147503438Y-54971533D01*
X149027248Y-55447723D02*
X148455819Y-55447723D01*
X148741534Y-55447723D02*
X148741534Y-54447723D01*
X148646295Y-54590581D01*
X148551057Y-54685819D01*
X148455819Y-54733438D01*
X91948330Y-95421763D02*
X91948330Y-96136049D01*
X91900711Y-96278906D01*
X91805473Y-96374144D01*
X91662615Y-96421763D01*
X91567377Y-96421763D01*
X92948330Y-96421763D02*
X92376901Y-96421763D01*
X92662615Y-96421763D02*
X92662615Y-95421763D01*
X92567377Y-95564621D01*
X92472139Y-95659859D01*
X92376901Y-95707478D01*
X93281663Y-95421763D02*
X93900711Y-95421763D01*
X93567377Y-95802716D01*
X93710234Y-95802716D01*
X93805473Y-95850335D01*
X93853092Y-95897954D01*
X93900711Y-95993192D01*
X93900711Y-96231287D01*
X93853092Y-96326525D01*
X93805473Y-96374144D01*
X93710234Y-96421763D01*
X93424520Y-96421763D01*
X93329282Y-96374144D01*
X93281663Y-96326525D01*
X85575058Y-98825254D02*
X85717915Y-98872873D01*
X85765534Y-98920492D01*
X85813154Y-99015730D01*
X85813154Y-99158587D01*
X85765534Y-99253825D01*
X85717915Y-99301444D01*
X85622677Y-99349063D01*
X85241725Y-99349063D01*
X85241725Y-98349063D01*
X85575058Y-98349063D01*
X85670296Y-98396683D01*
X85717915Y-98444302D01*
X85765534Y-98539540D01*
X85765534Y-98634778D01*
X85717915Y-98730016D01*
X85670296Y-98777635D01*
X85575058Y-98825254D01*
X85241725Y-98825254D01*
X86241725Y-98349063D02*
X86241725Y-99158587D01*
X86289344Y-99253825D01*
X86336963Y-99301444D01*
X86432201Y-99349063D01*
X86622677Y-99349063D01*
X86717915Y-99301444D01*
X86765534Y-99253825D01*
X86813154Y-99158587D01*
X86813154Y-98349063D01*
X87194106Y-98349063D02*
X87860773Y-98349063D01*
X87194106Y-99349063D01*
X87860773Y-99349063D01*
X88146487Y-98349063D02*
X88813154Y-98349063D01*
X88146487Y-99349063D01*
X88813154Y-99349063D01*
X89194106Y-98825254D02*
X89527439Y-98825254D01*
X89670296Y-99349063D02*
X89194106Y-99349063D01*
X89194106Y-98349063D01*
X89670296Y-98349063D01*
X90670296Y-99349063D02*
X90336963Y-98872873D01*
X90098868Y-99349063D02*
X90098868Y-98349063D01*
X90479820Y-98349063D01*
X90575058Y-98396683D01*
X90622677Y-98444302D01*
X90670296Y-98539540D01*
X90670296Y-98682397D01*
X90622677Y-98777635D01*
X90575058Y-98825254D01*
X90479820Y-98872873D01*
X90098868Y-98872873D01*
X90860773Y-99444302D02*
X91622677Y-99444302D01*
X92432201Y-99253825D02*
X92384582Y-99301444D01*
X92241725Y-99349063D01*
X92146487Y-99349063D01*
X92003630Y-99301444D01*
X91908392Y-99206206D01*
X91860773Y-99110968D01*
X91813154Y-98920492D01*
X91813154Y-98777635D01*
X91860773Y-98587159D01*
X91908392Y-98491921D01*
X92003630Y-98396683D01*
X92146487Y-98349063D01*
X92241725Y-98349063D01*
X92384582Y-98396683D01*
X92432201Y-98444302D01*
X96648330Y-87421763D02*
X96648330Y-88136049D01*
X96600711Y-88278906D01*
X96505473Y-88374144D01*
X96362615Y-88421763D01*
X96267377Y-88421763D01*
X97648330Y-88421763D02*
X97076901Y-88421763D01*
X97362615Y-88421763D02*
X97362615Y-87421763D01*
X97267377Y-87564621D01*
X97172139Y-87659859D01*
X97076901Y-87707478D01*
X98600711Y-88421763D02*
X98029282Y-88421763D01*
X98314996Y-88421763D02*
X98314996Y-87421763D01*
X98219758Y-87564621D01*
X98124520Y-87659859D01*
X98029282Y-87707478D01*
X99362615Y-87421763D02*
X99362615Y-88231287D01*
X99410234Y-88326525D01*
X99457854Y-88374144D01*
X99553092Y-88421763D01*
X99743568Y-88421763D01*
X99838806Y-88374144D01*
X99886425Y-88326525D01*
X99934044Y-88231287D01*
X99934044Y-87421763D01*
X100362615Y-88136049D02*
X100838806Y-88136049D01*
X100267377Y-88421763D02*
X100600711Y-87421763D01*
X100934044Y-88421763D01*
X101838806Y-88421763D02*
X101505473Y-87945573D01*
X101267377Y-88421763D02*
X101267377Y-87421763D01*
X101648330Y-87421763D01*
X101743568Y-87469383D01*
X101791187Y-87517002D01*
X101838806Y-87612240D01*
X101838806Y-87755097D01*
X101791187Y-87850335D01*
X101743568Y-87897954D01*
X101648330Y-87945573D01*
X101267377Y-87945573D01*
X102124520Y-87421763D02*
X102695949Y-87421763D01*
X102410234Y-88421763D02*
X102410234Y-87421763D01*
X69924520Y-90771763D02*
X69924520Y-91486049D01*
X69876901Y-91628906D01*
X69781663Y-91724144D01*
X69638806Y-91771763D01*
X69543568Y-91771763D01*
X70448330Y-91771763D02*
X70638806Y-91771763D01*
X70734044Y-91724144D01*
X70781663Y-91676525D01*
X70876901Y-91533668D01*
X70924520Y-91343192D01*
X70924520Y-90962240D01*
X70876901Y-90867002D01*
X70829282Y-90819383D01*
X70734044Y-90771763D01*
X70543568Y-90771763D01*
X70448330Y-90819383D01*
X70400711Y-90867002D01*
X70353092Y-90962240D01*
X70353092Y-91200335D01*
X70400711Y-91295573D01*
X70448330Y-91343192D01*
X70543568Y-91390811D01*
X70734044Y-91390811D01*
X70829282Y-91343192D01*
X70876901Y-91295573D01*
X70924520Y-91200335D01*
X84924520Y-90771763D02*
X84924520Y-91486049D01*
X84876901Y-91628906D01*
X84781663Y-91724144D01*
X84638806Y-91771763D01*
X84543568Y-91771763D01*
X85543568Y-91200335D02*
X85448330Y-91152716D01*
X85400711Y-91105097D01*
X85353092Y-91009859D01*
X85353092Y-90962240D01*
X85400711Y-90867002D01*
X85448330Y-90819383D01*
X85543568Y-90771763D01*
X85734044Y-90771763D01*
X85829282Y-90819383D01*
X85876901Y-90867002D01*
X85924520Y-90962240D01*
X85924520Y-91009859D01*
X85876901Y-91105097D01*
X85829282Y-91152716D01*
X85734044Y-91200335D01*
X85543568Y-91200335D01*
X85448330Y-91247954D01*
X85400711Y-91295573D01*
X85353092Y-91390811D01*
X85353092Y-91581287D01*
X85400711Y-91676525D01*
X85448330Y-91724144D01*
X85543568Y-91771763D01*
X85734044Y-91771763D01*
X85829282Y-91724144D01*
X85876901Y-91676525D01*
X85924520Y-91581287D01*
X85924520Y-91390811D01*
X85876901Y-91295573D01*
X85829282Y-91247954D01*
X85734044Y-91200335D01*
X53574520Y-78121763D02*
X53574520Y-78836049D01*
X53526901Y-78978906D01*
X53431663Y-79074144D01*
X53288806Y-79121763D01*
X53193568Y-79121763D01*
X53955473Y-78121763D02*
X54622139Y-78121763D01*
X54193568Y-79121763D01*
X121274520Y-54671763D02*
X121274520Y-55386049D01*
X121226901Y-55528906D01*
X121131663Y-55624144D01*
X120988806Y-55671763D01*
X120893568Y-55671763D01*
X121655473Y-54671763D02*
X122274520Y-54671763D01*
X121941187Y-55052716D01*
X122084044Y-55052716D01*
X122179282Y-55100335D01*
X122226901Y-55147954D01*
X122274520Y-55243192D01*
X122274520Y-55481287D01*
X122226901Y-55576525D01*
X122179282Y-55624144D01*
X122084044Y-55671763D01*
X121798330Y-55671763D01*
X121703092Y-55624144D01*
X121655473Y-55576525D01*
X112110234Y-53321763D02*
X112110234Y-54131287D01*
X112157854Y-54226525D01*
X112205473Y-54274144D01*
X112300711Y-54321763D01*
X112491187Y-54321763D01*
X112586425Y-54274144D01*
X112634044Y-54226525D01*
X112681663Y-54131287D01*
X112681663Y-53321763D01*
X113110234Y-54036049D02*
X113586425Y-54036049D01*
X113014996Y-54321763D02*
X113348330Y-53321763D01*
X113681663Y-54321763D01*
X114586425Y-54321763D02*
X114253092Y-53845573D01*
X114014996Y-54321763D02*
X114014996Y-53321763D01*
X114395949Y-53321763D01*
X114491187Y-53369383D01*
X114538806Y-53417002D01*
X114586425Y-53512240D01*
X114586425Y-53655097D01*
X114538806Y-53750335D01*
X114491187Y-53797954D01*
X114395949Y-53845573D01*
X114014996Y-53845573D01*
X114872139Y-53321763D02*
X115443568Y-53321763D01*
X115157854Y-54321763D02*
X115157854Y-53321763D01*
X115538806Y-54417002D02*
X116300711Y-54417002D01*
X116538806Y-54321763D02*
X116538806Y-53321763D01*
X116872139Y-54036049D01*
X117205473Y-53321763D01*
X117205473Y-54321763D01*
X57224520Y-43821763D02*
X57224520Y-44536049D01*
X57176901Y-44678906D01*
X57081663Y-44774144D01*
X56938806Y-44821763D01*
X56843568Y-44821763D01*
X57653092Y-43917002D02*
X57700711Y-43869383D01*
X57795949Y-43821763D01*
X58034044Y-43821763D01*
X58129282Y-43869383D01*
X58176901Y-43917002D01*
X58224520Y-44012240D01*
X58224520Y-44107478D01*
X58176901Y-44250335D01*
X57605473Y-44821763D01*
X58224520Y-44821763D01*
D10*
X67229282Y-42447954D02*
X66372139Y-42447954D01*
X66800711Y-42447954D02*
X66800711Y-40947954D01*
X66657854Y-41162240D01*
X66514996Y-41305097D01*
X66372139Y-41376525D01*
X67800711Y-41090811D02*
X67872139Y-41019383D01*
X68014996Y-40947954D01*
X68372139Y-40947954D01*
X68514996Y-41019383D01*
X68586425Y-41090811D01*
X68657854Y-41233668D01*
X68657854Y-41376525D01*
X68586425Y-41590811D01*
X67729282Y-42447954D01*
X68657854Y-42447954D01*
X69086425Y-40947954D02*
X69586425Y-42447954D01*
X70086425Y-40947954D01*
D13*
X45824520Y-43821763D02*
X45824520Y-44536049D01*
X45776901Y-44678906D01*
X45681663Y-44774144D01*
X45538806Y-44821763D01*
X45443568Y-44821763D01*
X46824520Y-44821763D02*
X46253092Y-44821763D01*
X46538806Y-44821763D02*
X46538806Y-43821763D01*
X46443568Y-43964621D01*
X46348330Y-44059859D01*
X46253092Y-44107478D01*
X51067377Y-46024144D02*
X51210234Y-46071763D01*
X51448330Y-46071763D01*
X51543568Y-46024144D01*
X51591187Y-45976525D01*
X51638806Y-45881287D01*
X51638806Y-45786049D01*
X51591187Y-45690811D01*
X51543568Y-45643192D01*
X51448330Y-45595573D01*
X51257854Y-45547954D01*
X51162615Y-45500335D01*
X51114996Y-45452716D01*
X51067377Y-45357478D01*
X51067377Y-45262240D01*
X51114996Y-45167002D01*
X51162615Y-45119383D01*
X51257854Y-45071763D01*
X51495949Y-45071763D01*
X51638806Y-45119383D01*
X51924520Y-45071763D02*
X52257854Y-46071763D01*
X52591187Y-45071763D01*
X53448330Y-46071763D02*
X52876901Y-46071763D01*
X53162615Y-46071763D02*
X53162615Y-45071763D01*
X53067377Y-45214621D01*
X52972139Y-45309859D01*
X52876901Y-45357478D01*
X70619758Y-56971763D02*
X70619758Y-55971763D01*
X70857854Y-55971763D01*
X71000711Y-56019383D01*
X71095949Y-56114621D01*
X71143568Y-56209859D01*
X71191187Y-56400335D01*
X71191187Y-56543192D01*
X71143568Y-56733668D01*
X71095949Y-56828906D01*
X71000711Y-56924144D01*
X70857854Y-56971763D01*
X70619758Y-56971763D01*
X72048330Y-56305097D02*
X72048330Y-56971763D01*
X71810234Y-55924144D02*
X71572139Y-56638430D01*
X72191187Y-56638430D01*
X57169758Y-93921763D02*
X57169758Y-92921763D01*
X57407854Y-92921763D01*
X57550711Y-92969383D01*
X57645949Y-93064621D01*
X57693568Y-93159859D01*
X57741187Y-93350335D01*
X57741187Y-93493192D01*
X57693568Y-93683668D01*
X57645949Y-93778906D01*
X57550711Y-93874144D01*
X57407854Y-93921763D01*
X57169758Y-93921763D01*
X58074520Y-92921763D02*
X58693568Y-92921763D01*
X58360234Y-93302716D01*
X58503092Y-93302716D01*
X58598330Y-93350335D01*
X58645949Y-93397954D01*
X58693568Y-93493192D01*
X58693568Y-93731287D01*
X58645949Y-93826525D01*
X58598330Y-93874144D01*
X58503092Y-93921763D01*
X58217377Y-93921763D01*
X58122139Y-93874144D01*
X58074520Y-93826525D01*
X71369758Y-94021763D02*
X71369758Y-93021763D01*
X71607854Y-93021763D01*
X71750711Y-93069383D01*
X71845949Y-93164621D01*
X71893568Y-93259859D01*
X71941187Y-93450335D01*
X71941187Y-93593192D01*
X71893568Y-93783668D01*
X71845949Y-93878906D01*
X71750711Y-93974144D01*
X71607854Y-94021763D01*
X71369758Y-94021763D01*
X72322139Y-93117002D02*
X72369758Y-93069383D01*
X72464996Y-93021763D01*
X72703092Y-93021763D01*
X72798330Y-93069383D01*
X72845949Y-93117002D01*
X72893568Y-93212240D01*
X72893568Y-93307478D01*
X72845949Y-93450335D01*
X72274520Y-94021763D01*
X72893568Y-94021763D01*
X42719758Y-44971763D02*
X42719758Y-43971763D01*
X42957854Y-43971763D01*
X43100711Y-44019383D01*
X43195949Y-44114621D01*
X43243568Y-44209859D01*
X43291187Y-44400335D01*
X43291187Y-44543192D01*
X43243568Y-44733668D01*
X43195949Y-44828906D01*
X43100711Y-44924144D01*
X42957854Y-44971763D01*
X42719758Y-44971763D01*
X44243568Y-44971763D02*
X43672139Y-44971763D01*
X43957854Y-44971763D02*
X43957854Y-43971763D01*
X43862615Y-44114621D01*
X43767377Y-44209859D01*
X43672139Y-44257478D01*
X98414996Y-109846525D02*
X98367377Y-109894144D01*
X98224520Y-109941763D01*
X98129282Y-109941763D01*
X97986425Y-109894144D01*
X97891187Y-109798906D01*
X97843568Y-109703668D01*
X97795949Y-109513192D01*
X97795949Y-109370335D01*
X97843568Y-109179859D01*
X97891187Y-109084621D01*
X97986425Y-108989383D01*
X98129282Y-108941763D01*
X98224520Y-108941763D01*
X98367377Y-108989383D01*
X98414996Y-109037002D01*
X98748330Y-108941763D02*
X99367377Y-108941763D01*
X99034044Y-109322716D01*
X99176901Y-109322716D01*
X99272139Y-109370335D01*
X99319758Y-109417954D01*
X99367377Y-109513192D01*
X99367377Y-109751287D01*
X99319758Y-109846525D01*
X99272139Y-109894144D01*
X99176901Y-109941763D01*
X98891187Y-109941763D01*
X98795949Y-109894144D01*
X98748330Y-109846525D01*
X99986425Y-108941763D02*
X100081663Y-108941763D01*
X100176901Y-108989383D01*
X100224520Y-109037002D01*
X100272139Y-109132240D01*
X100319758Y-109322716D01*
X100319758Y-109560811D01*
X100272139Y-109751287D01*
X100224520Y-109846525D01*
X100176901Y-109894144D01*
X100081663Y-109941763D01*
X99986425Y-109941763D01*
X99891187Y-109894144D01*
X99843568Y-109846525D01*
X99795949Y-109751287D01*
X99748330Y-109560811D01*
X99748330Y-109322716D01*
X99795949Y-109132240D01*
X99843568Y-109037002D01*
X99891187Y-108989383D01*
X99986425Y-108941763D01*
X106914996Y-92126525D02*
X106867377Y-92174144D01*
X106724520Y-92221763D01*
X106629282Y-92221763D01*
X106486425Y-92174144D01*
X106391187Y-92078906D01*
X106343568Y-91983668D01*
X106295949Y-91793192D01*
X106295949Y-91650335D01*
X106343568Y-91459859D01*
X106391187Y-91364621D01*
X106486425Y-91269383D01*
X106629282Y-91221763D01*
X106724520Y-91221763D01*
X106867377Y-91269383D01*
X106914996Y-91317002D01*
X107295949Y-91317002D02*
X107343568Y-91269383D01*
X107438806Y-91221763D01*
X107676901Y-91221763D01*
X107772139Y-91269383D01*
X107819758Y-91317002D01*
X107867377Y-91412240D01*
X107867377Y-91507478D01*
X107819758Y-91650335D01*
X107248330Y-92221763D01*
X107867377Y-92221763D01*
X108343568Y-92221763D02*
X108534044Y-92221763D01*
X108629282Y-92174144D01*
X108676901Y-92126525D01*
X108772139Y-91983668D01*
X108819758Y-91793192D01*
X108819758Y-91412240D01*
X108772139Y-91317002D01*
X108724520Y-91269383D01*
X108629282Y-91221763D01*
X108438806Y-91221763D01*
X108343568Y-91269383D01*
X108295949Y-91317002D01*
X108248330Y-91412240D01*
X108248330Y-91650335D01*
X108295949Y-91745573D01*
X108343568Y-91793192D01*
X108438806Y-91840811D01*
X108629282Y-91840811D01*
X108724520Y-91793192D01*
X108772139Y-91745573D01*
X108819758Y-91650335D01*
X79564996Y-82426525D02*
X79517377Y-82474144D01*
X79374520Y-82521763D01*
X79279282Y-82521763D01*
X79136425Y-82474144D01*
X79041187Y-82378906D01*
X78993568Y-82283668D01*
X78945949Y-82093192D01*
X78945949Y-81950335D01*
X78993568Y-81759859D01*
X79041187Y-81664621D01*
X79136425Y-81569383D01*
X79279282Y-81521763D01*
X79374520Y-81521763D01*
X79517377Y-81569383D01*
X79564996Y-81617002D01*
X79945949Y-81617002D02*
X79993568Y-81569383D01*
X80088806Y-81521763D01*
X80326901Y-81521763D01*
X80422139Y-81569383D01*
X80469758Y-81617002D01*
X80517377Y-81712240D01*
X80517377Y-81807478D01*
X80469758Y-81950335D01*
X79898330Y-82521763D01*
X80517377Y-82521763D01*
X81088806Y-81950335D02*
X80993568Y-81902716D01*
X80945949Y-81855097D01*
X80898330Y-81759859D01*
X80898330Y-81712240D01*
X80945949Y-81617002D01*
X80993568Y-81569383D01*
X81088806Y-81521763D01*
X81279282Y-81521763D01*
X81374520Y-81569383D01*
X81422139Y-81617002D01*
X81469758Y-81712240D01*
X81469758Y-81759859D01*
X81422139Y-81855097D01*
X81374520Y-81902716D01*
X81279282Y-81950335D01*
X81088806Y-81950335D01*
X80993568Y-81997954D01*
X80945949Y-82045573D01*
X80898330Y-82140811D01*
X80898330Y-82331287D01*
X80945949Y-82426525D01*
X80993568Y-82474144D01*
X81088806Y-82521763D01*
X81279282Y-82521763D01*
X81374520Y-82474144D01*
X81422139Y-82426525D01*
X81469758Y-82331287D01*
X81469758Y-82140811D01*
X81422139Y-82045573D01*
X81374520Y-81997954D01*
X81279282Y-81950335D01*
X146014996Y-88676525D02*
X145967377Y-88724144D01*
X145824520Y-88771763D01*
X145729282Y-88771763D01*
X145586425Y-88724144D01*
X145491187Y-88628906D01*
X145443568Y-88533668D01*
X145395949Y-88343192D01*
X145395949Y-88200335D01*
X145443568Y-88009859D01*
X145491187Y-87914621D01*
X145586425Y-87819383D01*
X145729282Y-87771763D01*
X145824520Y-87771763D01*
X145967377Y-87819383D01*
X146014996Y-87867002D01*
X146395949Y-87867002D02*
X146443568Y-87819383D01*
X146538806Y-87771763D01*
X146776901Y-87771763D01*
X146872139Y-87819383D01*
X146919758Y-87867002D01*
X146967377Y-87962240D01*
X146967377Y-88057478D01*
X146919758Y-88200335D01*
X146348330Y-88771763D01*
X146967377Y-88771763D01*
X147300711Y-87771763D02*
X147967377Y-87771763D01*
X147538806Y-88771763D01*
X109264996Y-94026525D02*
X109217377Y-94074144D01*
X109074520Y-94121763D01*
X108979282Y-94121763D01*
X108836425Y-94074144D01*
X108741187Y-93978906D01*
X108693568Y-93883668D01*
X108645949Y-93693192D01*
X108645949Y-93550335D01*
X108693568Y-93359859D01*
X108741187Y-93264621D01*
X108836425Y-93169383D01*
X108979282Y-93121763D01*
X109074520Y-93121763D01*
X109217377Y-93169383D01*
X109264996Y-93217002D01*
X109645949Y-93217002D02*
X109693568Y-93169383D01*
X109788806Y-93121763D01*
X110026901Y-93121763D01*
X110122139Y-93169383D01*
X110169758Y-93217002D01*
X110217377Y-93312240D01*
X110217377Y-93407478D01*
X110169758Y-93550335D01*
X109598330Y-94121763D01*
X110217377Y-94121763D01*
X111074520Y-93121763D02*
X110884044Y-93121763D01*
X110788806Y-93169383D01*
X110741187Y-93217002D01*
X110645949Y-93359859D01*
X110598330Y-93550335D01*
X110598330Y-93931287D01*
X110645949Y-94026525D01*
X110693568Y-94074144D01*
X110788806Y-94121763D01*
X110979282Y-94121763D01*
X111074520Y-94074144D01*
X111122139Y-94026525D01*
X111169758Y-93931287D01*
X111169758Y-93693192D01*
X111122139Y-93597954D01*
X111074520Y-93550335D01*
X110979282Y-93502716D01*
X110788806Y-93502716D01*
X110693568Y-93550335D01*
X110645949Y-93597954D01*
X110598330Y-93693192D01*
X66414996Y-88706525D02*
X66367377Y-88754144D01*
X66224520Y-88801763D01*
X66129282Y-88801763D01*
X65986425Y-88754144D01*
X65891187Y-88658906D01*
X65843568Y-88563668D01*
X65795949Y-88373192D01*
X65795949Y-88230335D01*
X65843568Y-88039859D01*
X65891187Y-87944621D01*
X65986425Y-87849383D01*
X66129282Y-87801763D01*
X66224520Y-87801763D01*
X66367377Y-87849383D01*
X66414996Y-87897002D01*
X66795949Y-87897002D02*
X66843568Y-87849383D01*
X66938806Y-87801763D01*
X67176901Y-87801763D01*
X67272139Y-87849383D01*
X67319758Y-87897002D01*
X67367377Y-87992240D01*
X67367377Y-88087478D01*
X67319758Y-88230335D01*
X66748330Y-88801763D01*
X67367377Y-88801763D01*
X68272139Y-87801763D02*
X67795949Y-87801763D01*
X67748330Y-88277954D01*
X67795949Y-88230335D01*
X67891187Y-88182716D01*
X68129282Y-88182716D01*
X68224520Y-88230335D01*
X68272139Y-88277954D01*
X68319758Y-88373192D01*
X68319758Y-88611287D01*
X68272139Y-88706525D01*
X68224520Y-88754144D01*
X68129282Y-88801763D01*
X67891187Y-88801763D01*
X67795949Y-88754144D01*
X67748330Y-88706525D01*
X81014996Y-88706525D02*
X80967377Y-88754144D01*
X80824520Y-88801763D01*
X80729282Y-88801763D01*
X80586425Y-88754144D01*
X80491187Y-88658906D01*
X80443568Y-88563668D01*
X80395949Y-88373192D01*
X80395949Y-88230335D01*
X80443568Y-88039859D01*
X80491187Y-87944621D01*
X80586425Y-87849383D01*
X80729282Y-87801763D01*
X80824520Y-87801763D01*
X80967377Y-87849383D01*
X81014996Y-87897002D01*
X81395949Y-87897002D02*
X81443568Y-87849383D01*
X81538806Y-87801763D01*
X81776901Y-87801763D01*
X81872139Y-87849383D01*
X81919758Y-87897002D01*
X81967377Y-87992240D01*
X81967377Y-88087478D01*
X81919758Y-88230335D01*
X81348330Y-88801763D01*
X81967377Y-88801763D01*
X82824520Y-88135097D02*
X82824520Y-88801763D01*
X82586425Y-87754144D02*
X82348330Y-88468430D01*
X82967377Y-88468430D01*
X58414996Y-105476525D02*
X58367377Y-105524144D01*
X58224520Y-105571763D01*
X58129282Y-105571763D01*
X57986425Y-105524144D01*
X57891187Y-105428906D01*
X57843568Y-105333668D01*
X57795949Y-105143192D01*
X57795949Y-105000335D01*
X57843568Y-104809859D01*
X57891187Y-104714621D01*
X57986425Y-104619383D01*
X58129282Y-104571763D01*
X58224520Y-104571763D01*
X58367377Y-104619383D01*
X58414996Y-104667002D01*
X58795949Y-104667002D02*
X58843568Y-104619383D01*
X58938806Y-104571763D01*
X59176901Y-104571763D01*
X59272139Y-104619383D01*
X59319758Y-104667002D01*
X59367377Y-104762240D01*
X59367377Y-104857478D01*
X59319758Y-105000335D01*
X58748330Y-105571763D01*
X59367377Y-105571763D01*
X59700711Y-104571763D02*
X60319758Y-104571763D01*
X59986425Y-104952716D01*
X60129282Y-104952716D01*
X60224520Y-105000335D01*
X60272139Y-105047954D01*
X60319758Y-105143192D01*
X60319758Y-105381287D01*
X60272139Y-105476525D01*
X60224520Y-105524144D01*
X60129282Y-105571763D01*
X59843568Y-105571763D01*
X59748330Y-105524144D01*
X59700711Y-105476525D01*
X72964996Y-105476525D02*
X72917377Y-105524144D01*
X72774520Y-105571763D01*
X72679282Y-105571763D01*
X72536425Y-105524144D01*
X72441187Y-105428906D01*
X72393568Y-105333668D01*
X72345949Y-105143192D01*
X72345949Y-105000335D01*
X72393568Y-104809859D01*
X72441187Y-104714621D01*
X72536425Y-104619383D01*
X72679282Y-104571763D01*
X72774520Y-104571763D01*
X72917377Y-104619383D01*
X72964996Y-104667002D01*
X73345949Y-104667002D02*
X73393568Y-104619383D01*
X73488806Y-104571763D01*
X73726901Y-104571763D01*
X73822139Y-104619383D01*
X73869758Y-104667002D01*
X73917377Y-104762240D01*
X73917377Y-104857478D01*
X73869758Y-105000335D01*
X73298330Y-105571763D01*
X73917377Y-105571763D01*
X74298330Y-104667002D02*
X74345949Y-104619383D01*
X74441187Y-104571763D01*
X74679282Y-104571763D01*
X74774520Y-104619383D01*
X74822139Y-104667002D01*
X74869758Y-104762240D01*
X74869758Y-104857478D01*
X74822139Y-105000335D01*
X74250711Y-105571763D01*
X74869758Y-105571763D01*
X91214596Y-53861125D02*
X91166977Y-53908744D01*
X91024120Y-53956363D01*
X90928882Y-53956363D01*
X90786025Y-53908744D01*
X90690787Y-53813506D01*
X90643168Y-53718268D01*
X90595549Y-53527792D01*
X90595549Y-53384935D01*
X90643168Y-53194459D01*
X90690787Y-53099221D01*
X90786025Y-53003983D01*
X90928882Y-52956363D01*
X91024120Y-52956363D01*
X91166977Y-53003983D01*
X91214596Y-53051602D01*
X91595549Y-53051602D02*
X91643168Y-53003983D01*
X91738406Y-52956363D01*
X91976501Y-52956363D01*
X92071739Y-53003983D01*
X92119358Y-53051602D01*
X92166977Y-53146840D01*
X92166977Y-53242078D01*
X92119358Y-53384935D01*
X91547930Y-53956363D01*
X92166977Y-53956363D01*
X93119358Y-53956363D02*
X92547930Y-53956363D01*
X92833644Y-53956363D02*
X92833644Y-52956363D01*
X92738406Y-53099221D01*
X92643168Y-53194459D01*
X92547930Y-53242078D01*
X110714996Y-61826525D02*
X110667377Y-61874144D01*
X110524520Y-61921763D01*
X110429282Y-61921763D01*
X110286425Y-61874144D01*
X110191187Y-61778906D01*
X110143568Y-61683668D01*
X110095949Y-61493192D01*
X110095949Y-61350335D01*
X110143568Y-61159859D01*
X110191187Y-61064621D01*
X110286425Y-60969383D01*
X110429282Y-60921763D01*
X110524520Y-60921763D01*
X110667377Y-60969383D01*
X110714996Y-61017002D01*
X111095949Y-61017002D02*
X111143568Y-60969383D01*
X111238806Y-60921763D01*
X111476901Y-60921763D01*
X111572139Y-60969383D01*
X111619758Y-61017002D01*
X111667377Y-61112240D01*
X111667377Y-61207478D01*
X111619758Y-61350335D01*
X111048330Y-61921763D01*
X111667377Y-61921763D01*
X112286425Y-60921763D02*
X112381663Y-60921763D01*
X112476901Y-60969383D01*
X112524520Y-61017002D01*
X112572139Y-61112240D01*
X112619758Y-61302716D01*
X112619758Y-61540811D01*
X112572139Y-61731287D01*
X112524520Y-61826525D01*
X112476901Y-61874144D01*
X112381663Y-61921763D01*
X112286425Y-61921763D01*
X112191187Y-61874144D01*
X112143568Y-61826525D01*
X112095949Y-61731287D01*
X112048330Y-61540811D01*
X112048330Y-61302716D01*
X112095949Y-61112240D01*
X112143568Y-61017002D01*
X112191187Y-60969383D01*
X112286425Y-60921763D01*
X160664996Y-105426525D02*
X160617377Y-105474144D01*
X160474520Y-105521763D01*
X160379282Y-105521763D01*
X160236425Y-105474144D01*
X160141187Y-105378906D01*
X160093568Y-105283668D01*
X160045949Y-105093192D01*
X160045949Y-104950335D01*
X160093568Y-104759859D01*
X160141187Y-104664621D01*
X160236425Y-104569383D01*
X160379282Y-104521763D01*
X160474520Y-104521763D01*
X160617377Y-104569383D01*
X160664996Y-104617002D01*
X161617377Y-105521763D02*
X161045949Y-105521763D01*
X161331663Y-105521763D02*
X161331663Y-104521763D01*
X161236425Y-104664621D01*
X161141187Y-104759859D01*
X161045949Y-104807478D01*
X162093568Y-105521763D02*
X162284044Y-105521763D01*
X162379282Y-105474144D01*
X162426901Y-105426525D01*
X162522139Y-105283668D01*
X162569758Y-105093192D01*
X162569758Y-104712240D01*
X162522139Y-104617002D01*
X162474520Y-104569383D01*
X162379282Y-104521763D01*
X162188806Y-104521763D01*
X162093568Y-104569383D01*
X162045949Y-104617002D01*
X161998330Y-104712240D01*
X161998330Y-104950335D01*
X162045949Y-105045573D01*
X162093568Y-105093192D01*
X162188806Y-105140811D01*
X162379282Y-105140811D01*
X162474520Y-105093192D01*
X162522139Y-105045573D01*
X162569758Y-104950335D01*
X144064996Y-105126525D02*
X144017377Y-105174144D01*
X143874520Y-105221763D01*
X143779282Y-105221763D01*
X143636425Y-105174144D01*
X143541187Y-105078906D01*
X143493568Y-104983668D01*
X143445949Y-104793192D01*
X143445949Y-104650335D01*
X143493568Y-104459859D01*
X143541187Y-104364621D01*
X143636425Y-104269383D01*
X143779282Y-104221763D01*
X143874520Y-104221763D01*
X144017377Y-104269383D01*
X144064996Y-104317002D01*
X145017377Y-105221763D02*
X144445949Y-105221763D01*
X144731663Y-105221763D02*
X144731663Y-104221763D01*
X144636425Y-104364621D01*
X144541187Y-104459859D01*
X144445949Y-104507478D01*
X145588806Y-104650335D02*
X145493568Y-104602716D01*
X145445949Y-104555097D01*
X145398330Y-104459859D01*
X145398330Y-104412240D01*
X145445949Y-104317002D01*
X145493568Y-104269383D01*
X145588806Y-104221763D01*
X145779282Y-104221763D01*
X145874520Y-104269383D01*
X145922139Y-104317002D01*
X145969758Y-104412240D01*
X145969758Y-104459859D01*
X145922139Y-104555097D01*
X145874520Y-104602716D01*
X145779282Y-104650335D01*
X145588806Y-104650335D01*
X145493568Y-104697954D01*
X145445949Y-104745573D01*
X145398330Y-104840811D01*
X145398330Y-105031287D01*
X145445949Y-105126525D01*
X145493568Y-105174144D01*
X145588806Y-105221763D01*
X145779282Y-105221763D01*
X145874520Y-105174144D01*
X145922139Y-105126525D01*
X145969758Y-105031287D01*
X145969758Y-104840811D01*
X145922139Y-104745573D01*
X145874520Y-104697954D01*
X145779282Y-104650335D01*
X152664996Y-82226525D02*
X152617377Y-82274144D01*
X152474520Y-82321763D01*
X152379282Y-82321763D01*
X152236425Y-82274144D01*
X152141187Y-82178906D01*
X152093568Y-82083668D01*
X152045949Y-81893192D01*
X152045949Y-81750335D01*
X152093568Y-81559859D01*
X152141187Y-81464621D01*
X152236425Y-81369383D01*
X152379282Y-81321763D01*
X152474520Y-81321763D01*
X152617377Y-81369383D01*
X152664996Y-81417002D01*
X153617377Y-82321763D02*
X153045949Y-82321763D01*
X153331663Y-82321763D02*
X153331663Y-81321763D01*
X153236425Y-81464621D01*
X153141187Y-81559859D01*
X153045949Y-81607478D01*
X153950711Y-81321763D02*
X154617377Y-81321763D01*
X154188806Y-82321763D01*
X115914996Y-79876525D02*
X115867377Y-79924144D01*
X115724520Y-79971763D01*
X115629282Y-79971763D01*
X115486425Y-79924144D01*
X115391187Y-79828906D01*
X115343568Y-79733668D01*
X115295949Y-79543192D01*
X115295949Y-79400335D01*
X115343568Y-79209859D01*
X115391187Y-79114621D01*
X115486425Y-79019383D01*
X115629282Y-78971763D01*
X115724520Y-78971763D01*
X115867377Y-79019383D01*
X115914996Y-79067002D01*
X116867377Y-79971763D02*
X116295949Y-79971763D01*
X116581663Y-79971763D02*
X116581663Y-78971763D01*
X116486425Y-79114621D01*
X116391187Y-79209859D01*
X116295949Y-79257478D01*
X117724520Y-78971763D02*
X117534044Y-78971763D01*
X117438806Y-79019383D01*
X117391187Y-79067002D01*
X117295949Y-79209859D01*
X117248330Y-79400335D01*
X117248330Y-79781287D01*
X117295949Y-79876525D01*
X117343568Y-79924144D01*
X117438806Y-79971763D01*
X117629282Y-79971763D01*
X117724520Y-79924144D01*
X117772139Y-79876525D01*
X117819758Y-79781287D01*
X117819758Y-79543192D01*
X117772139Y-79447954D01*
X117724520Y-79400335D01*
X117629282Y-79352716D01*
X117438806Y-79352716D01*
X117343568Y-79400335D01*
X117295949Y-79447954D01*
X117248330Y-79543192D01*
X46664996Y-75176525D02*
X46617377Y-75224144D01*
X46474520Y-75271763D01*
X46379282Y-75271763D01*
X46236425Y-75224144D01*
X46141187Y-75128906D01*
X46093568Y-75033668D01*
X46045949Y-74843192D01*
X46045949Y-74700335D01*
X46093568Y-74509859D01*
X46141187Y-74414621D01*
X46236425Y-74319383D01*
X46379282Y-74271763D01*
X46474520Y-74271763D01*
X46617377Y-74319383D01*
X46664996Y-74367002D01*
X47617377Y-75271763D02*
X47045949Y-75271763D01*
X47331663Y-75271763D02*
X47331663Y-74271763D01*
X47236425Y-74414621D01*
X47141187Y-74509859D01*
X47045949Y-74557478D01*
X48522139Y-74271763D02*
X48045949Y-74271763D01*
X47998330Y-74747954D01*
X48045949Y-74700335D01*
X48141187Y-74652716D01*
X48379282Y-74652716D01*
X48474520Y-74700335D01*
X48522139Y-74747954D01*
X48569758Y-74843192D01*
X48569758Y-75081287D01*
X48522139Y-75176525D01*
X48474520Y-75224144D01*
X48379282Y-75271763D01*
X48141187Y-75271763D01*
X48045949Y-75224144D01*
X47998330Y-75176525D01*
X73514996Y-91546525D02*
X73467377Y-91594144D01*
X73324520Y-91641763D01*
X73229282Y-91641763D01*
X73086425Y-91594144D01*
X72991187Y-91498906D01*
X72943568Y-91403668D01*
X72895949Y-91213192D01*
X72895949Y-91070335D01*
X72943568Y-90879859D01*
X72991187Y-90784621D01*
X73086425Y-90689383D01*
X73229282Y-90641763D01*
X73324520Y-90641763D01*
X73467377Y-90689383D01*
X73514996Y-90737002D01*
X74467377Y-91641763D02*
X73895949Y-91641763D01*
X74181663Y-91641763D02*
X74181663Y-90641763D01*
X74086425Y-90784621D01*
X73991187Y-90879859D01*
X73895949Y-90927478D01*
X75324520Y-90975097D02*
X75324520Y-91641763D01*
X75086425Y-90594144D02*
X74848330Y-91308430D01*
X75467377Y-91308430D01*
X151664996Y-36676525D02*
X151617377Y-36724144D01*
X151474520Y-36771763D01*
X151379282Y-36771763D01*
X151236425Y-36724144D01*
X151141187Y-36628906D01*
X151093568Y-36533668D01*
X151045949Y-36343192D01*
X151045949Y-36200335D01*
X151093568Y-36009859D01*
X151141187Y-35914621D01*
X151236425Y-35819383D01*
X151379282Y-35771763D01*
X151474520Y-35771763D01*
X151617377Y-35819383D01*
X151664996Y-35867002D01*
X152617377Y-36771763D02*
X152045949Y-36771763D01*
X152331663Y-36771763D02*
X152331663Y-35771763D01*
X152236425Y-35914621D01*
X152141187Y-36009859D01*
X152045949Y-36057478D01*
X152950711Y-35771763D02*
X153569758Y-35771763D01*
X153236425Y-36152716D01*
X153379282Y-36152716D01*
X153474520Y-36200335D01*
X153522139Y-36247954D01*
X153569758Y-36343192D01*
X153569758Y-36581287D01*
X153522139Y-36676525D01*
X153474520Y-36724144D01*
X153379282Y-36771763D01*
X153093568Y-36771763D01*
X152998330Y-36724144D01*
X152950711Y-36676525D01*
X129814996Y-39176525D02*
X129767377Y-39224144D01*
X129624520Y-39271763D01*
X129529282Y-39271763D01*
X129386425Y-39224144D01*
X129291187Y-39128906D01*
X129243568Y-39033668D01*
X129195949Y-38843192D01*
X129195949Y-38700335D01*
X129243568Y-38509859D01*
X129291187Y-38414621D01*
X129386425Y-38319383D01*
X129529282Y-38271763D01*
X129624520Y-38271763D01*
X129767377Y-38319383D01*
X129814996Y-38367002D01*
X130767377Y-39271763D02*
X130195949Y-39271763D01*
X130481663Y-39271763D02*
X130481663Y-38271763D01*
X130386425Y-38414621D01*
X130291187Y-38509859D01*
X130195949Y-38557478D01*
X131148330Y-38367002D02*
X131195949Y-38319383D01*
X131291187Y-38271763D01*
X131529282Y-38271763D01*
X131624520Y-38319383D01*
X131672139Y-38367002D01*
X131719758Y-38462240D01*
X131719758Y-38557478D01*
X131672139Y-38700335D01*
X131100711Y-39271763D01*
X131719758Y-39271763D01*
X105514996Y-53526525D02*
X105467377Y-53574144D01*
X105324520Y-53621763D01*
X105229282Y-53621763D01*
X105086425Y-53574144D01*
X104991187Y-53478906D01*
X104943568Y-53383668D01*
X104895949Y-53193192D01*
X104895949Y-53050335D01*
X104943568Y-52859859D01*
X104991187Y-52764621D01*
X105086425Y-52669383D01*
X105229282Y-52621763D01*
X105324520Y-52621763D01*
X105467377Y-52669383D01*
X105514996Y-52717002D01*
X106467377Y-53621763D02*
X105895949Y-53621763D01*
X106181663Y-53621763D02*
X106181663Y-52621763D01*
X106086425Y-52764621D01*
X105991187Y-52859859D01*
X105895949Y-52907478D01*
X107419758Y-53621763D02*
X106848330Y-53621763D01*
X107134044Y-53621763D02*
X107134044Y-52621763D01*
X107038806Y-52764621D01*
X106943568Y-52859859D01*
X106848330Y-52907478D01*
X144230956Y-50526525D02*
X144183337Y-50574144D01*
X144040480Y-50621763D01*
X143945242Y-50621763D01*
X143802385Y-50574144D01*
X143707147Y-50478906D01*
X143659528Y-50383668D01*
X143611909Y-50193192D01*
X143611909Y-50050335D01*
X143659528Y-49859859D01*
X143707147Y-49764621D01*
X143802385Y-49669383D01*
X143945242Y-49621763D01*
X144040480Y-49621763D01*
X144183337Y-49669383D01*
X144230956Y-49717002D01*
X145183337Y-50621763D02*
X144611909Y-50621763D01*
X144897623Y-50621763D02*
X144897623Y-49621763D01*
X144802385Y-49764621D01*
X144707147Y-49859859D01*
X144611909Y-49907478D01*
X145802385Y-49621763D02*
X145897623Y-49621763D01*
X145992861Y-49669383D01*
X146040480Y-49717002D01*
X146088099Y-49812240D01*
X146135718Y-50002716D01*
X146135718Y-50240811D01*
X146088099Y-50431287D01*
X146040480Y-50526525D01*
X145992861Y-50574144D01*
X145897623Y-50621763D01*
X145802385Y-50621763D01*
X145707147Y-50574144D01*
X145659528Y-50526525D01*
X145611909Y-50431287D01*
X145564290Y-50240811D01*
X145564290Y-50002716D01*
X145611909Y-49812240D01*
X145659528Y-49717002D01*
X145707147Y-49669383D01*
X145802385Y-49621763D01*
X112691187Y-39676525D02*
X112643568Y-39724144D01*
X112500711Y-39771763D01*
X112405473Y-39771763D01*
X112262615Y-39724144D01*
X112167377Y-39628906D01*
X112119758Y-39533668D01*
X112072139Y-39343192D01*
X112072139Y-39200335D01*
X112119758Y-39009859D01*
X112167377Y-38914621D01*
X112262615Y-38819383D01*
X112405473Y-38771763D01*
X112500711Y-38771763D01*
X112643568Y-38819383D01*
X112691187Y-38867002D01*
X113167377Y-39771763D02*
X113357854Y-39771763D01*
X113453092Y-39724144D01*
X113500711Y-39676525D01*
X113595949Y-39533668D01*
X113643568Y-39343192D01*
X113643568Y-38962240D01*
X113595949Y-38867002D01*
X113548330Y-38819383D01*
X113453092Y-38771763D01*
X113262615Y-38771763D01*
X113167377Y-38819383D01*
X113119758Y-38867002D01*
X113072139Y-38962240D01*
X113072139Y-39200335D01*
X113119758Y-39295573D01*
X113167377Y-39343192D01*
X113262615Y-39390811D01*
X113453092Y-39390811D01*
X113548330Y-39343192D01*
X113595949Y-39295573D01*
X113643568Y-39200335D01*
X57391187Y-62526525D02*
X57343568Y-62574144D01*
X57200711Y-62621763D01*
X57105473Y-62621763D01*
X56962615Y-62574144D01*
X56867377Y-62478906D01*
X56819758Y-62383668D01*
X56772139Y-62193192D01*
X56772139Y-62050335D01*
X56819758Y-61859859D01*
X56867377Y-61764621D01*
X56962615Y-61669383D01*
X57105473Y-61621763D01*
X57200711Y-61621763D01*
X57343568Y-61669383D01*
X57391187Y-61717002D01*
X57962615Y-62050335D02*
X57867377Y-62002716D01*
X57819758Y-61955097D01*
X57772139Y-61859859D01*
X57772139Y-61812240D01*
X57819758Y-61717002D01*
X57867377Y-61669383D01*
X57962615Y-61621763D01*
X58153092Y-61621763D01*
X58248330Y-61669383D01*
X58295949Y-61717002D01*
X58343568Y-61812240D01*
X58343568Y-61859859D01*
X58295949Y-61955097D01*
X58248330Y-62002716D01*
X58153092Y-62050335D01*
X57962615Y-62050335D01*
X57867377Y-62097954D01*
X57819758Y-62145573D01*
X57772139Y-62240811D01*
X57772139Y-62431287D01*
X57819758Y-62526525D01*
X57867377Y-62574144D01*
X57962615Y-62621763D01*
X58153092Y-62621763D01*
X58248330Y-62574144D01*
X58295949Y-62526525D01*
X58343568Y-62431287D01*
X58343568Y-62240811D01*
X58295949Y-62145573D01*
X58248330Y-62097954D01*
X58153092Y-62050335D01*
X81791187Y-45076525D02*
X81743568Y-45124144D01*
X81600711Y-45171763D01*
X81505473Y-45171763D01*
X81362615Y-45124144D01*
X81267377Y-45028906D01*
X81219758Y-44933668D01*
X81172139Y-44743192D01*
X81172139Y-44600335D01*
X81219758Y-44409859D01*
X81267377Y-44314621D01*
X81362615Y-44219383D01*
X81505473Y-44171763D01*
X81600711Y-44171763D01*
X81743568Y-44219383D01*
X81791187Y-44267002D01*
X82124520Y-44171763D02*
X82791187Y-44171763D01*
X82362615Y-45171763D01*
X53591187Y-62526525D02*
X53543568Y-62574144D01*
X53400711Y-62621763D01*
X53305473Y-62621763D01*
X53162615Y-62574144D01*
X53067377Y-62478906D01*
X53019758Y-62383668D01*
X52972139Y-62193192D01*
X52972139Y-62050335D01*
X53019758Y-61859859D01*
X53067377Y-61764621D01*
X53162615Y-61669383D01*
X53305473Y-61621763D01*
X53400711Y-61621763D01*
X53543568Y-61669383D01*
X53591187Y-61717002D01*
X54448330Y-61621763D02*
X54257854Y-61621763D01*
X54162615Y-61669383D01*
X54114996Y-61717002D01*
X54019758Y-61859859D01*
X53972139Y-62050335D01*
X53972139Y-62431287D01*
X54019758Y-62526525D01*
X54067377Y-62574144D01*
X54162615Y-62621763D01*
X54353092Y-62621763D01*
X54448330Y-62574144D01*
X54495949Y-62526525D01*
X54543568Y-62431287D01*
X54543568Y-62193192D01*
X54495949Y-62097954D01*
X54448330Y-62050335D01*
X54353092Y-62002716D01*
X54162615Y-62002716D01*
X54067377Y-62050335D01*
X54019758Y-62097954D01*
X53972139Y-62193192D01*
X64691187Y-35026525D02*
X64643568Y-35074144D01*
X64500711Y-35121763D01*
X64405473Y-35121763D01*
X64262615Y-35074144D01*
X64167377Y-34978906D01*
X64119758Y-34883668D01*
X64072139Y-34693192D01*
X64072139Y-34550335D01*
X64119758Y-34359859D01*
X64167377Y-34264621D01*
X64262615Y-34169383D01*
X64405473Y-34121763D01*
X64500711Y-34121763D01*
X64643568Y-34169383D01*
X64691187Y-34217002D01*
X65595949Y-34121763D02*
X65119758Y-34121763D01*
X65072139Y-34597954D01*
X65119758Y-34550335D01*
X65214996Y-34502716D01*
X65453092Y-34502716D01*
X65548330Y-34550335D01*
X65595949Y-34597954D01*
X65643568Y-34693192D01*
X65643568Y-34931287D01*
X65595949Y-35026525D01*
X65548330Y-35074144D01*
X65453092Y-35121763D01*
X65214996Y-35121763D01*
X65119758Y-35074144D01*
X65072139Y-35026525D01*
X140741187Y-66576525D02*
X140693568Y-66624144D01*
X140550711Y-66671763D01*
X140455473Y-66671763D01*
X140312615Y-66624144D01*
X140217377Y-66528906D01*
X140169758Y-66433668D01*
X140122139Y-66243192D01*
X140122139Y-66100335D01*
X140169758Y-65909859D01*
X140217377Y-65814621D01*
X140312615Y-65719383D01*
X140455473Y-65671763D01*
X140550711Y-65671763D01*
X140693568Y-65719383D01*
X140741187Y-65767002D01*
X141598330Y-66005097D02*
X141598330Y-66671763D01*
X141360234Y-65624144D02*
X141122139Y-66338430D01*
X141741187Y-66338430D01*
X86530667Y-58434845D02*
X86483048Y-58482464D01*
X86340191Y-58530083D01*
X86244953Y-58530083D01*
X86102095Y-58482464D01*
X86006857Y-58387226D01*
X85959238Y-58291988D01*
X85911619Y-58101512D01*
X85911619Y-57958655D01*
X85959238Y-57768179D01*
X86006857Y-57672941D01*
X86102095Y-57577703D01*
X86244953Y-57530083D01*
X86340191Y-57530083D01*
X86483048Y-57577703D01*
X86530667Y-57625322D01*
X86864000Y-57530083D02*
X87483048Y-57530083D01*
X87149714Y-57911036D01*
X87292572Y-57911036D01*
X87387810Y-57958655D01*
X87435429Y-58006274D01*
X87483048Y-58101512D01*
X87483048Y-58339607D01*
X87435429Y-58434845D01*
X87387810Y-58482464D01*
X87292572Y-58530083D01*
X87006857Y-58530083D01*
X86911619Y-58482464D01*
X86864000Y-58434845D01*
X41141187Y-56776525D02*
X41093568Y-56824144D01*
X40950711Y-56871763D01*
X40855473Y-56871763D01*
X40712615Y-56824144D01*
X40617377Y-56728906D01*
X40569758Y-56633668D01*
X40522139Y-56443192D01*
X40522139Y-56300335D01*
X40569758Y-56109859D01*
X40617377Y-56014621D01*
X40712615Y-55919383D01*
X40855473Y-55871763D01*
X40950711Y-55871763D01*
X41093568Y-55919383D01*
X41141187Y-55967002D01*
X41522139Y-55967002D02*
X41569758Y-55919383D01*
X41664996Y-55871763D01*
X41903092Y-55871763D01*
X41998330Y-55919383D01*
X42045949Y-55967002D01*
X42093568Y-56062240D01*
X42093568Y-56157478D01*
X42045949Y-56300335D01*
X41474520Y-56871763D01*
X42093568Y-56871763D01*
X160841187Y-61176525D02*
X160793568Y-61224144D01*
X160650711Y-61271763D01*
X160555473Y-61271763D01*
X160412615Y-61224144D01*
X160317377Y-61128906D01*
X160269758Y-61033668D01*
X160222139Y-60843192D01*
X160222139Y-60700335D01*
X160269758Y-60509859D01*
X160317377Y-60414621D01*
X160412615Y-60319383D01*
X160555473Y-60271763D01*
X160650711Y-60271763D01*
X160793568Y-60319383D01*
X160841187Y-60367002D01*
X161793568Y-61271763D02*
X161222139Y-61271763D01*
X161507854Y-61271763D02*
X161507854Y-60271763D01*
X161412615Y-60414621D01*
X161317377Y-60509859D01*
X161222139Y-60557478D01*
X117333949Y-33281763D02*
X117333949Y-34091287D01*
X117381568Y-34186525D01*
X117429187Y-34234144D01*
X117524425Y-34281763D01*
X117714901Y-34281763D01*
X117810139Y-34234144D01*
X117857758Y-34186525D01*
X117905377Y-34091287D01*
X117905377Y-33281763D01*
X118286330Y-33281763D02*
X118952996Y-33281763D01*
X118524425Y-34281763D01*
M02*
