G04 #@! TF.GenerationSoftware,KiCad,Pcbnew,(5.1.5-0-10_14)*
G04 #@! TF.CreationDate,2020-04-28T18:14:51+02:00*
G04 #@! TF.ProjectId,Main_Board_v1_1,4d61696e-5f42-46f6-9172-645f76315f31,rev?*
G04 #@! TF.SameCoordinates,Original*
G04 #@! TF.FileFunction,Copper,L2,Bot*
G04 #@! TF.FilePolarity,Positive*
%FSLAX46Y46*%
G04 Gerber Fmt 4.6, Leading zero omitted, Abs format (unit mm)*
G04 Created by KiCad (PCBNEW (5.1.5-0-10_14)) date 2020-04-28 18:14:51*
%MOMM*%
%LPD*%
G04 APERTURE LIST*
%ADD10R,1.100000X1.300000*%
%ADD11O,1.100000X1.300000*%
%ADD12R,1.300000X1.100000*%
%ADD13O,1.300000X1.100000*%
%ADD14O,1.400000X2.600000*%
%ADD15O,2.600000X1.400000*%
%ADD16O,1.600000X1.600000*%
%ADD17C,1.600000*%
%ADD18O,1.905000X2.000000*%
%ADD19R,1.905000X2.000000*%
%ADD20O,1.700000X1.700000*%
%ADD21R,1.700000X1.700000*%
%ADD22O,2.200000X2.200000*%
%ADD23R,2.200000X2.200000*%
%ADD24C,2.000000*%
%ADD25O,1.600000X1.500000*%
%ADD26R,1.900000X1.400000*%
%ADD27C,4.000000*%
%ADD28C,1.900000*%
%ADD29O,3.000000X1.700000*%
%ADD30R,1.600000X1.600000*%
%ADD31O,1.600000X2.400000*%
%ADD32R,1.600000X2.400000*%
%ADD33O,2.400000X1.600000*%
%ADD34R,2.400000X1.600000*%
%ADD35C,1.100000*%
%ADD36C,1.000000*%
%ADD37C,0.350000*%
G04 APERTURE END LIST*
D10*
X97357854Y-80369383D03*
D11*
X94817854Y-80369383D03*
X96087854Y-81639383D03*
D12*
X62357854Y-39869383D03*
D13*
X62357854Y-37329383D03*
X61087854Y-38599383D03*
D14*
X139782854Y-42169383D03*
X143832854Y-42119383D03*
D15*
X141807854Y-44019383D03*
X141807854Y-40319383D03*
D14*
X36182854Y-72269383D03*
X32132854Y-72319383D03*
D15*
X34157854Y-70419383D03*
X34157854Y-74119383D03*
D16*
X157532854Y-111101383D03*
D17*
X167692854Y-111101383D03*
D18*
X176963854Y-111101383D03*
X174423854Y-111101383D03*
D19*
X171883854Y-111101383D03*
D20*
X164319854Y-118728383D03*
D21*
X167819854Y-123928383D03*
D22*
X159818854Y-114784383D03*
D23*
X159818854Y-124944383D03*
D24*
X174169854Y-115198383D03*
X174169854Y-125198383D03*
X179503854Y-115325383D03*
X179503854Y-125325383D03*
D20*
X47857854Y-108409383D03*
D21*
X47857854Y-105869383D03*
D20*
X114897854Y-68369383D03*
D21*
X112357854Y-68369383D03*
D25*
X41357854Y-38269383D03*
D26*
X41357854Y-36369383D03*
D27*
X47857854Y-36869383D03*
X47857854Y-67869383D03*
X122857854Y-67869383D03*
X122857854Y-36869383D03*
D20*
X79757854Y-36369383D03*
X82297854Y-36369383D03*
X84837854Y-36369383D03*
X87377854Y-36369383D03*
X89917854Y-36369383D03*
X92457854Y-36369383D03*
X94997854Y-36369383D03*
X97537854Y-36369383D03*
X100077854Y-36369383D03*
X102617854Y-36369383D03*
X105157854Y-36369383D03*
X107697854Y-36369383D03*
X110237854Y-36369383D03*
X112777854Y-36369383D03*
X115317854Y-36369383D03*
D21*
X117857854Y-36369383D03*
D27*
X48857854Y-85869383D03*
X48857854Y-116869383D03*
X123857854Y-116869383D03*
X123857854Y-85869383D03*
D20*
X80757854Y-85369383D03*
X83297854Y-85369383D03*
X85837854Y-85369383D03*
X88377854Y-85369383D03*
X90917854Y-85369383D03*
X93457854Y-85369383D03*
X95997854Y-85369383D03*
X98537854Y-85369383D03*
X101077854Y-85369383D03*
X103617854Y-85369383D03*
X106157854Y-85369383D03*
X108697854Y-85369383D03*
X111237854Y-85369383D03*
X113777854Y-85369383D03*
X116317854Y-85369383D03*
D21*
X118857854Y-85369383D03*
D28*
X112320854Y-100433383D03*
X114820854Y-90133383D03*
X117400854Y-100433383D03*
X123623854Y-55475383D03*
X133923854Y-57975383D03*
X123623854Y-60555383D03*
D16*
X91017854Y-81369383D03*
D17*
X80857854Y-81369383D03*
D16*
X101197854Y-80869383D03*
D17*
X111357854Y-80869383D03*
D16*
X114197854Y-80869383D03*
D17*
X124357854Y-80869383D03*
D16*
X69697854Y-39869383D03*
D17*
X79857854Y-39869383D03*
D16*
X66197854Y-35869383D03*
D17*
X76357854Y-35869383D03*
D16*
X49517854Y-127369383D03*
D17*
X39357854Y-127369383D03*
D16*
X48857854Y-101529383D03*
D17*
X48857854Y-91369383D03*
D29*
X55357854Y-126569383D03*
X55357854Y-122869383D03*
D16*
X153307854Y-119009383D03*
D17*
X153307854Y-129169383D03*
D16*
X64017854Y-67869383D03*
D17*
X53857854Y-67869383D03*
X79357854Y-114869383D03*
X84357854Y-114869383D03*
X196507854Y-84519383D03*
X201507854Y-84519383D03*
X70857854Y-84869383D03*
X75857854Y-84869383D03*
D24*
X186357854Y-89536049D03*
X186357854Y-99536049D03*
X109857854Y-113869383D03*
X109857854Y-103869383D03*
X146307854Y-81519383D03*
X146307854Y-91519383D03*
X167282854Y-81519383D03*
X167282854Y-91519383D03*
X162157854Y-96469383D03*
X152157854Y-96469383D03*
X140857854Y-96369383D03*
X130857854Y-96369383D03*
D17*
X87857854Y-39869383D03*
X82857854Y-39869383D03*
D24*
X69857854Y-68369383D03*
X79857854Y-68369383D03*
D17*
X196857854Y-108869383D03*
X201857854Y-108869383D03*
D24*
X185357854Y-113369383D03*
X185357854Y-123369383D03*
D17*
X125857854Y-90869383D03*
X125857854Y-95869383D03*
X180900854Y-100386383D03*
X180900854Y-105386383D03*
X183357854Y-84369383D03*
D30*
X183357854Y-82369383D03*
D17*
X177357854Y-95869383D03*
X172357854Y-95869383D03*
X118357854Y-39869383D03*
X113357854Y-39869383D03*
X196507854Y-35119383D03*
X201507854Y-35119383D03*
X95357854Y-67869383D03*
X90357854Y-67869383D03*
D24*
X186057854Y-41869383D03*
X186057854Y-51869383D03*
D17*
X196507854Y-58919383D03*
X201507854Y-58919383D03*
X174357854Y-48869383D03*
X169357854Y-48869383D03*
X180357854Y-59869383D03*
X180357854Y-54869383D03*
D24*
X163167854Y-35119383D03*
X163167854Y-45119383D03*
D17*
X180857854Y-37569383D03*
D30*
X180857854Y-35569383D03*
D24*
X186057854Y-65702716D03*
X186057854Y-75702716D03*
X47357854Y-61869383D03*
X57357854Y-61869383D03*
X151897854Y-50649383D03*
X161897854Y-50649383D03*
D17*
X46357854Y-41869383D03*
X51357854Y-41869383D03*
D31*
X68297854Y-110649383D03*
X65757854Y-110649383D03*
X63217854Y-110649383D03*
X60677854Y-110649383D03*
X58137854Y-110649383D03*
X55597854Y-110649383D03*
X80997854Y-110649383D03*
X78457854Y-110649383D03*
X75917854Y-110649383D03*
X73377854Y-110649383D03*
X70837854Y-110649383D03*
X101317854Y-110649383D03*
X98777854Y-110649383D03*
X96237854Y-110649383D03*
X93697854Y-110649383D03*
X91157854Y-110649383D03*
X88617854Y-110649383D03*
X86077854Y-110649383D03*
X83537854Y-110649383D03*
X103857854Y-110649383D03*
X58137854Y-90329383D03*
X55597854Y-90329383D03*
X93697854Y-90329383D03*
X73377854Y-90329383D03*
D32*
X103857854Y-90329383D03*
D31*
X70837854Y-90329383D03*
X75917854Y-90329383D03*
X80997854Y-90329383D03*
X88617854Y-90329383D03*
X86077854Y-90329383D03*
X83537854Y-90329383D03*
X91157854Y-90329383D03*
X98777854Y-90329383D03*
X96237854Y-90329383D03*
X101317854Y-90329383D03*
X65757854Y-90329383D03*
X68297854Y-90329383D03*
X63217854Y-90329383D03*
X60677854Y-90329383D03*
X78457854Y-90329383D03*
D32*
X103857854Y-92869383D03*
D31*
X55597854Y-108109383D03*
X101317854Y-92869383D03*
X58137854Y-108109383D03*
X98777854Y-92869383D03*
X60677854Y-108109383D03*
X96237854Y-92869383D03*
X63217854Y-108109383D03*
X93697854Y-92869383D03*
X65757854Y-108109383D03*
X91157854Y-92869383D03*
X68297854Y-108109383D03*
X88617854Y-92869383D03*
X70837854Y-108109383D03*
X86077854Y-92869383D03*
X73377854Y-108109383D03*
X83537854Y-92869383D03*
X75917854Y-108109383D03*
X80997854Y-92869383D03*
X78457854Y-108109383D03*
X78457854Y-92869383D03*
X80997854Y-108109383D03*
X75917854Y-92869383D03*
X83537854Y-108109383D03*
X73377854Y-92869383D03*
X86077854Y-108109383D03*
X70837854Y-92869383D03*
X88617854Y-108109383D03*
X68297854Y-92869383D03*
X91157854Y-108109383D03*
X65757854Y-92869383D03*
X93697854Y-108109383D03*
X63217854Y-92869383D03*
X96237854Y-108109383D03*
X60677854Y-92869383D03*
X98777854Y-108109383D03*
X58137854Y-92869383D03*
X101317854Y-108109383D03*
X55597854Y-92869383D03*
X103857854Y-108109383D03*
D18*
X176087854Y-104409383D03*
X173547854Y-104409383D03*
D19*
X171007854Y-104409383D03*
D31*
X102417854Y-43089383D03*
X104957854Y-43089383D03*
X107497854Y-43089383D03*
X110037854Y-43089383D03*
X112577854Y-43089383D03*
X115117854Y-43089383D03*
X89717854Y-43089383D03*
X92257854Y-43089383D03*
X94797854Y-43089383D03*
X97337854Y-43089383D03*
X99877854Y-43089383D03*
X69397854Y-43089383D03*
X71937854Y-43089383D03*
X74477854Y-43089383D03*
X77017854Y-43089383D03*
X79557854Y-43089383D03*
X82097854Y-43089383D03*
X84637854Y-43089383D03*
X87177854Y-43089383D03*
X66857854Y-43089383D03*
X112577854Y-63409383D03*
X115117854Y-63409383D03*
X77017854Y-63409383D03*
X97337854Y-63409383D03*
D32*
X66857854Y-63409383D03*
D31*
X99877854Y-63409383D03*
X94797854Y-63409383D03*
X89717854Y-63409383D03*
X82097854Y-63409383D03*
X84637854Y-63409383D03*
X87177854Y-63409383D03*
X79557854Y-63409383D03*
X71937854Y-63409383D03*
X74477854Y-63409383D03*
X69397854Y-63409383D03*
X104957854Y-63409383D03*
X102417854Y-63409383D03*
X107497854Y-63409383D03*
X110037854Y-63409383D03*
X92257854Y-63409383D03*
D32*
X66857854Y-60869383D03*
D31*
X115117854Y-45629383D03*
X69397854Y-60869383D03*
X112577854Y-45629383D03*
X71937854Y-60869383D03*
X110037854Y-45629383D03*
X74477854Y-60869383D03*
X107497854Y-45629383D03*
X77017854Y-60869383D03*
X104957854Y-45629383D03*
X79557854Y-60869383D03*
X102417854Y-45629383D03*
X82097854Y-60869383D03*
X99877854Y-45629383D03*
X84637854Y-60869383D03*
X97337854Y-45629383D03*
X87177854Y-60869383D03*
X94797854Y-45629383D03*
X89717854Y-60869383D03*
X92257854Y-45629383D03*
X92257854Y-60869383D03*
X89717854Y-45629383D03*
X94797854Y-60869383D03*
X87177854Y-45629383D03*
X97337854Y-60869383D03*
X84637854Y-45629383D03*
X99877854Y-60869383D03*
X82097854Y-45629383D03*
X102417854Y-60869383D03*
X79557854Y-45629383D03*
X104957854Y-60869383D03*
X77017854Y-45629383D03*
X107497854Y-60869383D03*
X74477854Y-45629383D03*
X110037854Y-60869383D03*
X71937854Y-45629383D03*
X112577854Y-60869383D03*
X69397854Y-45629383D03*
X115117854Y-60869383D03*
X66857854Y-45629383D03*
D18*
X174537854Y-57509383D03*
X171997854Y-57509383D03*
D19*
X169457854Y-57509383D03*
D33*
X52627854Y-45869383D03*
X45007854Y-53489383D03*
X52627854Y-48409383D03*
X45007854Y-50949383D03*
X52627854Y-50949383D03*
X45007854Y-48409383D03*
X52627854Y-53489383D03*
D34*
X45007854Y-45869383D03*
D27*
X189857854Y-126869383D03*
X31357854Y-36869383D03*
X31357854Y-126869383D03*
X189857854Y-36869383D03*
D16*
X74601854Y-73763383D03*
D17*
X84761854Y-73763383D03*
D16*
X74601854Y-76811383D03*
D17*
X84761854Y-76811383D03*
D16*
X64357854Y-117709383D03*
D17*
X64357854Y-127869383D03*
D16*
X41357854Y-99209383D03*
D17*
X41357854Y-109369383D03*
D16*
X41357854Y-112709383D03*
D17*
X41357854Y-122869383D03*
D16*
X191707854Y-89609383D03*
D17*
X191707854Y-99769383D03*
D16*
X117857854Y-117029383D03*
D17*
X117857854Y-106869383D03*
D16*
X114357854Y-104209383D03*
D17*
X114357854Y-114369383D03*
D16*
X128697854Y-110869383D03*
D17*
X138857854Y-110869383D03*
D16*
X164517854Y-67039383D03*
D17*
X174677854Y-67039383D03*
D16*
X164667854Y-63239383D03*
D17*
X174827854Y-63239383D03*
D16*
X41197854Y-72869383D03*
D17*
X51357854Y-72869383D03*
D16*
X110857854Y-128029383D03*
D17*
X110857854Y-117869383D03*
D16*
X95357854Y-117709383D03*
D17*
X95357854Y-127869383D03*
D16*
X79857854Y-117709383D03*
D17*
X79857854Y-127869383D03*
D16*
X41357854Y-91029383D03*
D17*
X41357854Y-80869383D03*
D16*
X44857854Y-98529383D03*
D17*
X44857854Y-88369383D03*
D16*
X125857854Y-98709383D03*
D17*
X125857854Y-108869383D03*
D16*
X51517854Y-77369383D03*
D17*
X41357854Y-77369383D03*
D16*
X121857854Y-102709383D03*
D17*
X121857854Y-112869383D03*
D16*
X141697854Y-110869383D03*
D17*
X151857854Y-110869383D03*
D16*
X191707854Y-113309383D03*
D17*
X191707854Y-123469383D03*
D16*
X137997854Y-50319383D03*
D17*
X148157854Y-50319383D03*
D16*
X141967854Y-35519383D03*
D17*
X131807854Y-35519383D03*
D16*
X130357854Y-51029383D03*
D17*
X130357854Y-40869383D03*
D16*
X148017854Y-54369383D03*
D17*
X137857854Y-54369383D03*
D16*
X134357854Y-51029383D03*
D17*
X134357854Y-40869383D03*
D16*
X191707854Y-42209383D03*
D17*
X191707854Y-52369383D03*
D16*
X142847854Y-68429383D03*
D17*
X153007854Y-68429383D03*
D16*
X57357854Y-45529383D03*
D17*
X57357854Y-35369383D03*
D16*
X57357854Y-58029383D03*
D17*
X57357854Y-47869383D03*
D16*
X43597854Y-57869383D03*
D17*
X53757854Y-57869383D03*
D16*
X61647854Y-46839383D03*
D17*
X61647854Y-56999383D03*
D16*
X191707854Y-65909383D03*
D17*
X191707854Y-76069383D03*
D18*
X139087854Y-104409383D03*
X136547854Y-104409383D03*
D19*
X134007854Y-104409383D03*
D18*
X159087854Y-104409383D03*
X156547854Y-104409383D03*
D19*
X154007854Y-104409383D03*
D18*
X160087854Y-57409383D03*
X157547854Y-57409383D03*
D19*
X155007854Y-57409383D03*
D20*
X130427854Y-119819383D03*
X132967854Y-119819383D03*
X135507854Y-119819383D03*
X138047854Y-119819383D03*
X140587854Y-119819383D03*
X143127854Y-119819383D03*
X145667854Y-119819383D03*
D21*
X148207854Y-119819383D03*
D29*
X34357854Y-109356883D03*
X34357854Y-105656883D03*
X70857854Y-126569383D03*
X70857854Y-122869383D03*
X34357854Y-121069383D03*
X34357854Y-117369383D03*
X34157854Y-82131883D03*
X34157854Y-85831883D03*
X101857854Y-126569383D03*
X101857854Y-122869383D03*
X34357854Y-97644383D03*
X34357854Y-93944383D03*
X86357854Y-126569383D03*
X86357854Y-122869383D03*
X141607854Y-59169383D03*
X141607854Y-62869383D03*
D20*
X60897854Y-84869383D03*
D21*
X58357854Y-84869383D03*
D20*
X121857854Y-98189383D03*
X121857854Y-95649383D03*
X121857854Y-93109383D03*
D21*
X121857854Y-90569383D03*
D20*
X65937854Y-80869383D03*
X63397854Y-80869383D03*
D21*
X60857854Y-80869383D03*
D29*
X117357854Y-126569383D03*
X117357854Y-122869383D03*
D20*
X135632854Y-85669383D03*
D21*
X139132854Y-90869383D03*
D20*
X156607854Y-85669383D03*
D21*
X160107854Y-90869383D03*
D20*
X172857854Y-85669383D03*
D21*
X176357854Y-90869383D03*
D20*
X121457854Y-49639383D03*
X121457854Y-47099383D03*
X121457854Y-44559383D03*
D21*
X121457854Y-42019383D03*
D20*
X37857854Y-42089383D03*
X37857854Y-44629383D03*
X37857854Y-47169383D03*
X37857854Y-49709383D03*
X37857854Y-52249383D03*
X37857854Y-54789383D03*
X37857854Y-57329383D03*
D21*
X37857854Y-59869383D03*
D20*
X107437854Y-67869383D03*
X104897854Y-67869383D03*
D21*
X102357854Y-67869383D03*
D20*
X170807854Y-38219383D03*
D21*
X174307854Y-43419383D03*
D20*
X152757854Y-38219383D03*
D21*
X156257854Y-43419383D03*
D22*
X164317854Y-71389383D03*
D23*
X174477854Y-71389383D03*
D22*
X130707854Y-81759383D03*
D23*
X130707854Y-91919383D03*
D22*
X151682854Y-81759383D03*
D23*
X151682854Y-91919383D03*
D22*
X147927854Y-35409383D03*
D23*
X147927854Y-45569383D03*
D35*
X94857854Y-56369383D03*
X94857854Y-51369383D03*
X80697854Y-100052383D03*
X115749852Y-92305383D03*
X125655854Y-104370381D03*
X118797854Y-73001373D03*
X143054854Y-115038381D03*
X55250861Y-52257594D03*
X56821854Y-53951383D03*
X66727854Y-72239383D03*
X59742854Y-62714383D03*
X108129854Y-95869383D03*
X85777854Y-105513383D03*
X60631854Y-61219383D03*
X58599854Y-53951383D03*
X110923854Y-95607383D03*
X92347848Y-105386383D03*
X119857854Y-37869383D03*
X85396854Y-68175385D03*
X121845854Y-70844369D03*
X76857854Y-54869383D03*
X70857854Y-53369383D03*
X84888854Y-69699383D03*
X118857854Y-58369383D03*
X165025854Y-101576383D03*
X57357854Y-117369383D03*
X51829062Y-97398175D03*
X45899854Y-77573383D03*
X67857854Y-115869383D03*
X53857854Y-114022383D03*
X58853854Y-115927379D03*
X119813854Y-109704383D03*
X122353854Y-108561383D03*
X103303854Y-96242383D03*
X86158852Y-95353383D03*
X63171854Y-98773373D03*
X73331854Y-87116373D03*
X121210854Y-83034383D03*
X112701854Y-94083383D03*
X65330854Y-96115383D03*
X95683852Y-102084383D03*
D36*
X174357854Y-48869383D02*
X169857854Y-53369383D01*
X169857854Y-53369383D02*
X163857854Y-53369383D01*
X163857854Y-53369383D02*
X160357854Y-56869383D01*
X160357854Y-56869383D02*
X160357854Y-57369383D01*
X186057854Y-41869383D02*
X182857854Y-45069383D01*
X182857854Y-45069383D02*
X182857854Y-57369383D01*
X182857854Y-57369383D02*
X180357854Y-59869383D01*
X94857854Y-58609383D02*
X94857854Y-56369383D01*
X94797854Y-58669383D02*
X94857854Y-58609383D01*
X94797854Y-60869383D02*
X94797854Y-58669383D01*
X113357854Y-51369383D02*
X93857854Y-51369383D01*
X89857854Y-47369383D02*
X89857854Y-45369383D01*
X121457854Y-42019383D02*
X121457854Y-41769383D01*
X117857854Y-46869383D02*
X113357854Y-51369383D01*
X117857854Y-45369383D02*
X117857854Y-46869383D01*
X93857854Y-51369383D02*
X89857854Y-47369383D01*
X121457854Y-41769383D02*
X117857854Y-45369383D01*
X174507854Y-90869383D02*
X169007854Y-96369383D01*
X176357854Y-90869383D02*
X174507854Y-90869383D01*
X162157854Y-96469383D02*
X162157854Y-101069383D01*
X162157854Y-101069383D02*
X158857854Y-104369383D01*
X118857854Y-83519383D02*
X118207854Y-82869383D01*
X118857854Y-85369383D02*
X118857854Y-83519383D01*
X111147852Y-82869383D02*
X108857854Y-85159381D01*
X118207854Y-82869383D02*
X111147852Y-82869383D01*
X108857854Y-85159381D02*
X108857854Y-85369383D01*
X75917854Y-95069383D02*
X80857854Y-100009383D01*
X75917854Y-92869383D02*
X75917854Y-95069383D01*
X80857854Y-100009383D02*
X80857854Y-107869383D01*
X70857854Y-84869383D02*
X60857854Y-84869383D01*
X40345354Y-105869383D02*
X47857854Y-105869383D01*
X36857854Y-109356883D02*
X40345354Y-105869383D01*
X34357854Y-109356883D02*
X36857854Y-109356883D01*
X189857854Y-119283596D02*
X189857854Y-126869383D01*
X185357854Y-114783596D02*
X189857854Y-119283596D01*
X185357854Y-113369383D02*
X185357854Y-114783596D01*
X188097855Y-43909384D02*
X195317853Y-43909384D01*
X186057854Y-41869383D02*
X188097855Y-43909384D01*
X195317853Y-43909384D02*
X196357854Y-42869383D01*
X196357854Y-42869383D02*
X196357854Y-34869383D01*
X170031353Y-109502882D02*
X170031353Y-115344882D01*
X167692854Y-107164383D02*
X170031353Y-109502882D01*
X167692854Y-96369383D02*
X167692854Y-107164383D01*
X169007854Y-96369383D02*
X167692854Y-96369383D01*
X167692854Y-96369383D02*
X161857854Y-96369383D01*
X170031353Y-115344882D02*
X172645854Y-117959383D01*
X172645854Y-117959383D02*
X176836854Y-117959383D01*
X176836854Y-117959383D02*
X179376854Y-115419383D01*
X179376854Y-115419383D02*
X179376854Y-115292383D01*
X121857854Y-90569383D02*
X117485852Y-90569383D01*
X117485852Y-90569383D02*
X115749852Y-92305383D01*
X81057855Y-113169382D02*
X109157853Y-113169382D01*
X109157853Y-113169382D02*
X109857854Y-113869383D01*
X79357854Y-114869383D02*
X81057855Y-113169382D01*
X109881854Y-113869383D02*
X109857854Y-113869383D01*
X113041854Y-117029383D02*
X109881854Y-113869383D01*
X117857854Y-117029383D02*
X113041854Y-117029383D01*
X108510854Y-120222383D02*
X108510854Y-115216383D01*
X108510854Y-115216383D02*
X109857854Y-113869383D01*
X114857854Y-126569383D02*
X108510854Y-120222383D01*
X117357854Y-126569383D02*
X114857854Y-126569383D01*
X46357854Y-40312383D02*
X46357854Y-41869383D01*
X42414854Y-36369383D02*
X46357854Y-40312383D01*
X41357854Y-36369383D02*
X42414854Y-36369383D01*
X112277854Y-100369383D02*
X114285148Y-100369383D01*
X125019458Y-104370381D02*
X125655854Y-104370381D01*
X124970468Y-104419371D02*
X125019458Y-104370381D01*
X114285148Y-100369383D02*
X118335136Y-104419371D01*
X118335136Y-104419371D02*
X124970468Y-104419371D01*
X141007854Y-44019383D02*
X139857854Y-42869383D01*
X141807854Y-44019383D02*
X141007854Y-44019383D01*
X121357854Y-41869383D02*
X122149856Y-41869383D01*
X124114854Y-41869383D02*
X121357854Y-41869383D01*
X125114854Y-42869383D02*
X124114854Y-41869383D01*
X125114854Y-42869383D02*
X139277854Y-42869383D01*
X139277854Y-42869383D02*
X139625854Y-42521383D01*
X139625854Y-42521383D02*
X139625854Y-42140383D01*
X118797854Y-82279383D02*
X118797854Y-73001373D01*
X118207854Y-82869383D02*
X118797854Y-82279383D01*
X143127854Y-119819383D02*
X143127854Y-115111381D01*
X143127854Y-115111381D02*
X143054854Y-115038381D01*
X70857854Y-84869383D02*
X73248858Y-84869383D01*
X75857854Y-87478379D02*
X75857854Y-90369383D01*
X73248858Y-84869383D02*
X75857854Y-87478379D01*
X61813467Y-40024393D02*
X62357854Y-40024393D01*
X61788467Y-40049393D02*
X61813467Y-40024393D01*
X50174844Y-40024393D02*
X58828854Y-40024393D01*
X48312854Y-41886383D02*
X50174844Y-40024393D01*
X46374854Y-41886383D02*
X48312854Y-41886383D01*
X58853854Y-40049393D02*
X61788467Y-40049393D01*
X58828854Y-40024393D02*
X58853854Y-40049393D01*
X46357854Y-41869383D02*
X46374854Y-41886383D01*
X47357854Y-61369383D02*
X47357854Y-61869383D01*
X52627854Y-54639383D02*
X53857854Y-55869383D01*
X52627854Y-53489383D02*
X52627854Y-54639383D01*
X53857854Y-55869383D02*
X53857854Y-57869383D01*
X53857854Y-57869383D02*
X51357854Y-57869383D01*
X51357854Y-57869383D02*
X47357854Y-61869383D01*
D37*
X42207853Y-39754384D02*
X45822852Y-43369383D01*
X42207853Y-39119382D02*
X42207853Y-39754384D01*
X41357854Y-38269383D02*
X42207853Y-39119382D01*
X45822852Y-43369383D02*
X57857854Y-43369383D01*
X57857854Y-43369383D02*
X61357854Y-46869383D01*
X61357854Y-46869383D02*
X61857854Y-46869383D01*
X57357854Y-61869383D02*
X55250861Y-59762390D01*
X55250861Y-59762390D02*
X55250861Y-52257594D01*
D36*
X152757854Y-38219383D02*
X152757854Y-45269383D01*
X152757854Y-45269383D02*
X157857854Y-50369383D01*
X157857854Y-50369383D02*
X157857854Y-56869383D01*
X157857854Y-56869383D02*
X157357854Y-57369383D01*
D37*
X71299854Y-76811383D02*
X66727854Y-72239383D01*
X74601854Y-76811383D02*
X71299854Y-76811383D01*
X56821854Y-53951383D02*
X59361854Y-56491383D01*
X59361854Y-61696987D02*
X59742854Y-62077987D01*
X59742854Y-62077987D02*
X59742854Y-62714383D01*
X59361854Y-56491383D02*
X59361854Y-61696987D01*
X121857854Y-98189383D02*
X120654862Y-96986391D01*
X120654862Y-96986391D02*
X109246862Y-96986391D01*
X109246862Y-96986391D02*
X108679853Y-96419382D01*
X108679853Y-96419382D02*
X108129854Y-95869383D01*
X60631854Y-60441566D02*
X60123854Y-59933566D01*
X60631854Y-61219383D02*
X60631854Y-60441566D01*
X60123854Y-59933566D02*
X60123854Y-55475383D01*
X60123854Y-55475383D02*
X59049853Y-54401382D01*
X59049853Y-54401382D02*
X58599854Y-53951383D01*
X110965854Y-95649383D02*
X110923854Y-95607383D01*
X121857854Y-95649383D02*
X110965854Y-95649383D01*
X85777854Y-105513383D02*
X92220848Y-105513383D01*
X92220848Y-105513383D02*
X92347848Y-105386383D01*
X152705354Y-104409383D02*
X151817854Y-105296883D01*
X154007854Y-104409383D02*
X152705354Y-104409383D01*
X151817854Y-105296883D02*
X151817854Y-110593383D01*
X51077854Y-48409383D02*
X48617854Y-50869383D01*
X52627854Y-48409383D02*
X51077854Y-48409383D01*
X48617854Y-50869383D02*
X44857854Y-50869383D01*
X139757854Y-62869383D02*
X139257854Y-63369383D01*
X141607854Y-62869383D02*
X139757854Y-62869383D01*
X139257854Y-63369383D02*
X115357854Y-63369383D01*
X117187854Y-43369383D02*
X115357854Y-43369383D01*
X121062855Y-39494382D02*
X117187854Y-43369383D01*
X141157854Y-40319383D02*
X140332853Y-39494382D01*
X140332853Y-39494382D02*
X121062855Y-39494382D01*
X141807854Y-40319383D02*
X141157854Y-40319383D01*
X112577854Y-41539383D02*
X110907854Y-39869383D01*
X112577854Y-43089383D02*
X112577854Y-41539383D01*
X110907854Y-39869383D02*
X110907854Y-38919383D01*
X110907854Y-38919383D02*
X111957854Y-37869383D01*
X111957854Y-37869383D02*
X119857854Y-37869383D01*
X183932864Y-72794373D02*
X182262842Y-74464395D01*
X120824862Y-71869383D02*
X89090852Y-71869383D01*
X183932864Y-53994373D02*
X183932864Y-72794373D01*
X160317557Y-71869383D02*
X122737856Y-71869383D01*
X122737856Y-71869383D02*
X122512855Y-72094384D01*
X122512855Y-72094384D02*
X121049863Y-72094384D01*
X162912569Y-74464395D02*
X160317557Y-71869383D01*
X121049863Y-72094384D02*
X120824862Y-71869383D01*
X89090852Y-71869383D02*
X85946853Y-68725384D01*
X186057854Y-51869383D02*
X183932864Y-53994373D01*
X85946853Y-68725384D02*
X85396854Y-68175385D01*
X182262842Y-74464395D02*
X162912569Y-74464395D01*
X83625850Y-67032383D02*
X86920854Y-67032383D01*
X73857854Y-70369383D02*
X80288850Y-70369383D01*
X90732840Y-70844369D02*
X121068037Y-70844369D01*
X71857854Y-68369383D02*
X73857854Y-70369383D01*
X71857854Y-63369383D02*
X71857854Y-68369383D01*
X121068037Y-70844369D02*
X121845854Y-70844369D01*
X80288850Y-70369383D02*
X83625850Y-67032383D01*
X86920854Y-67032383D02*
X90732840Y-70844369D01*
X45007854Y-45869383D02*
X45007854Y-48219383D01*
X45007854Y-48219383D02*
X44857854Y-48369383D01*
X77017854Y-55029383D02*
X76857854Y-54869383D01*
X77017854Y-60869383D02*
X77017854Y-55029383D01*
D36*
X174537854Y-59509383D02*
X177857854Y-62829383D01*
X174537854Y-57509383D02*
X174537854Y-59509383D01*
X174477854Y-71389383D02*
X177837854Y-71389383D01*
X177837854Y-71389383D02*
X177857854Y-71369383D01*
X177857854Y-62829383D02*
X177857854Y-71369383D01*
X87177854Y-47829383D02*
X89117864Y-49769393D01*
X87177854Y-45629383D02*
X87177854Y-47829383D01*
X89117864Y-49769393D02*
X92357854Y-53009383D01*
X92357854Y-53009383D02*
X92357854Y-57369383D01*
X92357854Y-57369383D02*
X92357854Y-60869383D01*
X88357854Y-53369383D02*
X92357854Y-57369383D01*
X70737852Y-53369383D02*
X88357854Y-53369383D01*
X65157853Y-58949382D02*
X70737852Y-53369383D01*
X65157853Y-61809854D02*
X65157853Y-58949382D01*
X59098324Y-67869383D02*
X65157853Y-61809854D01*
X53857854Y-67869383D02*
X59098324Y-67869383D01*
X118357854Y-60369383D02*
X123357854Y-60369383D01*
X116765854Y-58777383D02*
X118357854Y-60369383D01*
X92717854Y-53369383D02*
X89117864Y-49769393D01*
X114807854Y-53369383D02*
X92717854Y-53369383D01*
X119707853Y-48469384D02*
X114807854Y-53369383D01*
X119707853Y-46019384D02*
X119707853Y-48469384D01*
X121357854Y-44369383D02*
X119707853Y-46019384D01*
X116765854Y-55327383D02*
X114807854Y-53369383D01*
X116765854Y-58777383D02*
X116765854Y-55327383D01*
X52841852Y-45869383D02*
X52627854Y-45869383D01*
X54727864Y-47705216D02*
X53732021Y-46709373D01*
X54727864Y-47755395D02*
X54727864Y-47705216D01*
X61857854Y-54885385D02*
X54727864Y-47755395D01*
X61647854Y-56999383D02*
X61647854Y-57079383D01*
X61857854Y-56869383D02*
X61857854Y-54885385D01*
X61647854Y-57079383D02*
X61857854Y-56869383D01*
X53732021Y-46709373D02*
X53681842Y-46709373D01*
X53681842Y-46709373D02*
X52841852Y-45869383D01*
X84907854Y-73869383D02*
X84888854Y-73850383D01*
X84888854Y-73850383D02*
X84888854Y-69699383D01*
X92357854Y-64897383D02*
X92357854Y-64369383D01*
X90357854Y-66869383D02*
X90385854Y-66869383D01*
X90385854Y-66869383D02*
X92357854Y-64897383D01*
X90357854Y-67869383D02*
X90357854Y-66869383D01*
X94337854Y-65889383D02*
X92257854Y-63809383D01*
X120545852Y-65889383D02*
X94337854Y-65889383D01*
X124249855Y-64969382D02*
X121465853Y-64969382D01*
X92257854Y-63809383D02*
X92257854Y-63409383D01*
X121465853Y-64969382D02*
X120545852Y-65889383D01*
X130049857Y-70769384D02*
X124249855Y-64969382D01*
X163357853Y-73389384D02*
X160737853Y-70769384D01*
X160737853Y-70769384D02*
X130049857Y-70769384D01*
X165277855Y-73389384D02*
X163357853Y-73389384D01*
X167297856Y-71369383D02*
X165277855Y-73389384D01*
X177857854Y-71369383D02*
X167297856Y-71369383D01*
D37*
X82097854Y-63409383D02*
X82097854Y-66629383D01*
X82097854Y-66629383D02*
X80357854Y-68369383D01*
X124534856Y-58369383D02*
X118857854Y-58369383D01*
X162872844Y-61444373D02*
X127609846Y-61444373D01*
X127609846Y-61444373D02*
X124534856Y-58369383D01*
X164667854Y-63239383D02*
X162872844Y-61444373D01*
X68302844Y-41314373D02*
X69357854Y-42369383D01*
X64812856Y-42789824D02*
X66288307Y-41314373D01*
X43857854Y-63869383D02*
X58618850Y-63869383D01*
X58869852Y-64120385D02*
X60106852Y-64120385D01*
X64812856Y-56641882D02*
X64812856Y-42789824D01*
X63332831Y-60894406D02*
X63332831Y-58193434D01*
X39282855Y-51134384D02*
X39282855Y-59294384D01*
X63357854Y-58096884D02*
X64812856Y-56641882D01*
X63357854Y-58168411D02*
X63357854Y-58096884D01*
X58618850Y-63869383D02*
X58869852Y-64120385D01*
X60106852Y-64120385D02*
X63332831Y-60894406D01*
X63332831Y-58193434D02*
X63357854Y-58168411D01*
X39282855Y-59294384D02*
X43857854Y-63869383D01*
X66288307Y-41314373D02*
X68302844Y-41314373D01*
X37857854Y-49709383D02*
X39282855Y-51134384D01*
X66357854Y-45869383D02*
X66857854Y-45369383D01*
X64082842Y-58504098D02*
X66357854Y-56229086D01*
X40122852Y-64869383D02*
X58558175Y-64869383D01*
X66357854Y-56229086D02*
X66357854Y-45869383D01*
X58559188Y-64870396D02*
X60577019Y-64870396D01*
X37857854Y-52249383D02*
X36432853Y-53674384D01*
X36432853Y-53674384D02*
X36432853Y-61179384D01*
X64082842Y-61364573D02*
X64082842Y-58504098D01*
X36432853Y-61179384D02*
X40122852Y-64869383D01*
X58558175Y-64869383D02*
X58559188Y-64870396D01*
X60577019Y-64870396D02*
X64082842Y-61364573D01*
D36*
X165025854Y-101576383D02*
X165025854Y-113895383D01*
X165025854Y-113895383D02*
X171883854Y-120753383D01*
X171883854Y-120753383D02*
X171883854Y-122912383D01*
X171883854Y-122912383D02*
X174169854Y-125198383D01*
X75857854Y-84869383D02*
X78357854Y-87369383D01*
X78357854Y-87369383D02*
X78357854Y-90369383D01*
X78457854Y-92869383D02*
X78457854Y-95069383D01*
X83537854Y-100049383D02*
X83357854Y-99869383D01*
X83537854Y-108109383D02*
X83537854Y-100049383D01*
X78457854Y-95069383D02*
X83357854Y-99869383D01*
X82447855Y-86219382D02*
X82447855Y-86279382D01*
X83297854Y-85369383D02*
X82447855Y-86219382D01*
X81357854Y-87369383D02*
X78357854Y-87369383D01*
X82447855Y-86279382D02*
X81357854Y-87369383D01*
X156607854Y-85669383D02*
X156607854Y-104119383D01*
X156607854Y-104119383D02*
X156357854Y-104369383D01*
X135632854Y-85669383D02*
X135632854Y-95144383D01*
X135632854Y-95144383D02*
X136857854Y-96369383D01*
X136857854Y-96369383D02*
X136857854Y-104869383D01*
D37*
X108297180Y-103869383D02*
X109857854Y-103869383D01*
X103797180Y-99369383D02*
X108297180Y-103869383D01*
X92177854Y-99369383D02*
X103797180Y-99369383D01*
X86077854Y-93269383D02*
X92177854Y-99369383D01*
X86077854Y-92869383D02*
X86077854Y-93269383D01*
X59357854Y-114369383D02*
X57857854Y-112869383D01*
X72322853Y-116334382D02*
X70357854Y-114369383D01*
X70357854Y-114369383D02*
X59357854Y-114369383D01*
X57857854Y-112869383D02*
X57857854Y-110369383D01*
X99162853Y-116334382D02*
X72322853Y-116334382D01*
X110857854Y-128029383D02*
X99162853Y-116334382D01*
X51829062Y-95488175D02*
X51829062Y-97398175D01*
X55597854Y-92869383D02*
X54447854Y-92869383D01*
X54447854Y-92869383D02*
X51829062Y-95488175D01*
X59072855Y-119084384D02*
X57357854Y-117369383D01*
X79857854Y-117732883D02*
X79857854Y-118291383D01*
X84994354Y-122869383D02*
X79857854Y-117732883D01*
X79064853Y-119084384D02*
X59072855Y-119084384D01*
X79857854Y-118291383D02*
X79064853Y-119084384D01*
X86357854Y-122869383D02*
X84994354Y-122869383D01*
X68127854Y-97639383D02*
X78357854Y-107869383D01*
X58986852Y-98529383D02*
X59876852Y-97639383D01*
X59876852Y-97639383D02*
X68127854Y-97639383D01*
X44857854Y-98529383D02*
X58986852Y-98529383D01*
X32082844Y-73019393D02*
X32082844Y-74709641D01*
X32082844Y-74709641D02*
X34742586Y-77369383D01*
X32132854Y-72969383D02*
X32082844Y-73019393D01*
X32132854Y-72319383D02*
X32132854Y-72969383D01*
X34742586Y-77369383D02*
X41357854Y-77369383D01*
X45899854Y-77571383D02*
X45899854Y-77573383D01*
X41197854Y-72869383D02*
X45899854Y-77571383D01*
X55857854Y-118369383D02*
X55857854Y-110869383D01*
X62357854Y-124869383D02*
X55857854Y-118369383D01*
X101857854Y-122869383D02*
X100007854Y-122869383D01*
X88357854Y-124869383D02*
X62357854Y-124869383D01*
X95357854Y-117869383D02*
X88357854Y-124869383D01*
X95357854Y-118219383D02*
X95357854Y-117869383D01*
X100007854Y-122869383D02*
X95357854Y-118219383D01*
X67892855Y-102904384D02*
X70857854Y-105869383D01*
X43482853Y-98994382D02*
X43482853Y-99494382D01*
X41357854Y-96869383D02*
X43482853Y-98994382D01*
X70857854Y-105869383D02*
X70857854Y-107869383D01*
X46892855Y-102904384D02*
X67892855Y-102904384D01*
X43482853Y-99494382D02*
X46892855Y-102904384D01*
X41357854Y-91029383D02*
X41357854Y-96869383D01*
X52544854Y-112709383D02*
X53857854Y-114022383D01*
X41357854Y-112709383D02*
X52544854Y-112709383D01*
X67857854Y-115869383D02*
X58911850Y-115869383D01*
X58911850Y-115869383D02*
X58853854Y-115927379D01*
X41357854Y-99209383D02*
X46517854Y-104369383D01*
X46517854Y-104369383D02*
X64357854Y-104369383D01*
X64357854Y-104369383D02*
X65857854Y-105869383D01*
X65857854Y-105869383D02*
X65857854Y-107369383D01*
X97357854Y-94869383D02*
X96357854Y-93869383D01*
X96357854Y-93869383D02*
X96357854Y-92869383D01*
X104357856Y-94869383D02*
X97357854Y-94869383D01*
X107357856Y-97869383D02*
X104357856Y-94869383D01*
X118357854Y-97869383D02*
X107357856Y-97869383D01*
X120921854Y-100433383D02*
X118357854Y-97869383D01*
X141697854Y-110869383D02*
X138627854Y-107799383D01*
X138627854Y-107799383D02*
X133529854Y-107799383D01*
X126168856Y-100433383D02*
X120921854Y-100433383D01*
X133529854Y-107799383D02*
X126166355Y-100435884D01*
X126166355Y-100435884D02*
X126168856Y-100433383D01*
X117889853Y-105494382D02*
X114860854Y-102465383D01*
X103107845Y-97619374D02*
X96897845Y-97619374D01*
X119413853Y-105494382D02*
X117889853Y-105494382D01*
X106857854Y-101369383D02*
X103107845Y-97619374D01*
X111431854Y-102465383D02*
X110335854Y-101369383D01*
X114860854Y-102465383D02*
X111431854Y-102465383D01*
X128697854Y-110869383D02*
X128697854Y-108809383D01*
X96897845Y-97619374D02*
X93697854Y-94419383D01*
X120363865Y-106444394D02*
X119413853Y-105494382D01*
X126332865Y-106444394D02*
X120363865Y-106444394D01*
X110335854Y-101369383D02*
X106857854Y-101369383D01*
X93697854Y-94419383D02*
X93697854Y-92869383D01*
X128697854Y-108809383D02*
X126332865Y-106444394D01*
X65707854Y-63409383D02*
X63933854Y-65183383D01*
X66857854Y-63409383D02*
X65707854Y-63409383D01*
X63933854Y-65183383D02*
X63933854Y-67921383D01*
X122988854Y-109704383D02*
X119813854Y-109704383D01*
X138047854Y-119819383D02*
X136622853Y-118394382D01*
X131678853Y-118394382D02*
X122988854Y-109704383D01*
X136622853Y-118394382D02*
X131678853Y-118394382D01*
X122990250Y-108561383D02*
X122353854Y-108561383D01*
X140587854Y-119819383D02*
X138137854Y-117369383D01*
X131798250Y-117369383D02*
X122990250Y-108561383D01*
X138137854Y-117369383D02*
X131798250Y-117369383D01*
X145575854Y-113387383D02*
X137466854Y-113387383D01*
X125413853Y-101334382D02*
X120579855Y-101334382D01*
X103853853Y-96792382D02*
X103303854Y-96242383D01*
X148207854Y-119819383D02*
X148207854Y-116019383D01*
X105880853Y-98819382D02*
X103853853Y-96792382D01*
X148207854Y-116019383D02*
X145575854Y-113387383D01*
X137466854Y-113387383D02*
X125413853Y-101334382D01*
X118064855Y-98819382D02*
X105880853Y-98819382D01*
X120579855Y-101334382D02*
X118064855Y-98819382D01*
X83537854Y-94496379D02*
X83537854Y-94419383D01*
X102732852Y-104244382D02*
X93285857Y-104244382D01*
X83537854Y-94419383D02*
X83537854Y-92869383D01*
X107430853Y-108942383D02*
X102732852Y-104244382D01*
X112574854Y-108942383D02*
X107430853Y-108942383D01*
X152195852Y-128246383D02*
X130269856Y-128246383D01*
X154419856Y-128246383D02*
X153967855Y-127794382D01*
X153967855Y-127794382D02*
X152647853Y-127794382D01*
X130269856Y-128246383D02*
X119232855Y-117209382D01*
X93285857Y-104244382D02*
X83537854Y-94496379D01*
X152647853Y-127794382D02*
X152195852Y-128246383D01*
X185357854Y-126456383D02*
X183567854Y-128246383D01*
X183567854Y-128246383D02*
X154419856Y-128246383D01*
X119232855Y-117209382D02*
X119232855Y-115600384D01*
X119232855Y-115600384D02*
X112574854Y-108942383D01*
X185357854Y-123369383D02*
X185357854Y-126456383D01*
X94159852Y-103354383D02*
X86158852Y-95353383D01*
X113082854Y-107418383D02*
X107494854Y-107418383D01*
X121282853Y-115618382D02*
X113082854Y-107418383D01*
X107494854Y-107418383D02*
X103430854Y-103354383D01*
X183694854Y-125706383D02*
X182424854Y-126976383D01*
X103430854Y-103354383D02*
X94159852Y-103354383D01*
X130153852Y-126976383D02*
X121282853Y-118105384D01*
X182424854Y-126976383D02*
X130153852Y-126976383D01*
X121282853Y-118105384D02*
X121282853Y-115618382D01*
X183694854Y-102199049D02*
X183694854Y-125706383D01*
X186357854Y-99536049D02*
X183694854Y-102199049D01*
X48857854Y-101529383D02*
X60415844Y-101529383D01*
X60415844Y-101529383D02*
X63171854Y-98773373D01*
X53507854Y-122869383D02*
X49357854Y-127019383D01*
X55357854Y-122869383D02*
X53507854Y-122869383D01*
X49357854Y-127019383D02*
X49357854Y-127369383D01*
X81232855Y-41244384D02*
X106732855Y-41244384D01*
X79857854Y-39869383D02*
X81232855Y-41244384D01*
X106732855Y-41244384D02*
X107357854Y-41869383D01*
X107357854Y-41869383D02*
X107357854Y-42869383D01*
X80857854Y-81369383D02*
X80857854Y-85369383D01*
X112777854Y-36369383D02*
X115002855Y-34144382D01*
X142627855Y-34144382D02*
X145357854Y-36874381D01*
X115002855Y-34144382D02*
X142627855Y-34144382D01*
X145357854Y-36874381D02*
X145357854Y-48904385D01*
X135001356Y-57869383D02*
X135109356Y-57761383D01*
X133657854Y-57869383D02*
X135001356Y-57869383D01*
X135109356Y-57761383D02*
X136577854Y-57761383D01*
X145357854Y-48904385D02*
X136577854Y-57761383D01*
X73331854Y-90343383D02*
X73331854Y-87894190D01*
X73331854Y-87894190D02*
X73331854Y-87116373D01*
X73357854Y-90369383D02*
X73331854Y-90343383D01*
X95707844Y-87619373D02*
X99607844Y-87619373D01*
X93457854Y-85369383D02*
X95707844Y-87619373D01*
X99607844Y-87619373D02*
X101357854Y-89369383D01*
X101357854Y-89369383D02*
X101357854Y-90369383D01*
X92342855Y-86794384D02*
X92342855Y-86854384D01*
X90917854Y-85369383D02*
X92342855Y-86794384D01*
X92342855Y-86854384D02*
X93857854Y-88369383D01*
X93857854Y-88369383D02*
X97857854Y-88369383D01*
X97857854Y-88369383D02*
X98857854Y-89369383D01*
X98857854Y-89369383D02*
X98857854Y-90369383D01*
X88377854Y-85369383D02*
X90857854Y-87849383D01*
X90857854Y-87849383D02*
X90857854Y-90369383D01*
X86687853Y-86219382D02*
X86707853Y-86219382D01*
X85837854Y-85369383D02*
X86687853Y-86219382D01*
X86707853Y-86219382D02*
X88857854Y-88369383D01*
X88857854Y-88369383D02*
X88857854Y-89869383D01*
X88857854Y-89869383D02*
X88857854Y-90369383D01*
X115902851Y-86794384D02*
X112701854Y-89995381D01*
X120167855Y-86794384D02*
X115902851Y-86794384D01*
X120760855Y-86201384D02*
X120167855Y-86794384D01*
X120760855Y-83484382D02*
X120760855Y-86201384D01*
X121210854Y-83034383D02*
X120760855Y-83484382D01*
X112701854Y-89995381D02*
X112701854Y-94083383D01*
X65330854Y-96115383D02*
X61393854Y-96115383D01*
X61393854Y-96115383D02*
X60631854Y-95353383D01*
X60631854Y-95353383D02*
X60631854Y-92813383D01*
X103557854Y-102084383D02*
X95683852Y-102084383D01*
X107367854Y-105894383D02*
X103557854Y-102084383D01*
X155500854Y-113133383D02*
X155500854Y-120626383D01*
X123115854Y-111355383D02*
X119305854Y-111355383D01*
X126925854Y-115165383D02*
X123115854Y-111355383D01*
X113844854Y-105894383D02*
X107367854Y-105894383D01*
X119305854Y-111355383D02*
X113844854Y-105894383D01*
X126925854Y-122023383D02*
X126925854Y-115165383D01*
X130354854Y-125452383D02*
X126925854Y-122023383D01*
X157532854Y-111101383D02*
X155500854Y-113133383D01*
X150674854Y-125452383D02*
X130354854Y-125452383D01*
X155500854Y-120626383D02*
X150674854Y-125452383D01*
M02*
